<?xml version="1.0" encoding="UTF-8" standalone="no"?><!-- Generator: Gravit.io --><svg xmlns="http://www.w3.org/2000/svg" xmlns:xlink="http://www.w3.org/1999/xlink" style="isolation:isolate" viewBox="0 0 1200 630" width="1200pt" height="630pt"><defs><clipPath id="_clipPath_8oPffEydXY4TUUREIlv11nSb3CaO6ZAY"><rect width="1200" height="630"/></clipPath></defs><g clip-path="url(#_clipPath_8oPffEydXY4TUUREIlv11nSb3CaO6ZAY)"><rect width="1200" height="630" style="fill:rgb(17,24,39)" fill-opacity="0"/><rect x="0" y="0" width="1200" height="630" transform="matrix(1,0,0,1,0,0)" fill="rgb(17,24,39)"/><g><path d=" M 345 315 L 345 396.848 L 364.173 385.724 L 364.173 362.588 L 364.173 315 L 345 315 Z  M 449.293 315 L 379.211 354.181 L 379.211 377.002 L 486.088 315 L 449.293 315 Z " fill="rgb(19,58,212)"/><path d=" M 424.86 314.891 L 379.211 340.411 L 379.211 289.371 L 424.86 314.891 Z " fill="rgb(4,162,255)"/><path d=" M 345 233.152 L 345 315 L 364.173 315 L 364.173 284.821 L 364.173 267.194 L 449.489 314.89 L 449.293 315 L 486.088 315 L 486.091 314.999 L 345 233.152 Z " fill="rgb(134,0,239)"/></g><path d=" M 521.25 272.628 L 508.548 272.628 L 508.548 324.75 L 511.468 324.75 L 511.468 298.689 L 521.25 298.689 C 529.426 298.689 535.412 293.579 535.412 285.549 C 535.412 277.519 529.426 272.628 521.25 272.628 Z  M 521.177 295.696 L 511.468 295.696 L 511.468 275.621 L 521.177 275.621 C 527.601 275.621 532.419 279.344 532.419 285.549 C 532.419 291.827 527.601 295.696 521.177 295.696 Z  M 572.423 309.712 C 572.423 301.098 565.488 294.09 556.874 294.09 C 548.26 294.09 541.325 301.098 541.325 309.712 C 541.325 318.326 548.26 325.261 556.874 325.261 C 565.488 325.261 572.423 318.326 572.423 309.712 Z  M 544.245 309.712 C 544.245 302.704 549.866 297.01 556.874 297.01 C 563.882 297.01 569.503 302.704 569.503 309.712 C 569.503 316.72 563.882 322.341 556.874 322.341 C 549.866 322.341 544.245 316.72 544.245 309.712 Z  M 583.665 324.75 L 583.665 270.73 L 580.745 270.73 L 580.745 324.75 L 583.665 324.75 Z  M 605.638 318.399 L 594.396 294.601 L 591.184 294.601 L 603.886 321.976 L 596.075 338.912 L 599.433 338.912 L 620.019 294.601 L 616.734 294.601 L 605.638 318.399 Z  M 626.443 324.75 L 629.436 324.75 L 629.436 303.434 C 629.436 300.587 631.845 297.156 635.422 297.156 C 637.612 297.156 638.999 297.813 640.678 299.054 L 642.284 296.572 C 640.459 295.258 638.561 294.236 635.276 294.236 C 632.721 294.236 630.458 295.404 629.436 297.229 L 629.436 294.601 L 626.443 294.601 L 626.443 324.75 Z  M 652.577 294.601 L 649.584 294.601 L 649.584 324.75 L 652.577 324.75 L 652.577 294.601 Z  M 653.526 286.79 C 653.526 285.476 652.431 284.381 651.117 284.381 C 649.803 284.381 648.708 285.476 648.708 286.79 C 648.708 288.104 649.803 289.199 651.117 289.199 C 652.431 289.199 653.526 288.104 653.526 286.79 Z  M 676.375 299.565 L 678.565 297.667 C 676.448 295.55 674.039 294.163 670.024 294.163 C 665.425 294.163 661.775 297.448 661.775 301.682 C 661.775 306.792 665.571 308.471 669.294 309.712 C 673.382 311.099 677.178 312.267 677.178 316.501 C 677.178 320.078 674.842 322.341 670.316 322.341 C 666.52 322.341 663.673 320.224 662.359 317.45 L 659.804 318.983 C 661.41 321.976 664.403 325.334 670.316 325.334 C 676.302 325.334 680.171 321.319 680.171 316.501 C 680.171 310.369 674.988 308.617 670.535 307.011 C 667.177 305.843 664.768 304.821 664.768 301.682 C 664.768 298.762 667.177 297.083 670.024 297.083 C 672.871 297.083 674.769 297.959 676.375 299.565 Z  M 712.145 306.208 L 687.69 306.208 C 688.639 302.631 691.851 297.01 699.954 297.01 C 707.838 297.01 711.415 302.704 712.145 306.208 Z  M 711.123 316.063 C 709.225 319.494 705.867 322.414 699.954 322.414 C 692.508 322.414 687.252 317.45 687.252 309.055 L 715.503 309.055 C 715.503 300.879 709.371 294.09 699.954 294.09 C 691.048 294.09 684.332 300.514 684.332 309.712 C 684.332 318.837 690.756 325.334 699.954 325.334 C 707.546 325.334 711.78 321.392 713.824 317.304 L 711.123 316.063 Z " fill="rgb(255,255,255)"/><path d=" M 785.324 375 L 786.892 375 L 786.892 368.42 C 786.892 366.684 787.816 364.892 790.28 364.892 C 792.52 364.892 793.5 366.32 793.5 368.532 L 793.5 375.028 L 795.096 375.028 L 795.096 368 C 795.096 365.34 793.528 363.324 790.28 363.324 C 788.376 363.324 787.256 364.192 786.892 365.06 L 786.892 363.436 L 785.324 363.436 L 785.324 375 Z  M 809.908 369.232 C 809.908 365.928 807.22 363.24 803.916 363.24 C 800.612 363.24 797.924 365.928 797.924 369.232 C 797.924 372.536 800.612 375.224 803.916 375.224 C 807.22 375.224 809.908 372.536 809.908 369.232 Z  M 799.492 369.26 C 799.492 366.824 801.48 364.836 803.916 364.836 C 806.352 364.836 808.34 366.824 808.34 369.26 C 808.34 371.696 806.352 373.684 803.916 373.684 C 801.48 373.684 799.492 371.696 799.492 369.26 Z  M 813.072 375 L 814.64 375 L 814.64 368.42 C 814.64 366.684 815.564 364.892 818.028 364.892 C 820.268 364.892 821.248 366.32 821.248 368.532 L 821.248 375.028 L 822.844 375.028 L 822.844 368 C 822.844 365.34 821.276 363.324 818.028 363.324 C 816.124 363.324 815.004 364.192 814.64 365.06 L 814.64 363.436 L 813.072 363.436 L 813.072 375 Z  M 831.804 366.74 L 826.036 366.74 L 826.036 368.168 L 831.804 368.168 L 831.804 366.74 Z  M 834.492 369.232 C 834.492 372.704 837.012 375.224 840.484 375.224 C 842.332 375.224 843.368 374.692 844.124 374.132 L 844.124 372.088 C 843.256 372.9 842.052 373.628 840.484 373.628 C 837.964 373.628 836.088 371.752 836.088 369.232 C 836.088 366.712 837.964 364.836 840.484 364.836 C 842.108 364.836 843.256 365.564 844.124 366.32 L 844.124 364.304 C 843.116 363.688 842.164 363.24 840.484 363.24 C 837.012 363.24 834.492 365.732 834.492 369.232 Z  M 858.404 369.232 C 858.404 365.928 855.716 363.24 852.412 363.24 C 849.108 363.24 846.42 365.928 846.42 369.232 C 846.42 372.536 849.108 375.224 852.412 375.224 C 855.716 375.224 858.404 372.536 858.404 369.232 Z  M 847.988 369.26 C 847.988 366.824 849.976 364.836 852.412 364.836 C 854.848 364.836 856.836 366.824 856.836 369.26 C 856.836 371.696 854.848 373.684 852.412 373.684 C 849.976 373.684 847.988 371.696 847.988 369.26 Z  M 870.948 354.28 L 870.948 365.228 C 869.856 363.996 868.26 363.24 866.496 363.24 C 863.192 363.24 860.504 365.928 860.504 369.232 C 860.504 372.536 863.192 375.224 866.496 375.224 C 868.26 375.224 869.856 374.468 870.948 373.236 L 870.948 375 L 872.516 375 L 872.516 354.28 L 870.948 354.28 Z  M 862.072 369.26 C 862.072 366.824 864.06 364.836 866.496 364.836 C 868.932 364.836 870.92 366.824 870.92 369.26 C 870.92 371.696 868.932 373.684 866.496 373.684 C 864.06 373.684 862.072 371.696 862.072 369.26 Z  M 881 373.628 C 878.48 373.628 876.94 371.892 876.66 369.932 L 886.712 369.932 C 886.936 369.932 886.992 369.68 886.992 369.148 C 886.992 366.264 884.92 363.24 881 363.24 C 877.528 363.24 875.008 365.732 875.008 369.232 C 875.008 372.704 877.528 375.224 881 375.224 C 883.604 375.224 885.368 373.824 886.208 372.368 L 884.808 371.528 C 884.08 372.648 882.876 373.628 881 373.628 Z  M 885.284 368.42 L 876.688 368.42 C 876.772 367.02 878.172 364.836 881 364.836 C 883.688 364.836 885.116 366.908 885.284 368.42 Z  M 889.568 375 L 891.136 375 L 891.136 366.936 C 891.136 366.04 892.116 364.864 893.432 364.864 C 894.496 364.864 894.888 365.116 895.28 365.424 L 896.036 364.248 C 895.336 363.576 894.524 363.296 893.376 363.296 C 892.256 363.296 891.472 363.968 891.136 364.696 L 891.136 363.436 L 889.568 363.436 L 889.568 375 Z  M 904.688 365.872 L 905.948 364.948 C 905.164 363.996 904.184 363.268 902.364 363.268 C 900.18 363.268 898.612 364.556 898.612 366.376 C 898.612 368.476 900.124 369.036 901.804 369.54 C 903.344 370.016 904.576 370.492 904.576 371.696 C 904.576 372.872 903.4 373.6 902.084 373.6 C 900.572 373.6 899.9 373.068 899.34 372.256 L 898.024 373.068 C 898.78 374.244 899.928 375.168 902.084 375.168 C 904.24 375.168 906.144 373.88 906.144 371.696 C 906.144 369.736 904.548 368.7 902.336 368.084 C 900.992 367.72 900.18 367.216 900.18 366.376 C 900.18 365.452 900.88 364.836 902.364 364.836 C 903.652 364.836 904.24 365.34 904.688 365.872 Z  M 910.624 373.908 C 910.624 373.208 910.036 372.62 909.336 372.62 C 908.636 372.62 908.048 373.208 908.048 373.908 C 908.048 374.608 908.636 375.196 909.336 375.196 C 910.036 375.196 910.624 374.608 910.624 373.908 Z  M 746.488 365.004 L 746.488 375 L 748.056 375 L 748.056 365.004 L 750.8 365.004 L 750.8 363.436 L 748.056 363.436 L 748.056 356.996 C 748.056 355.792 748.588 355.568 749.4 355.568 C 749.736 355.568 750.24 355.68 750.716 355.848 L 750.716 354.336 C 750.128 354.168 749.68 354.112 748.98 354.112 C 747.244 354.112 746.488 355.316 746.488 356.716 L 746.488 363.436 L 744.92 363.436 L 744.92 365.004 L 746.488 365.004 Z  M 765.08 369.232 C 765.08 365.928 762.392 363.24 759.088 363.24 C 755.784 363.24 753.096 365.928 753.096 369.232 C 753.096 372.536 755.784 375.224 759.088 375.224 C 762.392 375.224 765.08 372.536 765.08 369.232 Z  M 754.664 369.26 C 754.664 366.824 756.652 364.836 759.088 364.836 C 761.524 364.836 763.512 366.824 763.512 369.26 C 763.512 371.696 761.524 373.684 759.088 373.684 C 756.652 373.684 754.664 371.696 754.664 369.26 Z  M 767.852 375 L 769.42 375 L 769.42 366.936 C 769.42 366.04 770.4 364.864 771.716 364.864 C 772.78 364.864 773.172 365.116 773.564 365.424 L 774.32 364.248 C 773.62 363.576 772.808 363.296 771.66 363.296 C 770.54 363.296 769.756 363.968 769.42 364.696 L 769.42 363.436 L 767.852 363.436 L 767.852 375 Z  M 646.108 369.232 C 646.108 372.704 648.628 375.224 652.1 375.224 C 653.948 375.224 654.984 374.692 655.74 374.132 L 655.74 372.088 C 654.872 372.9 653.668 373.628 652.1 373.628 C 649.58 373.628 647.704 371.752 647.704 369.232 C 647.704 366.712 649.58 364.836 652.1 364.836 C 653.724 364.836 654.872 365.564 655.74 366.32 L 655.74 364.304 C 654.732 363.688 653.78 363.24 652.1 363.24 C 648.628 363.24 646.108 365.732 646.108 369.232 Z  M 658.764 375 L 660.332 375 L 660.332 366.936 C 660.332 366.04 661.312 364.864 662.628 364.864 C 663.692 364.864 664.084 365.116 664.476 365.424 L 665.232 364.248 C 664.532 363.576 663.72 363.296 662.572 363.296 C 661.452 363.296 660.668 363.968 660.332 364.696 L 660.332 363.436 L 658.764 363.436 L 658.764 375 Z  M 673.38 373.628 C 670.86 373.628 669.32 371.892 669.04 369.932 L 679.092 369.932 C 679.316 369.932 679.372 369.68 679.372 369.148 C 679.372 366.264 677.3 363.24 673.38 363.24 C 669.908 363.24 667.388 365.732 667.388 369.232 C 667.388 372.704 669.908 375.224 673.38 375.224 C 675.984 375.224 677.748 373.824 678.588 372.368 L 677.188 371.528 C 676.46 372.648 675.256 373.628 673.38 373.628 Z  M 677.664 368.42 L 669.068 368.42 C 669.152 367.02 670.552 364.836 673.38 364.836 C 676.068 364.836 677.496 366.908 677.664 368.42 Z  M 687.464 375.224 C 689.228 375.224 690.796 374.468 691.888 373.264 L 691.888 375 L 693.456 375 L 693.456 363.436 L 691.888 363.436 L 691.888 365.2 C 690.796 363.996 689.2 363.24 687.464 363.24 C 684.16 363.24 681.472 365.928 681.472 369.232 C 681.472 372.536 684.16 375.224 687.464 375.224 Z  M 683.068 369.26 C 683.068 366.824 685.056 364.836 687.492 364.836 C 689.928 364.836 691.916 366.824 691.916 369.26 C 691.916 371.696 689.928 373.684 687.492 373.684 C 685.056 373.684 683.068 371.696 683.068 369.26 Z  M 697.768 365.004 L 697.768 375 L 699.336 375 L 699.336 365.004 L 702.052 365.004 L 702.052 363.436 L 699.336 363.436 L 699.336 358.368 L 697.768 358.368 L 697.768 363.436 L 696.2 363.436 L 696.2 365.004 L 697.768 365.004 Z  M 706.672 363.436 L 705.076 363.436 L 705.076 375 L 706.672 375 L 706.672 363.436 Z  M 706.84 360.44 C 706.84 359.88 706.392 359.46 705.86 359.46 C 705.328 359.46 704.88 359.88 704.88 360.44 C 704.88 360.972 705.328 361.392 705.86 361.392 C 706.392 361.392 706.84 360.972 706.84 360.44 Z  M 721.596 369.232 C 721.596 365.928 718.908 363.24 715.604 363.24 C 712.3 363.24 709.612 365.928 709.612 369.232 C 709.612 372.536 712.3 375.224 715.604 375.224 C 718.908 375.224 721.596 372.536 721.596 369.232 Z  M 711.18 369.26 C 711.18 366.824 713.168 364.836 715.604 364.836 C 718.04 364.836 720.028 366.824 720.028 369.26 C 720.028 371.696 718.04 373.684 715.604 373.684 C 713.168 373.684 711.18 371.696 711.18 369.26 Z  M 724.76 375 L 726.328 375 L 726.328 368.42 C 726.328 366.684 727.252 364.892 729.716 364.892 C 731.956 364.892 732.936 366.32 732.936 368.532 L 732.936 375.028 L 734.532 375.028 L 734.532 368 C 734.532 365.34 732.964 363.324 729.716 363.324 C 727.812 363.324 726.692 364.192 726.328 365.06 L 726.328 363.436 L 724.76 363.436 L 724.76 375 Z  M 595.4 371.92 L 591.676 363.436 L 590.136 363.436 L 595.4 375.42 L 599.264 366.656 L 603.128 375.42 L 608.392 363.436 L 606.852 363.436 L 603.128 371.92 L 599.264 363.072 L 595.4 371.92 Z  M 615.728 373.628 C 613.208 373.628 611.668 371.892 611.388 369.932 L 621.44 369.932 C 621.664 369.932 621.72 369.68 621.72 369.148 C 621.72 366.264 619.648 363.24 615.728 363.24 C 612.256 363.24 609.736 365.732 609.736 369.232 C 609.736 372.704 612.256 375.224 615.728 375.224 C 618.332 375.224 620.096 373.824 620.936 372.368 L 619.536 371.528 C 618.808 372.648 617.604 373.628 615.728 373.628 Z  M 620.012 368.42 L 611.416 368.42 C 611.5 367.02 612.9 364.836 615.728 364.836 C 618.416 364.836 619.844 366.908 620.012 368.42 Z  M 630.176 363.24 C 628.412 363.24 626.816 363.996 625.724 365.228 L 625.724 354.28 L 624.156 354.28 L 624.156 375 L 625.724 375 L 625.724 373.236 C 626.816 374.468 628.412 375.224 630.176 375.224 C 633.48 375.224 636.168 372.536 636.168 369.232 C 636.168 365.928 633.48 363.24 630.176 363.24 Z  M 625.752 369.26 C 625.752 366.824 627.74 364.836 630.176 364.836 C 632.612 364.836 634.6 366.824 634.6 369.26 C 634.6 371.696 632.612 373.684 630.176 373.684 C 627.74 373.684 625.752 371.696 625.752 369.26 Z  M 509.104 354.532 L 503.896 375 L 505.604 375 L 509.496 359.74 L 515.824 375.392 L 522.18 359.74 L 526.044 375 L 527.78 375 L 522.544 354.532 L 515.824 371.164 L 509.104 354.532 Z  M 541.388 369.232 C 541.388 365.928 538.7 363.24 535.396 363.24 C 532.092 363.24 529.404 365.928 529.404 369.232 C 529.404 372.536 532.092 375.224 535.396 375.224 C 538.7 375.224 541.388 372.536 541.388 369.232 Z  M 530.972 369.26 C 530.972 366.824 532.96 364.836 535.396 364.836 C 537.832 364.836 539.82 366.824 539.82 369.26 C 539.82 371.696 537.832 373.684 535.396 373.684 C 532.96 373.684 530.972 371.696 530.972 369.26 Z  M 550.04 363.24 C 548.276 363.24 546.68 363.996 545.588 365.228 L 545.588 354.28 L 544.02 354.28 L 544.02 375 L 545.588 375 L 545.588 373.236 C 546.68 374.468 548.276 375.224 550.04 375.224 C 553.344 375.224 556.032 372.536 556.032 369.232 C 556.032 365.928 553.344 363.24 550.04 363.24 Z  M 545.616 369.26 C 545.616 366.824 547.604 364.836 550.04 364.836 C 552.476 364.836 554.464 366.824 554.464 369.26 C 554.464 371.696 552.476 373.684 550.04 373.684 C 547.604 373.684 545.616 371.696 545.616 369.26 Z  M 560.568 363.436 L 558.972 363.436 L 558.972 375 L 560.568 375 L 560.568 363.436 Z  M 560.736 360.44 C 560.736 359.88 560.288 359.46 559.756 359.46 C 559.224 359.46 558.776 359.88 558.776 360.44 C 558.776 360.972 559.224 361.392 559.756 361.392 C 560.288 361.392 560.736 360.972 560.736 360.44 Z  M 566.112 375 L 566.112 354.28 L 564.516 354.28 L 564.516 375 L 566.112 375 Z  M 575.016 373.628 C 572.496 373.628 570.956 371.892 570.676 369.932 L 580.728 369.932 C 580.952 369.932 581.008 369.68 581.008 369.148 C 581.008 366.264 578.936 363.24 575.016 363.24 C 571.544 363.24 569.024 365.732 569.024 369.232 C 569.024 372.704 571.544 375.224 575.016 375.224 C 577.62 375.224 579.384 373.824 580.224 372.368 L 578.824 371.528 C 578.096 372.648 576.892 373.628 575.016 373.628 Z  M 579.3 368.42 L 570.704 368.42 C 570.788 367.02 572.188 364.836 575.016 364.836 C 577.704 364.836 579.132 366.908 579.3 368.42 Z " fill="rgb(255,255,255)"/></g></svg>