<?xml version="1.0" encoding="UTF-8" standalone="no"?>
<svg 
  xmlns="http://www.w3.org/2000/svg" 
  viewBox="0 0 512 512" 
  width="512" 
  height="512">
  
  <path 
    fill="#000000" 
    d="m154.8 0.1c10.3-0.1 11.8 0.1 18.4 2.9 4 1.7 8.9 4.3 10.8 5.8 1.9 1.6 5.2 5.1 7.2 7.8 2.1 2.7 4.9 7.7 6.3 11.2 1.4 3.4 3.2 10.4 4.1 15.5 1.2 6.7 1.5 12.2 1 20.2-0.3 6-1.7 16-3.1 22-1.4 6-5.5 19.5-9.1 30-3.6 10.5-9.2 26.7-12.4 36-3.2 9.3-6.7 21.3-7.8 26.5-1.1 5.2-2.3 12.5-2.6 16.3-0.4 4.2-0.2 6.7 0.4 6.7 0.6 0 2.9-3.5 5.2-7.7 2.2-4.3 8.7-14.8 14.3-23.3 5.6-8.5 16.2-23.6 23.7-33.5 7.4-9.9 19.4-25 26.5-33.5 7.2-8.5 17.9-20.6 23.9-26.9 6-6.3 14.3-14.1 18.4-17.4 4.1-3.3 10.6-7.5 14.5-9.4 5.7-2.7 8.6-3.5 15.5-4 7.5-0.5 9.1-0.3 13.9 1.8 3.3 1.4 7.1 4.2 9.5 6.9 2.3 2.5 5.4 7.3 7 10.5 1.5 3.3 3.5 9.2 4.3 13 1 4.8 1.3 10.3 1 17.5-0.4 8.6-1.1 12.5-4.1 21.5-2.4 7-9.8 23.2-20.6 44.5-9.2 18.4-20.8 41.4-25.7 51-4.8 9.6-10.5 22.1-12.6 27.8-2 5.6-4.8 14.1-6.2 18.9-1.4 4.9-2.5 10.6-2.5 12.8 0 3.9 0.2 3.7 6.8-8 3.8-6.6 11.2-19.2 16.6-28 5.5-8.8 12.9-20.5 16.6-26 3.7-5.5 9.6-13.6 13.1-18 3.5-4.4 14.2-17.4 23.9-29 9.7-11.6 20.6-23.6 24.1-26.8 3.5-3.3 10.7-8.8 15.9-12.3 5.2-3.5 12.6-7.7 16.5-9.3 3.9-1.6 9.7-3.7 13-4.5 3.3-0.9 8.5-1.6 11.5-1.6 3 0 7.7 0.6 10.5 1.4 2.9 0.9 6.9 3.2 9.5 5.4 2.5 2.1 5.9 6.5 7.7 9.8 1.7 3.2 3.9 8.8 4.8 12.4 1 4.1 1.8 12.9 2.2 23.5 0.5 15.2 0.3 17.6-1.4 22.5-1.1 3-15.4 38.3-31.8 78.5-16.4 40.1-33.8 82.9-38.7 95-4.9 12.1-10.5 26.5-12.4 32-1.9 5.5-4.8 14.9-6.4 21-1.7 6.1-3.9 15.7-5 21.5-1.1 5.8-2 12.8-2 15.5 0 2.7 0.8 7.4 1.7 10.4 1.1 3.2 3.5 7.4 5.9 10 2.3 2.6 6.4 5.7 9.5 7.1 5 2.3 6.6 2.5 19.4 2.5 11.9 0 16.4-0.5 30-3.3 8.8-1.8 17-3.5 18.2-3.8 1.4-0.2 2.3 0.1 2.3 0.8 0 0.7-1.6 4-3.5 7.3-2 3.3-6.4 8.9-9.8 12.4-3.4 3.5-9.1 8.3-12.7 10.6-3.6 2.4-8.8 5.2-11.5 6.3-2.8 1.1-8.8 2.7-13.5 3.7-7.3 1.4-9.5 1.5-15 0.5-3.6-0.7-9-2.2-12-3.3-3-1.1-8.4-3.9-12-6.2-3.6-2.3-8.7-6.7-11.4-9.6-2.7-3-6.2-7.4-7.9-9.9-1.7-2.5-4.5-7.6-6.3-11.5-1.7-3.9-4.1-10.8-5.3-15.5-1.1-4.7-2.6-13.2-3.2-19-0.7-6.1-0.9-17.4-0.6-27 0.3-10.4 1.3-20.8 2.7-28 1.1-6.3 3.5-16.9 5.1-23.5 1.7-6.6 6.1-21.2 9.8-32.5 3.8-11.3 9.8-27.7 13.4-36.5 3.6-8.8 9.1-21.9 12.2-29 3.2-7.2 12.8-27.8 21.5-46 8.7-18.2 17.4-37.2 19.4-42.3 2-5 4.7-12.9 6-17.5 1.3-4.5 2.6-9.9 3-12 0.3-2.2 0.2-3.7-0.4-3.7-0.6 0-2.9 1-5.3 2.1-2.3 1.2-6 3.4-8.2 4.8-2.2 1.4-7.4 5.1-11.5 8.2-4.1 3.1-11.1 9.2-15.5 13.5-4.4 4.4-12 12.4-16.9 17.9-4.9 5.5-13.2 15.4-18.5 22-5.3 6.6-13.9 17.8-19.1 25-5.2 7.2-14.5 20.7-20.8 30-6.2 9.4-21.8 34.6-34.7 56-12.8 21.4-26 42.7-29.4 47.3-3.4 4.5-7.1 8.9-8.4 9.7-1.2 0.8-4 1.8-6.2 2.1-2.3 0.4-5.7 0.1-8-0.7-2.2-0.7-5.3-2.5-6.9-3.9-1.6-1.4-3.8-4.5-4.8-7-1.1-2.5-2.6-8.6-3.5-13.5-1.1-6.5-1.3-11.9-0.8-19.5 0.3-5.8 1.5-15.4 2.5-21.5 1.1-6.1 3.3-15.7 4.9-21.5 1.7-5.8 4.8-15.2 6.9-21 2.2-5.8 6.1-15.7 8.8-22 2.6-6.3 8.5-18.9 12.9-28 4.5-9.1 16-30.2 25.5-47 9.6-16.8 21.1-37.9 25.6-47 4.6-9.1 10.1-21.1 12.3-26.7 2.3-5.7 5.2-14 6.5-18.5 1.3-4.6 2.2-8.5 2-8.8-0.2-0.3-5.7 3.5-12.1 8.5-6.8 5.1-19.5 16.6-29.9 27-9.9 9.9-22.9 23.8-28.8 31-5.9 7.2-18.1 22.7-26.9 34.5-8.9 11.9-21.4 29.1-27.7 38.3-6.3 9.2-16.4 24.3-22.3 33.5-5.9 9.2-15.8 25-21.9 35.2-6.1 10.2-15.5 26.6-20.9 36.5-5.4 9.9-12.7 24.8-16.2 33-3.5 8.3-9.5 22.6-13.3 32-3.8 9.4-8.6 19.6-10.6 22.8-2.1 3.1-5.5 6.8-7.6 8.2-2.5 1.8-5.6 2.7-9.7 3.1-5 0.5-6.7 0.2-10.4-1.8-2.5-1.3-5.7-3.9-7.3-5.8-1.5-1.9-3.5-6.4-4.4-10-1.2-4.9-1.5-8.8-1.1-15.5 0.4-5.5 2-13.9 4.1-21.5 1.9-6.9 6.6-20.6 10.4-30.5 3.8-9.9 18-46.4 31.5-81 13.5-34.7 26.2-67.9 28.2-74 2.1-6.1 12.9-33.1 24.1-60 11.2-26.9 21.3-52.6 22.4-57 1.1-4.4 2-9.3 2-11 0-1.6-0.6-4.8-1.3-6.9-0.6-2.1-2.7-5.2-4.5-6.7-1.8-1.7-4.4-2.9-6-2.9-1.5 0-5.2 1.2-8.2 2.7-3.7 1.8-9.1 6.3-16.6 13.7-6.1 6.1-14.8 16.1-19.3 22.1-4.4 6-11 16.6-14.5 23.5-3.5 6.9-9.6 21.5-13.6 32.5-4.7 13-7.9 20.6-9.3 21.8-1.2 1-3.4 1.8-5 1.7-1.5 0-3.6-0.4-4.7-1-1.2-0.6-3.2-4.1-4.9-8.2-1.6-4-3.4-9.8-4.1-12.8-0.8-3.6-1.1-10.1-0.7-18.5 0.4-10.5 1-14.6 3.2-21.5 1.5-4.7 4.5-12.1 6.7-16.5 2.2-4.4 6.6-11.8 9.7-16.5 3.1-4.6 9.9-13 15.2-18.5 5.3-5.5 12.9-12.3 17-15.2 4.1-2.8 11-6.9 15.4-9.1 4.4-2.2 10.7-4.8 14-5.7 3.3-1 6.9-2.1 8-2.5 1.1-0.5 7.1-0.9 13.2-0.9z"/>
</svg>