<?xml version="1.0" encoding="UTF-8" standalone="no"?>
<svg
   xmlns:dc="http://purl.org/dc/elements/1.1/"
   xmlns:cc="http://creativecommons.org/ns#"
   xmlns:rdf="http://www.w3.org/1999/02/22-rdf-syntax-ns#"
   xmlns:svg="http://www.w3.org/2000/svg"
   xmlns="http://www.w3.org/2000/svg"
   viewBox="0 0 512 512"
   height="512"
   width="512"
   version="1.1"
   id="svg4190">
  <metadata
     id="metadata4196">
    <rdf:RDF>
      <cc:Work
         rdf:about="">
        <dc:format>image/svg+xml</dc:format>
        <dc:type
           rdf:resource="http://purl.org/dc/dcmitype/StillImage" />
        <dc:title></dc:title>
      </cc:Work>
    </rdf:RDF>
  </metadata>
  <defs
     id="defs4194" />
  <g
     transform="matrix(7.5551122,0,0,7.5551122,1.0149632,2.0299267)"
     id="g4200">
    <path
       id="path4216"
       d="M 0,33.75 0,0 33.75,0 67.5,0 l 0,33.75 0,33.75 -33.75,0 L 0,67.5 0,33.75 Z"
       style="fill:#fefdfc" />
    <path
       id="path4214"
       d="M 24.84375,66.241627 C 18.460641,64.12206 13.753625,61.259006 9.7001372,57.030489 -6.5892998,40.037675 -1.2188171,13.063489 20.460801,2.9831792 24.8958,0.92105004 27.10744,0.50934504 33.75,0.50934504 c 6.737592,0 8.837803,0.40235057 13.59375,2.60424016 7.339902,3.3981987 13.730085,9.7612618 17.011368,16.9391728 3.762607,8.230822 3.762607,19.163662 0,27.394484 C 59.09816,58.947005 47.811129,66.587187 35.207527,67.177224 31.359755,67.357358 27.02543,66.966073 24.84375,66.241627 Z"
       style="fill:#e6e89d" />
    <path
       id="path4212"
       d="M 26.001063,66.479952 C 17.868606,64.563968 9.2924046,58.236138 5.0752786,51.040157 1.4927345,44.927007 -0.33002738,34.705526 1.0075672,28.229696 4.0345582,13.574824 13.931242,3.9666059 29.324895,0.7377529 c 10.304632,-2.1614194 24.21825,3.6949494 31.116411,13.0971811 8.693865,11.849787 8.693865,27.980345 0,39.830132 -7.541002,10.278428 -22.143643,15.711931 -34.440243,12.814886 z"
       style="fill:#d8db56" />
    <path
       id="path4210"
       d="M 26.001063,66.441025 C 17.935047,64.629637 9.3082043,58.263098 5.0317169,50.965824 3.6601567,48.625433 2.9665711,46.427174 3.3800971,45.731159 3.7721951,45.071209 8.7172297,37.359375 14.369063,28.59375 30.55282,3.4937963 29.477838,5.3367485 27.234394,6.537403 26.174808,7.1044765 19.96294,13.459296 13.430245,20.659223 6.8975499,27.85915 1.2763442,33.75 0.93867703,33.75 0.60100978,33.75 0.50357467,32.531498 0.72215452,31.042219 1.014748,29.048652 4.8845439,24.597637 15.393598,14.167219 31.353069,-1.6728344 30.792463,-1.4002967 41.616501,1.419007 c 24.121905,6.2829582 33.060432,34.796062 17.037915,54.349432 -4.014977,4.89975 -12.456715,9.433414 -19.748166,10.605819 -6.765342,1.087813 -8.322653,1.09587 -12.905187,0.06677 z"
       style="fill:#fdf000" />
    <path
       id="path4208"
       d="M 26.001063,66.474885 C 17.848937,64.565967 9.2938151,58.238545 5.0317169,50.965824 3.6601567,48.625433 2.9665711,46.427174 3.3800971,45.731159 3.7721951,45.071209 8.7172297,37.359375 14.369063,28.59375 30.55282,3.4937963 29.477838,5.3367485 27.234394,6.537403 26.174808,7.1044765 19.96294,13.459296 13.430245,20.659223 6.8975499,27.85915 1.2763442,33.75 0.93867703,33.75 0.60100978,33.75 0.50357467,32.531498 0.72215452,31.042219 1.0149674,29.047157 4.9122902,24.570098 15.528952,14.032877 L 29.938331,-0.26868256 34.972133,0.25085167 C 41.957582,0.97181353 47.8125,2.8629615 47.8125,4.3983107 c 0,0.7089617 -1.019615,3.3011337 -2.26581,5.7603823 -5.92023,11.683011 -12.313164,34.883719 -13.491065,48.960653 -0.357156,4.268332 -1.07125,7.855457 -1.586875,7.971389 -0.515625,0.115932 -2.526084,-0.1612 -4.467687,-0.61585 z M 40.3125,65.624833 c 0,-1.14192 19.535743,-20.791029 23.177666,-23.312166 l 3.021416,-2.091586 -1.322563,3.748541 C 62.166711,52.535757 57.361947,58.586559 50.705163,62.209636 45.194647,65.208834 40.3125,66.813187 40.3125,65.624833 Z"
       style="fill:#e86192" />
    <path
       id="path4206"
       d="M 22.147898,64.689565 C 13.763696,61.414956 8.241951,56.573708 4.4153083,49.142333 L 2.9277168,46.253417 14.668073,28.048583 C 21.125268,18.035925 27.035549,8.8636565 27.802031,7.6657643 31.210153,2.3394014 24.766694,8.1648994 13.430245,20.659223 6.8975499,27.85915 1.2617807,33.75 0.90631358,33.75 0.55084648,33.75 0.45983365,32.589844 0.70406287,31.171875 1.0057455,29.420338 5.5441115,24.160233 14.859211,14.765625 L 28.570306,0.9375 l 4.987203,0 c 6.097003,0 13.31668,1.7195345 13.929972,3.3177475 C 47.736514,4.9042177 46.904652,7.481806 45.638899,9.9832219 39.605041,21.907492 33.09029,45.489002 32.144751,58.828125 c -0.537283,7.57967 -0.597032,7.733497 -2.987125,7.690524 -1.341381,-0.02412 -4.495759,-0.847206 -7.009728,-1.829084 z M 40.3125,65.624833 c 0,-1.14192 19.535743,-20.791029 23.177666,-23.312166 l 3.021416,-2.091586 -1.322563,3.748541 C 62.166711,52.535757 57.361947,58.586559 50.705163,62.209636 45.194647,65.208834 40.3125,66.813187 40.3125,65.624833 Z"
       style="fill:#da6159" />
    <path
       id="path4204"
       d="M 21.487948,64.366112 C 18.611007,63.182575 14.721982,61.0433 12.845669,59.612167 9.3123713,56.917189 3.75,49.338464 3.75,47.219327 3.75,46.55426 9.9080513,36.472138 17.434558,24.814614 24.961064,13.15709 30.958228,3.4582283 30.761588,3.2615884 30.130117,2.6301172 18.534401,14.298143 9.9825647,24.170187 5.4182877,29.439084 1.3445022,33.75 0.92970803,33.75 -1.6245629,33.75 3.0054995,27.801389 15.399407,15.159621 L 29.53125,0.74516155 36.09375,1.1962686 c 3.609375,0.2481089 7.699457,0.9049354 9.089071,1.4596146 L 47.709393,3.6643908 43.974372,12.27591 C 38.326745,25.297165 33.926404,40.951671 32.122533,54.43961 30.264279,68.334183 30.530194,68.085975 21.487948,64.366112 Z M 14.0625,18.28125 c 1.211011,-1.289063 1.990901,-2.34375 1.733089,-2.34375 -0.257813,0 -1.459578,1.054687 -2.670589,2.34375 -1.211011,1.289062 -1.990901,2.34375 -1.733089,2.34375 0.257813,0 1.459578,-1.054688 2.670589,-2.34375 z m 26.25,47.343583 c 0,-1.14192 19.535743,-20.791029 23.177666,-23.312166 l 3.021416,-2.091586 -1.322563,3.748541 C 62.166711,52.535757 57.361947,58.586559 50.705163,62.209636 45.194647,65.208834 40.3125,66.813187 40.3125,65.624833 Z"
       style="fill:#92a232" />
    <path
       id="path4202"
       d="M 21.487948,64.366112 C 18.611007,63.182575 14.721982,61.0433 12.845669,59.612167 9.3123713,56.917189 3.75,49.338464 3.75,47.219327 3.75,46.55426 9.9080513,36.472138 17.434558,24.814614 24.961064,13.15709 30.972515,3.4725147 30.793336,3.2933361 30.614157,3.1141575 25.194388,7.6388329 18.749404,13.34817 L 7.03125,23.728784 l 11.25,-11.472673 11.25,-11.47267305 6.5625,0.43196885 c 3.609375,0.2375828 7.699457,0.8857972 9.089071,1.4404764 L 47.709393,3.6643908 43.974372,12.27591 C 38.326745,25.297165 33.926404,40.951671 32.122533,54.43961 30.264279,68.334183 30.530194,68.085975 21.487948,64.366112 Z"
       style="fill:#dd0d5f" />
  </g>
</svg>
