<?xml version="1.0" encoding="UTF-8" standalone="no"?>
<svg
   xmlns:dc="http://purl.org/dc/elements/1.1/"
   xmlns:cc="http://creativecommons.org/ns#"
   xmlns:rdf="http://www.w3.org/1999/02/22-rdf-syntax-ns#"
   xmlns:svg="http://www.w3.org/2000/svg"
   xmlns="http://www.w3.org/2000/svg"
   viewBox="0 0 512 512"
   height="512"
   width="512"
   version="1.1"
   id="svg4187">
  <metadata
     id="metadata4193">
    <rdf:RDF>
      <cc:Work
         rdf:about="">
        <dc:format>image/svg+xml</dc:format>
        <dc:type
           rdf:resource="http://purl.org/dc/dcmitype/StillImage" />
        <dc:title></dc:title>
      </cc:Work>
    </rdf:RDF>
  </metadata>
  <defs
     id="defs4191" />
  <g
     transform="scale(8.5139431,8.5333333)"
     id="g4197">
    <path
       id="path4213"
       d="M 0,30 0,0 30,0 60,0 60,30 60,60 30,60 0,60 0,30 Z"
       style="fill:#fefdfd" />
    <path
       id="path4211"
       d="M 1.4732143,58.526785 C 0.20199788,57.255569 0,53.344156 0,30 0,6.6558442 0.20199788,2.7444307 1.4732143,1.4732143 2.7444307,0.20199788 6.6558442,0 30,0 53.344156,0 57.255569,0.20199788 58.526785,1.4732143 59.798003,2.7444307 60,6.6558442 60,30 60,53.344156 59.798003,57.255569 58.526785,58.526785 57.255569,59.798003 53.344156,60 30,60 6.6558442,60 2.7444307,59.798003 1.4732143,58.526785 Z M 21.818317,44.0625 c 3.004086,-2.363016 3.443211,-2.351335 2.808786,0.07471 -0.438471,1.676716 -0.142621,1.906431 2.112967,1.640625 2.421981,-0.285414 2.780058,-0.883399 4.676126,-7.809082 1.129315,-4.125 2.372487,-8.238281 2.762604,-9.140625 0.398315,-0.921306 0.311287,-1.640627 -0.198493,-1.640627 -0.499289,0 -0.706181,-1.054688 -0.459761,-2.34375 C 33.946119,22.617504 33.751595,22.5 29.640541,22.5 c -2.380422,0 -4.328041,0.387371 -4.328041,0.860825 0,0.473452 -0.256073,1.52814 -0.569052,2.34375 -0.42813,1.115688 0.02892,1.482925 1.845576,1.482925 1.506779,0 2.273584,0.440601 2.039489,1.171875 -0.206328,0.644531 -1.047001,3.592078 -1.868162,6.550104 -1.202954,4.333333 -2.055981,5.669347 -4.390657,6.876655 -4.738206,2.450222 -5.247471,0.806548 -2.852204,-9.205612 1.141358,-4.770849 2.068404,-8.990678 2.060103,-9.377397 -0.02194,-1.022333 -9.390093,-0.865002 -9.390093,0.1577 0,0.473452 -0.256073,1.52814 -0.569052,2.34375 -0.407941,1.063077 -0.0098,1.482925 1.40625,1.482925 2.381851,0 2.452366,1.169555 0.520102,8.626402 -1.320122,5.094518 -1.318115,5.825015 0.02161,7.869698 1.812658,2.766467 5.028863,2.914144 8.251904,0.3789 z m 25.483431,1.292643 C 49.200637,44.626471 52.066244,39.375 50.564975,39.375 c -0.575122,0 -1.820239,0.949219 -2.766927,2.109375 -1.575753,1.93107 -1.7758,1.969232 -2.366589,0.451452 -0.354937,-0.911857 -0.175341,-3.524453 0.399101,-5.805769 1.463048,-5.81029 1.300184,-10.427885 -0.428775,-12.156843 -2.049841,-2.049842 -6.21818,-1.838933 -8.662509,0.438305 -2.622263,2.443011 -2.587228,2.946092 0.157203,2.257284 1.409674,-0.353805 2.766587,0.0032 3.75,0.986603 1.861796,1.861796 1.859044,1.698105 0.124623,7.415466 -1.769552,5.833166 -1.755368,7.560932 0.07711,9.393412 1.5455,1.545501 3.900421,1.870578 6.453533,0.890858 z M 22.852374,16.658216 c 1.412311,-2.242681 -1.232994,-4.912672 -3.997836,-4.035145 -2.190938,0.695377 -2.610446,3.246021 -0.827175,5.029292 1.484616,1.484616 3.529337,1.063322 4.825011,-0.994147 z"
       style="fill:#f9ccd8" />
    <path
       id="path4209"
       d="M 1.5515509,58.285555 C 0.18417035,56.774618 0,53.397763 0,29.837107 0,5.1282546 0.12987249,2.9855687 1.7144444,1.5515509 3.2253828,0.18417035 6.6022368,0 30.162893,0 54.871746,0 57.014431,0.12987249 58.448449,1.7144444 59.81583,3.2253828 60,6.6022368 60,30.162893 60,54.871746 59.870127,57.014431 58.285555,58.448449 56.774618,59.81583 53.397763,60 29.837107,60 5.1282546,60 2.9855687,59.870127 1.5515509,58.285555 Z M 22.323224,44.02598 24.375,42.114459 l 0,1.911521 c 0,1.471341 0.608181,1.91152 2.641084,1.91152 2.52357,0 2.716441,-0.323284 4.334686,-7.265625 1.992883,-8.549556 2.730773,-10.156607 5.293143,-11.527946 1.431837,-0.766296 2.277389,-0.721992 3.359427,0.176019 1.456919,1.209135 1.450361,1.504377 -0.273253,12.302339 -0.710192,4.449167 0.746466,6.315213 4.929735,6.315213 2.58267,0 3.528589,-0.572509 5.034153,-3.046875 1.220904,-2.00653 1.492165,-3.16829 0.794449,-3.402466 -0.582707,-0.195575 -1.444133,0.331769 -1.91428,1.171875 C 47.497211,42.584407 45,42.659209 45,40.767096 c 0,-0.781223 0.685038,-3.884351 1.522306,-6.89584 1.315971,-4.733289 1.346837,-5.843229 0.227717,-8.18897 C 44.886785,21.77683 39.48289,21.369382 35.981892,24.87038 L 33.4999,27.352373 33.963696,24.926186 C 34.411167,22.585388 34.267094,22.5 29.869995,22.5 c -2.506622,0 -4.557495,0.387371 -4.557495,0.860825 0,0.473452 -0.256073,1.52814 -0.569052,2.34375 -0.407941,1.063077 -0.0098,1.482925 1.40625,1.482925 2.283346,0 2.347198,0.448538 0.908478,6.381731 -1.266432,5.222685 -4.050166,8.618269 -7.065345,8.618269 -2.676753,0 -2.674685,-0.271961 0.08378,-11.015625 L 22.303131,22.5 l -5.057816,0 c -2.781798,0 -5.057815,0.387371 -5.057815,0.860825 0,0.473452 -0.256073,1.52814 -0.569052,2.34375 -0.407941,1.063077 -0.0098,1.482925 1.40625,1.482925 2.336757,0 2.390834,0.712724 0.569052,7.5 -1.757926,6.549373 -1.748254,7.961568 0.06697,9.776785 2.049841,2.049842 6.21818,1.838933 8.662509,-0.438305 z m 0.139399,-26.637193 c 1.952209,-2.352269 0.7922,-4.732537 -2.306373,-4.732537 -2.861617,0 -4.019612,1.879877 -2.921211,4.742262 0.670221,1.746568 3.774783,1.740792 5.227584,-0.0097 z"
       style="fill:#f8b5c7" />
    <path
       id="path4207"
       d="M 1.5515509,58.285555 C 0.18417035,56.774618 0,53.397763 0,29.837107 0,5.1282546 0.12987249,2.9855687 1.7144444,1.5515509 3.2253828,0.18417035 6.6022368,0 30.162893,0 54.871746,0 57.014431,0.12987249 58.448449,1.7144444 59.81583,3.2253828 60,6.6022368 60,30.162893 60,54.871746 59.870127,57.014431 58.285555,58.448449 56.774618,59.81583 53.397763,60 29.837107,60 5.1282546,60 2.9855687,59.870127 1.5515509,58.285555 Z M 22.291401,44.47809 c 1.885819,-1.32088 2.083599,-1.32088 2.083599,0 0,0.982727 0.881041,1.45941 2.697388,1.45941 2.608708,0 2.764851,-0.268981 4.749409,-8.181661 2.321145,-9.254694 3.103137,-10.568339 6.291169,-10.568339 3.112005,0 3.539156,1.813255 2.115001,8.978159 -1.514009,7.616948 -0.733876,9.303091 4.304282,9.303091 2.778292,0 3.964068,-0.559086 5.473401,-2.580674 1.40618,-1.883424 1.646952,-2.860474 0.891152,-3.616274 -0.7558,-0.7558 -1.321273,-0.501817 -2.092936,0.940049 C 47.716683,42.243271 45,42.954922 45,41.208296 45,40.669733 45.659542,37.60344 46.46565,34.394311 48.194707,27.510899 47.314125,23.914484 43.549179,22.483055 40.999524,21.513677 38.688552,22.269244 35.243445,25.198593 33.555694,26.633675 33.485198,26.6007 33.983802,24.609375 34.47653,22.641516 34.210101,22.5 30.012533,22.5 c -3.238056,0 -4.658957,0.415724 -5.068481,1.482925 C 23.993233,26.46072 24.289416,27.1875 26.25,27.1875 c 1.03125,0 1.869993,0.316406 1.863873,0.703125 -0.0401,2.533703 -2.95808,11.041146 -4.292936,12.516145 -1.724558,1.905614 -6.008437,2.451081 -6.008437,0.765055 0,-1.16828 3.469587,-14.97523 4.320196,-17.191881 C 22.607649,22.742235 21.856636,22.5 17.544354,22.5 c -3.83699,0 -5.301845,0.379416 -5.725302,1.482925 -0.960227,2.502312 -0.650074,3.204575 1.41529,3.204575 1.598025,0 1.875804,0.410659 1.42683,2.109375 -3.471276,13.133752 -2.954142,16.640625 2.45388,16.640625 1.701012,0 4.030368,-0.656735 5.176349,-1.45941 z M 22.96875,15.46875 c 0,-2.497133 -0.313927,-2.8125 -2.799661,-2.8125 -1.95543,0 -2.898116,0.51124 -3.126162,1.695387 -0.585623,3.040893 0.601431,4.542048 3.342367,4.226773 2.179471,-0.250692 2.583456,-0.736962 2.583456,-3.10966 z"
       style="fill:#f599b2" />
    <path
       id="path4205"
       d="M 1.875,58.125 C 0.08928572,56.339286 0,55 0,30 0,5 0.08928572,3.6607143 1.875,1.875 3.6607143,0.08928572 5,0 30,0 55,0 56.339286,0.08928572 58.125,1.875 59.910714,3.6607143 60,5 60,30 60,55 59.910713,56.339286 58.125,58.125 56.339286,59.910714 55,60 30,60 5,60 3.6607143,59.910714 1.875,58.125 Z M 22.893342,44.16466 c 1.667811,-1.397951 1.75578,-1.388269 1.201299,0.132215 -0.494311,1.355485 -0.05136,1.640625 2.548617,1.640625 l 3.146912,0 2.076213,-8.40263 c 2.218158,-8.977084 3.340048,-10.668909 6.75389,-10.184961 2.380295,0.337431 2.489128,1.335636 1.211965,11.115967 -0.766158,5.867129 0.399271,7.705999 4.883871,7.705999 2.643269,0 7.222902,-4.26109 6.597169,-6.138293 -0.618662,-1.855983 -2.39698,-1.721939 -3.015649,0.227311 -0.6594,2.077588 -3.304194,2.684773 -3.287481,0.754732 0.0056,-0.644531 0.638394,-3.24283 1.40625,-5.773998 1.940243,-6.395832 1.755582,-8.717375 -0.905034,-11.377991 -2.96539,-2.965389 -5.272817,-2.906712 -8.999218,0.228847 -2.841795,2.391213 -2.970831,2.416924 -2.352504,0.46875 C 34.773536,22.627023 34.527274,22.5 30.163478,22.5 c -3.375698,0 -4.806352,0.406473 -5.219426,1.482925 -0.957307,2.494703 -0.651515,3.204575 1.380437,3.204575 1.709205,0 1.868504,0.375543 1.292433,3.046875 -1.432459,6.642535 -2.863075,9.593153 -5.318157,10.968594 -4.246263,2.378939 -4.660085,0.557618 -2.120869,-9.334407 1.256487,-4.894896 2.292978,-9.005281 2.303313,-9.134187 C 22.491544,22.605469 20.224823,22.5 17.444052,22.5 c -3.745528,0 -5.203437,0.384351 -5.625,1.482925 -0.959476,2.500356 -0.650447,3.204575 1.40625,3.204575 1.186969,0 1.8019,0.46769 1.540813,1.171875 -1.217647,3.284165 -2.797653,13.780085 -2.278174,15.133825 1.269882,3.309263 6.830321,3.668077 10.405401,0.67146 z m 0.365969,-28.398481 c 0.412751,-3.572734 -2.618605,-5.119837 -5.484555,-2.799132 -1.796643,1.454834 -1.930357,1.982258 -0.961502,3.79258 1.664996,3.111073 6.049943,2.435278 6.446057,-0.993448 z"
       style="fill:#f26b8f" />
    <path
       id="path4203"
       d="M 3.75,59.370766 C 0.19050261,58.044534 0,56.552479 0,30 0,9.1184939 0.25749086,3.7562284 1.3306768,2.288559 2.5952359,0.55917154 4.0197394,0.46875 30,0.46875 c 25.980261,0 27.404764,0.0904215 28.669323,1.819809 1.955749,2.6746453 1.95675,52.746154 0.0011,55.422882 -1.255198,1.718015 -2.789077,1.829974 -27.421875,2.001544 C 16.897788,59.81294 4.5234375,59.65894 3.75,59.370766 Z M 21.900076,44.935688 c 1.84456,-1.450932 2.323325,-1.568978 1.901127,-0.46875 -0.447605,1.166441 0.127547,1.470562 2.78111,1.470562 3.150105,0 3.405219,-0.232616 4.369752,-3.984375 3.266931,-12.707439 3.731281,-13.79136 6.170474,-14.403559 4.040796,-1.014174 4.722442,0.751578 2.912415,7.544385 -1.866735,7.005629 -1.134637,10.285848 2.499206,11.197886 4.1295,1.036438 9.02834,-2.740621 9.02834,-6.960949 0,-1.633272 -2.343164,-0.922708 -3.601458,1.092141 -2.085504,3.339423 -3.025913,0.714754 -1.527641,-4.263626 1.922617,-6.388373 1.737597,-9.875703 -0.65932,-12.427105 -2.639159,-2.809255 -5.566781,-2.749083 -9.055063,0.186113 -2.614864,2.200264 -2.766317,2.227714 -2.292408,0.415482 0.472998,-1.808745 0.165051,-1.92091 -4.537713,-1.652787 -4.414287,0.251676 -5.082608,0.551407 -5.344726,2.397019 -0.230487,1.622893 0.162457,2.109375 1.703801,2.109375 1.46947,0 1.872917,0.437234 1.513846,1.640625 -0.269244,0.902344 -0.983979,3.658078 -1.588302,6.123854 -1.051473,4.290259 -3.585749,7.235521 -6.225865,7.235521 -1.659181,0 -1.476648,-3.031667 0.677349,-11.25 1.013577,-3.867188 1.850097,-7.36871 1.858933,-7.78116 0.0088,-0.41245 -2.409714,-0.623388 -5.374558,-0.46875 -4.775339,0.249068 -5.424819,0.521924 -5.690204,2.390535 -0.227876,1.604509 0.164797,2.109375 1.640625,2.109375 1.067112,0 1.935197,0.105469 1.929077,0.234375 -0.0061,0.128906 -0.633926,2.554688 -1.395123,5.390625 -1.999207,7.448295 -1.816025,10.856662 0.677349,12.60309 2.794136,1.957088 4.681804,1.838344 7.628977,-0.479902 z M 23.449937,16.85176 c 1.317788,-2.462309 -1.777001,-6.060714 -4.475801,-5.204147 -3.046183,0.96682 -3.699796,4.298125 -1.234917,6.294064 2.271458,1.839314 4.355957,1.441479 5.710718,-1.089917 z"
       style="fill:#f04d79" />
    <path
       id="path4201"
       d="M 2.3011364,57.698864 0,55.397727 0,30 0,4.6022727 2.3011364,2.3011364 4.6022727,0 30,0 55.397727,0 57.698864,2.3011364 60,4.6022727 60,30 60,55.397727 57.698864,57.698864 55.397727,60 30,60 4.6022727,60 2.3011364,57.698864 Z M 21.353901,45.41559 c 1.288665,-0.902617 2.083599,-1.059863 2.083599,-0.412158 0,0.635176 1.365963,0.932762 3.471457,0.756285 l 3.471456,-0.290967 1.919169,-7.61248 c 2.5143,-9.973105 5.008485,-12.882641 7.977171,-9.305592 0.89002,1.072409 0.814521,2.452987 -0.353958,6.472413 -0.816912,2.81008 -1.485295,5.782586 -1.485295,6.605572 0,2.285214 3.463469,5.246337 6.136364,5.246337 2.864994,0 6.988636,-3.847056 6.988636,-6.519886 0,-2.471802 -2.444254,-2.482423 -3.764053,-0.01636 -1.824039,3.40825 -2.736026,1.0007 -1.350496,-3.565166 0.73934,-2.436412 1.34882,-6.011872 1.354401,-7.945466 0.01814,-6.284662 -5.503942,-9.224341 -10.804086,-5.751553 -2.127151,1.393762 -2.310766,1.393762 -2.310766,0 0,-1.193146 -0.999811,-1.514072 -4.716923,-1.514072 -4.749352,0 -5.207559,0.334126 -5.785413,4.21875 -0.199779,1.343011 0.186576,1.796841 1.361711,1.599528 2.049095,-0.344057 2.110101,1.635511 0.244054,7.919172 -1.02058,3.436665 -2.062788,5.006313 -3.87115,5.830257 -1.361018,0.620122 -2.711563,0.890509 -3.001211,0.600861 -0.289649,-0.289648 0.404473,-4.418726 1.542492,-9.175726 1.138019,-4.757001 2.062334,-9.176436 2.054033,-9.820967 -0.02083,-1.617738 -10.236235,-1.617738 -10.781227,0 -0.985006,2.923858 -0.880996,4.907343 0.245346,4.678805 1.994588,-0.40471 2.215149,1.928288 0.768545,8.12933 -1.418753,6.081647 -0.910577,9.731621 1.488533,10.691407 2.354959,0.942123 5.045927,0.632736 7.117611,-0.818327 z m 1.554047,-27.535905 c 3.18725,-3.521872 -0.781283,-8.0010563 -5.060036,-5.711137 -2.278251,1.219283 -2.479581,4.003354 -0.437197,6.045737 1.953198,1.953199 3.512708,1.858276 5.497233,-0.3346 z"
       style="fill:#f7376b" />
    <path
       id="path4199"
       d="M 2.578125,57.202144 0,54.494577 0,29.987673 0,5.4807692 2.7403846,2.7403846 5.4807692,0 30,0 54.519231,0 57.259615,2.7403846 60,5.4807692 60,30 60,54.519231 57.259615,57.259615 54.519231,60 29.83774,59.954856 5.15625,59.909711 2.578125,57.202144 Z M 19.6875,47.035431 c 0,-0.427388 2.425781,-0.87359 5.390625,-0.991559 2.964844,-0.117971 5.648924,-0.506571 5.964622,-0.863557 1.11054,-1.255775 3.684022,-13.420822 3.054588,-14.439267 -0.360615,-0.583488 -0.210011,-0.766834 0.347078,-0.422534 0.541264,0.334519 1.226018,-0.02217 1.521678,-0.792649 C 36.731419,27.531455 39.131494,27.79327 40.3125,30 c 0.733502,1.370561 0.712959,1.875 -0.07636,1.875 -0.618516,0 -0.870212,0.801568 -0.589165,1.876294 0.269864,1.031961 0.159495,1.671621 -0.245264,1.421466 C 38.705731,34.742618 37.5,38.994245 37.5,41.878552 c 0,2.209254 4.431979,5.933948 7.060752,5.933948 1.467266,0 3.563351,-1.104872 5.198863,-2.740385 4.062608,-4.062606 3.402037,-8.995659 -0.896526,-6.695138 -1.356728,0.726098 -1.926347,0.636155 -2.31046,-0.364826 -0.280388,-0.730681 -0.04784,-1.482495 0.516763,-1.670698 0.564608,-0.188203 1.22343,-2.716176 1.464048,-5.61772 0.391579,-4.721934 0.184423,-5.528598 -1.974112,-7.687132 -2.588194,-2.588194 -6.047557,-3.085952 -9.310524,-1.339665 -1.50275,0.804248 -2.092159,0.804248 -2.360242,0 C 34.447701,20.374352 25.3125,20.246105 25.3125,21.5625 c 0,1.47398 -2.551669,1.094451 -3.151524,-0.46875 -0.296797,-0.773438 -0.145838,-1.40625 0.335462,-1.40625 1.767632,0 3.055412,-3.885231 2.032161,-6.131023 -1.339595,-2.940089 -4.407607,-3.7436551 -7.230752,-1.89386 -2.785064,1.824844 -2.94836,4.56187 -0.422847,7.087383 1.875,1.875 1.875,1.875 -1.004465,1.875 -3.289992,0 -5.9931259,2.201437 -5.209765,4.242843 0.291711,0.760186 0.102573,1.382157 -0.420307,1.382157 -0.5228799,0 0.161117,1.111807 1.519994,2.470684 1.79412,1.79412 2.153462,2.666737 1.312253,3.186633 -0.637136,0.393772 -0.899258,1.39134 -0.582493,2.216816 0.316765,0.825477 0.118121,1.500867 -0.441431,1.500867 -0.576344,0 -0.825498,1.003704 -0.574755,2.315379 0.243437,1.273458 0.08168,2.092311 -0.359459,1.819672 -0.44114,-0.272639 -0.802072,0.162003 -0.802072,0.965871 0,0.803867 0.408635,1.461578 0.908077,1.461578 0.499442,0 0.68204,0.589041 0.405774,1.30898 -0.277272,0.722559 0.459359,1.982554 1.644273,2.8125 2.257324,1.581091 6.416876,2.051991 6.416876,0.726451 z m 0,-6.707634 c 0,-1.393785 2.840332,-12.530132 3.320128,-13.017529 0.187322,-0.190291 1.019245,0.332677 1.848717,1.162149 1.323315,1.323315 1.357508,2.041065 0.279018,5.856949 -1.153427,4.081026 -5.447863,8.809463 -5.447863,5.998431 z"
       style="fill:#ec3567" />
  </g>
</svg>
