<?xml version="1.0" encoding="UTF-8" standalone="no"?>
<svg
   xmlns:dc="http://purl.org/dc/elements/1.1/"
   xmlns:cc="http://creativecommons.org/ns#"
   xmlns:rdf="http://www.w3.org/1999/02/22-rdf-syntax-ns#"
   xmlns:svg="http://www.w3.org/2000/svg"
   xmlns="http://www.w3.org/2000/svg"
   id="svg4190"
   version="1.1"
   width="300"
   height="300"
   viewBox="0 0 300 300">
  <metadata
     id="metadata4196">
    <rdf:RDF>
      <cc:Work
         rdf:about="">
        <dc:format>image/svg+xml</dc:format>
        <dc:type
           rdf:resource="http://purl.org/dc/dcmitype/StillImage" />
        <dc:title></dc:title>
      </cc:Work>
    </rdf:RDF>
  </metadata>
  <defs
     id="defs4194" />
  <g
     transform="scale(3.8095238,3.8084566)"
     id="g4200">
    <path
       style="fill:#6bc5fa"
       d="M 0,39.375 0,0 39.375,0 78.75,0 l 0,39.375 0,39.375 -39.375,0 L 0,78.75 0,39.375 Z"
       id="path4216" />
    <path
       style="fill:#68b6f1"
       d="M 0,39.375 0,0 39.375,0 78.75,0 l 0,39.375 0,39.375 -39.375,0 L 0,78.75 0,39.375 Z m 25.574416,3.712816 C 25.29939,42.036114 24.864892,41.385107 24.608867,41.641133 24.101686,42.148314 24.997546,45 25.664059,45 c 0.225722,0 0.185383,-0.860482 -0.08964,-1.912184 z M 12.76729,39.795058 C 12.447138,38.960753 12.604307,38.584444 13.135738,38.912887 13.645457,39.22791 14.0625,38.592112 14.0625,37.5 c 0,-1.245989 0.39756,-1.739951 1.067259,-1.326054 0.762923,0.471511 0.887465,-0.298791 0.436748,-2.701318 -0.554424,-2.95533 -0.408217,-3.344176 1.211542,-3.222163 1.01313,0.07632 1.598453,0.578527 1.300718,1.116022 -0.360183,0.650229 -0.234055,0.663535 0.376906,0.03976 1.548183,-1.58065 5.023348,-11.830615 4.369667,-12.888292 -0.338274,-0.547339 -0.187348,-0.730831 0.335391,-0.40776 0.522739,0.32307 1.608671,-1.088309 2.413184,-3.136399 C 26.635592,12.271034 27.57952,11.25 29.016506,11.25 c 2.019785,0 2.270622,0.379747 3.276426,4.960217 0.315995,1.439057 0.984044,2.363378 1.484553,2.054046 0.510519,-0.315518 0.910015,0.662893 0.910015,2.228733 0,3.421746 0.879854,5.903288 1.875,5.288254 0.407566,-0.251889 0.99134,0.19432 1.297276,0.991576 0.320832,0.836075 0.161012,1.205288 -0.377628,0.872391 -0.517623,-0.319908 -0.438406,0.510271 0.177726,1.862531 0.692115,1.519028 1.618653,2.245124 2.455245,1.924093 0.925752,-0.355244 1.168732,-0.05979 0.781251,0.949969 -0.309316,0.806065 -0.173128,1.224994 0.302639,0.930954 0.475768,-0.294041 0.626675,-2.003452 0.335348,-3.798692 C 41.176413,27.308323 41.368896,26.25 42.128011,26.25 c 0.696708,0 0.897327,0.712104 0.528239,1.875 C 42.328944,29.15625 42.26661,30 42.517731,30 c 1.033559,0 3.663608,-9.762471 2.715216,-10.078601 -1.471341,-0.490447 1.489887,-5.858899 3.23176,-5.858899 1.139956,0 1.217601,-0.282887 0.360956,-1.315082 C 47.987571,11.73758 48.015327,11.31894 48.945246,10.943791 49.889551,10.562838 49.846552,10.22679 48.75,9.4178944 47.656864,8.6115188 47.948927,8.5216994 50.061706,9.0144997 52.158318,9.5035284 52.607422,9.3697653 52.026229,8.4293761 51.528566,7.624141 51.641185,7.4379736 52.357976,7.8809746 53.087989,8.3321472 53.335255,7.842598 53.113477,6.3852013 52.927925,5.1658687 52.004522,4.0688745 51.001273,3.8759229 50.020885,3.6873681 48.917046,3.0545556 48.548296,2.4696729 47.562177,0.90556602 5.4300127,1.0537117 4.9068748,2.6231256 4.6981394,3.2493318 4.1811558,3.5477189 3.7580224,3.2862082 1.2143786,1.7141498 1.742171,30.757122 4.2957594,32.876412 c 0.7197278,0.597321 1.0513928,1.502201 0.7370335,2.010846 -0.3406897,0.551247 0.1791984,0.523012 1.2870657,-0.0699 2.3632147,-1.264754 4.4706304,0.266656 5.3043084,3.854517 0.329481,1.417969 0.847092,2.578125 1.150246,2.578125 0.303155,0 0.29995,-0.654724 -0.0071,-1.454942 z M 39.506785,27.1875 c 0,-0.773438 0.362572,-2.25 0.805715,-3.28125 0.507858,-1.181849 0.805715,-1.355137 0.805715,-0.46875 0,0.773437 -0.362572,2.25 -0.805715,3.28125 -0.507858,1.181849 -0.805715,1.355137 -0.805715,0.46875 z M 15.908788,37.96875 c 0,-0.515625 -0.408954,-0.304688 -0.908788,0.46875 -0.499834,0.773437 -0.908788,1.828125 -0.908788,2.34375 0,0.515625 0.408954,0.304687 0.908788,-0.46875 0.499834,-0.773438 0.908788,-1.828125 0.908788,-2.34375 z m 7.867736,1.875 c 0.296797,-0.773438 0.130995,-1.40625 -0.368447,-1.40625 -0.499442,0 -0.908077,0.632812 -0.908077,1.40625 0,0.773437 0.165802,1.40625 0.368448,1.40625 0.202646,0 0.611281,-0.632813 0.908076,-1.40625 z m 1.728778,-3.840935 c -0.593199,-1.059988 -1.07928,-1.218824 -1.524646,-0.498205 -0.359597,0.58184 -0.20704,1.05789 0.339016,1.05789 0.546055,0 1.041766,0.949219 1.101579,2.109375 0.07942,1.540571 0.222833,1.674915 0.531819,0.498205 0.232687,-0.886143 0.03119,-2.311412 -0.447767,-3.167265 z m 4.609141,-8.510625 c -0.81708,-1.405103 -1.000022,-1.445603 -1.023435,-0.226565 -0.03032,1.578825 0.955493,3.000374 1.619926,2.33594 0.21914,-0.219139 -0.04928,-1.168358 -0.596491,-2.109375 z M 55.983238,8.8372936 C 54.669502,6.3299398 54.583755,6.3028696 53.980075,8.2048974 53.633203,9.297795 52.841877,10.364655 52.221574,10.575698 c -0.620303,0.211043 0.03192,0.20473 1.449385,-0.01403 2.16865,-0.33469 2.481171,-0.125884 1.971395,1.317169 -0.468946,1.327475 -0.343836,1.473517 0.553778,0.646427 0.91843,-0.846269 0.874155,-1.613259 -0.212894,-3.6879664 z m 4.251137,-2.8956818 c -0.644531,-0.260074 -1.699219,-0.260074 -2.34375,0 -0.644531,0.2600741 -0.117188,0.4728619 1.171875,0.4728619 1.289062,0 1.816406,-0.2127878 1.171875,-0.4728619 z m -7.5,-3.75 c -0.644531,-0.260074 -1.699219,-0.260074 -2.34375,0 -0.644531,0.2600741 -0.117188,0.4728619 1.171875,0.4728619 1.289062,0 1.816406,-0.2127878 1.171875,-0.4728619 z"
       id="path4214" />
    <path
       style="fill:#88b4ce"
       d="M 0,39.375 0,0 39.375,0 78.75,0 l 0,39.375 0,39.375 -39.375,0 L 0,78.75 0,39.375 Z M 2.6150874,76.500805 C 1.9502269,75.779374 1.2585366,75.329431 1.077998,75.500933 0.52192118,76.029175 1.9312528,77.8125 2.9047909,77.8125 c 0.5055236,0 0.3751571,-0.590262 -0.2897035,-1.311695 z m 74.8808006,-3.61018 c -0.260074,-0.644531 -0.472861,-0.117188 -0.472861,1.171875 0,1.289062 0.212787,1.816406 0.472861,1.171875 0.260074,-0.644531 0.260074,-1.699219 0,-2.34375 z M 2.8338118,39.856921 C 3.3377153,40.168351 3.75,39.671577 3.75,38.752979 c 0,-2.817134 2.4333068,1.410759 3.1907148,5.543896 0.354336,1.933594 1.0470057,3.515625 1.5392662,3.515625 0.4922605,0 0.895019,0.84375 0.895019,1.875 0,2.310893 1.465073,2.468016 2.185405,0.234375 2.009381,-6.230788 5.990162,-16.878496 6.747055,-18.046875 0.501044,-0.773438 2.609299,-5.625 4.685013,-10.78125 2.999619,-7.451313 4.191312,-9.435077 5.807662,-9.667783 1.6728,-0.240833 2.215599,0.382965 3.059137,3.515625 0.564024,2.094624 1.431112,3.808408 1.926863,3.808408 0.495751,0 0.900153,0.949219 0.898671,2.109375 -0.003,2.375583 4.631462,13.828125 5.595824,13.828125 0.825919,0 4.341357,-8.664238 5.84787,-14.412812 0.65857,-2.512984 1.728761,-4.772963 2.3782,-5.022177 0.64944,-0.249213 1.1808,-1.251729 1.1808,-2.227813 0,-4.6006045 5.867654,0.375515 7.079341,6.003702 0.866608,4.025326 3.131623,8.332509 4.075157,7.749373 0.419179,-0.259067 0.607893,0.465421 0.41936,1.609973 -0.188531,1.144552 0.510376,3.768504 1.553128,5.831004 1.121914,2.219079 1.662736,2.793175 1.324746,1.40625 -0.31414,-1.289063 -0.620631,-3.051058 -0.681091,-3.915545 -0.06046,-0.864487 -0.45831,-1.356482 -0.88411,-1.093322 -0.425801,0.263159 -0.499227,-0.617043 -0.163169,-1.956005 0.3593,-1.431565 0.134382,-3.008784 -0.545965,-3.828552 -0.83092,-1.001197 -0.873855,-1.735221 -0.152352,-2.60458 0.746736,-0.899762 0.526715,-1.508965 -0.857098,-2.37317 C 58.969824,18.676235 57.179062,15.142076 56.733392,11.71875 56.599138,10.6875 56.435453,9.5024456 56.369647,9.0852966 56.303841,8.6681472 55.762942,8.6278617 55.167649,8.9957733 54.497055,9.4102228 54.339777,9.2529448 54.754226,8.5823517 55.8198,6.8582172 58.125,7.3292647 58.125,9.27114 c 0,0.974127 0.829715,2.767096 1.84381,3.984375 1.747502,2.09763 1.85086,2.115297 1.978773,0.338235 0.07423,-1.03125 0.05807,-2.824219 -0.03591,-3.984375 C 61.781161,7.9980797 62.254736,7.4809728 63.917282,7.4194193 65.804703,7.3495402 65.720233,7.2221576 63.28125,6.4602554 61.734375,5.9770346 59.130554,5.8153031 57.494982,6.1008521 55.859409,6.3864011 54.25248,6.1852124 53.924029,5.6537661 53.544467,5.0396221 55.035039,4.6875 58.014343,4.6875 60.592468,4.6875 62.962576,4.265625 63.28125,3.75 63.599924,3.234375 63.308415,2.7380024 62.633453,2.6469499 61.958492,2.5558973 64.359375,2.2011131 67.96875,1.8585405 71.578125,1.5159679 58.429267,1.2740591 38.749066,1.3209656 19.068864,1.367872 2.6157398,1.7573042 2.1865659,2.1863703 1.7573922,2.6154365 1.3829798,18.646687 1.3545384,37.81137 1.3260971,56.976054 1.4411561,65.148998 1.6102252,55.973468 1.8045818,45.425559 2.2545398,39.498911 2.8338118,39.856921 Z m 7.1004145,7.164473 c -0.6472488,-1.047271 1.1397317,-7.426937 2.2772487,-8.129961 0.510956,-0.315789 0.628319,0.13595 0.274719,1.057417 -0.394219,1.027318 -0.252524,1.383272 0.392058,0.984898 0.648343,-0.400697 0.826462,0.07567 0.497977,1.331802 -0.281276,1.075601 -1.059044,2.165784 -1.728374,2.42263 -0.66933,0.256846 -0.987527,1.064891 -0.707107,1.795657 0.550007,1.433294 -0.204035,1.836008 -1.0065217,0.537557 z M 70.089055,67.793362 c -0.896331,-0.234649 -2.583831,-0.243163 -3.75,-0.01892 -1.166167,0.224242 -0.432805,0.416228 1.629695,0.426634 2.0625,0.01041 3.016638,-0.173067 2.120305,-0.407716 z M 9.7649091,62.211146 C 10.258659,60.924454 10.121474,60.866453 8.9277114,61.857188 7.3009191,63.207307 7.1316112,63.75 8.337198,63.75 c 0.4604589,0 1.1029292,-0.692484 1.4277111,-1.538854 z M 35.072551,61.072928 c 0.272639,-0.441139 -0.539177,-0.604241 -1.804036,-0.362447 -1.264859,0.241792 -3.045061,0.113873 -3.956004,-0.284265 -0.910944,-0.398139 -2.078136,-0.589748 -2.593761,-0.4258 -0.515625,0.163949 -4.3125,0.587482 -8.4375,0.941185 -7.218602,0.618965 -7.053597,0.648541 4.397797,0.788247 6.543788,0.07984 12.120865,-0.21578 12.393504,-0.65692 z m 22.818074,0.105221 c -3.996094,-0.175736 -10.535156,-0.175736 -14.53125,0 -3.996094,0.175735 -0.726563,0.319518 7.265625,0.319518 7.992187,0 11.261719,-0.143783 7.265625,-0.319518 z M 71.25,61.461578 c 0,-0.227382 -0.421875,-0.674154 -0.9375,-0.992828 -0.515625,-0.318674 -0.9375,-0.132634 -0.9375,0.413422 0,0.546055 0.421875,0.992828 0.9375,0.992828 0.515625,0 0.9375,-0.186039 0.9375,-0.413422 z M 45,55.8346 C 45,55.167898 43.568869,54.949229 41.015625,55.225811 37.2511,55.633605 37.186438,55.689139 39.84375,56.232261 43.967393,57.075082 45,56.995446 45,55.8346 Z M 12.65625,55.129739 C 11.625,54.544954 10.487783,53.620781 10.1291,53.076022 9.7704169,52.531263 9.1829558,52.379544 8.8236303,52.738869 c -1.0619116,1.061912 1.5518887,3.513511 3.7130367,3.482623 1.964899,-0.02808 1.966678,-0.04433 0.119583,-1.091753 z M 20.810282,53.78785 C 25.767131,53.084897 26.25,52.718621 26.25,49.661595 c 0,-1.973332 0.34977,-2.681082 1.096818,-2.219381 0.765521,0.473118 0.890331,0.135862 0.413207,-1.116547 -0.534632,-1.403361 -0.435765,-1.548461 0.453663,-0.665811 0.6255,0.620733 1.137273,2.767584 1.137273,4.770781 0,3.109653 0.375791,3.78402 2.570216,4.612322 1.668092,0.629635 3.01595,0.651628 3.840145,0.06265 0.982113,-0.701818 0.914134,-0.794032 -0.299944,-0.406878 -1.56841,0.500151 -4.523878,-2.828694 -4.523878,-5.095395 0,-0.598197 -1.015919,-3.460695 -2.257598,-6.361109 -1.241678,-2.900414 -2.537433,-6.117231 -2.879456,-7.148481 -0.621859,-1.875 -0.621859,-1.875 -2.001867,0 -0.759005,1.03125 -1.63769,2.929687 -1.952632,4.21875 -0.314943,1.289062 -1.984122,5.261137 -3.709285,8.826833 -3.542995,7.322921 -3.676187,7.788016 -1.779505,6.213911 0.746436,-0.619487 2.750342,-1.323913 4.453125,-1.565394 z M 17.8125,51.595485 c 0,-0.497483 0.84375,-1.356077 1.875,-1.907985 1.03125,-0.551908 1.875,-1.832377 1.875,-2.845485 C 21.5625,45.828907 21.944879,45 22.412231,45 c 0.467353,0 0.641537,-0.796137 0.387077,-1.769195 -0.25446,-0.973057 -0.004,-2.052642 0.556519,-2.399078 1.436123,-0.887574 1.321673,5.955606 -0.152702,9.130304 -1.132129,2.437757 -5.390625,3.728155 -5.390625,1.633454 z m 30.26488,2.503983 C 48.333397,53.432301 47.74572,51.247595 46.771432,49.244567 44.668174,44.9205 44.678939,45 46.196649,45 c 0.812869,0 1.135218,-1.277838 1.005102,-3.984375 -0.105351,-2.191406 0.01268,-3.07816 0.262281,-1.970566 0.249607,1.107595 1.273873,2.228256 2.276149,2.490357 2.06809,0.540818 2.168245,0.337121 0.953255,-1.938762 -0.477986,-0.895347 -1.097558,-2.366185 -1.376827,-3.268529 -0.903892,-2.920554 -2.149368,-1.753718 -3.829431,3.587642 -1.565086,4.975814 -1.565506,5.403427 -0.0087,8.855835 0.899693,1.995162 1.384266,4.283067 1.07683,5.084233 -0.307403,0.801166 -0.195444,1.456665 0.248832,1.456665 0.444277,0 1.017243,-0.545864 1.273259,-1.213032 z m 9.813245,0.566789 C 56.988281,54.43045 56.25,53.846576 56.25,53.368759 56.25,52.890941 55.617187,52.5 54.84375,52.5 c -0.773438,0 -1.40625,0.446773 -1.40625,0.992828 0,0.546056 0.421875,0.732096 0.9375,0.413422 0.515625,-0.318674 0.9375,-0.132634 0.9375,0.413422 0,0.546055 0.949219,0.94389 2.109375,0.884077 1.587347,-0.08183 1.703353,-0.214856 0.46875,-0.537492 z M 53.47475,46.780215 c -1.029089,-2.268181 -1.880337,-3.419872 -1.891661,-2.559315 -0.0202,1.535597 2.967002,7.479008 3.494093,6.951918 0.147751,-0.147751 -0.573343,-2.124422 -1.602432,-4.392603 z m 15.617071,0.392714 c -0.734008,-1.452923 -1.126776,-3.227746 -0.872818,-3.94405 0.25856,-0.72928 0.03969,-1.041532 -0.497373,-0.709604 C 67.194115,42.845297 66.48604,42.01049 66.148131,40.664147 65.81022,39.317805 65.3158,38.4342 65.049419,38.70058 c -0.26638,0.266382 0.70337,3.248233 2.155001,6.626338 1.451632,3.378105 2.770422,5.769788 2.930645,5.31485 0.160223,-0.454938 -0.309236,-2.015915 -1.043244,-3.468839 z m -18.763902,0.46379 c -0.299274,-0.747875 -0.521421,-0.525728 -0.566406,0.566406 -0.04071,0.988281 0.18087,1.541992 0.492394,1.230469 0.311522,-0.311524 0.344829,-1.120117 0.07402,-1.796875 z M 38.4375,46.930328 c 0,-0.485194 -0.421875,-1.142904 -0.9375,-1.461578 -0.515625,-0.318674 -0.9375,0.0783 -0.9375,0.882172 0,0.803867 0.421875,1.461578 0.9375,1.461578 0.515625,0 0.9375,-0.396977 0.9375,-0.882172 z M 61.205319,45.92289 C 60.677352,43.903941 59.0625,42.402451 59.0625,43.930496 c 0,1.598912 1.1101,3.882004 1.887533,3.882004 0.412187,0 0.527066,-0.850325 0.255286,-1.88961 z m -4.034496,-9.391552 c -1.581658,-2.955355 -2.04084,-1.698751 -0.726634,1.988514 0.755881,2.120772 1.251233,2.662517 1.469757,1.607405 0.181287,-0.875321 -0.153118,-2.493484 -0.743123,-3.595919 z M 33.390067,35.800781 C 32.352699,34.763413 31.875,34.657124 31.875,35.463676 c 0,1.62161 2.256692,3.96434 2.686942,2.789384 0.188756,-0.515467 -0.338588,-1.618992 -1.171875,-2.452279 z M 53.542969,27.855469 C 52.777343,27.089843 52.5,27.194756 52.5,28.25 c 0,1.863616 1.260659,3.124274 1.726563,1.726562 0.197656,-0.592968 -0.109961,-1.54746 -0.683594,-2.121093 z M 30.114443,27.49219 c -0.81708,-1.405103 -1.000022,-1.445603 -1.023435,-0.226565 -0.03032,1.578825 0.955493,3.000374 1.619926,2.33594 0.21914,-0.219139 -0.04928,-1.168358 -0.596491,-2.109375 z M 62.8125,17.399078 c 0,-0.989507 -1.799168,-1.405229 -2.334299,-0.539371 -0.323872,0.524037 0.06885,0.952793 0.872721,0.952793 0.803867,0 1.461578,-0.186039 1.461578,-0.413422 z M 77.515419,2.6367188 C 77.216145,1.8888443 76.993998,2.110991 76.949013,3.203125 c -0.04071,0.9882812 0.18087,1.5419922 0.492394,1.2304688 0.311522,-0.3115235 0.344829,-1.1201172 0.07401,-1.796875 z"
       id="path4212" />
    <path
       style="fill:#51adf5"
       d="M 0.20368772,57.901661 0.40737543,37.03125 0.9375,55.3125 1.4676246,73.59375 1.6713123,56.429047 C 1.8036808,45.274392 2.2032563,39.467216 2.8125,39.84375 3.328125,40.162424 3.75,39.671577 3.75,38.752979 c 0,-2.817134 2.4333068,1.410759 3.1907148,5.543896 0.354336,1.933594 1.0470057,3.515625 1.5392662,3.515625 0.4922605,0 0.895019,0.84375 0.895019,1.875 0,1.03125 0.3253313,1.875 0.722959,1.875 0.397627,0 4.24873,-8.542969 8.558007,-18.984375 4.309276,-10.441406 8.271922,-19.532892 8.805882,-20.203301 1.568846,-1.969758 2.913204,0.16035 7.721497,12.234551 2.412706,6.058594 4.715515,11.015625 5.117354,11.015625 0.401839,0 0.948824,-0.738281 1.215522,-1.640625 0.773307,-2.616408 8.980461,-21.981056 9.562889,-22.563485 1.217596,-1.217596 3.491695,3.002374 9.25428,17.17286 7.487416,18.411935 9.941724,23.859777 9.9253,22.03125 -0.0069,-0.773438 -0.584939,-2.439682 -1.284425,-3.702765 -0.699487,-1.263083 -1.034719,-2.914322 -0.744961,-3.669417 0.309473,-0.806475 0.124652,-1.124342 -0.447969,-0.770442 -0.955938,0.590801 -4.63027,-8.911271 -4.369728,-11.300412 0.06969,-0.638982 -0.264456,-0.92004 -0.742531,-0.624572 -0.504002,0.31149 -0.612497,-0.485691 -0.258214,-1.897264 0.3593,-1.431565 0.134382,-3.008784 -0.545965,-3.828552 -0.83092,-1.001197 -0.873855,-1.735221 -0.152352,-2.60458 0.746736,-0.899762 0.526715,-1.508965 -0.857098,-2.37317 C 58.969824,18.676235 57.179062,15.142076 56.733392,11.71875 56.599138,10.6875 56.435453,9.5024456 56.369647,9.0852966 56.303841,8.6681472 55.762942,8.6278617 55.167649,8.9957733 54.497055,9.4102228 54.339777,9.2529448 54.754226,8.5823517 55.8198,6.8582172 58.125,7.3292647 58.125,9.27114 c 0,0.974127 0.829715,2.767096 1.84381,3.984375 1.747502,2.09763 1.85086,2.115297 1.978773,0.338235 0.07423,-1.03125 0.05807,-2.824219 -0.03591,-3.984375 C 61.781161,7.9980797 62.254736,7.4809728 63.917282,7.4194193 65.804703,7.3495402 65.720233,7.2221576 63.28125,6.4602554 61.734375,5.9770346 59.130554,5.8153031 57.494982,6.1008521 55.859409,6.3864011 54.25248,6.1852124 53.924029,5.6537661 53.544467,5.0396221 55.035039,4.6875 58.014343,4.6875 c 4.508931,0 7.018321,-1.2024458 4.569624,-2.1896647 C 61.936222,2.2366903 64.359375,1.9298541 67.96875,1.815977 73.797717,1.6320708 74.112088,1.5338778 70.78125,0.9375 67.321801,0.31809474 67.485235,0.25576477 72.890625,0.13303622 76.260566,0.05652222 78.75,0.39830947 78.75,0.9375 c 0,0.515625 -0.421875,0.9375 -0.9375,0.9375 -0.515625,0 -0.9375,0.6577103 -0.9375,1.4615784 0,0.8038681 0.421875,1.2008454 0.9375,0.8821716 0.515625,-0.3186738 0.9375,0.078303 0.9375,0.8821716 0,0.8038681 -0.446773,1.4615784 -0.992828,1.4615784 -0.546056,0 -0.706036,0.4640393 -0.355514,1.0311984 0.350524,0.5671592 0.80826,14.1409556 1.017189,30.1639916 0.299007,22.93115 0.125225,29.294397 -0.816362,29.891945 -0.937149,0.594733 -0.942426,0.762263 -0.02436,0.773509 0.792819,0.0097 1.171875,1.671883 1.171875,5.138711 l 0,5.124356 -39.375,0.04293 L 3.75e-6,78.772067 0.20369147,57.901656 Z M 3.515625,77.166257 C 2.6132813,76.93045 1.875,76.276264 1.875,75.712508 c 0,-0.563754 -0.2531822,-0.771825 -0.562627,-0.462381 -0.93631153,0.936311 0.5671919,2.569651 2.2585804,2.453622 1.429226,-0.09805 1.423779,-0.150961 -0.055328,-0.537492 z m 73.980263,-4.275632 c -0.260074,-0.644531 -0.472861,-0.117188 -0.472861,1.171875 0,1.289062 0.212787,1.816406 0.472861,1.171875 0.260074,-0.644531 0.260074,-1.699219 0,-2.34375 z m -7.406833,-5.097263 c -0.896331,-0.234649 -2.583831,-0.243163 -3.75,-0.01892 -1.166167,0.224242 -0.432805,0.416228 1.629695,0.426634 2.0625,0.01041 3.016638,-0.173067 2.120305,-0.407716 z M 9.5716397,63.772731 c 0.3122644,-2.127592 0.1361128,-2.562919 -0.7421292,-1.834043 -0.9330603,0.774371 -1.0965409,2.321764 -0.4637398,4.389437 0.2981732,0.974279 0.8637212,-0.224191 1.205869,-2.555394 z m 55.9167923,-2.3468 C 65.241443,61.178944 56.95224,60.940133 47.067979,60.895241 36.82145,60.848704 28.859933,60.430694 28.546017,59.922767 28.2432,59.432798 27.497248,59.343283 26.888346,59.723843 c -0.608903,0.380562 -4.482096,0.954937 -8.607096,1.276391 -4.331591,0.337553 4.150504,0.645782 20.078125,0.729614 15.167968,0.07984 27.376044,-0.05692 27.129057,-0.303917 z m 5.347213,-0.400419 c -0.288757,-0.467218 -1.368342,-0.628951 -2.399079,-0.359408 -2.579578,0.674575 -2.347527,1.208896 0.525012,1.208896 1.319493,0 2.162823,-0.382269 1.874067,-0.849488 z M 45,55.558686 c 0,-1.013485 -1.331855,-1.261958 -5.789188,-1.080044 L 33.421623,54.714913 29.06136,43.68817 24.701096,32.661428 20.26882,43.283839 c -2.437751,5.842326 -4.699486,11.255223 -5.026076,12.028661 -0.503538,1.192486 -0.360818,1.216858 0.938884,0.160327 0.842976,-0.685258 2.925871,-1.443496 4.628654,-1.684977 C 25.767131,53.084897 26.25,52.718621 26.25,49.661595 c 0,-1.973332 0.34977,-2.681082 1.096818,-2.219381 0.765521,0.473118 0.890331,0.135862 0.413207,-1.116547 -0.534632,-1.403361 -0.435765,-1.548461 0.453663,-0.665811 0.6255,0.620733 1.137273,2.806132 1.137273,4.856442 0,4.092049 0.842799,4.623447 8.553162,5.392912 2.026956,0.202283 3.819925,0.502337 3.984375,0.666789 C 42.74655,57.43405 45,56.697279 45,55.558686 Z M 17.8125,51.595485 c 0,-0.497483 0.84375,-1.356077 1.875,-1.907985 1.03125,-0.551908 1.875,-1.832377 1.875,-2.845485 C 21.5625,45.828907 21.944879,45 22.412231,45 c 0.467353,0 0.641537,-0.796137 0.387077,-1.769195 -0.25446,-0.973057 -0.004,-2.052642 0.556519,-2.399078 1.436123,-0.887574 1.321673,5.955606 -0.152702,9.130304 -1.132129,2.437757 -5.390625,3.728155 -5.390625,1.633454 z m -5.15625,3.534254 C 11.625,54.544954 10.487783,53.620781 10.1291,53.076022 9.7704169,52.531263 9.1829558,52.379544 8.8236303,52.738869 c -1.0619116,1.061912 1.5518887,3.513511 3.7130367,3.482623 1.964899,-0.02808 1.966678,-0.04433 0.119583,-1.091753 z M 48.07738,54.099468 C 48.333397,53.432301 47.74572,51.247595 46.771432,49.244567 44.668174,44.9205 44.678939,45 46.196649,45 c 0.812869,0 1.135218,-1.277838 1.005102,-3.984375 -0.105351,-2.191406 0.01268,-3.07816 0.262281,-1.970566 0.249607,1.107595 1.273873,2.228256 2.276149,2.490357 1.064186,0.278291 1.822319,1.283683 1.822319,2.416657 0,1.067059 0.842173,3.321399 1.871496,5.009643 2.610107,4.280969 2.386003,3.340222 -1.715078,-7.199564 l -3.593582,-9.235514 -2.374079,5.933804 -2.374078,5.933803 1.822998,4.121191 c 1.00265,2.266654 1.591962,4.723262 1.309584,5.459127 -0.282378,0.735865 -0.149916,1.337937 0.29436,1.337937 0.444277,0 1.017243,-0.545864 1.273259,-1.213032 z m 9.813245,0.566789 C 56.988281,54.43045 56.25,53.846576 56.25,53.368759 56.25,52.890941 55.617187,52.5 54.84375,52.5 c -0.773438,0 -1.40625,0.446773 -1.40625,0.992828 0,0.546056 0.421875,0.732096 0.9375,0.413422 0.515625,-0.318674 0.9375,-0.132634 0.9375,0.413422 0,0.546055 0.949219,0.94389 2.109375,0.884077 1.587347,-0.08183 1.703353,-0.214856 0.46875,-0.537492 z m -7.562706,-7.029538 c -0.299274,-0.747875 -0.521421,-0.525728 -0.566406,0.566406 -0.04071,0.988281 0.18087,1.541992 0.492394,1.230469 0.311522,-0.311524 0.344829,-1.120117 0.07402,-1.796875 z M 38.4375,48.013043 c 0,-0.405327 -2.301543,-6.417046 -5.11454,-13.359375 -3.20968,-7.921325 -5.130074,-11.677833 -5.15625,-10.086211 -0.02294,1.394912 1.856727,6.980884 4.17704,12.41327 2.320312,5.432386 4.21875,10.302812 4.21875,10.82317 0,0.520356 0.421875,0.946103 0.9375,0.946103 0.515625,0 0.9375,-0.33163 0.9375,-0.736957 z M 57.009115,35.532566 c -2.73127,-6.870803 -5.107698,-11.756312 -5.28095,-10.856685 -0.414,2.149732 8.833858,24.762097 9.751677,23.844277 0.272371,-0.272371 -1.739455,-6.116787 -4.470727,-12.987592 z M 62.8125,17.399078 c 0,-0.989507 -1.799168,-1.405229 -2.334299,-0.539371 -0.323872,0.524037 0.06885,0.952793 0.872721,0.952793 0.803867,0 1.461578,-0.186039 1.461578,-0.413422 z M 9.9342263,47.021394 c -0.6472488,-1.047271 1.1397317,-7.426937 2.2772487,-8.129961 0.510956,-0.315789 0.628319,0.13595 0.274719,1.057417 -0.394219,1.027318 -0.252524,1.383272 0.392058,0.984898 0.648343,-0.400697 0.826462,0.07567 0.497977,1.331802 -0.281276,1.075601 -1.059044,2.165784 -1.728374,2.42263 -0.66933,0.256846 -0.987527,1.064891 -0.707107,1.795657 0.550007,1.433294 -0.204035,1.836008 -1.0065217,0.537557 z M 62.109375,0.29125733 c 0.902344,-0.23580707 2.378906,-0.23580707 3.28125,0 0.902344,0.23580707 0.164062,0.42874014 -1.640625,0.42874014 -1.804688,0 -2.542969,-0.19293307 -1.640625,-0.42874014 z"
       id="path4210" />
    <path
       style="fill:#6995b0"
       d="M 0.20616142,57.890625 0.41232285,37.03125 0.90928643,57.1875 1.40625,77.34375 34.21875,77.830785 67.03125,78.31782 33.515625,78.53391 0,78.75 0.20616142,57.890625 Z M 72.374455,78.058613 77.717661,77.72176 78.060409,72.845255 78.403158,67.96875 78.576579,73.359375 78.75,78.75 72.890625,78.572734 67.03125,78.395467 72.374455,78.058613 Z M 10.012764,66.887765 C 9.6619941,66.536994 9.375,65.277558 9.375,64.089019 l 0,-2.160982 28.359375,-0.260894 c 34.704563,-0.319265 33.713467,-0.404104 33.336993,2.853632 L 70.78125,67.03125 40.715889,67.278389 C 24.179941,67.414316 10.363535,67.238536 10.012764,66.887765 Z M 78.080638,63.28125 c 0.007,-2.578125 0.189106,-3.521543 0.404594,-2.096484 0.215489,1.425058 0.20973,3.534433 -0.0128,4.6875 -0.222527,1.153066 -0.398835,-0.01289 -0.391797,-2.591016 z M 77.960527,56.25 c 0,-1.289063 0.212787,-1.816406 0.472861,-1.171875 0.260074,0.644531 0.260074,1.699219 0,2.34375 C 78.173314,58.066406 77.960527,57.539062 77.960527,56.25 Z M 58.016849,54.690566 C 57.083281,54.441249 54.899667,50.10408 52.323531,43.382296 l -4.178918,-10.903839 -2.386544,5.964959 c -2.380924,5.950911 -2.382467,5.973935 -0.655396,9.776397 2.706572,5.959009 2.554951,6.155187 -4.757188,6.155187 -7.569728,0 -6.852439,0.764602 -12.224007,-13.030306 l -3.431112,-8.811557 -1.642291,4.124057 C 16.193825,53.869321 15.908116,54.375 13.037514,54.375 c -1.498757,0 -2.725014,-0.378741 -2.725014,-0.841646 0,-1.525692 16.137274,-39.912649 17.3024,-41.15853 1.665262,-1.780683 2.472387,-0.4731 7.551958,12.234551 2.421773,6.058594 4.732002,11.015625 5.133841,11.015625 0.401839,0 0.948824,-0.738281 1.215522,-1.640625 0.773307,-2.616408 8.980461,-21.981056 9.562889,-22.563485 1.185412,-1.185411 3.409982,2.832628 8.469595,15.29786 2.930077,7.21875 6.581796,16.00898 8.114931,19.533844 1.533135,3.524864 2.558624,7.005333 2.278865,7.734375 -0.49245,1.283304 -8.078916,1.730895 -11.925652,0.703597 z M 38.4375,48.013043 c 0,-0.405327 -2.301543,-6.417046 -5.11454,-13.359375 -3.20968,-7.921325 -5.130074,-11.677833 -5.15625,-10.086211 -0.02294,1.394912 1.856727,6.980884 4.17704,12.41327 2.320312,5.432386 4.21875,10.302812 4.21875,10.82317 0,0.520356 0.421875,0.946103 0.9375,0.946103 0.515625,0 0.9375,-0.33163 0.9375,-0.736957 z M 57.048464,35.53989 c -2.759467,-6.816937 -5.152972,-11.699253 -5.3189,-10.849592 -0.457214,2.341256 8.804031,24.776108 9.81174,23.768397 0.288406,-0.288406 -1.733372,-6.101868 -4.49284,-12.918805 z m 21.000458,13.67886 c 0.01041,-2.0625 0.202392,-2.795862 0.426635,-1.629695 0.224244,1.166169 0.21573,2.853669 -0.01892,3.75 -0.234649,0.896333 -0.418122,-0.05781 -0.407716,-2.120305 z M 78.140076,37.5 c 0,-4.382813 0.16149,-6.175781 0.358866,-3.984375 0.197377,2.191406 0.197377,5.777344 0,7.96875 C 78.301566,43.675781 78.140076,41.882812 78.140076,37.5 Z M 78.030003,26.25 c 0,-1.804688 0.192933,-2.542969 0.42874,-1.640625 0.235807,0.902344 0.235807,2.378906 0,3.28125 -0.235807,0.902344 -0.42874,0.164062 -0.42874,-1.640625 z M 77.886513,5.078125 c 0.04498,-1.092134 0.267132,-1.3142807 0.566406,-0.5664063 0.270817,0.6767579 0.23751,1.4853516 -0.07401,1.7968751 C 78.06738,6.6201172 77.845803,6.0664062 77.88651,5.078125 Z M 72.1875,0.9375 67.03125,0.30561872 72.890625,0.15280936 C 76.273747,0.06457932 78.75,0.39620033 78.75,0.9375 78.75,1.453125 78.433594,1.8062358 78.046875,1.7221907 77.660156,1.6381455 75.023437,1.2850347 72.1875,0.9375 Z M 62.109375,0.29125733 c 0.902344,-0.23580707 2.378906,-0.23580707 3.28125,0 0.902344,0.23580707 0.164062,0.42874014 -1.640625,0.42874014 -1.804688,0 -2.542969,-0.19293307 -1.640625,-0.42874014 z"
       id="path4208" />
    <path
       style="fill:#446d8f"
       d="m 9.7140244,66.09375 c -0.2967956,-0.773438 -0.2967956,-2.039063 0,-2.8125 C 10.178097,62.071898 14.442948,61.875 40.173786,61.875 l 29.920132,0 0.443824,2.321717 c 0.244103,1.276944 0.222972,2.542569 -0.04696,2.8125 C 70.220853,67.279148 56.557073,67.5 40.126827,67.5 14.43773,67.5 10.178073,67.303039 9.7140244,66.09375 Z M 11.021753,53.834254 c -0.29741,-0.297411 2.518253,-7.99663 6.25703,-17.109375 9.468625,-23.078449 10.682511,-25.686712 11.67044,-25.076139 0.477718,0.295247 3.107936,6.021626 5.844928,12.725286 2.736992,6.703661 5.203768,12.183429 5.481724,12.177262 0.277956,-0.0062 2.574911,-5.174134 5.104344,-11.484375 5.310589,-13.248458 6.439293,-14.965151 7.965012,-12.114318 1.168936,2.184177 16.967269,40.437002 16.967269,41.083193 0,0.231745 -3.030139,0.297404 -6.733641,0.145909 L 56.845219,53.90625 53.271557,45 c -1.965514,-4.898438 -3.945835,-9.75 -4.400712,-10.78125 -0.711466,-1.612958 -1.177169,-1.090847 -3.332268,3.735885 l -2.505217,5.610885 1.920821,5.019412 c 1.05645,2.760677 1.920819,5.211293 1.920819,5.445812 0,0.23452 -3.007851,0.302448 -6.684112,0.150953 L 33.506774,53.90625 29.265964,43.392842 C 26.933518,37.610467 24.703762,33.078064 24.310949,33.320836 23.918137,33.563607 22.444261,36.818078 21.035669,40.552994 17.14533,50.868324 15.173182,54.375 13.262197,54.375 c -0.934833,0 -1.943033,-0.243336 -2.240444,-0.540746 z M 38.985152,48.046875 C 34.712962,36.176198 28.557783,22.697456 27.925267,23.827701 c -0.479069,0.856047 0.83215,5.240508 3.578218,11.964865 5.234371,12.817521 5.782369,13.894934 7.067302,13.894934 0.556902,0 0.741613,-0.731336 0.414365,-1.640625 z m 23.557514,0.46875 C 62.283924,47.871094 59.839112,41.737226 57.10975,34.884808 53.667692,26.243076 51.911256,22.847604 51.376941,23.802373 c -0.658601,1.176853 5.307696,17.684735 8.762475,24.244502 0.97723,1.855519 3.128392,2.275099 2.40325,0.46875 z"
       id="path4206" />
    <path
       style="fill:#274d6b"
       d="m 10.3125,64.21875 0,-2.34375 30,0 30,0 0,2.34375 0,2.34375 -30,0 -30,0 0,-2.34375 z M 11.25,53.216889 c 0,-0.708685 2.349592,-6.960683 5.221314,-13.893329 2.871723,-6.932645 6.517277,-15.874341 8.101232,-19.870435 1.583954,-3.996094 3.376621,-7.265625 3.983706,-7.265625 0.607084,0 3.395123,5.689871 6.195643,12.644159 2.800521,6.954287 5.302792,12.643873 5.560605,12.643525 0.257812,-3.47e-4 2.745577,-5.69022 5.528364,-12.644159 2.782788,-6.953939 5.540074,-12.643525 6.127303,-12.643525 0.999475,0 17.406833,38.742652 17.406833,41.10271 0,0.708028 -2.077257,1.08479 -5.980918,1.08479 l -5.980917,0 -4.464502,-10.78125 C 50.493187,37.664062 48.173538,32.8125 47.793886,32.8125 c -0.379652,0 -1.639809,2.539027 -2.800348,5.64228 -2.022767,5.408827 -2.046891,5.807719 -0.583055,9.640718 0.83986,2.199141 1.527017,4.511678 1.527017,5.13897 0,1.570795 -10.693391,1.542802 -11.973091,-0.03134 C 33.440438,52.558594 31.099778,47.390625 28.762942,41.71875 26.22192,35.551282 24.292961,31.971482 23.963851,32.8125 17.673025,48.888234 15.15526,53.927993 13.27616,54.205829 12.037097,54.389032 11.25,54.004861 11.25,53.216889 Z M 39.375,48.79889 c 0,-1.223638 -9.511646,-24.686986 -10.439643,-25.752531 -0.428661,-0.492199 -1.00826,-0.183982 -1.355459,0.720802 C 26.78743,25.8323 36.519511,49.6875 38.154483,49.6875 c 0.671284,0 1.220517,-0.399875 1.220517,-0.88861 z M 62.303237,47.578125 C 60.357273,41.120184 52.174549,22.590483 51.462907,23.030302 c -1.420432,0.877875 -1.014509,2.360115 4.026835,14.704073 2.906217,7.116007 5.401201,11.953125 6.165417,11.953125 0.894567,0 1.091019,-0.639414 0.648078,-2.109375 z"
       id="path4204" />
    <path
       style="fill:#030611"
       d="M 10.950619,65.950619 C 10.599653,65.599654 10.3125,64.75 10.3125,64.0625 c 0,-1.015685 5.636457,-1.25 30.068741,-1.25 28.132147,0 30.048412,0.105666 29.753087,1.640625 -0.29131,1.514091 -2.561161,1.659713 -29.430622,1.888118 -16.013233,0.136123 -29.402122,-0.03966 -29.753087,-0.390624 z M 11.25,53.109271 c 0,-0.497391 13.214649,-32.803374 15.548725,-38.012124 0.814237,-1.817057 1.770147,-2.823311 2.226493,-2.34375 0.439821,0.462195 3.004745,6.219259 5.699833,12.793478 C 37.420137,32.121094 39.933136,37.5 40.309492,37.5 c 0.376357,0 2.990904,-5.589844 5.810106,-12.421875 2.819201,-6.832031 5.504516,-12.355599 5.967367,-12.274596 0.462849,0.081 4.503555,9.151317 8.979344,20.15625 l 8.137799,20.008971 -5.648247,0.281932 c -3.106537,0.155062 -5.816138,0.114041 -6.021337,-0.09116 -0.205198,-0.205198 -2.244972,-4.965796 -4.532829,-10.579105 -2.287858,-5.61331 -4.527351,-10.328554 -4.976651,-10.478321 -0.4493,-0.149766 -1.936051,2.548425 -3.30389,5.995981 l -2.486981,6.268284 1.851663,4.185992 c 1.018416,2.3023 1.851664,4.343306 1.851664,4.535573 0,0.192267 -2.698349,0.349577 -5.996331,0.349577 l -5.996331,0 L 29.73937,42.927526 C 27.426364,37.14704 25.16689,32.295214 24.718319,32.14569 24.269748,31.996166 21.976794,36.620186 19.622867,42.421289 16.178947,50.90861 14.943274,53.027264 13.296499,53.268329 12.170925,53.433097 11.25,53.361521 11.25,53.109271 Z M 40.15625,48.842972 C 35.967144,37.521951 29.246464,22.521244 28.359375,22.512091 c -2.090716,-0.02157 -1.250617,4.268511 2.684157,13.707026 2.120817,5.087298 4.219751,10.198852 4.664296,11.359008 0.484649,1.264817 1.599552,2.109375 2.784593,2.109375 1.086981,0 1.835704,-0.380038 1.663829,-0.844528 z M 62.140762,45.703125 C 55.22666,28.421194 52.812666,23.05916 51.796875,22.726976 c -2.736643,-0.894935 -1.127193,4.73051 6.841738,23.913649 0.843363,2.030179 1.904801,3.046875 3.180958,3.046875 1.87828,0 1.884479,-0.0769 0.321191,-3.984375 z"
       id="path4202" />
  </g>
</svg>
