<?xml version="1.0" encoding="UTF-8" standalone="no"?>
<svg
   xmlns:dc="http://purl.org/dc/elements/1.1/"
   xmlns:cc="http://creativecommons.org/ns#"
   xmlns:rdf="http://www.w3.org/1999/02/22-rdf-syntax-ns#"
   xmlns:svg="http://www.w3.org/2000/svg"
   xmlns="http://www.w3.org/2000/svg"
   viewBox="0 0 512 512"
   height="512"
   width="512"
   version="1.1"
   id="svg4187">
  <metadata
     id="metadata4193">
    <rdf:RDF>
      <cc:Work
         rdf:about="">
        <dc:format>image/svg+xml</dc:format>
        <dc:type
           rdf:resource="http://purl.org/dc/dcmitype/StillImage" />
        <dc:title></dc:title>
      </cc:Work>
    </rdf:RDF>
  </metadata>
  <defs
     id="defs4191" />
  <g
     transform="scale(4,4)"
     id="g4215">
    <g
       id="g4197">
      <path
         style="fill:#000000;fill-opacity:0"
         d="m 0,64 0,-64 64,0 64,0 0,64 0,64 -64,0 -64,0 0,-64 z"
         id="path4213" />
      <path
         style="fill:#fdcca6"
         d="M 32.3153,88.775296 C 26.023492,78.197911 4,39.797391 4,39.404274 4,39.181923 20.425,39 40.5,39 60.575,39 77,39.254139 77,39.564754 c 0,0.310615 -3.075505,5.823115 -6.834455,12.25 -3.75895,6.426885 -10.81957,18.585103 -15.690267,27.018262 l -8.855812,15.333016 -2.409657,-4.080277 c -2.232686,-3.780612 -4.179374,-4.597889 -4.232045,-1.776738 -0.01223,0.655041 -0.810251,2.214866 -1.773382,3.466279 L 35.453236,94.050591 32.3153,88.775296 Z M 50,93.186864 c 0,-0.447225 1.719607,-3.709725 3.82135,-7.25 C 55.923092,82.396589 61.39501,72.975 65.981167,65 77.224501,45.448645 81.075645,39 81.508419,39 c 0.199986,0 1.375268,1.8 2.611737,4 1.236469,2.2 2.606117,4 3.043661,4 0.437544,0 1.743313,-1.857797 2.901707,-4.128438 2.428955,-4.761144 2.988961,-4.49635 7.351287,3.475992 1.458874,2.666155 7.834719,13.826301 14.168539,24.800323 C 117.91917,82.1219 123.35172,91.753 123.65768,92.550323 124.13743,93.800508 119.10765,94 87.106989,94 66.698145,94 50,93.634089 50,93.186864 Z"
         id="path4211" />
      <path
         style="fill:#fdbb93"
         d="M 31.875335,87.75 C 29.952116,84.3125 23.059286,72.275 16.557936,61 10.056586,49.725 4.544849,40.1625 4.3096324,39.75 4.0744159,39.3375 20.371996,39 40.526478,39 l 36.644511,0 -2.408209,4.25 C 73.438265,45.5875 66.34052,57.990382 58.990012,70.81196 L 45.625453,94.12392 43.47013,90.552697 C 40.366919,85.410888 40.342673,85.407982 38.049437,89.903095 36.899891,92.156393 35.82722,94 35.665725,94 c -0.161495,0 -1.86717,-2.8125 -3.79039,-6.25 z m 23.955804,5.513433 -5.668861,-0.358399 3.238009,-5.702517 C 63.619302,69.205628 80.342613,40.386533 80.959451,39.710119 c 0.396172,-0.434435 1.804092,1.253065 3.128713,3.75 C 85.412785,45.957053 86.723111,48 87,48 c 0.276889,0 1.587215,-2.042947 2.911836,-4.539881 1.324621,-2.496935 2.747262,-4.184435 3.161425,-3.75 C 93.487424,40.144553 100.00909,51.3 107.56585,64.5 c 7.55676,13.2 14.35351,24.945211 15.10389,26.100469 1.33813,2.06014 1.2056,2.112825 -6.90271,2.744006 -8.29479,0.645698 -49.318267,0.590228 -59.935891,-0.08104 z"
         id="path4209" />
      <path
         style="fill:#fda45d"
         d="M 31.1777,86.25 C 29.026915,82.5375 22.888349,71.85 17.536443,62.5 12.184537,53.15 6.9127196,44.0375 5.821293,42.25 L 3.836881,39 40.503935,39 77.170989,39 74.74711,43.25 C 65.972134,58.635932 48.234531,89.098093 46.919439,91.040615 l -1.58056,2.334647 -2.347383,-4.176603 -2.347382,-4.176604 -2.378737,3.988972 C 36.957072,91.204962 35.706996,93 35.48743,93 35.267865,93 33.328486,89.9625 31.1777,86.25 Z M 60.683105,74.75 C 66.489224,64.7125 73.496879,52.504922 76.255672,47.622048 l 5.015987,-8.877952 2.61417,4.623881 C 85.323623,45.911112 86.725,47.991859 87,47.991859 c 0.275,0 1.669193,-2.068087 3.098207,-4.595748 l 2.598208,-4.595748 3.038437,5.349818 C 97.405992,47.092582 104.41148,59.2875 111.3026,71.25 L 123.83191,93 86.979217,93 50.126524,93 60.683105,74.75 Z"
         id="path4207" />
      <path
         style="fill:#fd8b02"
         d="M 32.30018,87.80939 C 30.10848,83.816562 15.551804,58.430111 5.3161673,40.75 5.0773566,40.3375 20.917323,40 40.516092,40 l 35.634126,0 -2.900669,5.25 c -5.939271,10.74965 -26.516341,46.281305 -27.287514,47.118978 -0.439995,0.477938 -1.78772,-1.06713 -2.994944,-3.433484 l -2.194952,-4.302463 -2.228666,3.692747 c -1.225766,2.031012 -2.476223,3.940305 -2.778793,4.242875 -0.30257,0.30257 -1.861595,-1.839098 -3.4645,-4.759263 z M 51,92.468521 c 0,-0.292313 3.447307,-6.479813 7.660682,-13.75 4.213375,-7.270186 11.065086,-19.18649 15.226025,-26.480675 l 7.565344,-13.262154 2.293141,4.512154 C 85.00642,45.969531 86.470563,48 86.998843,48 c 0.52828,0 1.906115,-1.85354 3.061855,-4.118978 1.183073,-2.319014 2.478122,-3.739241 2.963548,-3.25 C 93.498458,41.10896 96.085692,45.325 98.773656,50 101.46162,54.675 108.01217,66.029999 113.33043,75.233331 118.64869,84.436663 123,92.199163 123,92.483331 123,92.767499 106.8,93 87,93 67.2,93 51,92.760835 51,92.468521 Z"
         id="path4205" />
      <path
         style="fill:#fe7900"
         d="M 42.911231,88.754188 40.709166,84.221673 46.994148,73.360836 C 55.74254,58.243075 60.330622,50.249143 63.271723,45 c 2.432235,-4.340943 2.705467,-4.510813 7.73021,-4.805915 l 5.208854,-0.305914 -2.930953,5.305914 c -6.05322,10.958164 -26.550296,46.341123 -27.342172,47.199266 -0.45689,0.495125 -1.805974,-1.127096 -3.026431,-3.639163 z M 51,92.232135 c 0,-0.422327 1.125,-2.423452 2.5,-4.446947 1.375,-2.023494 2.5,-3.863381 2.5,-4.088638 0,-0.225257 2.184037,-4.186631 4.853415,-8.803054 C 63.522793,70.277073 68.954088,60.875 72.92296,54 c 3.968872,-6.875 7.598375,-12.89104 8.065563,-13.368978 0.473166,-0.484053 1.764918,0.92552 2.916165,3.182151 1.136703,2.228121 2.428412,4.27466 2.870465,4.547864 0.442053,0.273204 1.870537,-1.514211 3.174409,-3.972033 1.303871,-2.457822 2.700138,-4.11332 3.102815,-3.678885 C 93.771484,41.485938 114.5697,77.454456 120.25243,87.75 L 123.15022,93 87.075109,93 C 67.233799,93 51,92.654461 51,92.232135 Z"
         id="path4203" />
      <path
         style="fill:#fd6100"
         d="M 43.169283,88.903931 40.838565,84.823265 51.5805,66.161633 c 5.908063,-10.263898 11.681886,-20.345421 12.830717,-22.403384 1.959608,-3.510354 2.385763,-3.742262 6.891025,-3.75 L 76.104484,40 73.199521,45.25 C 71.601792,48.1375 67.030137,56.125 63.040288,63 c -3.989849,6.875 -9.484789,16.4375 -12.210979,21.25 -2.72619,4.8125 -5.040544,8.746534 -5.143009,8.742298 -0.102465,-0.0042 -1.235123,-1.844002 -2.517017,-4.088367 z M 51,92.643496 c 0,-0.196077 2.31194,-4.358577 5.137643,-9.25 C 58.963347,78.502073 62.16664,72.925 63.256071,71 64.345502,69.075 68.839526,61.295237 73.24279,53.711638 l 8.005934,-13.788362 3.430745,5.209321 C 88.54178,50.997219 112,91.638987 112,92.465885 112,92.759648 98.275,93 81.5,93 64.725,93 51,92.839573 51,92.643496 Z"
         id="path4201" />
      <path
         style="fill:#fe5200"
         d="M 43.269691,88.840287 41.067229,84.819392 52.783615,64.557541 C 68.295734,37.731497 66.697055,39.798376 71.638728,40.180394 L 75.773066,40.5 72.031458,47 c -2.057884,3.575 -7.248098,12.575 -11.533809,20 -4.285711,7.425 -9.339424,16.2 -11.230473,19.5 -1.891049,3.3 -3.518541,6.081266 -3.616648,6.180591 -0.09811,0.09932 -1.169484,-1.628812 -2.380837,-3.840304 z"
         id="path4199" />
    </g>
  </g>
</svg>
