<?xml version="1.0" standalone="no"?><!-- Generator: Gravit.io --><svg xmlns="http://www.w3.org/2000/svg" xmlns:xlink="http://www.w3.org/1999/xlink" style="isolation:isolate" viewBox="0 0 1920 1082" width="1920px" height="1082px"><defs><clipPath id="_clipPath_rBsX83WXO1whV11FtutYfaM6yzvfoPVV"><rect width="1920" height="1082"/></clipPath></defs><g clip-path="url(#_clipPath_rBsX83WXO1whV11FtutYfaM6yzvfoPVV)"><g><rect x="420" y="0" width="1080" height="1080" transform="matrix(1,0,0,1,0,0)" fill="rgb(164,179,227)"/><linearGradient id="_lgradient_0" x1="0.49804307522563884" y1="0.6807820761485929" x2="0.49804307522563873" y2="-0.00012529170956820934" gradientTransform="matrix(1920,0,0,1080,0,0)" gradientUnits="userSpaceOnUse"><stop offset="1.7391304347826086%" stop-opacity="1" style="stop-color:rgb(207,213,236)"/><stop offset="98.26086956521739%" stop-opacity="1" style="stop-color:rgb(147,164,221)"/></linearGradient><rect x="0" y="0" width="1920" height="1080" transform="matrix(1,0,0,1,0,0)" fill="url(#_lgradient_0)"/><line x1="420" y1="720" x2="1500" y2="720" vector-effect="non-scaling-stroke" stroke-width="1" stroke="rgb(0,0,0)" stroke-linejoin="miter" stroke-linecap="square" stroke-miterlimit="3"/><g><path d=" M 1284.506 345.312 L 1227.688 289.059 L 1233.562 368.798 L 1202.596 295.083 L 1177.509 371 L 1177.11 291.047 L 1124.88 351.584 L 1155.108 277.564 L 1083.688 313.506 L 1139.941 256.688 L 1060.202 262.562 L 1133.917 231.596 L 1058 206.509 L 1137.953 206.11 L 1077.416 153.88 L 1151.436 184.108 L 1115.494 112.688 L 1172.312 168.941 L 1166.438 89.202 L 1197.404 162.917 L 1222.491 87 L 1222.89 166.953 L 1275.12 106.416 L 1244.892 180.436 L 1316.312 144.494 L 1260.059 201.312 L 1339.798 195.438 L 1266.083 226.404 L 1342 251.491 L 1262.047 251.89 L 1322.584 304.12 L 1248.564 273.892 L 1284.506 345.312 Z " fill="rgb(255,230,67)"/><circle vector-effect="non-scaling-stroke" cx="1199.999999743871" cy="228.9999997556094" r="97.07329684391675" fill="rgb(255,230,67)"/></g><path d=" M 558.32 34.472 C 553.067 33.299 547.605 32.683 542 32.683 C 500.594 32.683 466.978 66.3 466.978 107.706 L 466.978 107.706 L 466.978 107.706 C 466.978 109.107 467.016 110.499 467.108 111.878 C 437.816 122.092 416.779 149.973 416.779 182.728 C 416.779 224.134 450.395 257.75 491.801 257.75 C 514.18 257.75 534.284 247.93 548.03 232.363 L 548.03 232.363 C 568.481 248.272 594.178 257.75 622.07 257.75 C 636.235 257.75 649.834 255.306 662.459 250.799 C 672.047 255.262 682.735 257.75 694 257.75 C 705.88 257.75 717.118 254.983 727.099 250.048 C 737.081 254.983 748.319 257.75 760.199 257.75 C 801.605 257.75 835.221 224.134 835.221 182.728 C 835.221 150.127 814.382 122.356 785.305 112.029 L 785.305 112.029 L 785.305 112.029 C 777.985 78.283 747.924 52.978 712 52.978 C 710.936 52.978 709.877 53 708.827 53.057 C 686.874 30.363 656.107 16.25 622.07 16.25 C 598.672 16.25 576.82 22.919 558.32 34.472 Z " fill-rule="evenodd" fill="rgb(235,235,235)"/><path d=" M 1791.1 317.477 C 1795.533 316.488 1800.141 315.968 1804.87 315.968 C 1839.803 315.968 1868.165 344.33 1868.165 379.263 L 1868.165 379.263 L 1868.165 379.263 C 1868.165 380.445 1868.132 381.62 1868.055 382.783 C 1892.768 391.401 1910.517 414.923 1910.517 442.558 C 1910.517 477.492 1882.155 505.854 1847.221 505.854 C 1828.34 505.854 1811.379 497.568 1799.782 484.435 L 1799.782 484.435 C 1782.528 497.857 1760.848 505.854 1737.315 505.854 C 1725.365 505.854 1713.892 503.791 1703.24 499.989 C 1695.151 503.754 1686.133 505.854 1676.629 505.854 C 1666.607 505.854 1657.125 503.519 1648.704 499.356 C 1640.283 503.519 1630.801 505.854 1620.779 505.854 C 1585.845 505.854 1557.483 477.492 1557.483 442.558 C 1557.483 415.054 1575.065 391.623 1599.597 382.911 L 1599.597 382.911 L 1599.597 382.911 C 1605.772 354.44 1631.134 333.09 1661.443 333.09 C 1662.341 333.09 1663.234 333.109 1664.12 333.157 C 1682.642 314.011 1708.599 302.104 1737.315 302.104 C 1757.056 302.104 1775.493 307.73 1791.1 317.477 Z " fill-rule="evenodd" fill="rgb(235,235,235)"/><path d=" M 1478.766 258.802 C 1490.057 266.435 1497.482 279.357 1497.482 294 C 1497.482 317.446 1478.446 336.482 1455 336.482 C 1440.975 336.482 1428.529 329.671 1420.796 319.175 L 1420.796 319.175 C 1412.784 323.607 1403.571 326.125 1393.775 326.125 C 1371.752 326.125 1352.678 313.399 1343.519 294.903 C 1338.024 297.509 1331.881 298.963 1325.4 298.963 C 1301.954 298.963 1282.918 279.928 1282.918 256.482 L 1282.918 256.482 C 1282.918 233.035 1301.954 214 1325.4 214 C 1327.854 214 1330.26 214.209 1332.598 214.617 C 1342.33 198.003 1360.372 186.838 1381 186.838 C 1388.81 186.838 1396.249 188.438 1403.002 191.337 C 1409.754 188.438 1417.192 186.838 1425 186.838 C 1455.942 186.838 1481.062 211.959 1481.062 242.901 C 1481.062 248.424 1480.262 253.762 1478.766 258.802 Z " fill-rule="evenodd" fill="rgb(237,238,242)"/><path d=" M 1109.446 416.741 C 1123.637 435.147 1145.906 447 1170.922 447 C 1213.785 447 1248.585 412.201 1248.585 369.337 C 1248.585 341.61 1234.023 317.257 1212.132 303.521 L 1212.132 303.521 C 1200.679 274.907 1172.683 254.675 1140 254.675 C 1137.786 254.675 1135.594 254.767 1133.429 254.954 C 1111.229 220.124 1072.26 197 1027.932 197 C 983.469 197 944.397 220.265 922.239 255.277 C 918.741 254.873 915.183 254.675 911.578 254.675 C 858.504 254.675 815.415 297.764 815.415 350.837 L 815.415 350.837 L 815.415 350.837 C 815.415 403.911 858.504 447 911.578 447 C 931.603 447 950.206 440.866 965.599 430.362 C 983.955 440.941 1005.242 447 1027.932 447 C 1059.063 447 1087.552 435.595 1109.446 416.741 Z " fill-rule="evenodd" fill="rgb(237,238,242)"/><path d=" M 146.897 390.02 C 136.708 403.235 120.72 411.745 102.76 411.745 C 71.986 411.745 47.001 386.76 47.001 355.986 C 47.001 336.079 57.456 318.595 73.173 308.733 L 73.173 308.733 C 81.396 288.19 101.495 273.663 124.961 273.663 C 126.55 273.663 128.124 273.73 129.679 273.864 C 145.617 248.857 173.595 232.255 205.421 232.255 C 237.343 232.255 265.395 248.959 281.304 274.096 C 283.815 273.806 286.37 273.663 288.958 273.663 C 327.062 273.663 357.999 304.599 357.999 342.704 L 357.999 342.704 L 357.999 342.704 C 357.999 380.809 327.062 411.745 288.958 411.745 C 274.581 411.745 261.225 407.341 250.173 399.799 C 236.994 407.395 221.711 411.745 205.421 411.745 C 183.07 411.745 162.616 403.556 146.897 390.02 Z " fill-rule="evenodd" fill="rgb(237,238,242)"/><path d=" M 1690.011 140.813 C 1681.95 151.267 1669.301 158 1655.092 158 C 1630.746 158 1610.98 138.234 1610.98 113.888 C 1610.98 98.138 1619.251 84.306 1631.685 76.504 L 1631.685 76.504 C 1638.191 60.251 1654.092 48.759 1672.656 48.759 C 1673.913 48.759 1675.158 48.812 1676.389 48.918 C 1688.998 29.134 1711.133 16 1736.311 16 C 1761.566 16 1783.758 29.214 1796.344 49.101 C 1798.331 48.872 1800.352 48.759 1802.4 48.759 C 1832.546 48.759 1857.02 73.234 1857.02 103.38 L 1857.02 103.38 L 1857.02 103.38 C 1857.02 133.525 1832.546 158 1802.4 158 C 1791.026 158 1780.459 154.516 1771.716 148.55 C 1761.289 154.559 1749.199 158 1736.311 158 C 1718.628 158 1702.447 151.522 1690.011 140.813 Z " fill-rule="evenodd" fill="rgb(237,238,242)"/><g><polygon points="960,720,264,720,612,188" fill="rgb(70,68,83)"/><path d=" M 960 720 L 475.378 720 L 642.933 504.116 L 578.489 384.716 L 612 188 L 786 454 L 960 720 Z " fill="rgb(60,58,70)"/><path d=" M 740.679 384.716 L 684.11 365.333 L 642.933 397.138 L 578.489 346.058 L 529.511 405.812 L 504.08 352.981 L 612 188 L 740.679 384.716 Z " fill="rgb(235,235,235)"/><g opacity="0.15"><path d=" M 740.679 384.716 L 684.11 365.333 L 642.933 397.138 L 584.296 350.661 L 612 188 L 740.679 384.716 Z " fill="rgb(60,58,70)"/></g><g opacity="0.6" style="mix-blend-mode:overlay;"><polygon points="960,720,264,720,612,188" fill="rgb(164,179,227)"/></g></g><g><polygon points="1238,720,990,720,1114,521" fill="rgb(70,68,83)"/><path d=" M 1238 720 L 1065.319 720 L 1125.022 639.246 L 1102.059 594.584 L 1114 521 L 1176 620.5 L 1238 720 Z " fill="rgb(60,58,70)"/><path d=" M 1159.851 594.584 L 1139.694 587.333 L 1125.022 599.23 L 1102.059 580.123 L 1084.607 602.475 L 1075.546 582.713 L 1114 521 L 1159.851 594.584 Z " fill="rgb(235,235,235)"/><g opacity="0.15"><path d=" M 1159.851 594.584 L 1139.694 587.333 L 1125.022 599.23 L 1104.128 581.845 L 1114 521 L 1159.851 594.584 Z " fill="rgb(60,58,70)"/></g><g opacity="0.24" style="mix-blend-mode:overlay;"><polygon points="1238,720,990,720,1114,521" fill="rgb(164,179,227)"/></g></g><g><polygon points="1594,720,1083,720,1338.5,322" fill="rgb(70,68,83)"/><path d=" M 1594 720 L 1238.193 720 L 1361.211 558.493 L 1313.896 469.167 L 1338.5 322 L 1466.25 521 L 1594 720 Z " fill="rgb(60,58,70)"/><path d=" M 1432.975 469.167 L 1391.443 454.667 L 1361.211 478.46 L 1313.896 440.246 L 1277.937 484.949 L 1259.266 445.426 L 1338.5 322 L 1432.975 469.167 Z " fill="rgb(235,235,235)"/><g opacity="0.15"><path d=" M 1432.975 469.167 L 1391.443 454.667 L 1361.211 478.46 L 1318.16 443.69 L 1338.5 322 L 1432.975 469.167 Z " fill="rgb(60,58,70)"/></g><g opacity="0.46" style="mix-blend-mode:overlay;"><polygon points="1594,720,1083,720,1338.5,322" fill="rgb(164,179,227)"/></g></g><path d=" M 1384.316 662 C 1291.3 662 1201.157 714.242 1119.284 714.242 Q 1037.41 714.242 1119.284 804.71 L 1548.687 820 L 1566.526 714.242 Q 1477.332 662 1384.316 662 Z " fill="rgb(66,147,60)"/><path d=" M 594 720 C 594 664.808 670.493 620 744 620 C 817.185 620 844 690 876 690 C 920 690 960 719.582 960 720 C 960 775.192 771.507 770 698 770 C 624.493 770 594 775.192 594 720 Z " fill="rgb(66,147,60)"/><path d=" M 380 720 C 380 664.808 467.604 620 541.111 620 C 654.963 620 662.532 670.358 768.815 690 C 876.222 712 960 719.25 960 720 C 960 775.192 586.692 820 513.185 820 C 439.678 820 380 775.192 380 720 Z " fill="rgb(94,202,86)"/><g><path d=" M 0 1080 L 0 720 L 960 720 L 0 1080 Z " fill="rgb(76,172,69)"/><path d=" M 1920 1080 L 1920 720 L 960 720 L 1920 1080 Z " fill="rgb(76,172,69)"/></g><polygon points="1920,1080,0,1080,960,720" fill="rgb(94,202,86)"/><polygon points="1628,1080,292,1080,960,720" fill="rgb(203,230,109)"/><g><polygon points="1500,1080,420,1080,960,720" fill="rgb(60,58,70)" vector-effect="non-scaling-stroke" stroke-width="1" stroke="rgb(0,0,0)" stroke-linejoin="miter" stroke-linecap="square" stroke-miterlimit="4"/><polygon points="1454,1080,466,1080,960,720" fill="rgb(235,235,235)" vector-effect="non-scaling-stroke" stroke-width="1" stroke="rgb(0,0,0)" stroke-linejoin="miter" stroke-linecap="square" stroke-miterlimit="4"/><polygon points="1410,1080,510,1080,960,720" fill="rgb(60,58,70)" vector-effect="non-scaling-stroke" stroke-width="1" stroke="rgb(0,0,0)" stroke-linejoin="miter" stroke-linecap="square" stroke-miterlimit="4"/><polygon points="1006,1080,914,1080,960,720" fill="rgb(235,235,235)"/><clipPath id="_clipPath_DwU1Z3fXhLtSWb2sYJ4I4HsOUF5MvgFn"><polygon points="1006,1080,914,1080,960,720" fill="rgb(235,235,235)"/></clipPath><g clip-path="url(#_clipPath_DwU1Z3fXhLtSWb2sYJ4I4HsOUF5MvgFn)"><rect x="895" y="730" width="130" height="12" transform="matrix(1,0,0,1,0,0)" fill="rgb(60,58,70)"/><rect x="895" y="760" width="130" height="25" transform="matrix(1,0,0,1,0,0)" fill="rgb(60,58,70)"/><rect x="895" y="820" width="130" height="62" transform="matrix(1,0,0,1,0,0)" fill="rgb(60,58,70)"/><rect x="895" y="1043" width="130" height="62" transform="matrix(1,0,0,1,0,0)" fill="rgb(60,58,70)"/></g></g></g></g></svg>