<?xml version="1.0" encoding="UTF-8" standalone="no"?><!-- Generator: Gravit.io --><svg xmlns="http://www.w3.org/2000/svg" xmlns:xlink="http://www.w3.org/1999/xlink" style="isolation:isolate" viewBox="0 0 1200 1200" width="1200pt" height="1200pt"><defs><clipPath id="_clipPath_iiPGXnp3Lm5k4gMOTAgGpOes4qyF02BP"><rect width="1200" height="1200"/></clipPath></defs><g clip-path="url(#_clipPath_iiPGXnp3Lm5k4gMOTAgGpOes4qyF02BP)"><rect x="0" y="0" width="1200" height="1200" transform="matrix(1,0,0,1,0,0)" fill="rgb(225,225,225)"/><clipPath id="_clipPath_V4XlXCJq8gnRWvQNtv0aY4GjRXKlQ0tC"><rect x="0" y="0" width="1200" height="1200" transform="matrix(1,0,0,1,0,0)" fill="rgb(225,225,225)"/></clipPath><g clip-path="url(#_clipPath_V4XlXCJq8gnRWvQNtv0aY4GjRXKlQ0tC)"><g><rect x="0" y="0" width="1200" height="1200" transform="matrix(1,0,0,1,0,0)" fill="rgb(164,179,227)"/><linearGradient id="_lgradient_0" x1="0.49804307522563884" y1="0.6807820761485929" x2="0.49804307522563873" y2="-0.00012529170956820934" gradientTransform="matrix(1200,0,0,1200,0,0)" gradientUnits="userSpaceOnUse"><stop offset="1.7391304347826086%" stop-opacity="1" style="stop-color:rgb(207,213,236)"/><stop offset="98.26086956521739%" stop-opacity="1" style="stop-color:rgb(147,164,221)"/></linearGradient><rect x="0" y="0" width="1200" height="1200" transform="matrix(1,0,0,1,0,0)" fill="url(#_lgradient_0)"/><line x1="0" y1="800" x2="1200" y2="800" vector-effect="non-scaling-stroke" stroke-width="1" stroke="rgb(0,0,0)" stroke-linejoin="miter" stroke-linecap="square" stroke-miterlimit="3"/><g><path d=" M 960.562 383.68 L 897.431 321.177 L 903.958 409.775 L 869.552 327.87 L 841.677 412.222 L 841.233 323.385 L 783.2 390.649 L 816.787 308.404 L 737.431 348.34 L 799.934 285.209 L 711.336 291.736 L 793.241 257.329 L 708.889 229.455 L 797.726 229.011 L 730.462 170.978 L 812.707 204.564 L 772.771 125.208 L 835.903 187.712 L 829.375 99.114 L 863.782 181.019 L 891.656 96.667 L 892.1 185.504 L 950.133 118.24 L 916.547 200.485 L 995.903 160.549 L 933.399 223.68 L 1021.997 217.153 L 940.092 251.56 L 1024.444 279.434 L 935.607 279.878 L 1002.871 337.911 L 920.626 304.324 L 960.562 383.68 Z " fill="rgb(255,230,67)"/><circle vector-effect="non-scaling-stroke" cx="866.6666666666669" cy="254.4444444444449" r="107.8592188305712" fill="rgb(255,230,67)"/></g><path d=" M 153.689 38.303 C 147.852 36.999 141.783 36.315 135.556 36.315 C 89.549 36.315 52.198 73.666 52.198 119.673 L 52.198 119.673 L 52.198 119.673 C 52.198 121.23 52.24 122.777 52.342 124.308 C 19.796 135.658 -3.579 166.636 -3.579 203.031 C -3.579 249.037 33.773 286.389 79.779 286.389 C 104.645 286.389 126.982 275.478 142.255 258.181 L 142.255 258.181 C 164.979 275.858 193.531 286.389 224.523 286.389 C 240.261 286.389 255.371 283.673 269.399 278.666 C 280.052 283.624 291.928 286.389 304.444 286.389 C 317.644 286.389 330.131 283.314 341.221 277.831 C 352.312 283.314 364.799 286.389 377.999 286.389 C 424.005 286.389 461.357 249.037 461.357 203.031 C 461.357 166.808 438.202 135.951 405.894 124.476 L 405.894 124.476 L 405.894 124.476 C 397.761 86.981 364.36 58.864 324.444 58.864 C 323.262 58.864 322.086 58.889 320.919 58.952 C 296.526 33.737 262.341 18.056 224.523 18.056 C 198.525 18.056 174.244 25.466 153.689 38.303 Z " fill-rule="evenodd" fill="rgb(235,235,235)"/><path d=" M 1176.406 287.557 C 1188.952 296.039 1197.202 310.397 1197.202 326.667 C 1197.202 352.718 1176.051 373.868 1150 373.868 C 1134.417 373.868 1120.588 366.301 1111.996 354.638 L 1111.996 354.638 C 1103.094 359.563 1092.857 362.361 1081.972 362.361 C 1057.502 362.361 1036.309 348.221 1026.132 327.67 C 1020.027 330.565 1013.201 332.181 1006 332.181 C 979.948 332.181 958.798 311.031 958.798 284.979 L 958.798 284.979 C 958.798 258.928 979.948 237.778 1006 237.778 C 1008.727 237.778 1011.4 238.01 1013.998 238.464 C 1024.812 220.004 1044.857 207.598 1067.778 207.598 C 1076.455 207.598 1084.721 209.376 1092.225 212.596 C 1099.727 209.375 1107.991 207.598 1116.667 207.598 C 1151.046 207.598 1178.958 235.51 1178.958 269.889 C 1178.958 276.026 1178.069 281.957 1176.406 287.557 Z " fill-rule="evenodd" fill="rgb(237,238,242)"/><path d=" M 766.051 463.046 C 781.819 483.497 806.563 496.667 834.358 496.667 C 881.984 496.667 920.65 458.001 920.65 410.375 C 920.65 379.567 904.47 352.508 880.147 337.245 L 880.147 337.245 C 867.421 305.453 836.315 282.972 800 282.972 C 797.54 282.972 795.105 283.075 792.698 283.282 C 768.032 244.582 724.733 218.889 675.48 218.889 C 626.077 218.889 582.664 244.739 558.043 283.641 C 554.157 283.193 550.203 282.972 546.198 282.972 C 487.227 282.972 439.35 330.848 439.35 389.819 L 439.35 389.819 L 439.35 389.819 C 439.35 448.79 487.227 496.667 546.198 496.667 C 568.447 496.667 589.118 489.851 606.221 478.18 C 626.617 489.935 650.268 496.667 675.48 496.667 C 710.07 496.667 741.724 483.994 766.051 463.046 Z " fill-rule="evenodd" fill="rgb(237,238,242)"/><g><polygon points="600,800,-173.333,800,213.333,208.889" fill="rgb(70,68,83)"/><path d=" M 600 800 L 61.531 800 L 247.704 560.129 L 176.099 427.462 L 213.333 208.889 L 406.667 504.445 L 600 800 Z " fill="rgb(60,58,70)"/><path d=" M 356.31 427.462 L 293.456 405.926 L 247.704 441.264 L 176.099 384.509 L 121.679 450.902 L 93.422 392.201 L 213.333 208.889 L 356.31 427.462 Z " fill="rgb(235,235,235)"/><g opacity="0.15"><path d=" M 356.31 427.462 L 293.456 405.926 L 247.704 441.264 L 182.551 389.623 L 213.333 208.889 L 356.31 427.462 Z " fill="rgb(60,58,70)"/></g><g opacity="0.6" style="mix-blend-mode:overlay;"><polygon points="600,800,-173.333,800,213.333,208.889" fill="rgb(164,179,227)"/></g></g><g><polygon points="908.889,800,633.333,800,771.111,578.889" fill="rgb(70,68,83)"/><path d=" M 908.889 800 L 717.021 800 L 783.358 710.274 L 757.844 660.648 L 771.111 578.889 L 840 689.444 L 908.889 800 Z " fill="rgb(60,58,70)"/><path d=" M 822.057 660.648 L 799.66 652.593 L 783.358 665.811 L 757.844 644.581 L 738.453 669.416 L 728.384 647.459 L 771.111 578.889 L 822.057 660.648 Z " fill="rgb(235,235,235)"/><g opacity="0.15"><path d=" M 822.057 660.648 L 799.66 652.593 L 783.358 665.811 L 760.143 646.494 L 771.111 578.889 L 822.057 660.648 Z " fill="rgb(60,58,70)"/></g><g opacity="0.24" style="mix-blend-mode:overlay;"><polygon points="908.889,800,633.333,800,771.111,578.889" fill="rgb(164,179,227)"/></g></g><g><polygon points="1304.444,800,736.667,800,1020.556,357.778" fill="rgb(70,68,83)"/><path d=" M 1304.444 800 L 909.103 800 L 1045.79 620.548 L 993.218 521.297 L 1020.556 357.778 L 1162.5 578.889 L 1304.444 800 Z " fill="rgb(60,58,70)"/><path d=" M 1125.528 521.297 L 1079.381 505.185 L 1045.79 531.622 L 993.218 489.163 L 953.263 538.833 L 932.517 494.917 L 1020.556 357.778 L 1125.528 521.297 Z " fill="rgb(235,235,235)"/><g opacity="0.15"><path d=" M 1125.528 521.297 L 1079.381 505.185 L 1045.79 531.622 L 997.955 492.989 L 1020.556 357.778 L 1125.528 521.297 Z " fill="rgb(60,58,70)"/></g><g opacity="0.46" style="mix-blend-mode:overlay;"><polygon points="1304.444,800,736.667,800,1020.556,357.778" fill="rgb(164,179,227)"/></g></g><path d=" M 1071.462 735.556 C 968.111 735.556 867.953 793.602 776.982 793.602 Q 686.011 793.602 776.982 894.122 L 1254.097 911.111 L 1273.917 793.602 Q 1174.813 735.556 1071.462 735.556 Z " fill="rgb(66,147,60)"/><path d=" M 193.333 800 C 193.333 738.676 278.326 688.889 360 688.889 C 441.317 688.889 471.111 766.667 506.667 766.667 C 555.556 766.667 600 799.535 600 800 C 600 861.324 390.563 855.556 308.889 855.556 C 227.215 855.556 193.333 861.324 193.333 800 Z " fill="rgb(66,147,60)"/><path d=" M -44.444 800 C -44.444 738.676 52.894 688.889 134.568 688.889 C 261.07 688.889 269.48 744.842 387.572 766.667 C 506.914 791.111 600 799.167 600 800 C 600 861.324 185.213 911.111 103.539 911.111 C 21.865 911.111 -44.444 861.324 -44.444 800 Z " fill="rgb(94,202,86)"/><g><path d=" M 0 1200 L 0 800 L 600 800 L 0 1200 Z " fill="rgb(76,172,69)"/><path d=" M 1200 1200 L 1200 800 L 600 800 L 1200 1200 Z " fill="rgb(76,172,69)"/></g><polygon points="1633.333,1200,-433.333,1200,600,800" fill="rgb(94,202,86)"/><polygon points="1342.222,1200,-142.222,1200,600,800" fill="rgb(203,230,109)"/><g><polygon points="1200,1200,0,1200,600,800" fill="rgb(60,58,70)" vector-effect="non-scaling-stroke" stroke-width="1" stroke="rgb(0,0,0)" stroke-linejoin="miter" stroke-linecap="square" stroke-miterlimit="4"/><polygon points="1148.889,1200,51.111,1200,600,800" fill="rgb(235,235,235)" vector-effect="non-scaling-stroke" stroke-width="1" stroke="rgb(0,0,0)" stroke-linejoin="miter" stroke-linecap="square" stroke-miterlimit="4"/><polygon points="1100,1200,100,1200,600,800" fill="rgb(60,58,70)" vector-effect="non-scaling-stroke" stroke-width="1" stroke="rgb(0,0,0)" stroke-linejoin="miter" stroke-linecap="square" stroke-miterlimit="4"/><polygon points="651.111,1200,548.889,1200,600,800" fill="rgb(235,235,235)"/><clipPath id="_clipPath_t6BMaofWhDAbfGLnUwgGF1veSIcLaTQR"><polygon points="651.111,1200,548.889,1200,600,800" fill="rgb(235,235,235)"/></clipPath><g clip-path="url(#_clipPath_t6BMaofWhDAbfGLnUwgGF1veSIcLaTQR)"><rect x="527.778" y="811.111" width="144.444" height="13.333" transform="matrix(1,0,0,1,0,0)" fill="rgb(60,58,70)"/><rect x="527.778" y="844.444" width="144.444" height="27.778" transform="matrix(1,0,0,1,0,0)" fill="rgb(60,58,70)"/><rect x="527.778" y="911.111" width="144.444" height="68.889" transform="matrix(1,0,0,1,0,0)" fill="rgb(60,58,70)"/><rect x="527.778" y="1158.889" width="144.444" height="68.889" transform="matrix(1,0,0,1,0,0)" fill="rgb(60,58,70)"/></g></g></g></g></g></svg>