<?xml version="1.0" standalone="no"?><!-- Generator: Gravit.io --><svg xmlns="http://www.w3.org/2000/svg" xmlns:xlink="http://www.w3.org/1999/xlink" style="isolation:isolate" viewBox="0 0 1200 800" width="1200" height="800"><defs><clipPath id="_clipPath_DoEwtwkxdxPpeJ8gU3lZvuaKtKxCKtU9"><rect width="1200" height="800"/></clipPath></defs><g clip-path="url(#_clipPath_DoEwtwkxdxPpeJ8gU3lZvuaKtKxCKtU9)"><rect x="0" y="0" width="1200" height="800" transform="matrix(1,0,0,1,0,0)" fill="rgb(143,66,143)"/><g id="amway"><path d=" M 940.924 462.831 L 933.849 442.097 L 928.593 442.097 L 928.486 467.109 L 932.142 467.109 L 932.363 446.755 L 939.329 467.384 L 939.33 467.384 L 942.519 467.384 L 942.52 467.384 L 949.485 446.755 L 949.707 467.109 L 953.362 467.109 L 953.256 442.097 L 947.999 442.097 L 940.924 462.831 Z  M 913.509 467.437 L 913.509 444.759 L 905.524 444.759 L 905.524 442.097 L 925.487 442.097 L 925.487 444.759 L 917.058 444.759 L 917.005 467.437 L 913.509 467.437 Z " fill-rule="evenodd" fill="rgb(255,255,255)"/><path d=" M 247.796 512.537 C 249.137 508.312 250.314 504.788 250.411 504.705 C 250.775 504.394 305.913 493.521 321.135 490.758 C 405.008 475.533 487.947 465.492 568.053 460.864 C 605.442 458.704 627.895 458.093 669.915 458.093 C 730.97 458.092 762.673 459.661 829.188 465.976 L 834.047 466.437 L 834.047 469.28 L 834.047 472.123 L 830.628 471.689 C 825.576 471.048 802.39 469.265 787.975 468.41 C 735.745 465.309 671.191 465.444 610.886 468.778 C 500.416 474.886 368.382 493.057 262.835 516.677 C 254.13 518.625 246.637 520.219 246.183 520.219 C 245.664 520.219 246.262 517.371 247.796 512.537 Z  M 944.548 489.209 C 934.753 486.887 906.333 481.532 892.537 479.409 C 885.311 478.297 879.399 477.18 879.399 476.927 C 879.399 476.673 880.012 475.71 880.76 474.786 L 882.121 473.105 L 892.458 474.768 C 912.474 477.987 950.86 486.149 953.391 487.725 C 954.762 488.578 953.632 490.715 951.85 490.639 C 951.001 490.603 947.715 489.959 944.548 489.209 Z  M 275.963 446.974 C 281.209 446.851 289.794 446.851 295.04 446.974 C 300.286 447.097 295.994 447.197 285.502 447.197 C 275.009 447.197 270.717 447.097 275.963 446.974 Z  M 382.505 446.974 C 387.355 446.85 395.292 446.85 400.142 446.974 C 404.992 447.099 401.024 447.201 391.323 447.201 C 381.623 447.201 377.655 447.099 382.505 446.974 Z  M 718.261 389.202 C 718.261 388.212 718.424 387.807 718.624 388.302 C 718.824 388.797 718.824 389.607 718.624 390.102 C 718.424 390.597 718.261 390.192 718.261 389.202 Z  M 718.204 385.902 C 718.238 385.064 718.409 384.893 718.639 385.468 C 718.847 385.987 718.821 386.608 718.582 386.847 C 718.343 387.086 718.173 386.661 718.204 385.902 L 718.204 385.902 Z " fill="rgb(255,255,255)"/><path d=" M 834.047 470.738 L 834.047 457.071 L 842.274 456.708 C 852.764 456.245 855.171 455.165 858.034 449.634 C 861.602 442.741 861.678 443.064 841.93 381.332 L 824.329 326.31 L 824.145 386.925 L 823.961 447.54 L 808.667 447.346 L 793.374 447.152 L 793.165 440.795 L 792.956 434.438 L 790.187 437.916 C 784.394 445.19 776.647 448.957 766.379 449.491 C 742.986 450.707 724.97 433.196 719.905 404.319 C 718.445 395.996 718.495 378.756 720.004 369.889 C 723.178 351.241 731.337 337.095 743.682 328.839 C 751.513 323.601 757.093 321.893 766.379 321.893 C 773.343 321.893 774.305 322.069 778.617 324.123 C 783.828 326.607 788.422 330.716 791.614 335.75 L 793.734 339.092 L 793.734 331.745 L 793.734 324.398 L 825.882 324.586 L 858.031 324.773 L 867.815 365.225 C 873.197 387.474 877.792 405.453 878.027 405.178 C 878.262 404.904 882.261 387.348 886.914 366.166 C 891.567 344.983 895.54 326.924 895.743 326.033 C 896.112 324.413 896.115 324.413 911.962 324.413 L 927.811 324.413 L 927.412 326.393 C 926.671 330.063 891.73 450.692 889.618 456.87 C 884.18 472.775 878.802 479.305 868.706 482.262 C 864.904 483.376 860.857 483.739 848.984 484.034 L 834.047 484.404 L 834.047 470.738 L 834.047 470.738 Z  M 776.857 419.168 C 782.948 416.331 787.346 410.065 789.969 400.487 C 791.726 394.072 791.67 374.812 789.876 368.369 C 786.491 356.215 780.147 350.034 771.058 350.034 C 765.724 350.034 762.122 351.778 757.824 356.44 C 752.707 361.991 750.124 369.574 749.36 381.283 C 747.592 408.379 760.837 426.627 776.857 419.168 Z  M 391.323 446.978 L 373.686 446.765 L 368.748 429.141 L 363.81 411.518 L 339.221 411.518 L 314.632 411.518 L 310.008 428.434 C 307.465 437.738 305.181 445.68 304.932 446.083 C 304.638 446.559 297.775 446.749 285.385 446.624 L 266.292 446.432 L 289.461 372.645 C 302.205 332.062 313.987 294.565 315.645 289.319 L 318.66 279.781 L 338.388 279.781 L 358.115 279.781 L 368.187 310.555 C 373.727 327.481 385.005 361.978 393.25 387.214 L 408.24 433.098 L 408.425 378.755 L 408.609 324.413 L 424.442 324.413 L 440.275 324.413 L 440.281 332.152 L 440.288 339.89 L 442.372 336.257 C 446.63 328.834 454.789 323.717 464.86 322.153 C 478.757 319.995 492.361 326.573 497.804 338.082 L 499.822 342.348 L 502.041 338.923 C 512.5 322.781 533.727 317.391 551.457 326.376 C 556.178 328.768 562.512 335.31 564.94 340.301 C 569.268 349.2 569.47 351.933 569.482 401.8 L 569.492 447.152 L 554.015 447.152 L 538.537 447.152 L 538.153 407.199 C 537.743 364.457 537.819 365.321 533.966 359.455 C 531.469 355.654 527.38 353.684 521.98 353.681 C 517.138 353.678 513.954 354.985 510.263 358.488 C 505.602 362.911 505.529 363.61 505.094 407.559 L 504.703 447.152 L 489.226 447.152 L 473.749 447.152 L 473.389 406.786 L 473.029 366.421 L 470.858 362.178 C 464.241 349.243 446.668 351.334 441.969 365.616 C 440.871 368.952 440.674 374.059 440.318 408.279 L 439.914 447.152 L 424.437 447.172 C 415.925 447.183 401.023 447.096 391.323 446.978 L 391.323 446.978 Z  M 354.979 379.664 C 354.811 379.169 351.4 366.13 347.398 350.688 C 343.396 335.247 339.779 321.318 339.359 319.734 C 338.635 316.998 338.208 318.415 330.798 348.169 C 326.509 365.392 322.985 379.726 322.967 380.023 C 322.95 380.32 330.214 380.563 339.11 380.563 C 351.732 380.563 355.217 380.366 354.979 379.664 Z  M 598.286 446.612 C 598.112 446.117 590.891 418.501 582.239 385.243 L 566.507 324.773 L 582.323 324.579 C 591.022 324.472 598.247 324.492 598.378 324.624 C 598.51 324.755 602.223 341.363 606.631 361.531 C 611.039 381.699 614.867 398.442 615.138 398.737 C 615.409 399.033 619.314 382.836 623.816 362.744 C 628.318 342.652 632.144 325.808 632.318 325.313 C 632.557 324.635 636.047 324.413 646.445 324.413 L 660.254 324.413 L 668.416 361.307 C 672.906 381.598 676.78 398.578 677.026 399.039 C 677.273 399.501 681.186 382.899 685.722 362.146 L 693.97 324.413 L 710.066 324.413 C 725.061 324.413 726.137 324.499 725.783 325.673 C 725.575 326.366 718.412 353.793 709.867 386.621 C 701.321 419.45 694.162 446.58 693.958 446.911 C 693.753 447.241 687.148 447.512 679.28 447.512 C 666.272 447.512 664.94 447.397 664.612 446.252 C 664.413 445.559 660.264 427.081 655.391 405.189 C 650.009 381.009 646.332 365.892 646.023 366.676 C 645.743 367.385 641.762 385.135 637.175 406.119 C 632.589 427.103 628.529 445.001 628.155 445.892 C 627.48 447.495 627.326 447.512 613.038 447.512 C 602.138 447.512 598.525 447.291 598.286 446.612 Z " fill="rgb(255,255,255)"/></g></g></svg>