<?xml version="1.0" encoding="UTF-8" standalone="no"?><!-- Generator: Gravit.io --><svg xmlns="http://www.w3.org/2000/svg" xmlns:xlink="http://www.w3.org/1999/xlink" style="isolation:isolate" viewBox="0 0 1620 1080" width="1620pt" height="1080pt"><defs><clipPath id="_clipPath_ydhUEdXwpybOUArkEeRVUlbt1AZze7Sx"><rect width="1620" height="1080"/></clipPath></defs><g clip-path="url(#_clipPath_ydhUEdXwpybOUArkEeRVUlbt1AZze7Sx)"><path d=" M 810 -633 L 710 -733 L -563 540 L 710 1813 L 810 1713 L -363 540 L 810 -633 Z  M 810 -633 L 910 -733 L 2183 540 L 910 1813 L 810 1713 L 1983 540 L 810 -633 Z " fill-rule="evenodd" fill="rgb(248,211,58)"/><path d=" M -363 540 L 235.5 -58.5 L 810 -633 L 1983 540 L 810 1713 L -363 540 Z  M 71 540 L 810 -199 L 1549 540 L 810 1279 L 71 540 Z " fill-rule="evenodd" fill="rgb(246,205,45)"/><path d=" M 492.5 620 L 1127.5 620 L 1127.5 718 L 492.5 718 L 492.5 620 Z " fill="none" vector-effect="non-scaling-stroke" stroke-width="1" stroke="rgb(0,0,0)" stroke-linejoin="miter" stroke-linecap="butt" stroke-miterlimit="10"/><rect x="287.383" y="17.556" width="1044.946" height="1044.946" transform="matrix(0.707,-0.707,0.707,0.707,-144.657,730.826)" fill="rgb(248,211,58)"/><path d=" M 746.625 427.5 L 811.125 363 L 875.875 427.75 L 851.875 451.75 L 811.375 411.25 L 770.875 451.75 L 746.625 427.5 L 746.625 427.5 Z  M 875.875 509.25 L 811.125 574 L 746.625 509.5 L 770.875 485.25 L 811.375 525.75 L 851.875 485.25 L 875.875 509.25 L 875.875 509.25 Z  M 704.5 468.5 L 727.5 445.5 L 750.5 468.5 L 727.5 491.5 L 704.5 468.5 L 704.5 468.5 L 704.5 468.5 Z  M 872 468.5 L 895 445.5 L 918 468.5 L 895 491.5 L 872 468.5 L 872 468.5 L 872 468.5 Z  M 788.25 468.5 L 811.25 445.5 L 834.25 468.5 L 811.25 491.5 L 788.25 468.5 L 788.25 468.5 Z " fill-rule="evenodd" fill="rgb(0,0,0)"/><path d=" M 1006.076 621.163 C 1011.387 621.404 1017.663 622.249 1019.957 622.852 C 1022.25 623.577 1027.561 626.232 1031.785 629.008 C 1035.889 631.664 1039.269 634.319 1039.269 634.802 C 1039.269 635.284 1036.372 638.905 1026.354 650.131 L 1022.25 646.872 C 1019.957 645.182 1016.094 642.768 1013.68 641.802 C 1011.146 640.716 1006.197 639.871 1002.817 639.871 C 998.472 639.871 994.731 640.716 990.989 642.647 C 987.971 644.216 983.868 647.596 981.816 650.251 C 979.522 653.269 977.591 657.614 976.626 662.2 C 975.539 667.632 975.419 670.891 976.384 675.236 C 977.108 678.374 978.436 682.478 979.402 684.288 C 980.367 686.099 982.661 688.996 984.592 690.806 C 986.402 692.496 989.903 694.91 992.196 695.996 C 994.731 697.324 999.196 698.169 1003.059 698.169 C 1006.68 698.048 1011.628 697.324 1013.922 696.358 C 1016.215 695.393 1020.198 693.1 1027.319 687.547 L 1033.354 693.582 C 1036.613 696.962 1039.269 700.1 1039.269 700.583 C 1039.269 701.066 1037.458 703.118 1035.406 705.17 C 1033.234 707.101 1029.009 709.997 1025.992 711.567 C 1022.974 713.136 1017.543 715.067 1013.922 715.912 C 1009.697 716.877 1004.024 717.239 998.231 716.757 C 991.713 716.153 987.006 714.946 981.695 712.291 C 977.471 710.36 971.677 706.256 968.659 703.238 C 965.642 700.221 961.538 694.186 959.366 689.72 C 956.59 683.685 955.383 679.219 955.02 673.063 C 954.658 668.477 955.141 661.597 955.986 657.976 C 956.831 654.355 958.883 648.682 960.693 645.423 C 962.383 642.164 965.883 637.457 968.418 634.922 C 970.832 632.388 975.177 628.887 978.074 627.318 C 980.85 625.629 986.161 623.456 989.782 622.49 C 994.248 621.163 999.559 620.801 1006.076 621.163 L 1006.076 621.163 L 1006.076 621.163 Z  M 797.87 621.766 L 800.766 629.37 C 802.456 633.474 811.147 654.234 820.199 675.477 C 829.131 696.721 836.494 714.584 836.494 715.067 C 836.494 715.55 831.786 715.791 815.733 715.308 L 807.526 694.186 L 768.298 694.789 L 759.608 715.308 L 738.727 715.912 L 740.417 712.049 C 741.262 709.877 749.711 689.841 759.246 667.632 C 768.66 645.423 776.868 625.991 777.471 624.542 C 778.437 622.008 779.282 621.766 797.87 621.766 L 797.87 621.766 Z  M 492.5 622.973 L 518.209 622.973 C 532.21 622.973 545.728 623.577 548.022 624.18 C 550.315 624.784 554.177 626.594 556.471 628.043 C 558.764 629.612 561.902 633.353 563.471 636.25 C 565.04 639.388 566.127 643.854 566.127 646.872 C 566.127 649.648 565.161 653.993 564.075 656.407 C 562.868 658.821 559.971 662.321 557.678 664.252 C 555.384 666.184 554.177 667.632 555.022 667.632 C 555.747 667.632 558.643 668.96 561.299 670.649 C 564.075 672.46 567.213 675.719 568.541 678.495 C 570.11 681.633 570.955 685.737 570.955 689.961 C 570.955 694.186 570.11 698.41 568.541 701.428 C 567.213 704.083 564.678 707.342 562.868 708.549 C 560.937 709.877 557.074 711.929 554.057 713.015 C 549.591 714.825 543.797 715.188 492.5 715.912 L 492.5 669.442 L 492.5 622.973 L 492.5 622.973 Z  M 593.888 622.973 L 614.406 622.973 L 614.406 715.912 L 593.888 715.912 L 593.888 669.442 L 593.888 622.973 L 593.888 622.973 Z  M 642.167 622.973 L 660.876 622.973 L 703.121 678.857 L 703.603 622.973 L 724.243 622.973 L 724.243 715.912 L 706.742 715.791 L 662.083 656.769 L 661.479 715.912 L 642.167 715.912 L 642.167 669.442 L 642.167 622.973 L 642.167 622.973 Z  M 852.305 622.852 L 871.979 623.577 L 914.345 679.581 L 914.828 622.973 L 934.26 622.973 L 934.26 715.912 L 917.966 716.032 L 873.307 657.614 L 872.703 715.912 L 852.184 715.912 L 852.184 669.442 L 852.305 622.852 L 852.305 622.852 Z  M 1056.167 622.973 L 1126.293 622.973 L 1126.293 641.078 L 1076.806 641.078 L 1076.806 659.183 L 1120.258 659.183 L 1120.258 677.288 L 1076.806 677.288 L 1076.806 697.807 L 1127.5 697.807 L 1127.5 715.912 L 1056.891 715.308 L 1056.529 669.08 L 1056.167 622.973 L 1056.167 622.973 Z  M 523.761 639.871 C 529.434 639.871 536.193 640.475 538.728 641.078 C 541.142 641.802 543.797 643.371 544.401 644.699 C 545.004 646.027 545.608 648.803 545.608 650.734 C 545.608 653.027 544.521 655.2 542.952 656.769 C 541.383 658.097 538.607 659.424 536.555 659.786 C 534.503 660.149 528.227 660.39 511.812 660.39 L 511.571 650.975 C 511.45 645.785 511.812 641.078 512.415 640.716 C 513.019 640.233 518.088 639.871 523.761 639.871 L 523.761 639.871 Z  M 788.334 648.079 C 788.817 648.561 791.593 655.079 794.732 662.442 C 797.749 669.925 799.922 676.322 799.439 676.684 C 799.077 677.047 793.645 677.288 787.369 677.288 C 781.213 677.288 776.144 676.926 776.144 676.322 C 776.144 675.84 778.678 669.08 781.817 661.356 C 785.076 653.51 787.972 647.596 788.334 648.079 L 788.334 648.079 L 788.334 648.079 Z  M 512.053 677.047 L 528.831 677.529 C 543.556 677.891 545.849 678.133 548.022 680.305 C 549.591 681.754 550.677 684.53 550.798 687.185 C 550.919 690.444 550.315 692.496 548.263 694.427 C 545.728 696.962 544.401 697.203 511.812 697.807 L 511.933 687.427 L 512.053 677.047 L 512.053 677.047 Z " fill-rule="evenodd" fill="rgb(19,21,20)"/></g></svg>