<?xml version="1.0" standalone="no"?><!-- Generator: Gravit.io --><svg xmlns="http://www.w3.org/2000/svg" xmlns:xlink="http://www.w3.org/1999/xlink" style="isolation:isolate" viewBox="0 0 1200 800" width="1200" height="800"><defs><clipPath id="_clipPath_Se04FOulMkAtbkBgEVBPHvibs87UM9KR"><rect width="1200" height="800"/></clipPath></defs><g clip-path="url(#_clipPath_Se04FOulMkAtbkBgEVBPHvibs87UM9KR)"><rect x="0" y="0" width="1200" height="800" transform="matrix(1,0,0,1,0,0)" fill="rgb(82,174,225)"/><path d=" M 842.94 589.68 L 842.94 589.68 L 842.94 589.68 Q 842.94 586.38 844.08 583.44 L 844.08 583.44 L 844.08 583.44 Q 845.22 580.5 847.29 578.31 L 847.29 578.31 L 847.29 578.31 Q 849.36 576.12 852.24 574.86 L 852.24 574.86 L 852.24 574.86 Q 855.12 573.6 858.6 573.6 L 858.6 573.6 L 858.6 573.6 Q 863.04 573.6 866.34 575.61 L 866.34 575.61 L 866.34 575.61 Q 869.64 577.62 871.32 581.04 L 871.32 581.04 L 867.36 582.3 L 867.36 582.3 Q 866.04 579.9 863.67 578.55 L 863.67 578.55 L 863.67 578.55 Q 861.3 577.2 858.42 577.2 L 858.42 577.2 L 858.42 577.2 Q 856.02 577.2 853.95 578.16 L 853.95 578.16 L 853.95 578.16 Q 851.88 579.12 850.35 580.77 L 850.35 580.77 L 850.35 580.77 Q 848.82 582.42 847.95 584.7 L 847.95 584.7 L 847.95 584.7 Q 847.08 586.98 847.08 589.68 L 847.08 589.68 L 847.08 589.68 Q 847.08 592.32 847.98 594.66 L 847.98 594.66 L 847.98 594.66 Q 848.88 597 850.44 598.71 L 850.44 598.71 L 850.44 598.71 Q 852 600.42 854.07 601.41 L 854.07 601.41 L 854.07 601.41 Q 856.14 602.4 858.48 602.4 L 858.48 602.4 L 858.48 602.4 Q 859.98 602.4 861.45 601.98 L 861.45 601.98 L 861.45 601.98 Q 862.92 601.56 864.18 600.81 L 864.18 600.81 L 864.18 600.81 Q 865.44 600.06 866.34 599.1 L 866.34 599.1 L 866.34 599.1 Q 867.24 598.14 867.6 597.06 L 867.6 597.06 L 871.62 598.26 L 871.62 598.26 Q 870.96 599.94 869.7 601.35 L 869.7 601.35 L 869.7 601.35 Q 868.44 602.76 866.73 603.81 L 866.73 603.81 L 866.73 603.81 Q 865.02 604.86 862.95 605.43 L 862.95 605.43 L 862.95 605.43 Q 860.88 606 858.66 606 L 858.66 606 L 858.66 606 Q 855.24 606 852.36 604.71 L 852.36 604.71 L 852.36 604.71 Q 849.48 603.42 847.38 601.17 L 847.38 601.17 L 847.38 601.17 Q 845.28 598.92 844.11 595.98 L 844.11 595.98 L 844.11 595.98 Q 842.94 593.04 842.94 589.68 Z  M 891.36 606 L 891.36 606 L 891.36 606 Q 887.94 606 885.12 604.71 L 885.12 604.71 L 885.12 604.71 Q 882.3 603.42 880.23 601.2 L 880.23 601.2 L 880.23 601.2 Q 878.16 598.98 877.02 596.04 L 877.02 596.04 L 877.02 596.04 Q 875.88 593.1 875.88 589.86 L 875.88 589.86 L 875.88 589.86 Q 875.88 586.56 877.05 583.62 L 877.05 583.62 L 877.05 583.62 Q 878.22 580.68 880.29 578.46 L 880.29 578.46 L 880.29 578.46 Q 882.36 576.24 885.18 574.92 L 885.18 574.92 L 885.18 574.92 Q 888 573.6 891.36 573.6 L 891.36 573.6 L 891.36 573.6 Q 894.72 573.6 897.57 574.92 L 897.57 574.92 L 897.57 574.92 Q 900.42 576.24 902.49 578.46 L 902.49 578.46 L 902.49 578.46 Q 904.56 580.68 905.73 583.62 L 905.73 583.62 L 905.73 583.62 Q 906.9 586.56 906.9 589.86 L 906.9 589.86 L 906.9 589.86 Q 906.9 593.1 905.76 596.04 L 905.76 596.04 L 905.76 596.04 Q 904.62 598.98 902.55 601.2 L 902.55 601.2 L 902.55 601.2 Q 900.48 603.42 897.63 604.71 L 897.63 604.71 L 897.63 604.71 Q 894.78 606 891.36 606 Z  M 880.02 589.92 L 880.02 589.92 L 880.02 589.92 Q 880.02 592.56 880.92 594.81 L 880.92 594.81 L 880.92 594.81 Q 881.82 597.06 883.35 598.77 L 883.35 598.77 L 883.35 598.77 Q 884.88 600.48 886.95 601.44 L 886.95 601.44 L 886.95 601.44 Q 889.02 602.4 891.36 602.4 L 891.36 602.4 L 891.36 602.4 Q 893.7 602.4 895.77 601.41 L 895.77 601.41 L 895.77 601.41 Q 897.84 600.42 899.4 598.71 L 899.4 598.71 L 899.4 598.71 Q 900.96 597 901.86 594.72 L 901.86 594.72 L 901.86 594.72 Q 902.76 592.44 902.76 589.8 L 902.76 589.8 L 902.76 589.8 Q 902.76 587.22 901.86 584.91 L 901.86 584.91 L 901.86 584.91 Q 900.96 582.6 899.4 580.89 L 899.4 580.89 L 899.4 580.89 Q 897.84 579.18 895.77 578.19 L 895.77 578.19 L 895.77 578.19 Q 893.7 577.2 891.36 577.2 L 891.36 577.2 L 891.36 577.2 Q 889.02 577.2 886.98 578.19 L 886.98 578.19 L 886.98 578.19 Q 884.94 579.18 883.38 580.92 L 883.38 580.92 L 883.38 580.92 Q 881.82 582.66 880.92 584.97 L 880.92 584.97 L 880.92 584.97 Q 880.02 587.28 880.02 589.92 Z  M 926.58 606 L 926.58 606 L 926.58 606 Q 923.34 606 920.58 604.65 L 920.58 604.65 L 920.58 604.65 Q 917.82 603.3 915.84 601.08 L 915.84 601.08 L 915.84 601.08 Q 913.86 598.86 912.75 595.95 L 912.75 595.95 L 912.75 595.95 Q 911.64 593.04 911.64 589.86 L 911.64 589.86 L 911.64 589.86 Q 911.64 586.56 912.72 583.59 L 912.72 583.59 L 912.72 583.59 Q 913.8 580.62 915.69 578.4 L 915.69 578.4 L 915.69 578.4 Q 917.58 576.18 920.19 574.89 L 920.19 574.89 L 920.19 574.89 Q 922.8 573.6 925.92 573.6 L 925.92 573.6 L 925.92 573.6 Q 929.88 573.6 932.94 575.67 L 932.94 575.67 L 932.94 575.67 Q 936 577.74 937.74 580.68 L 937.74 580.68 L 937.74 561.6 L 941.82 561.6 L 941.82 600.12 L 941.82 600.12 Q 941.82 601.8 943.26 601.8 L 943.26 601.8 L 943.26 605.4 L 943.26 605.4 Q 942.36 605.58 941.82 605.58 L 941.82 605.58 L 941.82 605.58 Q 940.38 605.58 939.3 604.65 L 939.3 604.65 L 939.3 604.65 Q 938.22 603.72 938.22 602.4 L 938.22 602.4 L 938.22 599.34 L 938.22 599.34 Q 936.36 602.4 933.18 604.2 L 933.18 604.2 L 933.18 604.2 Q 930 606 926.58 606 Z  M 927.48 602.4 L 927.48 602.4 L 927.48 602.4 Q 928.98 602.4 930.69 601.8 L 930.69 601.8 L 930.69 601.8 Q 932.4 601.2 933.9 600.15 L 933.9 600.15 L 933.9 600.15 Q 935.4 599.1 936.45 597.69 L 936.45 597.69 L 936.45 597.69 Q 937.5 596.28 937.74 594.66 L 937.74 594.66 L 937.74 585 L 937.74 585 Q 937.14 583.38 936 581.97 L 936 581.97 L 936 581.97 Q 934.86 580.56 933.39 579.48 L 933.39 579.48 L 933.39 579.48 Q 931.92 578.4 930.24 577.8 L 930.24 577.8 L 930.24 577.8 Q 928.56 577.2 926.94 577.2 L 926.94 577.2 L 926.94 577.2 Q 924.42 577.2 922.38 578.28 L 922.38 578.28 L 922.38 578.28 Q 920.34 579.36 918.87 581.13 L 918.87 581.13 L 918.87 581.13 Q 917.4 582.9 916.62 585.18 L 916.62 585.18 L 916.62 585.18 Q 915.84 587.46 915.84 589.86 L 915.84 589.86 L 915.84 589.86 Q 915.84 592.38 916.74 594.66 L 916.74 594.66 L 916.74 594.66 Q 917.64 596.94 919.2 598.65 L 919.2 598.65 L 919.2 598.65 Q 920.76 600.36 922.89 601.38 L 922.89 601.38 L 922.89 601.38 Q 925.02 602.4 927.48 602.4 Z  M 964.56 606 L 964.56 606 L 964.56 606 Q 961.14 606 958.29 604.71 L 958.29 604.71 L 958.29 604.71 Q 955.44 603.42 953.34 601.17 L 953.34 601.17 L 953.34 601.17 Q 951.24 598.92 950.07 595.98 L 950.07 595.98 L 950.07 595.98 Q 948.9 593.04 948.9 589.68 L 948.9 589.68 L 948.9 589.68 Q 948.9 586.38 950.07 583.47 L 950.07 583.47 L 950.07 583.47 Q 951.24 580.56 953.31 578.37 L 953.31 578.37 L 953.31 578.37 Q 955.38 576.18 958.26 574.89 L 958.26 574.89 L 958.26 574.89 Q 961.14 573.6 964.5 573.6 L 964.5 573.6 L 964.5 573.6 Q 967.92 573.6 970.77 574.89 L 970.77 574.89 L 970.77 574.89 Q 973.62 576.18 975.66 578.4 L 975.66 578.4 L 975.66 578.4 Q 977.7 580.62 978.84 583.5 L 978.84 583.5 L 978.84 583.5 Q 979.98 586.38 979.98 589.62 L 979.98 589.62 L 979.98 589.62 Q 979.98 590.1 979.98 590.58 L 979.98 590.58 L 979.98 590.58 Q 979.98 591.06 979.92 591.24 L 979.92 591.24 L 953.16 591.24 L 953.16 591.24 Q 953.34 593.76 954.33 595.89 L 954.33 595.89 L 954.33 595.89 Q 955.32 598.02 956.88 599.58 L 956.88 599.58 L 956.88 599.58 Q 958.44 601.14 960.45 602.01 L 960.45 602.01 L 960.45 602.01 Q 962.46 602.88 964.74 602.88 L 964.74 602.88 L 964.74 602.88 Q 966.24 602.88 967.74 602.46 L 967.74 602.46 L 967.74 602.46 Q 969.24 602.04 970.5 601.32 L 970.5 601.32 L 970.5 601.32 Q 971.76 600.6 972.78 599.55 L 972.78 599.55 L 972.78 599.55 Q 973.8 598.5 974.34 597.24 L 974.34 597.24 L 977.88 598.2 L 977.88 598.2 Q 977.16 599.94 975.84 601.35 L 975.84 601.35 L 975.84 601.35 Q 974.52 602.76 972.78 603.81 L 972.78 603.81 L 972.78 603.81 Q 971.04 604.86 968.94 605.43 L 968.94 605.43 L 968.94 605.43 Q 966.84 606 964.56 606 Z  M 953.1 588.12 L 976.08 588.12 L 976.08 588.12 Q 975.9 585.6 974.91 583.53 L 974.91 583.53 L 974.91 583.53 Q 973.92 581.46 972.39 579.96 L 972.39 579.96 L 972.39 579.96 Q 970.86 578.46 968.85 577.62 L 968.85 577.62 L 968.85 577.62 Q 966.84 576.78 964.56 576.78 L 964.56 576.78 L 964.56 576.78 Q 962.28 576.78 960.24 577.62 L 960.24 577.62 L 960.24 577.62 Q 958.2 578.46 956.67 579.96 L 956.67 579.96 L 956.67 579.96 Q 955.14 581.46 954.21 583.56 L 954.21 583.56 L 954.21 583.56 Q 953.28 585.66 953.1 588.12 L 953.1 588.12 Z  M 1001.88 574.02 L 1001.88 577.74 L 1001.88 577.74 Q 997.74 577.86 994.68 580.02 L 994.68 580.02 L 994.68 580.02 Q 991.62 582.18 990.36 585.96 L 990.36 585.96 L 990.36 605.4 L 986.28 605.4 L 986.28 574.14 L 990.12 574.14 L 990.12 581.64 L 990.12 581.64 Q 991.86 578.04 994.8 576 L 994.8 576 L 994.8 576 Q 997.74 573.96 1001.1 573.96 L 1001.1 573.96 L 1001.1 573.96 Q 1001.58 573.96 1001.88 574.02 L 1001.88 574.02 Z  M 804.96 606 L 804.96 606 L 804.96 606 Q 802.74 606 800.85 605.25 L 800.85 605.25 L 800.85 605.25 Q 798.96 604.5 797.55 603.18 L 797.55 603.18 L 797.55 603.18 Q 796.14 601.86 795.36 600.09 L 795.36 600.09 L 795.36 600.09 Q 794.58 598.32 794.58 596.28 L 794.58 596.28 L 794.58 596.28 Q 794.58 594.24 795.54 592.5 L 795.54 592.5 L 795.54 592.5 Q 796.5 590.76 798.24 589.5 L 798.24 589.5 L 798.24 589.5 Q 799.98 588.24 802.38 587.55 L 802.38 587.55 L 802.38 587.55 Q 804.78 586.86 807.66 586.86 L 807.66 586.86 L 807.66 586.86 Q 810.06 586.86 812.52 587.28 L 812.52 587.28 L 812.52 587.28 Q 814.98 587.7 816.9 588.48 L 816.9 588.48 L 816.9 585.66 L 816.9 585.66 Q 816.9 581.52 814.56 579.09 L 814.56 579.09 L 814.56 579.09 Q 812.22 576.66 808.08 576.66 L 808.08 576.66 L 808.08 576.66 Q 805.68 576.66 803.16 577.62 L 803.16 577.62 L 803.16 577.62 Q 800.64 578.58 798.06 580.38 L 798.06 580.38 L 796.62 577.68 L 796.62 577.68 Q 802.68 573.6 808.38 573.6 L 808.38 573.6 L 808.38 573.6 Q 814.26 573.6 817.62 576.9 L 817.62 576.9 L 817.62 576.9 Q 820.98 580.2 820.98 586.02 L 820.98 586.02 L 820.98 600.12 L 820.98 600.12 Q 820.98 601.8 822.48 601.8 L 822.48 601.8 L 822.48 605.4 L 822.48 605.4 Q 821.46 605.58 820.92 605.58 L 820.92 605.58 L 820.92 605.58 Q 819.36 605.58 818.49 604.8 L 818.49 604.8 L 818.49 604.8 Q 817.62 604.02 817.56 602.64 L 817.56 602.64 L 817.44 600.18 L 817.44 600.18 Q 815.28 603 812.01 604.5 L 812.01 604.5 L 812.01 604.5 Q 808.74 606 804.96 606 Z  M 805.92 602.88 L 805.92 602.88 L 805.92 602.88 Q 809.1 602.88 811.77 601.68 L 811.77 601.68 L 811.77 601.68 Q 814.44 600.48 815.82 598.5 L 815.82 598.5 L 815.82 598.5 Q 816.36 597.96 816.63 597.33 L 816.63 597.33 L 816.63 597.33 Q 816.9 596.7 816.9 596.16 L 816.9 596.16 L 816.9 591.06 L 816.9 591.06 Q 814.86 590.28 812.67 589.86 L 812.67 589.86 L 812.67 589.86 Q 810.48 589.44 808.2 589.44 L 808.2 589.44 L 808.2 589.44 Q 803.88 589.44 801.18 591.24 L 801.18 591.24 L 801.18 591.24 Q 798.48 593.04 798.48 595.98 L 798.48 595.98 L 798.48 595.98 Q 798.48 597.42 799.05 598.68 L 799.05 598.68 L 799.05 598.68 Q 799.62 599.94 800.61 600.87 L 800.61 600.87 L 800.61 600.87 Q 801.6 601.8 802.98 602.34 L 802.98 602.34 L 802.98 602.34 Q 804.36 602.88 805.92 602.88 Z  M 724.86 606 L 724.86 606 L 724.86 606 Q 721.14 606 718.05 604.14 L 718.05 604.14 L 718.05 604.14 Q 714.96 602.28 713.22 599.34 L 713.22 599.34 L 713.22 605.4 L 709.56 605.4 L 709.56 561.6 L 713.64 561.6 L 713.64 580.68 L 713.64 580.68 Q 715.74 577.5 718.68 575.55 L 718.68 575.55 L 718.68 575.55 Q 721.62 573.6 725.52 573.6 L 725.52 573.6 L 725.52 573.6 Q 728.82 573.6 731.43 574.98 L 731.43 574.98 L 731.43 574.98 Q 734.04 576.36 735.87 578.67 L 735.87 578.67 L 735.87 578.67 Q 737.7 580.98 738.69 583.89 L 738.69 583.89 L 738.69 583.89 Q 739.68 586.8 739.68 589.86 L 739.68 589.86 L 739.68 589.86 Q 739.68 593.16 738.54 596.1 L 738.54 596.1 L 738.54 596.1 Q 737.4 599.04 735.42 601.23 L 735.42 601.23 L 735.42 601.23 Q 733.44 603.42 730.71 604.71 L 730.71 604.71 L 730.71 604.71 Q 727.98 606 724.86 606 Z  M 723.9 602.4 L 723.9 602.4 L 723.9 602.4 Q 726.48 602.4 728.61 601.35 L 728.61 601.35 L 728.61 601.35 Q 730.74 600.3 732.27 598.53 L 732.27 598.53 L 732.27 598.53 Q 733.8 596.76 734.67 594.51 L 734.67 594.51 L 734.67 594.51 Q 735.54 592.26 735.54 589.86 L 735.54 589.86 L 735.54 589.86 Q 735.54 587.4 734.73 585.12 L 734.73 585.12 L 734.73 585.12 Q 733.92 582.84 732.45 581.07 L 732.45 581.07 L 732.45 581.07 Q 730.98 579.3 728.91 578.25 L 728.91 578.25 L 728.91 578.25 Q 726.84 577.2 724.38 577.2 L 724.38 577.2 L 724.38 577.2 Q 722.52 577.2 720.9 577.83 L 720.9 577.83 L 720.9 577.83 Q 719.28 578.46 717.9 579.54 L 717.9 579.54 L 717.9 579.54 Q 716.52 580.62 715.44 582.03 L 715.44 582.03 L 715.44 582.03 Q 714.36 583.44 713.64 585 L 713.64 585 L 713.64 594.72 L 713.64 594.72 Q 713.88 596.34 714.93 597.75 L 714.93 597.75 L 714.93 597.75 Q 715.98 599.16 717.45 600.18 L 717.45 600.18 L 717.45 600.18 Q 718.92 601.2 720.63 601.8 L 720.63 601.8 L 720.63 601.8 Q 722.34 602.4 723.9 602.4 Z  M 760.08 606 L 760.08 606 L 760.08 606 Q 756.66 606 753.81 604.71 L 753.81 604.71 L 753.81 604.71 Q 750.96 603.42 748.86 601.17 L 748.86 601.17 L 748.86 601.17 Q 746.76 598.92 745.59 595.98 L 745.59 595.98 L 745.59 595.98 Q 744.42 593.04 744.42 589.68 L 744.42 589.68 L 744.42 589.68 Q 744.42 586.38 745.59 583.47 L 745.59 583.47 L 745.59 583.47 Q 746.76 580.56 748.83 578.37 L 748.83 578.37 L 748.83 578.37 Q 750.9 576.18 753.78 574.89 L 753.78 574.89 L 753.78 574.89 Q 756.66 573.6 760.02 573.6 L 760.02 573.6 L 760.02 573.6 Q 763.44 573.6 766.29 574.89 L 766.29 574.89 L 766.29 574.89 Q 769.14 576.18 771.18 578.4 L 771.18 578.4 L 771.18 578.4 Q 773.22 580.62 774.36 583.5 L 774.36 583.5 L 774.36 583.5 Q 775.5 586.38 775.5 589.62 L 775.5 589.62 L 775.5 589.62 Q 775.5 590.1 775.5 590.58 L 775.5 590.58 L 775.5 590.58 Q 775.5 591.06 775.44 591.24 L 775.44 591.24 L 748.68 591.24 L 748.68 591.24 Q 748.86 593.76 749.85 595.89 L 749.85 595.89 L 749.85 595.89 Q 750.84 598.02 752.4 599.58 L 752.4 599.58 L 752.4 599.58 Q 753.96 601.14 755.97 602.01 L 755.97 602.01 L 755.97 602.01 Q 757.98 602.88 760.26 602.88 L 760.26 602.88 L 760.26 602.88 Q 761.76 602.88 763.26 602.46 L 763.26 602.46 L 763.26 602.46 Q 764.76 602.04 766.02 601.32 L 766.02 601.32 L 766.02 601.32 Q 767.28 600.6 768.3 599.55 L 768.3 599.55 L 768.3 599.55 Q 769.32 598.5 769.86 597.24 L 769.86 597.24 L 773.4 598.2 L 773.4 598.2 Q 772.68 599.94 771.36 601.35 L 771.36 601.35 L 771.36 601.35 Q 770.04 602.76 768.3 603.81 L 768.3 603.81 L 768.3 603.81 Q 766.56 604.86 764.46 605.43 L 764.46 605.43 L 764.46 605.43 Q 762.36 606 760.08 606 Z  M 748.62 588.12 L 771.6 588.12 L 771.6 588.12 Q 771.42 585.6 770.43 583.53 L 770.43 583.53 L 770.43 583.53 Q 769.44 581.46 767.91 579.96 L 767.91 579.96 L 767.91 579.96 Q 766.38 578.46 764.37 577.62 L 764.37 577.62 L 764.37 577.62 Q 762.36 576.78 760.08 576.78 L 760.08 576.78 L 760.08 576.78 Q 757.8 576.78 755.76 577.62 L 755.76 577.62 L 755.76 577.62 Q 753.72 578.46 752.19 579.96 L 752.19 579.96 L 752.19 579.96 Q 750.66 581.46 749.73 583.56 L 749.73 583.56 L 749.73 583.56 Q 748.8 585.66 748.62 588.12 L 748.62 588.12 Z  M 652.38 600.6 L 653.46 603.9 L 653.46 603.9 Q 653.1 604.08 652.41 604.38 L 652.41 604.38 L 652.41 604.38 Q 651.72 604.68 650.82 604.98 L 650.82 604.98 L 650.82 604.98 Q 649.92 605.28 648.78 605.52 L 648.78 605.52 L 648.78 605.52 Q 647.64 605.76 646.38 605.76 L 646.38 605.76 L 646.38 605.76 Q 645.06 605.76 643.86 605.4 L 643.86 605.4 L 643.86 605.4 Q 642.66 605.04 641.76 604.29 L 641.76 604.29 L 641.76 604.29 Q 640.86 603.54 640.32 602.4 L 640.32 602.4 L 640.32 602.4 Q 639.78 601.26 639.78 599.76 L 639.78 599.76 L 639.78 577.38 L 635.46 577.38 L 635.46 574.14 L 639.78 574.14 L 639.78 563.58 L 643.86 563.58 L 643.86 574.14 L 651.06 574.14 L 651.06 577.38 L 643.86 577.38 L 643.86 598.62 L 643.86 598.62 Q 643.98 600.36 645.09 601.17 L 645.09 601.17 L 645.09 601.17 Q 646.2 601.98 647.64 601.98 L 647.64 601.98 L 647.64 601.98 Q 649.38 601.98 650.7 601.41 L 650.7 601.41 L 650.7 601.41 Q 652.02 600.84 652.38 600.6 L 652.38 600.6 Z  M 671.88 606 L 671.88 606 L 671.88 606 Q 668.46 606 665.64 604.71 L 665.64 604.71 L 665.64 604.71 Q 662.82 603.42 660.75 601.2 L 660.75 601.2 L 660.75 601.2 Q 658.68 598.98 657.54 596.04 L 657.54 596.04 L 657.54 596.04 Q 656.4 593.1 656.4 589.86 L 656.4 589.86 L 656.4 589.86 Q 656.4 586.56 657.57 583.62 L 657.57 583.62 L 657.57 583.62 Q 658.74 580.68 660.81 578.46 L 660.81 578.46 L 660.81 578.46 Q 662.88 576.24 665.7 574.92 L 665.7 574.92 L 665.7 574.92 Q 668.52 573.6 671.88 573.6 L 671.88 573.6 L 671.88 573.6 Q 675.24 573.6 678.09 574.92 L 678.09 574.92 L 678.09 574.92 Q 680.94 576.24 683.01 578.46 L 683.01 578.46 L 683.01 578.46 Q 685.08 580.68 686.25 583.62 L 686.25 583.62 L 686.25 583.62 Q 687.42 586.56 687.42 589.86 L 687.42 589.86 L 687.42 589.86 Q 687.42 593.1 686.28 596.04 L 686.28 596.04 L 686.28 596.04 Q 685.14 598.98 683.07 601.2 L 683.07 601.2 L 683.07 601.2 Q 681 603.42 678.15 604.71 L 678.15 604.71 L 678.15 604.71 Q 675.3 606 671.88 606 Z  M 660.54 589.92 L 660.54 589.92 L 660.54 589.92 Q 660.54 592.56 661.44 594.81 L 661.44 594.81 L 661.44 594.81 Q 662.34 597.06 663.87 598.77 L 663.87 598.77 L 663.87 598.77 Q 665.4 600.48 667.47 601.44 L 667.47 601.44 L 667.47 601.44 Q 669.54 602.4 671.88 602.4 L 671.88 602.4 L 671.88 602.4 Q 674.22 602.4 676.29 601.41 L 676.29 601.41 L 676.29 601.41 Q 678.36 600.42 679.92 598.71 L 679.92 598.71 L 679.92 598.71 Q 681.48 597 682.38 594.72 L 682.38 594.72 L 682.38 594.72 Q 683.28 592.44 683.28 589.8 L 683.28 589.8 L 683.28 589.8 Q 683.28 587.22 682.38 584.91 L 682.38 584.91 L 682.38 584.91 Q 681.48 582.6 679.92 580.89 L 679.92 580.89 L 679.92 580.89 Q 678.36 579.18 676.29 578.19 L 676.29 578.19 L 676.29 578.19 Q 674.22 577.2 671.88 577.2 L 671.88 577.2 L 671.88 577.2 Q 669.54 577.2 667.5 578.19 L 667.5 578.19 L 667.5 578.19 Q 665.46 579.18 663.9 580.92 L 663.9 580.92 L 663.9 580.92 Q 662.34 582.66 661.44 584.97 L 661.44 584.97 L 661.44 584.97 Q 660.54 587.28 660.54 589.92 Z  M 506.7 587.1 L 506.7 605.4 L 502.62 605.4 L 502.62 587.94 L 502.62 587.94 Q 502.62 582.36 500.97 579.84 L 500.97 579.84 L 500.97 579.84 Q 499.32 577.32 495.9 577.32 L 495.9 577.32 L 495.9 577.32 Q 494.1 577.32 492.3 577.98 L 492.3 577.98 L 492.3 577.98 Q 490.5 578.64 488.97 579.84 L 488.97 579.84 L 488.97 579.84 Q 487.44 581.04 486.24 582.69 L 486.24 582.69 L 486.24 582.69 Q 485.04 584.34 484.5 586.26 L 484.5 586.26 L 484.5 605.4 L 480.42 605.4 L 480.42 574.14 L 484.14 574.14 L 484.14 581.22 L 484.14 581.22 Q 486.06 577.8 489.63 575.7 L 489.63 575.7 L 489.63 575.7 Q 493.2 573.6 497.4 573.6 L 497.4 573.6 L 497.4 573.6 Q 499.98 573.6 501.78 574.56 L 501.78 574.56 L 501.78 574.56 Q 503.58 575.52 504.66 577.26 L 504.66 577.26 L 504.66 577.26 Q 505.74 579 506.22 581.52 L 506.22 581.52 L 506.22 581.52 Q 506.7 584.04 506.7 587.1 L 506.7 587.1 Z  M 528.9 606 L 528.9 606 L 528.9 606 Q 525.48 606 522.63 604.71 L 522.63 604.71 L 522.63 604.71 Q 519.78 603.42 517.68 601.17 L 517.68 601.17 L 517.68 601.17 Q 515.58 598.92 514.41 595.98 L 514.41 595.98 L 514.41 595.98 Q 513.24 593.04 513.24 589.68 L 513.24 589.68 L 513.24 589.68 Q 513.24 586.38 514.41 583.47 L 514.41 583.47 L 514.41 583.47 Q 515.58 580.56 517.65 578.37 L 517.65 578.37 L 517.65 578.37 Q 519.72 576.18 522.6 574.89 L 522.6 574.89 L 522.6 574.89 Q 525.48 573.6 528.84 573.6 L 528.84 573.6 L 528.84 573.6 Q 532.26 573.6 535.11 574.89 L 535.11 574.89 L 535.11 574.89 Q 537.96 576.18 540 578.4 L 540 578.4 L 540 578.4 Q 542.04 580.62 543.18 583.5 L 543.18 583.5 L 543.18 583.5 Q 544.32 586.38 544.32 589.62 L 544.32 589.62 L 544.32 589.62 Q 544.32 590.1 544.32 590.58 L 544.32 590.58 L 544.32 590.58 Q 544.32 591.06 544.26 591.24 L 544.26 591.24 L 517.5 591.24 L 517.5 591.24 Q 517.68 593.76 518.67 595.89 L 518.67 595.89 L 518.67 595.89 Q 519.66 598.02 521.22 599.58 L 521.22 599.58 L 521.22 599.58 Q 522.78 601.14 524.79 602.01 L 524.79 602.01 L 524.79 602.01 Q 526.8 602.88 529.08 602.88 L 529.08 602.88 L 529.08 602.88 Q 530.58 602.88 532.08 602.46 L 532.08 602.46 L 532.08 602.46 Q 533.58 602.04 534.84 601.32 L 534.84 601.32 L 534.84 601.32 Q 536.1 600.6 537.12 599.55 L 537.12 599.55 L 537.12 599.55 Q 538.14 598.5 538.68 597.24 L 538.68 597.24 L 542.22 598.2 L 542.22 598.2 Q 541.5 599.94 540.18 601.35 L 540.18 601.35 L 540.18 601.35 Q 538.86 602.76 537.12 603.81 L 537.12 603.81 L 537.12 603.81 Q 535.38 604.86 533.28 605.43 L 533.28 605.43 L 533.28 605.43 Q 531.18 606 528.9 606 Z  M 517.44 588.12 L 540.42 588.12 L 540.42 588.12 Q 540.24 585.6 539.25 583.53 L 539.25 583.53 L 539.25 583.53 Q 538.26 581.46 536.73 579.96 L 536.73 579.96 L 536.73 579.96 Q 535.2 578.46 533.19 577.62 L 533.19 577.62 L 533.19 577.62 Q 531.18 576.78 528.9 576.78 L 528.9 576.78 L 528.9 576.78 Q 526.62 576.78 524.58 577.62 L 524.58 577.62 L 524.58 577.62 Q 522.54 578.46 521.01 579.96 L 521.01 579.96 L 521.01 579.96 Q 519.48 581.46 518.55 583.56 L 518.55 583.56 L 518.55 583.56 Q 517.62 585.66 517.44 588.12 L 517.44 588.12 Z  M 564.12 606 L 564.12 606 L 564.12 606 Q 560.7 606 557.85 604.71 L 557.85 604.71 L 557.85 604.71 Q 555 603.42 552.9 601.17 L 552.9 601.17 L 552.9 601.17 Q 550.8 598.92 549.63 595.98 L 549.63 595.98 L 549.63 595.98 Q 548.46 593.04 548.46 589.68 L 548.46 589.68 L 548.46 589.68 Q 548.46 586.38 549.63 583.47 L 549.63 583.47 L 549.63 583.47 Q 550.8 580.56 552.87 578.37 L 552.87 578.37 L 552.87 578.37 Q 554.94 576.18 557.82 574.89 L 557.82 574.89 L 557.82 574.89 Q 560.7 573.6 564.06 573.6 L 564.06 573.6 L 564.06 573.6 Q 567.48 573.6 570.33 574.89 L 570.33 574.89 L 570.33 574.89 Q 573.18 576.18 575.22 578.4 L 575.22 578.4 L 575.22 578.4 Q 577.26 580.62 578.4 583.5 L 578.4 583.5 L 578.4 583.5 Q 579.54 586.38 579.54 589.62 L 579.54 589.62 L 579.54 589.62 Q 579.54 590.1 579.54 590.58 L 579.54 590.58 L 579.54 590.58 Q 579.54 591.06 579.48 591.24 L 579.48 591.24 L 552.72 591.24 L 552.72 591.24 Q 552.9 593.76 553.89 595.89 L 553.89 595.89 L 553.89 595.89 Q 554.88 598.02 556.44 599.58 L 556.44 599.58 L 556.44 599.58 Q 558 601.14 560.01 602.01 L 560.01 602.01 L 560.01 602.01 Q 562.02 602.88 564.3 602.88 L 564.3 602.88 L 564.3 602.88 Q 565.8 602.88 567.3 602.46 L 567.3 602.46 L 567.3 602.46 Q 568.8 602.04 570.06 601.32 L 570.06 601.32 L 570.06 601.32 Q 571.32 600.6 572.34 599.55 L 572.34 599.55 L 572.34 599.55 Q 573.36 598.5 573.9 597.24 L 573.9 597.24 L 577.44 598.2 L 577.44 598.2 Q 576.72 599.94 575.4 601.35 L 575.4 601.35 L 575.4 601.35 Q 574.08 602.76 572.34 603.81 L 572.34 603.81 L 572.34 603.81 Q 570.6 604.86 568.5 605.43 L 568.5 605.43 L 568.5 605.43 Q 566.4 606 564.12 606 Z  M 552.66 588.12 L 575.64 588.12 L 575.64 588.12 Q 575.46 585.6 574.47 583.53 L 574.47 583.53 L 574.47 583.53 Q 573.48 581.46 571.95 579.96 L 571.95 579.96 L 571.95 579.96 Q 570.42 578.46 568.41 577.62 L 568.41 577.62 L 568.41 577.62 Q 566.4 576.78 564.12 576.78 L 564.12 576.78 L 564.12 576.78 Q 561.84 576.78 559.8 577.62 L 559.8 577.62 L 559.8 577.62 Q 557.76 578.46 556.23 579.96 L 556.23 579.96 L 556.23 579.96 Q 554.7 581.46 553.77 583.56 L 553.77 583.56 L 553.77 583.56 Q 552.84 585.66 552.66 588.12 L 552.66 588.12 Z  M 598.68 606 L 598.68 606 L 598.68 606 Q 595.44 606 592.68 604.65 L 592.68 604.65 L 592.68 604.65 Q 589.92 603.3 587.94 601.08 L 587.94 601.08 L 587.94 601.08 Q 585.96 598.86 584.85 595.95 L 584.85 595.95 L 584.85 595.95 Q 583.74 593.04 583.74 589.86 L 583.74 589.86 L 583.74 589.86 Q 583.74 586.56 584.82 583.59 L 584.82 583.59 L 584.82 583.59 Q 585.9 580.62 587.79 578.4 L 587.79 578.4 L 587.79 578.4 Q 589.68 576.18 592.29 574.89 L 592.29 574.89 L 592.29 574.89 Q 594.9 573.6 598.02 573.6 L 598.02 573.6 L 598.02 573.6 Q 601.98 573.6 605.04 575.67 L 605.04 575.67 L 605.04 575.67 Q 608.1 577.74 609.84 580.68 L 609.84 580.68 L 609.84 561.6 L 613.92 561.6 L 613.92 600.12 L 613.92 600.12 Q 613.92 601.8 615.36 601.8 L 615.36 601.8 L 615.36 605.4 L 615.36 605.4 Q 614.46 605.58 613.92 605.58 L 613.92 605.58 L 613.92 605.58 Q 612.48 605.58 611.4 604.65 L 611.4 604.65 L 611.4 604.65 Q 610.32 603.72 610.32 602.4 L 610.32 602.4 L 610.32 599.34 L 610.32 599.34 Q 608.46 602.4 605.28 604.2 L 605.28 604.2 L 605.28 604.2 Q 602.1 606 598.68 606 Z  M 599.58 602.4 L 599.58 602.4 L 599.58 602.4 Q 601.08 602.4 602.79 601.8 L 602.79 601.8 L 602.79 601.8 Q 604.5 601.2 606 600.15 L 606 600.15 L 606 600.15 Q 607.5 599.1 608.55 597.69 L 608.55 597.69 L 608.55 597.69 Q 609.6 596.28 609.84 594.66 L 609.84 594.66 L 609.84 585 L 609.84 585 Q 609.24 583.38 608.1 581.97 L 608.1 581.97 L 608.1 581.97 Q 606.96 580.56 605.49 579.48 L 605.49 579.48 L 605.49 579.48 Q 604.02 578.4 602.34 577.8 L 602.34 577.8 L 602.34 577.8 Q 600.66 577.2 599.04 577.2 L 599.04 577.2 L 599.04 577.2 Q 596.52 577.2 594.48 578.28 L 594.48 578.28 L 594.48 578.28 Q 592.44 579.36 590.97 581.13 L 590.97 581.13 L 590.97 581.13 Q 589.5 582.9 588.72 585.18 L 588.72 585.18 L 588.72 585.18 Q 587.94 587.46 587.94 589.86 L 587.94 589.86 L 587.94 589.86 Q 587.94 592.38 588.84 594.66 L 588.84 594.66 L 588.84 594.66 Q 589.74 596.94 591.3 598.65 L 591.3 598.65 L 591.3 598.65 Q 592.86 600.36 594.99 601.38 L 594.99 601.38 L 594.99 601.38 Q 597.12 602.4 599.58 602.4 Z  M 338.04 606 L 338.04 606 L 338.04 606 Q 334.8 606 332.04 604.65 L 332.04 604.65 L 332.04 604.65 Q 329.28 603.3 327.3 601.08 L 327.3 601.08 L 327.3 601.08 Q 325.32 598.86 324.21 595.95 L 324.21 595.95 L 324.21 595.95 Q 323.1 593.04 323.1 589.86 L 323.1 589.86 L 323.1 589.86 Q 323.1 586.56 324.18 583.59 L 324.18 583.59 L 324.18 583.59 Q 325.26 580.62 327.15 578.4 L 327.15 578.4 L 327.15 578.4 Q 329.04 576.18 331.65 574.89 L 331.65 574.89 L 331.65 574.89 Q 334.26 573.6 337.38 573.6 L 337.38 573.6 L 337.38 573.6 Q 341.34 573.6 344.4 575.67 L 344.4 575.67 L 344.4 575.67 Q 347.46 577.74 349.2 580.68 L 349.2 580.68 L 349.2 561.6 L 353.28 561.6 L 353.28 600.12 L 353.28 600.12 Q 353.28 601.8 354.72 601.8 L 354.72 601.8 L 354.72 605.4 L 354.72 605.4 Q 353.82 605.58 353.28 605.58 L 353.28 605.58 L 353.28 605.58 Q 351.84 605.58 350.76 604.65 L 350.76 604.65 L 350.76 604.65 Q 349.68 603.72 349.68 602.4 L 349.68 602.4 L 349.68 599.34 L 349.68 599.34 Q 347.82 602.4 344.64 604.2 L 344.64 604.2 L 344.64 604.2 Q 341.46 606 338.04 606 Z  M 338.94 602.4 L 338.94 602.4 L 338.94 602.4 Q 340.44 602.4 342.15 601.8 L 342.15 601.8 L 342.15 601.8 Q 343.86 601.2 345.36 600.15 L 345.36 600.15 L 345.36 600.15 Q 346.86 599.1 347.91 597.69 L 347.91 597.69 L 347.91 597.69 Q 348.96 596.28 349.2 594.66 L 349.2 594.66 L 349.2 585 L 349.2 585 Q 348.6 583.38 347.46 581.97 L 347.46 581.97 L 347.46 581.97 Q 346.32 580.56 344.85 579.48 L 344.85 579.48 L 344.85 579.48 Q 343.38 578.4 341.7 577.8 L 341.7 577.8 L 341.7 577.8 Q 340.02 577.2 338.4 577.2 L 338.4 577.2 L 338.4 577.2 Q 335.88 577.2 333.84 578.28 L 333.84 578.28 L 333.84 578.28 Q 331.8 579.36 330.33 581.13 L 330.33 581.13 L 330.33 581.13 Q 328.86 582.9 328.08 585.18 L 328.08 585.18 L 328.08 585.18 Q 327.3 587.46 327.3 589.86 L 327.3 589.86 L 327.3 589.86 Q 327.3 592.38 328.2 594.66 L 328.2 594.66 L 328.2 594.66 Q 329.1 596.94 330.66 598.65 L 330.66 598.65 L 330.66 598.65 Q 332.22 600.36 334.35 601.38 L 334.35 601.38 L 334.35 601.38 Q 336.48 602.4 338.94 602.4 Z  M 375.84 606 L 375.84 606 L 375.84 606 Q 372.42 606 369.6 604.71 L 369.6 604.71 L 369.6 604.71 Q 366.78 603.42 364.71 601.2 L 364.71 601.2 L 364.71 601.2 Q 362.64 598.98 361.5 596.04 L 361.5 596.04 L 361.5 596.04 Q 360.36 593.1 360.36 589.86 L 360.36 589.86 L 360.36 589.86 Q 360.36 586.56 361.53 583.62 L 361.53 583.62 L 361.53 583.62 Q 362.7 580.68 364.77 578.46 L 364.77 578.46 L 364.77 578.46 Q 366.84 576.24 369.66 574.92 L 369.66 574.92 L 369.66 574.92 Q 372.48 573.6 375.84 573.6 L 375.84 573.6 L 375.84 573.6 Q 379.2 573.6 382.05 574.92 L 382.05 574.92 L 382.05 574.92 Q 384.9 576.24 386.97 578.46 L 386.97 578.46 L 386.97 578.46 Q 389.04 580.68 390.21 583.62 L 390.21 583.62 L 390.21 583.62 Q 391.38 586.56 391.38 589.86 L 391.38 589.86 L 391.38 589.86 Q 391.38 593.1 390.24 596.04 L 390.24 596.04 L 390.24 596.04 Q 389.1 598.98 387.03 601.2 L 387.03 601.2 L 387.03 601.2 Q 384.96 603.42 382.11 604.71 L 382.11 604.71 L 382.11 604.71 Q 379.26 606 375.84 606 Z  M 364.5 589.92 L 364.5 589.92 L 364.5 589.92 Q 364.5 592.56 365.4 594.81 L 365.4 594.81 L 365.4 594.81 Q 366.3 597.06 367.83 598.77 L 367.83 598.77 L 367.83 598.77 Q 369.36 600.48 371.43 601.44 L 371.43 601.44 L 371.43 601.44 Q 373.5 602.4 375.84 602.4 L 375.84 602.4 L 375.84 602.4 Q 378.18 602.4 380.25 601.41 L 380.25 601.41 L 380.25 601.41 Q 382.32 600.42 383.88 598.71 L 383.88 598.71 L 383.88 598.71 Q 385.44 597 386.34 594.72 L 386.34 594.72 L 386.34 594.72 Q 387.24 592.44 387.24 589.8 L 387.24 589.8 L 387.24 589.8 Q 387.24 587.22 386.34 584.91 L 386.34 584.91 L 386.34 584.91 Q 385.44 582.6 383.88 580.89 L 383.88 580.89 L 383.88 580.89 Q 382.32 579.18 380.25 578.19 L 380.25 578.19 L 380.25 578.19 Q 378.18 577.2 375.84 577.2 L 375.84 577.2 L 375.84 577.2 Q 373.5 577.2 371.46 578.19 L 371.46 578.19 L 371.46 578.19 Q 369.42 579.18 367.86 580.92 L 367.86 580.92 L 367.86 580.92 Q 366.3 582.66 365.4 584.97 L 365.4 584.97 L 365.4 584.97 Q 364.5 587.28 364.5 589.92 Z  M 424.5 587.1 L 424.5 605.4 L 420.42 605.4 L 420.42 587.94 L 420.42 587.94 Q 420.42 582.36 418.77 579.84 L 418.77 579.84 L 418.77 579.84 Q 417.12 577.32 413.7 577.32 L 413.7 577.32 L 413.7 577.32 Q 411.9 577.32 410.1 577.98 L 410.1 577.98 L 410.1 577.98 Q 408.3 578.64 406.77 579.84 L 406.77 579.84 L 406.77 579.84 Q 405.24 581.04 404.04 582.69 L 404.04 582.69 L 404.04 582.69 Q 402.84 584.34 402.3 586.26 L 402.3 586.26 L 402.3 605.4 L 398.22 605.4 L 398.22 574.14 L 401.94 574.14 L 401.94 581.22 L 401.94 581.22 Q 403.86 577.8 407.43 575.7 L 407.43 575.7 L 407.43 575.7 Q 411 573.6 415.2 573.6 L 415.2 573.6 L 415.2 573.6 Q 417.78 573.6 419.58 574.56 L 419.58 574.56 L 419.58 574.56 Q 421.38 575.52 422.46 577.26 L 422.46 577.26 L 422.46 577.26 Q 423.54 579 424.02 581.52 L 424.02 581.52 L 424.02 581.52 Q 424.5 584.04 424.5 587.1 L 424.5 587.1 Z  M 436.38 574.14 L 432.84 574.14 L 432.84 562.44 L 436.38 562.44 L 436.38 574.14 Z  M 458.94 600.6 L 460.02 603.9 L 460.02 603.9 Q 459.66 604.08 458.97 604.38 L 458.97 604.38 L 458.97 604.38 Q 458.28 604.68 457.38 604.98 L 457.38 604.98 L 457.38 604.98 Q 456.48 605.28 455.34 605.52 L 455.34 605.52 L 455.34 605.52 Q 454.2 605.76 452.94 605.76 L 452.94 605.76 L 452.94 605.76 Q 451.62 605.76 450.42 605.4 L 450.42 605.4 L 450.42 605.4 Q 449.22 605.04 448.32 604.29 L 448.32 604.29 L 448.32 604.29 Q 447.42 603.54 446.88 602.4 L 446.88 602.4 L 446.88 602.4 Q 446.34 601.26 446.34 599.76 L 446.34 599.76 L 446.34 577.38 L 442.02 577.38 L 442.02 574.14 L 446.34 574.14 L 446.34 563.58 L 450.42 563.58 L 450.42 574.14 L 457.62 574.14 L 457.62 577.38 L 450.42 577.38 L 450.42 598.62 L 450.42 598.62 Q 450.54 600.36 451.65 601.17 L 451.65 601.17 L 451.65 601.17 Q 452.76 601.98 454.2 601.98 L 454.2 601.98 L 454.2 601.98 Q 455.94 601.98 457.26 601.41 L 457.26 601.41 L 457.26 601.41 Q 458.58 600.84 458.94 600.6 L 458.94 600.6 Z  M 195.96 562.8 L 200.58 562.8 L 214.5 585.72 L 228.54 562.8 L 233.1 562.8 L 216.6 589.56 L 216.6 605.4 L 212.4 605.4 L 212.4 589.44 L 195.96 562.8 Z  M 251.88 606 L 251.88 606 L 251.88 606 Q 248.46 606 245.64 604.71 L 245.64 604.71 L 245.64 604.71 Q 242.82 603.42 240.75 601.2 L 240.75 601.2 L 240.75 601.2 Q 238.68 598.98 237.54 596.04 L 237.54 596.04 L 237.54 596.04 Q 236.4 593.1 236.4 589.86 L 236.4 589.86 L 236.4 589.86 Q 236.4 586.56 237.57 583.62 L 237.57 583.62 L 237.57 583.62 Q 238.74 580.68 240.81 578.46 L 240.81 578.46 L 240.81 578.46 Q 242.88 576.24 245.7 574.92 L 245.7 574.92 L 245.7 574.92 Q 248.52 573.6 251.88 573.6 L 251.88 573.6 L 251.88 573.6 Q 255.24 573.6 258.09 574.92 L 258.09 574.92 L 258.09 574.92 Q 260.94 576.24 263.01 578.46 L 263.01 578.46 L 263.01 578.46 Q 265.08 580.68 266.25 583.62 L 266.25 583.62 L 266.25 583.62 Q 267.42 586.56 267.42 589.86 L 267.42 589.86 L 267.42 589.86 Q 267.42 593.1 266.28 596.04 L 266.28 596.04 L 266.28 596.04 Q 265.14 598.98 263.07 601.2 L 263.07 601.2 L 263.07 601.2 Q 261 603.42 258.15 604.71 L 258.15 604.71 L 258.15 604.71 Q 255.3 606 251.88 606 Z  M 240.54 589.92 L 240.54 589.92 L 240.54 589.92 Q 240.54 592.56 241.44 594.81 L 241.44 594.81 L 241.44 594.81 Q 242.34 597.06 243.87 598.77 L 243.87 598.77 L 243.87 598.77 Q 245.4 600.48 247.47 601.44 L 247.47 601.44 L 247.47 601.44 Q 249.54 602.4 251.88 602.4 L 251.88 602.4 L 251.88 602.4 Q 254.22 602.4 256.29 601.41 L 256.29 601.41 L 256.29 601.41 Q 258.36 600.42 259.92 598.71 L 259.92 598.71 L 259.92 598.71 Q 261.48 597 262.38 594.72 L 262.38 594.72 L 262.38 594.72 Q 263.28 592.44 263.28 589.8 L 263.28 589.8 L 263.28 589.8 Q 263.28 587.22 262.38 584.91 L 262.38 584.91 L 262.38 584.91 Q 261.48 582.6 259.92 580.89 L 259.92 580.89 L 259.92 580.89 Q 258.36 579.18 256.29 578.19 L 256.29 578.19 L 256.29 578.19 Q 254.22 577.2 251.88 577.2 L 251.88 577.2 L 251.88 577.2 Q 249.54 577.2 247.5 578.19 L 247.5 578.19 L 247.5 578.19 Q 245.46 579.18 243.9 580.92 L 243.9 580.92 L 243.9 580.92 Q 242.34 582.66 241.44 584.97 L 241.44 584.97 L 241.44 584.97 Q 240.54 587.28 240.54 589.92 Z  M 284.04 606 L 284.04 606 L 284.04 606 Q 278.94 606 276.45 602.61 L 276.45 602.61 L 276.45 602.61 Q 273.96 599.22 273.96 592.5 L 273.96 592.5 L 273.96 574.14 L 278.04 574.14 L 278.04 591.78 L 278.04 591.78 Q 278.04 602.4 285.3 602.4 L 285.3 602.4 L 285.3 602.4 Q 287.1 602.4 288.84 601.8 L 288.84 601.8 L 288.84 601.8 Q 290.58 601.2 292.05 600.06 L 292.05 600.06 L 292.05 600.06 Q 293.52 598.92 294.69 597.36 L 294.69 597.36 L 294.69 597.36 Q 295.86 595.8 296.58 593.82 L 296.58 593.82 L 296.58 574.14 L 300.66 574.14 L 300.66 600.12 L 300.66 600.12 Q 300.66 601.8 302.1 601.8 L 302.1 601.8 L 302.1 605.4 L 302.1 605.4 Q 301.38 605.52 300.93 605.52 L 300.93 605.52 L 300.93 605.52 Q 300.48 605.52 300.3 605.52 L 300.3 605.52 L 300.3 605.52 Q 298.86 605.46 297.96 604.5 L 297.96 604.5 L 297.96 604.5 Q 297.06 603.54 297.06 601.92 L 297.06 601.92 L 297.06 598.32 L 297.06 598.32 Q 295.02 601.98 291.51 603.99 L 291.51 603.99 L 291.51 603.99 Q 288 606 284.04 606 Z " fill-rule="evenodd" fill="rgb(255,255,255)"/><path d=" M 277.355 408.514 C 277.355 408.514 277.355 308.078 277.355 308.078 C 277.364 302.374 277.62 296.585 282.291 292.501 C 289.606 286.105 305.562 287.887 305.78 305.236 C 305.78 305.236 305.78 356.401 305.78 356.401 C 316.212 351.91 324.342 348.158 336.1 347.883 C 344.296 347.703 354.207 349.532 361.683 352.905 C 403.553 371.789 409.608 425.664 376.843 453.71 C 370.542 459.101 364.762 462.152 356.946 464.73 C 350.948 466.71 342.401 468.415 336.1 468.169 C 328.577 467.875 321.395 465.829 314.308 463.469 C 307.495 477.729 286.821 473.399 285.257 457.784 C 284.727 452.469 287.446 448.442 290.62 444.519 C 281.988 436.513 277.497 420.074 277.355 408.514 Z  M 607.087 348.897 C 618.988 350.991 629.486 355.747 638.355 364.066 C 650.521 375.474 657.675 392.766 657.296 409.461 C 657.125 416.634 654.614 426.573 651.743 433.149 C 630.936 480.78 559.589 478.961 541.16 430.307 C 538.621 423.579 537.057 417.657 536.972 410.409 C 536.972 410.409 536.972 305.236 536.972 305.236 C 537.19 287.659 553.136 286.153 560.347 292.643 C 565.217 297.021 565.388 302.981 565.397 309.026 C 565.397 309.026 565.397 356.401 565.397 356.401 C 581.078 349.645 589.464 345.808 607.087 348.897 Z  M 726.473 347.873 C 734.783 347.873 744.447 350.119 752.056 353.435 C 758.565 356.287 767.046 362.427 771.669 367.771 C 792.401 391.715 792.136 428.63 769.026 450.991 C 758.054 461.612 746.854 465.544 732.158 467.657 C 724.275 468.785 715.075 467.364 707.523 464.872 C 684.811 457.396 667.065 435.679 666.78 411.356 C 666.78 411.356 666.78 341.241 666.78 341.241 C 666.78 341.241 666.78 304.288 666.78 304.288 C 666.904 295.164 672.229 288.398 681.94 289.232 C 693.595 290.227 695.187 301.559 695.206 310.921 C 695.206 310.921 695.206 356.401 695.206 356.401 C 705.249 351.247 715.046 347.873 726.473 347.873 Z  M 824.067 305.236 C 824.067 305.236 824.067 431.254 824.067 431.254 C 824.067 436.276 824.55 455.245 823.451 458.732 C 821.489 464.976 815.312 468.662 808.906 468.017 C 798.958 467.022 796.598 459.727 796.589 451.152 C 796.589 451.152 796.589 329.871 796.589 329.871 C 796.589 329.871 796.589 306.183 796.589 306.183 C 796.598 303.056 796.418 299.579 797.83 296.708 C 799.659 293.013 802.425 291.269 806.064 289.744 C 817.709 287.337 824.01 293.847 824.067 305.236 Z  M 435.589 366.824 C 435.589 366.824 435.589 398.091 435.589 398.091 C 435.589 410.286 434.49 418.434 443.339 428.412 C 463.379 451 498.721 437.1 499.072 407.566 C 499.072 407.566 499.072 366.824 499.072 366.824 C 499.081 361.811 498.977 357.765 502.312 353.596 C 508.31 346.102 519.917 346.196 525.1 354.591 C 527.582 358.618 527.487 362.313 527.497 366.824 C 527.497 366.824 527.497 394.301 527.497 394.301 C 527.497 394.301 527.497 407.566 527.497 407.566 C 527.468 426.744 518.723 445.467 502.862 456.638 C 497.442 460.456 493.027 462.664 486.754 464.73 C 480.756 466.71 472.21 468.415 465.909 468.169 C 439.966 467.165 417.273 450.669 409.741 425.569 C 406.301 414.095 407.163 403.265 407.163 391.459 C 407.163 391.459 407.163 364.929 407.163 364.929 C 407.182 360.589 407.343 357.367 409.978 353.653 C 412.289 350.384 414.876 349.465 418.534 348.376 C 431.23 346.585 435.57 355.889 435.589 366.824 Z  M 899.867 376.744 C 880.528 373.096 860.896 389.564 862.052 409.461 C 863.104 427.54 880.832 442.605 898.92 439.346 C 908.433 437.631 915.473 429.179 925.44 434.021 C 928.529 435.518 930.519 437.555 931.864 440.729 C 936.735 452.213 927.25 459.243 917.87 463.043 C 900.218 470.197 880.576 469.884 863.862 460.191 C 856.196 455.738 850.493 450.782 845.319 443.572 C 827.231 418.387 830.547 382.789 854.387 362.37 C 864.146 354.013 876.719 349.266 889.445 348.035 C 896.693 347.333 905.258 348.537 912.185 350.744 C 931.609 356.913 947.034 372.556 952.075 392.406 C 954.548 402.099 956.755 417.288 944.4 421.163 C 942.116 421.883 939.217 421.779 936.82 421.779 C 936.82 421.779 889.445 421.779 889.445 421.779 C 881.021 421.77 873.223 419.372 872.484 409.461 C 871.991 402.876 875.213 396.746 881.864 394.841 C 884.631 394.046 892.77 394.301 896.077 394.301 C 896.077 394.301 922.607 394.301 922.607 394.301 C 917.349 385.887 909.958 378.649 899.867 376.744 Z  M 308.452 394.301 C 305.79 399.759 306.254 403.208 304.823 405.416 C 303.193 407.926 300.209 408.287 297.357 410.778 C 292.164 415.289 291.189 422.717 295.073 428.393 C 298.39 433.253 302.075 434.352 307.675 434.059 C 312.043 433.822 313.493 432.382 316.203 433.064 C 319.671 433.926 324.323 439.497 336.1 439.772 C 365.047 440.435 380.434 406.714 360.565 385.859 C 357.448 382.59 352.615 379.776 348.418 378.127 C 343.112 376.043 337.891 376.024 332.31 376.583 C 321.424 378.639 313.398 384.144 308.452 394.301 Z  M 577.715 382.486 C 551.507 402.677 569.358 444.68 602.35 439.365 C 628.994 435.073 637.948 402.014 618.42 384.049 C 610.66 376.915 601.09 375.493 590.98 376.602 C 585.967 377.729 581.836 379.312 577.715 382.486 Z  M 708.471 381.605 C 697.612 388.986 695.063 398.053 695.206 410.409 C 695.433 429.009 713.341 442.075 731.211 439.497 C 756.803 435.812 767.823 404.601 749.99 385.859 C 741.974 377.436 731.884 375.474 720.788 376.583 C 716.108 377.502 712.45 378.895 708.471 381.605 Z  M 362.337 395.249 C 363.976 398.262 367.425 406.344 362.337 408.277 C 357.95 410.068 356.889 402.564 352.843 398.262 C 346.39 391.402 340.051 393.373 336.318 390.653 C 332.073 387.546 333.173 383.31 337.152 380.79 C 347.073 378.374 357.4 387.233 362.337 395.249 Z  M 290.004 473.892 C 292.828 477.919 293.406 481.434 293.463 486.21 C 293.586 498.129 287.541 507.424 275.46 510.2 C 250.739 515.876 236.176 485.442 253.705 469.334 C 257.088 466.227 259.779 465.146 264.09 463.962 C 275.005 462.228 283.372 464.407 290.004 473.892 Z  M 321.888 472.101 C 336.224 473.494 332.405 494.548 319.045 492.482 C 309.949 491.07 306.207 478.222 316.222 472.698 C 318.382 472.167 319.604 471.883 321.888 472.101 Z " fill="rgb(255,255,255)"/></g></svg>