<?xml version="1.0" encoding="UTF-8" standalone="no"?><!-- Generator: Gravit.io --><svg xmlns="http://www.w3.org/2000/svg" xmlns:xlink="http://www.w3.org/1999/xlink" style="isolation:isolate" viewBox="0 0 1200 1200" width="1200pt" height="1200pt"><defs><clipPath id="_clipPath_BKdKU0W6on6Gof4oVpjsWXQQHWFMlZwX"><rect width="1200" height="1200"/></clipPath></defs><g clip-path="url(#_clipPath_BKdKU0W6on6Gof4oVpjsWXQQHWFMlZwX)"><rect width="1200" height="1200" style="fill:rgb(255,172,90)"/><g><rect x="0" y="0" width="1200" height="1200" transform="matrix(1,0,0,1,0,0)" fill="rgb(255,172,90)"/><g><path d=" M 50.308 1200 C 47.335 1188.988 49.839 1177.355 54.178 1165.521 C 59.456 1143.069 72.423 1120.55 100.65 1102.626 L 135.832 1086.121 L 188.156 1066.82 L 249.646 1047.787 L 330.387 1029.199 L 399.84 1066.223 L 452.251 1085.802 C 490.212 1097.183 524.497 1105.692 555.108 1111.336 L 619.477 1114.385 L 658.091 1111.832 L 705.544 1099.888 C 743.225 1087.978 772.935 1077.109 794.674 1067.273 L 865.453 1024.882 L 883.352 1027.939 C 957.855 1044.301 1005.244 1056.136 1025.512 1063.435 L 1084.223 1087.02 L 1109.346 1103.752 L 1118.602 1112.336 C 1126.329 1117.417 1132.427 1125.741 1135.552 1135.686 L 1141.137 1146.614 C 1148.982 1164.79 1153.039 1181.941 1153.308 1198.068 L 1153.308 1198.068 L 1153.308 1198.068 L 1153.325 1198.068 L 1154.064 1198.06 C 1155.525 1198.051 1156.13 1198.833 1156.382 1200 L 50.308 1200 Z " fill-rule="evenodd" fill="rgb(174,206,181)"/><path d=" M 403.523 994.846 L 342.468 1001.725 L 330.218 1027.914 L 368.255 1050.559 L 452.892 1087.835 L 539.886 1108.514 L 625.756 1114.923 L 718.96 1096.024 L 788.567 1068.222 L 840.675 1041.613 L 873.315 1017.818 L 872.022 1004.211 L 858.961 992.645 L 845.782 989.042 L 791.635 991.091 C 805.681 1001.036 816.037 1009.116 822.702 1015.34 L 724.674 1062.746 L 632.052 1085.13 L 539.16 1081.813 L 443.832 1055.296 L 373.255 1021.337 L 403.523 994.846 Z " fill="rgb(255,255,255)"/><path d=" M 463.679 867.167 L 457.502 975.115 C 421.814 986.354 394.055 1001.338 374.225 1020.069 C 392.102 1033.953 427.621 1050.685 480.782 1070.272 L 600.759 1087.239 C 643.362 1086.054 676.684 1080.805 700.723 1071.49 C 726.858 1062.166 754.096 1051.113 782.437 1038.354 C 795.056 1032.449 807.748 1024.369 820.514 1014.114 C 798.766 997.827 772.436 984.019 741.528 972.705 C 735.937 930.582 733.056 893.238 732.885 860.666 L 697.504 886.889 L 663.958 907.249 L 635.97 921.46 L 600.454 927.819 L 562.041 919.655 C 543.785 910.961 510.997 893.465 463.679 867.167 Z " fill="rgb(242,211,196)"/><path d=" M 43.164 1200 L 43.187 1199.74 C 46.806 1174.768 50.379 1158.835 53.907 1151.939 C 62.045 1136.081 67.928 1126.186 71.555 1122.239 C 82.927 1110.74 91.671 1103.021 97.785 1099.082 C 110.547 1088.44 142.054 1075.11 192.307 1059.092 C 224.522 1049.635 264.05 1039.723 310.888 1029.35 L 328.796 1025.436 L 332.174 1033.214 L 332.174 1033.214 L 332.209 1033.298 L 331.705 1033.424 L 331.582 1033.348 C 262.277 1048.307 212.454 1060.797 182.114 1070.818 C 154.553 1079.242 126.452 1091.867 97.813 1108.665 C 88.786 1113.503 76.891 1128.244 62.128 1152.88 C 58.418 1161.128 54.942 1176.835 51.698 1200 L 43.164 1200 Z  M 1149.906 1200 C 1145.849 1166.881 1138.584 1143.153 1128.11 1128.824 C 1124.683 1121.088 1113.949 1110.841 1095.881 1098.074 C 1068.668 1076.798 992.527 1053.708 867.461 1028.813 L 867.461 1028.821 L 867.419 1028.804 L 867.142 1028.754 L 873.231 1022.941 L 873.802 1022.404 L 874.718 1021.514 C 892.575 1024.117 936.075 1034.381 1005.227 1052.289 C 1039.329 1061.629 1071.095 1074.514 1100.535 1090.943 C 1114.427 1098.133 1128.303 1113.092 1142.162 1135.82 C 1149.906 1150.696 1155.021 1172.089 1157.508 1200 L 1149.906 1200 Z " fill="rgb(0,0,0)"/><g><path d=" M 409.924 991.083 L 408.961 991.536 C 404.284 993.77 401.258 995.257 399.881 995.996 C 398.808 996.609 397.423 997.491 395.728 998.634 C 390.643 1002.077 382.761 1007.923 372.084 1016.163 L 358.303 1019.137 C 363.613 1021.455 367.377 1023.479 369.597 1025.226 L 375.598 1023.916 C 381.544 1018.784 390.804 1012.115 403.377 1003.908 C 406.217 1002.111 409.113 1000.339 412.064 998.6 L 424.862 992.931 C 423.87 992.645 422.232 992.309 419.946 991.939 C 416.438 991.519 413.097 991.234 409.924 991.083 Z " fill="rgb(0,0,0)"/><path d=" M 334.258 1024.327 L 325.238 1026.268 L 325.422 1028.015 L 332.125 1033.365 L 342.687 1031.072 C 341.248 1030.215 340.487 1029.753 340.407 1029.669 C 339.145 1028.72 338.447 1028.099 338.313 1027.813 C 337.937 1027.603 337.617 1027.401 337.351 1027.208 C 336.5 1026.57 335.763 1025.965 335.138 1025.394 C 334.99 1025.327 334.844 1025.234 334.699 1025.125 C 334.466 1024.924 334.319 1024.655 334.258 1024.327 Z " fill="rgb(0,0,0)"/><path d=" M 301.713 1039.791 L 301.74 1039.849 L 301.834 1040.051 C 301.855 1040.043 301.865 1040.043 301.867 1040.043 L 301.717 1039.791 L 301.713 1039.791 Z " fill="rgb(0,0,0)"/><path d=" M 781.088 984.069 L 780.638 984.136 C 779.481 984.313 778.686 984.414 778.25 984.439 L 766.549 986.446 C 773.162 988.874 777.673 990.612 780.08 991.645 C 780.307 991.587 782.362 992.712 786.245 995.039 C 797.386 1001.557 809.714 1009.755 823.232 1019.632 C 824.323 1019.397 827.718 1017.347 833.417 1013.475 L 825.929 1011.955 C 814.429 1003.018 805.332 996.626 798.636 992.771 C 796.135 991.234 793.305 989.596 790.146 987.857 C 788.702 987.152 785.683 985.883 781.088 984.069 Z " fill="rgb(0,0,0)"/><path d=" M 865.831 1020.077 L 865.697 1020.195 C 864.79 1020.959 864.009 1021.53 863.354 1021.917 C 862.589 1022.379 861.422 1022.967 859.843 1023.681 L 856.206 1025.932 C 855.719 1026.251 855.433 1026.452 855.366 1026.536 L 866.512 1028.829 C 868.864 1027.066 871.61 1025.277 874.743 1023.471 L 876.364 1022.219 L 865.831 1020.077 Z " fill="rgb(0,0,0)"/><path d=" M 329.094 1022.572 L 329.015 1022.572 C 325.155 1023.613 324.574 1026.15 327.271 1030.182 L 373.552 1057.74 C 404.741 1072.817 432.783 1084.484 457.678 1092.757 C 515.784 1111.026 570.07 1119.719 620.535 1118.845 L 652.492 1115.469 L 690.57 1107.733 C 719.609 1099.317 741.864 1092.018 757.338 1085.819 C 778.947 1077.227 809.221 1062.192 848.159 1040.706 C 859.851 1033.55 869.418 1027.259 876.851 1021.824 L 874.802 1018.876 L 876.952 1021.74 L 878.095 1020.816 C 878.976 1017.121 878.598 1015.189 876.969 1015.038 C 875.256 1014.517 873.87 1014.567 872.82 1015.172 C 867.226 1019.951 847.277 1031.727 812.973 1050.483 C 770.474 1070.994 748.069 1081.325 745.758 1081.485 C 714.549 1092.337 693.059 1098.939 681.289 1101.282 L 650.883 1107.221 C 631.07 1109.53 617.807 1110.807 611.094 1111.034 C 562.921 1110.757 506.839 1100.35 442.85 1079.839 C 422.978 1073.371 385.059 1054.279 329.094 1022.572 Z " fill="rgb(0,0,0)"/><path d=" M 340.493 998.34 L 337.607 1000.196 C 334.186 1002.833 332.836 1004.211 333.557 1004.328 L 359.829 1020.102 C 380.984 1032.76 409.215 1046.107 444.522 1060.159 C 468.833 1068.911 492.604 1075.782 515.836 1080.771 C 527.451 1083.274 538.932 1085.298 550.278 1086.861 C 578.407 1089.926 595.122 1091.211 600.424 1090.699 L 617.48 1090.439 L 649.105 1087.071 C 675.782 1082.065 694.789 1077.621 706.128 1073.749 C 762.102 1053.524 806.408 1032.433 839.043 1010.477 C 852.392 1001.489 860.279 995.954 862.715 993.854 C 864.454 989.999 863.026 987.757 858.432 987.127 C 812.219 1018.927 765.712 1043.318 718.906 1060.302 L 692.276 1068.827 L 666.07 1075.303 L 640.29 1079.746 C 622.731 1081.687 610.33 1082.652 603.089 1082.661 L 571.706 1080.763 L 541.859 1077.042 C 522.051 1073.934 502.422 1069.566 482.974 1063.956 C 463.526 1058.336 444.258 1051.474 425.171 1043.344 L 396.675 1030.224 C 377.767 1020.85 359.04 1010.216 340.493 998.34 Z " fill="rgb(0,0,0)"/><path d=" M 776.386 984.75 L 772.092 985.455 C 770.473 986.152 769.661 986.891 769.655 987.664 L 782.122 992.989 C 798.216 991.914 815.322 991.612 833.441 992.065 C 843.338 992.67 851.233 994.056 857.113 996.223 C 860.523 997.743 864.034 1001.061 867.629 1006.168 C 868.276 1007.579 869.493 1012.795 871.308 1021.824 C 872.223 1023.177 873.038 1023.916 873.744 1024.042 L 874.743 1023.471 C 876.356 1022.236 877.876 1021.01 879.312 1019.8 C 878.17 1012.174 876.784 1006.395 875.163 1002.464 C 873.752 997.819 868.099 992.905 858.196 987.706 C 853.854 986.539 849.604 985.606 845.429 984.918 C 838.181 983.876 833.093 983.389 830.165 983.456 C 813.828 983.322 795.902 983.75 776.386 984.75 Z " fill="rgb(0,0,0)"/><path d=" M 376.893 990.066 L 376.721 990.083 C 364.381 990.898 355.934 991.906 351.379 993.107 C 349.209 993.762 347.115 994.493 345.097 995.308 L 337.607 1000.196 L 333.811 1003.405 C 329.131 1011.115 326.473 1017.196 325.839 1021.656 C 325.432 1025.856 325.284 1028.04 325.395 1028.216 L 328.905 1031.022 L 330.795 1031.122 C 331.626 1030.677 332.527 1029.804 333.497 1028.502 C 335.077 1020.102 336.6 1014.315 338.068 1011.124 C 339.709 1008.343 343.059 1005.639 348.118 1003.01 C 350.402 1002.086 353.289 1001.263 356.777 1000.54 C 361.804 999.726 367.06 999.163 372.544 998.844 C 379.618 998.415 392.453 998.541 411.05 999.205 C 411.101 998.945 412.985 998.155 416.702 996.836 L 419.352 995.341 L 422.063 994.442 L 424.868 992.931 C 424.23 992.687 422.23 992.309 418.869 991.805 C 415.923 991.461 412.384 991.192 408.254 990.999 L 406.516 990.73 C 391.611 990.176 381.737 989.957 376.893 990.066 Z " fill="rgb(0,0,0)"/></g><g><path d=" M 460.755 857.004 L 460.267 857.079 C 458.999 857.39 458.019 858.675 457.325 860.935 C 458.986 882.714 459.564 900.067 459.061 913.011 C 458.65 925.484 456.809 945.508 453.539 973.083 C 423.667 984.145 404.549 992.603 396.185 998.432 C 388.601 1003.295 380.673 1009.116 372.402 1015.903 C 371.684 1018.658 371.243 1021.656 371.082 1024.89 L 376.175 1023.613 C 389.115 1013.005 400.183 1005.311 409.379 1000.54 C 418.662 995.601 435.178 988.773 458.927 980.038 C 459.949 979.55 460.644 978.971 461.015 978.307 C 465.55 943.441 467.787 919.083 467.728 905.25 C 467.777 894.238 467.076 879.22 465.622 860.195 C 465.44 858.423 463.817 857.356 460.755 857.004 Z " fill="rgb(0,0,0)"/><path d=" M 734.333 853.921 L 733.816 853.988 C 731.59 854.887 730.464 855.979 730.436 857.272 C 729.17 875.222 728.727 891.508 729.109 906.14 C 729.525 921.15 731.998 944.181 736.53 975.208 C 736.909 975.871 737.612 976.434 738.64 976.913 C 762.514 985.363 779.063 991.965 788.285 996.719 C 794.575 1000.171 798.868 1002.665 801.165 1004.211 L 823.503 1020.002 L 823.353 1009.948 C 815.247 1003.682 808.35 998.693 802.663 994.972 C 793.269 988.882 773.695 980.525 743.942 969.891 C 740.327 942.358 738.238 922.359 737.671 909.886 C 737.006 896.959 737.368 879.59 738.757 857.793 C 738.296 855.315 736.821 854.03 734.333 853.921 Z " fill="rgb(0,0,0)"/><path d=" M 372.125 1017.339 L 371.533 1020.22 L 370.931 1026.394 C 416.424 1049.408 446.172 1062.46 460.174 1065.543 C 467.12 1068.08 485.15 1072.96 514.264 1080.192 C 525.582 1082.762 536.431 1084.878 546.814 1086.541 C 567.185 1089.842 586.471 1091.363 604.674 1091.085 C 608.664 1091.102 619.202 1090.288 636.288 1088.658 L 659.1 1085.206 C 672.643 1082.963 689.741 1078.654 710.397 1072.296 C 730.203 1066.097 751.965 1057.32 775.685 1045.947 C 795.053 1036.33 810.991 1027.662 823.497 1019.96 L 823.323 1010.258 C 807.768 1020.371 790.665 1029.812 772.011 1038.589 C 738.302 1053.482 712.565 1063.401 694.798 1068.348 C 662.817 1077.596 630.887 1082.367 599.007 1082.661 C 559.789 1080.553 523.506 1074.975 490.16 1065.938 C 465.137 1058.597 441.693 1050.374 419.827 1041.269 C 411.791 1038.17 395.891 1030.199 372.125 1017.339 Z " fill="rgb(0,0,0)"/></g><g><g><path d=" M 220.851 515.567 C 212.813 516.01 206.058 532.297 200.587 564.427 C 197.267 570.636 200.752 592.005 214.883 627.067 C 240.886 691.592 269.919 723.178 298.186 723.397 C 299.256 724.297 300.518 724.708 301.973 724.627 C 308.76 724.253 319.738 713.214 334.908 691.509 L 280.313 578.385 L 258.43 533.042 C 250.099 526.797 238.95 520.382 225.497 516.891 L 225.373 516.903 C 223.823 515.932 222.316 515.486 220.851 515.567 Z  M 960.744 497.445 C 960.03 497.484 959.291 497.576 958.544 497.718 L 957.67 497.789 C 923.199 508.401 907.828 530.253 892.037 577.257 L 859.12 684.975 C 858.138 693.463 869.384 703.202 894.322 707.337 C 895.683 707.562 897.06 707.635 898.455 707.558 C 918.537 706.452 942.618 674.3 970.093 616.8 C 977.324 575.775 981.877 555.21 983.75 555.107 C 983.935 555.097 984.094 555.286 984.229 555.675 C 982.784 516.072 974.956 496.662 960.744 497.445 Z " fill="rgb(252,235,224)"/><g><path d=" M 239.116 550.605 L 239.29 555.808 C 239.331 555.808 239.374 555.807 239.422 555.803 L 239.414 555.803 C 240.445 555.722 241.215 554.819 241.133 553.788 L 241.521 558.681 C 241.577 559.399 241.335 560.109 240.849 560.641 C 240.365 561.173 239.68 561.481 238.96 561.491 L 238.958 561.491 L 241.527 558.832 C 241.534 559.149 241.533 559.474 241.51 559.76 C 241.498 559.902 241.47 560.224 241.359 560.571 C 241.016 561.638 240.03 562.365 238.91 562.378 L 238.905 562.378 L 241.194 560.959 C 241.235 560.879 241.27 560.796 241.3 560.706 C 240.945 561.757 239.963 562.467 238.854 562.476 L 238.846 562.476 L 240.714 561.665 C 240.192 562.215 239.544 562.436 239.359 562.501 L 239.36 562.501 C 239.271 562.532 239.165 562.566 239.078 562.592 C 238.847 562.661 238.607 562.696 238.365 562.698 L 238.346 562.699 L 238.524 562.691 C 236.419 562.857 235.424 563.036 235.162 563.128 L 235.161 563.128 C 235.157 563.13 235.18 563.122 235.21 563.108 C 234.886 563.252 234.537 563.328 234.183 563.333 L 234.168 563.333 L 234.958 563.201 C 234.779 563.26 234.723 563.309 234.725 563.307 L 234.725 563.307 C 234.731 563.302 234.747 563.286 234.76 563.263 C 234.325 564.041 233.521 564.544 232.63 564.593 L 234.735 563.306 C 234.237 564.16 233.989 564.961 233.929 565.726 C 233.825 567.025 232.777 568.047 231.476 568.119 L 233.919 565.825 C 233.881 566.141 233.873 566.403 233.883 566.618 L 233.881 566.578 L 233.882 566.598 L 233.88 566.566 L 234.164 570.347 C 234.218 571.065 233.972 571.773 233.484 572.304 C 232.997 572.834 232.311 573.139 231.591 573.145 L 231.583 573.146 L 234.157 570.722 L 234.157 570.723 L 234.155 570.748 C 234.147 570.848 234.137 570.948 234.124 571.052 C 234.106 571.19 234.052 571.634 233.837 572.086 C 233.411 572.988 232.505 573.566 231.507 573.575 L 231.496 573.576 L 233.506 572.6 C 234.067 571.899 234.061 570.88 233.446 570.186 C 233.071 569.762 232.542 569.55 232.024 569.556 C 231.591 569.561 231.152 569.718 230.803 570.027 L 230.802 570.027 C 230.62 570.189 230.511 570.36 230.452 570.484 C 231.014 569.298 232.368 568.714 233.616 569.121 C 234.862 569.53 235.611 570.8 235.364 572.088 L 235.364 572.089 L 230.453 570.483 C 230.41 570.575 230.397 570.629 230.399 570.624 C 230.4 570.615 230.417 570.538 230.428 570.37 L 230.423 570.55 L 230.422 570.45 L 230.429 570.627 L 230.145 566.847 C 230.093 566.149 230.323 565.459 230.785 564.934 C 231.246 564.408 231.9 564.09 232.598 564.052 L 232.599 564.052 L 230.141 566.761 C 230.121 566.296 230.146 565.824 230.203 565.352 L 230.199 565.392 L 230.202 565.363 L 230.195 565.428 C 230.31 564.007 230.773 562.661 231.509 561.403 L 231.494 561.429 L 231.502 561.417 L 231.49 561.437 C 232.035 560.462 232.915 559.962 233.612 559.704 L 233.611 559.705 C 233.711 559.668 233.802 559.638 233.9 559.607 L 233.684 559.685 L 233.803 559.636 L 233.492 559.787 L 233.493 559.786 C 233.877 559.567 234.31 559.45 234.752 559.445 L 234.758 559.445 L 233.845 559.621 C 233.979 559.569 234.109 559.528 234.222 559.495 L 234.221 559.495 C 235.07 559.251 236.546 559.088 238.331 558.95 C 238.208 558.959 238.088 558.981 237.968 559.014 L 237.969 559.014 C 238.101 558.978 238.157 558.948 238.161 558.946 L 238.16 558.946 C 238.162 558.946 238.042 559.01 237.915 559.188 L 240.176 563.303 C 239.175 563.359 238.233 562.835 237.75 561.957 C 237.268 561.079 237.332 560.003 237.914 559.188 C 237.883 559.233 237.852 559.282 237.823 559.339 L 240.172 563.124 L 240.158 563.124 C 239.188 563.135 238.292 562.605 237.834 561.749 C 237.376 560.893 237.431 559.854 237.979 559.053 C 237.877 559.202 237.823 559.334 237.793 559.424 C 238.179 558.229 239.361 557.479 240.606 557.639 C 241.85 557.801 242.803 558.825 242.872 560.079 L 242.872 560.08 L 237.793 559.427 C 237.769 559.499 237.762 559.541 237.763 559.536 L 237.763 559.537 C 237.771 559.497 237.792 559.301 237.783 558.873 L 237.785 558.946 L 237.783 558.904 L 237.788 558.977 L 237.4 554.084 C 237.478 555.073 238.31 555.819 239.288 555.808 C 237.872 555.824 236.703 554.706 236.656 553.291 C 236.61 551.876 237.702 550.683 239.116 550.605 Z  M 239.402 555.805 L 239.231 550.602 C 240.971 550.582 242.452 551.912 242.591 553.674 L 242.591 553.673 L 242.979 558.566 L 242.983 558.638 L 242.986 558.678 L 242.988 558.752 C 243.001 559.312 242.986 559.892 242.896 560.416 L 242.896 560.417 C 242.865 560.599 242.82 560.805 242.752 561.019 C 242.367 562.214 241.185 562.966 239.94 562.805 C 238.695 562.645 237.741 561.619 237.673 560.366 L 237.673 560.365 L 242.75 561.021 C 242.648 561.337 242.499 561.669 242.28 561.989 L 240.101 557.917 L 240.115 557.917 C 241.026 557.907 241.876 558.374 242.356 559.148 C 242.836 559.922 242.877 560.891 242.464 561.702 C 242.371 561.885 242.265 562.057 242.15 562.218 L 239.889 558.103 C 240.89 558.049 241.833 558.572 242.315 559.45 C 242.797 560.328 242.732 561.405 242.149 562.219 C 241.725 562.812 241.183 563.232 240.637 563.527 L 240.636 563.527 C 240.228 563.748 239.801 563.909 239.379 564.027 L 239.38 564.027 C 239.168 564.087 238.952 564.125 238.735 564.141 L 238.734 564.141 C 236.827 564.29 235.907 564.429 235.663 564.499 L 235.662 564.499 C 235.658 564.501 235.687 564.493 235.734 564.475 C 235.443 564.587 235.133 564.648 234.821 564.651 L 234.815 564.651 L 236.074 564.309 C 235.974 564.367 235.87 564.417 235.763 564.461 L 235.643 564.509 C 235.572 564.538 235.5 564.564 235.427 564.587 C 235.415 564.59 235.418 564.589 235.415 564.59 L 235.414 564.59 C 235.377 564.604 235.757 564.477 236.037 563.976 L 236.025 563.997 L 236.018 564.01 L 236.004 564.035 C 235.609 564.708 235.43 565.306 235.387 565.843 L 235.38 565.909 L 235.378 565.938 L 235.373 565.978 C 235.343 566.222 235.338 566.407 235.343 566.541 C 235.404 567.966 234.309 569.173 232.886 569.252 L 232.885 569.252 L 235.338 566.456 L 235.622 570.237 C 235.626 570.296 235.629 570.354 235.63 570.414 L 235.631 570.514 C 235.631 570.575 235.629 570.634 235.626 570.695 C 235.601 571.073 235.553 571.471 235.457 571.86 C 235.392 572.126 235.299 572.417 235.16 572.711 C 234.599 573.896 233.244 574.479 231.997 574.072 C 230.751 573.665 230.002 572.393 230.249 571.105 L 235.16 572.71 C 234.957 573.141 234.664 573.563 234.257 573.924 C 233.633 574.477 232.854 574.755 232.081 574.763 C 231.154 574.773 230.217 574.395 229.549 573.64 C 228.454 572.406 228.442 570.59 229.441 569.343 C 229.93 568.733 230.668 568.375 231.451 568.368 L 231.462 568.368 L 229.13 569.857 C 228.963 570.212 228.946 570.489 228.959 570.389 L 228.959 570.39 C 228.959 570.389 228.961 570.37 228.964 570.337 L 228.962 570.362 L 228.962 570.361 C 229.07 568.991 230.187 567.95 231.536 567.938 L 231.544 567.938 L 228.971 570.737 L 228.687 566.956 L 228.684 566.924 L 228.684 566.903 L 228.681 566.864 C 228.656 566.322 228.681 565.769 228.747 565.213 C 228.895 563.957 229.926 562.989 231.189 562.919 L 231.19 562.919 L 228.737 565.311 C 228.867 563.683 229.39 562.134 230.237 560.681 C 230.678 559.925 231.47 559.441 232.343 559.393 L 230.213 560.724 C 230.512 560.188 230.901 559.721 231.364 559.33 L 231.364 559.329 C 231.954 558.831 232.627 558.487 233.319 558.258 C 233.574 558.173 233.84 558.128 234.108 558.126 L 234.122 558.125 L 233.096 558.349 C 233.22 558.294 233.334 558.25 233.446 558.212 L 233.445 558.212 C 234.452 557.86 236.134 557.656 238.114 557.499 C 238.173 557.495 238.233 557.493 238.292 557.492 L 238.312 557.492 L 237.599 557.598 C 237.617 557.593 237.636 557.587 237.633 557.588 L 237.635 557.587 C 237.782 557.536 237.352 557.643 236.938 558.079 C 237.425 557.566 238.099 557.274 238.806 557.268 L 238.813 557.268 L 236.367 559.038 C 236.419 558.883 236.484 558.731 236.556 558.59 C 236.996 557.729 237.877 557.182 238.844 557.171 L 238.849 557.171 L 236.401 558.978 C 236.319 559.23 236.314 559.405 236.319 559.349 C 236.321 559.322 236.326 559.199 236.32 558.941 C 236.306 558.248 236.569 557.576 237.052 557.078 C 237.534 556.579 238.195 556.292 238.889 556.283 L 238.89 556.283 L 236.329 559.093 L 235.941 554.2 C 235.796 552.364 237.166 550.757 239.003 550.612 L 238.995 550.613 C 239.077 550.606 239.154 550.603 239.228 550.602 C 240.644 550.585 241.814 551.703 241.861 553.118 C 241.908 554.533 240.816 555.727 239.402 555.805 Z  M 229.265 524.409 L 229.436 529.613 C 228.691 529.621 228.013 529.796 227.366 530.143 C 225.9 530.93 224.353 532.724 222.98 536.148 C 222.587 537.126 221.645 537.771 220.592 537.783 L 220.572 537.783 L 222.575 536.807 C 215.312 545.869 219.871 579.816 239.401 641.774 C 239.147 640.965 238.396 640.456 237.594 640.466 L 237.596 640.466 C 237.411 640.467 237.227 640.497 237.054 640.551 L 237.053 640.551 C 236.067 640.863 235.519 641.914 235.83 642.901 C 216.897 582.838 210.445 545.534 219.779 534.31 L 219.779 534.309 C 219.653 534.461 219.553 534.631 219.48 534.815 L 219.48 534.813 C 220.919 531.204 222.864 528.31 225.593 526.844 L 225.594 526.843 C 226.835 526.177 228.179 525.836 229.589 525.82 C 240.306 525.703 254.818 545.311 273.086 579.338 L 273.085 579.338 C 272.742 578.7 272.084 578.344 271.415 578.351 L 271.301 578.356 L 271.302 578.356 L 271.416 578.351 C 271.12 578.355 270.821 578.429 270.549 578.574 C 269.64 579.063 269.296 580.198 269.786 581.11 C 250.393 544.985 236.94 529.53 229.436 529.613 C 228.021 529.628 226.852 528.51 226.805 527.094 C 226.758 525.68 227.851 524.486 229.265 524.409 Z  M 229.551 529.608 L 229.379 524.405 C 240.816 524.28 255.813 544.07 274.374 578.646 C 275.245 580.27 274.636 582.291 273.014 583.162 C 272.527 583.424 271.998 583.553 271.473 583.559 L 271.588 583.555 L 271.587 583.555 L 271.474 583.559 C 270.278 583.573 269.107 582.937 268.497 581.802 L 268.497 581.801 C 249.336 546.109 236.399 530.954 229.646 531.028 C 229.065 531.034 228.548 531.168 228.057 531.432 C 226.921 532.042 225.58 533.574 224.317 536.743 L 224.318 536.741 C 224.187 537.068 224.007 537.371 223.783 537.64 L 223.783 537.64 C 216.752 546.095 221.321 579.553 240.796 641.335 C 241.351 643.092 240.375 644.964 238.618 645.518 L 238.617 645.519 C 238.302 645.618 237.977 645.669 237.651 645.672 L 237.652 645.672 C 236.224 645.688 234.888 644.779 234.435 643.341 L 234.435 643.34 C 215.412 582.99 209.053 545.351 218.511 533.55 C 218.999 532.942 219.734 532.584 220.513 532.575 L 220.534 532.575 L 218.147 534.21 C 219.731 530.259 221.898 527.167 224.902 525.555 C 226.294 524.808 227.798 524.423 229.379 524.405 C 230.795 524.39 231.963 525.508 232.011 526.923 C 232.057 528.337 230.965 529.531 229.551 529.608 Z  M 268.509 601.256 L 268.796 606.455 L 268.68 606.459 C 269.525 606.45 270.286 605.869 270.485 605.008 L 270.485 605.009 C 268.981 611.521 269.74 617.63 272.755 623.454 C 273.171 624.257 273.141 625.217 272.674 625.993 C 272.209 626.768 271.374 627.245 270.47 627.254 L 270.45 627.255 L 272.951 624.023 C 274.169 628.922 281.421 635.304 297.048 642.802 L 297.049 642.802 C 296.786 642.676 296.501 642.615 296.217 642.618 L 296.218 642.618 C 295.534 642.626 294.871 643.012 294.551 643.679 C 294.103 644.613 294.498 645.731 295.428 646.178 L 295.521 646.221 L 295.429 646.179 C 280.514 639.023 270.938 631.998 269.273 624.744 C 269.307 624.896 269.362 625.045 269.436 625.188 L 269.435 625.186 C 266.002 618.563 265.138 611.517 266.837 604.165 C 266.604 605.173 267.232 606.179 268.239 606.411 L 268.334 606.431 L 268.334 606.431 L 268.238 606.411 C 268.386 606.445 268.534 606.461 268.68 606.459 C 267.265 606.474 266.097 605.356 266.05 603.941 C 266.004 602.527 267.095 601.333 268.509 601.256 Z  M 268.796 606.455 L 268.624 601.252 C 268.884 601.249 269.149 601.277 269.412 601.337 L 269.316 601.317 L 269.317 601.317 L 269.411 601.337 C 271.206 601.752 272.325 603.543 271.911 605.337 C 270.486 611.505 271.204 617.283 274.059 622.79 L 274.058 622.788 C 274.188 623.04 274.285 623.305 274.348 623.578 C 275.365 628.007 282.287 634.097 297.682 641.484 L 297.589 641.442 L 297.59 641.442 L 297.683 641.484 C 299.341 642.281 300.044 644.272 299.245 645.934 C 298.675 647.12 297.498 647.813 296.275 647.826 L 296.276 647.826 C 295.774 647.831 295.268 647.724 294.796 647.498 C 279.536 640.175 269.789 632.89 267.897 625.28 C 267.704 624.507 267.877 623.688 268.364 623.058 C 268.851 622.428 269.6 622.056 270.396 622.047 L 270.416 622.047 L 268.131 625.848 C 264.538 618.91 263.633 611.534 265.411 603.836 L 265.411 603.837 C 265.765 602.304 267.12 601.268 268.624 601.252 L 268.509 601.256 C 270.039 601.236 271.208 602.354 271.255 603.77 C 271.301 605.184 270.209 606.378 268.796 606.455 Z  M 259.323 564.737 L 259.493 569.94 C 259.6 569.94 259.707 569.924 259.807 569.895 L 259.805 569.895 C 260.08 569.815 260.211 569.671 260.215 569.666 L 260.214 569.666 C 260.208 569.673 260.135 569.766 260.03 570.009 C 258.993 572.419 258.283 580.136 258.256 594.069 C 258.253 595.495 257.105 596.653 255.679 596.668 L 255.66 596.668 L 257.786 595.529 C 251.797 604.328 249.35 608.934 249.223 610.157 L 249.223 610.156 C 249.223 610.154 249.223 610.148 249.224 610.124 C 249.192 611.528 248.052 612.654 246.648 612.669 L 246.628 612.67 L 249.105 610.78 C 247.598 616.063 248.536 623.92 252.605 634.708 C 252.55 634.563 252.476 634.421 252.384 634.29 L 252.384 634.29 C 263.688 650.331 278.643 658.612 297.425 659.339 L 297.42 659.339 C 297.393 659.338 297.366 659.337 297.326 659.338 L 297.332 659.338 C 296.339 659.349 295.521 660.135 295.481 661.137 L 295.481 661.136 C 295.441 662.172 296.248 663.041 297.279 663.081 L 297.524 663.079 L 297.28 663.082 C 277.342 662.31 261.33 653.411 249.421 636.587 L 251.573 637.685 L 251.553 637.686 C 250.46 637.697 249.476 637.024 249.09 636 C 245.008 625.167 243.584 616.227 245.556 609.572 L 245.556 609.574 C 245.506 609.744 245.48 609.921 245.479 610.1 C 245.48 609.837 245.507 609.59 245.544 609.373 C 245.98 606.788 249.417 601.155 254.837 593.207 C 254.626 593.516 254.512 593.882 254.511 594.258 L 254.511 594.259 C 254.53 580.879 255.103 571.985 256.59 568.528 L 256.59 568.529 C 256.683 568.313 256.789 568.087 256.91 567.873 L 256.909 567.874 C 256.987 567.736 257.485 566.764 258.571 566.361 C 258.853 566.256 259.151 566.202 259.451 566.198 L 259.471 566.198 C 259.718 566.196 259.964 566.229 260.202 566.296 L 259.988 566.245 L 259.989 566.245 L 260.228 566.303 C 260.379 566.348 260.502 566.398 260.556 566.422 L 259.382 566.214 C 259.784 566.191 260.185 566.262 260.553 566.421 C 260.31 566.317 260.051 566.266 259.795 566.269 L 259.794 566.269 C 259.082 566.277 258.398 566.696 258.095 567.401 C 257.687 568.35 258.124 569.452 259.074 569.861 C 259.157 569.897 259.277 569.931 259.423 569.939 L 259.427 569.94 C 259.439 569.94 259.47 569.941 259.499 569.94 C 258.082 569.959 256.911 568.841 256.863 567.425 C 256.816 566.009 257.908 564.815 259.323 564.737 Z  M 259.609 569.937 L 259.433 564.733 C 259.526 564.732 259.61 564.734 259.688 564.738 L 259.692 564.739 C 260.205 564.765 260.688 564.886 261.133 565.078 C 262.826 565.806 263.606 567.768 262.878 569.459 C 262.339 570.714 261.124 571.462 259.851 571.477 L 259.849 571.477 C 259.395 571.482 258.935 571.393 258.498 571.205 L 259.669 571.413 C 259.267 571.435 258.865 571.364 258.495 571.204 C 258.529 571.219 258.628 571.261 258.766 571.301 L 259.005 571.359 L 259.004 571.359 L 259.522 571.406 L 259.502 571.406 L 260.383 571.244 C 261.295 570.905 261.596 570.164 261.45 570.423 C 261.446 570.43 261.42 570.48 261.374 570.587 C 260.411 572.823 259.738 580.399 259.718 594.267 C 259.718 594.936 259.515 595.589 259.139 596.14 C 253.355 604.624 250.875 609.079 250.679 610.24 C 250.678 610.246 250.687 610.199 250.687 610.112 C 250.687 610.43 250.639 610.746 250.55 611.051 L 250.55 611.052 C 249.081 616.006 249.974 623.579 253.963 634.164 L 251.5 632.479 L 251.519 632.479 C 252.374 632.469 253.178 632.88 253.672 633.577 C 264.687 649.14 279.232 657.172 297.481 657.877 C 297.563 657.881 297.156 657.884 297.237 657.88 L 297.237 657.879 L 297.484 657.877 C 299.321 657.95 300.758 659.498 300.685 661.341 L 300.685 661.34 C 300.616 663.125 299.157 664.526 297.389 664.545 L 297.395 664.545 C 297.336 664.546 297.274 664.545 297.228 664.543 L 297.223 664.543 C 276.749 663.751 260.324 654.598 248.127 637.29 L 248.126 637.289 C 247.963 637.057 247.831 636.806 247.732 636.545 L 247.732 636.546 C 243.557 625.474 242.117 616.292 244.097 609.351 C 244.414 608.242 245.422 607.474 246.574 607.462 L 246.594 607.462 L 244.017 610.007 C 244.021 609.873 244.03 609.739 244.043 609.615 C 244.342 606.746 247.895 600.806 253.48 592.599 C 253.96 591.895 254.754 591.47 255.606 591.46 L 255.625 591.46 L 253.048 594.059 C 253.074 580.577 253.688 571.572 255.247 567.951 C 255.493 567.377 255.813 566.804 256.242 566.299 L 256.241 566.299 C 256.758 565.69 257.456 565.154 258.358 564.892 L 258.357 564.892 C 258.708 564.791 259.07 564.737 259.439 564.733 C 260.854 564.718 262.021 565.836 262.068 567.252 C 262.115 568.666 261.023 569.859 259.609 569.937 Z  M 223.657 515.313 L 223.829 520.517 C 221.699 520.54 219.502 520.697 217.242 520.989 L 217.239 520.989 C 217.336 520.976 217.427 520.957 217.512 520.933 L 217.508 520.934 C 208.644 523.425 203.121 538.518 204.036 571.477 C 204.056 572.175 203.795 572.852 203.311 573.354 C 202.827 573.857 202.162 574.145 201.465 574.153 L 201.444 574.153 L 203.78 572.635 C 202.063 576.383 206.234 596.952 218.338 636.792 C 218.306 636.687 218.264 636.582 218.211 636.478 L 218.21 636.478 C 248.614 695.403 274.794 722.738 296.434 722.501 C 300.483 722.457 304.443 721.451 308.343 719.438 C 312.605 717.239 316.814 713.821 320.953 709.087 C 320.274 709.864 320.351 711.048 321.13 711.729 L 321.107 711.709 L 321.131 711.73 C 321.49 712.043 321.941 712.196 322.383 712.192 L 322.498 712.188 L 322.383 712.192 C 322.893 712.186 323.407 711.969 323.772 711.553 L 323.773 711.552 C 319.434 716.515 314.869 720.285 310.061 722.767 C 305.696 725.019 301.149 726.191 296.446 726.243 C 271.708 726.515 244.645 695.848 214.946 638.318 L 217.285 639.727 L 217.271 639.727 C 216.116 639.738 215.091 638.986 214.755 637.88 C 203.191 599.82 197.669 576.659 200.38 571.059 C 200.43 570.955 200.486 570.849 200.546 570.744 L 200.547 570.744 C 200.373 571.044 200.288 571.386 200.297 571.731 C 199.425 540.921 203.745 520.993 216.415 517.352 L 217.163 522.458 L 217.144 522.458 C 215.764 522.474 214.612 521.411 214.516 520.036 C 214.421 518.66 215.414 517.448 216.782 517.272 C 219.139 516.968 221.451 516.803 223.71 516.778 C 253.506 516.452 272.495 540.278 281.718 584.845 L 281.718 584.846 C 281.533 583.95 280.742 583.342 279.863 583.352 C 279.743 583.353 279.621 583.367 279.502 583.391 L 279.506 583.391 C 278.492 583.6 277.842 584.591 278.051 585.604 C 268.779 540.802 250.365 520.226 223.829 520.517 C 222.413 520.533 221.244 519.414 221.197 518 C 221.151 516.584 222.243 515.392 223.657 515.313 Z  M 223.943 520.513 L 223.772 515.31 C 254.307 514.975 273.76 539.174 283.15 584.549 L 283.151 584.549 C 283.524 586.353 282.364 588.117 280.56 588.49 L 280.563 588.49 C 280.35 588.534 280.134 588.558 279.92 588.56 C 278.356 588.577 276.947 587.491 276.619 585.9 L 276.619 585.901 C 267.506 541.871 249.542 521.703 223.767 521.986 C 221.723 522.009 219.615 522.158 217.446 522.437 L 217.085 517.251 L 217.104 517.25 C 218.408 517.236 219.522 518.187 219.71 519.476 C 219.899 520.766 219.106 521.997 217.853 522.357 C 209.757 524.684 204.588 539.291 205.503 571.584 L 205.503 571.585 C 205.52 572.2 205.367 572.809 205.059 573.343 L 205.059 573.342 C 205.065 573.332 205.067 573.328 205.067 573.329 C 203.515 576.536 207.674 596.661 219.737 636.367 L 217.221 634.52 L 217.234 634.52 C 218.218 634.51 219.123 635.056 219.574 635.929 C 249.683 694.254 275.392 721.266 296.389 721.036 C 300.231 720.994 303.985 720.041 307.673 718.139 C 311.767 716.025 315.834 712.72 319.852 708.124 C 320.502 707.381 321.414 706.994 322.326 706.984 L 322.211 706.989 L 322.327 706.984 C 323.115 706.976 323.916 707.248 324.557 707.808 L 324.582 707.829 L 324.558 707.808 C 325.946 709.022 326.085 711.129 324.874 712.515 C 320.41 717.619 315.703 721.501 310.731 724.066 C 306.158 726.426 301.403 727.654 296.491 727.708 C 271.124 727.987 243.594 697.034 213.582 638.866 L 213.582 638.865 C 213.488 638.682 213.413 638.496 213.356 638.305 C 201.71 599.976 196.259 576.546 199.046 570.465 C 199.466 569.55 200.376 568.958 201.383 568.947 L 201.403 568.946 L 198.831 571.622 C 197.953 540.014 202.677 519.692 216.1 515.921 L 216.096 515.922 C 216.249 515.879 216.411 515.844 216.578 515.823 L 216.575 515.823 C 219.025 515.507 221.427 515.335 223.772 515.31 C 225.187 515.294 226.355 516.413 226.402 517.827 C 226.449 519.243 225.357 520.435 223.943 520.513 Z " fill="rgb(0,0,0)"/><path d=" M 944.542 531.502 L 944.609 531.5 C 944.668 531.497 944.752 531.497 944.836 531.501 L 944.827 531.5 C 946.667 531.564 948.112 533.108 948.044 534.948 L 948.044 534.949 L 947.876 539.853 L 945.13 537.164 L 945.13 537.164 C 945.835 537.125 946.524 537.373 947.045 537.851 C 947.557 538.329 947.86 538.997 947.876 539.702 C 947.885 539.958 947.893 540.083 947.902 540.109 L 947.902 540.108 C 947.902 540.165 947.893 539.991 947.801 539.742 L 945.273 538.045 L 945.273 538.045 C 946.247 538.014 947.154 538.522 947.624 539.364 C 947.708 539.505 947.776 539.65 947.834 539.8 L 945.315 538.141 L 945.323 538.141 C 946.029 538.116 946.717 538.379 947.221 538.869 L 947.221 538.869 C 946.793 538.45 946.356 538.362 946.507 538.408 L 946.507 538.408 C 946.507 538.408 946.524 538.413 946.541 538.418 L 945.827 538.342 L 945.844 538.341 C 945.903 538.339 945.961 538.339 946.02 538.341 C 948.011 538.41 949.699 538.539 950.715 538.845 L 950.715 538.845 C 950.825 538.878 950.951 538.919 951.076 538.967 L 950.035 538.789 L 950.052 538.789 C 950.321 538.78 950.589 538.812 950.85 538.885 C 951.547 539.084 952.236 539.397 952.849 539.869 C 953.328 540.24 953.739 540.69 954.058 541.21 L 951.698 539.981 L 951.698 539.98 C 952.63 539.929 953.529 540.383 954.033 541.169 C 954.94 542.583 955.537 544.107 955.738 545.728 L 953.336 543.454 C 954.537 543.537 955.528 544.439 955.721 545.631 C 955.814 546.184 955.864 546.733 955.864 547.276 L 955.864 547.328 L 955.864 547.369 L 955.747 551.159 L 953.05 548.477 L 953.059 548.477 C 954.411 548.429 955.57 549.42 955.738 550.76 C 955.738 550.792 955.738 550.812 955.738 550.812 L 955.738 550.81 C 955.755 550.911 955.73 550.634 955.545 550.285 L 953.151 548.902 L 953.16 548.902 C 953.941 548.874 954.697 549.199 955.217 549.788 C 956.267 550.988 956.334 552.803 955.293 554.086 C 954.663 554.869 953.739 555.288 952.815 555.32 L 952.815 555.32 C 952.042 555.346 951.253 555.103 950.606 554.578 C 950.186 554.236 949.867 553.825 949.649 553.405 C 948.985 552.148 949.455 550.591 950.699 549.906 C 951.942 549.222 953.504 549.663 954.21 550.897 L 954.21 550.898 L 949.355 552.332 L 949.649 553.407 C 949.497 553.119 949.388 552.832 949.313 552.569 L 949.313 552.567 C 949.203 552.183 949.136 551.791 949.094 551.412 C 949.086 551.353 949.086 551.293 949.077 551.232 L 949.077 551.132 C 949.077 551.074 949.077 551.014 949.077 550.955 L 949.195 547.166 L 951.614 549.843 L 951.614 549.843 C 950.253 549.748 949.195 548.617 949.195 547.251 C 949.195 547.115 949.178 546.932 949.136 546.689 L 949.128 546.646 L 949.128 546.615 L 949.103 546.376 L 949.103 546.375 L 949.119 546.555 C 949.052 546.02 948.842 545.431 948.422 544.776 L 948.414 544.761 L 948.406 544.749 L 948.002 543.492 L 948.389 544.719 C 948.691 545.208 949.069 545.317 949.035 545.305 L 949.035 545.306 C 949.035 545.305 949.027 545.303 949.019 545.301 C 948.943 545.281 948.876 545.26 948.8 545.234 L 948.683 545.191 C 948.548 545.144 948.422 545.086 948.296 545.018 L 948.296 545.018 L 949.623 545.339 L 949.623 545.339 C 949.313 545.349 949.002 545.303 948.708 545.203 L 948.708 545.203 C 948.758 545.219 948.792 545.227 948.783 545.225 L 948.783 545.225 C 948.532 545.166 947.608 545.068 945.701 545.004 C 945.483 544.998 945.264 544.968 945.046 544.919 L 945.046 544.919 C 944.617 544.819 944.189 544.678 943.769 544.476 L 943.769 544.475 C 943.206 544.205 942.652 543.809 942.198 543.235 C 941.526 542.381 941.459 541.199 942.022 540.272 C 942.593 539.344 943.677 538.865 944.743 539.07 L 942.198 543.233 C 942.081 543.078 941.963 542.912 941.862 542.735 C 941.417 541.942 941.409 540.972 941.854 540.176 C 942.308 539.382 943.131 538.877 944.046 538.848 L 944.055 538.847 L 942.056 543.01 C 941.829 542.701 941.661 542.377 941.543 542.065 L 946.591 541.014 L 946.591 541.015 C 946.659 542.3 945.777 543.445 944.517 543.707 C 943.257 543.969 941.997 543.27 941.543 542.063 L 941.543 542.064 C 941.468 541.851 941.417 541.648 941.375 541.469 L 941.375 541.467 C 941.258 540.947 941.224 540.37 941.207 539.808 L 941.207 539.74 L 941.207 539.699 L 941.207 539.623 L 941.375 534.718 L 941.375 534.719 C 941.442 532.952 942.862 531.558 944.601 531.5 L 944.542 531.502 Z  M 944.827 536.702 L 944.777 536.704 C 945.751 536.671 946.549 535.89 946.583 534.897 L 946.583 534.898 L 946.415 539.803 L 946.415 539.726 L 946.415 539.767 L 946.415 539.698 C 946.423 540.127 946.457 540.32 946.465 540.362 L 946.465 540.36 C 946.465 540.368 946.457 540.324 946.432 540.252 L 941.384 541.301 L 941.384 541.3 C 941.316 540.015 942.198 538.871 943.458 538.608 C 944.718 538.345 945.978 539.042 946.432 540.249 C 946.398 540.16 946.331 540.031 946.23 539.888 C 946.81 540.665 946.91 541.701 946.49 542.576 C 946.07 543.45 945.197 544.02 944.231 544.052 L 944.214 544.052 L 946.39 540.165 C 946.364 540.108 946.331 540.064 946.297 540.021 C 946.969 540.876 947.036 542.057 946.474 542.983 C 945.903 543.911 944.827 544.39 943.761 544.185 L 946.297 540.018 C 946.163 539.848 946.037 539.788 946.037 539.789 C 946.045 539.791 946.096 539.817 946.239 539.848 C 946.113 539.82 945.995 539.803 945.869 539.8 L 945.869 539.8 C 947.658 539.859 949.136 539.956 950.001 540.162 L 950.001 540.161 C 950.111 540.189 950.245 540.224 950.379 540.271 L 949.472 540.134 L 949.472 540.134 C 949.943 540.121 950.405 540.232 950.808 540.456 L 950.808 540.457 L 950.421 540.283 L 950.547 540.327 L 950.329 540.26 C 950.421 540.285 950.514 540.312 950.615 540.342 L 950.615 540.343 C 951.32 540.569 952.227 541.028 952.815 541.98 L 953.202 543.206 L 952.798 541.95 L 952.807 541.963 L 952.798 541.948 C 953.588 543.17 954.109 544.495 954.285 545.908 L 954.302 546.089 L 954.302 546.09 L 954.277 545.849 L 954.277 545.879 L 954.277 545.834 C 954.352 546.305 954.394 546.772 954.403 547.239 L 951.975 544.647 L 951.975 544.648 C 953.37 544.745 954.445 545.927 954.403 547.324 L 954.285 551.114 L 954.285 550.937 L 954.285 551.037 L 954.277 550.858 C 954.293 551.025 954.31 551.1 954.31 551.11 L 954.31 551.109 C 954.31 551.113 954.302 551.061 954.251 550.97 L 954.554 552.046 C 954.915 552.227 954.453 553.785 953.21 554.47 C 951.958 555.156 950.396 554.714 949.691 553.479 L 954.251 550.973 C 954.193 550.85 954.075 550.685 953.882 550.531 C 953.521 550.237 953.076 550.1 952.639 550.115 L 952.639 550.115 C 952.126 550.132 951.606 550.368 951.253 550.807 C 950.665 551.529 950.707 552.547 951.295 553.221 L 953.353 554.107 L 953.336 554.107 C 952.345 554.143 951.412 553.606 950.942 552.724 C 950.707 552.282 950.631 551.838 950.615 551.702 L 950.615 551.7 C 950.589 551.601 950.581 551.492 950.564 551.398 L 953.244 553.681 L 953.235 553.681 C 952.513 553.707 951.816 553.433 951.303 552.925 C 950.799 552.417 950.514 551.72 950.539 551 L 950.657 547.211 L 950.657 547.251 L 950.657 547.231 L 950.657 547.262 C 950.657 547.047 950.631 546.786 950.581 546.472 L 952.975 548.649 L 952.975 548.649 C 951.732 548.562 950.724 547.609 950.573 546.374 C 950.472 545.612 950.195 544.822 949.657 543.991 L 951.984 545.18 C 951.035 545.233 950.127 544.761 949.632 543.949 C 949.64 543.971 949.657 543.987 949.665 543.992 C 949.665 543.995 949.607 543.948 949.43 543.896 L 950.228 543.993 L 950.211 543.994 C 949.859 544.006 949.506 543.945 949.178 543.816 C 949.203 543.828 949.229 543.834 949.22 543.833 L 949.22 543.833 C 948.952 543.753 947.952 543.618 945.844 543.546 L 946.02 543.546 L 946.003 543.547 C 945.76 543.555 945.516 543.529 945.281 543.471 C 945.189 543.448 945.088 543.421 944.995 543.393 L 944.995 543.393 C 944.819 543.338 944.155 543.145 943.61 542.617 L 945.508 543.345 L 945.499 543.345 C 944.391 543.385 943.383 542.719 942.98 541.687 C 943.013 541.771 943.055 541.853 943.097 541.932 L 945.449 543.251 L 945.449 543.251 C 944.323 543.288 943.307 542.605 942.921 541.554 C 942.786 541.212 942.744 540.891 942.728 540.751 L 942.728 540.749 C 942.694 540.464 942.677 540.141 942.669 539.824 L 945.415 542.363 L 945.415 542.363 C 944.685 542.403 943.971 542.135 943.45 541.623 C 942.929 541.111 942.644 540.404 942.669 539.673 L 942.845 534.768 L 942.845 534.769 C 942.803 535.801 943.61 536.669 944.651 536.704 L 944.634 536.704 C 944.693 536.706 944.735 536.706 944.769 536.705 L 944.827 536.702 Z  M 953.218 504.894 L 953.277 504.892 C 954.856 504.838 956.377 505.156 957.796 505.841 C 960.87 507.318 963.172 510.31 964.935 514.186 L 962.474 512.66 L 962.491 512.659 C 963.272 512.632 964.028 512.957 964.541 513.544 C 974.511 524.912 969.832 562.797 953.512 623.933 C 953.126 625.391 951.832 626.358 950.405 626.406 L 950.405 626.406 C 950.077 626.418 949.749 626.38 949.439 626.295 L 949.43 626.295 C 947.65 625.82 946.6 623.993 947.07 622.213 C 963.776 559.625 966.859 525.997 959.459 517.864 L 959.459 517.864 C 959.224 517.606 959.022 517.309 958.88 516.992 L 958.88 516.991 C 957.477 513.882 956.074 512.411 954.907 511.852 L 955.007 511.895 L 954.907 511.852 C 954.411 511.611 953.882 511.499 953.302 511.519 C 946.558 511.745 934.303 527.461 916.748 563.971 L 916.748 563.972 C 916.194 565.131 915.052 565.819 913.851 565.858 L 913.859 565.858 C 913.33 565.876 912.801 565.771 912.297 565.53 L 912.297 565.531 C 910.642 564.733 909.936 562.74 910.734 561.08 C 927.743 525.713 941.846 505.275 953.277 504.892 L 953.218 504.894 Z  M 953.504 510.093 L 953.454 510.096 C 945.953 510.347 933.203 526.385 915.43 563.337 C 915.883 562.404 915.488 561.286 914.556 560.838 L 914.556 560.839 C 914.279 560.704 913.977 560.644 913.683 560.654 L 913.683 560.654 C 913.011 560.676 912.372 561.061 912.053 561.712 L 912.053 561.714 C 928.793 526.908 942.417 506.674 953.126 506.314 C 954.537 506.267 955.898 506.549 957.166 507.159 L 957.074 507.116 L 957.074 507.116 L 957.166 507.159 C 959.963 508.502 962.029 511.307 963.625 514.849 L 963.625 514.848 C 963.55 514.67 963.44 514.505 963.306 514.358 L 963.306 514.359 C 973.133 525.157 968.346 562.711 952.101 623.556 C 952.37 622.556 951.774 621.531 950.774 621.264 L 950.774 621.263 C 950.598 621.217 950.413 621.195 950.228 621.202 L 950.228 621.202 C 949.43 621.229 948.699 621.769 948.481 622.59 C 965.238 559.823 968.287 525.708 960.627 516.978 L 962.676 517.864 L 962.651 517.864 C 961.601 517.9 960.627 517.298 960.19 516.338 C 958.67 512.978 957.04 511.255 955.545 510.534 C 954.881 510.215 954.193 510.071 953.454 510.096 L 953.504 510.093 Z  M 917.429 583.41 L 917.487 583.407 C 918.991 583.357 920.394 584.33 920.814 585.846 L 920.814 585.846 C 922.93 593.457 922.359 600.866 919.075 607.958 L 916.631 604.262 L 916.647 604.261 C 917.445 604.236 918.21 604.575 918.722 605.183 C 919.235 605.791 919.445 606.599 919.285 607.379 C 917.731 615.067 908.315 622.777 893.398 630.771 C 892.936 631.018 892.441 631.147 891.937 631.165 L 891.937 631.165 C 890.71 631.205 889.509 630.567 888.888 629.408 L 888.888 629.407 C 888.014 627.782 888.627 625.762 890.248 624.892 L 890.19 624.926 L 890.19 624.925 L 890.248 624.891 C 905.3 616.827 911.944 610.435 912.759 605.966 L 912.759 605.964 C 912.817 605.692 912.901 605.423 913.019 605.166 L 913.019 605.166 C 915.623 599.537 916.085 593.732 914.388 587.634 C 913.893 585.86 914.934 584.021 916.706 583.528 L 916.698 583.528 C 916.967 583.456 917.227 583.416 917.487 583.407 L 917.429 583.41 Z  M 917.723 588.61 L 917.664 588.611 C 917.807 588.607 917.958 588.584 918.101 588.543 L 918.101 588.544 C 919.1 588.267 919.68 587.235 919.403 586.238 C 921.427 593.506 920.881 600.585 917.739 607.354 C 917.807 607.208 917.857 607.057 917.882 606.906 L 917.882 606.904 C 916.547 614.226 907.291 621.669 892.709 629.482 L 892.768 629.448 L 892.709 629.482 C 893.617 628.994 893.961 627.86 893.474 626.946 L 893.474 626.945 C 893.121 626.294 892.449 625.937 891.76 625.96 L 891.76 625.96 C 891.483 625.969 891.197 626.043 890.937 626.181 C 906.216 617.995 913.179 611.297 914.178 606.348 L 916.816 609.466 L 916.79 609.466 C 915.892 609.495 915.035 609.054 914.539 608.3 C 914.044 607.548 913.968 606.59 914.346 605.77 C 917.101 599.819 917.588 593.682 915.799 587.243 L 915.799 587.242 C 916.034 588.096 916.824 588.64 917.664 588.611 L 917.723 588.61 Z  M 924.988 546.519 L 925.038 546.516 C 925.408 546.504 925.769 546.541 926.13 546.627 C 927.038 546.848 927.76 547.353 928.306 547.937 C 928.751 548.423 929.095 548.981 929.373 549.544 C 931.086 553.093 932.102 562.062 932.732 575.529 L 930.036 573.047 L 930.061 573.046 C 930.91 573.018 931.724 573.407 932.228 574.09 C 938.175 582.04 941.988 587.817 942.417 590.669 L 942.417 590.667 C 942.434 590.796 942.45 590.925 942.459 591.057 L 939.771 588.631 L 939.788 588.631 C 940.947 588.591 941.988 589.314 942.35 590.408 C 944.634 597.253 943.61 606.491 939.931 617.737 C 939.838 618.001 939.721 618.257 939.569 618.497 L 939.569 618.498 C 928.155 636.331 912.154 646.206 891.735 647.907 L 891.727 647.908 C 891.676 647.912 891.617 647.915 891.567 647.917 L 891.567 647.917 C 889.803 647.976 888.283 646.642 888.132 644.862 L 888.132 644.863 C 887.98 643.025 889.341 641.414 891.172 641.26 L 891.248 641.255 L 891.248 641.255 L 891.181 641.26 C 909.374 639.743 923.552 631.073 933.866 615.036 C 934.328 614.318 935.109 613.871 935.966 613.842 L 935.983 613.841 L 933.597 615.635 C 937.108 604.882 937.671 597.277 935.983 592.394 L 935.983 592.394 C 935.874 592.089 935.815 591.777 935.798 591.463 L 935.798 591.461 C 935.806 591.546 935.815 591.593 935.815 591.588 C 935.571 590.437 932.892 586.097 926.735 577.879 C 926.34 577.344 926.105 576.703 926.072 576.034 L 926.072 576.032 C 925.433 562.179 924.425 554.642 923.367 552.45 L 923.367 552.45 C 923.317 552.342 923.291 552.298 923.283 552.291 L 923.283 552.29 C 923.132 552.039 923.459 552.765 924.383 553.062 L 925.274 553.185 L 925.248 553.186 L 925.962 553.062 C 926.122 553.01 926.24 552.953 926.273 552.937 L 924.988 547.996 C 926.231 547.928 927.348 548.744 927.659 549.945 C 927.97 551.147 927.382 552.4 926.265 552.94 C 925.836 553.148 925.383 553.256 924.929 553.271 L 924.929 553.271 C 923.653 553.314 922.409 552.62 921.813 551.39 L 921.813 551.392 C 921.015 549.734 921.704 547.739 923.359 546.936 L 924.358 546.68 L 923.367 546.936 C 923.795 546.725 924.274 546.582 924.787 546.533 L 924.795 546.532 C 924.862 546.525 924.963 546.519 925.047 546.516 L 924.988 546.519 Z  M 925.274 551.718 L 925.215 551.721 C 925.248 551.72 925.265 551.719 925.282 551.716 L 925.29 551.716 C 925.433 551.702 925.551 551.662 925.635 551.623 C 925.324 551.773 924.988 551.861 924.644 551.879 L 925.635 551.622 C 926.559 551.172 926.954 550.052 926.5 549.121 L 926.5 549.123 C 926.164 548.43 925.467 548.043 924.753 548.067 L 924.753 548.067 C 924.493 548.075 924.241 548.136 924.005 548.252 L 925.282 553.196 C 924.039 553.264 922.93 552.45 922.611 551.251 C 922.3 550.052 922.88 548.798 923.997 548.256 C 924.047 548.228 924.19 548.163 924.367 548.105 C 924.593 548.031 924.837 547.989 925.072 547.981 L 925.097 547.981 C 925.391 547.971 925.694 548.012 925.979 548.105 C 927.08 548.458 927.626 549.406 927.709 549.541 L 927.709 549.54 C 927.836 549.752 927.953 549.969 928.054 550.182 L 928.054 550.181 C 929.692 553.568 930.658 562.428 931.279 575.793 L 931.279 575.791 C 931.262 575.417 931.128 575.057 930.901 574.757 L 930.901 574.757 C 936.672 582.457 940.359 587.931 940.905 590.494 C 940.955 590.71 940.989 590.954 941.006 591.217 L 941.006 591.215 C 940.997 591.041 940.964 590.865 940.905 590.694 C 943.173 597.253 942.148 606.247 938.545 617.252 C 938.209 618.292 937.251 619.009 936.159 619.046 L 936.142 619.046 L 938.242 617.853 C 927.096 635.19 911.49 644.793 891.609 646.45 L 891.533 646.455 L 891.533 646.455 L 891.609 646.45 C 892.642 646.364 893.407 645.46 893.323 644.427 L 893.323 644.428 C 893.238 643.428 892.382 642.68 891.391 642.712 L 891.391 642.712 C 891.357 642.713 891.34 642.715 891.307 642.717 L 891.298 642.718 C 910.029 641.157 924.602 632.218 935.185 615.69 C 935.093 615.827 935.025 615.971 934.975 616.118 C 938.562 605.16 939.149 597.269 937.411 592.058 L 939.973 593.835 L 939.947 593.836 C 938.545 593.884 937.36 592.81 937.268 591.409 C 937.268 591.426 937.268 591.44 937.268 591.441 L 937.268 591.439 C 937.083 590.224 934.437 585.733 928.062 577.208 L 930.238 578.252 L 930.212 578.252 C 928.793 578.3 927.592 577.194 927.525 575.77 C 926.878 561.853 925.828 554.175 924.686 551.813 C 924.568 551.574 924.493 551.486 924.484 551.479 L 924.484 551.479 C 924.493 551.484 924.627 551.621 924.904 551.689 L 924.904 551.689 C 925.005 551.713 925.106 551.725 925.215 551.72 L 925.274 551.718 Z  M 958.418 495.558 L 958.476 495.556 C 960.82 495.477 963.222 495.542 965.683 495.749 C 965.851 495.762 966.011 495.788 966.162 495.824 L 966.162 495.824 C 979.743 498.995 985.363 519.086 985.892 550.702 L 983.212 548.143 L 983.238 548.143 C 984.237 548.113 985.17 548.663 985.623 549.556 C 988.68 555.507 984.279 579.155 974.351 617.966 L 974.351 617.965 C 974.301 618.162 974.234 618.352 974.15 618.532 L 974.15 618.536 C 946.751 677.981 920.629 710.127 895.271 710.977 C 890.366 711.142 885.561 710.127 880.883 707.972 C 875.801 705.631 870.93 701.962 866.243 697.061 C 864.975 695.731 865.017 693.62 866.352 692.347 L 868.15 694.228 L 866.352 692.346 C 866.965 691.758 867.755 691.451 868.544 691.424 L 868.544 691.424 C 869.452 691.393 870.384 691.739 871.064 692.453 C 875.281 696.865 879.489 699.987 883.68 701.915 C 887.443 703.651 891.239 704.436 895.078 704.307 C 916.068 703.604 940.544 675.475 968.035 615.868 C 968.446 614.977 969.32 614.392 970.303 614.357 L 970.319 614.356 L 967.892 616.313 C 978.173 576.111 981.432 555.819 979.743 552.685 C 979.735 552.681 979.743 552.691 979.752 552.7 L 979.743 552.698 C 979.416 552.18 979.24 551.579 979.231 550.959 L 979.231 550.961 C 978.702 518.66 972.89 504.297 964.7 502.332 C 963.432 502.028 962.584 500.833 962.718 499.536 C 962.852 498.238 963.919 497.24 965.221 497.198 L 965.246 497.197 L 965.112 502.394 C 962.928 502.212 960.82 502.156 958.779 502.225 C 933.018 503.088 915.967 524.035 908.819 568.427 L 908.819 568.426 C 908.559 570.03 907.207 571.178 905.636 571.23 L 905.636 571.23 C 905.426 571.237 905.208 571.224 904.989 571.189 L 904.998 571.189 C 903.175 570.897 901.94 569.185 902.234 567.367 C 909.592 521.619 927.953 496.579 958.476 495.556 L 958.418 495.558 Z  M 958.703 500.757 L 958.653 500.76 C 932.128 501.649 914.648 523.025 907.375 568.194 C 907.543 567.173 906.846 566.212 905.821 566.048 L 905.829 566.048 C 905.703 566.029 905.586 566.021 905.46 566.025 L 905.468 566.025 C 904.586 566.055 903.822 566.698 903.679 567.599 C 910.911 522.665 928.818 498.018 958.602 497.02 C 960.862 496.944 963.172 497.006 965.54 497.204 C 966.918 497.319 967.968 498.487 967.926 499.866 C 967.892 501.245 966.792 502.357 965.406 502.402 L 965.389 502.403 L 965.918 497.268 C 978.736 500.342 983.935 520.059 984.43 550.877 L 984.43 550.879 C 984.43 550.53 984.33 550.193 984.145 549.903 L 984.136 549.9 C 984.212 550.006 984.262 550.106 984.321 550.209 L 984.321 550.209 C 987.278 555.682 982.792 579.066 972.932 617.603 C 972.646 618.722 971.655 619.518 970.504 619.56 L 970.487 619.561 L 972.764 618.049 C 945.651 676.843 919.982 708.683 895.254 709.512 C 890.551 709.669 885.956 708.7 881.496 706.644 C 876.583 704.38 871.854 700.816 867.301 696.051 L 867.301 696.051 C 867.679 696.452 868.208 696.646 868.721 696.628 C 869.158 696.614 869.603 696.44 869.947 696.111 L 868.15 694.228 L 869.947 696.111 C 870.695 695.395 870.72 694.21 870.006 693.463 C 874.348 698.007 878.708 701.236 883.067 703.243 C 887.048 705.079 891.055 705.909 895.095 705.773 C 916.723 705.048 941.669 676.574 969.421 616.356 L 969.412 616.359 C 969.37 616.46 969.337 616.564 969.303 616.677 L 969.303 616.675 C 979.626 576.336 982.877 555.603 980.995 551.935 L 983.389 553.348 L 983.372 553.349 C 982.675 553.369 981.995 553.111 981.491 552.629 C 980.987 552.149 980.701 551.486 980.684 550.79 C 980.138 517.822 973.948 502.99 964.977 500.896 C 965.07 500.915 965.154 500.93 965.246 500.938 L 965.246 500.938 C 962.978 500.747 960.778 500.688 958.653 500.76 L 958.703 500.757 Z " fill="rgb(0,0,0)"/></g></g><path d=" M 547.837 68.85 C 554.536 68.482 561.338 68.252 568.243 68.164 C 695.13 69.044 786.873 99.81 843.472 160.461 C 868.603 182.837 890.954 226.807 910.524 292.37 C 927.667 345.362 933.975 393.156 929.448 435.751 L 929.44 435.752 C 907.534 545.02 890.769 616.577 879.144 650.422 C 864.496 698.979 848.873 736.179 832.262 762.023 C 806.291 793.321 760.504 833.878 694.903 883.688 C 653.341 909.424 624.755 922.72 609.146 923.577 C 607.648 923.661 606.271 923.627 605.013 923.485 C 570.387 920.419 530.875 904.065 486.477 874.432 C 422.935 832.626 380.384 796.84 358.822 767.075 C 338.247 733.325 316.634 684.089 293.982 619.37 C 282.025 584.795 269.532 530.787 256.502 457.344 L 256.497 457.344 C 252.791 431.655 252.033 405.866 254.222 379.978 C 256.476 348.421 261.113 318.06 268.134 288.894 C 278.361 244.903 296.689 205.769 323.118 171.494 C 376.769 108.364 451.676 74.15 547.837 68.85 Z " fill="rgb(252,235,224)"/><path d=" M 547.837 68.85 C 554.536 68.482 561.338 68.252 568.243 68.164 C 695.13 69.044 786.873 99.81 843.472 160.461 C 868.603 182.837 890.954 226.807 910.524 292.37 C 927.667 345.362 933.975 393.156 929.448 435.751 L 929.44 435.752 C 907.534 545.02 890.769 616.577 879.144 650.422 C 864.496 698.979 848.873 736.179 832.262 762.023 C 806.291 793.321 760.504 833.878 694.903 883.688 C 653.341 909.424 624.755 922.72 609.146 923.577 C 607.648 923.661 606.271 923.627 605.013 923.485 C 570.387 920.419 530.875 904.065 486.477 874.432 C 422.935 832.626 380.384 796.84 358.822 767.075 C 338.247 733.325 316.634 684.089 293.982 619.37 C 282.025 584.795 269.532 530.787 256.502 457.344 L 256.497 457.344 C 252.791 431.655 252.033 405.866 254.222 379.978 C 256.476 348.421 261.113 318.06 268.134 288.894 C 278.361 244.903 296.689 205.769 323.118 171.494 C 376.769 108.364 451.676 74.15 547.837 68.85 Z  M 551.983 60.351 C 551.598 60.372 551.212 60.394 550.827 60.417 L 531.934 61.834 C 480.964 66.251 434.244 79.909 391.776 102.808 C 362.796 116.529 333.344 143.685 303.421 184.276 C 279.428 221.735 263.294 263.443 255.017 309.401 C 244.08 372.464 241.813 419.454 248.215 450.373 L 248.21 450.373 C 247.971 451.009 247.826 451.766 247.774 452.645 L 258.146 515.849 C 265.473 548.344 275.009 584.007 286.755 622.837 C 314.737 700.892 336.924 751.618 353.317 775.013 C 388.27 814.632 433.722 851.687 489.673 886.166 C 538.255 917.849 577.224 932.875 606.58 931.254 C 606.739 931.246 606.897 931.237 607.055 931.229 C 617.656 930.154 628.672 927.424 640.104 923.031 C 658.029 916.219 677.811 905.451 699.448 890.727 C 744.782 859.885 792.196 817.247 841.692 762.827 C 855.257 743.532 874.567 692.148 899.622 608.674 C 912.582 561.027 924.375 506.594 935 445.375 L 934.992 445.376 C 936.663 442.585 937.629 439.932 937.89 437.415 L 938.729 388.518 C 935.84 361.966 931.044 336.15 924.333 311.07 C 910.306 260.489 897.64 225.459 886.334 205.982 C 869.796 177.646 857.516 160.523 849.503 154.609 C 817.154 122.136 778.969 98.586 734.947 83.957 C 675.171 64.792 614.183 56.923 551.983 60.351 Z " fill="rgb(0,0,0)"/><g><path d=" M 520.322 749.239 C 554.622 756.919 581.26 760.759 600.238 760.759 C 619.215 760.759 645.854 756.919 680.153 749.239 C 652.996 812.595 628.037 844.27 605.277 844.27 C 582.518 844.27 554.199 812.595 520.322 749.239 Z " fill="rgb(132,60,60)"/><path d=" M 668.629 774.492 C 672.425 766.723 676.266 758.305 680.153 749.239 C 645.854 756.919 619.215 760.759 600.238 760.759 C 581.26 760.759 554.622 756.919 520.322 749.239 C 525.102 758.178 529.77 766.486 534.329 774.164 C 558.82 782.135 581.989 786.306 603.837 786.677 C 623.213 787.006 644.811 782.944 668.629 774.492 Z " fill="rgb(255,255,255)"/><path d=" M 640.691 820.989 C 628.348 836.512 616.543 844.27 605.277 844.27 C 593.842 844.27 581.005 836.277 566.764 820.285 C 581.7 815.182 594.058 812.619 603.837 812.595 C 614.266 812.57 626.55 815.368 640.691 820.989 Z " fill="rgb(233,113,114)"/><path d=" M 516.205 746.086 C 525.218 748.159 534.261 750.075 543.332 751.845 C 549.308 752.998 555.312 754.048 561.331 754.984 C 569.02 756.194 576.752 757.159 584.499 757.864 C 589.726 758.354 594.981 758.598 600.238 758.598 C 602.685 758.598 605.133 758.541 607.581 758.426 C 610.561 758.282 613.557 758.08 616.537 757.821 C 618.697 757.634 620.842 757.417 623.003 757.173 C 625.436 756.899 627.883 756.597 630.317 756.28 C 637.373 755.33 644.414 754.207 651.426 752.911 C 662.254 750.91 673.053 748.663 683.795 746.201 C 680.124 754.913 676.265 763.552 672.19 772.09 C 669.425 777.908 666.502 783.667 663.45 789.355 C 660.987 793.934 658.41 798.455 655.731 802.905 C 653.558 806.519 651.268 810.061 648.878 813.531 C 645.624 818.254 642.124 822.79 638.381 827.124 C 635.688 830.248 632.751 833.171 629.612 835.85 C 627.409 837.722 625.091 839.42 622.642 840.961 C 620.67 842.212 618.596 843.279 616.422 844.161 C 614.579 844.909 612.664 845.48 610.706 845.883 C 608.92 846.244 607.106 846.437 605.277 846.437 C 603.434 846.437 601.591 846.244 599.777 845.883 C 597.732 845.471 595.716 844.867 593.772 844.102 C 591.727 843.304 589.74 842.347 587.839 841.246 C 585.493 839.896 583.247 838.398 581.086 836.771 C 580.209 836.109 579.359 835.447 578.524 834.755 C 577.602 834.007 576.695 833.244 575.817 832.451 C 573.124 830.076 570.561 827.571 568.113 824.95 C 564.974 821.594 561.964 818.11 559.07 814.525 C 557.472 812.523 555.888 810.493 554.348 808.434 C 552.605 806.087 550.891 803.74 549.207 801.349 C 548.012 799.636 546.831 797.923 545.665 796.181 C 544.398 794.308 543.145 792.408 541.907 790.507 C 538.149 784.704 534.535 778.829 531.05 772.854 C 525.909 764.041 520.956 755.114 516.205 746.086 Z  M 524.455 752.364 C 530.459 753.674 536.478 754.913 542.511 756.079 C 548.545 757.245 554.592 758.31 560.654 759.261 C 568.444 760.471 576.263 761.45 584.096 762.17 C 589.467 762.674 594.852 762.918 600.238 762.918 C 602.757 762.918 605.277 762.861 607.783 762.731 C 610.835 762.587 613.873 762.386 616.911 762.126 C 619.1 761.925 621.289 761.709 623.478 761.464 C 625.954 761.19 628.417 760.888 630.879 760.557 C 638.021 759.606 645.134 758.469 652.218 757.159 C 660.325 755.647 668.431 754.02 676.496 752.263 C 673.86 758.296 671.124 764.286 668.288 770.233 C 665.552 775.993 662.672 781.695 659.648 787.311 C 657.215 791.832 654.681 796.281 652.031 800.673 C 649.9 804.215 647.654 807.685 645.321 811.084 C 642.153 815.676 638.755 820.083 635.112 824.302 C 632.563 827.254 629.784 830.018 626.804 832.552 C 624.759 834.295 622.599 835.878 620.338 837.319 C 618.582 838.428 616.739 839.378 614.809 840.155 C 613.196 840.801 611.541 841.305 609.842 841.65 C 608.344 841.952 606.803 842.112 605.277 842.112 C 603.722 842.112 602.167 841.952 600.641 841.65 C 598.827 841.28 597.069 840.759 595.356 840.087 C 593.499 839.363 591.713 838.499 590 837.505 C 587.811 836.239 585.694 834.842 583.678 833.316 C 582.858 832.697 582.051 832.063 581.259 831.415 C 580.381 830.695 579.517 829.96 578.667 829.212 C 576.09 826.936 573.613 824.532 571.267 822.012 C 568.199 818.715 565.262 815.331 562.44 811.818 C 560.87 809.86 559.315 807.858 557.803 805.842 C 556.09 803.538 554.391 801.22 552.749 798.858 C 551.568 797.174 550.387 795.475 549.236 793.776 C 547.983 791.904 546.759 790.032 545.535 788.16 C 541.806 782.415 538.22 776.583 534.779 770.679 C 531.251 764.632 527.81 758.527 524.455 752.364 Z " fill-rule="evenodd" fill="rgb(0,0,0)"/></g><g><path d=" M 591.388 617.569 C 592.724 643.537 593.017 658.33 592.265 661.949 C 588.468 680.237 573.497 686.831 573.487 695.482 C 573.481 701.265 580.991 708.407 596.02 716.908 C 585.618 709.182 580.611 702.04 580.998 695.482 C 581.445 687.927 593.022 678.62 596.02 667.792 C 599.242 656.162 597.697 639.422 591.388 617.569 Z " fill="rgb(0,0,0)"/><path d=" M 616.676 699.378 C 611.116 701.636 606.735 702.935 603.532 703.274 C 597.588 703.901 589.45 701.953 579.121 697.43 L 580.998 705.221 L 596.02 716.908 C 600.223 718.414 604.605 719.101 609.165 718.969 C 621.369 718.615 628.402 707.127 626.065 703.274 C 624.717 701.05 621.587 699.752 616.676 699.378 Z " fill="rgb(0,0,0)" fill-opacity="0.278431"/></g><g><g><path d=" M 492.242 652.115 C 480.848 662.537 468.811 670.885 456.067 677.092 C 406.975 699.226 374.731 687.394 359.274 641.536 C 329.689 562.133 346.829 506.843 410.634 475.605 C 434.761 468.353 455.172 475.599 471.858 497.332 C 488.963 514.948 500.182 542.625 505.452 580.299 C 504.871 612.039 500.47 635.98 492.242 652.115 Z " fill="rgb(255,255,255)"/><path d=" M 492.242 652.115 C 500.779 626.536 498.739 584.832 494.517 559.075 C 489.492 541.37 482.57 524.505 474.613 511.757 C 457.088 488.786 434.433 476.3 410.634 489.433 C 377.811 500.84 360.36 533.408 354.683 569.064 C 353.567 590.431 359.507 619.035 370.103 642.85 C 374.722 657.086 383.071 673.182 389.278 677.213 C 397.679 682.668 406.452 685.16 413.456 687.908 C 387.751 687.908 369.696 672.456 359.274 641.536 C 329.689 562.133 346.829 506.843 410.634 475.605 C 434.761 468.353 455.172 475.599 471.858 497.332 C 488.963 514.948 500.182 542.625 505.452 580.299 C 504.871 612.039 500.47 635.98 492.242 652.115 Z " fill="rgb(0,0,0)"/><path d=" M 485.665 533.557 C 482.312 525.534 478.591 518.131 474.613 511.757 C 457.088 488.786 434.433 476.3 410.634 489.433 C 377.811 500.84 360.36 533.408 354.683 569.065 C 367.578 542.809 384.904 521.733 413.456 515.113 C 439.963 508.966 467.96 517.159 485.665 533.557 Z " fill="rgb(0,0,0)" fill-opacity="0.2"/><path d=" M 436.313 497.332 C 409.996 497.246 400.139 527.555 406.683 588.201 C 413.548 633.638 428.054 656.045 450.141 655.364 C 472.526 655.941 482.423 630.939 479.772 580.299 C 477.887 524.798 463.42 497.162 436.313 497.332 Z " fill="rgb(0,0,0)"/><path d=" M 437.235 503.26 C 414.866 503.186 406.488 534.876 412.05 586.424 C 417.885 625.044 430.214 652.693 448.989 652.115 C 452.671 652.21 455.869 651.168 458.616 649.114 C 473.232 640.254 476.865 614.138 471.858 579.708 C 470.376 535.951 458.623 503.124 437.235 503.26 Z " fill="rgb(110,45,64)"/><path d=" M 439.573 554.703 C 432.629 554.949 430.51 567.237 433.02 586.989 C 435.418 601.768 439.665 612.249 445.483 611.796 C 446.627 611.788 447.604 611.348 448.425 610.524 C 452.827 606.938 453.558 596.852 451.481 583.673 C 450.356 566.866 446.209 554.388 439.573 554.703 Z " fill="rgb(0,0,0)"/><path d=" M 420.511 550.669 C 416.042 551.386 414.981 555.351 414.585 562.521 C 414.237 568.804 416.278 573.086 420.511 572.398 C 423.373 571.933 423.72 568.621 424.462 562.521 C 425.428 554.575 424.085 550.095 420.511 550.669 Z " fill="rgb(255,255,255)"/><path d=" M 437.255 499.443 C 449.375 501.388 452.252 512.139 453.327 531.587 C 454.27 548.627 448.733 560.239 437.255 558.374 C 429.492 557.113 428.552 548.129 426.541 531.587 C 423.92 510.035 427.562 497.886 437.255 499.443 Z " fill="rgb(255,255,255)"/></g><g><path d=" M 707.196 652.115 C 718.591 662.537 730.627 670.885 743.37 677.092 C 792.462 699.226 824.707 687.394 840.163 641.536 C 869.745 562.133 852.611 506.843 788.804 475.605 C 764.677 468.353 744.265 475.599 727.58 497.332 C 710.475 514.948 699.256 542.625 693.986 580.299 C 694.567 612.039 698.968 635.98 707.196 652.115 Z " fill="rgb(255,255,255)"/><path d=" M 707.196 652.115 C 698.658 626.536 700.699 584.832 704.921 559.075 C 709.945 541.37 716.868 524.504 724.825 511.757 C 742.35 488.786 765.005 476.3 788.804 489.433 C 821.627 500.84 839.078 533.408 844.757 569.065 C 845.875 590.431 839.931 619.035 829.335 642.85 C 824.716 657.086 816.367 673.182 810.16 677.213 C 801.759 682.668 792.986 685.16 785.982 687.908 C 811.687 687.908 829.742 672.456 840.163 641.536 C 869.745 562.133 852.611 506.843 788.804 475.605 C 764.677 468.353 744.265 475.599 727.58 497.332 C 710.475 514.948 699.256 542.625 693.986 580.299 C 694.567 612.039 698.968 635.98 707.196 652.115 Z " fill="rgb(0,0,0)"/><path d=" M 713.774 533.557 C 717.127 525.534 720.847 518.131 724.825 511.757 C 742.35 488.786 765.005 476.3 788.804 489.433 C 821.627 500.84 839.078 533.408 844.757 569.065 C 831.86 542.809 814.534 521.733 785.982 515.113 C 759.475 508.966 731.478 517.159 713.774 533.557 Z " fill="rgb(0,0,0)" fill-opacity="0.2"/><path d=" M 763.124 497.332 C 789.442 497.246 799.299 527.555 792.754 588.201 C 785.89 633.638 771.384 656.045 749.297 655.364 C 726.912 655.941 717.015 630.939 719.667 580.299 C 721.551 524.798 736.018 497.162 763.124 497.332 Z " fill="rgb(0,0,0)"/><path d=" M 762.203 503.26 C 784.572 503.186 792.95 534.876 787.388 586.424 C 781.553 625.044 769.223 652.693 750.449 652.115 C 746.767 652.21 743.569 651.168 740.822 649.114 C 726.206 640.254 722.573 614.138 727.58 579.708 C 729.062 535.951 740.815 503.124 762.203 503.26 Z " fill="rgb(110,45,64)"/><path d=" M 759.865 554.703 C 766.809 554.949 768.928 567.237 766.418 586.989 C 764.02 601.768 759.773 612.249 753.955 611.796 C 752.811 611.788 751.834 611.348 751.013 610.524 C 746.611 606.938 745.88 596.852 747.957 583.673 C 749.082 566.866 753.229 554.388 759.865 554.703 Z " fill="rgb(0,0,0)"/><path d=" M 778.927 550.669 C 783.396 551.386 784.457 555.351 784.853 562.521 C 785.201 568.804 783.16 573.086 778.927 572.398 C 776.065 571.933 775.718 568.621 774.976 562.521 C 774.01 554.575 775.353 550.095 778.927 550.669 Z " fill="rgb(255,255,255)"/><path d=" M 762.182 499.443 C 750.063 501.388 747.186 512.139 746.11 531.587 C 745.168 548.627 750.705 560.239 762.182 558.374 C 769.945 557.113 770.886 548.129 772.897 531.587 C 775.518 510.035 771.876 497.886 762.182 499.443 Z " fill="rgb(255,255,255)"/></g></g><g><path d=" M 528.878 405.948 L 532.04 415.431 C 468.705 440.876 404.465 455.659 339.224 459.683 C 416.183 444.357 479.433 426.478 528.878 405.948 Z " fill="rgb(0,0,0)"/><path d=" M 671.119 405.948 L 667.958 415.431 C 731.294 440.876 795.534 455.659 860.775 459.683 C 783.814 444.357 720.564 426.478 671.119 405.948 Z " fill="rgb(0,0,0)"/></g><g><path d=" M 919.016 486.746 C 915.724 481.996 914.077 465.582 913.851 462.687 C 913.506 458.126 907.501 447.61 905.93 443.316 L 890.013 414.258 C 890.332 403.169 890.971 377.945 890.013 364.216 C 887.787 332.495 879.363 296.464 863.488 267.94 C 844.799 234.355 811.627 221.836 775.074 212.982 C 767.607 211.165 747.395 207.396 740.268 207.662 L 733.64 208.365 C 703.923 210.48 665.588 220.286 636.683 228.382 L 606.022 237.269 C 599.749 239.109 594.462 241.781 587.791 241.498 C 582.802 241.288 571.582 237.22 566.245 235.654 L 521.496 223.087 C 497.456 216.751 468.32 210.124 443.6 208.365 L 436.142 207.654 C 428.982 207.654 410.394 211.189 402.995 212.982 C 373.809 220.052 344.763 231.965 325.314 255.252 C 301.447 283.824 291.098 317.235 288.603 352.773 C 287.634 366.599 282.779 394.21 288.603 411.029 C 286.159 419.231 281.294 425.583 276.869 432.822 C 273.853 437.762 271.772 442.614 270.19 448.158 C 269.652 450.06 263.48 466.002 259.707 475.071 C 258.642 469.293 257.574 463.384 256.502 457.344 L 256.497 457.344 C 254.168 441.193 253.003 425.003 253.003 408.774 C 253.003 399.19 253.41 389.591 254.222 379.978 C 256.476 348.421 261.113 318.06 268.134 288.894 C 278.361 244.903 296.689 205.769 323.118 171.494 C 376.769 108.364 451.676 74.15 547.837 68.85 C 554.536 68.482 561.338 68.252 568.243 68.164 C 695.13 69.044 786.873 99.81 843.472 160.461 C 868.603 182.837 890.954 226.807 910.524 292.37 C 927.667 345.362 933.975 393.156 929.448 435.751 L 929.44 435.752 C 925.828 453.776 922.351 470.774 919.016 486.746 Z " fill="rgb(56,56,56)"/><path d=" M 588.993 239.946 C 576.466 235.936 563.899 232.069 551.284 228.345 C 541.146 225.346 530.957 222.499 520.735 219.803 C 517.283 218.896 513.831 218.005 510.379 217.14 C 507.246 216.351 504.104 215.586 500.963 214.839 C 496.57 213.797 492.161 212.798 487.743 211.84 C 483.954 211.026 480.166 210.253 476.361 209.53 C 471.154 208.539 465.929 207.657 460.688 206.876 C 456.606 206.272 452.507 205.768 448.4 205.381 C 444.452 205.003 440.488 204.76 436.523 204.642 C 433.558 204.558 430.593 204.608 427.637 204.793 C 426.612 204.852 425.587 204.936 424.571 205.045 C 423.655 205.138 422.748 205.247 421.841 205.381 C 414.307 206.465 406.823 207.859 399.415 209.564 C 392.721 211.101 386.11 212.957 379.592 215.124 C 373.688 217.09 367.884 219.375 362.222 221.962 C 357.04 224.33 352 227.001 347.137 229.966 C 342.627 232.721 338.301 235.753 334.177 239.046 C 330.296 242.145 326.626 245.497 323.191 249.083 C 316.732 255.819 311.146 263.345 306.543 271.467 C 304.326 275.381 302.318 279.413 300.546 283.546 C 298.782 287.645 297.211 291.811 295.842 296.052 C 294.482 300.269 293.289 304.536 292.264 308.853 C 291.248 313.145 290.358 317.479 289.618 321.83 C 288.871 326.164 288.232 330.515 287.703 334.883 C 287.183 339.208 286.729 343.542 286.359 347.885 C 285.99 352.168 285.662 356.461 285.385 360.744 C 285.116 364.944 284.856 369.144 284.612 373.352 C 284.394 377.089 284.167 380.835 283.924 384.573 C 283.697 388.185 283.428 391.797 283.126 395.4 C 282.84 398.852 282.487 402.296 282.076 405.74 C 281.689 408.99 281.219 412.241 280.656 415.474 C 280.345 417.222 279.892 418.935 279.304 420.615 C 278.716 422.269 278.019 423.882 277.229 425.453 C 276.415 427.057 275.533 428.636 274.6 430.173 C 273.626 431.778 272.626 433.365 271.619 434.936 C 270.737 436.313 269.863 437.691 269.015 439.077 C 268.124 440.505 267.276 441.966 266.47 443.444 C 265.638 444.973 264.865 446.544 264.16 448.148 C 263.429 449.819 262.791 451.541 262.253 453.288 C 260.599 458.698 259.473 464.249 258.877 469.877 C 258.028 477.924 257.709 486.012 257.911 494.101 C 258.07 500.375 258.457 506.65 259.078 512.899 C 259.868 520.87 260.884 528.824 262.136 536.736 L 262.724 540.474 L 270.191 539.298 L 269.603 535.56 C 268.376 527.791 267.377 519.979 266.596 512.151 C 265.999 506.087 265.621 499.997 265.47 493.908 C 265.269 486.147 265.579 478.386 266.394 470.667 C 266.94 465.526 267.973 460.445 269.485 455.497 C 269.93 454.027 270.468 452.591 271.081 451.18 C 271.703 449.777 272.374 448.408 273.105 447.064 C 273.853 445.704 274.626 444.36 275.44 443.041 C 276.272 441.697 277.12 440.362 277.968 439.026 C 279.018 437.397 280.052 435.759 281.059 434.104 C 282.093 432.391 283.067 430.644 283.974 428.863 C 284.906 427.007 285.729 425.1 286.427 423.135 C 287.157 421.068 287.72 418.943 288.107 416.776 C 288.686 413.408 289.182 410.023 289.585 406.63 C 290.005 403.102 290.366 399.574 290.66 396.038 C 290.962 392.376 291.239 388.722 291.475 385.06 C 291.71 381.306 291.945 377.543 292.163 373.788 C 292.399 369.606 292.659 365.423 292.928 361.24 C 293.205 356.998 293.524 352.765 293.885 348.54 C 294.255 344.281 294.7 340.031 295.212 335.79 C 295.725 331.548 296.346 327.315 297.069 323.107 C 297.783 318.907 298.639 314.741 299.622 310.6 C 300.596 306.476 301.739 302.402 303.041 298.371 C 304.334 294.364 305.821 290.408 307.484 286.536 C 309.155 282.655 311.037 278.867 313.12 275.188 C 317.412 267.612 322.628 260.599 328.642 254.316 C 331.859 250.973 335.277 247.848 338.897 244.951 C 342.77 241.851 346.835 239.004 351.068 236.425 C 355.679 233.611 360.45 231.075 365.364 228.832 C 370.781 226.363 376.325 224.179 381.978 222.298 C 388.269 220.206 394.652 218.417 401.103 216.93 C 408.318 215.276 415.6 213.915 422.925 212.857 C 423.723 212.747 424.529 212.647 425.335 212.563 C 426.251 212.47 427.175 212.395 428.107 212.336 C 430.837 212.168 433.575 212.117 436.305 212.201 C 440.101 212.311 443.898 212.546 447.686 212.907 C 451.659 213.285 455.623 213.764 459.571 214.352 C 464.711 215.116 469.843 215.99 474.942 216.956 C 478.688 217.669 482.426 218.434 486.147 219.232 C 490.514 220.172 494.874 221.164 499.216 222.188 C 502.324 222.927 505.432 223.692 508.531 224.465 C 511.966 225.33 515.385 226.212 518.803 227.11 C 528.958 229.79 539.071 232.62 549.142 235.594 C 561.464 239.231 573.747 243.007 585.993 246.919 L 588.997 247.881 L 592 246.92 C 603.264 243.324 614.564 239.835 625.895 236.467 C 635.403 233.637 644.937 230.932 654.512 228.362 C 666.834 225.044 679.231 222.004 691.696 219.257 C 700.062 217.409 708.486 215.847 716.961 214.57 C 720.665 214.016 724.386 213.529 728.107 213.125 C 731.047 212.806 734.003 212.563 736.96 212.395 C 740.538 212.185 744.125 212.134 747.703 212.227 C 750.172 212.294 752.625 212.504 755.069 212.857 C 762.393 213.915 769.675 215.276 776.882 216.93 C 783.341 218.417 789.725 220.206 796.008 222.298 C 801.66 224.179 807.212 226.363 812.63 228.832 C 817.535 231.075 822.314 233.611 826.926 236.425 C 831.159 239.004 835.224 241.851 839.096 244.951 C 842.716 247.848 846.135 250.973 849.343 254.316 C 855.366 260.599 860.582 267.612 864.866 275.188 C 866.949 278.867 868.83 282.655 870.51 286.536 C 872.173 290.408 873.66 294.364 874.953 298.371 C 876.255 302.402 877.389 306.476 878.372 310.6 C 879.354 314.741 880.203 318.907 880.925 323.107 C 881.647 327.315 882.269 331.548 882.781 335.79 C 883.294 340.031 883.739 344.281 884.1 348.54 C 884.47 352.765 884.789 356.998 885.066 361.24 C 885.335 365.423 885.587 369.606 885.83 373.788 C 886.049 377.543 886.275 381.306 886.519 385.06 C 886.754 388.722 887.023 392.376 887.334 396.038 C 887.628 399.574 887.989 403.102 888.409 406.63 C 888.812 410.023 889.308 413.408 889.887 416.776 C 890.274 418.943 890.828 421.068 891.567 423.135 C 892.264 425.1 893.079 427.007 894.02 428.863 C 894.918 430.644 895.893 432.391 896.934 434.104 C 897.942 435.759 898.967 437.397 900.017 439.026 C 900.874 440.362 901.714 441.697 902.545 443.041 C 903.36 444.36 904.141 445.704 904.888 447.064 C 905.619 448.408 906.291 449.777 906.904 451.18 C 907.526 452.591 908.055 454.027 908.509 455.497 C 909.197 457.757 909.777 460.05 910.247 462.368 C 910.818 465.173 911.272 468.012 911.616 470.86 C 911.868 472.976 912.061 475.093 912.213 477.218 C 912.372 479.646 912.49 482.081 912.54 484.509 C 912.582 486.281 912.599 488.045 912.591 489.809 C 912.574 491.741 912.54 493.672 912.473 495.604 C 912.431 496.99 912.372 498.385 912.297 499.779 C 912.229 501.257 912.137 502.735 912.036 504.214 C 911.717 508.993 911.28 513.755 910.726 518.509 C 910.062 524.213 909.281 529.899 908.391 535.56 L 907.803 539.298 L 915.27 540.474 L 915.858 536.736 C 916.765 530.974 917.555 525.187 918.235 519.383 C 918.798 514.511 919.251 509.623 919.579 504.726 C 919.68 503.206 919.772 501.685 919.848 500.157 C 919.923 498.721 919.982 497.284 920.032 495.848 C 920.1 493.849 920.133 491.85 920.15 489.851 C 920.158 488.011 920.142 486.172 920.1 484.341 C 920.041 481.787 919.923 479.242 919.755 476.706 C 919.596 474.455 919.386 472.204 919.117 469.961 C 918.756 466.912 918.269 463.88 917.655 460.865 C 917.143 458.311 916.496 455.783 915.74 453.288 C 915.203 451.541 914.564 449.819 913.834 448.148 C 913.128 446.544 912.355 444.973 911.516 443.444 C 910.709 441.966 909.861 440.505 908.979 439.077 C 908.122 437.691 907.257 436.313 906.375 434.936 C 905.359 433.365 904.368 431.778 903.393 430.173 C 902.453 428.636 901.579 427.057 900.764 425.453 C 899.975 423.882 899.278 422.269 898.69 420.615 C 898.093 418.935 897.648 417.222 897.337 415.474 C 896.775 412.241 896.304 408.99 895.91 405.74 C 895.506 402.296 895.154 398.852 894.868 395.4 C 894.566 391.797 894.297 388.185 894.062 384.573 C 893.826 380.835 893.591 377.089 893.381 373.352 C 893.138 369.144 892.877 364.944 892.609 360.744 C 892.323 356.461 892.004 352.168 891.634 347.885 C 891.256 343.542 890.811 339.208 890.282 334.883 C 889.753 330.515 889.114 326.164 888.375 321.83 C 887.628 317.479 886.746 313.145 885.73 308.853 C 884.705 304.536 883.504 300.269 882.143 296.052 C 880.774 291.811 879.212 287.645 877.448 283.546 C 875.667 279.413 873.668 275.381 871.451 271.467 C 866.848 263.345 861.254 255.819 854.803 249.083 C 851.359 245.497 847.697 242.145 843.817 239.046 C 839.693 235.753 835.367 232.721 830.856 229.966 C 825.993 227.001 820.954 224.33 815.771 221.962 C 810.102 219.375 804.306 217.09 798.393 215.124 C 791.883 212.957 785.273 211.101 778.579 209.564 C 771.162 207.859 763.678 206.465 756.153 205.381 C 753.423 204.978 750.668 204.743 747.904 204.676 C 744.116 204.566 740.32 204.625 736.523 204.844 C 733.441 205.02 730.358 205.272 727.292 205.608 C 723.462 206.028 719.641 206.524 715.836 207.095 C 707.193 208.397 698.6 209.992 690.066 211.874 C 677.492 214.654 664.977 217.711 652.546 221.063 C 642.912 223.65 633.303 226.371 623.745 229.219 C 612.121 232.673 600.545 236.254 588.993 239.946 Z " fill="rgb(0,0,0)"/></g></g></g></g></g></svg>