<?xml version="1.0" encoding="UTF-8" standalone="no"?><!-- Generator: Gravit.io --><svg xmlns="http://www.w3.org/2000/svg" xmlns:xlink="http://www.w3.org/1999/xlink" style="isolation:isolate" viewBox="0 0 900 900" width="900pt" height="900pt"><defs><clipPath id="_clipPath_68L2nMnrDi89iIPi7ZfH6oJE409DZB8o"><rect width="900" height="900"/></clipPath></defs><g clip-path="url(#_clipPath_68L2nMnrDi89iIPi7ZfH6oJE409DZB8o)"><rect width="900" height="900" style="fill:rgb(252,246,234)"/><g><path d=" M 539.875 125.133 L 506.048 247.408 C 488.202 242.476 469.406 239.841 450 239.841 C 430.541 239.841 411.696 242.491 393.806 247.448 L 359.89 125.198 C 388.577 117.248 418.796 113 450 113 C 481.119 113 511.258 117.225 539.875 125.133 Z " fill="rgb(255,56,42)"/><path d=" M 689.463 212.922 L 599.333 302.155 C 573.895 276.473 541.886 257.31 506.048 247.408 L 539.875 125.133 C 597.343 141.012 648.672 171.741 689.463 212.922 Z " fill="rgb(255,99,40)"/><path d=" M 776.255 365.066 L 653.458 397.034 C 643.994 360.646 625.012 328.079 599.333 302.155 L 689.463 212.922 C 730.64 254.494 761.079 306.716 776.255 365.066 Z " fill="rgb(255,162,10)"/><path d=" M 776.255 365.066 L 653.458 397.034 C 657.859 413.957 660.202 431.707 660.202 450 C 660.202 468.304 657.857 486.064 653.45 502.997 L 776.242 534.983 C 783.309 507.831 787.07 479.351 787.07 450 C 787.07 420.667 783.313 392.203 776.255 365.066 Z " fill="rgb(255,195,75)"/><path d=" M 776.242 534.983 L 653.45 502.997 C 643.937 539.549 624.82 572.244 598.959 598.222 L 688.863 687.682 C 730.333 646.024 760.988 593.596 776.242 534.983 Z " fill="rgb(246,235,43)"/><path d=" M 688.863 687.682 L 598.959 598.222 C 573.409 623.888 541.276 642.997 505.319 652.793 L 538.706 775.188 C 596.365 759.481 647.892 728.838 688.863 687.682 Z " fill="rgb(203,221,54)"/><path d=" M 538.706 775.188 L 505.319 652.793 C 487.69 657.595 469.142 660.159 450 660.159 C 430.652 660.159 411.91 657.539 394.112 652.637 L 360.381 774.938 C 388.921 782.8 418.974 787 450 787 C 480.695 787 510.438 782.889 538.706 775.188 Z " fill="rgb(86,180,78)"/><path d=" M 360.381 774.938 L 394.112 652.637 C 358.628 642.862 326.891 624.011 301.561 598.742 L 211.97 688.516 C 252.589 729.035 303.48 759.264 360.381 774.938 Z " fill="rgb(0,147,211)"/><path d=" M 211.97 688.516 L 301.561 598.742 C 275.601 572.846 256.371 540.209 246.733 503.695 L 124.051 536.102 C 139.506 594.655 170.343 646.99 211.97 688.516 Z " fill="rgb(80,101,180)"/><path d=" M 124.099 363.717 L 246.763 396.192 C 242.219 413.369 239.798 431.404 239.798 450 C 239.798 468.555 242.208 486.552 246.733 503.695 L 124.051 536.102 C 116.796 508.614 112.93 479.755 112.93 450 C 112.93 420.18 116.813 391.26 124.099 363.717 Z " fill="rgb(97,59,156)"/><path d=" M 209.389 214.087 L 299.951 302.881 C 274.832 328.485 256.21 360.482 246.763 396.192 L 124.099 363.717 C 139.248 306.454 169.11 255.145 209.389 214.087 Z " fill="rgb(153,69,161)"/><path d=" M 359.89 125.198 L 393.806 247.448 C 357.69 257.456 325.469 276.87 299.951 302.881 L 209.389 214.087 C 250.308 172.377 301.977 141.246 359.89 125.198 Z " fill="rgb(222,0,77)"/></g></g></svg>