<?xml version="1.0" encoding="UTF-8" standalone="no"?><!-- Generator: Gravit.io --><svg xmlns="http://www.w3.org/2000/svg" xmlns:xlink="http://www.w3.org/1999/xlink" style="isolation:isolate" viewBox="0 0 512 512" width="512pt" height="512pt"><defs><clipPath id="_clipPath_siZuc33x56P2J8jBrlw9fPkR8xpaJXFR"><rect width="512" height="512"/></clipPath></defs><g clip-path="url(#_clipPath_siZuc33x56P2J8jBrlw9fPkR8xpaJXFR)"><rect x="0" y="0" width="512" height="512" transform="matrix(1,0,0,1,0,0)" fill="rgb(248,226,224)"/><g><path d=" M 358.241 212.856 C 373.945 240.269 382.917 272.03 382.917 305.887 L 382.917 305.887 C 382.917 340.075 373.768 372.127 357.779 399.723 C 323.924 433.1 277.436 453.697 226.139 453.697 C 218.426 453.697 210.762 453.222 203.187 452.279 C 198.056 435.067 195.386 417.056 195.386 398.771 C 195.386 303.565 266.331 224.93 358.241 212.856 Z " fill="rgb(255,255,255)"/><path d=" M 153.759 212.856 C 138.055 240.269 129.083 272.03 129.083 305.887 L 129.083 305.887 C 129.083 340.075 138.232 372.127 154.221 399.723 C 188.076 433.1 234.564 453.697 285.861 453.697 C 293.574 453.697 301.238 453.222 308.813 452.279 C 313.944 435.067 316.614 417.056 316.614 398.771 C 316.614 303.565 245.669 224.93 153.759 212.856 Z " fill="rgb(255,255,255)"/><path d=" M 221.706 474.038 C 218.733 471.419 215.834 468.7 213.016 465.881 C 177.847 430.713 158.089 383.013 158.089 333.277 C 158.089 326.248 158.476 319.309 159.232 312.482 C 198.24 346.846 222.849 397.169 222.849 453.241 L 222.849 453.241 C 222.849 460.271 222.462 467.21 221.706 474.038 Z " fill="rgb(255,255,255)"/><path d=" M 290.294 473.763 C 293.267 471.144 296.166 468.425 298.984 465.607 C 334.153 430.438 353.911 382.738 353.911 333.002 C 353.911 325.973 353.524 319.034 352.768 312.207 C 313.76 346.571 289.151 396.895 289.151 452.966 L 289.151 452.966 C 289.151 459.996 289.538 466.935 290.294 473.763 Z " fill="rgb(255,255,255)"/><path d=" M 255.86 506.491 C 257.695 502.979 259.424 499.401 261.043 495.759 C 281.248 450.312 282.571 398.699 264.721 352.276 C 262.198 345.715 259.347 339.378 256.191 333.277 C 232.115 379.35 227.206 435.154 247.329 487.49 L 247.329 487.49 C 249.852 494.051 252.704 500.389 255.86 506.491 Z " fill="rgb(255,255,255)"/><path d=" M 392.503 312.593 C 392.503 377.324 340.028 429.8 275.296 429.8 C 244.211 429.8 214.399 417.451 192.419 395.471 C 170.438 373.49 158.089 343.678 158.089 312.593 C 158.089 281.507 170.438 251.695 192.419 229.715 C 214.399 207.734 244.211 195.386 275.296 195.386 C 340.028 195.386 392.503 247.861 392.503 312.593 L 392.503 312.593 Z " fill="rgb(255,255,255)"/><path d=" M 355.794 312.207 C 355.794 376.939 303.318 429.414 238.586 429.414 C 207.501 429.414 177.689 417.066 155.709 395.085 C 133.728 373.104 121.379 343.292 121.379 312.207 C 121.379 281.122 133.728 251.31 155.709 229.329 C 177.689 207.349 207.501 195 238.586 195 C 303.318 195 355.794 247.475 355.794 312.207 L 355.794 312.207 Z " fill="rgb(255,255,255)"/><g><g><path d=" M 406.38 261.759 C 363.033 292.655 308.096 303.775 256 291.954 C 297.972 296.049 340.4 285.844 375.957 262.942 C 386.142 263.38 396.318 262.979 406.38 261.759 Z " fill="rgb(255,255,255)"/><path d=" M 406.001 261.487 C 378.813 307.251 333.037 339.599 280.602 349.81 C 320.656 336.616 355.356 310.154 378.644 274.849 C 388.139 271.139 397.288 266.665 406.001 261.487 Z " fill="rgb(255,255,255)"/></g><g><path d=" M 406.38 286.822 C 363.033 317.718 308.096 328.838 256 317.016 C 297.972 321.111 340.4 310.906 375.957 288.004 C 386.142 288.443 396.318 288.042 406.38 286.822 Z " fill="rgb(255,255,255)"/><path d=" M 406.001 286.55 C 378.813 332.313 333.037 364.662 280.602 374.873 C 320.656 361.679 355.356 335.217 378.644 299.911 C 388.139 296.202 397.288 291.728 406.001 286.55 Z " fill="rgb(255,255,255)"/></g><g><path d=" M 424.586 305.921 C 381.239 336.817 326.301 347.937 274.206 336.115 C 316.178 340.21 358.606 330.005 394.163 307.103 C 404.347 307.542 414.524 307.141 424.586 305.921 Z " fill="rgb(255,255,255)"/><path d=" M 424.207 305.649 C 397.018 351.412 351.243 383.761 298.808 393.972 C 338.862 380.778 373.561 354.316 396.85 319.01 C 406.345 315.301 415.493 310.827 424.207 305.649 Z " fill="rgb(255,255,255)"/></g><g><path d=" M 409.692 343.849 C 366.345 374.746 311.408 385.866 259.312 374.044 C 301.284 378.139 343.712 367.934 379.269 345.032 C 389.454 345.471 399.63 345.07 409.692 343.849 Z " fill="rgb(255,255,255)"/><path d=" M 409.313 343.578 C 382.125 389.341 336.349 421.69 283.914 431.901 C 323.968 418.707 358.668 392.245 381.956 356.939 C 391.451 353.23 400.6 348.755 409.313 343.578 Z " fill="rgb(255,255,255)"/></g><path d=" M 396.279 329.09 C 396.279 342.037 385.784 352.532 372.837 352.532 C 359.891 352.532 349.396 342.037 349.396 329.09 C 349.396 316.144 359.891 305.649 372.837 305.649 C 385.784 305.649 396.279 316.144 396.279 329.09 L 396.279 329.09 Z " fill="rgb(255,255,255)"/></g><g><g><path d=" M 105.62 261.759 C 148.967 292.655 203.904 303.775 256 291.954 C 214.028 296.049 171.6 285.844 136.042 262.942 C 125.858 263.38 115.682 262.979 105.62 261.759 Z " fill="rgb(255,255,255)"/><path d=" M 105.998 261.487 C 133.187 307.251 178.963 339.599 231.398 349.81 C 191.344 336.616 156.644 310.154 133.356 274.849 C 123.861 271.139 114.712 266.665 105.998 261.487 Z " fill="rgb(255,255,255)"/></g><g><path d=" M 105.62 286.822 C 148.967 317.718 203.904 328.838 256 317.016 C 214.028 321.111 171.6 310.906 136.042 288.004 C 125.858 288.443 115.682 288.042 105.62 286.822 Z " fill="rgb(255,255,255)"/><path d=" M 105.998 286.55 C 133.187 332.313 178.963 364.662 231.398 374.873 C 191.344 361.679 156.644 335.217 133.356 299.911 C 123.861 296.202 114.712 291.728 105.998 286.55 Z " fill="rgb(255,255,255)"/></g><g><path d=" M 87.414 305.921 C 130.761 336.817 185.699 347.937 237.794 336.115 C 195.822 340.21 153.394 330.005 117.837 307.103 C 107.653 307.542 97.476 307.141 87.414 305.921 Z " fill="rgb(255,255,255)"/><path d=" M 87.793 305.649 C 114.982 351.412 160.757 383.761 213.192 393.972 C 173.138 380.778 138.439 354.316 115.15 319.01 C 105.655 315.301 96.507 310.827 87.793 305.649 Z " fill="rgb(255,255,255)"/></g><g><path d=" M 102.308 343.849 C 145.655 374.746 200.592 385.866 252.688 374.044 C 210.716 378.139 168.288 367.934 132.731 345.032 C 122.546 345.471 112.37 345.07 102.308 343.849 Z " fill="rgb(255,255,255)"/><path d=" M 102.686 343.578 C 129.875 389.341 175.651 421.69 228.086 431.901 C 188.032 418.707 153.332 392.245 130.044 356.939 C 120.549 353.23 111.4 348.755 102.686 343.578 Z " fill="rgb(255,255,255)"/></g><path d=" M 115.721 329.09 C 115.721 342.037 126.216 352.532 139.163 352.532 C 152.109 352.532 162.604 342.037 162.604 329.09 C 162.604 316.144 152.109 305.649 139.163 305.649 C 126.216 305.649 115.721 316.144 115.721 329.09 L 115.721 329.09 Z " fill="rgb(255,255,255)"/></g><path d=" M 412.778 238.883 C 372.375 273.54 318.655 289.54 265.71 282.436 C 307.88 282.752 349.222 268.785 382.584 242.788 C 392.766 242.312 402.866 241 412.778 238.883 Z " fill="rgb(247,150,31)"/><path d=" M 99.588 238.883 C 139.991 273.54 193.711 289.54 246.656 282.436 C 204.486 282.752 163.144 268.785 129.782 242.788 C 119.6 242.312 109.5 241 99.588 238.883 Z " fill="rgb(247,150,31)"/><path d=" M 142.278 234.676 C 147.353 214.176 157.94 195.257 173.122 180.075 C 195.103 158.094 224.915 145.745 256 145.745 C 310.98 145.745 357.118 183.601 369.753 234.676 C 357.118 285.752 310.98 323.607 256 323.607 C 224.915 323.607 195.103 311.258 173.122 289.278 C 157.94 274.095 147.353 255.177 142.278 234.676 Z " fill="rgb(247,150,31)"/><path d=" M 230.63 221.941 C 230.794 220.798 230.883 219.63 230.883 218.441 L 230.883 218.441 C 230.883 205.495 220.388 195 207.441 195 C 194.495 195 184 205.495 184 218.441 C 184 219.63 184.088 220.798 184.253 221.941 C 185.948 210.656 195.684 202 207.441 202 C 219.199 202 228.935 210.656 230.63 221.941 Z " fill="rgb(0,0,0)"/><path d=" M 329.63 221.941 C 329.794 220.798 329.883 219.63 329.883 218.441 L 329.883 218.441 C 329.883 205.495 319.388 195 306.441 195 C 293.495 195 283 205.495 283 218.441 C 283 219.63 283.088 220.798 283.253 221.941 C 284.948 210.656 294.684 202 306.441 202 C 318.199 202 327.935 210.656 329.63 221.941 Z " fill="rgb(0,0,0)"/><path d=" M 169.428 267.58 C 148.861 258.346 129.935 245.386 113.686 229.136 C 78.517 193.967 58.759 146.268 58.759 96.531 C 58.759 70.781 63.949 46.243 73.348 23.91 C 138.584 53.26 184 118.826 184 195 L 184 195 C 184 220.735 178.816 245.258 169.428 267.58 Z " fill="rgb(247,150,31)"/><path d=" M 344.455 267.58 C 365.022 258.346 383.947 245.386 400.197 229.136 C 435.366 193.967 455.124 146.268 455.124 96.531 C 455.124 70.781 449.934 46.243 440.535 23.91 C 375.299 53.26 329.883 118.826 329.883 195 L 329.883 195 C 329.883 220.735 335.067 245.258 344.455 267.58 Z " fill="rgb(247,150,31)"/><path d=" M 256.414 356.6 C 242.677 333.958 233.759 308.445 230.548 281.643 C 225.597 240.322 234.551 198.771 255.619 163.4 C 290.955 221.658 292.442 296.245 256.414 356.6 Z " fill="rgb(255,255,255)"/><path d=" M 303.824 327.277 C 303.824 339.711 298.885 351.636 290.093 360.428 C 281.3 369.22 269.376 374.16 256.941 374.16 C 244.507 374.16 232.582 369.22 223.79 360.428 C 214.998 351.636 210.059 339.711 210.059 327.277 C 210.059 301.384 231.049 280.394 256.941 280.394 C 282.834 280.394 303.824 301.384 303.824 327.277 L 303.824 327.277 Z " fill="rgb(255,255,255)" vector-effect="non-scaling-stroke" stroke-width="1" stroke="rgb(204,204,204)" stroke-linejoin="round" stroke-linecap="butt" stroke-miterlimit="4"/><path d=" M 302.883 310.114 C 302.883 322.548 297.943 334.473 289.151 343.265 C 280.359 352.057 268.434 356.997 256 356.997 C 243.566 356.997 231.641 352.057 222.849 343.265 C 214.057 334.473 209.117 322.548 209.117 310.114 C 209.117 284.221 230.107 263.231 256 263.231 C 281.893 263.231 302.883 284.221 302.883 310.114 L 302.883 310.114 Z " fill="rgb(247,150,31)"/><path d=" M 248.949 323.223 C 250.888 322.708 252.901 322.442 254.941 322.442 C 257.624 322.442 260.202 322.892 262.6 323.729 C 268.964 331.732 272.766 341.863 272.766 352.883 L 272.766 352.883 C 272.766 356.006 272.454 359.096 271.839 362.111 C 267.583 366.561 261.585 369.324 254.941 369.324 C 249.291 369.324 243.851 367.284 239.612 363.603 C 238.789 360.118 238.366 356.522 238.366 352.883 C 238.366 341.628 242.332 331.299 248.949 323.223 Z " fill="rgb(240,175,188)"/><g><g><path d=" M 222.849 308.207 C 222.849 321.154 212.354 331.649 199.407 331.649 C 186.461 331.649 175.966 321.154 175.966 308.207 C 175.966 295.261 186.461 284.766 199.407 284.766 C 212.354 284.766 222.849 295.261 222.849 308.207 L 222.849 308.207 Z " fill="rgb(206,206,206)"/><path d=" M 222.849 314.835 C 222.849 327.782 212.354 338.277 199.407 338.277 C 186.461 338.277 175.966 327.782 175.966 314.835 C 175.966 301.889 186.461 291.394 199.407 291.394 C 212.354 291.394 222.849 301.889 222.849 314.835 L 222.849 314.835 Z " fill="rgb(206,206,206)"/><path d=" M 230.883 320.824 C 230.883 333.77 220.388 344.265 207.441 344.265 C 194.495 344.265 184 333.77 184 320.824 C 184 307.877 194.495 297.382 207.441 297.382 C 220.388 297.382 230.883 307.877 230.883 320.824 L 230.883 320.824 Z " fill="rgb(206,206,206)"/><path d=" M 238.586 323.441 C 238.586 336.388 228.091 346.883 215.145 346.883 C 202.199 346.883 191.704 336.388 191.704 323.441 C 191.704 310.495 202.199 300 215.145 300 C 228.091 300 238.586 310.495 238.586 323.441 L 238.586 323.441 Z " fill="rgb(206,206,206)"/><path d=" M 246.29 323.441 C 246.29 336.388 235.795 346.883 222.849 346.883 C 209.902 346.883 199.407 336.388 199.407 323.441 C 199.407 310.495 209.902 300 222.849 300 C 235.795 300 246.29 310.495 246.29 323.441 L 246.29 323.441 Z " fill="rgb(206,206,206)"/><path d=" M 254.324 317.593 C 254.324 330.539 243.829 341.034 230.883 341.034 C 217.937 341.034 207.441 330.539 207.441 317.593 C 207.441 304.646 217.937 294.151 230.883 294.151 C 243.829 294.151 254.324 304.646 254.324 317.593 L 254.324 317.593 Z " fill="rgb(206,206,206)"/><path d=" M 259.899 311.114 C 259.899 324.06 249.404 334.555 236.457 334.555 C 223.511 334.555 213.016 324.06 213.016 311.114 C 213.016 298.168 223.511 287.673 236.457 287.673 C 249.404 287.673 259.899 298.168 259.899 311.114 L 259.899 311.114 Z " fill="rgb(206,206,206)"/><path d=" M 234.786 293.766 C 234.786 306.712 224.291 317.207 211.344 317.207 C 198.398 317.207 187.903 306.712 187.903 293.766 C 187.903 280.819 198.398 270.324 211.344 270.324 C 224.291 270.324 234.786 280.819 234.786 293.766 L 234.786 293.766 Z " fill="rgb(206,206,206)"/><path d=" M 242.268 284.766 C 242.268 297.712 231.773 308.207 218.827 308.207 C 205.881 308.207 195.386 297.712 195.386 284.766 C 195.386 271.819 205.881 261.324 218.827 261.324 C 231.773 261.324 242.268 271.819 242.268 284.766 L 242.268 284.766 Z " fill="rgb(206,206,206)"/><path d=" M 227.68 301.441 C 227.68 314.388 217.185 324.883 204.238 324.883 C 191.292 324.883 180.797 314.388 180.797 301.441 C 180.797 288.495 191.292 278 204.238 278 C 217.185 278 227.68 288.495 227.68 301.441 L 227.68 301.441 Z " fill="rgb(206,206,206)"/><path d=" M 251.121 276.559 C 251.121 289.505 240.626 300 227.68 300 C 214.733 300 204.238 289.505 204.238 276.559 C 204.238 263.612 214.733 253.117 227.68 253.117 C 240.626 253.117 251.121 263.612 251.121 276.559 L 251.121 276.559 Z " fill="rgb(206,206,206)"/><path d=" M 258.227 270.71 C 258.227 283.656 247.732 294.151 234.786 294.151 C 221.84 294.151 211.344 283.656 211.344 270.71 C 211.344 257.763 221.84 247.268 234.786 247.268 C 247.732 247.268 258.227 257.763 258.227 270.71 L 258.227 270.71 Z " fill="rgb(206,206,206)"/><path d=" M 262.028 266.487 C 262.028 279.433 251.533 289.928 238.586 289.928 C 225.64 289.928 215.145 279.433 215.145 266.487 C 215.145 253.541 225.64 243.046 238.586 243.046 C 251.533 243.046 262.028 253.541 262.028 266.487 L 262.028 266.487 Z " fill="rgb(206,206,206)"/><path d=" M 267.593 261 C 267.593 273.946 257.098 284.441 244.151 284.441 C 231.205 284.441 220.71 273.946 220.71 261 C 220.71 248.054 231.205 237.559 244.151 237.559 C 257.098 237.559 267.593 248.054 267.593 261 L 267.593 261 Z " fill="rgb(206,206,206)"/><path d=" M 274.563 254.559 C 274.563 267.505 264.068 278 251.121 278 C 238.175 278 227.68 267.505 227.68 254.559 C 227.68 241.612 238.175 231.117 251.121 231.117 C 264.068 231.117 274.563 241.612 274.563 254.559 L 274.563 254.559 Z " fill="rgb(206,206,206)"/><path d=" M 274.563 273.941 C 274.563 286.887 264.068 297.382 251.121 297.382 C 238.175 297.382 227.68 286.887 227.68 273.941 C 227.68 260.995 238.175 250.499 251.121 250.499 C 264.068 250.499 274.563 260.995 274.563 273.941 L 274.563 273.941 Z " fill="rgb(206,206,206)"/><path d=" M 275.296 289.928 C 275.296 302.875 264.801 313.37 251.855 313.37 C 238.909 313.37 228.414 302.875 228.414 289.928 C 228.414 276.982 238.909 266.487 251.855 266.487 C 264.801 266.487 275.296 276.982 275.296 289.928 L 275.296 289.928 Z " fill="rgb(206,206,206)"/><path d=" M 274.563 301.441 C 274.563 314.388 264.068 324.883 251.121 324.883 C 238.175 324.883 227.68 314.388 227.68 301.441 C 227.68 288.495 238.175 278 251.121 278 C 264.068 278 274.563 288.495 274.563 301.441 L 274.563 301.441 Z " fill="rgb(206,206,206)"/><path d=" M 259.899 311.114 C 259.899 324.06 249.404 334.555 236.457 334.555 C 223.511 334.555 213.016 324.06 213.016 311.114 C 213.016 298.168 223.511 287.673 236.457 287.673 C 249.404 287.673 259.899 298.168 259.899 311.114 L 259.899 311.114 Z " fill="rgb(206,206,206)"/><path d=" M 246.29 323.441 C 246.29 336.388 235.795 346.883 222.849 346.883 C 209.902 346.883 199.407 336.388 199.407 323.441 C 199.407 310.495 209.902 300 222.849 300 C 235.795 300 246.29 310.495 246.29 323.441 L 246.29 323.441 Z " fill="rgb(206,206,206)"/><path d=" M 291.034 308.207 C 291.034 321.154 301.529 331.649 314.476 331.649 C 327.422 331.649 337.917 321.154 337.917 308.207 C 337.917 295.261 327.422 284.766 314.476 284.766 C 301.529 284.766 291.034 295.261 291.034 308.207 L 291.034 308.207 Z " fill="rgb(206,206,206)"/><path d=" M 291.034 314.835 C 291.034 327.782 301.529 338.277 314.476 338.277 C 327.422 338.277 337.917 327.782 337.917 314.835 C 337.917 301.889 327.422 291.394 314.476 291.394 C 301.529 291.394 291.034 301.889 291.034 314.835 L 291.034 314.835 Z " fill="rgb(206,206,206)"/><path d=" M 283 320.824 C 283 333.77 293.495 344.265 306.441 344.265 C 319.388 344.265 329.883 333.77 329.883 320.824 C 329.883 307.877 319.388 297.382 306.441 297.382 C 293.495 297.382 283 307.877 283 320.824 L 283 320.824 Z " fill="rgb(206,206,206)"/><path d=" M 275.296 323.441 C 275.296 336.388 285.792 346.883 298.738 346.883 C 311.684 346.883 322.179 336.388 322.179 323.441 C 322.179 310.495 311.684 300 298.738 300 C 285.792 300 275.296 310.495 275.296 323.441 L 275.296 323.441 Z " fill="rgb(206,206,206)"/><path d=" M 267.593 323.441 C 267.593 336.388 278.088 346.883 291.034 346.883 C 303.98 346.883 314.476 336.388 314.476 323.441 C 314.476 310.495 303.98 300 291.034 300 C 278.088 300 267.593 310.495 267.593 323.441 L 267.593 323.441 Z " fill="rgb(206,206,206)"/><path d=" M 259.559 317.593 C 259.559 330.539 270.054 341.034 283 341.034 C 295.946 341.034 306.441 330.539 306.441 317.593 C 306.441 304.646 295.946 294.151 283 294.151 C 270.054 294.151 259.559 304.646 259.559 317.593 L 259.559 317.593 Z " fill="rgb(206,206,206)"/><path d=" M 253.984 311.114 C 253.984 324.06 264.479 334.555 277.425 334.555 C 290.372 334.555 300.867 324.06 300.867 311.114 C 300.867 298.168 290.372 287.673 277.425 287.673 C 264.479 287.673 253.984 298.168 253.984 311.114 L 253.984 311.114 Z " fill="rgb(206,206,206)"/><path d=" M 279.097 293.766 C 279.097 306.712 289.592 317.207 302.538 317.207 C 315.485 317.207 325.98 306.712 325.98 293.766 C 325.98 280.819 315.485 270.324 302.538 270.324 C 289.592 270.324 279.097 280.819 279.097 293.766 L 279.097 293.766 Z " fill="rgb(206,206,206)"/><path d=" M 271.614 284.766 C 271.614 297.712 282.11 308.207 295.056 308.207 C 308.002 308.207 318.497 297.712 318.497 284.766 C 318.497 271.819 308.002 261.324 295.056 261.324 C 282.11 261.324 271.614 271.819 271.614 284.766 L 271.614 284.766 Z " fill="rgb(206,206,206)"/><path d=" M 286.203 301.441 C 286.203 314.388 296.698 324.883 309.645 324.883 C 322.591 324.883 333.086 314.388 333.086 301.441 C 333.086 288.495 322.591 278 309.645 278 C 296.698 278 286.203 288.495 286.203 301.441 L 286.203 301.441 Z " fill="rgb(206,206,206)"/><path d=" M 262.762 276.559 C 262.762 289.505 273.257 300 286.203 300 C 299.149 300 309.644 289.505 309.644 276.559 C 309.644 263.612 299.149 253.117 286.203 253.117 C 273.257 253.117 262.762 263.612 262.762 276.559 L 262.762 276.559 Z " fill="rgb(206,206,206)"/><path d=" M 255.656 270.71 C 255.656 283.656 266.151 294.151 279.097 294.151 C 292.043 294.151 302.538 283.656 302.538 270.71 C 302.538 257.763 292.043 247.268 279.097 247.268 C 266.151 247.268 255.656 257.763 255.656 270.71 L 255.656 270.71 Z " fill="rgb(206,206,206)"/><path d=" M 251.855 266.487 C 251.855 279.433 262.35 289.928 275.296 289.928 C 288.243 289.928 298.738 279.433 298.738 266.487 C 298.738 253.541 288.243 243.046 275.296 243.046 C 262.35 243.046 251.855 253.541 251.855 266.487 L 251.855 266.487 Z " fill="rgb(206,206,206)"/><path d=" M 246.29 261 C 246.29 273.946 256.785 284.441 269.732 284.441 C 282.678 284.441 293.173 273.946 293.173 261 C 293.173 248.054 282.678 237.559 269.732 237.559 C 256.785 237.559 246.29 248.054 246.29 261 L 246.29 261 Z " fill="rgb(206,206,206)"/><path d=" M 239.32 254.559 C 239.32 267.505 249.815 278 262.762 278 C 275.708 278 286.203 267.505 286.203 254.559 C 286.203 241.612 275.708 231.117 262.762 231.117 C 249.815 231.117 239.32 241.612 239.32 254.559 L 239.32 254.559 Z " fill="rgb(206,206,206)"/><path d=" M 239.32 273.941 C 239.32 286.887 249.815 297.382 262.762 297.382 C 275.708 297.382 286.203 286.887 286.203 273.941 C 286.203 260.995 275.708 250.499 262.762 250.499 C 249.815 250.499 239.32 260.995 239.32 273.941 L 239.32 273.941 Z " fill="rgb(206,206,206)"/><path d=" M 238.586 289.928 C 238.587 302.875 249.082 313.37 262.028 313.37 C 274.974 313.37 285.469 302.875 285.469 289.928 C 285.469 276.982 274.974 266.487 262.028 266.487 C 249.082 266.487 238.587 276.982 238.586 289.928 L 238.586 289.928 Z " fill="rgb(206,206,206)"/><path d=" M 239.32 301.441 C 239.32 314.388 249.815 324.883 262.762 324.883 C 275.708 324.883 286.203 314.388 286.203 301.441 C 286.203 288.495 275.708 278 262.762 278 C 249.815 278 239.32 288.495 239.32 301.441 L 239.32 301.441 Z " fill="rgb(206,206,206)"/><path d=" M 253.984 311.114 C 253.984 324.06 264.479 334.555 277.425 334.555 C 290.372 334.555 300.867 324.06 300.867 311.114 C 300.867 298.168 290.372 287.673 277.425 287.673 C 264.479 287.673 253.984 298.168 253.984 311.114 L 253.984 311.114 Z " fill="rgb(206,206,206)"/><path d=" M 267.593 323.441 C 267.593 336.388 278.088 346.883 291.034 346.883 C 303.98 346.883 314.476 336.388 314.476 323.441 C 314.476 310.495 303.98 300 291.034 300 C 278.088 300 267.593 310.495 267.593 323.441 L 267.593 323.441 Z " fill="rgb(206,206,206)"/></g><g><path d=" M 220.849 307.207 C 220.849 320.154 210.354 330.649 197.407 330.649 C 184.461 330.649 173.966 320.154 173.966 307.207 C 173.966 294.261 184.461 283.766 197.407 283.766 C 210.354 283.766 220.849 294.261 220.849 307.207 L 220.849 307.207 Z " fill="rgb(206,206,206)"/><path d=" M 220.849 313.835 C 220.849 326.782 210.354 337.277 197.407 337.277 C 184.461 337.277 173.966 326.782 173.966 313.835 C 173.966 300.889 184.461 290.394 197.407 290.394 C 210.354 290.394 220.849 300.889 220.849 313.835 L 220.849 313.835 Z " fill="rgb(206,206,206)"/><path d=" M 228.883 319.824 C 228.883 332.77 218.388 343.265 205.441 343.265 C 192.495 343.265 182 332.77 182 319.824 C 182 306.877 192.495 296.382 205.441 296.382 C 218.388 296.382 228.883 306.877 228.883 319.824 L 228.883 319.824 Z " fill="rgb(206,206,206)"/><path d=" M 236.586 322.441 C 236.586 335.388 226.091 345.883 213.145 345.883 C 200.199 345.883 189.704 335.388 189.704 322.441 C 189.704 309.495 200.199 299 213.145 299 C 226.091 299 236.586 309.495 236.586 322.441 L 236.586 322.441 Z " fill="rgb(206,206,206)"/><path d=" M 244.29 322.441 C 244.29 335.388 233.795 345.883 220.849 345.883 C 207.902 345.883 197.407 335.388 197.407 322.441 C 197.407 309.495 207.902 299 220.849 299 C 233.795 299 244.29 309.495 244.29 322.441 L 244.29 322.441 Z " fill="rgb(206,206,206)"/><path d=" M 252.324 316.593 C 252.324 329.539 241.829 340.034 228.883 340.034 C 215.937 340.034 205.441 329.539 205.441 316.593 C 205.441 303.646 215.937 293.151 228.883 293.151 C 241.829 293.151 252.324 303.646 252.324 316.593 L 252.324 316.593 Z " fill="rgb(206,206,206)"/><path d=" M 257.899 310.114 C 257.899 323.06 247.404 333.555 234.457 333.555 C 221.511 333.555 211.016 323.06 211.016 310.114 C 211.016 297.168 221.511 286.673 234.457 286.673 C 247.404 286.673 257.899 297.168 257.899 310.114 L 257.899 310.114 Z " fill="rgb(206,206,206)"/><path d=" M 232.786 292.766 C 232.786 305.712 222.291 316.207 209.344 316.207 C 196.398 316.207 185.903 305.712 185.903 292.766 C 185.903 279.819 196.398 269.324 209.344 269.324 C 222.291 269.324 232.786 279.819 232.786 292.766 L 232.786 292.766 Z " fill="rgb(206,206,206)"/><path d=" M 240.268 283.766 C 240.268 296.712 229.773 307.207 216.827 307.207 C 203.881 307.207 193.386 296.712 193.386 283.766 C 193.386 270.819 203.881 260.324 216.827 260.324 C 229.773 260.324 240.268 270.819 240.268 283.766 L 240.268 283.766 Z " fill="rgb(206,206,206)"/><path d=" M 225.68 300.441 C 225.68 313.388 215.185 323.883 202.238 323.883 C 189.292 323.883 178.797 313.388 178.797 300.441 C 178.797 287.495 189.292 277 202.238 277 C 215.185 277 225.68 287.495 225.68 300.441 L 225.68 300.441 Z " fill="rgb(206,206,206)"/><path d=" M 249.121 275.559 C 249.121 288.505 238.626 299 225.68 299 C 212.733 299 202.238 288.505 202.238 275.559 C 202.238 262.612 212.733 252.117 225.68 252.117 C 238.626 252.117 249.121 262.612 249.121 275.559 L 249.121 275.559 Z " fill="rgb(206,206,206)"/><path d=" M 256.227 269.71 C 256.227 282.656 245.732 293.151 232.786 293.151 C 219.84 293.151 209.344 282.656 209.344 269.71 C 209.344 256.763 219.84 246.268 232.786 246.268 C 245.732 246.268 256.227 256.763 256.227 269.71 L 256.227 269.71 Z " fill="rgb(206,206,206)"/><path d=" M 260.028 265.487 C 260.028 278.433 249.533 288.928 236.586 288.928 C 223.64 288.928 213.145 278.433 213.145 265.487 C 213.145 252.541 223.64 242.046 236.586 242.046 C 249.533 242.046 260.028 252.541 260.028 265.487 L 260.028 265.487 Z " fill="rgb(206,206,206)"/><path d=" M 265.593 260 C 265.593 272.946 255.098 283.441 242.151 283.441 C 229.205 283.441 218.71 272.946 218.71 260 C 218.71 247.054 229.205 236.559 242.151 236.559 C 255.098 236.559 265.593 247.054 265.593 260 L 265.593 260 Z " fill="rgb(206,206,206)"/><path d=" M 272.563 253.559 C 272.563 266.505 262.068 277 249.121 277 C 236.175 277 225.68 266.505 225.68 253.559 C 225.68 240.612 236.175 230.117 249.121 230.117 C 262.068 230.117 272.563 240.612 272.563 253.559 L 272.563 253.559 Z " fill="rgb(206,206,206)"/><path d=" M 272.563 272.941 C 272.563 285.887 262.068 296.382 249.121 296.382 C 236.175 296.382 225.68 285.887 225.68 272.941 C 225.68 259.995 236.175 249.499 249.121 249.499 C 262.068 249.499 272.563 259.995 272.563 272.941 L 272.563 272.941 Z " fill="rgb(206,206,206)"/><path d=" M 273.296 288.928 C 273.296 301.875 262.801 312.37 249.855 312.37 C 236.909 312.37 226.414 301.875 226.414 288.928 C 226.414 275.982 236.909 265.487 249.855 265.487 C 262.801 265.487 273.296 275.982 273.296 288.928 L 273.296 288.928 Z " fill="rgb(206,206,206)"/><path d=" M 272.563 300.441 C 272.563 313.388 262.068 323.883 249.121 323.883 C 236.175 323.883 225.68 313.388 225.68 300.441 C 225.68 287.495 236.175 277 249.121 277 C 262.068 277 272.563 287.495 272.563 300.441 L 272.563 300.441 Z " fill="rgb(206,206,206)"/><path d=" M 257.899 310.114 C 257.899 323.06 247.404 333.555 234.457 333.555 C 221.511 333.555 211.016 323.06 211.016 310.114 C 211.016 297.168 221.511 286.673 234.457 286.673 C 247.404 286.673 257.899 297.168 257.899 310.114 L 257.899 310.114 Z " fill="rgb(206,206,206)"/><path d=" M 244.29 322.441 C 244.29 335.388 233.795 345.883 220.849 345.883 C 207.902 345.883 197.407 335.388 197.407 322.441 C 197.407 309.495 207.902 299 220.849 299 C 233.795 299 244.29 309.495 244.29 322.441 L 244.29 322.441 Z " fill="rgb(206,206,206)"/><path d=" M 289.034 307.207 C 289.034 320.154 299.529 330.649 312.476 330.649 C 325.422 330.649 335.917 320.154 335.917 307.207 C 335.917 294.261 325.422 283.766 312.476 283.766 C 299.529 283.766 289.034 294.261 289.034 307.207 L 289.034 307.207 Z " fill="rgb(206,206,206)"/><path d=" M 289.034 313.835 C 289.034 326.782 299.529 337.277 312.476 337.277 C 325.422 337.277 335.917 326.782 335.917 313.835 C 335.917 300.889 325.422 290.394 312.476 290.394 C 299.529 290.394 289.034 300.889 289.034 313.835 L 289.034 313.835 Z " fill="rgb(206,206,206)"/><path d=" M 281 319.824 C 281 332.77 291.495 343.265 304.441 343.265 C 317.388 343.265 327.883 332.77 327.883 319.824 C 327.883 306.877 317.388 296.382 304.441 296.382 C 291.495 296.382 281 306.877 281 319.824 L 281 319.824 Z " fill="rgb(206,206,206)"/><path d=" M 273.296 322.441 C 273.296 335.388 283.792 345.883 296.738 345.883 C 309.684 345.883 320.179 335.388 320.179 322.441 C 320.179 309.495 309.684 299 296.738 299 C 283.792 299 273.296 309.495 273.296 322.441 L 273.296 322.441 Z " fill="rgb(206,206,206)"/><path d=" M 265.593 322.441 C 265.593 335.388 276.088 345.883 289.034 345.883 C 301.98 345.883 312.476 335.388 312.476 322.441 C 312.476 309.495 301.98 299 289.034 299 C 276.088 299 265.593 309.495 265.593 322.441 L 265.593 322.441 Z " fill="rgb(206,206,206)"/><path d=" M 257.559 316.593 C 257.559 329.539 268.054 340.034 281 340.034 C 293.946 340.034 304.441 329.539 304.441 316.593 C 304.441 303.646 293.946 293.151 281 293.151 C 268.054 293.151 257.559 303.646 257.559 316.593 L 257.559 316.593 Z " fill="rgb(206,206,206)"/><path d=" M 251.984 310.114 C 251.984 323.06 262.479 333.555 275.425 333.555 C 288.372 333.555 298.867 323.06 298.867 310.114 C 298.867 297.168 288.372 286.673 275.425 286.673 C 262.479 286.673 251.984 297.168 251.984 310.114 L 251.984 310.114 Z " fill="rgb(206,206,206)"/><path d=" M 277.097 292.766 C 277.097 305.712 287.592 316.207 300.538 316.207 C 313.485 316.207 323.98 305.712 323.98 292.766 C 323.98 279.819 313.485 269.324 300.538 269.324 C 287.592 269.324 277.097 279.819 277.097 292.766 L 277.097 292.766 Z " fill="rgb(206,206,206)"/><path d=" M 269.614 283.766 C 269.614 296.712 280.11 307.207 293.056 307.207 C 306.002 307.207 316.497 296.712 316.497 283.766 C 316.497 270.819 306.002 260.324 293.056 260.324 C 280.11 260.324 269.614 270.819 269.614 283.766 L 269.614 283.766 Z " fill="rgb(206,206,206)"/><path d=" M 284.203 300.441 C 284.203 313.388 294.698 323.883 307.645 323.883 C 320.591 323.883 331.086 313.388 331.086 300.441 C 331.086 287.495 320.591 277 307.645 277 C 294.698 277 284.203 287.495 284.203 300.441 L 284.203 300.441 Z " fill="rgb(206,206,206)"/><path d=" M 260.762 275.559 C 260.762 288.505 271.257 299 284.203 299 C 297.149 299 307.644 288.505 307.644 275.559 C 307.644 262.612 297.149 252.117 284.203 252.117 C 271.257 252.117 260.762 262.612 260.762 275.559 L 260.762 275.559 Z " fill="rgb(206,206,206)"/><path d=" M 253.656 269.71 C 253.656 282.656 264.151 293.151 277.097 293.151 C 290.043 293.151 300.538 282.656 300.538 269.71 C 300.538 256.763 290.043 246.268 277.097 246.268 C 264.151 246.268 253.656 256.763 253.656 269.71 L 253.656 269.71 Z " fill="rgb(206,206,206)"/><path d=" M 249.855 265.487 C 249.855 278.433 260.35 288.928 273.296 288.928 C 286.243 288.928 296.738 278.433 296.738 265.487 C 296.738 252.541 286.243 242.046 273.296 242.046 C 260.35 242.046 249.855 252.541 249.855 265.487 L 249.855 265.487 Z " fill="rgb(206,206,206)"/><path d=" M 244.29 260 C 244.29 272.946 254.785 283.441 267.732 283.441 C 280.678 283.441 291.173 272.946 291.173 260 C 291.173 247.054 280.678 236.559 267.732 236.559 C 254.785 236.559 244.29 247.054 244.29 260 L 244.29 260 Z " fill="rgb(206,206,206)"/><path d=" M 237.32 253.559 C 237.32 266.505 247.815 277 260.762 277 C 273.708 277 284.203 266.505 284.203 253.559 C 284.203 240.612 273.708 230.117 260.762 230.117 C 247.815 230.117 237.32 240.612 237.32 253.559 L 237.32 253.559 Z " fill="rgb(206,206,206)"/><path d=" M 237.32 272.941 C 237.32 285.887 247.815 296.382 260.762 296.382 C 273.708 296.382 284.203 285.887 284.203 272.941 C 284.203 259.995 273.708 249.499 260.762 249.499 C 247.815 249.499 237.32 259.995 237.32 272.941 L 237.32 272.941 Z " fill="rgb(206,206,206)"/><path d=" M 236.586 288.928 C 236.587 301.875 247.082 312.37 260.028 312.37 C 272.974 312.37 283.469 301.875 283.469 288.928 C 283.469 275.982 272.974 265.487 260.028 265.487 C 247.082 265.487 236.587 275.982 236.586 288.928 L 236.586 288.928 Z " fill="rgb(206,206,206)"/><path d=" M 237.32 300.441 C 237.32 313.388 247.815 323.883 260.762 323.883 C 273.708 323.883 284.203 313.388 284.203 300.441 C 284.203 287.495 273.708 277 260.762 277 C 247.815 277 237.32 287.495 237.32 300.441 L 237.32 300.441 Z " fill="rgb(206,206,206)"/><path d=" M 251.984 310.114 C 251.984 323.06 262.479 333.555 275.425 333.555 C 288.372 333.555 298.867 323.06 298.867 310.114 C 298.867 297.168 288.372 286.673 275.425 286.673 C 262.479 286.673 251.984 297.168 251.984 310.114 L 251.984 310.114 Z " fill="rgb(206,206,206)"/><path d=" M 265.593 322.441 C 265.593 335.388 276.088 345.883 289.034 345.883 C 301.98 345.883 312.476 335.388 312.476 322.441 C 312.476 309.495 301.98 299 289.034 299 C 276.088 299 265.593 309.495 265.593 322.441 L 265.593 322.441 Z " fill="rgb(206,206,206)"/></g><g><g><path d=" M 221.849 306.207 C 221.849 319.154 211.354 329.649 198.407 329.649 C 185.461 329.649 174.966 319.154 174.966 306.207 C 174.966 293.261 185.461 282.766 198.407 282.766 C 211.354 282.766 221.849 293.261 221.849 306.207 L 221.849 306.207 Z " fill="rgb(255,255,255)"/><path d=" M 221.849 312.835 C 221.849 325.782 211.354 336.277 198.407 336.277 C 185.461 336.277 174.966 325.782 174.966 312.835 C 174.966 299.889 185.461 289.394 198.407 289.394 C 211.354 289.394 221.849 299.889 221.849 312.835 L 221.849 312.835 Z " fill="rgb(255,255,255)"/><path d=" M 229.883 318.824 C 229.883 331.77 219.388 342.265 206.441 342.265 C 193.495 342.265 183 331.77 183 318.824 C 183 305.877 193.495 295.382 206.441 295.382 C 219.388 295.382 229.883 305.877 229.883 318.824 L 229.883 318.824 Z " fill="rgb(255,255,255)"/><path d=" M 237.586 321.441 C 237.586 334.388 227.091 344.883 214.145 344.883 C 201.199 344.883 190.704 334.388 190.704 321.441 C 190.704 308.495 201.199 298 214.145 298 C 227.091 298 237.586 308.495 237.586 321.441 L 237.586 321.441 Z " fill="rgb(255,255,255)"/><path d=" M 245.29 321.441 C 245.29 334.388 234.795 344.883 221.849 344.883 C 208.902 344.883 198.407 334.388 198.407 321.441 C 198.407 308.495 208.902 298 221.849 298 C 234.795 298 245.29 308.495 245.29 321.441 L 245.29 321.441 Z " fill="rgb(255,255,255)"/><path d=" M 253.324 315.593 C 253.324 328.539 242.829 339.034 229.883 339.034 C 216.937 339.034 206.441 328.539 206.441 315.593 C 206.441 302.646 216.937 292.151 229.883 292.151 C 242.829 292.151 253.324 302.646 253.324 315.593 L 253.324 315.593 Z " fill="rgb(255,255,255)"/><path d=" M 258.899 309.114 C 258.899 322.06 248.404 332.555 235.457 332.555 C 222.511 332.555 212.016 322.06 212.016 309.114 C 212.016 296.168 222.511 285.673 235.457 285.673 C 248.404 285.673 258.899 296.168 258.899 309.114 L 258.899 309.114 Z " fill="rgb(255,255,255)"/><path d=" M 233.786 291.766 C 233.786 304.712 223.291 315.207 210.344 315.207 C 197.398 315.207 186.903 304.712 186.903 291.766 C 186.903 278.819 197.398 268.324 210.344 268.324 C 223.291 268.324 233.786 278.819 233.786 291.766 L 233.786 291.766 Z " fill="rgb(255,255,255)"/><path d=" M 241.268 282.766 C 241.268 295.712 230.773 306.207 217.827 306.207 C 204.881 306.207 194.386 295.712 194.386 282.766 C 194.386 269.819 204.881 259.324 217.827 259.324 C 230.773 259.324 241.268 269.819 241.268 282.766 L 241.268 282.766 Z " fill="rgb(255,255,255)"/><path d=" M 226.68 299.441 C 226.68 312.388 216.185 322.883 203.238 322.883 C 190.292 322.883 179.797 312.388 179.797 299.441 C 179.797 286.495 190.292 276 203.238 276 C 216.185 276 226.68 286.495 226.68 299.441 L 226.68 299.441 Z " fill="rgb(255,255,255)"/><path d=" M 250.121 274.559 C 250.121 287.505 239.626 298 226.68 298 C 213.733 298 203.238 287.505 203.238 274.559 C 203.238 261.612 213.733 251.117 226.68 251.117 C 239.626 251.117 250.121 261.612 250.121 274.559 L 250.121 274.559 Z " fill="rgb(255,255,255)"/><path d=" M 257.227 268.71 C 257.227 281.656 246.732 292.151 233.786 292.151 C 220.84 292.151 210.344 281.656 210.344 268.71 C 210.344 255.763 220.84 245.268 233.786 245.268 C 246.732 245.268 257.227 255.763 257.227 268.71 L 257.227 268.71 Z " fill="rgb(255,255,255)"/><path d=" M 261.028 264.487 C 261.028 277.433 250.533 287.928 237.586 287.928 C 224.64 287.928 214.145 277.433 214.145 264.487 C 214.145 251.541 224.64 241.046 237.586 241.046 C 250.533 241.046 261.028 251.541 261.028 264.487 L 261.028 264.487 Z " fill="rgb(255,255,255)"/><path d=" M 266.593 259 C 266.593 271.946 256.098 282.441 243.151 282.441 C 230.205 282.441 219.71 271.946 219.71 259 C 219.71 246.054 230.205 235.559 243.151 235.559 C 256.098 235.559 266.593 246.054 266.593 259 L 266.593 259 Z " fill="rgb(255,255,255)"/><path d=" M 273.563 252.559 C 273.563 265.505 263.068 276 250.121 276 C 237.175 276 226.68 265.505 226.68 252.559 C 226.68 239.612 237.175 229.117 250.121 229.117 C 263.068 229.117 273.563 239.612 273.563 252.559 L 273.563 252.559 Z " fill="rgb(255,255,255)"/><path d=" M 273.563 271.941 C 273.563 284.887 263.068 295.382 250.121 295.382 C 237.175 295.382 226.68 284.887 226.68 271.941 C 226.68 258.995 237.175 248.499 250.121 248.499 C 263.068 248.499 273.563 258.995 273.563 271.941 L 273.563 271.941 Z " fill="rgb(255,255,255)"/><path d=" M 274.296 287.928 C 274.296 300.875 263.801 311.37 250.855 311.37 C 237.909 311.37 227.414 300.875 227.414 287.928 C 227.414 274.982 237.909 264.487 250.855 264.487 C 263.801 264.487 274.296 274.982 274.296 287.928 L 274.296 287.928 Z " fill="rgb(255,255,255)"/><path d=" M 273.563 299.441 C 273.563 312.388 263.068 322.883 250.121 322.883 C 237.175 322.883 226.68 312.388 226.68 299.441 C 226.68 286.495 237.175 276 250.121 276 C 263.068 276 273.563 286.495 273.563 299.441 L 273.563 299.441 Z " fill="rgb(255,255,255)"/><path d=" M 258.899 309.114 C 258.899 322.06 248.404 332.555 235.457 332.555 C 222.511 332.555 212.016 322.06 212.016 309.114 C 212.016 296.168 222.511 285.673 235.457 285.673 C 248.404 285.673 258.899 296.168 258.899 309.114 L 258.899 309.114 Z " fill="rgb(255,255,255)"/><path d=" M 245.29 321.441 C 245.29 334.388 234.795 344.883 221.849 344.883 C 208.902 344.883 198.407 334.388 198.407 321.441 C 198.407 308.495 208.902 298 221.849 298 C 234.795 298 245.29 308.495 245.29 321.441 L 245.29 321.441 Z " fill="rgb(255,255,255)"/></g><g><path d=" M 290.034 306.207 C 290.034 319.154 300.529 329.649 313.476 329.649 C 326.422 329.649 336.917 319.154 336.917 306.207 C 336.917 293.261 326.422 282.766 313.476 282.766 C 300.529 282.766 290.034 293.261 290.034 306.207 L 290.034 306.207 Z " fill="rgb(255,255,255)"/><path d=" M 290.034 312.835 C 290.034 325.782 300.529 336.277 313.476 336.277 C 326.422 336.277 336.917 325.782 336.917 312.835 C 336.917 299.889 326.422 289.394 313.476 289.394 C 300.529 289.394 290.034 299.889 290.034 312.835 L 290.034 312.835 Z " fill="rgb(255,255,255)"/><path d=" M 282 318.824 C 282 331.77 292.495 342.265 305.441 342.265 C 318.388 342.265 328.883 331.77 328.883 318.824 C 328.883 305.877 318.388 295.382 305.441 295.382 C 292.495 295.382 282 305.877 282 318.824 L 282 318.824 Z " fill="rgb(255,255,255)"/><path d=" M 274.296 321.441 C 274.296 334.388 284.792 344.883 297.738 344.883 C 310.684 344.883 321.179 334.388 321.179 321.441 C 321.179 308.495 310.684 298 297.738 298 C 284.792 298 274.296 308.495 274.296 321.441 L 274.296 321.441 Z " fill="rgb(255,255,255)"/><path d=" M 266.593 321.441 C 266.593 334.388 277.088 344.883 290.034 344.883 C 302.98 344.883 313.476 334.388 313.476 321.441 C 313.476 308.495 302.98 298 290.034 298 C 277.088 298 266.593 308.495 266.593 321.441 L 266.593 321.441 Z " fill="rgb(255,255,255)"/><path d=" M 258.559 315.593 C 258.559 328.539 269.054 339.034 282 339.034 C 294.946 339.034 305.441 328.539 305.441 315.593 C 305.441 302.646 294.946 292.151 282 292.151 C 269.054 292.151 258.559 302.646 258.559 315.593 L 258.559 315.593 Z " fill="rgb(255,255,255)"/><path d=" M 252.984 309.114 C 252.984 322.06 263.479 332.555 276.425 332.555 C 289.372 332.555 299.867 322.06 299.867 309.114 C 299.867 296.168 289.372 285.673 276.425 285.673 C 263.479 285.673 252.984 296.168 252.984 309.114 L 252.984 309.114 Z " fill="rgb(255,255,255)"/><path d=" M 278.097 291.766 C 278.097 304.712 288.592 315.207 301.538 315.207 C 314.485 315.207 324.98 304.712 324.98 291.766 C 324.98 278.819 314.485 268.324 301.538 268.324 C 288.592 268.324 278.097 278.819 278.097 291.766 L 278.097 291.766 Z " fill="rgb(255,255,255)"/><path d=" M 270.614 282.766 C 270.614 295.712 281.11 306.207 294.056 306.207 C 307.002 306.207 317.497 295.712 317.497 282.766 C 317.497 269.819 307.002 259.324 294.056 259.324 C 281.11 259.324 270.614 269.819 270.614 282.766 L 270.614 282.766 Z " fill="rgb(255,255,255)"/><path d=" M 285.203 299.441 C 285.203 312.388 295.698 322.883 308.645 322.883 C 321.591 322.883 332.086 312.388 332.086 299.441 C 332.086 286.495 321.591 276 308.645 276 C 295.698 276 285.203 286.495 285.203 299.441 L 285.203 299.441 Z " fill="rgb(255,255,255)"/><path d=" M 261.762 274.559 C 261.762 287.505 272.257 298 285.203 298 C 298.149 298 308.644 287.505 308.644 274.559 C 308.644 261.612 298.149 251.117 285.203 251.117 C 272.257 251.117 261.762 261.612 261.762 274.559 L 261.762 274.559 Z " fill="rgb(255,255,255)"/><path d=" M 254.656 268.71 C 254.656 281.656 265.151 292.151 278.097 292.151 C 291.043 292.151 301.538 281.656 301.538 268.71 C 301.538 255.763 291.043 245.268 278.097 245.268 C 265.151 245.268 254.656 255.763 254.656 268.71 L 254.656 268.71 Z " fill="rgb(255,255,255)"/><path d=" M 250.855 264.487 C 250.855 277.433 261.35 287.928 274.296 287.928 C 287.243 287.928 297.738 277.433 297.738 264.487 C 297.738 251.541 287.243 241.046 274.296 241.046 C 261.35 241.046 250.855 251.541 250.855 264.487 L 250.855 264.487 Z " fill="rgb(255,255,255)"/><path d=" M 245.29 259 C 245.29 271.946 255.785 282.441 268.732 282.441 C 281.678 282.441 292.173 271.946 292.173 259 C 292.173 246.054 281.678 235.559 268.732 235.559 C 255.785 235.559 245.29 246.054 245.29 259 L 245.29 259 Z " fill="rgb(255,255,255)"/><path d=" M 238.32 252.559 C 238.32 265.505 248.815 276 261.762 276 C 274.708 276 285.203 265.505 285.203 252.559 C 285.203 239.612 274.708 229.117 261.762 229.117 C 248.815 229.117 238.32 239.612 238.32 252.559 L 238.32 252.559 Z " fill="rgb(255,255,255)"/><path d=" M 238.32 271.941 C 238.32 284.887 248.815 295.382 261.762 295.382 C 274.708 295.382 285.203 284.887 285.203 271.941 C 285.203 258.995 274.708 248.499 261.762 248.499 C 248.815 248.499 238.32 258.995 238.32 271.941 L 238.32 271.941 Z " fill="rgb(255,255,255)"/><path d=" M 237.586 287.928 C 237.587 300.875 248.082 311.37 261.028 311.37 C 273.974 311.37 284.469 300.875 284.469 287.928 C 284.469 274.982 273.974 264.487 261.028 264.487 C 248.082 264.487 237.587 274.982 237.586 287.928 L 237.586 287.928 Z " fill="rgb(255,255,255)"/><path d=" M 238.32 299.441 C 238.32 312.388 248.815 322.883 261.762 322.883 C 274.708 322.883 285.203 312.388 285.203 299.441 C 285.203 286.495 274.708 276 261.762 276 C 248.815 276 238.32 286.495 238.32 299.441 L 238.32 299.441 Z " fill="rgb(255,255,255)"/><path d=" M 252.984 309.114 C 252.984 322.06 263.479 332.555 276.425 332.555 C 289.372 332.555 299.867 322.06 299.867 309.114 C 299.867 296.168 289.372 285.673 276.425 285.673 C 263.479 285.673 252.984 296.168 252.984 309.114 L 252.984 309.114 Z " fill="rgb(255,255,255)"/><path d=" M 266.593 321.441 C 266.593 334.388 277.088 344.883 290.034 344.883 C 302.98 344.883 313.476 334.388 313.476 321.441 C 313.476 308.495 302.98 298 290.034 298 C 277.088 298 266.593 308.495 266.593 321.441 L 266.593 321.441 Z " fill="rgb(255,255,255)"/></g></g></g><path d=" M 257.534 308.639 C 254.978 309.592 252.212 310.114 249.324 310.114 C 243.107 310.114 237.145 307.644 232.749 303.248 C 228.353 298.852 225.883 292.89 225.883 286.673 C 225.883 280.456 228.353 274.493 232.749 270.097 C 237.145 265.701 243.107 263.231 249.324 263.231 C 252.212 263.231 254.978 263.753 257.534 264.707 C 260.124 263.739 262.891 263.231 265.71 263.231 C 278.656 263.231 289.151 273.726 289.151 286.673 L 289.151 286.673 C 289.151 299.619 278.656 310.114 265.71 310.114 C 262.891 310.114 260.124 309.606 257.534 308.639 Z " fill="rgb(0,0,0)"/></g></g></svg>