<?xml version="1.0" standalone="no"?><!-- Generator: Gravit.io --><svg xmlns="http://www.w3.org/2000/svg" xmlns:xlink="http://www.w3.org/1999/xlink" style="isolation:isolate" viewBox="0 0 1200 800" width="1200" height="800"><defs><clipPath id="_clipPath_8yTFWaLCBFypSiFnzZMbrfhAVH8Xc8jV"><rect width="1200" height="800"/></clipPath></defs><g clip-path="url(#_clipPath_8yTFWaLCBFypSiFnzZMbrfhAVH8Xc8jV)"><linearGradient id="_lgradient_2" x1="49.99999999999998%" y1="0%" x2="49.999999999999986%" y2="100%"><stop offset="0%" stop-opacity="1" style="stop-color:rgb(247,10,1)"/><stop offset="100%" stop-opacity="1" style="stop-color:rgb(255,0,0)"/></linearGradient><path d=" M 0 400 L 0 0 L 600 0 L 1200 0 L 1200 400 L 1200 800 L 600 800 L 0 800 L 0 400 Z " fill="url(#_lgradient_2)"/><path d=" M 169.315 421.375 L 203.078 456.561 L 245.719 456.561 C 277.885 456.561 304 430.447 304 398.281 C 304 366.115 277.885 340 245.719 340 L 101.281 340 L 101.281 340 C 96.588 340.864 95.701 343.429 98.559 347.636 L 136.368 387.039 L 243.945 387.039 C 250.951 387.039 256.639 392.727 256.639 399.733 C 256.639 406.739 250.951 412.427 243.945 412.427 L 173.899 412.427 C 167.51 411.872 165.992 414.865 169.315 421.375 Z " fill="rgb(235,235,235)"/><g id="txt"><path d=" M 357.675 354.782 L 397.459 354.782 C 420.014 354.782 438.325 373.094 438.325 395.649 L 438.325 404.133 C 438.325 426.688 420.014 445 397.459 445 L 357.675 445 L 357.675 354.782 Z  M 379.472 373.246 L 388.191 373.246 C 403.831 373.246 416.528 385.185 416.528 399.891 C 416.528 414.597 403.831 426.536 388.191 426.536 L 379.472 426.536 L 379.472 373.246 Z " fill-rule="evenodd" fill="rgb(235,235,235)"/><path d=" M 450.891 399.891 C 450.891 374.995 471.104 354.782 496 354.782 C 520.896 354.782 541.109 374.995 541.109 399.891 C 541.109 424.787 520.896 445 496 445 C 471.104 445 450.891 424.787 450.891 399.891 Z  M 471.552 399.891 C 471.552 386.398 482.507 375.443 496 375.443 C 509.493 375.443 520.448 386.398 520.448 399.891 C 520.448 413.384 509.493 424.339 496 424.339 C 482.507 424.339 471.552 413.384 471.552 399.891 Z " fill-rule="evenodd" fill="rgb(235,235,235)"/><path d=" M 555 399.891 C 555 374.995 575.213 354.782 600.109 354.782 C 625.005 354.782 645.218 374.995 645.218 399.891 C 645.218 424.787 625.005 445 600.109 445 C 575.213 445 555 424.787 555 399.891 Z  M 575.661 399.891 C 575.661 386.398 586.616 375.443 600.109 375.443 C 613.602 375.443 624.557 386.398 624.557 399.891 C 624.557 413.384 613.602 424.339 600.109 424.339 C 586.616 424.339 575.661 413.384 575.661 399.891 Z " fill-rule="evenodd" fill="rgb(235,235,235)"/><path d=" M 663.008 354.782 L 706.924 354.782 C 723.447 354.782 736.861 368.197 736.861 384.72 L 736.861 384.72 C 736.861 395.947 730.668 405.738 721.515 410.862 Q 720.313 411.535 736.489 440.261 C 737.962 442.876 736.721 445 733.719 445 L 723.09 445 C 720.088 445 716.412 442.901 714.885 440.316 L 699.731 414.658 L 686.093 414.658 L 685.797 439.395 C 685.761 442.396 683.295 444.834 680.292 444.834 L 668.447 444.834 C 665.445 444.834 663.008 442.396 663.008 439.394 L 663.008 414.658 L 663.008 354.782 Z  M 685.732 373.206 L 702.623 373.206 C 708.978 373.206 714.137 378.365 714.137 384.72 C 714.137 391.075 708.978 396.235 702.623 396.235 L 685.732 396.235 L 685.732 373.206 Z " fill-rule="evenodd" fill="rgb(235,235,235)"/><path d=" M 754.675 354.782 L 794.459 354.782 C 817.014 354.782 835.325 373.094 835.325 395.649 L 835.325 404.133 C 835.325 426.688 817.014 445 794.459 445 L 754.675 445 L 754.675 354.782 Z  M 776.472 373.246 L 785.191 373.246 C 800.831 373.246 813.528 385.185 813.528 399.891 C 813.528 414.597 800.831 426.536 785.191 426.536 L 776.472 426.536 L 776.472 373.246 Z " fill-rule="evenodd" fill="rgb(235,235,235)"/><path d=" M 899.542 359.807 L 927.563 439.976 C 928.532 442.749 926.934 445 923.996 445 L 913.487 445 C 910.55 445 907.398 442.742 906.453 439.96 L 903.096 430.078 C 902.151 427.296 898.999 425.038 896.062 425.038 L 876.497 425.038 C 873.559 425.038 870.34 427.272 869.313 430.024 L 865.584 440.014 C 864.557 442.766 861.338 445 858.401 445 L 845.572 445 C 842.634 445 841.063 442.758 842.066 439.997 L 871.2 359.785 C 872.203 357.024 875.402 354.782 878.339 354.782 L 892.464 354.782 C 895.401 354.782 898.573 357.034 899.542 359.807 Z  M 892.524 406.909 L 877.085 406.909 L 884.805 380.073 L 892.524 406.909 Z " fill-rule="evenodd" fill="rgb(235,235,235)"/><path d=" M 960.886 382.365 C 961.028 382.538 961.17 382.71 961.342 382.862 C 961.758 383.238 962.214 383.593 962.691 383.897 C 963.401 384.363 964.131 384.779 964.881 385.164 C 965.814 385.641 966.768 386.087 967.731 386.493 C 970.063 387.476 972.416 388.409 974.799 389.281 C 977.486 390.265 980.164 391.32 982.81 392.435 C 984.189 393.023 985.558 393.662 986.907 394.352 C 988.286 395.052 989.625 395.822 990.923 396.664 C 992.302 397.556 993.61 398.56 994.827 399.666 C 996.166 400.862 997.352 402.221 998.386 403.691 C 999.512 405.324 1000.404 407.119 1001.013 409.015 C 1001.652 411.013 1001.966 413.102 1001.956 415.201 C 1001.936 417.351 1001.621 419.491 1001.013 421.559 C 1000.557 423.152 1000.019 424.723 999.39 426.255 C 998.792 427.684 998.113 429.074 997.342 430.412 C 996.632 431.639 995.841 432.826 994.969 433.951 C 994.127 435.047 993.215 436.071 992.221 437.034 C 991.247 437.967 990.213 438.839 989.118 439.62 C 988.023 440.401 986.867 441.101 985.67 441.719 C 984.443 442.348 983.175 442.885 981.867 443.321 C 980.529 443.768 979.16 444.133 977.78 444.396 C 975.428 444.843 973.035 445.035 970.651 444.995 C 967.924 444.934 965.216 444.66 962.529 444.173 C 960.095 443.727 957.692 443.129 955.319 442.409 C 952.459 441.527 949.64 440.513 946.871 439.377 C 944.377 438.363 942.399 436.395 941.365 433.911 C 940.321 431.437 940.31 428.638 941.335 426.153 C 942.349 423.659 944.316 421.681 946.8 420.647 C 949.275 419.602 952.074 419.592 954.558 420.616 C 956.769 421.519 959.01 422.32 961.281 423.02 C 962.894 423.517 964.537 423.912 966.19 424.216 C 967.802 424.521 969.424 424.683 971.057 424.713 C 972.041 424.734 973.024 424.652 973.988 424.47 C 974.464 424.379 974.941 424.257 975.397 424.095 C 975.752 423.983 976.097 423.831 976.432 423.659 C 976.736 423.506 977.03 423.324 977.314 423.131 C 977.598 422.928 977.872 422.695 978.115 422.452 C 978.399 422.178 978.663 421.884 978.906 421.58 C 979.22 421.164 979.514 420.728 979.768 420.282 C 980.093 419.714 980.387 419.126 980.63 418.527 C 980.985 417.665 981.289 416.793 981.543 415.891 C 981.614 415.668 981.654 415.434 981.674 415.191 C 981.543 415.019 981.401 414.867 981.238 414.714 C 980.823 414.339 980.366 413.994 979.89 413.69 C 979.19 413.224 978.46 412.808 977.709 412.423 C 976.776 411.956 975.833 411.51 974.87 411.094 C 972.548 410.121 970.195 409.188 967.822 408.326 C 965.125 407.332 962.448 406.277 959.791 405.162 C 958.401 404.564 957.032 403.925 955.684 403.235 C 954.305 402.535 952.956 401.755 951.658 400.913 C 950.269 400.021 948.96 399.017 947.744 397.911 C 946.405 396.704 945.208 395.346 944.184 393.865 C 943.048 392.222 942.166 390.427 941.548 388.531 C 940.919 386.543 940.594 384.454 940.604 382.365 C 940.615 380.773 940.787 379.191 941.132 377.64 C 941.466 376.078 941.943 374.557 942.541 373.077 C 943.17 371.555 943.89 370.075 944.711 368.655 C 945.584 367.134 946.527 365.664 947.551 364.244 C 948.717 362.621 950.116 361.171 951.688 359.944 C 953.28 358.697 955.025 357.683 956.88 356.902 C 958.665 356.162 960.521 355.624 962.427 355.3 C 964.516 354.955 966.615 354.773 968.735 354.783 C 971.706 354.793 974.677 355.077 977.598 355.624 C 981.533 356.365 985.427 357.338 989.25 358.545 C 991.815 359.356 993.955 361.141 995.202 363.524 C 996.439 365.917 996.683 368.696 995.882 371.261 C 995.07 373.827 993.286 375.967 990.892 377.214 C 988.509 378.451 985.731 378.695 983.165 377.893 C 980.113 376.93 977 376.149 973.846 375.561 C 972.132 375.237 970.398 375.074 968.654 375.064 C 967.701 375.064 966.757 375.145 965.814 375.297 C 965.429 375.368 965.054 375.48 964.689 375.622 C 964.496 375.703 964.324 375.804 964.161 375.936 C 964.111 375.977 964.06 376.028 964.019 376.078 C 963.401 376.94 962.823 377.833 962.296 378.755 C 961.93 379.394 961.606 380.053 961.322 380.743 C 961.16 381.138 961.038 381.544 960.947 381.97 C 960.916 382.102 960.896 382.234 960.886 382.365 Z " fill="rgb(235,235,235)"/><path d=" M 1075.107 408.917 L 1075.107 445 L 1097.14 445 L 1097.14 354.782 L 1075.107 354.782 L 1075.107 388.805 L 1041.476 388.805 L 1041.476 354.782 L 1019.443 354.782 L 1019.443 445 L 1041.476 445 L 1041.476 408.917 L 1075.107 408.917 Z " fill="rgb(235,235,235)"/></g></g></svg>