<?xml version="1.0" standalone="no"?><!-- Generator: Gravit.io --><svg xmlns="http://www.w3.org/2000/svg" xmlns:xlink="http://www.w3.org/1999/xlink" style="isolation:isolate" viewBox="0 0 1620 1080" width="1620" height="1080"><defs><clipPath id="_clipPath_E63Si8qZwRmLyMlDB08jJsUqwIPOdzHp"><rect width="1620" height="1080"/></clipPath></defs><g clip-path="url(#_clipPath_E63Si8qZwRmLyMlDB08jJsUqwIPOdzHp)"><rect x="0" y="0" width="1620" height="1080" transform="matrix(1,0,0,1,0,0)" fill="rgb(85,96,255)"/><g id="Group"><path d=" M 1072.484 806.624 L 1072.484 806.624 L 1072.484 806.624 Q 1072.484 815.948 1069.251 822.925 L 1069.251 822.925 L 1069.251 822.925 Q 1066.018 829.901 1060.403 834.529 L 1060.403 834.529 L 1060.403 834.529 Q 1054.788 839.158 1047.267 841.472 L 1047.267 841.472 L 1047.267 841.472 Q 1039.746 843.786 1031.102 843.786 L 1031.102 843.786 L 1031.102 843.786 Q 1027.767 843.786 1023.785 842.901 L 1023.785 842.901 L 1023.785 842.901 Q 1019.804 842.016 1015.72 840.689 L 1015.72 840.689 L 1015.72 840.689 Q 1011.636 839.362 1007.859 837.83 L 1007.859 837.83 L 1007.859 837.83 Q 1004.081 836.299 1001.154 834.938 L 1001.154 834.938 L 1004.149 806.896 L 1004.149 806.896 Q 1009.935 810.367 1016.979 812.171 L 1016.979 812.171 L 1016.979 812.171 Q 1024.024 813.974 1030.83 813.974 L 1030.83 813.974 L 1030.83 813.974 Q 1032.123 813.974 1033.961 813.872 L 1033.961 813.872 L 1033.961 813.872 Q 1035.798 813.77 1037.466 813.26 L 1037.466 813.26 L 1037.466 813.26 Q 1039.134 812.749 1040.291 811.728 L 1040.291 811.728 L 1040.291 811.728 Q 1041.448 810.707 1041.448 808.802 L 1041.448 808.802 L 1041.448 808.802 Q 1041.448 807.509 1040.631 806.59 L 1040.631 806.59 L 1040.631 806.59 Q 1039.814 805.671 1038.521 805.092 L 1038.521 805.092 L 1038.521 805.092 Q 1037.228 804.514 1035.594 804.207 L 1035.594 804.207 L 1035.594 804.207 Q 1033.961 803.901 1032.395 803.765 L 1032.395 803.765 L 1032.395 803.765 Q 1030.83 803.629 1029.469 803.629 L 1029.469 803.629 L 1029.469 803.629 Q 1028.107 803.629 1027.291 803.629 L 1027.291 803.629 L 1027.291 803.629 Q 1021.437 803.629 1016.639 801.587 L 1016.639 801.587 L 1016.639 801.587 Q 1011.84 799.545 1008.403 795.904 L 1008.403 795.904 L 1008.403 795.904 Q 1004.966 792.262 1003.06 787.26 L 1003.06 787.26 L 1003.06 787.26 Q 1001.154 782.257 1001.154 776.404 L 1001.154 776.404 L 1001.154 776.404 Q 1001.154 768.372 1004.387 762.009 L 1004.387 762.009 L 1004.387 762.009 Q 1007.62 755.645 1013.031 751.187 L 1013.031 751.187 L 1013.031 751.187 Q 1018.442 746.728 1025.453 744.346 L 1025.453 744.346 L 1025.453 744.346 Q 1032.463 741.964 1039.95 741.964 L 1039.95 741.964 L 1039.95 741.964 Q 1043.285 741.964 1046.825 742.202 L 1046.825 742.202 L 1046.825 742.202 Q 1050.364 742.44 1053.869 743.053 L 1053.869 743.053 L 1053.869 743.053 Q 1057.374 743.666 1060.709 744.618 L 1060.709 744.618 L 1060.709 744.618 Q 1064.045 745.571 1067.039 747.001 L 1067.039 747.001 L 1064.453 774.634 L 1064.453 774.634 Q 1059.825 773.069 1054.754 772.014 L 1054.754 772.014 L 1054.754 772.014 Q 1049.683 770.959 1044.851 770.959 L 1044.851 770.959 L 1044.851 770.959 Q 1043.966 770.959 1042.571 770.993 L 1042.571 770.993 L 1042.571 770.993 Q 1041.175 771.027 1039.644 771.197 L 1039.644 771.197 L 1039.644 771.197 Q 1038.113 771.367 1036.547 771.707 L 1036.547 771.707 L 1036.547 771.707 Q 1034.982 772.048 1033.757 772.626 L 1033.757 772.626 L 1033.757 772.626 Q 1032.531 773.205 1031.783 774.158 L 1031.783 774.158 L 1031.783 774.158 Q 1031.034 775.111 1031.102 776.404 L 1031.102 776.404 L 1031.102 776.404 Q 1031.17 777.901 1032.225 778.82 L 1032.225 778.82 L 1032.225 778.82 Q 1033.28 779.739 1034.948 780.249 L 1034.948 780.249 L 1034.948 780.249 Q 1036.615 780.76 1038.623 780.964 L 1038.623 780.964 L 1038.623 780.964 Q 1040.631 781.168 1042.605 781.202 L 1042.605 781.202 L 1042.605 781.202 Q 1044.579 781.236 1046.28 781.202 L 1046.28 781.202 L 1046.28 781.202 Q 1047.982 781.168 1049.071 781.304 L 1049.071 781.304 L 1049.071 781.304 Q 1054.516 781.645 1058.872 783.618 L 1058.872 783.618 L 1058.872 783.618 Q 1063.228 785.592 1066.257 788.859 L 1066.257 788.859 L 1066.257 788.859 Q 1069.285 792.126 1070.885 796.652 L 1070.885 796.652 L 1070.885 796.652 Q 1072.484 801.179 1072.484 806.624 Z  M 1156.065 777.357 L 1156.065 777.357 L 1156.065 777.357 Q 1156.065 783.959 1154.092 789.063 L 1154.092 789.063 L 1154.092 789.063 Q 1152.118 794.168 1148.681 797.98 L 1148.681 797.98 L 1148.681 797.98 Q 1145.243 801.791 1140.615 804.446 L 1140.615 804.446 L 1140.615 804.446 Q 1135.987 807.1 1130.712 808.768 L 1130.712 808.768 L 1130.712 808.768 Q 1125.437 810.435 1119.788 811.218 L 1119.788 811.218 L 1119.788 811.218 Q 1114.139 812.001 1108.694 812.069 L 1108.694 812.069 L 1108.694 843.786 L 1076.976 843.786 L 1076.976 843.786 Q 1076.976 828.2 1077.045 812.749 L 1077.045 812.749 L 1077.045 812.749 Q 1077.113 797.299 1077.249 781.577 L 1077.249 781.577 L 1077.249 781.577 Q 1077.385 773.273 1077.317 764.969 L 1077.317 764.969 L 1077.317 764.969 Q 1077.249 756.666 1077.657 748.226 L 1077.657 748.226 L 1077.657 748.226 Q 1086.369 745.639 1095.081 744.346 L 1095.081 744.346 L 1095.081 744.346 Q 1103.793 743.053 1113.05 743.053 L 1113.05 743.053 L 1113.05 743.053 Q 1118.291 743.053 1123.531 743.904 L 1123.531 743.904 L 1123.531 743.904 Q 1128.772 744.755 1133.571 746.592 L 1133.571 746.592 L 1133.571 746.592 Q 1138.369 748.43 1142.487 751.187 L 1142.487 751.187 L 1142.487 751.187 Q 1146.605 753.943 1149.599 757.755 L 1149.599 757.755 L 1149.599 757.755 Q 1152.594 761.566 1154.33 766.433 L 1154.33 766.433 L 1154.33 766.433 Q 1156.065 771.299 1156.065 777.357 Z  M 1125.846 779.671 L 1125.846 779.671 L 1125.846 779.671 Q 1125.846 775.247 1123.157 772.762 L 1123.157 772.762 L 1123.157 772.762 Q 1120.469 770.278 1116.181 770.278 L 1116.181 770.278 L 1116.181 770.278 Q 1114.751 770.278 1113.22 770.516 L 1113.22 770.516 L 1113.22 770.516 Q 1111.688 770.755 1110.327 771.095 L 1110.327 771.095 L 1109.51 790.969 L 1109.51 790.969 Q 1110.463 791.105 1111.348 791.105 L 1111.348 791.105 L 1111.348 791.105 Q 1112.233 791.105 1113.186 791.105 L 1113.186 791.105 L 1113.186 791.105 Q 1115.636 791.105 1117.916 790.289 L 1117.916 790.289 L 1117.916 790.289 Q 1120.196 789.472 1121.966 787.94 L 1121.966 787.94 L 1121.966 787.94 Q 1123.736 786.409 1124.791 784.333 L 1124.791 784.333 L 1124.791 784.333 Q 1125.846 782.257 1125.846 779.671 Z  M 1219.092 745.367 L 1245.636 836.98 L 1211.877 841.336 L 1207.793 825.954 L 1192.275 825.954 L 1188.872 841.336 L 1154.16 837.933 L 1181.249 747.273 L 1219.092 745.367 Z  M 1195.134 805.126 L 1205.343 805.126 L 1200.17 781.44 L 1195.134 805.126 Z  M 1314.516 747.137 L 1314.516 747.137 L 1310.704 775.859 L 1310.704 775.859 Q 1308.73 775.315 1306.757 775.111 L 1306.757 775.111 L 1306.757 775.111 Q 1304.783 774.906 1302.809 774.906 L 1302.809 774.906 L 1302.809 774.906 Q 1297.772 774.906 1293.212 776.234 L 1293.212 776.234 L 1293.212 776.234 Q 1288.652 777.561 1285.147 780.283 L 1285.147 780.283 L 1285.147 780.283 Q 1281.641 783.006 1279.565 787.09 L 1279.565 787.09 L 1279.565 787.09 Q 1277.49 791.173 1277.49 796.687 L 1277.49 796.687 L 1277.49 796.687 Q 1277.49 800.226 1278.613 802.812 L 1278.613 802.812 L 1278.613 802.812 Q 1279.736 805.399 1281.777 807.1 L 1281.777 807.1 L 1281.777 807.1 Q 1283.819 808.802 1286.61 809.618 L 1286.61 809.618 L 1286.61 809.618 Q 1289.401 810.435 1292.736 810.435 L 1292.736 810.435 L 1292.736 810.435 Q 1295.254 810.435 1297.976 809.891 L 1297.976 809.891 L 1297.976 809.891 Q 1300.699 809.346 1303.353 808.461 L 1303.353 808.461 L 1303.353 808.461 Q 1306.008 807.577 1308.526 806.42 L 1308.526 806.42 L 1308.526 806.42 Q 1311.045 805.262 1313.154 804.037 L 1313.154 804.037 L 1310.432 836.027 L 1310.432 836.027 Q 1307.777 837.388 1304.681 838.443 L 1304.681 838.443 L 1304.681 838.443 Q 1301.584 839.498 1298.317 840.281 L 1298.317 840.281 L 1298.317 840.281 Q 1295.05 841.063 1291.783 841.472 L 1291.783 841.472 L 1291.783 841.472 Q 1288.516 841.88 1285.521 841.88 L 1285.521 841.88 L 1285.521 841.88 Q 1276.877 841.88 1269.39 838.681 L 1269.39 838.681 L 1269.39 838.681 Q 1261.903 835.482 1256.39 829.901 L 1256.39 829.901 L 1256.39 829.901 Q 1250.877 824.32 1247.712 816.731 L 1247.712 816.731 L 1247.712 816.731 Q 1244.547 809.142 1244.547 800.362 L 1244.547 800.362 L 1244.547 800.362 Q 1244.547 788.723 1247.882 778.412 L 1247.882 778.412 L 1247.882 778.412 Q 1251.217 768.1 1257.683 760.341 L 1257.683 760.341 L 1257.683 760.341 Q 1264.149 752.582 1273.712 748.09 L 1273.712 748.09 L 1273.712 748.09 Q 1283.275 743.598 1295.73 743.598 L 1295.73 743.598 L 1295.73 743.598 Q 1300.427 743.598 1305.361 744.346 L 1305.361 744.346 L 1305.361 744.346 Q 1310.296 745.095 1314.516 747.137 Z  M 1320.505 744.687 L 1383.259 744.687 L 1383.259 744.687 Q 1382.851 751.084 1382.51 757.346 L 1382.51 757.346 L 1382.51 757.346 Q 1382.17 763.608 1381.626 770.006 L 1381.626 770.006 L 1352.767 771.503 L 1352.086 780.079 L 1372.369 780.079 L 1370.872 801.179 L 1350.453 801.859 L 1349.772 811.796 L 1366.652 811.796 L 1378.631 811.796 L 1378.631 811.796 Q 1378.223 819.283 1377.78 826.668 L 1377.78 826.668 L 1377.78 826.668 Q 1377.338 834.053 1376.997 841.472 L 1376.997 841.472 L 1318.327 842.833 L 1320.505 744.687 Z  M 902.872 794.781 L 902.872 794.781 L 902.872 794.781 Q 902.872 800.974 901.442 806.726 L 901.442 806.726 L 901.442 806.726 Q 900.013 812.477 897.325 817.514 L 897.325 817.514 L 897.325 817.514 Q 894.636 822.55 890.791 826.736 L 890.791 826.736 L 890.791 826.736 Q 886.945 830.922 882.147 833.917 L 882.147 833.917 L 882.147 833.917 Q 877.348 836.912 871.699 838.579 L 871.699 838.579 L 871.699 838.579 Q 866.05 840.247 859.72 840.247 L 859.72 840.247 L 859.72 840.247 Q 853.594 840.247 848.047 838.681 L 848.047 838.681 L 848.047 838.681 Q 842.5 837.116 837.668 834.291 L 837.668 834.291 L 837.668 834.291 Q 832.835 831.467 828.921 827.485 L 828.921 827.485 L 828.921 827.485 Q 825.008 823.503 822.251 818.637 L 822.251 818.637 L 822.251 818.637 Q 819.495 813.77 817.963 808.189 L 817.963 808.189 L 817.963 808.189 Q 816.432 802.608 816.432 796.55 L 816.432 796.55 L 816.432 796.55 Q 816.432 790.629 817.861 784.946 L 817.861 784.946 L 817.861 784.946 Q 819.291 779.262 821.979 774.226 L 821.979 774.226 L 821.979 774.226 Q 824.668 769.189 828.479 764.969 L 828.479 764.969 L 828.479 764.969 Q 832.291 760.749 837.021 757.687 L 837.021 757.687 L 837.021 757.687 Q 841.751 754.624 847.264 752.922 L 847.264 752.922 L 847.264 752.922 Q 852.777 751.221 858.903 751.221 L 858.903 751.221 L 858.903 751.221 Q 868.772 751.221 876.906 754.283 L 876.906 754.283 L 876.906 754.283 Q 885.039 757.346 890.791 763.029 L 890.791 763.029 L 890.791 763.029 Q 896.542 768.713 899.707 776.778 L 899.707 776.778 L 899.707 776.778 Q 902.872 784.844 902.872 794.781 Z  M 872.652 796.55 L 872.652 796.55 L 872.652 796.55 Q 872.652 793.624 871.801 790.867 L 871.801 790.867 L 871.801 790.867 Q 870.95 788.111 869.317 785.967 L 869.317 785.967 L 869.317 785.967 Q 867.683 783.823 865.267 782.495 L 865.267 782.495 L 865.267 782.495 Q 862.851 781.168 859.72 781.168 L 859.72 781.168 L 859.72 781.168 Q 856.521 781.168 854.003 782.325 L 854.003 782.325 L 854.003 782.325 Q 851.484 783.482 849.681 785.49 L 849.681 785.49 L 849.681 785.49 Q 847.877 787.498 846.924 790.187 L 846.924 790.187 L 846.924 790.187 Q 845.971 792.875 845.971 795.87 L 845.971 795.87 L 845.971 795.87 Q 845.971 798.728 846.788 801.587 L 846.788 801.587 L 846.788 801.587 Q 847.605 804.446 849.238 806.76 L 849.238 806.76 L 849.238 806.76 Q 850.872 809.074 853.288 810.503 L 853.288 810.503 L 853.288 810.503 Q 855.704 811.933 858.903 811.933 L 858.903 811.933 L 858.903 811.933 Q 862.102 811.933 864.654 810.673 L 864.654 810.673 L 864.654 810.673 Q 867.207 809.414 868.976 807.27 L 868.976 807.27 L 868.976 807.27 Q 870.746 805.126 871.699 802.336 L 871.699 802.336 L 871.699 802.336 Q 872.652 799.545 872.652 796.55 Z  M 909.338 744.687 L 972.092 744.687 L 972.092 744.687 Q 971.683 751.084 971.343 757.346 L 971.343 757.346 L 971.343 757.346 Q 971.003 763.608 970.458 770.006 L 970.458 770.006 L 941.599 771.503 L 941.599 780.079 L 966.647 780.079 L 965.285 801.179 L 941.463 801.859 L 941.599 842.152 L 907.16 842.833 L 909.338 744.687 Z  M 615.51 778.718 L 615.51 778.718 L 615.51 778.718 Q 615.51 784.163 613.537 789.098 L 613.537 789.098 L 613.537 789.098 Q 611.563 794.032 608.33 798.354 L 608.33 798.354 L 608.33 798.354 Q 605.097 802.676 600.979 806.317 L 600.979 806.317 L 600.979 806.317 Q 596.861 809.959 592.641 812.885 L 592.641 812.885 L 614.149 812.885 L 612.516 841.2 L 548.809 839.022 L 548.809 814.247 L 548.809 814.247 Q 552.416 813.022 556.398 811.286 L 556.398 811.286 L 556.398 811.286 Q 560.38 809.55 564.225 807.304 L 564.225 807.304 L 564.225 807.304 Q 568.071 805.058 571.508 802.268 L 571.508 802.268 L 571.508 802.268 Q 574.945 799.477 577.565 796.176 L 577.565 796.176 L 577.565 796.176 Q 580.186 792.875 581.717 788.995 L 581.717 788.995 L 581.717 788.995 Q 583.249 785.116 583.249 780.624 L 583.249 780.624 L 583.249 780.624 Q 583.249 778.037 582.33 776.063 L 582.33 776.063 L 582.33 776.063 Q 581.411 774.09 579.777 772.762 L 579.777 772.762 L 579.777 772.762 Q 578.144 771.435 576 770.789 L 576 770.789 L 576 770.789 Q 573.856 770.142 571.406 770.142 L 571.406 770.142 L 571.406 770.142 Q 569.364 770.142 567.254 770.584 L 567.254 770.584 L 567.254 770.584 Q 565.144 771.027 563.102 771.844 L 563.102 771.844 L 563.102 771.844 Q 561.06 772.66 559.257 773.851 L 559.257 773.851 L 559.257 773.851 Q 557.453 775.043 556.024 776.54 L 556.024 776.54 L 550.034 749.859 L 550.034 749.859 Q 552.552 747.341 555.819 745.639 L 555.819 745.639 L 555.819 745.639 Q 559.086 743.938 562.694 742.883 L 562.694 742.883 L 562.694 742.883 Q 566.301 741.828 570.045 741.351 L 570.045 741.351 L 570.045 741.351 Q 573.788 740.875 577.395 740.875 L 577.395 740.875 L 577.395 740.875 Q 585.427 740.875 592.369 743.768 L 592.369 743.768 L 592.369 743.768 Q 599.312 746.66 604.45 751.731 L 604.45 751.731 L 604.45 751.731 Q 609.589 756.802 612.55 763.744 L 612.55 763.744 L 612.55 763.744 Q 615.51 770.687 615.51 778.718 Z  M 702.699 783.21 L 703.516 828.948 L 703.516 828.948 Q 700.317 832.964 695.62 835.959 L 695.62 835.959 L 695.62 835.959 Q 690.924 838.954 685.547 840.927 L 685.547 840.927 L 685.547 840.927 Q 680.17 842.901 674.521 843.888 L 674.521 843.888 L 674.521 843.888 Q 668.872 844.875 663.767 844.875 L 663.767 844.875 L 663.767 844.875 Q 653.898 844.875 645.594 841.336 L 645.594 841.336 L 645.594 841.336 Q 637.291 837.796 631.267 831.569 L 631.267 831.569 L 631.267 831.569 Q 625.243 825.341 621.84 816.901 L 621.84 816.901 L 621.84 816.901 Q 618.437 808.461 618.437 798.728 L 618.437 798.728 L 618.437 798.728 Q 618.437 791.31 620.139 784.197 L 620.139 784.197 L 620.139 784.197 Q 621.84 777.084 625.005 770.789 L 625.005 770.789 L 625.005 770.789 Q 628.17 764.493 632.73 759.218 L 632.73 759.218 L 632.73 759.218 Q 637.291 753.943 643.076 750.132 L 643.076 750.132 L 643.076 750.132 Q 648.861 746.32 655.736 744.21 L 655.736 744.21 L 655.736 744.21 Q 662.61 742.1 670.437 742.1 L 670.437 742.1 L 670.437 742.1 Q 673.364 742.1 676.699 742.338 L 676.699 742.338 L 676.699 742.338 Q 680.034 742.577 683.335 743.155 L 683.335 743.155 L 683.335 743.155 Q 686.636 743.734 689.767 744.755 L 689.767 744.755 L 689.767 744.755 Q 692.898 745.776 695.484 747.273 L 695.484 747.273 L 693.579 773.273 L 693.579 773.273 Q 689.767 771.844 685.717 771.333 L 685.717 771.333 L 685.717 771.333 Q 681.668 770.823 677.788 770.823 L 677.788 770.823 L 677.788 770.823 Q 672.343 770.823 667.613 772.49 L 667.613 772.49 L 667.613 772.49 Q 662.882 774.158 659.377 777.289 L 659.377 777.289 L 659.377 777.289 Q 655.872 780.42 653.83 784.912 L 653.83 784.912 L 653.83 784.912 Q 651.788 789.404 651.788 795.053 L 651.788 795.053 L 651.788 795.053 Q 651.788 798.592 652.741 801.893 L 652.741 801.893 L 652.741 801.893 Q 653.694 805.194 655.634 807.747 L 655.634 807.747 L 655.634 807.747 Q 657.573 810.299 660.466 811.865 L 660.466 811.865 L 660.466 811.865 Q 663.359 813.43 667.17 813.43 L 667.17 813.43 L 667.17 813.43 Q 669.757 813.43 672.513 812.749 L 672.513 812.749 L 672.513 812.749 Q 675.27 812.069 677.243 810.435 L 677.243 810.435 L 677.516 805.126 L 661.181 804.854 L 661.997 784.435 L 661.997 784.435 Q 672.139 784.095 682.28 783.857 L 682.28 783.857 L 682.28 783.857 Q 692.421 783.618 702.699 783.21 L 702.699 783.21 Z  M 787.914 818.603 L 787.914 818.603 L 787.914 818.603 Q 787.914 824.252 785.838 828.336 L 785.838 828.336 L 785.838 828.336 Q 783.762 832.42 780.291 835.278 L 780.291 835.278 L 780.291 835.278 Q 776.819 838.137 772.293 839.94 L 772.293 839.94 L 772.293 839.94 Q 767.767 841.744 762.866 842.765 L 762.866 842.765 L 762.866 842.765 Q 757.966 843.786 753.031 844.126 L 753.031 844.126 L 753.031 844.126 Q 748.097 844.467 743.809 844.467 L 743.809 844.467 L 743.809 844.467 Q 739.589 844.467 735.063 844.16 L 735.063 844.16 L 735.063 844.16 Q 730.537 843.854 726.045 843.105 L 726.045 843.105 L 726.045 843.105 Q 721.552 842.357 717.196 841.098 L 717.196 841.098 L 717.196 841.098 Q 712.84 839.838 708.961 837.933 L 708.961 837.933 L 708.825 750.268 L 708.825 750.268 Q 712.636 748.702 716.924 747.443 L 716.924 747.443 L 716.924 747.443 Q 721.212 746.184 725.67 745.333 L 725.67 745.333 L 725.67 745.333 Q 730.128 744.482 734.552 744.04 L 734.552 744.04 L 734.552 744.04 Q 738.976 743.598 743.128 743.598 L 743.128 743.598 L 743.128 743.598 Q 747.961 743.598 752.895 744.21 L 752.895 744.21 L 752.895 744.21 Q 757.83 744.823 762.39 746.252 L 762.39 746.252 L 762.39 746.252 Q 766.95 747.681 770.898 749.961 L 770.898 749.961 L 770.898 749.961 Q 774.846 752.241 777.806 755.577 L 777.806 755.577 L 777.806 755.577 Q 780.767 758.912 782.435 763.336 L 782.435 763.336 L 782.435 763.336 Q 784.102 767.76 784.102 773.545 L 784.102 773.545 L 784.102 773.545 Q 784.102 777.357 783.013 780.692 L 783.013 780.692 L 783.013 780.692 Q 781.924 784.027 779.882 786.681 L 779.882 786.681 L 779.882 786.681 Q 777.84 789.336 774.914 791.207 L 774.914 791.207 L 774.914 791.207 Q 771.987 793.079 768.312 793.964 L 768.312 793.964 L 768.312 793.964 Q 772.736 795.121 776.377 797.367 L 776.377 797.367 L 776.377 797.367 Q 780.018 799.613 782.571 802.812 L 782.571 802.812 L 782.571 802.812 Q 785.123 806.011 786.518 810.027 L 786.518 810.027 L 786.518 810.027 Q 787.914 814.043 787.914 818.603 Z  M 753.338 779.807 L 753.338 779.807 L 753.338 779.807 Q 753.338 777.833 752.521 776.438 L 752.521 776.438 L 752.521 776.438 Q 751.704 775.043 750.513 774.158 L 750.513 774.158 L 750.513 774.158 Q 749.322 773.273 747.927 772.865 L 747.927 772.865 L 747.927 772.865 Q 746.531 772.456 745.442 772.456 L 745.442 772.456 L 745.442 772.456 Q 744.081 772.456 742.788 772.865 L 742.788 772.865 L 742.788 772.865 Q 741.495 773.273 740.27 773.817 L 740.27 773.817 L 739.861 788.927 L 739.861 788.927 Q 741.427 788.927 743.741 788.655 L 743.741 788.655 L 743.741 788.655 Q 746.055 788.383 748.199 787.464 L 748.199 787.464 L 748.199 787.464 Q 750.343 786.545 751.84 784.741 L 751.84 784.741 L 751.84 784.741 Q 753.338 782.938 753.338 779.807 Z  M 743.673 801.995 L 743.673 801.995 L 743.673 801.995 Q 741.699 801.995 739.861 802.404 L 739.861 802.404 L 739.589 817.922 L 739.589 817.922 Q 740.61 818.126 741.597 818.296 L 741.597 818.296 L 741.597 818.296 Q 742.584 818.467 743.537 818.467 L 743.537 818.467 L 743.537 818.467 Q 744.966 818.467 746.668 818.16 L 746.668 818.16 L 746.668 818.16 Q 748.369 817.854 749.866 816.935 L 749.866 816.935 L 749.866 816.935 Q 751.364 816.016 752.351 814.451 L 752.351 814.451 L 752.351 814.451 Q 753.338 812.885 753.338 810.299 L 753.338 810.299 L 753.338 810.299 Q 753.338 807.713 752.351 806.079 L 752.351 806.079 L 752.351 806.079 Q 751.364 804.446 749.935 803.527 L 749.935 803.527 L 749.935 803.527 Q 748.505 802.608 746.804 802.302 L 746.804 802.302 L 746.804 802.302 Q 745.102 801.995 743.673 801.995 Z  M 238.919 744.687 L 301.673 744.687 L 301.673 744.687 Q 301.264 751.084 300.924 757.346 L 300.924 757.346 L 300.924 757.346 Q 300.584 763.608 300.039 770.006 L 300.039 770.006 L 271.181 771.503 L 271.181 780.079 L 296.228 780.079 L 294.866 801.179 L 271.045 801.859 L 271.181 842.152 L 236.741 842.833 L 238.919 744.687 Z  M 384.914 777.221 L 384.914 777.221 L 384.914 777.221 Q 384.914 782.529 383.995 786.851 L 383.995 786.851 L 383.995 786.851 Q 383.076 791.173 381.102 794.781 L 381.102 794.781 L 381.102 794.781 Q 379.128 798.388 375.997 801.451 L 375.997 801.451 L 375.997 801.451 Q 372.866 804.514 368.442 807.304 L 368.442 807.304 L 384.641 836.163 L 354.013 842.152 L 343.531 813.158 L 335.092 813.43 L 333.866 841.744 L 304.599 841.744 L 304.599 841.744 Q 304.94 826.226 305.246 810.844 L 305.246 810.844 L 305.246 810.844 Q 305.552 795.461 305.961 779.943 L 305.961 779.943 L 305.961 779.943 Q 306.097 772.116 306.233 764.425 L 306.233 764.425 L 306.233 764.425 Q 306.369 756.734 306.777 748.906 L 306.777 748.906 L 306.777 748.906 Q 311.542 747.137 316.17 745.98 L 316.17 745.98 L 316.17 745.98 Q 320.798 744.823 325.461 744.176 L 325.461 744.176 L 325.461 744.176 Q 330.123 743.529 334.921 743.291 L 334.921 743.291 L 334.921 743.291 Q 339.72 743.053 344.757 743.053 L 344.757 743.053 L 344.757 743.053 Q 352.516 743.053 359.764 745.197 L 359.764 745.197 L 359.764 745.197 Q 367.013 747.341 372.594 751.629 L 372.594 751.629 L 372.594 751.629 Q 378.175 755.917 381.545 762.315 L 381.545 762.315 L 381.545 762.315 Q 384.914 768.713 384.914 777.221 Z  M 354.421 779.399 L 354.421 779.399 L 354.421 779.399 Q 354.421 776.54 353.639 774.158 L 353.639 774.158 L 353.639 774.158 Q 352.856 771.776 351.325 770.04 L 351.325 770.04 L 351.325 770.04 Q 349.793 768.304 347.513 767.317 L 347.513 767.317 L 347.513 767.317 Q 345.233 766.33 342.17 766.33 L 342.17 766.33 L 342.17 766.33 Q 340.809 766.33 339.516 766.501 L 339.516 766.501 L 339.516 766.501 Q 338.223 766.671 336.997 767.011 L 336.997 767.011 L 335.908 792.33 L 337.542 792.33 L 337.542 792.33 Q 340.469 792.33 343.497 791.582 L 343.497 791.582 L 343.497 791.582 Q 346.526 790.833 348.942 789.268 L 348.942 789.268 L 348.942 789.268 Q 351.359 787.702 352.89 785.252 L 352.89 785.252 L 352.89 785.252 Q 354.421 782.802 354.421 779.399 Z  M 391.312 744.687 L 454.065 744.687 L 454.065 744.687 Q 453.657 751.084 453.317 757.346 L 453.317 757.346 L 453.317 757.346 Q 452.976 763.608 452.432 770.006 L 452.432 770.006 L 423.573 771.503 L 422.893 780.079 L 443.175 780.079 L 441.678 801.179 L 421.259 801.859 L 420.579 811.796 L 437.458 811.796 L 449.437 811.796 L 449.437 811.796 Q 449.029 819.283 448.586 826.668 L 448.586 826.668 L 448.586 826.668 Q 448.144 834.053 447.804 841.472 L 447.804 841.472 L 389.134 842.833 L 391.312 744.687 Z  M 458.081 744.687 L 520.835 744.687 L 520.835 744.687 Q 520.427 751.084 520.086 757.346 L 520.086 757.346 L 520.086 757.346 Q 519.746 763.608 519.202 770.006 L 519.202 770.006 L 490.343 771.503 L 489.662 780.079 L 509.945 780.079 L 508.448 801.179 L 488.029 801.859 L 487.348 811.796 L 504.228 811.796 L 516.207 811.796 L 516.207 811.796 Q 515.798 819.283 515.356 826.668 L 515.356 826.668 L 515.356 826.668 Q 514.914 834.053 514.573 841.472 L 514.573 841.472 L 455.903 842.833 L 458.081 744.687 Z " fill-rule="evenodd" fill="rgb(255,255,255)"/><path d=" M 895.205 561.834 L 881.064 570.26 L 867.921 560.344 L 794.259 504.962 L 722.273 560.208 L 709.142 570.309 L 694.902 561.933 L 658.762 540.758 L 658.762 573.672 L 794.111 663.125 L 929.757 574.349 L 929.757 541.337 L 895.205 561.834 Z  M 1015.982 317.939 L 885.153 235.125 L 794.259 309.76 L 930.089 388.804 L 1015.982 317.939 Z  M 572.536 461.702 L 707.22 540.623 L 794.259 473.835 L 665.253 391.748 L 572.536 461.702 Z  M 707.22 235.125 L 572.536 321.917 L 665.253 391.736 L 794.259 309.747 L 707.22 235.125 Z  M 794.259 473.835 L 883.072 540.623 L 1015.982 461.702 L 930.089 388.804 L 794.259 473.835 Z " fill-rule="evenodd" fill="rgb(255,255,255)"/></g></g></svg>