<?xml version="1.0" encoding="UTF-8" standalone="no"?><!-- Generator: Gravit.io --><svg xmlns="http://www.w3.org/2000/svg" xmlns:xlink="http://www.w3.org/1999/xlink" style="isolation:isolate" viewBox="0 0 1620 1080" width="1620pt" height="1080pt"><defs><clipPath id="_clipPath_3g5QswSgMfVGJOdgaqebLefbrcZA2lf8"><rect width="1620" height="1080"/></clipPath></defs><g clip-path="url(#_clipPath_3g5QswSgMfVGJOdgaqebLefbrcZA2lf8)"><rect width="1620" height="1080" style="fill:rgb(20,66,118)"/><path d=" M 1059.017 814.144 L 1059.017 814.144 L 1059.017 814.144 Q 1052.678 814.144 1046.685 810.005 L 1046.685 810.005 L 1046.685 810.005 Q 1040.693 805.866 1035.938 796.109 L 1035.938 796.109 L 1045.645 784.727 L 1045.645 784.727 Q 1048.221 790.344 1052.034 793.596 L 1052.034 793.596 L 1052.034 793.596 Q 1055.848 796.848 1060.008 796.848 L 1060.008 796.848 L 1060.008 796.848 Q 1064.168 796.848 1066.743 793.892 L 1066.743 793.892 L 1066.743 793.892 Q 1069.319 790.935 1069.319 785.761 L 1069.319 785.761 L 1069.319 785.761 Q 1069.319 781.918 1067.288 779.479 L 1067.288 779.479 L 1067.288 779.479 Q 1065.258 777.04 1061.791 773.787 L 1061.791 773.787 L 1055.65 768.17 L 1055.65 768.17 Q 1051.192 764.031 1048.617 758.487 L 1048.617 758.487 L 1048.617 758.487 Q 1046.041 752.944 1046.041 744.074 L 1046.041 744.074 L 1046.041 744.074 Q 1046.041 737.866 1047.824 732.47 L 1047.824 732.47 L 1047.824 732.47 Q 1049.607 727.074 1052.628 723.009 L 1052.628 723.009 L 1052.628 723.009 Q 1055.65 718.944 1059.81 716.579 L 1059.81 716.579 L 1059.81 716.579 Q 1063.97 714.213 1068.724 714.213 L 1068.724 714.213 L 1068.724 714.213 Q 1074.469 714.213 1079.521 718.205 L 1079.521 718.205 L 1079.521 718.205 Q 1084.573 722.196 1088.337 728.848 L 1088.337 728.848 L 1079.719 740.822 L 1079.719 740.822 Q 1077.243 736.979 1074.469 734.392 L 1074.469 734.392 L 1074.469 734.392 Q 1071.696 731.805 1068.13 731.805 L 1068.13 731.805 L 1068.13 731.805 Q 1064.168 731.805 1062.038 734.835 L 1062.038 734.835 L 1062.038 734.835 Q 1059.909 737.866 1059.909 742.153 L 1059.909 742.153 L 1059.909 742.153 Q 1059.909 745.848 1062.088 748.214 L 1062.088 748.214 L 1062.088 748.214 Q 1064.267 750.579 1068.031 754.127 L 1068.031 754.127 L 1074.37 759.892 L 1074.37 759.892 Q 1079.125 764.179 1081.255 769.279 L 1081.255 769.279 L 1081.255 769.279 Q 1083.384 774.379 1083.384 782.805 L 1083.384 782.805 L 1083.384 782.805 Q 1083.384 789.457 1081.651 795.148 L 1081.651 795.148 L 1081.651 795.148 Q 1079.917 800.84 1076.748 805.053 L 1076.748 805.053 L 1076.748 805.053 Q 1073.578 809.266 1069.071 811.705 L 1069.071 811.705 L 1069.071 811.705 Q 1064.564 814.144 1059.017 814.144 Z  M 1113.199 812.37 L 1099.629 812.37 L 1110.128 733.135 L 1093.19 733.135 L 1095.369 715.987 L 1142.915 715.987 L 1140.636 733.135 L 1123.698 733.135 L 1113.199 812.37 L 1113.199 812.37 Z  M 1165.498 814.144 L 1165.498 814.144 L 1165.498 814.144 Q 1159.952 814.144 1155.494 811.409 L 1155.494 811.409 L 1155.494 811.409 Q 1151.037 808.675 1147.867 803.427 L 1147.867 803.427 L 1147.867 803.427 Q 1144.697 798.179 1142.964 790.566 L 1142.964 790.566 L 1142.964 790.566 Q 1141.231 782.953 1141.231 773.344 L 1141.231 773.344 L 1141.231 773.344 Q 1141.231 760.631 1143.905 749.766 L 1143.905 749.766 L 1143.905 749.766 Q 1146.58 738.9 1151.086 730.992 L 1151.086 730.992 L 1151.086 730.992 Q 1155.593 723.083 1161.536 718.648 L 1161.536 718.648 L 1161.536 718.648 Q 1167.48 714.213 1174.017 714.213 L 1174.017 714.213 L 1174.017 714.213 Q 1179.564 714.213 1184.021 717.022 L 1184.021 717.022 L 1184.021 717.022 Q 1188.479 719.831 1191.648 725.079 L 1191.648 725.079 L 1191.648 725.079 Q 1194.818 730.327 1196.551 737.866 L 1196.551 737.866 L 1196.551 737.866 Q 1198.285 745.405 1198.285 755.013 L 1198.285 755.013 L 1198.285 755.013 Q 1198.285 767.727 1195.61 778.592 L 1195.61 778.592 L 1195.61 778.592 Q 1192.936 789.457 1188.429 797.366 L 1188.429 797.366 L 1188.429 797.366 Q 1183.922 805.274 1177.979 809.709 L 1177.979 809.709 L 1177.979 809.709 Q 1172.036 814.144 1165.498 814.144 Z  M 1166.192 796.701 L 1166.192 796.701 L 1166.192 796.701 Q 1169.659 796.701 1172.927 793.522 L 1172.927 793.522 L 1172.927 793.522 Q 1176.196 790.344 1178.771 784.874 L 1178.771 784.874 L 1178.771 784.874 Q 1181.347 779.405 1182.882 772.087 L 1182.882 772.087 L 1182.882 772.087 Q 1184.417 764.77 1184.417 756.344 L 1184.417 756.344 L 1184.417 756.344 Q 1184.417 744.813 1181.594 738.309 L 1181.594 738.309 L 1181.594 738.309 Q 1178.771 731.805 1173.423 731.805 L 1173.423 731.805 L 1173.423 731.805 Q 1169.956 731.805 1166.687 734.983 L 1166.687 734.983 L 1166.687 734.983 Q 1163.418 738.161 1160.843 743.557 L 1160.843 743.557 L 1160.843 743.557 Q 1158.268 748.953 1156.683 756.27 L 1156.683 756.27 L 1156.683 756.27 Q 1155.098 763.587 1155.098 772.014 L 1155.098 772.014 L 1155.098 772.014 Q 1155.098 783.544 1157.97 790.122 L 1157.97 790.122 L 1157.97 790.122 Q 1160.843 796.701 1166.192 796.701 Z  M 1231.071 814.144 L 1231.071 814.144 L 1231.071 814.144 Q 1225.425 814.144 1220.918 811.409 L 1220.918 811.409 L 1220.918 811.409 Q 1216.411 808.675 1213.192 803.427 L 1213.192 803.427 L 1213.192 803.427 Q 1209.973 798.179 1208.239 790.714 L 1208.239 790.714 L 1208.239 790.714 Q 1206.506 783.248 1206.506 773.787 L 1206.506 773.787 L 1206.506 773.787 Q 1206.506 761.37 1209.181 750.505 L 1209.181 750.505 L 1209.181 750.505 Q 1211.855 739.64 1216.461 731.583 L 1216.461 731.583 L 1216.461 731.583 Q 1221.067 723.526 1227.357 718.87 L 1227.357 718.87 L 1227.357 718.87 Q 1233.646 714.213 1240.877 714.213 L 1240.877 714.213 L 1240.877 714.213 Q 1246.523 714.213 1250.931 718.279 L 1250.931 718.279 L 1250.931 718.279 Q 1255.339 722.344 1258.112 729.587 L 1258.112 729.587 L 1248.801 740.231 L 1248.801 740.231 Q 1247.018 735.944 1244.938 733.874 L 1244.938 733.874 L 1244.938 733.874 Q 1242.858 731.805 1240.184 731.805 L 1240.184 731.805 L 1240.184 731.805 Q 1236.024 731.805 1232.458 735.131 L 1232.458 735.131 L 1232.458 735.131 Q 1228.892 738.457 1226.218 744.074 L 1226.218 744.074 L 1226.218 744.074 Q 1223.543 749.692 1222.008 757.083 L 1222.008 757.083 L 1222.008 757.083 Q 1220.472 764.474 1220.472 772.457 L 1220.472 772.457 L 1220.472 772.457 Q 1220.472 783.692 1223.642 790.196 L 1223.642 790.196 L 1223.642 790.196 Q 1226.812 796.701 1233.944 796.701 L 1233.944 796.701 L 1233.944 796.701 Q 1236.816 796.701 1239.589 794.631 L 1239.589 794.631 L 1239.589 794.631 Q 1242.363 792.561 1244.938 789.309 L 1244.938 789.309 L 1250.584 802.318 L 1250.584 802.318 Q 1249.099 804.388 1247.118 806.457 L 1247.118 806.457 L 1247.118 806.457 Q 1245.136 808.527 1242.66 810.227 L 1242.66 810.227 L 1242.66 810.227 Q 1240.184 811.927 1237.262 813.035 L 1237.262 813.035 L 1237.262 813.035 Q 1234.34 814.144 1231.071 814.144 Z  M 1273.564 812.37 L 1259.895 812.37 L 1272.871 715.987 L 1286.441 715.987 L 1281.192 755.605 L 1281.489 755.605 L 1305.756 715.987 L 1320.614 715.987 L 1297.139 755.605 L 1311.6 812.37 L 1297.436 812.37 L 1287.135 768.318 L 1277.328 784.135 L 1273.564 812.37 L 1273.564 812.37 Z  M 818.915 812.37 L 805.246 812.37 L 818.221 715.987 L 856.455 715.987 L 854.276 732.987 L 829.414 732.987 L 826.344 756.64 L 847.343 756.64 L 845.164 773.64 L 824.065 773.64 L 818.915 812.37 L 818.915 812.37 Z  M 868.837 812.37 L 855.168 812.37 L 868.144 715.987 L 888.35 715.987 L 888.35 715.987 Q 893.105 715.987 897.166 717.318 L 897.166 717.318 L 897.166 717.318 Q 901.227 718.648 904.149 721.605 L 904.149 721.605 L 904.149 721.605 Q 907.071 724.561 908.755 729.292 L 908.755 729.292 L 908.755 729.292 Q 910.439 734.022 910.439 740.674 L 910.439 740.674 L 910.439 740.674 Q 910.439 747.474 909.201 752.87 L 909.201 752.87 L 909.201 752.87 Q 907.963 758.266 905.784 762.405 L 905.784 762.405 L 905.784 762.405 Q 903.604 766.544 900.583 769.5 L 900.583 769.5 L 900.583 769.5 Q 897.562 772.457 893.996 774.231 L 893.996 774.231 L 904.001 812.37 L 889.737 812.37 L 881.417 777.04 L 873.492 777.04 L 868.837 812.37 L 868.837 812.37 Z  M 879.436 732.1 L 875.672 760.927 L 882.506 760.927 L 882.506 760.927 Q 889.737 760.927 893.402 756.27 L 893.402 756.27 L 893.402 756.27 Q 897.067 751.614 897.067 743.631 L 897.067 743.631 L 897.067 743.631 Q 897.067 737.422 894.293 734.761 L 894.293 734.761 L 894.293 734.761 Q 891.52 732.1 886.27 732.1 L 886.27 732.1 L 879.436 732.1 L 879.436 732.1 Z  M 953.527 812.37 L 914.203 812.37 L 927.179 715.987 L 965.413 715.987 L 963.234 732.987 L 938.372 732.987 L 935.598 753.979 L 956.696 753.979 L 954.517 770.979 L 933.419 770.979 L 930.051 795.37 L 955.706 795.37 L 953.527 812.37 L 953.527 812.37 Z  M 1005.727 812.37 L 966.403 812.37 L 979.379 715.987 L 1017.614 715.987 L 1015.434 732.987 L 990.572 732.987 L 987.799 753.979 L 1008.897 753.979 L 1006.718 770.979 L 985.62 770.979 L 982.252 795.37 L 1007.906 795.37 L 1005.727 812.37 L 1005.727 812.37 Z  M 573.265 812.37 L 559.794 812.37 L 564.35 777.483 L 554.049 715.987 L 568.114 715.987 L 570.888 739.196 L 570.888 739.196 Q 571.581 744.666 572.126 749.692 L 572.126 749.692 L 572.126 749.692 Q 572.671 754.718 573.364 760.335 L 573.364 760.335 L 573.76 760.335 L 573.76 760.335 Q 575.741 754.718 577.623 749.618 L 577.623 749.618 L 577.623 749.618 Q 579.505 744.518 581.685 738.9 L 581.685 738.9 L 590.698 715.987 L 605.259 715.987 L 577.921 777.483 L 573.265 812.37 L 573.265 812.37 Z  M 624.673 814.144 L 624.673 814.144 L 624.673 814.144 Q 619.126 814.144 614.669 811.409 L 614.669 811.409 L 614.669 811.409 Q 610.212 808.675 607.042 803.427 L 607.042 803.427 L 607.042 803.427 Q 603.872 798.179 602.139 790.566 L 602.139 790.566 L 602.139 790.566 Q 600.405 782.953 600.405 773.344 L 600.405 773.344 L 600.405 773.344 Q 600.405 760.631 603.08 749.766 L 603.08 749.766 L 603.08 749.766 Q 605.754 738.9 610.261 730.992 L 610.261 730.992 L 610.261 730.992 Q 614.768 723.083 620.711 718.648 L 620.711 718.648 L 620.711 718.648 Q 626.654 714.213 633.192 714.213 L 633.192 714.213 L 633.192 714.213 Q 638.739 714.213 643.196 717.022 L 643.196 717.022 L 643.196 717.022 Q 647.653 719.831 650.823 725.079 L 650.823 725.079 L 650.823 725.079 Q 653.993 730.327 655.726 737.866 L 655.726 737.866 L 655.726 737.866 Q 657.46 745.405 657.46 755.013 L 657.46 755.013 L 657.46 755.013 Q 657.46 767.727 654.785 778.592 L 654.785 778.592 L 654.785 778.592 Q 652.111 789.457 647.604 797.366 L 647.604 797.366 L 647.604 797.366 Q 643.097 805.274 637.154 809.709 L 637.154 809.709 L 637.154 809.709 Q 631.211 814.144 624.673 814.144 Z  M 625.367 796.701 L 625.367 796.701 L 625.367 796.701 Q 628.834 796.701 632.102 793.522 L 632.102 793.522 L 632.102 793.522 Q 635.371 790.344 637.946 784.874 L 637.946 784.874 L 637.946 784.874 Q 640.522 779.405 642.057 772.087 L 642.057 772.087 L 642.057 772.087 Q 643.592 764.77 643.592 756.344 L 643.592 756.344 L 643.592 756.344 Q 643.592 744.813 640.769 738.309 L 640.769 738.309 L 640.769 738.309 Q 637.946 731.805 632.597 731.805 L 632.597 731.805 L 632.597 731.805 Q 629.131 731.805 625.862 734.983 L 625.862 734.983 L 625.862 734.983 Q 622.593 738.161 620.018 743.557 L 620.018 743.557 L 620.018 743.557 Q 617.442 748.953 615.858 756.27 L 615.858 756.27 L 615.858 756.27 Q 614.273 763.587 614.273 772.014 L 614.273 772.014 L 614.273 772.014 Q 614.273 783.544 617.145 790.122 L 617.145 790.122 L 617.145 790.122 Q 620.018 796.701 625.367 796.701 Z  M 668.851 765.066 L 668.851 765.066 L 675.487 715.987 L 689.057 715.987 L 682.025 768.761 L 682.025 768.761 Q 681.628 771.718 681.43 774.527 L 681.43 774.527 L 681.43 774.527 Q 681.232 777.335 681.232 779.996 L 681.232 779.996 L 681.232 779.996 Q 681.232 788.127 683.411 792.414 L 683.411 792.414 L 683.411 792.414 Q 685.59 796.701 691.038 796.701 L 691.038 796.701 L 691.038 796.701 Q 695.694 796.701 698.764 791.009 L 698.764 791.009 L 698.764 791.009 Q 701.835 785.318 703.618 771.866 L 703.618 771.866 L 711.146 715.987 L 724.419 715.987 L 716.891 771.57 L 716.891 771.57 Q 713.919 793.744 707.431 803.944 L 707.431 803.944 L 707.431 803.944 Q 700.944 814.144 690.642 814.144 L 690.642 814.144 L 690.642 814.144 Q 679.152 814.144 673.357 805.94 L 673.357 805.94 L 673.357 805.94 Q 667.563 797.735 667.563 780.588 L 667.563 780.588 L 667.563 780.588 Q 667.563 777.335 667.959 773.122 L 667.959 773.122 L 667.959 773.122 Q 668.355 768.909 668.851 765.066 Z  M 740.267 812.37 L 726.598 812.37 L 739.574 715.987 L 759.781 715.987 L 759.781 715.987 Q 764.535 715.987 768.596 717.318 L 768.596 717.318 L 768.596 717.318 Q 772.657 718.648 775.579 721.605 L 775.579 721.605 L 775.579 721.605 Q 778.501 724.561 780.185 729.292 L 780.185 729.292 L 780.185 729.292 Q 781.869 734.022 781.869 740.674 L 781.869 740.674 L 781.869 740.674 Q 781.869 747.474 780.631 752.87 L 780.631 752.87 L 780.631 752.87 Q 779.393 758.266 777.214 762.405 L 777.214 762.405 L 777.214 762.405 Q 775.035 766.544 772.013 769.5 L 772.013 769.5 L 772.013 769.5 Q 768.992 772.457 765.427 774.231 L 765.427 774.231 L 775.431 812.37 L 761.167 812.37 L 752.847 777.04 L 744.923 777.04 L 740.267 812.37 L 740.267 812.37 Z  M 750.866 732.1 L 747.102 760.927 L 753.936 760.927 L 753.936 760.927 Q 761.167 760.927 764.832 756.27 L 764.832 756.27 L 764.832 756.27 Q 768.497 751.614 768.497 743.631 L 768.497 743.631 L 768.497 743.631 Q 768.497 737.422 765.724 734.761 L 765.724 734.761 L 765.724 734.761 Q 762.95 732.1 757.7 732.1 L 757.7 732.1 L 750.866 732.1 L 750.866 732.1 Z  M 324.941 814.144 L 324.941 814.144 L 324.941 814.144 Q 318.998 814.144 314.244 811.409 L 314.244 811.409 L 314.244 811.409 Q 309.489 808.675 306.171 803.501 L 306.171 803.501 L 306.171 803.501 Q 302.853 798.327 301.119 790.861 L 301.119 790.861 L 301.119 790.861 Q 299.386 783.396 299.386 773.787 L 299.386 773.787 L 299.386 773.787 Q 299.386 761.37 302.06 750.505 L 302.06 750.505 L 302.06 750.505 Q 304.735 739.64 309.44 731.583 L 309.44 731.583 L 309.44 731.583 Q 314.145 723.526 320.632 718.87 L 320.632 718.87 L 320.632 718.87 Q 327.12 714.213 334.747 714.213 L 334.747 714.213 L 334.747 714.213 Q 340.988 714.213 345.495 718.279 L 345.495 718.279 L 345.495 718.279 Q 350.001 722.344 352.775 729.587 L 352.775 729.587 L 343.563 740.231 L 343.563 740.231 Q 341.681 735.944 339.452 733.874 L 339.452 733.874 L 339.452 733.874 Q 337.224 731.805 334.054 731.805 L 334.054 731.805 L 334.054 731.805 Q 329.597 731.805 325.783 735.131 L 325.783 735.131 L 325.783 735.131 Q 321.97 738.457 319.196 744.074 L 319.196 744.074 L 319.196 744.074 Q 316.423 749.692 314.887 757.083 L 314.887 757.083 L 314.887 757.083 Q 313.352 764.474 313.352 772.457 L 313.352 772.457 L 313.352 772.457 Q 313.352 778.074 314.095 782.509 L 314.095 782.509 L 314.095 782.509 Q 314.838 786.944 316.522 790.196 L 316.522 790.196 L 316.522 790.196 Q 318.206 793.448 320.88 795.148 L 320.88 795.148 L 320.88 795.148 Q 323.555 796.848 327.319 796.848 L 327.319 796.848 L 327.319 796.848 Q 329.3 796.848 331.132 795.961 L 331.132 795.961 L 331.132 795.961 Q 332.964 795.074 334.351 793.596 L 334.351 793.596 L 337.125 774.674 L 326.526 774.674 L 328.606 758.118 L 351.091 758.118 L 345.148 804.092 L 345.148 804.092 Q 341.384 808.379 336.233 811.261 L 336.233 811.261 L 336.233 811.261 Q 331.082 814.144 324.941 814.144 Z  M 370.802 812.37 L 357.133 812.37 L 370.109 715.987 L 390.316 715.987 L 390.316 715.987 Q 395.07 715.987 399.131 717.318 L 399.131 717.318 L 399.131 717.318 Q 403.193 718.648 406.115 721.605 L 406.115 721.605 L 406.115 721.605 Q 409.037 724.561 410.72 729.292 L 410.72 729.292 L 410.72 729.292 Q 412.404 734.022 412.404 740.674 L 412.404 740.674 L 412.404 740.674 Q 412.404 747.474 411.166 752.87 L 411.166 752.87 L 411.166 752.87 Q 409.928 758.266 407.749 762.405 L 407.749 762.405 L 407.749 762.405 Q 405.57 766.544 402.549 769.5 L 402.549 769.5 L 402.549 769.5 Q 399.528 772.457 395.962 774.231 L 395.962 774.231 L 405.966 812.37 L 391.702 812.37 L 383.382 777.04 L 375.458 777.04 L 370.802 812.37 L 370.802 812.37 Z  M 381.401 732.1 L 377.637 760.927 L 384.472 760.927 L 384.472 760.927 Q 391.702 760.927 395.367 756.27 L 395.367 756.27 L 395.367 756.27 Q 399.032 751.614 399.032 743.631 L 399.032 743.631 L 399.032 743.631 Q 399.032 737.422 396.259 734.761 L 396.259 734.761 L 396.259 734.761 Q 393.485 732.1 388.236 732.1 L 388.236 732.1 L 381.401 732.1 L 381.401 732.1 Z  M 437.663 760.187 L 437.663 760.187 L 433.701 772.9 L 447.568 772.9 L 447.172 760.187 L 447.172 760.187 Q 446.974 753.092 446.775 746.144 L 446.775 746.144 L 446.775 746.144 Q 446.577 739.196 446.379 731.509 L 446.379 731.509 L 445.983 731.509 L 445.983 731.509 Q 443.903 739.048 441.922 745.996 L 441.922 745.996 L 441.922 745.996 Q 439.941 752.944 437.663 760.187 Z  M 421.22 812.37 L 406.263 812.37 L 440.337 715.987 L 456.582 715.987 L 463.02 812.37 L 448.856 812.37 L 448.063 788.127 L 428.847 788.127 L 421.22 812.37 L 421.22 812.37 Z  M 492.934 812.37 L 469.458 812.37 L 482.434 715.987 L 502.146 715.987 L 502.146 715.987 Q 506.999 715.987 510.961 717.318 L 510.961 717.318 L 510.961 717.318 Q 514.923 718.648 517.796 721.309 L 517.796 721.309 L 517.796 721.309 Q 520.668 723.97 522.253 728.109 L 522.253 728.109 L 522.253 728.109 Q 523.838 732.248 523.838 738.013 L 523.838 738.013 L 523.838 738.013 Q 523.838 746.44 520.025 752.87 L 520.025 752.87 L 520.025 752.87 Q 516.211 759.3 509.872 762.109 L 509.872 762.109 L 509.674 762.7 L 509.674 762.7 Q 515.022 764.622 517.945 769.131 L 517.945 769.131 L 517.945 769.131 Q 520.867 773.64 520.867 780.735 L 520.867 780.735 L 520.867 780.735 Q 520.867 789.161 518.638 795.222 L 518.638 795.222 L 518.638 795.222 Q 516.409 801.283 512.596 805.053 L 512.596 805.053 L 512.596 805.053 Q 508.782 808.822 503.681 810.596 L 503.681 810.596 L 503.681 810.596 Q 498.58 812.37 492.934 812.37 L 492.934 812.37 L 492.934 812.37 Z  M 493.924 731.509 L 490.755 755.457 L 497.193 755.457 L 497.193 755.457 Q 504.028 755.457 506.999 751.614 L 506.999 751.614 L 506.999 751.614 Q 509.971 747.77 509.971 741.413 L 509.971 741.413 L 509.971 741.413 Q 509.971 736.683 507.495 734.096 L 507.495 734.096 L 507.495 734.096 Q 505.018 731.509 499.669 731.509 L 499.669 731.509 L 493.924 731.509 L 493.924 731.509 Z  M 488.873 769.205 L 485.109 796.848 L 493.528 796.848 L 493.528 796.848 Q 500.462 796.848 504.127 792.931 L 504.127 792.931 L 504.127 792.931 Q 507.792 789.014 507.792 781.474 L 507.792 781.474 L 507.792 781.474 Q 507.792 775.561 505.216 772.383 L 505.216 772.383 L 505.216 772.383 Q 502.641 769.205 497.292 769.205 L 497.292 769.205 L 488.873 769.205 L 488.873 769.205 Z " fill="rgb(255,255,255)"/><g><path d=" M 815.525 265.856 L 815.525 632.951 L 871.286 378.54 L 997.911 415.714 L 815.525 265.856 L 815.525 265.856 Z  M 793.453 265.856 L 793.453 632.951 L 737.691 378.54 L 611.067 415.714 L 793.453 265.856 L 793.453 265.856 Z " fill-rule="evenodd" fill="rgb(255,255,255)"/></g></g></svg>