<?xml version="1.0" encoding="UTF-8" standalone="no"?><!-- Generator: Gravit.io --><svg xmlns="http://www.w3.org/2000/svg" xmlns:xlink="http://www.w3.org/1999/xlink" style="isolation:isolate" viewBox="0 0 1620 1080" width="1620pt" height="1080pt"><defs><clipPath id="_clipPath_N3c8xUbMEGq9fCcZTOKgMZHz3P33dw38"><rect width="1620" height="1080"/></clipPath></defs><g clip-path="url(#_clipPath_N3c8xUbMEGq9fCcZTOKgMZHz3P33dw38)"><rect width="1620" height="1080" style="fill:rgb(13,21,25)"/><g><g><rect x="241.333" y="384" width="276" height="91.191" transform="matrix(1,0,0,1,0,0)" fill="rgb(0,162,199)"/><rect x="241.333" y="494.405" width="198" height="91.191" transform="matrix(1,0,0,1,0,0)" fill="rgb(62,199,227)"/><rect x="241.333" y="604.809" width="90" height="91.191" transform="matrix(1,0,0,1,0,0)" fill="rgb(124,232,254)"/><rect x="131" y="494.405" width="91" height="91.191" transform="matrix(1,0,0,1,0,0)" fill="rgb(62,199,227)"/></g><path d=" M 1260.5 694.922 L 1160.5 694.922 L 1273 538.641 L 1164.5 385.078 L 1263.5 385.078 L 1325.531 474.891 L 1387 385.078 L 1482 385.078 L 1373.938 535.141 L 1489 694.922 L 1387 694.922 L 1323.703 599.016 L 1260.5 694.922 L 1260.5 694.922 Z  M 603 385.078 L 690 385.078 L 846 385.078 L 846 452.739 L 690 452.739 L 690 521.328 L 827.223 521.328 L 827.223 588.828 L 690 588.828 L 690 694.922 L 603 694.922 L 603 385.078 L 603 385.078 Z  M 973 454.217 L 876.604 454.217 L 876.604 385.078 L 1155.333 385.078 L 1155.333 454.217 L 1060 454.217 L 1060 694.922 L 973 694.922 L 973 454.217 Z " fill-rule="evenodd" fill="rgb(255,255,255)"/></g></g></svg>