<?xml version="1.0" encoding="UTF-8" standalone="no"?><!-- Generator: Gravit.io --><svg xmlns="http://www.w3.org/2000/svg" xmlns:xlink="http://www.w3.org/1999/xlink" style="isolation:isolate" viewBox="0 0 1620 1080" width="1620pt" height="1080pt"><defs><clipPath id="_clipPath_lrLKY8Qvv7qvY2kxqwLOFIXvLcZccFm9"><rect width="1620" height="1080"/></clipPath></defs><g clip-path="url(#_clipPath_lrLKY8Qvv7qvY2kxqwLOFIXvLcZccFm9)"><rect width="1620" height="1080" style="fill:rgb(13,21,25)"/><g><g><rect x="342.156" y="411.658" width="227.066" height="75.023" transform="matrix(1,0,0,1,0,0)" fill="rgb(0,162,199)"/><rect x="342.156" y="502.488" width="162.895" height="75.023" transform="matrix(1,0,0,1,0,0)" fill="rgb(62,199,227)"/><rect x="342.156" y="593.319" width="74.043" height="75.023" transform="matrix(1,0,0,1,0,0)" fill="rgb(124,232,254)"/><rect x="251.384" y="502.488" width="74.866" height="75.023" transform="matrix(1,0,0,1,0,0)" fill="rgb(62,199,227)"/></g><path d=" M 1180.628 667.455 L 1098.358 667.455 L 1190.912 538.882 L 1101.648 412.545 L 1183.096 412.545 L 1234.129 486.434 L 1284.7 412.545 L 1362.857 412.545 L 1273.953 536.002 L 1368.616 667.455 L 1284.7 667.455 L 1232.625 588.552 L 1180.628 667.455 L 1180.628 667.455 Z  M 639.7 412.545 L 711.276 412.545 L 839.617 412.545 L 839.617 468.21 L 711.276 468.21 L 711.276 524.639 L 824.17 524.639 L 824.17 580.171 L 711.276 580.171 L 711.276 667.455 L 639.7 667.455 L 639.7 412.545 L 639.7 412.545 Z  M 944.101 469.426 L 864.795 469.426 L 864.795 412.545 L 1094.107 412.545 L 1094.107 469.426 L 1015.676 469.426 L 1015.676 667.455 L 944.101 667.455 L 944.101 469.426 Z " fill-rule="evenodd" fill="rgb(255,255,255)"/></g></g></svg>