<?xml version="1.0" encoding="UTF-8" standalone="no"?><!-- Generator: Gravit.io --><svg xmlns="http://www.w3.org/2000/svg" xmlns:xlink="http://www.w3.org/1999/xlink" style="isolation:isolate" viewBox="0 0 500 500" width="500pt" height="500pt"><defs><clipPath id="_clipPath_RGo58bSHz68UNc8Bo3TrDCJYN9Q37fYe"><rect width="500" height="500"/></clipPath></defs><g clip-path="url(#_clipPath_RGo58bSHz68UNc8Bo3TrDCJYN9Q37fYe)"><rect width="500" height="500" style="fill:rgb(118,95,230)"/><path d=" M 50 50 L 450 50 L 450 450 L 50 450 L 50 50 Z  M 65.2 65.2 L 434.8 65.2 L 434.8 434.8 L 65.2 434.8 L 65.2 65.2 Z " fill-rule="evenodd" fill="rgb(255,255,255)"/><path d=" M 218.694 350.261 L 219.957 350.261 L 221.219 350.261 L 221.219 338.058 L 221.219 325.856 L 224.796 325.856 L 228.372 325.856 L 228.372 324.593 L 228.372 323.331 L 224.796 323.331 L 221.219 323.331 L 219.957 323.331 L 218.694 323.331 L 215.118 323.331 L 211.541 323.331 L 211.541 324.593 L 211.541 325.856 L 215.118 325.856 L 218.694 325.856 L 218.694 338.058 L 218.694 350.261 Z  M 235.946 350.261 L 243.099 350.261 L 250.252 350.261 L 250.252 348.998 L 250.252 347.736 L 243.099 347.736 L 235.946 347.736 L 235.946 341.845 L 235.946 335.954 L 239.733 335.954 L 243.52 335.954 L 243.52 334.692 L 243.52 333.43 L 239.733 333.43 L 235.946 333.43 L 235.946 329.643 L 235.946 325.856 L 243.099 325.856 L 250.252 325.856 L 250.252 324.593 L 250.252 323.331 L 243.099 323.331 L 235.946 323.331 L 235.525 323.331 L 235.105 323.331 L 234.263 323.331 L 233.421 323.331 L 233.421 336.796 L 233.421 350.261 L 234.263 350.261 L 235.105 350.261 L 235.525 350.261 L 235.946 350.261 Z  M 257.826 341.686 L 257.826 334.612 L 257.826 327.539 L 260.604 331.242 L 263.381 334.944 L 264.391 336.291 L 265.4 337.637 L 266.41 336.291 L 267.42 334.944 L 270.197 331.242 L 272.974 327.539 L 272.974 338.9 L 272.974 350.261 L 274.237 350.261 L 275.499 350.261 L 275.499 345.973 L 275.499 341.686 L 275.499 332.508 L 275.499 323.331 L 274.237 323.331 L 272.974 323.331 L 269.187 328.38 L 265.4 333.43 L 261.613 328.38 L 257.826 323.331 L 256.564 323.331 L 255.302 323.331 L 255.302 336.796 L 255.302 350.261 L 256.564 350.261 L 257.826 350.261 L 257.826 345.973 L 257.826 341.686 Z  M 283.073 341.845 L 288.122 341.845 C 293.232 341.845 297.379 337.698 297.379 332.588 C 297.379 327.478 293.232 323.331 288.122 323.331 L 280.548 323.331 L 280.548 350.261 L 283.073 350.261 L 283.073 341.845 Z  M 283.073 325.856 L 288.122 325.856 L 288.132 325.856 C 291.848 325.856 294.864 328.872 294.864 332.588 C 294.864 336.304 291.848 339.32 288.132 339.32 L 288.122 339.32 L 283.073 339.32 L 283.073 325.856 Z  M 304.953 350.261 L 310.423 350.261 L 315.893 350.261 L 315.893 348.998 L 315.893 347.736 L 310.423 347.736 L 304.953 347.736 L 304.953 335.533 L 304.953 323.331 L 303.691 323.331 L 302.429 323.331 L 302.429 335.533 L 302.429 347.736 L 302.429 348.998 L 302.429 350.261 L 303.691 350.261 L 304.953 350.261 Z  M 325.399 342.687 L 333.082 342.687 L 334.088 346.474 L 335.094 350.261 L 337.606 350.261 L 334.029 336.796 L 330.452 323.331 L 327.928 323.331 L 324.351 336.796 L 320.774 350.261 L 323.387 350.261 L 324.393 346.474 L 325.399 342.687 Z  M 329.19 328.413 L 329.215 328.508 L 329.24 328.603 L 329.266 328.508 L 329.291 328.413 L 330.851 334.287 L 332.412 340.162 L 326.069 340.162 L 327.63 334.287 L 329.19 328.413 Z  M 346.442 350.261 L 347.704 350.261 L 348.967 350.261 L 348.967 338.058 L 348.967 325.856 L 352.543 325.856 L 356.12 325.856 L 356.12 324.593 L 356.12 323.331 L 352.543 323.331 L 348.967 323.331 L 347.704 323.331 L 346.442 323.331 L 342.865 323.331 L 339.289 323.331 L 339.289 324.593 L 339.289 325.856 L 342.865 325.856 L 346.442 325.856 L 346.442 338.058 L 346.442 350.261 Z  M 363.694 350.261 L 370.847 350.261 L 378 350.261 L 378 348.998 L 378 347.736 L 370.847 347.736 L 363.694 347.736 L 363.694 341.845 L 363.694 335.954 L 367.481 335.954 L 371.268 335.954 L 371.268 334.692 L 371.268 333.43 L 367.481 333.43 L 363.694 333.43 L 363.694 329.643 L 363.694 325.856 L 370.847 325.856 L 378 325.856 L 378 324.593 L 378 323.331 L 370.847 323.331 L 363.694 323.331 L 363.273 323.331 L 362.852 323.331 L 362.011 323.331 L 361.169 323.331 L 361.169 336.796 L 361.169 350.261 L 362.011 350.261 L 362.852 350.261 L 363.273 350.261 L 363.694 350.261 Z  M 132.099 350.261 C 137.673 350.261 142.197 345.736 142.197 340.162 L 142.197 337.637 L 133.782 337.637 L 133.782 340.162 L 139.673 340.162 L 139.673 340.173 C 139.673 344.354 136.279 347.747 132.099 347.747 C 127.918 347.747 124.525 344.354 124.525 340.173 L 124.525 340.162 L 124.525 333.43 L 124.525 333.417 C 124.525 329.24 127.915 325.849 132.093 325.849 C 133.693 325.849 135.957 326.716 137.148 327.784 L 137.989 326.844 L 138.831 325.903 C 137.244 324.483 134.228 323.331 132.098 323.331 C 126.524 323.331 122 327.855 122 333.429 L 122 333.43 L 122 340.162 C 122 345.736 126.524 350.261 132.099 350.261 Z  M 154.821 323.331 L 147.247 323.331 L 147.247 350.261 L 149.771 350.261 L 149.771 341.845 L 153.979 341.845 L 153.991 341.845 C 157.701 341.845 160.711 344.856 160.711 348.566 L 160.711 348.577 L 160.711 350.261 L 163.236 350.261 L 163.236 348.577 L 163.236 348.563 C 163.236 347.251 162.721 345.255 162.086 344.106 C 161.471 342.994 160.107 341.525 159.043 340.828 C 161.822 339.403 164.078 335.712 164.078 332.589 C 164.078 327.479 159.931 323.331 154.821 323.331 Z  M 159.581 337.349 C 158.498 338.437 156.374 339.32 154.839 339.32 C 154.834 339.32 154.826 339.32 154.821 339.32 L 149.771 339.32 L 149.771 325.856 L 154.821 325.856 L 154.831 325.856 C 158.545 325.856 161.559 328.87 161.559 332.584 C 161.559 334.125 160.673 336.26 159.581 337.349 Z  M 171.652 323.331 L 170.389 323.331 L 169.127 323.331 L 169.127 336.796 L 169.127 350.261 L 170.389 350.261 L 171.652 350.261 L 171.652 336.796 L 171.652 323.331 Z  M 180.067 350.261 C 187.5 350.261 193.532 344.228 193.532 336.796 C 193.532 329.363 187.5 323.331 180.067 323.331 L 176.701 323.331 L 176.701 350.261 L 180.067 350.261 Z  M 179.225 325.856 L 180.067 325.856 L 180.077 325.856 C 180.681 325.856 181.653 325.952 182.245 326.071 C 183.42 326.309 185.181 327.046 186.175 327.717 C 187.154 328.378 188.485 329.709 189.146 330.688 C 189.472 331.172 189.921 332.001 190.149 332.538 C 190.384 333.094 190.672 334.026 190.792 334.618 C 190.911 335.213 191.007 336.189 191.007 336.796 C 191.007 337.403 190.911 338.378 190.792 338.974 C 190.672 339.566 190.384 340.497 190.149 341.053 C 189.921 341.591 189.472 342.42 189.146 342.904 C 188.485 343.882 187.154 345.213 186.175 345.875 C 184.652 346.902 181.926 347.736 180.089 347.736 C 180.083 347.736 180.073 347.736 180.067 347.736 L 179.225 347.736 L 179.225 325.856 Z  M 182.208 259.515 L 168.744 259.515 L 168.744 307.39 L 173.232 307.39 L 173.232 292.429 L 180.712 292.429 L 180.733 292.429 C 187.328 292.429 192.681 297.782 192.681 304.377 L 192.681 304.398 L 192.681 307.39 L 197.169 307.39 L 197.169 304.398 L 197.169 304.373 C 197.169 302.04 196.254 298.491 195.125 296.449 C 194.031 294.471 191.607 291.86 189.715 290.621 C 194.656 288.088 198.666 281.526 198.666 275.974 C 198.666 266.889 191.293 259.516 182.208 259.515 Z  M 190.672 284.435 C 188.747 286.37 184.97 287.941 182.241 287.941 C 182.232 287.941 182.217 287.941 182.208 287.941 L 173.232 287.941 L 173.232 264.003 L 182.208 264.003 L 182.227 264.003 C 188.829 264.003 194.188 269.362 194.188 275.965 C 194.188 278.705 192.613 282.5 190.672 284.435 Z  M 214.366 293.925 L 228.027 293.925 L 229.815 300.658 L 231.603 307.39 L 236.068 307.39 L 229.709 283.453 L 223.351 259.515 L 218.863 259.515 L 212.504 283.453 L 206.146 307.39 L 210.79 307.39 L 212.578 300.658 L 214.366 293.925 Z  M 221.107 268.55 L 221.152 268.718 L 221.196 268.887 L 221.241 268.718 L 221.286 268.55 L 224.06 278.993 L 226.834 289.437 L 215.559 289.437 L 218.333 278.993 L 221.107 268.55 Z  M 251.777 307.39 L 254.021 307.39 L 256.265 307.39 L 256.265 285.697 L 256.265 264.003 L 262.623 264.003 L 268.982 264.003 L 268.982 261.759 L 268.982 259.515 L 262.623 259.515 L 256.265 259.515 L 254.021 259.515 L 251.777 259.515 L 245.418 259.515 L 239.06 259.515 L 239.06 261.759 L 239.06 264.003 L 245.418 264.003 L 251.777 264.003 L 251.777 285.697 L 251.777 307.39 Z  M 282.446 259.515 L 280.202 259.515 L 277.958 259.515 L 277.958 283.453 L 277.958 307.39 L 280.202 307.39 L 282.446 307.39 L 282.446 283.453 L 282.446 259.515 Z  M 309.376 259.515 C 299.466 259.515 291.423 267.558 291.423 277.468 L 291.423 289.437 C 291.423 299.347 299.466 307.39 309.376 307.39 C 319.286 307.39 327.329 299.347 327.329 289.437 L 327.329 277.468 C 327.329 267.558 319.286 259.515 309.376 259.515 Z  M 322.841 289.437 L 322.841 289.456 C 322.841 296.889 316.809 302.921 309.376 302.921 C 301.944 302.921 295.911 296.889 295.911 289.456 L 295.911 289.437 L 295.911 277.468 L 295.911 277.449 C 295.911 270.016 301.944 263.984 309.376 263.984 C 316.809 263.984 322.841 270.016 322.841 277.449 L 322.841 277.468 L 322.841 289.437 Z  M 153.427 239.647 C 162.099 239.647 169.136 232.609 169.136 223.938 L 169.136 220.011 L 156.045 220.011 L 156.045 223.938 L 165.209 223.938 L 165.209 223.955 C 165.209 230.458 159.931 235.737 153.427 235.737 C 146.924 235.737 141.646 230.458 141.646 223.955 L 141.646 223.938 L 141.646 213.465 L 141.646 213.447 C 141.646 206.948 146.92 201.673 153.419 201.673 C 155.907 201.673 159.43 203.022 161.282 204.684 L 162.591 203.221 L 163.899 201.757 C 161.431 199.549 156.739 197.757 153.427 197.757 C 144.756 197.757 137.718 204.794 137.718 213.465 L 137.718 213.465 L 137.718 223.938 C 137.718 232.609 144.756 239.647 153.427 239.647 Z  M 192.7 197.756 C 184.028 197.756 176.991 204.794 176.991 213.465 L 176.991 223.938 C 176.991 232.609 184.028 239.647 192.7 239.647 C 201.371 239.647 208.409 232.609 208.409 223.938 L 208.409 213.465 C 208.409 204.794 201.371 197.756 192.7 197.756 Z  M 204.481 223.938 L 204.481 223.955 C 204.481 230.458 199.203 235.737 192.7 235.737 C 186.196 235.737 180.918 230.458 180.918 223.955 L 180.918 223.938 L 180.918 213.465 L 180.918 213.449 C 180.918 206.945 186.196 201.667 192.7 201.667 C 199.203 201.667 204.481 206.945 204.481 213.449 L 204.481 213.465 L 204.481 223.938 Z  M 220.19 239.647 L 228.699 239.647 L 237.208 239.647 L 237.208 237.683 L 237.208 235.72 L 228.699 235.72 L 220.19 235.72 L 220.19 216.738 L 220.19 197.756 L 218.227 197.756 L 216.263 197.756 L 216.263 216.738 L 216.263 235.72 L 216.263 237.683 L 216.263 239.647 L 218.227 239.647 L 220.19 239.647 Z  M 250.299 239.647 C 261.861 239.647 271.244 230.264 271.244 218.702 C 271.244 207.14 261.861 197.756 250.299 197.756 L 245.063 197.756 L 245.063 239.647 L 250.299 239.647 Z  M 248.99 201.684 L 250.299 201.684 L 250.315 201.684 C 251.255 201.684 252.766 201.834 253.687 202.019 C 255.515 202.39 258.254 203.536 259.801 204.579 C 261.323 205.608 263.393 207.678 264.422 209.2 C 264.93 209.953 265.628 211.243 265.981 212.079 C 266.348 212.944 266.796 214.393 266.982 215.314 C 267.167 216.24 267.317 217.758 267.317 218.702 C 267.317 219.646 267.167 221.164 266.982 222.09 C 266.796 223.01 266.348 224.46 265.981 225.325 C 265.628 226.161 264.93 227.451 264.422 228.203 C 263.393 229.725 261.323 231.796 259.801 232.825 C 257.432 234.423 253.191 235.72 250.333 235.72 C 250.324 235.72 250.309 235.72 250.299 235.72 L 248.99 235.72 L 248.99 201.684 Z  M 283.026 239.647 L 294.153 239.647 L 305.281 239.647 L 305.281 237.683 L 305.281 235.72 L 294.153 235.72 L 283.026 235.72 L 283.026 226.556 L 283.026 217.393 L 288.917 217.393 L 294.808 217.393 L 294.808 215.429 L 294.808 213.465 L 288.917 213.465 L 283.026 213.465 L 283.026 207.575 L 283.026 201.684 L 294.153 201.684 L 305.281 201.684 L 305.281 199.72 L 305.281 197.756 L 294.153 197.756 L 283.026 197.756 L 282.372 197.756 L 281.717 197.756 L 280.408 197.756 L 279.099 197.756 L 279.099 218.702 L 279.099 239.647 L 280.408 239.647 L 281.717 239.647 L 282.372 239.647 L 283.026 239.647 Z  M 317.062 205.972 L 326.226 222.81 L 335.39 239.647 L 335.938 239.647 L 336.487 239.647 L 337.902 239.647 L 339.317 239.647 L 339.317 218.702 L 339.317 197.756 L 337.353 197.756 L 335.39 197.756 L 335.39 214.594 L 335.39 231.431 L 326.226 214.594 L 317.062 197.756 L 316.513 197.756 L 315.965 197.756 L 314.55 197.756 L 313.135 197.756 L 313.135 218.702 L 313.135 239.647 L 315.099 239.647 L 317.062 239.647 L 317.062 222.81 L 317.062 205.972 Z  M 220.377 176.669 L 221.64 176.669 L 222.902 176.669 L 222.902 164.467 L 222.902 152.264 L 226.479 152.264 L 230.055 152.264 L 230.055 151.002 L 230.055 149.739 L 226.479 149.739 L 222.902 149.739 L 221.64 149.739 L 220.377 149.739 L 216.801 149.739 L 213.224 149.739 L 213.224 151.002 L 213.224 152.264 L 216.801 152.264 L 220.377 152.264 L 220.377 164.467 L 220.377 176.669 Z  M 249.411 159.838 L 243.52 159.838 L 237.629 159.838 L 237.629 154.789 L 237.629 149.739 L 236.367 149.739 L 235.105 149.739 L 235.105 163.204 L 235.105 176.669 L 236.367 176.669 L 237.629 176.669 L 237.629 169.516 L 237.629 162.363 L 243.52 162.363 L 249.411 162.363 L 249.411 169.516 L 249.411 176.669 L 250.673 176.669 L 251.936 176.669 L 251.936 163.204 L 251.936 149.739 L 250.673 149.739 L 249.411 149.739 L 249.411 154.789 L 249.411 159.838 Z  M 259.51 176.669 L 266.663 176.669 L 273.816 176.669 L 273.816 175.407 L 273.816 174.144 L 266.663 174.144 L 259.51 174.144 L 259.51 168.254 L 259.51 162.363 L 263.297 162.363 L 267.083 162.363 L 267.083 161.1 L 267.083 159.838 L 263.297 159.838 L 259.51 159.838 L 259.51 156.051 L 259.51 152.264 L 266.663 152.264 L 273.816 152.264 L 273.816 151.002 L 273.816 149.739 L 266.663 149.739 L 259.51 149.739 L 259.089 149.739 L 258.668 149.739 L 257.826 149.739 L 256.985 149.739 L 256.985 163.204 L 256.985 176.669 L 257.826 176.669 L 258.668 176.669 L 259.089 176.669 L 259.51 176.669 Z " fill="rgb(255,255,255)"/></g></svg>