<?xml version="1.0" encoding="UTF-8" standalone="no"?><!-- Generator: Gravit.io --><svg xmlns="http://www.w3.org/2000/svg" xmlns:xlink="http://www.w3.org/1999/xlink" style="isolation:isolate" viewBox="0 0 500 500" width="500pt" height="500pt"><defs><clipPath id="_clipPath_iFFu3zq1haXOsGXmf8XvFZMq9BqFnxzL"><rect width="500" height="500"/></clipPath></defs><g clip-path="url(#_clipPath_iFFu3zq1haXOsGXmf8XvFZMq9BqFnxzL)"><rect width="500" height="500" style="fill:rgb(31,70,108)"/><rect x="0" y="45.344" width="500" height="376.063" transform="matrix(1,0,0,1,0,0)" fill="rgb(31,70,108)"/><g><path d=" M 848.065 377.705 C 847.788 385.583 847.189 393.378 846.291 401.083 C 845.568 397.258 844.77 393.46 843.858 389.706 C 845.347 385.747 846.745 381.744 848.065 377.705 Z  M 276.055 276.12 C 266.794 304.667 261.785 335.13 261.785 366.762 C 261.785 385.23 263.527 403.518 266.921 421.406 C 269.701 397.668 275.318 374.796 283.42 353.138 C 278.43 331.626 275.859 309.452 275.859 287.013 C 275.859 283.366 275.925 279.735 276.055 276.12 Z " fill="rgb(243,108,22)"/><path d=" M -348.065 377.705 C -347.788 385.583 -347.189 393.378 -346.291 401.083 C -345.568 397.258 -344.77 393.46 -343.858 389.706 C -345.347 385.747 -346.745 381.744 -348.065 377.705 Z  M 223.945 276.12 C 233.206 304.667 238.215 335.13 238.215 366.762 C 238.215 385.23 236.473 403.518 233.079 421.406 C 230.299 397.668 224.682 374.796 216.58 353.138 C 221.57 331.626 224.141 309.452 224.141 287.013 C 224.141 283.366 224.075 279.735 223.945 276.12 Z " fill="rgb(243,108,22)"/><path d=" M 225.817 258.44 L 225.817 258.44 C 228.866 251.549 231.636 244.538 234.133 237.427 L 234.133 237.427 L 234.133 237.427 C 231.655 245.32 228.846 253.101 225.697 260.743 C 225.74 259.976 225.785 259.209 225.817 258.44 Z  M 236.455 49.572 C 245.716 78.119 250.725 108.582 250.725 140.215 C 250.725 173.643 245.017 206.482 234.133 237.427 L 234.133 237.427 C 242.979 209.259 247.597 179.666 247.597 149.597 C 247.597 121.818 243.734 94.94 236.503 69.478 C 236.605 66.48 236.651 63.475 236.651 60.465 C 236.651 56.819 236.585 53.188 236.455 49.572 L 236.455 49.572 Z " fill="rgb(7,200,232)"/><path d=" M 274.748 258.446 L 274.748 258.446 C 271.699 251.556 268.929 244.544 266.432 237.433 L 266.432 237.433 L 266.432 237.433 C 268.909 245.326 271.719 253.108 274.868 260.75 C 274.825 259.983 274.78 259.216 274.748 258.446 Z  M 264.109 49.578 C 254.849 78.125 249.84 108.588 249.84 140.221 C 249.84 173.649 255.548 206.488 266.432 237.433 L 266.432 237.433 C 257.586 209.265 252.968 179.672 252.968 149.603 C 252.968 121.823 256.83 94.946 264.062 69.484 C 263.96 66.486 263.914 63.481 263.914 60.471 C 263.914 56.825 263.98 53.193 264.109 49.578 L 264.109 49.578 Z " fill="rgb(7,200,232)"/><path d=" M 363.229 264.392 C 363.229 325.125 313.995 374.359 253.261 374.359 C 192.528 374.359 143.294 325.125 143.294 264.392 C 143.294 235.227 154.88 207.256 175.503 186.633 C 196.126 166.01 224.096 154.424 253.261 154.424 C 282.427 154.424 310.397 166.01 331.02 186.633 C 351.643 207.256 363.229 235.227 363.229 264.392 L 363.229 264.392 Z " fill="rgb(43,113,181)"/><path d=" M 353.847 264.392 C 353.847 325.125 304.612 374.359 243.879 374.359 C 183.146 374.359 133.912 325.125 133.912 264.392 C 133.912 235.227 145.498 207.256 166.12 186.633 C 186.743 166.01 214.714 154.424 243.879 154.424 C 273.044 154.424 301.015 166.01 321.638 186.633 C 342.261 207.256 353.847 235.227 353.847 264.392 L 353.847 264.392 Z " fill="rgb(43,113,181)"/><path d=" M 323.312 314.828 C 323.312 334.271 315.588 352.918 301.839 366.667 C 288.091 380.416 269.443 388.14 250 388.14 C 230.557 388.14 211.909 380.416 198.161 366.667 C 184.412 352.918 176.688 334.271 176.688 314.828 C 176.688 274.339 209.511 241.516 250 241.516 C 290.489 241.516 323.312 274.339 323.312 314.828 L 323.312 314.828 Z " fill="rgb(0,155,217)"/><path d=" M 359.967 232.183 C 359.967 292.916 310.733 342.151 250 342.151 C 189.267 342.151 140.033 292.916 140.033 232.183 C 140.033 203.018 151.618 175.047 172.241 154.424 C 192.864 133.802 220.835 122.216 250 122.216 C 279.165 122.216 307.136 133.802 327.759 154.424 C 348.382 175.047 359.967 203.018 359.967 232.183 L 359.967 232.183 Z " fill="rgb(7,200,232)"/><path d=" M 302.61 229.697 C 302.61 249.941 286.199 266.353 265.954 266.353 C 245.71 266.353 229.299 249.941 229.299 229.697 C 229.299 209.452 245.71 193.041 265.954 193.041 C 286.199 193.041 302.61 209.452 302.61 229.697 L 302.61 229.697 Z " fill="rgb(243,108,22)"/><path d=" M 277.433 186.633 C 277.433 206.077 269.709 224.724 255.961 238.472 C 242.212 252.221 223.565 259.945 204.122 259.945 C 184.678 259.945 166.031 252.221 152.283 238.472 C 138.534 224.724 130.81 206.077 130.81 186.633 C 130.81 146.144 163.633 113.321 204.122 113.321 C 244.611 113.321 277.433 146.144 277.433 186.633 L 277.433 186.633 Z " fill="rgb(255,255,255)"/><path d=" M 369.19 186.633 C 369.19 206.077 361.466 224.724 347.717 238.472 C 333.969 252.221 315.322 259.945 295.878 259.945 C 276.435 259.945 257.788 252.221 244.039 238.472 C 230.29 224.724 222.567 206.077 222.567 186.633 C 222.567 146.144 255.389 113.321 295.878 113.321 C 336.367 113.321 369.19 146.144 369.19 186.633 L 369.19 186.633 Z " fill="rgb(255,255,255)"/><path d=" M 240.778 186.633 C 240.778 206.878 224.366 223.289 204.122 223.289 C 183.877 223.289 167.466 206.878 167.466 186.633 C 167.466 166.389 183.877 149.977 204.122 149.977 C 224.366 149.977 240.778 166.389 240.778 186.633 L 240.778 186.633 Z " fill="rgb(0,0,0)"/><path d=" M 332.534 186.633 C 332.534 206.878 316.123 223.289 295.878 223.289 C 275.634 223.289 259.222 206.878 259.222 186.633 C 259.222 166.389 275.634 149.977 295.878 149.977 C 316.123 149.977 332.534 166.389 332.534 186.633 L 332.534 186.633 Z " fill="rgb(0,0,0)"/></g></g></svg>