<?xml version="1.0" encoding="UTF-8" standalone="no"?><!-- Generator: Gravit.io --><svg xmlns="http://www.w3.org/2000/svg" xmlns:xlink="http://www.w3.org/1999/xlink" style="isolation:isolate" viewBox="0 0 1200 1199.953" width="1200pt" height="1199.953pt"><defs><clipPath id="_clipPath_HKRyLK9RUxFOvYqXoa89L50jDpiu2yUo"><rect width="1200" height="1199.953"/></clipPath></defs><g clip-path="url(#_clipPath_HKRyLK9RUxFOvYqXoa89L50jDpiu2yUo)"><rect x="0" y="0" width="1200" height="1199.953" transform="matrix(1,0,0,1,0,0)" fill="rgb(235,235,235)"/><clipPath id="_clipPath_Y4S5AobqB6cA2KL6e6jb7WofOQfjGnDf"><rect x="0" y="0" width="1200" height="1199.953" transform="matrix(1,0,0,1,0,0)" fill="rgb(235,235,235)"/></clipPath><g clip-path="url(#_clipPath_Y4S5AobqB6cA2KL6e6jb7WofOQfjGnDf)"><g><radialGradient id="_rgradient_2" fx="0.5" fy="0.5" cx="0.5" cy="0.5" r="0.5" gradientTransform="matrix(1200,0,0,1199.953,0,0)" gradientUnits="userSpaceOnUse"><stop offset="0%" stop-opacity="1" style="stop-color:rgb(216,239,244)"/><stop offset="98.26086956521739%" stop-opacity="1" style="stop-color:rgb(180,241,255)"/></radialGradient><rect x="0" y="0" width="1200" height="1199.953" transform="matrix(1,0,0,1,0,0)" fill="url(#_rgradient_2)"/><clipPath id="_clipPath_SdzbGlgTS2BPxlzerChMf68jCPL9Nkeu"><rect x="0" y="0" width="1200" height="1199.953" transform="matrix(1,0,0,1,0,0)" fill="url(#_rgradient_2)"/></clipPath><g clip-path="url(#_clipPath_SdzbGlgTS2BPxlzerChMf68jCPL9Nkeu)"><clipPath id="_clipPath_SxyUYRnfFtcL6jNNUziyqEiwKfrYmD99"><rect x="167.015" y="128.045" width="868.476" height="879.61" transform="matrix(-1,0,0,-1,1202.505,1135.699)" fill="rgb(255,255,255)"/></clipPath><g clip-path="url(#_clipPath_SxyUYRnfFtcL6jNNUziyqEiwKfrYmD99)"><g><g><path d=" M 536.278 1746.695 L 536.278 1083.606 C 555.681 1092.52 577.265 1097.491 600 1097.491 C 620.275 1097.491 639.636 1093.537 657.35 1086.358 L 657.35 1746.695 L 714.7 1746.695 L 714.7 1049.701 C 714.7 1048.425 714.616 1047.168 714.432 1045.944 C 738.388 1018.96 752.932 983.444 752.932 944.56 C 752.932 860.153 684.406 791.628 600 791.628 C 515.594 791.628 447.068 860.153 447.068 944.56 C 447.068 980.68 459.617 1013.89 480.665 1040.004 C 479.525 1043.017 478.928 1046.29 478.928 1049.701 L 478.928 1746.695 L 536.278 1746.695 Z " fill="rgb(0,26,40)"/><circle vector-effect="non-scaling-stroke" cx="596.9498218249237" cy="772.1506196420498" r="261.3043358094312" fill="rgb(0,181,228)"/></g><g><path d=" M 363.662 1712.262 L 836.37 1712.262 C 847.178 1712.262 855.953 1719.977 855.953 1729.478 L 855.953 1729.478 C 855.953 1738.98 847.178 1746.695 836.37 1746.695 L 363.662 1746.695 C 352.854 1746.695 344.08 1738.98 344.08 1729.478 L 344.08 1729.478 C 344.08 1719.977 352.854 1712.262 363.662 1712.262 Z " fill="rgb(175,199,212)"/></g><g><g><path d=" M 697.789 405.6 C 697.789 386.497 713.298 370.989 732.398 370.989 C 751.501 370.989 767.009 386.497 767.009 405.6 C 767.009 424.701 751.501 440.209 732.398 440.209 C 713.298 440.209 697.789 424.701 697.789 405.6 Z  M 433.024 405.6 C 433.024 386.497 448.532 370.989 467.634 370.989 C 486.735 370.989 502.243 386.497 502.243 405.6 C 502.243 424.701 486.735 440.209 467.634 440.209 C 448.532 440.209 433.024 424.701 433.024 405.6 Z " fill-rule="evenodd" fill="rgb(246,145,120)"/></g><g><path d=" M 495.024 563.495 C 495.024 506.298 541.459 459.863 598.656 459.863 C 655.851 459.863 702.287 506.298 702.287 563.495 C 702.287 620.69 655.851 667.126 598.656 667.126 C 541.459 667.126 495.024 620.69 495.024 563.495 Z " fill="rgb(253,194,149)"/><path d=" M 513.946 560.277 C 513.946 513.076 552.269 474.753 599.471 474.753 C 646.672 474.753 684.995 513.076 684.995 560.277 C 684.995 607.48 646.672 645.801 599.471 645.801 C 552.269 645.801 513.946 607.48 513.946 560.277 Z " fill="rgb(251,148,123)"/></g><g><path d=" M 477.725 263.048 L 718.317 263.048 C 729.433 263.048 738.456 270.984 738.456 280.759 L 738.456 491.35 C 738.456 558.552 676.424 613.111 600.017 613.111 L 600.017 613.111 C 523.611 613.111 461.578 558.552 461.578 491.35 L 461.578 277.251 C 461.578 269.413 468.813 263.048 477.725 263.048 Z " fill="rgb(252,192,146)"/></g><g><path d=" M 550.139 496.95 C 547.731 502.997 546.407 509.59 546.407 516.49 C 546.407 545.688 570.11 569.391 599.306 569.391 C 628.503 569.391 652.206 545.688 652.206 516.49 C 652.206 509.59 650.882 502.997 648.474 496.95 L 550.139 496.95 Z " fill="rgb(13,47,59)"/><path d=" M 559.494 551.281 C 569.179 562.382 583.43 569.391 599.306 569.391 C 615.183 569.391 629.434 562.382 639.12 551.281 C 629.434 540.178 615.183 533.169 599.306 533.169 C 583.43 533.169 569.179 540.178 559.494 551.281 Z " fill="rgb(247,0,96)"/><path d=" M 546.407 516.846 C 546.407 516.728 546.407 516.609 546.407 516.49 C 546.407 509.59 547.731 502.997 550.139 496.95 L 648.474 496.95 C 650.882 502.997 652.206 509.59 652.206 516.49 C 652.206 516.609 652.206 516.728 652.206 516.846 L 546.407 516.846 Z " fill="rgb(255,255,255)"/></g><g><path d=" M 598.787 451.204 C 608.549 451.2 618.28 445.094 618.28 445.58 C 618.28 487.282 579.549 518.271 537.847 518.271 C 514.285 518.271 486.624 489.319 472.807 472.361 C 511.622 471.498 557.519 474.385 579.539 445.58 C 581.527 445.798 590.169 451.208 598.787 451.204 Z " fill="none"/><path d=" M 599.03 451.204 C 589.268 451.2 579.539 445.094 579.539 445.58 C 579.539 487.282 618.269 518.271 659.973 518.271 C 683.532 518.271 711.193 489.319 725.012 472.361 C 686.195 471.498 640.298 474.385 618.28 445.58 C 616.291 445.798 607.648 451.208 599.03 451.204 Z " fill="none"/></g><g><path d=" M 570.604 465.922 C 570.598 466.021 570.598 466.123 570.598 466.222 C 570.598 482.459 583.78 495.641 600.017 495.641 C 616.252 495.641 629.434 482.459 629.434 466.222 C 629.434 466.123 629.434 466.021 629.431 465.922 C 624.22 479.821 613.002 489.447 600.017 489.447 C 587.032 489.447 575.815 479.821 570.604 465.922 Z " fill="rgb(248,146,113)"/></g><g><clipPath id="_clipPath_ohmwhGCEyLXDi6NN9SLOcwP4pgqhgRYg"><path d=" M 499.11 441.74 C 499.11 421.681 515.395 405.395 535.456 405.395 C 555.515 405.395 571.801 421.681 571.801 441.74 C 571.801 461.799 555.515 478.086 535.456 478.086 C 515.395 478.086 499.11 461.799 499.11 441.74 Z " fill-rule="evenodd" fill="rgb(255,255,255)"/></clipPath><g clip-path="url(#_clipPath_ohmwhGCEyLXDi6NN9SLOcwP4pgqhgRYg)"><path d=" M 555.015 467.003 L 556.859 471.492 C 554.651 472.414 552.346 473.118 549.992 473.603 C 547.589 474.113 545.138 474.356 542.687 474.356 C 534.582 474.356 526.719 471.687 520.264 466.76 C 513.712 461.809 509.198 454.602 507.548 446.546 C 507.16 444.531 506.966 442.493 506.966 440.454 C 506.966 433.271 509.344 426.306 513.761 420.652 C 518.202 414.852 524.657 410.897 531.84 409.562 C 533.466 409.271 535.116 409.125 536.766 409.125 C 543.051 409.125 549.143 411.212 554.093 415.046 C 559.165 418.929 562.562 424.608 563.63 430.893 C 563.848 432.131 563.945 433.368 563.945 434.63 C 563.945 439.969 562.126 445.186 558.801 449.36 C 555.428 453.68 550.501 456.519 545.065 457.272 C 544.24 457.393 543.391 457.441 542.542 457.441 C 538.101 457.466 533.757 455.937 530.263 453.146 C 526.671 450.307 524.39 446.133 523.953 441.571 C 523.953 441.546 523.953 441.498 523.953 441.449 L 523.904 440.381 C 523.904 440.357 523.904 440.309 523.88 440.285 C 523.88 436.717 525.118 433.271 527.399 430.529 C 529.753 427.641 533.271 425.942 536.985 425.894 C 537.009 425.894 537.009 425.894 537.033 425.894 L 537.057 425.894 C 537.057 425.894 537.082 425.894 537.082 425.894 C 539.532 425.894 541.935 426.719 543.876 428.248 C 544.871 429.024 545.697 429.971 546.327 431.063 C 546.983 432.252 547.347 433.587 547.347 434.946 C 547.347 435.479 547.298 436.013 547.201 436.547 C 546.91 437.785 546.255 438.95 545.357 439.848 C 544.896 440.333 544.386 440.746 543.804 441.085 C 543.1 441.498 542.275 441.74 541.45 441.74 C 540.066 441.716 538.78 441.037 538.004 439.896 L 541.377 436.887 C 541.547 436.79 541.717 436.644 541.862 436.474 C 542.153 436.207 542.347 435.892 542.445 435.504 C 542.469 435.334 542.493 435.14 542.493 434.946 C 542.493 434.412 542.347 433.902 542.105 433.465 C 541.789 432.931 541.377 432.446 540.892 432.082 C 539.8 431.233 538.465 430.747 537.057 430.747 L 537.057 430.747 C 534.752 430.796 532.592 431.839 531.16 433.611 C 529.607 435.479 528.758 437.809 528.734 440.212 L 528.782 441.158 C 529.122 444.386 530.748 447.346 533.296 449.36 C 535.917 451.447 539.193 452.588 542.542 452.588 C 543.173 452.588 543.804 452.539 544.41 452.467 C 548.608 451.884 552.394 449.7 554.991 446.375 C 557.66 443.027 559.092 438.877 559.092 434.63 C 559.092 433.635 558.995 432.664 558.849 431.694 C 557.976 426.598 555.234 422.035 551.132 418.88 C 547.031 415.701 541.959 413.979 536.766 413.979 C 535.407 413.979 534.048 414.1 532.713 414.343 C 526.695 415.459 521.308 418.759 517.595 423.613 C 513.858 428.418 511.819 434.363 511.819 440.454 C 511.819 442.177 511.989 443.9 512.329 445.599 C 513.712 452.491 517.595 458.655 523.225 462.902 C 528.806 467.173 535.65 469.502 542.687 469.502 C 544.823 469.502 546.934 469.284 548.997 468.847 C 551.059 468.434 553.074 467.804 555.015 467.003 Z " fill="rgb(0,0,0)"/></g><clipPath id="_clipPath_PU4cWeE18LtI9F82DIIA754sSL89K6rc"><path d=" M 631.186 441.74 C 631.186 421.681 647.471 405.395 667.532 405.395 C 687.591 405.395 703.877 421.681 703.877 441.74 C 703.877 461.799 687.591 478.086 667.532 478.086 C 647.471 478.086 631.186 461.799 631.186 441.74 Z " fill-rule="evenodd" fill="rgb(255,255,255)"/></clipPath><g clip-path="url(#_clipPath_PU4cWeE18LtI9F82DIIA754sSL89K6rc)"><path d=" M 687.091 467.003 L 688.935 471.492 C 686.727 472.414 684.422 473.118 682.068 473.603 C 679.665 474.113 677.214 474.356 674.763 474.356 C 666.658 474.356 658.795 471.687 652.34 466.76 C 645.788 461.809 641.274 454.602 639.624 446.546 C 639.236 444.531 639.042 442.493 639.042 440.454 C 639.042 433.271 641.42 426.306 645.837 420.652 C 650.278 414.852 656.733 410.897 663.916 409.562 C 665.542 409.271 667.192 409.125 668.842 409.125 C 675.127 409.125 681.219 411.212 686.169 415.046 C 691.241 418.929 694.638 424.608 695.706 430.893 C 695.924 432.131 696.021 433.368 696.021 434.63 C 696.021 439.969 694.202 445.186 690.877 449.36 C 687.504 453.68 682.577 456.519 677.141 457.272 C 676.316 457.393 675.467 457.441 674.618 457.441 C 670.177 457.466 665.833 455.937 662.338 453.146 C 658.747 450.307 656.466 446.133 656.029 441.571 C 656.029 441.546 656.029 441.498 656.029 441.449 L 655.98 440.381 C 655.98 440.357 655.98 440.309 655.956 440.285 C 655.956 436.717 657.194 433.271 659.475 430.529 C 661.829 427.641 665.347 425.942 669.061 425.894 C 669.085 425.894 669.085 425.894 669.109 425.894 L 669.133 425.894 C 669.133 425.894 669.158 425.894 669.158 425.894 C 671.608 425.894 674.011 426.719 675.952 428.248 C 676.947 429.024 677.773 429.971 678.403 431.063 C 679.059 432.252 679.423 433.587 679.423 434.946 C 679.423 435.479 679.374 436.013 679.277 436.547 C 678.986 437.785 678.331 438.95 677.433 439.848 C 676.972 440.333 676.462 440.746 675.88 441.085 C 675.176 441.498 674.351 441.74 673.526 441.74 C 672.142 441.716 670.856 441.037 670.08 439.896 L 673.453 436.887 C 673.623 436.79 673.793 436.644 673.938 436.474 C 674.229 436.207 674.423 435.892 674.521 435.504 C 674.545 435.334 674.569 435.14 674.569 434.946 C 674.569 434.412 674.423 433.902 674.181 433.465 C 673.865 432.931 673.453 432.446 672.968 432.082 C 671.876 431.233 670.541 430.747 669.133 430.747 L 669.133 430.747 C 666.828 430.796 664.668 431.839 663.236 433.611 C 661.683 435.479 660.834 437.809 660.81 440.212 L 660.858 441.158 C 661.198 444.386 662.824 447.346 665.372 449.36 C 667.993 451.447 671.269 452.588 674.618 452.588 C 675.249 452.588 675.88 452.539 676.486 452.467 C 680.684 451.884 684.47 449.7 687.067 446.375 C 689.736 443.027 691.168 438.877 691.168 434.63 C 691.168 433.635 691.071 432.664 690.925 431.694 C 690.052 426.598 687.31 422.035 683.208 418.88 C 679.107 415.701 674.035 413.979 668.842 413.979 C 667.483 413.979 666.124 414.1 664.789 414.343 C 658.771 415.459 653.384 418.759 649.671 423.613 C 645.934 428.418 643.895 434.363 643.895 440.454 C 643.895 442.177 644.065 443.9 644.405 445.599 C 645.788 452.491 649.671 458.655 655.301 462.902 C 660.882 467.173 667.726 469.502 674.763 469.502 C 676.899 469.502 679.01 469.284 681.073 468.847 C 683.135 468.434 685.15 467.804 687.091 467.003 Z " fill="rgb(0,0,0)"/></g></g><g><g><path d=" M 648.981 360.756 L 699.874 360.756 C 708.752 360.756 715.958 367.962 715.958 376.84 L 715.958 379.279 C 715.958 388.157 708.752 395.364 699.874 395.364 L 648.981 395.364 C 640.103 395.364 632.895 388.157 632.895 379.279 L 632.895 376.84 C 632.895 367.962 640.103 360.756 648.981 360.756 Z  M 500.158 360.756 L 551.052 360.756 C 559.93 360.756 567.138 367.962 567.138 376.84 L 567.138 379.279 C 567.138 388.157 559.93 395.364 551.052 395.364 L 500.158 395.364 C 491.282 395.364 484.074 388.157 484.074 379.279 L 484.074 376.84 C 484.074 367.962 491.282 360.756 500.158 360.756 Z " fill-rule="evenodd" fill="rgb(11,45,61)"/></g></g><g><path d=" M 738.456 273.701 L 738.456 390.588 L 738.456 390.588 C 722.919 387.928 711.079 374.38 711.079 358.09 L 711.079 345.584 L 523.697 345.584 C 511.97 345.584 500.842 343.001 490.851 338.373 L 490.851 338.373 L 490.851 358.09 C 490.851 375.395 477.491 389.603 460.532 390.956 L 460.532 313.556 C 451.002 300.585 445.372 284.574 445.372 267.259 L 445.372 188.934 L 660.133 188.934 C 703.361 188.934 738.456 224.031 738.456 267.259 L 738.456 273.701 Z " fill="rgb(0,23,42)"/><path d=" M 445.372 163.669 L 595.689 163.669 C 624.275 163.669 647.485 186.877 647.485 215.464 L 647.485 267.259 L 497.167 267.259 C 468.581 267.259 445.372 244.05 445.372 215.464 L 445.372 163.669 Z " fill="rgb(0,23,42)"/></g></g></g></g></g><rect x="2.505" y="971.229" width="1197.495" height="265.149" transform="matrix(1,0,0,1,0,0)" fill="rgb(186,241,253)"/><clipPath id="_clipPath_Pfft7l8ikPfLUFrKO8bYMBNIqDJM1Z9z"><rect x="2.505" y="971.229" width="1197.495" height="265.149" transform="matrix(1,0,0,1,0,0)" fill="rgb(186,241,253)"/></clipPath><g clip-path="url(#_clipPath_Pfft7l8ikPfLUFrKO8bYMBNIqDJM1Z9z)"><g opacity="0.77"><radialGradient id="_rgradient_3" fx="0.5035790598290599" fy="0.3351314338514948" cx="0.5" cy="0.5" r="0.5" gradientTransform="matrix(1543.869,0,0,393.726,-172.409,842.652)" gradientUnits="userSpaceOnUse"><stop offset="0%" stop-opacity="1" style="stop-color:rgb(0,0,0)"/><stop offset="100%" stop-opacity="0" style="stop-color:rgb(216,239,244)"/></radialGradient><rect x="0.778" y="842.652" width="1197.495" height="393.726" transform="matrix(1,0,0,1,0,0)" fill="url(#_rgradient_3)"/></g></g><g><path d=" M 690.581 772.588 L 690.581 751.664 C 690.581 737.015 678.688 725.122 664.039 725.122 L 535.958 725.122 C 521.31 725.122 509.418 737.015 509.418 751.664 L 509.418 805.025 L 507.836 805.025 L 507.836 832.714 L 509.418 832.714 L 509.418 1074.363 C 509.418 1089.012 521.31 1100.905 535.958 1100.905 L 664.039 1100.905 C 678.688 1100.905 690.582 1089.012 690.582 1074.363 L 690.582 866.733 L 692.164 866.733 L 692.164 839.043 L 690.582 839.043 L 690.582 832.714 L 692.164 832.714 L 692.164 805.025 L 690.582 805.025 L 690.582 787.62 L 692.164 787.62 L 692.164 772.588 L 690.582 772.588 L 690.582 772.588" fill="rgb(210,210,210)"/><path d=" M 690.581 756.689 L 509.418 756.689 L 509.418 1068.556 L 690.581 1068.556 L 690.581 756.689 Z  M 685.856 751.664 C 684.614 738.479 673.855 728.16 660.784 728.16 L 539.214 728.16 C 526.144 728.16 515.385 738.479 514.143 751.664 L 685.856 751.664 L 685.856 751.664 Z  M 685.856 1073.581 C 684.614 1086.766 673.855 1097.085 660.784 1097.085 L 539.214 1097.085 C 526.144 1097.085 515.385 1086.766 514.143 1073.581 L 685.856 1073.581 L 685.856 1073.581 Z " fill-rule="evenodd" fill="rgb(255,255,255)"/><path d=" M 546.137 742.384 C 546.137 746.181 543.058 749.264 539.263 749.264 C 535.469 749.264 532.39 746.181 532.39 742.384 C 532.39 738.588 535.469 735.505 539.263 735.505 C 543.058 735.505 546.137 738.588 546.137 742.384 L 546.137 742.384 L 546.137 742.384 Z " fill="rgb(53,173,207)"/><path d=" M 568.945 742.384 C 568.945 744.887 566.916 746.919 564.415 746.919 C 561.914 746.919 559.884 744.887 559.884 742.384 C 559.884 739.882 561.914 737.85 564.415 737.85 C 566.916 737.85 568.945 739.882 568.945 742.384 L 568.945 742.384 L 568.945 742.384 Z " fill="rgb(53,173,207)"/><path d=" M 554.808 742.384 C 554.808 743.377 554.003 744.183 553.011 744.183 C 552.018 744.183 551.213 743.377 551.213 742.384 C 551.213 741.392 552.018 740.585 553.011 740.585 C 554.003 740.585 554.808 741.392 554.808 742.384 L 554.808 742.384 L 554.808 742.384 Z " fill="rgb(53,173,207)"/><path d=" M 622.006 840.359 C 620.802 843.026 620.228 844.22 618.678 846.571 C 616.525 849.866 613.473 853.97 609.701 853.995 C 606.35 854.025 605.486 851.808 600.933 851.847 C 596.38 851.863 595.428 854.033 592.072 854 C 588.304 853.97 585.42 850.267 583.256 846.988 C 577.211 837.781 576.575 826.986 580.311 821.247 C 582.952 817.175 587.135 814.786 591.068 814.786 C 595.061 814.786 597.578 816.98 600.887 816.98 C 604.095 816.98 606.046 814.776 610.677 814.776 C 614.168 814.776 617.871 816.68 620.512 819.973 C 611.865 824.707 613.272 837.06 622.008 840.363 L 622.006 840.359 Z  M 607.161 811.094 C 608.844 808.94 610.116 805.889 609.661 802.783 C 606.909 802.972 603.701 804.725 601.821 806.99 C 600.122 809.059 598.715 812.133 599.264 815.104 C 602.262 815.198 605.359 813.413 607.161 811.094 Z " fill="rgb(53,173,207)"/></g><g><g><path d=" M 795.435 693.723 C 788.058 677.022 787.627 658.051 794.224 641.03 C 800.835 624.008 813.932 610.285 830.633 602.923 C 847.335 595.546 866.305 595.115 883.326 601.712 C 900.348 608.323 914.071 621.42 921.447 638.121 C 928.128 653.292 934.628 668.532 940.946 683.855 C 946.834 698.163 952.526 712.554 957.996 727.029 C 963.09 740.501 967.961 754.071 972.596 767.724 C 976.91 780.404 980.96 793.18 984.746 806.04 C 988.267 817.996 991.482 830.021 994.405 842.143 C 997.133 853.417 999.513 864.774 1001.545 876.2 C 1003.452 886.917 1004.955 897.69 1006.026 908.518 C 1007.07 918.789 1007.599 929.102 1007.627 939.429 C 1007.669 949.52 1007.07 959.596 1005.846 969.603 C 1004.635 979.582 1002.617 989.464 999.819 999.123 C 996.952 1009.061 993.083 1018.678 988.267 1027.836 C 983.271 1037.356 977.161 1046.235 970.049 1054.308 C 962.811 1062.505 954.558 1069.77 945.484 1075.908 C 936.59 1081.907 927.001 1086.834 916.938 1090.592 C 907.251 1094.182 897.23 1096.799 887.015 1098.399 C 877.105 1099.944 867.07 1100.71 857.035 1100.668 C 849.464 1100.64 841.893 1100.251 834.349 1099.499 C 826.639 1098.733 818.956 1097.662 811.329 1096.27 C 803.452 1094.85 795.616 1093.152 787.85 1091.204 C 779.736 1089.172 771.691 1086.917 763.702 1084.426 C 755.31 1081.823 746.973 1079.012 738.72 1076.006 C 729.993 1072.832 721.322 1069.492 712.721 1065.971 C 694.071 1058.288 675.658 1050.021 657.537 1041.155 C 641.141 1033.125 628.587 1018.9 622.658 1001.628 C 616.743 984.356 617.926 965.428 625.943 949.033 C 633.974 932.624 648.198 920.07 665.456 914.154 C 682.728 908.225 701.67 909.408 718.065 917.425 C 733.486 924.969 749.158 932.025 765.038 938.553 C 771.886 941.364 778.803 944.036 785.762 946.555 C 791.997 948.824 798.274 950.939 804.607 952.916 C 810.146 954.642 815.741 956.2 821.364 957.62 C 826.18 958.817 831.023 959.875 835.894 960.752 C 839.916 961.475 843.953 962.046 848.003 962.45 C 851.162 962.77 854.349 962.923 857.537 962.937 C 860.278 962.951 863.02 962.742 865.734 962.324 C 866.193 962.241 866.667 962.157 867.112 962.046 C 867.265 961.642 867.404 961.239 867.516 960.835 C 868.267 958.246 868.81 955.602 869.13 952.93 C 869.659 948.615 869.923 944.259 869.896 939.916 C 869.882 934.015 869.576 928.128 868.991 922.255 C 868.253 914.906 867.237 907.599 865.943 900.32 C 864.398 891.649 862.603 883.034 860.529 874.475 C 858.135 864.579 855.505 854.739 852.624 844.969 C 849.367 833.918 845.887 822.923 842.185 812.011 C 838.051 799.861 833.709 787.766 829.172 775.755 C 824.175 762.533 818.97 749.381 813.584 736.298 C 807.711 722.032 801.656 707.836 795.435 693.723 Z " fill="rgb(255,193,149)"/><path d=" M 332.888 962.046 C 333.333 962.157 333.807 962.241 334.266 962.324 C 336.98 962.742 339.722 962.951 342.463 962.937 C 345.651 962.923 348.838 962.77 351.997 962.45 C 356.047 962.046 360.084 961.475 364.106 960.752 C 368.977 959.875 373.82 958.817 378.636 957.62 C 384.259 956.2 389.854 954.642 395.393 952.916 C 401.726 950.939 408.003 948.824 414.238 946.555 C 421.197 944.036 428.114 941.364 434.962 938.553 C 450.842 932.025 466.514 924.969 481.935 917.425 C 498.33 909.408 517.272 908.225 534.544 914.154 C 551.802 920.07 566.026 932.624 574.057 949.033 C 582.074 965.428 583.257 984.356 577.342 1001.628 C 571.413 1018.9 558.859 1033.125 542.463 1041.155 C 524.342 1050.021 505.929 1058.288 487.279 1065.971 C 478.678 1069.492 470.007 1072.832 461.28 1076.006 C 453.027 1079.012 444.69 1081.823 436.298 1084.426 C 428.309 1086.917 420.264 1089.172 412.15 1091.204 C 404.384 1093.152 396.548 1094.85 388.671 1096.27 C 381.044 1097.662 373.361 1098.733 365.651 1099.499 C 358.107 1100.251 350.536 1100.64 342.965 1100.668 C 332.93 1100.71 322.895 1099.944 312.985 1098.399 C 302.77 1096.799 292.749 1094.182 283.062 1090.592 C 272.999 1086.834 263.41 1081.907 254.516 1075.908 C 245.442 1069.77 237.189 1062.505 229.951 1054.308 C 222.839 1046.235 216.729 1037.356 211.733 1027.836 C 206.917 1018.678 203.048 1009.061 200.181 999.123 C 197.383 989.464 195.365 979.582 194.154 969.603 C 192.93 959.596 192.331 949.52 192.373 939.429 C 192.401 929.102 192.93 918.789 193.974 908.518 C 195.045 897.69 196.548 886.917 198.455 876.2 C 200.487 864.774 202.867 853.417 205.595 842.143 C 208.518 830.021 211.733 817.996 215.254 806.04 C 219.04 793.18 223.09 780.404 227.404 767.724 C 232.039 754.071 236.91 740.501 242.004 727.029 C 247.474 712.554 253.166 698.163 259.054 683.855 C 265.372 668.532 271.872 653.292 278.553 638.121 C 285.929 621.42 299.652 608.323 316.674 601.712 C 333.695 595.115 352.665 595.546 369.367 602.923 C 386.068 610.285 399.165 624.008 405.776 641.03 C 412.373 658.051 411.942 677.022 404.565 693.723 C 398.344 707.836 392.289 722.032 386.416 736.298 C 381.03 749.381 375.825 762.533 370.828 775.755 C 366.291 787.766 361.949 799.861 357.815 812.011 C 354.113 822.923 350.633 833.918 347.376 844.969 C 344.495 854.739 341.865 864.579 339.471 874.475 C 337.397 883.034 335.602 891.649 334.057 900.32 C 332.763 907.599 331.747 914.906 331.009 922.255 C 330.424 928.128 330.118 934.015 330.104 939.916 C 330.077 944.259 330.341 948.615 330.87 952.93 C 331.19 955.602 331.733 958.246 332.484 960.835 C 332.596 961.239 332.735 961.642 332.888 962.046 Z " fill="rgb(255,193,149)"/></g><g><path d=" M 245.522 717.829 C 249.903 706.451 254.415 695.129 259.057 683.855 C 265.37 668.533 271.874 653.286 278.55 638.117 C 285.934 621.417 299.65 608.313 316.675 601.714 C 333.7 595.114 352.657 595.554 369.357 602.919 C 386.057 610.284 399.18 624.019 405.78 641.025 C 412.379 658.05 411.939 677.026 404.574 693.726 C 398.338 707.843 392.293 722.037 386.421 736.308 C 382.315 746.252 378.32 756.251 374.444 766.289 L 245.522 717.829 Z " fill="rgb(0,181,228)"/><path d=" M 954.478 717.829 C 950.097 706.451 945.585 695.129 940.943 683.855 C 934.63 668.533 928.126 653.286 921.45 638.117 C 914.066 621.417 900.35 608.313 883.325 601.714 C 866.3 595.114 847.343 595.554 830.643 602.919 C 813.943 610.284 800.82 624.019 794.22 641.025 C 787.621 658.05 788.061 677.026 795.426 693.726 C 801.662 707.843 807.707 722.037 813.579 736.308 C 817.685 746.252 821.68 756.251 825.556 766.289 L 954.478 717.829 Z " fill="rgb(0,181,228)"/></g></g></g></g></g></svg>