<?xml version="1.0" encoding="UTF-8" standalone="no"?>
<svg
   xmlns:dc="http://purl.org/dc/elements/1.1/"
   xmlns:cc="http://creativecommons.org/ns#"
   xmlns:rdf="http://www.w3.org/1999/02/22-rdf-syntax-ns#"
   xmlns:svg="http://www.w3.org/2000/svg"
   xmlns="http://www.w3.org/2000/svg"
   viewBox="0 0 1500 1000"
   height="1000"
   width="1500"
   version="1.1"
   id="svg4366">
  <metadata
     id="metadata4372">
    <rdf:RDF>
      <cc:Work
         rdf:about="">
        <dc:format>image/svg+xml</dc:format>
        <dc:type
           rdf:resource="http://purl.org/dc/dcmitype/StillImage" />
        <dc:title></dc:title>
      </cc:Work>
    </rdf:RDF>
  </metadata>
  <defs
     id="defs4370" />
  <g
     id="g4376">
    <path
       id="path4380"
       d="m 1078.6824,602.8125 c -3.0117,-9.3403 -3.0823,-9.38252 -9.0106,-5.38496 -8.9402,6.02863 -17.4671,8.19866 -32.1718,8.18745 -12.1452,-0.009 -13.754,-0.30725 -21.5509,-3.99143 -15.1122,-7.14076 -26.18821,-21.48835 -29.69996,-38.47265 -5.76273,-27.87099 13.79466,-53.45815 44.45886,-58.16609 9.9929,-1.53423 20.5154,-0.32958 32.1819,3.68428 8.3484,2.87227 8.8834,2.03325 4.49,-7.04211 -3.387,-6.99662 -10.646,-11.35773 -20.6105,-12.38258 -8.6854,-0.89329 -27.2639,2.00886 -36.7196,5.73595 l -6.3657,2.50913 -1.3361,-3.43225 c -0.7349,-1.88773 -3.17739,-8.67739 -5.42779,-15.08814 l -4.09162,-11.6559 2.69376,-1.02418 c 31.97975,-12.15868 69.82895,-13.20076 90.80405,-2.50005 8.6997,4.43825 17.0115,13.1308 20.1112,21.03244 2.5679,6.54594 2.8322,9.93238 3.6723,47.05359 0.9487,41.92281 1.9262,49.91491 7.4228,60.68901 1.925,3.77345 2.1542,5.1163 0.9428,5.52419 -2.8188,0.94911 -36.4179,9.4118 -37.3673,9.4118 -0.5029,0 -1.5945,-2.10938 -2.4258,-4.6875 z m -24.5857,-29.13766 c 23.5361,-6.53603 18.5798,-41.17484 -5.8915,-41.17484 -7.0444,0 -11.5604,2.17164 -16.708,8.03443 -7.1889,8.18771 -6.5032,19.37624 1.6896,27.56906 6.1508,6.15077 12.6182,7.87399 20.9099,5.57135 z M 497.5,604.3074 c -13.46931,-2.8909 -29.80829,-9.92541 -38.56588,-16.60398 -4.06391,-3.09916 -4.16363,-3.38729 -3.29187,-9.51219 1.88374,-13.23507 -0.29628,-170.72303 -2.43393,-175.83087 -0.72782,-1.73911 2.11508,-2.47911 20.78678,-5.41079 11.89644,-1.86788 22.70597,-3.70018 24.02119,-4.07177 2.3272,-0.65753 2.37002,0.24961 1.59768,33.84829 -0.43647,18.98815 -0.56381,34.52391 -0.28296,34.52391 0.28084,0 5.18688,-1.12106 10.9023,-2.49124 27.59603,-6.61571 50.50375,-0.16011 68.17118,19.21124 19.39213,21.26241 23.48691,58.87059 9.57869,87.97496 -8.7732,18.35881 -29.43621,33.89638 -51.10818,38.43085 -10.8493,2.27003 -28.62361,2.23914 -39.375,-0.0684 z m 35.58966,-38.58708 c 11.03768,-4.61183 20.15626,-17.83614 21.53943,-31.23775 1.59815,-15.48451 -4.72463,-28.32851 -17.15194,-34.84227 -6.37801,-3.34303 -7.6306,-3.5566 -18.10215,-3.08649 -6.89109,0.30938 -13.07465,1.32704 -15.95928,2.6265 l -4.70928,2.12144 0.33428,30.8767 0.33428,30.87669 5.625,2.15445 c 7.01204,2.68571 22.22234,2.96226 28.08966,0.51073 z m 128.96653,38.54969 C 625.64454,595.45565 602.30031,557.64635 609.2544,518.75 c 5.25941,-29.41749 29.1013,-55.22256 57.12449,-61.8282 26.21109,-6.17849 51.55072,1.13261 71.27602,20.56486 15.14813,14.92309 21.35159,30.42329 21.26694,53.13834 -0.0791,21.22316 -7.11904,37.72225 -22.74589,53.3081 -10.6676,10.63962 -22.02055,17.02872 -36.19492,20.36945 -9.98233,2.35271 -28.13585,2.33714 -37.92485,-0.0325 z m 34.00218,-39.79791 c 7.2139,-3.65555 14.57989,-11.52135 17.97342,-19.193 2.07456,-4.6899 2.4098,-7.5882 1.96957,-17.028 -0.57285,-12.28365 -2.04944,-16.33679 -8.71889,-23.93288 -6.14883,-7.00313 -12.67235,-9.79153 -22.90747,-9.79153 -10.71552,0 -16.83333,2.82718 -24.18109,11.17468 -13.48601,15.32093 -13.4006,38.15898 0.19483,52.09259 7.15815,7.33621 12.36463,9.64324 21.84031,9.67758 5.87338,0.0213 9.36094,-0.73513 13.82932,-2.99944 z m 124.22932,38.5899 c -3.62303,-0.9754 -8.35208,-2.68605 -10.50901,-3.80145 -6.33169,-3.27425 -16.01887,-13.09486 -19.59093,-19.8608 l -3.31275,-6.27475 -0.38493,-34.6875 -0.38491,-34.6875 -9.30258,0 -9.30258,0 0,-17.5 0,-17.5 10.15745,0 10.15745,0 -0.54176,-21.875 -0.54176,-21.875 21.1487,0 21.14869,0 -0.46726,22.5 -0.46726,22.5 17.82787,0 17.82788,0 0,17.5 0,17.5 -17.34375,0 -17.34375,0 -0.78125,3.90625 c -0.42969,2.14844 -0.78125,13.14512 -0.78125,24.43708 0,22.25222 0.71481,25.33773 7.0186,30.2963 4.11192,3.23444 13.22797,3.49177 20.50796,0.57889 2.79244,-1.11731 5.23143,-1.82043 5.41998,-1.5625 0.18855,0.25794 2.68266,6.60456 5.54246,14.1036 5.92134,15.52704 6.3963,13.91989 -6.10534,20.65909 -7.80637,4.20814 -20.42132,7.57734 -28.00866,7.48055 -2.75,-0.0351 -7.96429,-0.86185 -11.58731,-1.83726 z m 107.24261,-0.0659 c -9.51088,-2.55581 -16.12553,-6.73357 -23.58649,-14.89705 C 894.34939,577.60126 893.75,574.53922 893.75,536.02312 l 0,-32.27312 -9.375,0 -9.375,0 0,-17.5 0,-17.5 9.19631,0 9.1963,0 0.85873,-12.468 c 0.47228,-6.8574 0.47511,-16.70115 0.006,-21.875 l -0.85241,-9.407 21.61002,0 21.61004,0 -0.694,22.4664 -0.694,22.4664 17.69387,0.3461 17.69389,0.3461 0.34778,17.1875 0.34777,17.1875 -18.23044,0 -18.23043,0 0.38266,26.34854 0.38266,26.34853 4.66914,4.27647 c 3.8321,3.50981 5.65267,4.27646 10.15535,4.27646 3.01741,0 7.90852,-0.85465 10.86914,-1.89921 2.96062,-1.04456 5.80366,-1.46644 6.31786,-0.9375 0.51421,0.52893 3.20114,6.82347 5.97095,13.98786 5.823,15.0617 6.36565,13.66029 -7.98244,20.61511 -14.37755,6.96909 -25.35309,8.40385 -38.0947,4.97988 z M 382.07,590.3125 c -0.44389,-6.70313 -0.80998,-38.76563 -0.81354,-71.25 L 381.25,460 l 23.75,0 23.75,0 -0.0317,6.5625 c -0.0175,3.60937 -0.84693,34.96875 -1.84326,69.6875 -0.99634,34.71875 -1.82581,63.82812 -1.84326,64.6875 -0.0241,1.18692 -5.09429,1.5625 -21.09322,1.5625 l -21.06146,0 -0.80706,-12.1875 z M 407.5,442.99514 c -9.89689,-2.64925 -16.64006,-6.20315 -22.42851,-11.82065 L 380,426.25278 l 0,-16.89744 0,-16.89745 6.23884,3.16145 c 7.63406,3.86847 18.54922,6.44047 32.19866,7.58713 l 10.3125,0.86634 0,20.4636 0,20.46359 -7.1875,-0.0822 c -3.95313,-0.0453 -10.28125,-0.91041 -14.0625,-1.9226 z"
       style="fill:#fdfafa" />
    <path
       id="path4378"
       d="M 0,500 0,0 l 750,0 750,0 0,500 0,500 -750,0 -750,0 0,-500 z m 1099.4488,103.06355 c 9.5844,-2.44005 18.1464,-4.67896 19.0267,-4.97535 1.2114,-0.40789 0.9822,-1.75074 -0.9429,-5.52419 -5.4965,-10.7741 -6.474,-18.7662 -7.4227,-60.68901 -0.8401,-37.12121 -1.1044,-40.50765 -3.6723,-47.05359 -6.9922,-17.82415 -28.4798,-28.57141 -57.1245,-28.57141 -16.2293,0 -38.143,4.08977 -53.79075,10.03903 l -2.69376,1.02417 4.09162,11.6559 c 2.2504,6.41075 4.69289,13.20041 5.42779,15.08814 l 1.3361,3.43225 6.3657,-2.50913 c 9.4557,-3.72708 28.0342,-6.62923 36.7196,-5.73595 9.9645,1.02485 17.2235,5.38597 20.6105,12.38258 4.3933,9.07536 3.8584,9.91439 -4.4901,7.04211 -11.6664,-4.01386 -22.1889,-5.21851 -32.1819,-3.68427 -30.6641,4.70793 -50.22149,30.2951 -44.45876,58.16608 3.51175,16.9843 14.58776,31.33189 29.69996,38.47265 7.7969,3.68418 9.4057,3.98215 21.5509,3.99143 14.7047,0.0113 23.2316,-2.15881 32.1718,-8.18745 5.9282,-3.99756 5.9989,-3.95534 9.0106,5.38496 0.8313,2.57813 1.9229,4.6875 2.4258,4.6875 0.5029,0 8.7561,-1.9964 18.3406,-4.43645 z m -57.8783,-29.45995 c -9.1897,-2.65399 -16.5676,-14.68889 -14.7956,-24.13475 0.9533,-5.08115 6.8156,-12.42574 12.0986,-15.1577 5.0959,-2.63521 14.3236,-2.28185 19.7278,0.75546 16.4966,9.27161 13.6624,33.5632 -4.5046,38.60823 -5.4902,1.52465 -7.0306,1.51589 -12.5262,-0.0712 z M 536.875,604.37581 c 21.67197,-4.53447 42.33497,-20.07204 51.10817,-38.43085 13.90823,-29.10437 9.81345,-66.71255 -9.57868,-87.97496 -17.66743,-19.37135 -40.57515,-25.82695 -68.17118,-19.21124 -5.71542,1.37018 -10.62146,2.49124 -10.9023,2.49124 -0.28085,0 -0.15351,-15.53576 0.28296,-34.52391 0.77234,-33.59868 0.72952,-34.50581 -1.59768,-33.84829 -1.31522,0.37159 -12.12475,2.20389 -24.02119,4.07178 -18.6717,2.93167 -21.5146,3.67167 -20.78678,5.41078 2.13765,5.10784 4.31767,162.5958 2.43393,175.83087 -0.87176,6.1249 -0.77204,6.41303 3.29187,9.5122 4.78064,3.64573 16.52842,9.69112 24.81588,12.77021 15.27579,5.67552 37.01705,7.27247 53.125,3.90217 z M 505,565.20959 l -5.625,-2.15445 -0.33428,-30.87669 -0.33428,-30.8767 4.70928,-2.12144 c 2.88463,-1.29946 9.06819,-2.31712 15.95928,-2.6265 10.47155,-0.47011 11.72414,-0.25654 18.10215,3.08649 12.42731,6.51376 18.75009,19.35776 17.15194,34.84227 -1.38317,13.4016 -10.50175,26.62592 -21.53943,31.23775 -5.86732,2.45153 -21.07762,2.17498 -28.08966,-0.51073 z m 194.98104,39.09296 c 14.17437,-3.34073 25.52732,-9.72983 36.19492,-20.36945 15.62685,-15.58585 22.6668,-32.08494 22.74589,-53.3081 0.0846,-22.71505 -6.11881,-38.21525 -21.26694,-53.13834 -15.62581,-15.39366 -32.34721,-22.50442 -52.83534,-22.46819 -21.56657,0.0381 -38.0539,6.94733 -53.68763,22.49833 -30.82274,30.65959 -30.98205,80.02321 -0.35325,109.45259 7.89532,7.58613 20.92903,14.79552 31.2775,17.30062 9.789,2.36968 27.94252,2.38525 37.92485,0.0325 z M 670,565.30178 c -6.83818,-3.34688 -14.55883,-12.10272 -17.42376,-19.75994 -5.07697,-13.5694 -2.18264,-28.70672 7.61767,-39.84047 7.34776,-8.34749 13.46557,-11.17468 24.18109,-11.17468 10.23512,0 16.75864,2.7884 22.90747,9.79154 6.66945,7.59608 8.14604,11.64922 8.71889,23.93287 0.44023,9.4398 0.105,12.3381 -1.96957,17.028 -3.39353,7.67165 -10.75952,15.53745 -17.97342,19.193 -7.36298,3.73111 -19.35048,4.11277 -26.05837,0.82968 z m 174.88366,37.7735 c 4.40476,-1.03829 11.15476,-3.58374 15,-5.65657 12.50164,-6.7392 12.02668,-5.13205 6.10534,-20.65908 -2.8598,-7.49905 -5.35391,-13.84567 -5.54246,-14.1036 -0.18855,-0.25794 -2.62754,0.44518 -5.41998,1.5625 -7.27999,2.91287 -16.39604,2.65555 -20.50796,-0.5789 -6.30379,-4.95857 -7.0186,-8.04408 -7.0186,-30.2963 0,-11.29196 0.35156,-22.28864 0.78125,-24.43708 L 829.0625,505 l 17.34375,0 17.34375,0 0,-17.5 0,-17.5 -17.82787,0 -17.82788,0 0.46726,-22.5 0.46727,-22.5 -21.1487,0 -21.1487,0 0.54176,21.875 0.54176,21.875 -10.15745,0 -10.15745,0 0,17.5 0,17.5 9.30258,0 9.30258,0 0.38492,34.6875 0.38492,34.6875 3.31275,6.27475 c 3.57206,6.76594 13.25924,16.58655 19.59093,19.8608 5.48857,2.83825 16.16623,5.56306 22.09632,5.63871 2.75,0.0351 8.6039,-0.78571 13.00866,-1.82398 z m 105.36732,0.55351 c 6.43068,-1.3312 21.93711,-8.13869 26.25826,-11.52766 1.98159,-1.55412 1.77403,-2.60553 -2.9018,-14.69998 -2.76982,-7.16439 -5.45674,-13.45893 -5.97095,-13.98786 -0.5142,-0.52894 -3.35724,-0.10713 -6.31787,0.9375 -2.96061,1.04456 -7.85172,1.89921 -10.86913,1.89921 -4.50268,0 -6.32325,-0.76665 -10.15535,-4.27646 L 935.625,557.69708 935.24234,531.34854 934.85968,505 l 18.23043,0 18.23044,0 -0.34778,-17.1875 -0.34777,-17.1875 -17.69389,-0.3461 -17.69387,-0.3461 0.694,-22.4664 0.694,-22.4664 -21.61004,0 -21.61003,0 0.85244,9.407 c 0.46884,5.17385 0.46601,15.0176 -0.006,21.875 l -0.85872,12.468 -9.1963,0 -9.19631,0 0,17.5 0,17.5 9.375,0 9.375,0 0,32.27312 c 0,38.5161 0.59938,41.57814 10.19381,52.07597 12.73856,13.93802 28.4854,19.21892 46.30716,15.5297 z M 425.03174,600.9375 c 0.0175,-0.85938 0.84692,-29.96875 1.84326,-64.6875 0.99634,-34.71875 1.82581,-66.07813 1.84326,-69.6875 L 428.75,460 405,460 l -23.75,0 0.006,59.0625 c 0.004,32.48437 0.36965,64.54687 0.81354,71.25 l 0.80706,12.1875 21.06146,0 c 15.99893,0 21.0691,-0.37558 21.09321,-1.5625 z m 3.71826,-176.40109 0,-20.4636 -10.3125,-0.86634 c -13.64944,-1.14666 -24.5646,-3.71866 -32.19866,-7.58713 L 380,392.45789 l 0,16.89745 0,16.89744 5.07149,4.92171 c 8.50486,8.25368 22.6604,13.58495 36.49101,13.74325 L 428.75,445 l 0,-20.46359 z"
       style="fill:#f07581" />
  </g>
</svg>
