<?xml version="1.0" encoding="UTF-8" standalone="no"?><!-- Generator: Gravit.io --><svg xmlns="http://www.w3.org/2000/svg" xmlns:xlink="http://www.w3.org/1999/xlink" style="isolation:isolate" viewBox="0 0 1200 1200" width="1200pt" height="1200pt"><defs><clipPath id="_clipPath_ikWvf9ml6VWQZT599q50ZkpBnDe18Xi1"><rect width="1200" height="1200"/></clipPath></defs><g clip-path="url(#_clipPath_ikWvf9ml6VWQZT599q50ZkpBnDe18Xi1)"><rect x="0" y="0" width="1200" height="1200" transform="matrix(1,0,0,1,0,0)" fill="rgb(54,62,84)"/><g><radialGradient id="_rgradient_0" fx="0.5" fy="0.5" cx="0.5" cy="0.5" r="0.5" gradientTransform="matrix(608.197,-3.132,0,691.589,295.901,135.566)" gradientUnits="userSpaceOnUse"><stop offset="0.8695652173913043%" stop-opacity="1" style="stop-color:rgb(255,255,255)"/><stop offset="33.04347826086956%" stop-opacity="1" style="stop-color:rgb(242,242,242)"/><stop offset="48.26086956521739%" stop-opacity="1" style="stop-color:rgb(232,232,232)"/><stop offset="66.08695652173913%" stop-opacity="1" style="stop-color:rgb(215,210,210)"/><stop offset="82.6086956521739%" stop-opacity="1" style="stop-color:rgb(200,197,197)"/><stop offset="98.69565217391305%" stop-opacity="1" style="stop-color:rgb(168,167,167)"/></radialGradient><path d=" M 600 825.589 C 519.557 825.589 490.282 650.165 400.585 552.732 C 364.665 508.543 343.125 452.205 343.125 390.875 C 343.125 249.102 458.227 134 600 134 C 600 134 600 134 600 134 C 741.773 134 856.875 249.102 856.875 390.875 C 856.875 452.205 835.336 508.543 799.415 552.732 C 709.718 650.165 680.444 825.589 600 825.589 L 600 825.589 L 600 825.589 L 600 825.589 L 600 825.589 L 600 825.589 Z " fill="url(#_rgradient_0)"/><path d=" M 933.831 797.102 L 776.115 746.187 L 714.782 690.875 L 485.218 690.875 L 423.885 746.187 L 266.169 797.102 L 138.245 881.468 L 10.625 1386.5 L 1189.375 1386.5 L 1061.755 881.468 L 933.831 797.102 Z " fill="rgb(26,31,46)"/><clipPath id="_clipPath_nTPIhjC0rWmK3Ns8bUjRoldR1QR7lPjp"><path d=" M 933.831 797.102 L 776.115 746.187 L 714.782 690.875 L 485.218 690.875 L 423.885 746.187 L 266.169 797.102 L 138.245 881.468 L 10.625 1386.5 L 1189.375 1386.5 L 1061.755 881.468 L 933.831 797.102 Z " fill="rgb(26,31,46)"/></clipPath><g clip-path="url(#_clipPath_nTPIhjC0rWmK3Ns8bUjRoldR1QR7lPjp)"><path d=" M 714.782 690.875 L 485.218 690.875 L 599.124 2321.784 L 714.782 690.875 Z " fill="rgb(255,255,255)"/><path d=" M 364.303 881.468 L 485.218 690.875 L 599.124 2321.784 L 364.303 881.468 Z " fill="rgb(54,62,84)"/><path d=" M 835.697 881.468 L 714.782 690.875 L 600.876 2321.784 L 835.697 881.468 Z " fill="rgb(54,62,84)"/><g><path d=" M 630.667 690.875 L 569.333 690.875 L 599.452 746.187 L 630.667 690.875 Z " fill="rgb(255,105,105)"/><path d=" M 649.028 761.187 L 550.972 761.187 L 599.124 705.875 L 649.028 761.187 Z " fill="rgb(255,105,105)"/><path d=" M 649.028 761.187 L 550.972 761.187 L 599.124 1699.625 L 649.028 761.187 Z " fill="rgb(255,105,105)"/></g></g><g opacity="0.4"><path d=" M 647.79 300 C 650.108 328.31 641.519 352.032 622 371.133 L 712.031 404.125 C 726.852 387.83 740.372 363.499 740.842 328.535 L 647.79 300 Z " fill="rgb(255,255,255)"/></g></g></g></svg>