<?xml version="1.0" encoding="UTF-8" standalone="no"?><!-- Generator: Gravit.io --><svg xmlns="http://www.w3.org/2000/svg" xmlns:xlink="http://www.w3.org/1999/xlink" style="isolation:isolate" viewBox="0 0 1200 1200" width="1200pt" height="1200pt"><defs><clipPath id="_clipPath_hyK8LI9ZcgaJwkA0yyrvmZBe5zBOK63v"><rect width="1200" height="1200"/></clipPath></defs><g clip-path="url(#_clipPath_hyK8LI9ZcgaJwkA0yyrvmZBe5zBOK63v)"><rect width="1200" height="1200" style="fill:rgb(232,255,241)"/><g><path d=" M 460.545 230 L 478.667 230 L 478.667 284.364 L 478.667 302.485 L 460.545 302.485 L 333.697 302.485 L 333.697 284.364 L 333.697 175.636 L 288.394 175.636 L 288.394 230 L 270.273 230 L 270.273 175.636 L 224.97 175.636 L 224.97 302.485 L 206.848 302.485 L 206.848 175.636 L 161.545 175.636 L 161.545 302.485 L 143.424 302.485 L 143.424 175.636 L 80 175.636 L 80 157.515 L 143.424 157.515 L 161.545 157.515 L 206.848 157.515 L 224.97 157.515 L 270.273 157.515 L 288.394 157.515 L 333.697 157.515 L 351.818 157.515 L 478.667 157.515 L 478.667 175.636 L 351.818 175.636 L 351.818 284.364 L 460.545 284.364 L 460.545 248.121 L 406.182 248.121 L 406.182 230 L 460.545 230 Z " fill="rgb(0,0,0)"/><g><path d=" M 720.201 306.672 C 718.865 307.376 717.259 307.338 715.957 306.573 C 714.654 305.807 713.841 304.423 713.805 302.912 C 713.805 302.522 712.927 266.393 679.727 236.903 C 677.432 234.902 675.284 232.949 673.087 231.045 C 645.892 207.073 625.191 188.813 624.996 158.933 C 624.996 157.664 623.385 157.029 622.555 157.956 C 604.393 176.607 571.242 219.425 584.326 273.033 C 584.792 274.881 583.975 276.814 582.325 277.768 C 580.671 278.753 578.561 278.491 577.198 277.134 C 576.466 276.401 563.137 263.561 559.768 241.346 C 559.524 239.931 557.62 239.686 556.985 241.005 C 547.807 262.487 535.357 304.914 531.109 381.518 C 531.109 381.811 531.158 382.152 531.158 382.445 C 530.299 393.541 531.087 404.392 533.317 414.758 C 543.506 462.136 747.904 439.197 753.083 415.439 C 754.189 410.369 754.95 405.188 755.354 399.924 L 755.403 399.875 C 755.598 397.727 762.58 330.107 745.54 271.568 C 745.15 270.201 743.099 270.201 742.758 271.617 C 739.291 284.848 732.7 300.129 720.201 306.672 L 720.201 306.672 Z " fill="rgb(0,174,69)"/><g><path d=" M 634.413 453.54 C 634.413 448.79 630.562 444.939 625.811 444.939 C 621.06 444.939 617.209 448.79 617.209 453.54 L 617.209 470.744 C 617.209 475.509 621.037 479.346 625.811 479.346 C 630.585 479.346 634.413 475.509 634.413 470.744 L 634.413 453.54 Z  M 668.82 453.54 C 668.82 448.79 664.969 444.939 660.218 444.939 C 655.467 444.939 651.616 448.79 651.616 453.54 L 651.616 470.744 C 651.616 475.509 655.444 479.346 660.218 479.346 C 664.992 479.346 668.82 475.509 668.82 470.744 L 668.82 453.54 Z " fill="rgb(29,56,40)"/><path d=" M 525.446 434.616 C 525.446 434.616 499.641 460.422 525.446 486.227 C 551.251 494.829 559.853 469.023 559.853 469.023 C 559.853 469.023 534.048 451.82 542.649 434.616 C 551.251 417.413 525.446 434.616 525.446 434.616 Z  M 760.583 426.789 C 760.583 426.789 786.388 452.594 760.583 478.399 C 734.778 487.001 726.176 461.196 726.176 461.196 C 726.176 461.196 751.981 443.992 743.38 426.789 C 734.778 409.585 760.583 426.789 760.583 426.789 Z " fill="rgb(0,122,49)"/><path d=" M 591.404 496.549 C 602.294 502.02 608.608 522.354 643.556 539.446 C 643.556 552.314 592.075 539.446 566.339 513.709 C 548.395 496.549 574.201 487.947 591.404 496.549 Z " fill="rgb(0,209,83)"/><g><rect x="551.92" y="517.697" width="98.226" height="55.41" transform="matrix(0.693,-0.721,0.721,0.693,-208.716,600.265)" fill="rgb(165,214,167)"/><path d=" M 586.938 600 L 656.798 527.411 L 616.873 488.988 L 547.014 561.577 L 586.938 600 Z  M 617.01 496.111 L 649.675 527.547 L 586.802 592.878 L 554.137 561.441 L 617.01 496.111 Z " fill="rgb(56,142,60)"/><path d=" M 577.455 569.9 C 575.452 567.973 575.391 564.781 577.319 562.778 C 579.247 560.775 582.438 560.714 584.441 562.641 C 586.444 564.569 586.505 567.761 584.578 569.764 C 582.65 571.767 579.458 571.828 577.455 569.9 Z " fill="rgb(56,142,60)"/><path d=" M 619.371 526.347 C 617.368 524.419 617.306 521.228 619.234 519.224 C 621.162 517.221 624.353 517.16 626.357 519.088 C 628.36 521.016 628.421 524.207 626.493 526.21 C 624.565 528.213 621.374 528.275 619.371 526.347 Z " fill="rgb(56,142,60)"/><path d=" M 589.681 557.197 C 582.67 550.45 582.455 539.28 589.203 532.269 C 595.95 525.258 607.12 525.044 614.131 531.791 C 621.142 538.538 621.356 549.708 614.609 556.719 C 607.862 563.731 596.692 563.945 589.681 557.197 Z " fill="rgb(56,142,60)"/><path d=" M 609.57 500.209 C 609.69 502.07 610.499 503.819 611.839 505.116 C 614.845 508.01 619.629 507.918 622.522 504.911 C 623.871 503.51 624.542 501.723 624.602 499.921 L 616.942 492.549 L 609.57 500.209 Z  M 557.947 553.849 L 550.576 561.509 L 558.236 568.881 C 560.096 568.761 561.845 567.952 563.142 566.612 C 566.036 563.605 565.944 558.822 562.937 555.929 C 561.536 554.58 559.749 553.909 557.947 553.849 Z  M 594.242 588.779 C 594.122 586.918 593.313 585.169 591.973 583.872 C 588.966 580.979 584.183 581.07 581.289 584.077 C 579.941 585.478 579.27 587.265 579.21 589.067 L 586.87 596.439 L 594.242 588.779 Z  M 653.236 527.479 L 645.576 520.107 C 643.716 520.227 641.966 521.036 640.67 522.376 C 637.776 525.383 637.868 530.166 640.874 533.06 C 642.275 534.408 644.062 535.079 645.864 535.139 L 653.236 527.479 Z " fill="rgb(56,142,60)"/></g><path d=" M 540.06 509.641 C 540.06 509.641 527.192 573.956 604.401 573.956 C 608.504 573.956 643.014 573.956 643.014 561.122 C 617.278 561.122 578.673 548.254 578.673 522.518 C 578.673 509.649 574.201 496.54 574.201 496.54 L 540.06 509.641 Z  M 692.948 505.779 C 686.195 515.903 690.754 536.728 668.82 568.847 C 675.168 580.003 713.549 543.385 723.183 508.265 C 730.305 484.515 703.631 489.822 692.948 505.779 Z " fill="rgb(0,209,83)"/><path d=" M 744.016 491.732 C 744.016 491.732 787.025 541.295 719.931 579.504 C 716.362 581.517 686.359 598.583 680.011 587.401 C 702.384 574.67 729.574 544.392 716.835 522.045 C 710.487 510.862 707.863 497.28 707.863 497.28 L 744.016 491.732 Z  M 677.421 324.54 C 677.421 324.54 672.854 315.904 660.218 315.904 C 648.391 315.904 638.98 315.938 625.811 315.938 C 612.642 315.938 608.608 324.54 608.608 324.54 C 574.201 367.514 531.192 367.514 531.192 401.956 C 531.192 444.93 573.564 470.77 625.811 470.77 L 660.218 470.77 C 712.465 470.77 754.837 444.964 754.837 401.956 C 754.837 367.514 711.828 367.514 677.421 324.54 Z " fill="rgb(0,209,83)"/><path d=" M 760.282 478.494 C 759.645 486.063 757.762 498.45 751.981 504.205 C 726.176 512.806 717.574 487.001 717.574 487.001 C 717.574 487.001 723.355 477.083 730.176 468.791 C 734.907 475.578 744.223 483.672 760.282 478.494 Z  M 555.853 476.584 C 562.674 484.911 568.455 494.82 568.455 494.82 C 568.455 494.82 559.853 520.625 534.048 512.024 C 528.302 506.252 526.392 493.857 525.79 486.296 C 541.806 491.465 551.113 483.371 555.853 476.576 L 555.853 476.584 Z  M 608.608 436.337 L 643.014 315.912 L 677.421 436.337 L 668.82 470.744 L 617.209 470.744 L 608.608 436.337 Z " fill="rgb(0,169,68)"/></g></g><path d=" M 853.691 340.309 L 860.586 292.049 L 908.846 285.154 L 901.951 333.414 L 853.691 340.309 Z  M 1074.309 119.691 L 1026.049 126.586 L 1019.154 174.846 L 1067.414 167.951 L 1074.309 119.691 Z  M 1074.309 340.309 L 1026.049 333.414 L 1019.154 285.154 L 1067.414 292.049 L 1074.309 340.309 Z  M 853.691 119.691 L 860.586 167.951 L 908.846 174.846 L 901.951 126.586 L 853.691 119.691 Z  M 808 230 L 847 200.75 L 886 230 L 847 259.25 L 808 230 Z  M 1120 230 L 1081 200.75 L 1042 230 L 1081 259.25 L 1120 230 Z  M 964 386 L 934.75 347 L 964 308 L 993.25 347 L 964 386 Z  M 964 167.951 L 917.464 230 L 964 292.049 L 1010.536 230 L 964 167.951 Z  M 964 74 L 934.75 113 L 964 152 L 993.25 113 L 964 74 Z " fill-rule="evenodd" fill="rgb(255,106,106)"/></g><g><g><rect x="80" y="600" width="312" height="312" transform="matrix(1,0,0,1,0,0)" fill="rgb(116,198,184)"/><g><g><path d=" M 188.002 912 L 186.01 857.303 C 195.562 850.63 206.032 846.156 217.486 843.813 L 236.289 900.26 L 255.091 843.813 C 266.546 846.156 277.015 850.63 286.568 857.303 L 284.576 912 L 188.002 912 Z " fill="rgb(240,238,240)"/><path d=" M 236.289 900.288 L 216.797 844.565 L 255.164 844.565 L 236.289 900.288 Z " fill="rgb(116,198,184)"/><path d=" M 284.576 912 L 286.568 857.303 C 277.015 850.63 266.546 846.156 255.091 843.813 L 236.694 899.044 L 236.694 912 L 284.576 912 Z " fill="rgb(230,228,230)"/><path d=" M 236.289 900.288 L 210.894 861.283 L 213.475 856.179 L 208.813 854.344 L 208.152 845.888 C 209.056 845.443 212.157 844.574 217.413 843.242 L 236.289 900.288 Z " fill="rgb(255,255,255)"/><path d=" M 236.289 900.288 L 261.683 861.283 L 259.103 856.179 L 263.765 854.344 L 264.426 845.888 C 263.522 845.443 260.421 844.574 255.164 843.242 L 236.289 900.288 Z " fill="rgb(255,255,255)"/><path d=" M 310.869 912 L 310.869 868.124 C 310.869 859.38 303.77 852.281 295.027 852.281 C 286.283 852.281 279.184 859.38 279.184 868.124 L 279.184 912 L 310.869 912 Z " fill="rgb(230,228,230)"/><path d=" M 192.816 912 L 192.816 868.124 C 192.816 859.38 185.717 852.281 176.973 852.281 C 168.23 852.281 161.131 859.38 161.131 868.124 L 161.131 912 L 192.816 912 Z " fill="rgb(240,238,240)"/></g><g><g><path d=" M 255.164 826.043 L 216.797 826.043 L 216.797 844.565 C 228.95 847.954 241.766 847.98 255.164 844.565 L 255.164 826.043 Z " fill="rgb(255,225,198)"/></g><g><path d=" M 271.446 763.165 C 271.446 756.236 277.071 750.611 283.999 750.611 C 290.929 750.611 296.554 756.236 296.554 763.165 C 296.554 770.094 290.929 775.719 283.999 775.719 C 277.071 775.719 271.446 770.094 271.446 763.165 Z  M 175.407 763.165 C 175.407 756.236 181.033 750.611 187.962 750.611 C 194.89 750.611 200.515 756.236 200.515 763.165 C 200.515 770.094 194.89 775.719 187.962 775.719 C 181.033 775.719 175.407 770.094 175.407 763.165 Z " fill-rule="evenodd" fill="rgb(255,228,204)"/></g><g><path d=" M 192.371 760.243 C 181.393 745.361 176.031 727.606 176.247 706.938 C 178.125 708.412 180.217 708.85 182.449 708.179 C 181.897 696.907 183.563 687.824 187.41 680.892 C 190.172 682.682 192.665 685.175 194.852 688.334 C 199.521 681.173 205.735 674.571 213.456 668.489 C 214.668 673.574 218.266 677.721 224.213 680.892 C 230.148 672.594 232.776 666.405 232.061 662.287 C 242.583 666.332 250.451 672.546 255.627 680.892 C 259.243 677.95 262.151 673.828 264.314 668.489 C 270.914 673.152 275.886 680.607 279.192 690.814 L 285.394 680.892 C 289.727 685.66 290.566 696.008 287.875 709.419 L 295.316 704.458 C 297.307 718.207 291.944 736.298 279.192 758.694 C 249.146 790.073 220.218 790.602 192.371 760.243 Z " fill="rgb(255,255,255)"/></g><g><path d=" M 286.197 751.711 L 286.197 791.378 C 286.197 819.093 263.696 841.594 235.981 841.594 L 235.981 841.594 C 208.266 841.594 185.765 819.093 185.765 791.378 L 185.765 750.264 C 185.765 724.223 206.905 703.385 232.944 703.76 L 239.018 703.847 C 265.057 704.223 286.197 725.669 286.197 751.711 Z " fill="rgb(255,225,198)"/></g><g><path d=" M 253.741 736.802 L 272.202 736.802 C 275.422 736.802 278.036 739.416 278.036 742.636 L 278.036 743.521 C 278.036 746.741 275.422 749.356 272.202 749.356 L 253.741 749.356 C 250.521 749.356 247.907 746.741 247.907 743.521 L 247.907 742.636 C 247.907 739.416 250.521 736.802 253.741 736.802 Z  M 199.759 736.802 L 218.22 736.802 C 221.44 736.802 224.055 739.416 224.055 742.636 L 224.055 743.521 C 224.055 746.741 221.44 749.356 218.22 749.356 L 199.759 749.356 C 196.539 749.356 193.925 746.741 193.925 743.521 L 193.925 742.636 C 193.925 739.416 196.539 736.802 199.759 736.802 Z " fill-rule="evenodd" fill="rgb(11,45,61)"/></g><g><circle vector-effect="non-scaling-stroke" cx="235.98058096417176" cy="804.0120877952763" r="10.038108112430194" fill="rgb(246,145,120)"/></g><g><path d=" M 235.535 789.804 C 239.076 789.803 242.605 787.588 242.605 787.764 C 242.605 802.891 228.556 814.132 213.43 814.132 C 204.883 814.132 194.85 803.63 189.838 797.479 C 203.917 797.166 220.566 798.213 228.553 787.764 C 229.274 787.843 232.409 789.806 235.535 789.804 Z " fill="rgb(255,255,255)"/><path d=" M 235.623 789.804 C 232.082 789.803 228.553 787.588 228.553 787.764 C 228.553 802.891 242.601 814.132 257.729 814.132 C 266.274 814.132 276.308 803.63 281.32 797.479 C 267.24 797.166 250.592 798.213 242.605 787.764 C 241.884 787.843 238.749 789.806 235.623 789.804 Z " fill="rgb(255,255,255)"/></g><g><path d=" M 225.312 779.998 C 225.31 780.034 225.31 780.07 225.31 780.107 C 225.31 785.996 230.091 790.778 235.981 790.778 C 241.87 790.778 246.651 785.996 246.651 780.107 C 246.651 780.07 246.651 780.034 246.65 779.998 C 244.76 785.039 240.691 788.531 235.981 788.531 C 231.271 788.531 227.202 785.039 225.312 779.998 Z " fill="rgb(248,146,113)"/></g><g><circle vector-effect="non-scaling-stroke" cx="208.73795219619802" cy="764.165076835647" r="16.204046547129167" fill="rgb(116,198,184)"/><circle vector-effect="non-scaling-stroke" cx="263.2209900368637" cy="764.165076835647" r="16.204046547129167" fill="rgb(116,198,184)"/><path d=" M 278.731 764.165 C 278.731 755.605 271.781 748.655 263.221 748.655 C 254.661 748.655 247.711 755.605 247.711 764.165 C 247.711 772.725 254.661 779.675 263.221 779.675 C 271.781 779.675 278.731 772.725 278.731 764.165 L 278.731 764.165 Z  M 193.228 764.165 C 193.228 772.725 200.178 779.675 208.738 779.675 C 217.298 779.675 224.248 772.725 224.248 764.165 C 224.248 755.605 217.298 748.655 208.738 748.655 C 200.178 748.655 193.228 755.605 193.228 764.165 L 193.228 764.165 Z  M 245.763 755.118 C 249.032 748.804 255.627 744.492 263.221 744.492 C 273.222 744.492 281.489 751.97 282.733 761.634 L 282.733 761.634 L 286.568 761.634 L 286.568 765.643 L 282.84 765.643 C 282.083 775.812 273.582 783.839 263.221 783.839 C 252.363 783.839 243.548 775.023 243.548 764.165 C 243.548 762.275 243.815 760.446 244.324 758.72 C 241.748 757.51 238.872 756.837 235.84 756.837 C 232.903 756.837 230.112 757.468 227.6 758.607 C 228.132 760.366 228.411 762.233 228.411 764.165 C 228.411 775.023 219.596 783.839 208.738 783.839 C 198.377 783.839 189.876 775.812 189.119 765.643 L 185.391 765.643 L 185.391 761.634 L 189.226 761.634 L 189.226 761.634 C 190.469 751.97 198.737 744.492 208.738 744.492 C 216.282 744.492 222.841 748.747 226.129 754.995 C 229.007 753.398 232.318 752.492 235.84 752.492 C 239.449 752.492 242.837 753.444 245.763 755.118 Z " fill-rule="evenodd" fill="rgb(157,127,102)"/></g></g></g><path d=" M 140.035 719.941 L 139.835 720.237 L 116.3 704.368 L 116.3 704.368 Q 107.685 698.559 104.391 692.203 L 104.391 692.203 L 104.391 692.203 Q 98.627 681.081 104.575 672.259 L 104.575 672.259 L 104.575 672.259 Q 110.544 663.408 122.996 664.612 L 122.996 664.612 L 122.996 664.612 Q 130.122 665.284 138.737 671.093 L 138.737 671.093 L 138.737 671.093 Q 147.204 676.802 150.646 683.257 L 150.646 683.257 L 150.646 683.257 Q 155.471 692.324 153.329 700.225 L 153.329 700.225 L 153.13 700.521 L 147.222 699.767 L 147.222 699.767 Q 148.288 692.821 144.903 686.792 L 144.903 686.792 L 144.903 686.792 Q 142.323 682.124 134.745 677.013 L 134.745 677.013 L 134.745 677.013 Q 127.225 671.943 121.871 671.261 L 121.871 671.261 L 121.871 671.261 Q 113.321 670.147 109.608 675.653 L 109.608 675.653 L 109.608 675.653 Q 105.895 681.159 110.134 688.668 L 110.134 688.668 L 110.134 688.668 Q 112.773 693.376 120.292 698.447 L 120.292 698.447 L 141.163 712.52 L 140.035 719.941 Z  M 187.917 653.199 L 188.213 652.999 L 188.213 652.999 Q 189.577 656.171 189.84 659.051 L 189.84 659.051 L 189.84 659.051 Q 190.692 668.425 184.091 672.877 L 184.091 672.877 L 184.091 672.877 Q 177.578 677.269 169.148 673.006 L 169.148 673.006 L 169.148 673.006 Q 164.441 670.624 160.248 664.408 L 160.248 664.408 L 160.248 664.408 Q 156.116 658.28 155.612 652.935 L 155.612 652.935 L 155.612 652.935 Q 154.701 643.601 161.332 639.129 L 161.332 639.129 L 161.332 639.129 Q 167.933 634.677 176.255 638.971 L 176.255 638.971 L 176.255 638.971 Q 178.311 640.039 180.39 641.91 L 180.39 641.91 L 172.643 667.461 L 172.643 667.461 Q 177.322 670.12 180.756 667.804 L 180.756 667.804 L 180.756 667.804 Q 184.101 665.548 183.39 660.343 L 183.39 660.343 L 187.917 653.199 Z  M 167.765 662.654 L 167.765 662.654 L 172.689 644.476 L 172.689 644.476 Q 168.13 641.866 164.726 644.162 L 164.726 644.162 L 164.726 644.162 Q 161.381 646.418 162.032 651.663 L 162.032 651.663 L 162.032 651.663 Q 162.456 654.909 166.169 660.415 L 166.169 660.415 L 166.169 660.415 Q 166.987 661.629 167.765 662.654 Z  M 209.011 631.433 L 209.011 631.433 Q 208.217 634.559 209.6 641.055 L 209.6 641.055 L 209.6 641.055 Q 210.984 647.55 213.026 650.109 L 213.026 650.109 L 213.026 650.109 Q 216.312 654.228 220.293 653.38 L 220.293 653.38 L 220.293 653.38 Q 224.275 652.532 225.598 647.431 L 225.598 647.431 L 225.598 647.431 Q 226.447 644.22 225.071 637.76 L 225.071 637.76 L 225.071 637.76 Q 223.695 631.299 221.61 628.713 L 221.61 628.713 L 221.61 628.713 Q 218.359 624.587 214.343 625.442 L 214.343 625.442 L 214.343 625.442 Q 210.326 626.298 209.011 631.433 L 209.011 631.433 Z  M 202.616 642.543 L 202.616 642.543 L 202.616 642.543 Q 201.069 635.279 202.608 630.168 L 202.608 630.168 L 202.608 630.168 Q 205.255 621.172 213.078 619.505 L 213.078 619.505 L 213.078 619.505 Q 220.901 617.839 226.984 624.976 L 226.984 624.976 L 226.984 624.976 Q 230.523 629.078 232.055 636.272 L 232.055 636.272 L 232.055 636.272 Q 233.61 643.571 232.062 648.646 L 232.062 648.646 L 232.062 648.646 Q 229.346 657.658 221.558 659.317 L 221.558 659.317 L 221.558 659.317 Q 213.875 660.953 207.652 653.846 L 207.652 653.846 L 207.652 653.846 Q 204.178 649.876 202.616 642.543 Z  M 274.759 630.963 L 292.418 634.425 L 291.834 637.404 L 291.834 637.404 Q 289.835 647.6 285.263 653.107 L 285.263 653.107 L 285.263 653.107 Q 277.295 662.752 266.819 660.698 L 266.819 660.698 L 266.819 660.698 Q 256.377 658.651 252.607 646.705 L 252.607 646.705 L 252.607 646.705 Q 250.452 639.879 252.451 629.683 L 252.451 629.683 L 252.451 629.683 Q 254.45 619.486 259.023 613.979 L 259.023 613.979 L 259.023 613.979 Q 267.025 604.341 277.466 606.388 L 277.466 606.388 L 277.466 606.388 Q 287.943 608.442 291.678 620.381 L 291.678 620.381 L 285.466 622.001 L 285.116 621.933 L 285.116 621.933 Q 282.816 613.623 276.298 612.345 L 276.298 612.345 L 276.298 612.345 Q 269.851 611.081 264.513 617.894 L 264.513 617.894 L 264.513 617.894 Q 261.203 622.157 259.459 631.057 L 259.459 631.057 L 259.459 631.057 Q 257.693 640.061 259.169 645.154 L 259.169 645.154 L 259.169 645.154 Q 261.575 653.484 267.987 654.742 L 267.987 654.742 L 267.987 654.742 Q 274.469 656.012 279.772 649.193 L 279.772 649.193 L 279.772 649.193 Q 282.503 645.653 284.173 638.994 L 284.173 638.994 L 270.963 636.405 L 271.032 636.054 L 274.759 630.963 Z  M 327.503 675.997 L 327.799 676.197 L 327.799 676.197 Q 325.37 678.65 322.798 679.973 L 322.798 679.973 L 322.798 679.973 Q 314.426 684.275 307.825 679.823 L 307.825 679.823 L 307.825 679.823 Q 301.313 675.43 302.106 666.017 L 302.106 666.017 L 302.106 666.017 Q 302.551 660.761 306.743 654.544 L 306.743 654.544 L 306.743 654.544 Q 310.876 648.417 315.643 645.947 L 315.643 645.947 L 315.643 645.947 Q 323.955 641.604 330.586 646.077 L 330.586 646.077 L 330.586 646.077 Q 337.187 650.529 336.325 659.853 L 336.325 659.853 L 336.325 659.853 Q 336.105 662.159 335.15 664.788 L 335.15 664.788 L 308.557 667.18 L 308.557 667.18 Q 307.845 672.514 311.279 674.83 L 311.279 674.83 L 311.279 674.83 Q 314.624 677.086 319.183 674.477 L 319.183 674.477 L 327.503 675.997 Z  M 311.185 660.857 L 311.185 660.857 L 329.885 658.61 L 329.885 658.61 Q 330.596 653.405 327.192 651.109 L 327.192 651.109 L 327.192 651.109 Q 323.847 648.853 319.228 651.423 L 319.228 651.423 L 319.228 651.423 Q 316.377 653.031 312.664 658.537 L 312.664 658.537 L 312.664 658.537 Q 311.845 659.751 311.185 660.857 Z  M 325.854 697.481 L 325.64 697.195 L 342.519 684.59 L 342.519 684.59 Q 348.47 680.146 353.756 679.407 L 353.756 679.407 L 353.756 679.407 Q 363.035 678.048 367.82 684.456 L 367.82 684.456 L 367.82 684.456 Q 372.606 690.864 368.668 699.376 L 368.668 699.376 L 368.668 699.376 Q 366.423 704.306 360.529 708.707 L 360.529 708.707 L 360.529 708.707 Q 355.037 712.809 349.293 713.889 L 349.293 713.889 L 349.293 713.889 Q 342.199 715.31 336.579 711.842 L 336.579 711.842 L 336.365 711.556 L 339.026 706.227 L 339.026 706.227 Q 342.841 708.77 347.692 707.509 L 347.692 707.509 L 347.692 707.509 Q 351.565 706.489 356.257 702.985 L 356.257 702.985 L 356.257 702.985 Q 361.549 699.033 363.026 696.058 L 363.026 696.058 L 363.026 696.058 Q 365.393 691.349 362.957 688.088 L 362.957 688.088 L 362.957 688.088 Q 360.521 684.827 355.335 685.759 L 355.335 685.759 L 355.335 685.759 Q 352.085 686.359 346.792 690.311 L 346.792 690.311 L 332.488 700.994 L 325.854 697.481 Z " fill-rule="evenodd" fill="rgb(255,255,255)"/></g><g><rect x="444" y="814" width="312" height="312" transform="matrix(1,0,0,1,0,0)" fill="rgb(85,29,29)"/><g><linearGradient id="_lgradient_2" x1="0.5" y1="1.0272460010040074" x2="0.49999999999999983" y2="-0.017184037482943282" gradientTransform="matrix(222.703,0,0,252.03,488.648,844.503)" gradientUnits="userSpaceOnUse"><stop offset="2.608695652173913%" stop-opacity="1" style="stop-color:rgb(170,128,3)"/><stop offset="16.521741363215295%" stop-opacity="0.9999999999999999" style="stop-color:rgb(255,193,7)"/><stop offset="85.32608695652173%" stop-opacity="1" style="stop-color:rgb(255,227,145)"/><stop offset="100%" stop-opacity="1" style="stop-color:rgb(255,255,255)"/></linearGradient><path d=" M 648.372 1051.427 C 648.581 1050.871 648.789 1050.329 648.997 1049.785 C 649.178 1049.322 649.36 1048.856 649.539 1048.402 C 649.718 1047.94 649.895 1047.49 650.071 1047.044 L 650.078 1047.044 C 656.493 1030.931 662.218 1019.368 665.402 1003.74 L 535.191 1003.74 C 539.441 1022.112 547.319 1037.984 555.452 1061.88 C 556.237 1062.91 556.697 1064.199 556.697 1065.602 L 556.697 1090.347 C 556.697 1093.78 553.944 1096.533 550.51 1096.533 L 507.207 1096.533 C 503.774 1096.533 501.021 1093.78 501.021 1090.347 L 501.021 1065.602 C 501.021 1062.169 503.774 1059.416 507.207 1059.416 L 513.254 1059.416 C 500.536 1032.49 488.648 1000.241 488.648 969.982 C 488.648 906.674 526.421 854.198 581.441 844.503 L 581.441 896.824 C 553.188 905.248 534.716 932.876 532.237 966.623 L 667.763 966.623 C 665.284 932.876 646.812 905.248 618.559 896.824 L 618.559 844.503 C 673.579 854.198 711.352 906.674 711.352 969.982 C 711.352 1000.241 699.464 1032.49 686.746 1059.416 L 692.793 1059.416 C 696.226 1059.416 698.979 1062.169 698.979 1065.602 L 698.979 1090.347 C 698.979 1093.78 696.226 1096.533 692.793 1096.533 L 649.49 1096.533 C 646.056 1096.533 643.303 1093.78 643.303 1090.347 L 643.303 1065.602 C 643.303 1064.198 643.764 1062.907 644.553 1061.878 C 645.837 1058.145 647.116 1054.671 648.372 1051.427 Z  M 638.664 867.644 C 641.226 867.644 643.303 869.721 643.303 872.283 C 643.303 880.016 634.024 886.202 634.024 886.202 C 634.024 886.202 624.745 880.208 624.745 872.283 C 624.745 869.721 626.822 867.644 629.384 867.644 C 631.946 867.644 634.024 871.269 634.024 873.83 C 634.024 871.269 636.103 867.644 638.664 867.644 Z  M 683.514 1003.74 C 683.514 1003.74 691.478 1009.228 691.467 1013.062 C 691.467 1013.115 691.457 1013.155 691.457 1013.195 C 691.457 1013.237 691.467 1013.279 691.467 1013.309 C 691.467 1015.35 689.686 1016.996 687.491 1016.996 C 686.207 1016.996 685.099 1016.405 684.373 1015.525 C 684.892 1017.93 685.659 1021.315 686.165 1022.299 L 680.862 1022.299 C 681.369 1021.326 682.117 1017.969 682.634 1015.546 C 681.91 1016.405 680.809 1016.996 679.537 1016.996 C 677.342 1016.996 675.56 1015.35 675.56 1013.311 C 675.56 1013.269 675.571 1013.226 675.571 1013.187 C 675.571 1013.134 675.56 1013.091 675.56 1013.041 C 675.571 1009.197 683.514 1003.74 683.514 1003.74 Z  M 671.141 898.575 L 678.101 907.854 L 671.141 917.133 L 664.182 907.854 L 671.141 898.575 Z  M 689.7 948.064 C 691.401 948.064 692.793 949.456 692.793 951.158 C 692.793 952.754 691.97 954.708 691.151 956.317 C 692.539 955.327 694.364 954.251 695.886 954.251 C 697.587 954.251 698.979 955.643 698.979 957.344 C 698.979 959.045 697.587 960.437 695.886 960.437 C 693.637 960.437 691.658 959.41 690.411 958.674 C 690.86 960.474 692.082 965.247 692.793 966.623 L 686.607 966.623 C 687.318 965.259 688.494 960.57 688.964 958.708 C 687.671 959.435 685.663 960.437 683.514 960.437 C 681.813 960.437 680.421 959.045 680.421 957.344 C 680.421 955.643 681.813 954.251 683.514 954.251 C 685.085 954.251 686.802 955.206 688.116 956.137 C 687.355 954.613 686.607 952.729 686.607 951.158 C 686.607 949.456 687.999 948.064 689.7 948.064 Z  M 561.336 867.644 C 558.774 867.644 556.697 869.721 556.697 872.283 C 556.697 880.016 565.976 886.202 565.976 886.202 C 565.976 886.202 575.255 880.208 575.255 872.283 C 575.255 869.721 573.178 867.644 570.616 867.644 C 568.054 867.644 565.976 871.269 565.976 873.83 C 565.976 871.269 563.897 867.644 561.336 867.644 Z  M 516.486 1003.74 C 516.486 1003.74 508.522 1009.228 508.533 1013.062 C 508.533 1013.115 508.543 1013.155 508.543 1013.195 C 508.543 1013.237 508.533 1013.279 508.533 1013.309 C 508.533 1015.35 510.314 1016.996 512.509 1016.996 C 513.793 1016.996 514.901 1016.405 515.627 1015.525 C 515.108 1017.93 514.341 1021.315 513.835 1022.299 L 519.138 1022.299 C 518.631 1021.326 517.883 1017.969 517.366 1015.546 C 518.09 1016.405 519.191 1016.996 520.463 1016.996 C 522.658 1016.996 524.44 1015.35 524.44 1013.311 C 524.44 1013.269 524.429 1013.226 524.429 1013.187 C 524.429 1013.134 524.44 1013.091 524.44 1013.041 C 524.429 1009.197 516.486 1003.74 516.486 1003.74 Z  M 528.859 898.575 L 521.899 907.854 L 528.859 917.133 L 535.818 907.854 L 528.859 898.575 Z  M 510.3 948.064 C 508.599 948.064 507.207 949.456 507.207 951.158 C 507.207 952.754 508.03 954.708 508.849 956.317 C 507.461 955.327 505.636 954.251 504.114 954.251 C 502.413 954.251 501.021 955.643 501.021 957.344 C 501.021 959.045 502.413 960.437 504.114 960.437 C 506.363 960.437 508.342 959.41 509.589 958.674 C 509.14 960.474 507.918 965.247 507.207 966.623 L 513.393 966.623 C 512.682 965.259 511.506 960.57 511.036 958.708 C 512.329 959.435 514.337 960.437 516.486 960.437 C 518.187 960.437 519.579 959.045 519.579 957.344 C 519.579 955.643 518.187 954.251 516.486 954.251 C 514.915 954.251 513.198 955.206 511.884 956.137 C 512.645 954.613 513.393 952.729 513.393 951.158 C 513.393 949.456 512.001 948.064 510.3 948.064 Z " fill-rule="evenodd" fill="url(#_lgradient_2)"/><path d=" M 644.485 1062.169 C 645.589 1060.473 647.466 1059.44 649.49 1059.416 L 686.731 1059.416 C 688.636 1055.407 690.498 1051.275 692.311 1047.044 L 650.071 1047.044 C 648.259 1051.634 646.372 1056.632 644.485 1062.169 Z  M 550.51 1059.416 C 552.545 1059.451 554.43 1060.494 555.54 1062.2 C 553.815 1057.116 552.001 1052.063 550.096 1047.044 L 507.671 1047.044 C 509.508 1051.275 511.37 1055.407 513.257 1059.416 L 550.51 1059.416 Z " fill="rgb(201,140,6)"/></g></g><g><path d=" M 872.124 883.324 L 870.91 855.945 L 843.562 856.449 L 849.181 829.628 L 822.568 823.302 L 834.667 798.723 L 810.46 785.965 L 828.28 765.173 L 808 746.783 L 830.42 731.085 L 815.342 708.22 L 840.954 698.602 L 832.024 672.698 L 859.219 669.764 L 857 642.448 L 884.068 646.383 L 888.698 619.373 L 913.939 629.929 L 925.128 604.92 L 946.956 621.435 L 964 600 L 981.044 621.435 L 1002.872 604.92 L 1014.061 629.929 L 1039.302 619.373 L 1043.932 646.383 L 1071 642.448 L 1068.781 669.764 L 1095.976 672.698 L 1087.046 698.602 L 1112.658 708.22 L 1097.58 731.085 L 1120 746.783 L 1099.72 765.173 L 1117.54 785.965 L 1093.333 798.723 L 1105.432 823.302 L 1078.819 829.628 L 1084.438 856.449 L 1057.09 855.945 L 1055.876 883.324 L 1029.513 876.021 L 1021.541 902.237 L 997.819 888.594 L 983.591 912 L 964 892.875 L 944.409 912 L 930.181 888.594 L 906.459 902.237 L 898.487 876.021 L 872.124 883.324 Z " fill="rgb(255,164,164)"/><path d=" M 1071.378 749.366 C 1071.348 748.885 1071.509 748.411 1071.83 748.047 C 1072.15 747.69 1072.602 747.471 1073.083 747.442 C 1073.564 747.413 1074.046 747.573 1074.403 747.894 C 1074.767 748.215 1074.986 748.667 1075.015 749.148 C 1075.154 751.429 1075.227 753.711 1075.227 756 C 1075.227 766.279 1073.812 776.506 1071.013 786.398 C 1068.294 795.955 1064.307 805.104 1059.145 813.596 C 1058.898 814.004 1058.489 814.303 1058.023 814.42 C 1057.556 814.536 1057.061 814.456 1056.645 814.208 C 1056.23 813.953 1055.938 813.552 1055.821 813.078 C 1055.705 812.612 1055.785 812.116 1056.033 811.701 C 1061.019 803.493 1064.875 794.643 1067.507 785.399 C 1070.211 775.835 1071.582 765.943 1071.582 756 C 1071.582 753.791 1071.509 751.575 1071.378 749.366 Z  M 871.967 811.701 C 872.215 812.116 872.295 812.612 872.179 813.078 C 872.062 813.552 871.77 813.953 871.355 814.208 C 870.939 814.456 870.444 814.536 869.977 814.42 C 869.511 814.303 869.102 814.004 868.855 813.596 C 863.693 805.104 859.706 795.955 856.987 786.398 C 854.188 776.506 852.773 766.279 852.773 756 C 852.773 753.711 852.846 751.429 852.985 749.148 C 853.014 748.667 853.233 748.215 853.597 747.894 C 853.954 747.573 854.436 747.413 854.917 747.442 C 855.398 747.471 855.85 747.69 856.17 748.047 C 856.491 748.411 856.652 748.885 856.622 749.366 C 856.491 751.575 856.418 753.791 856.418 756 C 856.418 765.943 857.789 775.835 860.493 785.399 C 863.125 794.643 866.981 803.493 871.967 811.701 Z  M 871.577 836.885 L 866.874 831.182 L 882.993 817.89 L 887.232 823.031 L 887.232 823.031 Q 888.456 824.516 889.05 825.831 L 889.05 825.831 L 889.05 825.831 Q 889.643 827.146 889.674 828.283 L 889.674 828.283 L 889.674 828.283 Q 889.704 829.42 889.196 830.397 L 889.196 830.397 L 889.196 830.397 Q 888.688 831.373 887.709 832.18 L 887.709 832.18 L 887.709 832.18 Q 887.113 832.672 886.409 832.941 L 886.409 832.941 L 886.409 832.941 Q 885.705 833.21 884.922 833.223 L 884.922 833.223 L 884.922 833.223 Q 884.138 833.235 883.299 832.973 L 883.299 832.973 L 883.299 832.973 Q 882.459 832.711 881.592 832.141 L 881.592 832.141 L 881.592 832.141 Q 882.7 834.195 882.519 835.855 L 882.519 835.855 L 882.519 835.855 Q 882.339 837.516 880.832 838.759 L 880.832 838.759 L 880.832 838.759 Q 879.808 839.603 878.654 839.922 L 878.654 839.922 L 878.654 839.922 Q 877.5 840.24 876.294 840.016 L 876.294 840.016 L 876.294 840.016 Q 875.088 839.791 873.889 839.013 L 873.889 839.013 L 873.889 839.013 Q 872.69 838.235 871.577 836.885 L 871.577 836.885 L 871.577 836.885 Z  M 878.885 830.783 L 876.019 827.308 L 870.406 831.936 L 873.281 835.423 L 873.281 835.423 Q 874.051 836.357 874.817 836.85 L 874.817 836.85 L 874.817 836.85 Q 875.582 837.343 876.328 837.456 L 876.328 837.456 L 876.328 837.456 Q 877.073 837.569 877.774 837.331 L 877.774 837.331 L 877.774 837.331 Q 878.475 837.093 879.116 836.564 L 879.116 836.564 L 879.116 836.564 Q 880.365 835.534 880.362 834.053 L 880.362 834.053 L 880.362 834.053 Q 880.36 832.572 878.885 830.783 L 878.885 830.783 L 878.885 830.783 Z  M 883.072 821.492 L 877.571 826.027 L 879.946 828.907 L 879.946 828.907 Q 880.706 829.829 881.465 830.337 L 881.465 830.337 L 881.465 830.337 Q 882.224 830.845 882.951 830.993 L 882.951 830.993 L 882.951 830.993 Q 883.677 831.14 884.365 830.932 L 884.365 830.932 L 884.365 830.932 Q 885.053 830.724 885.66 830.223 L 885.66 830.223 L 885.66 830.223 Q 887.078 829.054 887.036 827.652 L 887.036 827.652 L 887.036 827.652 Q 886.995 826.25 885.511 824.45 L 885.511 824.45 L 883.072 821.492 L 883.072 821.492 Z  M 899.79 850.39 L 898.013 849.192 L 893.139 856.421 L 890.806 854.848 L 902.486 837.525 L 907.382 840.826 L 907.382 840.826 Q 909.026 841.935 909.998 843.074 L 909.998 843.074 L 909.998 843.074 Q 910.971 844.214 911.327 845.368 L 911.327 845.368 L 911.327 845.368 Q 911.683 846.522 911.458 847.663 L 911.458 847.663 L 911.458 847.663 Q 911.234 848.805 910.492 849.905 L 910.492 849.905 L 910.492 849.905 Q 909.873 850.823 909.045 851.426 L 909.045 851.426 L 909.045 851.426 Q 908.216 852.028 907.239 852.292 L 907.239 852.292 L 907.239 852.292 Q 906.261 852.555 905.167 852.469 L 905.167 852.469 L 905.167 852.469 Q 904.074 852.382 902.916 851.935 L 902.916 851.935 L 902.916 851.935 Q 903.18 852.482 903.192 853.194 L 903.192 853.194 L 903.607 863.479 L 901.528 862.077 L 901.528 862.077 Q 900.887 861.645 900.919 860.946 L 900.919 860.946 L 900.596 851.725 L 900.596 851.725 Q 900.586 851.296 900.43 851.006 L 900.43 851.006 L 900.43 851.006 Q 900.274 850.716 899.79 850.39 L 899.79 850.39 L 899.79 850.39 Z  M 903.572 840.948 L 899.162 847.488 L 901.616 849.142 L 901.616 849.142 Q 902.644 849.835 903.59 850.113 L 903.59 850.113 L 903.59 850.113 Q 904.537 850.391 905.369 850.292 L 905.369 850.292 L 905.369 850.292 Q 906.2 850.193 906.89 849.744 L 906.89 849.744 L 906.89 849.744 Q 907.58 849.295 908.093 848.533 L 908.093 848.533 L 908.093 848.533 Q 909.137 846.986 908.645 845.512 L 908.645 845.512 L 908.645 845.512 Q 908.153 844.037 906.135 842.676 L 906.135 842.676 L 903.572 840.948 L 903.572 840.948 Z  M 926.861 851.115 L 938.955 855.527 L 938.166 857.691 L 928.743 854.254 L 926.364 860.773 L 933.993 863.556 L 933.234 865.638 L 925.605 862.855 L 923.162 869.553 L 932.585 872.99 L 931.795 875.154 L 919.701 870.742 L 926.861 851.115 L 926.861 851.115 Z  M 954.37 879.008 L 948.01 858.068 L 950.357 858.085 L 950.357 858.085 Q 950.737 858.088 950.983 858.279 L 950.983 858.279 L 950.983 858.279 Q 951.229 858.471 951.315 858.763 L 951.315 858.763 L 955.521 873.316 L 955.521 873.316 Q 955.635 873.711 955.726 874.163 L 955.726 874.163 L 955.726 874.163 Q 955.818 874.616 955.901 875.112 L 955.901 875.112 L 955.901 875.112 Q 956.007 874.617 956.113 874.159 L 956.113 874.159 L 956.113 874.159 Q 956.218 873.7 956.352 873.322 L 956.352 873.322 L 961.374 858.838 L 961.374 858.838 Q 961.464 858.591 961.72 858.382 L 961.72 858.382 L 961.72 858.382 Q 961.977 858.172 962.341 858.175 L 962.341 858.175 L 963.158 858.181 L 963.158 858.181 Q 963.537 858.184 963.776 858.375 L 963.776 858.375 L 963.776 858.375 Q 964.015 858.567 964.115 858.859 L 964.115 858.859 L 968.89 873.416 L 968.89 873.416 Q 969.147 874.176 969.344 875.155 L 969.344 875.155 L 969.344 875.155 Q 969.435 874.674 969.511 874.237 L 969.511 874.237 L 969.511 874.237 Q 969.587 873.801 969.707 873.422 L 969.707 873.422 L 974.145 858.934 L 974.145 858.934 Q 974.22 858.672 974.477 858.47 L 974.477 858.47 L 974.477 858.47 Q 974.734 858.268 975.098 858.271 L 975.098 858.271 L 977.3 858.287 L 970.626 879.13 L 968.089 879.111 L 962.917 863.136 L 962.917 863.136 Q 962.76 862.683 962.633 862.085 L 962.633 862.085 L 962.633 862.085 Q 962.558 862.376 962.49 862.645 L 962.49 862.645 L 962.49 862.645 Q 962.423 862.914 962.348 863.132 L 962.348 863.132 L 956.907 879.027 L 954.37 879.008 L 954.37 879.008 Z  M 988.052 855.571 L 1000.352 851.773 L 1001.032 853.974 L 991.448 856.934 L 993.495 863.565 L 1001.255 861.169 L 1001.908 863.286 L 994.149 865.682 L 996.252 872.494 L 1005.837 869.535 L 1006.516 871.736 L 994.216 875.534 L 988.052 855.571 L 988.052 855.571 Z  M 1023.432 853.773 L 1021.599 854.885 L 1026.12 862.339 L 1023.714 863.798 L 1012.88 845.935 L 1017.929 842.873 L 1017.929 842.873 Q 1019.624 841.845 1021.067 841.439 L 1021.067 841.439 L 1021.067 841.439 Q 1022.509 841.033 1023.706 841.194 L 1023.706 841.194 L 1023.706 841.194 Q 1024.903 841.354 1025.845 842.036 L 1025.845 842.036 L 1025.845 842.036 Q 1026.787 842.718 1027.475 843.853 L 1027.475 843.853 L 1027.475 843.853 Q 1028.05 844.8 1028.25 845.804 L 1028.25 845.804 L 1028.25 845.804 Q 1028.449 846.808 1028.279 847.807 L 1028.279 847.807 L 1028.279 847.807 Q 1028.109 848.805 1027.572 849.762 L 1027.572 849.762 L 1027.572 849.762 Q 1027.035 850.718 1026.144 851.583 L 1026.144 851.583 L 1026.144 851.583 Q 1026.752 851.572 1027.403 851.859 L 1027.403 851.859 L 1036.916 855.792 L 1034.772 857.092 L 1034.772 857.092 Q 1034.111 857.493 1033.489 857.171 L 1033.489 857.171 L 1024.981 853.601 L 1024.981 853.601 Q 1024.588 853.43 1024.259 853.451 L 1024.259 853.451 L 1024.259 853.451 Q 1023.93 853.471 1023.432 853.773 L 1023.432 853.773 L 1023.432 853.773 Z  M 1016.443 846.383 L 1020.533 853.127 L 1023.064 851.592 L 1023.064 851.592 Q 1024.123 850.95 1024.772 850.206 L 1024.772 850.206 L 1024.772 850.206 Q 1025.422 849.463 1025.68 848.667 L 1025.68 848.667 L 1025.68 848.667 Q 1025.939 847.87 1025.82 847.056 L 1025.82 847.056 L 1025.82 847.056 Q 1025.701 846.241 1025.225 845.456 L 1025.225 845.456 L 1025.225 845.456 Q 1024.257 843.86 1022.712 843.689 L 1022.712 843.689 L 1022.712 843.689 Q 1021.168 843.517 1019.086 844.78 L 1019.086 844.78 L 1016.443 846.383 L 1016.443 846.383 Z  M 1045.358 818.482 L 1049.51 832.619 L 1055.66 838.209 L 1053.767 840.291 L 1047.618 834.702 L 1033.159 831.902 L 1034.826 830.068 L 1034.826 830.068 Q 1035.081 829.788 1035.368 829.754 L 1035.368 829.754 L 1035.368 829.754 Q 1035.656 829.719 1035.968 829.787 L 1035.968 829.787 L 1045.194 831.711 L 1045.194 831.711 Q 1045.768 831.838 1046.235 831.996 L 1046.235 831.996 L 1046.235 831.996 Q 1046.701 832.155 1047.133 832.33 L 1047.133 832.33 L 1047.133 832.33 Q 1046.906 831.908 1046.699 831.463 L 1046.699 831.463 L 1046.699 831.463 Q 1046.493 831.019 1046.322 830.47 L 1046.322 830.47 L 1043.519 821.48 L 1043.519 821.48 Q 1043.435 821.226 1043.431 820.916 L 1043.431 820.916 L 1043.431 820.916 Q 1043.426 820.607 1043.671 820.337 L 1043.671 820.337 L 1045.358 818.482 L 1045.358 818.482 Z  M 848.658 715.553 L 858.959 726.088 L 867.013 728.139 L 866.319 730.865 L 858.265 728.815 L 844.184 733.129 L 844.795 730.727 L 844.795 730.727 Q 844.889 730.36 845.126 730.194 L 845.126 730.194 L 845.126 730.194 Q 845.364 730.029 845.672 729.942 L 845.672 729.942 L 854.721 727.311 L 854.721 727.311 Q 855.288 727.155 855.774 727.075 L 855.774 727.075 L 855.774 727.075 Q 856.261 726.996 856.724 726.949 L 856.724 726.949 L 856.724 726.949 Q 856.326 726.682 855.935 726.387 L 855.935 726.387 L 855.935 726.387 Q 855.544 726.091 855.135 725.686 L 855.135 725.686 L 848.442 719.063 L 848.442 719.063 Q 848.248 718.878 848.099 718.607 L 848.099 718.607 L 848.099 718.607 Q 847.95 718.336 848.04 717.983 L 848.04 717.983 L 848.658 715.553 L 848.658 715.553 Z  M 878.802 683.293 L 878.802 683.293 L 878.802 683.293 Q 880.747 684.606 881.957 686.319 L 881.957 686.319 L 881.957 686.319 Q 883.167 688.032 883.581 689.947 L 883.581 689.947 L 883.581 689.947 Q 883.995 691.862 883.578 693.875 L 883.578 693.875 L 883.578 693.875 Q 883.16 695.889 881.872 697.798 L 881.872 697.798 L 881.872 697.798 Q 880.584 699.708 878.877 700.843 L 878.877 700.843 L 878.877 700.843 Q 877.17 701.978 875.24 702.311 L 875.24 702.311 L 875.24 702.311 Q 873.309 702.644 871.268 702.164 L 871.268 702.164 L 871.268 702.164 Q 869.226 701.684 867.28 700.371 L 867.28 700.371 L 867.28 700.371 Q 865.334 699.058 864.125 697.345 L 864.125 697.345 L 864.125 697.345 Q 862.915 695.632 862.495 693.713 L 862.495 693.713 L 862.495 693.713 Q 862.075 691.794 862.482 689.782 L 862.482 689.782 L 862.482 689.782 Q 862.889 687.771 864.178 685.861 L 864.178 685.861 L 864.178 685.861 Q 865.466 683.952 867.183 682.815 L 867.183 682.815 L 867.183 682.815 Q 868.899 681.678 870.836 681.349 L 870.836 681.349 L 870.836 681.349 Q 872.773 681.02 874.814 681.5 L 874.814 681.5 L 874.814 681.5 Q 876.856 681.98 878.802 683.293 Z  M 877.179 685.698 L 877.179 685.698 L 877.179 685.698 Q 875.584 684.622 874.021 684.201 L 874.021 684.201 L 874.021 684.201 Q 872.458 683.78 871.044 683.986 L 871.044 683.986 L 871.044 683.986 Q 869.63 684.193 868.392 685.011 L 868.392 685.011 L 868.392 685.011 Q 867.154 685.829 866.208 687.231 L 866.208 687.231 L 866.208 687.231 Q 865.27 688.621 864.975 690.075 L 864.975 690.075 L 864.975 690.075 Q 864.68 691.529 865.014 692.924 L 865.014 692.924 L 865.014 692.924 Q 865.348 694.319 866.324 695.61 L 866.324 695.61 L 866.324 695.61 Q 867.299 696.902 868.895 697.978 L 868.895 697.978 L 868.895 697.978 Q 870.49 699.054 872.047 699.471 L 872.047 699.471 L 872.047 699.471 Q 873.603 699.888 875.022 699.675 L 875.022 699.675 L 875.022 699.675 Q 876.44 699.463 877.672 698.641 L 877.672 698.641 L 877.672 698.641 Q 878.904 697.819 879.841 696.429 L 879.841 696.429 L 879.841 696.429 Q 880.787 695.027 881.088 693.577 L 881.088 693.577 L 881.088 693.577 Q 881.39 692.127 881.051 690.738 L 881.051 690.738 L 881.051 690.738 Q 880.713 689.349 879.744 688.062 L 879.744 688.062 L 879.744 688.062 Q 878.774 686.775 877.179 685.698 Z  M 900.383 666.738 L 898.666 668.02 L 903.883 675.006 L 901.628 676.69 L 889.127 659.95 L 893.858 656.417 L 893.858 656.417 Q 895.447 655.231 896.843 654.688 L 896.843 654.688 L 896.843 654.688 Q 898.239 654.146 899.446 654.19 L 899.446 654.19 L 899.446 654.19 Q 900.654 654.235 901.657 654.823 L 901.657 654.823 L 901.657 654.823 Q 902.66 655.412 903.454 656.475 L 903.454 656.475 L 903.454 656.475 Q 904.117 657.362 904.412 658.343 L 904.412 658.343 L 904.412 658.343 Q 904.708 659.323 904.634 660.333 L 904.634 660.333 L 904.634 660.333 Q 904.561 661.343 904.119 662.347 L 904.119 662.347 L 904.119 662.347 Q 903.676 663.351 902.872 664.297 L 902.872 664.297 L 902.872 664.297 Q 903.476 664.228 904.152 664.451 L 904.152 664.451 L 913.999 667.451 L 911.99 668.952 L 911.99 668.952 Q 911.37 669.414 910.721 669.153 L 910.721 669.153 L 901.909 666.417 L 901.909 666.417 Q 901.501 666.285 901.176 666.337 L 901.176 666.337 L 901.176 666.337 Q 900.85 666.389 900.383 666.738 L 900.383 666.738 L 900.383 666.738 Z  M 892.716 660.054 L 897.436 666.373 L 899.807 664.602 L 899.807 664.602 Q 900.8 663.861 901.375 663.059 L 901.375 663.059 L 901.375 663.059 Q 901.949 662.257 902.13 661.439 L 902.13 661.439 L 902.13 661.439 Q 902.311 660.622 902.115 659.822 L 902.115 659.822 L 902.115 659.822 Q 901.918 659.023 901.368 658.287 L 901.368 658.287 L 901.368 658.287 Q 900.252 656.792 898.698 656.77 L 898.698 656.77 L 898.698 656.77 Q 897.143 656.747 895.193 658.204 L 895.193 658.204 L 892.716 660.054 L 892.716 660.054 Z  M 927.248 639.869 L 929.949 648.617 L 930.966 648.303 L 930.966 648.303 Q 931.495 648.14 931.768 647.911 L 931.768 647.911 L 931.768 647.911 Q 932.04 647.682 932.22 647.275 L 932.22 647.275 L 936.542 637.701 L 936.542 637.701 Q 936.741 637.258 936.982 637.024 L 936.982 637.024 L 936.982 637.024 Q 937.222 636.79 937.668 636.652 L 937.668 636.652 L 939.967 635.942 L 935.014 646.886 L 935.014 646.886 Q 934.82 647.296 934.631 647.599 L 934.631 647.599 L 934.631 647.599 Q 934.443 647.901 934.193 648.131 L 934.193 648.131 L 934.193 648.131 Q 934.622 648.136 934.992 648.296 L 934.992 648.296 L 934.992 648.296 Q 935.362 648.457 935.798 648.734 L 935.798 648.734 L 946.659 655.742 L 944.318 656.464 L 944.318 656.464 Q 944.054 656.546 943.86 656.56 L 943.86 656.56 L 943.86 656.56 Q 943.666 656.574 943.512 656.545 L 943.512 656.545 L 943.512 656.545 Q 943.358 656.516 943.212 656.439 L 943.212 656.439 L 943.212 656.439 Q 943.066 656.362 942.916 656.271 L 942.916 656.271 L 933.573 650.474 L 933.573 650.474 Q 933.369 650.354 933.2 650.276 L 933.2 650.276 L 933.2 650.276 Q 933.031 650.199 932.831 650.169 L 932.831 650.169 L 932.831 650.169 Q 932.631 650.139 932.39 650.175 L 932.39 650.175 L 932.39 650.175 Q 932.15 650.211 931.815 650.314 L 931.815 650.314 L 930.59 650.693 L 933.411 659.831 L 930.722 660.661 L 924.559 640.699 L 927.248 639.869 L 927.248 639.869 Z  M 976.554 636.574 L 975.804 637.879 L 975.804 637.879 Q 975.662 638.091 975.511 638.193 L 975.511 638.193 L 975.511 638.193 Q 975.36 638.296 975.127 638.284 L 975.127 638.284 L 975.127 638.284 Q 974.88 638.272 974.564 638.008 L 974.564 638.008 L 974.564 638.008 Q 974.249 637.744 973.761 637.421 L 973.761 637.421 L 973.761 637.421 Q 973.273 637.098 972.579 636.816 L 972.579 636.816 L 972.579 636.816 Q 971.885 636.533 970.881 636.484 L 970.881 636.484 L 970.881 636.484 Q 969.934 636.437 969.193 636.656 L 969.193 636.656 L 969.193 636.656 Q 968.453 636.875 967.943 637.288 L 967.943 637.288 L 967.943 637.288 Q 967.434 637.701 967.158 638.278 L 967.158 638.278 L 967.158 638.278 Q 966.881 638.856 966.847 639.54 L 966.847 639.54 L 966.847 639.54 Q 966.804 640.414 967.205 641.01 L 967.205 641.01 L 967.205 641.01 Q 967.607 641.607 968.293 642.049 L 968.293 642.049 L 968.293 642.049 Q 968.979 642.492 969.86 642.834 L 969.86 642.834 L 969.86 642.834 Q 970.741 643.177 971.664 643.544 L 971.664 643.544 L 971.664 643.544 Q 972.588 643.91 973.463 644.355 L 973.463 644.355 L 973.463 644.355 Q 974.339 644.799 975.015 645.446 L 975.015 645.446 L 975.015 645.446 Q 975.691 646.092 976.077 647.002 L 976.077 647.002 L 976.077 647.002 Q 976.463 647.911 976.399 649.207 L 976.399 649.207 L 976.399 649.207 Q 976.332 650.576 975.807 651.754 L 975.807 651.754 L 975.807 651.754 Q 975.281 652.933 974.342 653.777 L 974.342 653.777 L 974.342 653.777 Q 973.403 654.621 972.074 655.066 L 972.074 655.066 L 972.074 655.066 Q 970.746 655.512 969.086 655.43 L 969.086 655.43 L 969.086 655.43 Q 967.062 655.33 965.431 654.513 L 965.431 654.513 L 965.431 654.513 Q 963.8 653.695 962.682 652.385 L 962.682 652.385 L 963.563 651.085 L 963.563 651.085 Q 963.688 650.931 963.861 650.83 L 963.861 650.83 L 963.861 650.83 Q 964.033 650.729 964.237 650.739 L 964.237 650.739 L 964.237 650.739 Q 964.543 650.754 964.92 651.101 L 964.92 651.101 L 964.92 651.101 Q 965.297 651.448 965.868 651.87 L 965.868 651.87 L 965.868 651.87 Q 966.438 652.293 967.259 652.661 L 967.259 652.661 L 967.259 652.661 Q 968.08 653.03 969.289 653.09 L 969.289 653.09 L 969.289 653.09 Q 970.294 653.139 971.094 652.901 L 971.094 652.901 L 971.094 652.901 Q 971.894 652.663 972.464 652.188 L 972.464 652.188 L 972.464 652.188 Q 973.035 651.713 973.361 651.028 L 973.361 651.028 L 973.361 651.028 Q 973.687 650.343 973.729 649.484 L 973.729 649.484 L 973.729 649.484 Q 973.776 648.538 973.376 647.912 L 973.376 647.912 L 973.376 647.912 Q 972.976 647.287 972.297 646.845 L 972.297 646.845 L 972.297 646.845 Q 971.618 646.402 970.737 646.074 L 970.737 646.074 L 970.737 646.074 Q 969.855 645.746 968.93 645.401 L 968.93 645.401 L 968.93 645.401 Q 968.006 645.057 967.13 644.619 L 967.13 644.619 L 967.13 644.619 Q 966.254 644.182 965.585 643.521 L 965.585 643.521 L 965.585 643.521 Q 964.917 642.861 964.534 641.901 L 964.534 641.901 L 964.534 641.901 Q 964.151 640.94 964.219 639.557 L 964.219 639.557 L 964.219 639.557 Q 964.273 638.45 964.754 637.437 L 964.754 637.437 L 964.754 637.437 Q 965.234 636.425 966.089 635.664 L 966.089 635.664 L 966.089 635.664 Q 966.944 634.903 968.169 634.482 L 968.169 634.482 L 968.169 634.482 Q 969.394 634.06 970.952 634.137 L 970.952 634.137 L 970.952 634.137 Q 972.7 634.223 974.114 634.848 L 974.114 634.848 L 974.114 634.848 Q 975.529 635.472 976.554 636.574 L 976.554 636.574 L 976.554 636.574 Z  M 1016.939 645.59 L 1009.785 665.219 L 1007.114 664.246 L 1010.369 655.314 L 999.794 651.461 L 996.539 660.392 L 993.868 659.418 L 1001.021 639.789 L 1003.693 640.762 L 1000.503 649.515 L 1011.078 653.369 L 1014.268 644.616 L 1016.939 645.59 L 1016.939 645.59 Z  M 1041.31 661.634 L 1028.811 678.375 L 1026.545 676.683 L 1039.044 659.942 L 1041.31 661.634 L 1041.31 661.634 Z  M 1053 691.82 L 1051.718 690.102 L 1044.732 695.318 L 1043.049 693.064 L 1059.789 680.564 L 1063.322 685.295 L 1063.322 685.295 Q 1064.508 686.884 1065.051 688.281 L 1065.051 688.281 L 1065.051 688.281 Q 1065.593 689.677 1065.548 690.884 L 1065.548 690.884 L 1065.548 690.884 Q 1065.503 692.091 1064.915 693.095 L 1064.915 693.095 L 1064.915 693.095 Q 1064.327 694.098 1063.264 694.892 L 1063.264 694.892 L 1063.264 694.892 Q 1062.376 695.554 1061.395 695.85 L 1061.395 695.85 L 1061.395 695.85 Q 1060.415 696.145 1059.405 696.072 L 1059.405 696.072 L 1059.405 696.072 Q 1058.395 695.998 1057.391 695.555 L 1057.391 695.555 L 1057.391 695.555 Q 1056.388 695.113 1055.442 694.309 L 1055.442 694.309 L 1055.442 694.309 Q 1055.51 694.913 1055.287 695.589 L 1055.287 695.589 L 1052.286 705.435 L 1050.786 703.426 L 1050.786 703.426 Q 1050.324 702.807 1050.584 702.157 L 1050.584 702.157 L 1053.321 693.345 L 1053.321 693.345 Q 1053.453 692.937 1053.401 692.612 L 1053.401 692.612 L 1053.401 692.612 Q 1053.349 692.287 1053 691.82 L 1053 691.82 L 1053 691.82 Z  M 1059.686 684.153 L 1053.365 688.872 L 1055.136 691.244 L 1055.136 691.244 Q 1055.878 692.237 1056.68 692.812 L 1056.68 692.812 L 1056.68 692.812 Q 1057.482 693.386 1058.299 693.567 L 1058.299 693.567 L 1058.299 693.567 Q 1059.117 693.748 1059.916 693.552 L 1059.916 693.552 L 1059.916 693.552 Q 1060.716 693.355 1061.452 692.806 L 1061.452 692.806 L 1061.452 692.806 Q 1062.947 691.689 1062.969 690.135 L 1062.969 690.135 L 1062.969 690.135 Q 1062.991 688.581 1061.535 686.63 L 1061.535 686.63 L 1059.686 684.153 L 1059.686 684.153 Z  M 1079.143 715.624 L 1082.938 727.925 L 1080.737 728.604 L 1077.78 719.02 L 1071.148 721.066 L 1073.542 728.826 L 1071.425 729.479 L 1069.031 721.719 L 1062.218 723.821 L 1065.176 733.406 L 1062.974 734.085 L 1059.179 721.784 L 1079.143 715.624 L 1079.143 715.624 Z " fill-rule="evenodd" fill="rgb(255,231,212)"/><circle vector-effect="non-scaling-stroke" cx="964.0000037924476" cy="756.0000000000011" r="81.19408368716" fill="rgb(238,238,238)"/><path d=" M 1032.453 799.659 C 1018.023 822.223 992.746 837.194 964 837.194 C 935.254 837.194 909.977 822.223 895.547 799.659 L 964 734.759 L 1032.453 799.659 Z " fill="rgb(255,164,164)"/><path d=" M 964 785.976 L 953.106 769.833 L 933.909 785.976 L 929.676 769.833 L 963.594 737.674 L 964 738.059 C 964 738.059 964 738.059 964 738.059 L 964.406 737.674 L 998.324 769.833 L 994.091 785.976 L 974.894 769.833 L 964 785.976 Z " fill="rgb(238,238,238)"/></g></g></g></svg>