<?xml version="1.0" standalone="no"?><!-- Generator: Gravit.io --><svg xmlns="http://www.w3.org/2000/svg" xmlns:xlink="http://www.w3.org/1999/xlink" style="isolation:isolate" viewBox="0 0 861 574" width="861" height="574"><defs><clipPath id="_clipPath_GlN0kwMLwQA888X2lTKHym1l5TFV4H5S"><rect width="861" height="574"/></clipPath></defs><g clip-path="url(#_clipPath_GlN0kwMLwQA888X2lTKHym1l5TFV4H5S)"><linearGradient id="_lgradient_8" x1="50.07610350076103%" y1="0%" x2="50.076103500761036%" y2="100.44009197678854%"><stop offset="0%" stop-opacity="1" style="stop-color:rgb(232,225,226)"/><stop offset="41.37044341330134%" stop-opacity="1" style="stop-color:rgb(230,207,208)"/><stop offset="99.56521739130434%" stop-opacity="1" style="stop-color:rgb(90,151,199)"/></linearGradient><rect x="0" y="0" width="861" height="574" transform="matrix(1,0,0,1,0,0)" fill="url(#_lgradient_8)"/><clipPath id="_clipPath_g6OBHdOonoKmHY8teFfvMdHMrBkEWfnz"><linearGradient id="_lgradient_8" x1="50.07610350076103%" y1="0%" x2="50.076103500761036%" y2="100.44009197678854%"><stop offset="0%" stop-opacity="1" style="stop-color:rgb(232,225,226)"/><stop offset="41.37044341330134%" stop-opacity="1" style="stop-color:rgb(230,207,208)"/><stop offset="99.56521739130434%" stop-opacity="1" style="stop-color:rgb(90,151,199)"/></linearGradient><rect x="0" y="0" width="861" height="574" transform="matrix(1,0,0,1,0,0)" fill="url(#_lgradient_8)"/></clipPath><g clip-path="url(#_clipPath_g6OBHdOonoKmHY8teFfvMdHMrBkEWfnz)"><g id="mountain"><linearGradient id="_lgradient_9" x1="49.79109531921418%" y1="8.680696136624189%" x2="49.79109531921422%" y2="102.02931786363058%"><stop offset="0.8695652173913043%" stop-opacity="1" style="stop-color:rgb(75,146,195)"/><stop offset="61.13828275299178%" stop-opacity="1" style="stop-color:rgb(104,164,209)"/><stop offset="76.20546213689157%" stop-opacity="1" style="stop-color:rgb(111,169,213)"/><stop offset="97.82608695652173%" stop-opacity="1" style="stop-color:rgb(75,146,195)"/></linearGradient><path d=" M 861.014 559.907 L 836.013 544.62 L 812.013 550.5 L 784.013 541.093 L 757.012 544.62 L 727.812 532.861 L 705.023 538.741 L 691.906 526.981 L 675.011 532.861 L 640.01 521.102 L 627.463 512.87 L 618.01 517.574 L 557.009 487 L 548.009 495.231 L 537.529 495.231 L 507.008 508.167 L 474.008 501.111 L 433.007 508.167 L 401.006 508.167 L 392.006 501.111 L 370.006 508.167 L 334.005 501.111 L 309.005 521.102 L 295.005 508.167 L 278.004 521.102 L 254.004 532.861 L 234.004 532.861 L 217.003 541.093 L 194.003 532.861 L 180.003 538.741 L 155.002 544.62 L 138.002 544.62 L 122.002 555.204 L 102.002 544.62 L 92.001 555.204 L 84.001 550.5 L 64.001 555.204 L 46.001 550.5 L 15 563.435 L 0 559.907 L 0 614 L 861.014 614 L 861.014 559.907 Z " fill="url(#_lgradient_9)"/><linearGradient id="_lgradient_10" x1="49.79109531921418%" y1="8.680696136624189%" x2="49.79109531921422%" y2="102.02931786363058%"><stop offset="0.8695652173913043%" stop-opacity="1" style="stop-color:rgb(75,146,195)"/><stop offset="61.13828275299178%" stop-opacity="1" style="stop-color:rgb(104,164,209)"/><stop offset="76.20546213689157%" stop-opacity="1" style="stop-color:rgb(111,169,213)"/><stop offset="97.82608695652173%" stop-opacity="1" style="stop-color:rgb(75,146,195)"/></linearGradient><path d=" M 831.324 563.638 L 808.047 549.405 L 785.702 554.879 L 759.633 546.121 L 734.495 549.405 L 707.308 538.457 L 686.091 543.931 L 673.878 532.983 L 658.148 538.457 L 625.562 527.509 L 613.88 519.845 L 605.079 524.224 L 548.285 495.759 L 539.905 503.422 L 530.148 503.422 L 501.732 515.466 L 471.008 508.897 L 432.835 515.466 L 403.041 515.466 L 394.661 508.897 L 374.178 515.466 L 340.661 508.897 L 317.384 527.509 L 304.35 515.466 L 288.522 527.509 L 266.177 538.457 L 247.556 538.457 L 231.728 546.121 L 210.314 538.457 L 197.279 543.931 L 174.003 549.405 L 158.175 549.405 L 143.278 559.259 L 124.657 549.405 L 115.347 559.259 L 107.898 554.879 L 89.277 559.259 L 72.518 554.879 L 43.656 566.922 L 29.69 563.638 L 29.69 614 L 831.324 614 L 831.324 563.638 Z " fill="url(#_lgradient_10)"/><path d=" M 519.821 539.552 L 363.325 539.552 L 366.17 534.533 L 367.331 535.785 L 374.954 527.557 L 377.37 531.819 L 379.786 527.557 L 388.034 527.469 L 389.127 525.542 L 397.524 532.435 L 407.338 525.542 L 415.415 518.257 L 427.944 530.112 L 435.262 532.435 L 440.651 526.239 L 448.679 531.819 L 456.427 530.112 L 465.855 530.112 L 475.808 525.542 L 485.109 529.698 L 494.019 525.542 L 495.112 527.469 L 503.36 527.557 L 505.776 531.819 L 508.192 527.557 L 515.815 535.785 L 516.976 534.533 L 519.821 539.552 Z " fill="rgb(92,159,208)"/><path d=" M 460.846 543.931 L 304.35 543.931 L 307.195 538.912 L 308.355 540.164 L 315.978 531.937 L 318.395 536.199 L 320.811 531.937 L 329.059 531.848 L 330.152 529.921 L 338.549 536.815 L 348.363 529.921 L 356.44 522.636 L 368.969 534.491 L 376.287 536.815 L 381.676 530.618 L 389.704 536.199 L 397.452 534.491 L 406.88 534.491 L 416.833 529.921 L 426.133 534.078 L 435.044 529.921 L 436.136 531.848 L 444.384 531.937 L 446.801 536.199 L 449.217 531.937 L 456.84 540.164 L 458 538.912 L 460.846 543.931 Z " fill="rgb(77,148,196)"/><path d=" M 598.069 536.267 C 594.782 536.914 602.196 546.261 598.986 546.846 C 534.432 558.623 474.861 549.286 441.573 536.267 L 444.418 531.248 L 445.579 532.501 L 453.201 524.273 L 455.618 528.535 L 458.034 524.273 L 466.282 524.184 L 467.375 522.257 L 475.772 529.151 L 485.586 522.257 L 493.663 514.972 L 506.192 526.827 L 513.51 529.151 L 518.899 522.955 L 526.927 528.535 L 534.675 526.827 L 544.103 526.827 L 554.056 522.257 L 563.357 526.414 L 572.267 522.257 L 573.359 524.184 L 581.608 524.273 L 584.024 528.535 L 586.44 524.273 L 594.063 532.501 L 595.223 531.248 L 598.069 536.267 Z " fill="rgb(92,159,208)"/><path d=" M 617.342 554.579 L 460.846 554.579 L 463.691 549.56 L 464.851 550.812 L 472.474 542.584 L 474.89 546.846 L 477.307 542.584 L 485.555 542.496 L 486.648 540.568 L 495.045 547.462 L 504.859 540.568 L 512.936 533.283 L 525.465 545.138 L 532.783 547.462 L 538.172 541.266 L 546.2 546.846 L 553.948 545.138 L 563.376 545.138 L 573.329 540.568 L 582.629 544.725 L 591.54 540.568 L 592.632 542.496 L 600.88 542.584 L 603.297 546.846 L 605.713 542.584 L 613.336 550.812 L 614.496 549.56 L 617.342 554.579 Z " fill="rgb(92,159,208)"/><path d=" M 563.357 554.879 L 406.861 554.879 L 409.706 549.86 L 410.866 551.113 L 418.489 542.885 L 420.905 547.147 L 423.322 542.885 L 431.57 542.796 L 432.663 540.869 L 441.06 547.763 L 450.874 540.869 L 458.951 533.584 L 471.48 545.439 L 478.798 547.763 L 484.187 541.567 L 492.215 547.147 L 499.963 545.439 L 509.391 545.439 L 519.343 540.869 L 528.644 545.026 L 537.555 540.869 L 538.647 542.796 L 546.895 542.885 L 549.312 547.147 L 551.728 542.885 L 559.351 551.113 L 560.511 549.86 L 563.357 554.879 Z " fill="rgb(111,169,213)"/><path d=" M 508.755 554.579 L 352.259 554.579 L 355.104 549.56 L 356.265 550.812 L 363.888 542.584 L 366.304 546.846 L 368.72 542.584 L 376.968 542.496 L 378.061 540.568 L 386.458 547.462 L 396.272 540.568 L 404.349 533.283 L 416.878 545.138 L 424.196 547.462 L 429.585 541.266 L 437.613 546.846 L 445.361 545.138 L 454.789 545.138 L 464.742 540.568 L 474.043 544.725 L 482.953 540.568 L 484.045 542.496 L 492.294 542.584 L 494.71 546.846 L 497.126 542.584 L 504.749 550.812 L 505.909 549.56 L 508.755 554.579 Z " fill="rgb(92,159,208)"/><path d=" M 460.846 554.879 L 304.35 554.879 L 307.195 549.86 L 308.355 551.113 L 315.978 542.885 L 318.395 547.147 L 320.811 542.885 L 329.059 542.796 L 330.152 540.869 L 338.549 547.763 L 348.363 540.869 L 356.44 533.584 L 368.969 545.439 L 376.287 547.763 L 381.676 541.567 L 389.704 547.147 L 397.452 545.439 L 406.88 545.439 L 416.833 540.869 L 426.133 545.026 L 435.044 540.869 L 436.136 542.796 L 444.384 542.885 L 446.801 547.147 L 449.217 542.885 L 456.84 551.113 L 458 549.86 L 460.846 554.879 Z " fill="rgb(111,169,213)"/><path d=" M 411.5 554.879 L 255.004 554.879 L 257.849 549.86 L 259.01 551.113 L 266.633 542.885 L 269.049 547.147 L 271.465 542.885 L 279.713 542.796 L 280.806 540.869 L 289.204 547.763 L 299.017 540.869 L 307.094 533.584 L 319.623 545.439 L 326.941 547.763 L 332.33 541.567 L 340.358 547.147 L 348.106 545.439 L 357.535 545.439 L 367.487 540.869 L 376.788 545.026 L 385.698 540.869 L 386.791 542.796 L 395.039 542.885 L 397.455 547.147 L 399.871 542.885 L 407.494 551.113 L 408.655 549.86 L 411.5 554.879 Z " fill="rgb(92,159,208)"/><path d=" M 382.598 566.922 L 226.102 566.922 L 228.947 561.904 L 230.107 563.156 L 237.73 554.928 L 240.147 559.19 L 242.563 554.928 L 250.811 554.839 L 251.904 552.912 L 260.301 559.806 L 270.115 552.912 L 278.192 545.627 L 290.721 557.482 L 298.039 559.806 L 303.428 553.61 L 311.456 559.19 L 319.204 557.482 L 328.632 557.482 L 338.585 552.912 L 347.885 557.069 L 356.796 552.912 L 357.888 554.839 L 366.137 554.928 L 368.553 559.19 L 370.969 554.928 L 378.592 563.156 L 379.752 561.904 L 382.598 566.922 Z " fill="rgb(111,169,213)"/><path d=" M 350.985 566.922 L 194.489 566.922 L 197.335 561.904 L 198.495 563.156 L 206.118 554.928 L 208.534 559.19 L 210.951 554.928 L 219.199 554.839 L 220.291 552.912 L 228.689 559.806 L 238.503 552.912 L 246.58 545.627 L 259.108 557.482 L 266.426 559.806 L 271.816 553.61 L 279.844 559.19 L 287.592 557.482 L 297.02 557.482 L 306.972 552.912 L 316.273 557.069 L 325.183 552.912 L 326.276 554.839 L 334.524 554.928 L 336.941 559.19 L 339.357 554.928 L 346.98 563.156 L 348.14 561.904 L 350.985 566.922 Z " fill="rgb(111,169,213)"/><path d=" M 418.606 566.922 L 262.11 566.922 L 264.956 561.904 L 266.116 563.156 L 273.739 554.928 L 276.155 559.19 L 278.572 554.928 L 286.82 554.839 L 287.912 552.912 L 296.31 559.806 L 306.123 552.912 L 314.201 545.627 L 326.729 557.482 L 334.047 559.806 L 339.437 553.61 L 347.465 559.19 L 355.213 557.482 L 364.641 557.482 L 374.593 552.912 L 383.894 557.069 L 392.804 552.912 L 393.897 554.839 L 402.145 554.928 L 404.562 559.19 L 406.978 554.928 L 414.601 563.156 L 415.761 561.904 L 418.606 566.922 Z " fill="rgb(92,159,208)"/><path d=" M 472.145 554.879 L 315.649 554.879 L 318.494 549.86 L 319.655 551.113 L 327.278 542.885 L 329.694 547.147 L 332.11 542.885 L 340.358 542.796 L 341.451 540.869 L 349.849 547.763 L 359.662 540.869 L 367.739 533.584 L 380.268 545.439 L 387.586 547.763 L 392.975 541.567 L 401.003 547.147 L 408.751 545.439 L 418.179 545.439 L 428.132 540.869 L 437.433 545.026 L 446.343 540.869 L 447.436 542.796 L 455.684 542.885 L 458.1 547.147 L 460.516 542.885 L 468.139 551.113 L 469.3 549.86 L 472.145 554.879 Z " fill="rgb(111,169,213)"/><path d=" M 519.821 566.922 L 363.325 566.922 L 366.17 561.904 L 367.331 563.156 L 374.954 554.928 L 377.37 559.19 L 379.786 554.928 L 388.034 554.839 L 389.127 552.912 L 397.524 559.806 L 407.338 552.912 L 415.415 545.627 L 427.944 557.482 L 435.262 559.806 L 440.651 553.61 L 448.679 559.19 L 456.427 557.482 L 465.855 557.482 L 475.808 552.912 L 485.109 557.069 L 494.019 552.912 L 495.112 554.839 L 503.36 554.928 L 505.776 559.19 L 508.192 554.928 L 515.815 563.156 L 516.976 561.904 L 519.821 566.922 Z " fill="rgb(92,159,208)"/><path d=" M 575.374 554.879 C 505.63 565.588 453.474 565.599 418.878 554.879 L 421.724 549.86 L 422.884 551.113 L 430.507 542.885 L 432.923 547.147 L 435.339 542.885 L 443.588 542.796 L 444.68 540.869 L 453.078 547.763 L 462.891 540.869 L 470.969 533.584 L 483.497 545.439 L 490.815 547.763 L 496.205 541.567 L 504.233 547.147 L 511.981 545.439 L 521.409 545.439 L 531.361 540.869 L 540.662 545.026 L 549.572 540.869 L 550.665 542.796 L 558.913 542.885 L 561.329 547.147 L 563.746 542.885 L 571.369 551.113 L 572.529 549.86 L 575.374 554.879 Z " fill="rgb(75,146,195)"/><path d=" M 641.604 566.922 L 485.109 566.922 L 487.954 561.904 L 489.114 563.156 L 496.737 554.928 L 499.153 559.19 L 501.57 554.928 L 509.818 554.839 L 510.911 552.912 L 519.308 559.806 L 529.122 552.912 L 537.199 545.627 L 549.728 557.482 L 557.046 559.806 L 562.435 553.61 L 570.463 559.19 L 578.211 557.482 L 587.639 557.482 L 597.591 552.912 L 606.892 557.069 L 615.803 552.912 L 616.895 554.839 L 625.143 554.928 L 627.56 559.19 L 629.976 554.928 L 637.599 563.156 L 638.759 561.904 L 641.604 566.922 Z " fill="rgb(92,159,208)"/><path d=" M 660.41 548.611 C 635.936 565.668 583.78 565.679 503.914 548.611 L 506.759 543.592 L 507.92 544.845 L 515.542 536.617 L 517.959 540.879 L 520.375 536.617 L 528.623 536.528 L 529.716 534.601 L 538.113 541.495 L 547.927 534.601 L 556.004 527.316 L 568.533 539.171 L 575.851 541.495 L 581.24 535.298 L 589.268 540.879 L 597.016 539.171 L 606.444 539.171 L 616.397 534.601 L 625.698 538.758 L 634.608 534.601 L 635.7 536.528 L 643.949 536.617 L 646.365 540.879 L 648.781 536.617 L 656.404 544.845 L 657.564 543.592 L 660.41 548.611 Z " fill="rgb(75,146,195)"/><path d=" M 698.736 560.847 C 661.953 574.515 609.797 574.526 542.24 560.847 L 545.086 555.828 L 546.246 557.08 L 553.869 548.853 L 556.285 553.115 L 558.701 548.853 L 566.95 548.764 L 568.042 546.837 L 576.44 553.73 L 586.253 546.837 L 594.33 539.552 L 606.859 551.407 L 614.177 553.73 L 619.567 547.534 L 627.594 553.115 L 635.342 551.407 L 644.771 551.407 L 654.723 546.837 L 664.024 550.993 L 672.934 546.837 L 674.027 548.764 L 682.275 548.853 L 684.691 553.115 L 687.107 548.853 L 694.73 557.08 L 695.891 555.828 L 698.736 560.847 Z " fill="rgb(111,169,213)"/><path d=" M 765.178 575.874 L 608.682 575.874 L 611.528 570.855 L 612.688 572.107 L 620.311 563.879 L 622.727 568.141 L 625.143 563.879 L 633.392 563.791 L 634.484 561.864 L 642.882 568.757 L 652.695 561.864 L 660.773 554.579 L 673.301 566.434 L 680.619 568.757 L 686.009 562.561 L 694.037 568.141 L 701.784 566.434 L 711.213 566.434 L 721.165 561.864 L 730.466 566.02 L 739.376 561.864 L 740.469 563.791 L 748.717 563.879 L 751.133 568.141 L 753.55 563.879 L 761.173 572.107 L 762.333 570.855 L 765.178 575.874 Z " fill="rgb(92,159,208)"/><path d=" M 799.413 566.922 L 642.917 566.922 L 645.763 561.904 L 646.923 563.156 L 654.546 554.928 L 656.962 559.19 L 659.378 554.928 L 667.627 554.839 L 668.719 552.912 L 677.117 559.806 L 686.93 552.912 L 695.008 545.627 L 707.536 557.482 L 714.854 559.806 L 720.244 553.61 L 728.271 559.19 L 736.019 557.482 L 745.448 557.482 L 755.4 552.912 L 764.701 557.069 L 773.611 552.912 L 774.704 554.839 L 782.952 554.928 L 785.368 559.19 L 787.784 554.928 L 795.407 563.156 L 796.568 561.904 L 799.413 566.922 Z " fill="rgb(76,147,196)"/><path d=" M 826.965 575.874 L 670.469 575.874 L 673.314 570.855 L 674.475 572.107 L 682.098 563.879 L 684.514 568.141 L 686.93 563.879 L 695.178 563.791 L 696.271 561.864 L 704.669 568.757 L 714.482 561.864 L 722.559 554.579 L 735.088 566.434 L 742.406 568.757 L 747.795 562.561 L 755.823 568.141 L 763.571 566.434 L 772.999 566.434 L 782.952 561.864 L 792.253 566.02 L 801.163 561.864 L 802.256 563.791 L 810.504 563.879 L 812.92 568.141 L 815.336 563.879 L 822.959 572.107 L 824.12 570.855 L 826.965 575.874 Z " fill="rgb(111,169,213)"/><path d=" M 843.426 575.874 L 686.93 575.874 L 689.776 570.855 L 690.936 572.107 L 698.559 563.879 L 700.975 568.141 L 703.391 563.879 L 711.64 563.791 L 712.732 561.864 L 721.13 568.757 L 730.943 561.864 L 739.021 554.579 L 751.549 566.434 L 758.867 568.757 L 764.257 562.561 L 772.285 568.141 L 780.032 566.434 L 789.461 566.434 L 799.413 561.864 L 808.714 566.02 L 817.624 561.864 L 818.717 563.791 L 826.965 563.879 L 829.381 568.141 L 831.798 563.879 L 839.42 572.107 L 840.581 570.855 L 843.426 575.874 Z " fill="rgb(92,159,208)"/><path d=" M 861.2 588.819 L 704.704 588.819 L 707.549 583.8 L 708.71 585.052 L 716.333 576.825 L 718.749 581.087 L 721.165 576.825 L 729.413 576.736 L 730.506 574.809 L 738.903 581.703 L 748.717 574.809 L 756.794 567.524 L 769.323 579.379 L 776.641 581.703 L 782.03 575.506 L 790.058 581.087 L 797.806 579.379 L 807.234 579.379 L 817.187 574.809 L 826.488 578.966 L 835.398 574.809 L 836.491 576.736 L 844.739 576.825 L 847.155 581.087 L 849.571 576.825 L 857.194 585.052 L 858.355 583.8 L 861.2 588.819 Z " fill="rgb(111,169,213)"/><path d=" M 835.042 588.819 L 678.546 588.819 L 681.392 583.8 L 682.552 585.052 L 690.175 576.825 L 692.591 581.087 L 695.008 576.825 L 703.256 576.736 L 704.348 574.809 L 712.746 581.703 L 722.559 574.809 L 730.637 567.524 L 743.165 579.379 L 750.483 581.703 L 755.873 575.506 L 763.901 581.087 L 771.649 579.379 L 781.077 579.379 L 791.029 574.809 L 800.33 578.966 L 809.24 574.809 L 810.333 576.736 L 818.581 576.825 L 820.997 581.087 L 823.414 576.825 L 831.037 585.052 L 832.197 583.8 L 835.042 588.819 Z " fill="rgb(75,146,195)"/><path d=" M 849.897 597.578 L 693.401 597.578 L 696.246 592.559 L 697.406 593.811 L 705.029 585.583 L 707.446 589.845 L 709.862 585.583 L 718.11 585.495 L 719.203 583.567 L 727.6 590.461 L 737.414 583.567 L 745.491 576.282 L 758.02 588.137 L 765.338 590.461 L 770.727 584.265 L 778.755 589.845 L 786.503 588.137 L 795.931 588.137 L 805.884 583.567 L 815.184 587.724 L 824.095 583.567 L 825.187 585.495 L 833.435 585.583 L 835.852 589.845 L 838.268 585.583 L 845.891 593.811 L 847.051 592.559 L 849.897 597.578 Z " fill="rgb(92,159,208)"/><path d=" M 843.426 608.225 L 686.93 608.225 L 689.776 603.206 L 690.936 604.459 L 698.559 596.231 L 700.975 600.493 L 703.391 596.231 L 711.64 596.142 L 712.732 594.215 L 721.13 601.109 L 730.943 594.215 L 739.021 586.93 L 751.549 598.785 L 758.867 601.109 L 764.257 594.913 L 772.285 600.493 L 780.032 598.785 L 789.461 598.785 L 799.413 594.215 L 808.714 598.372 L 817.624 594.215 L 818.717 596.142 L 826.965 596.231 L 829.381 600.493 L 831.798 596.231 L 839.42 604.459 L 840.581 603.206 L 843.426 608.225 Z " fill="rgb(111,169,213)"/><path d=" M 781.639 597.578 L 625.143 597.578 L 627.989 592.559 L 629.149 593.811 L 636.772 585.583 L 639.188 589.845 L 641.604 585.583 L 649.853 585.495 L 650.945 583.567 L 659.343 590.461 L 669.156 583.567 L 677.234 576.282 L 689.762 588.137 L 697.08 590.461 L 702.47 584.265 L 710.498 589.845 L 718.246 588.137 L 727.674 588.137 L 737.626 583.567 L 746.927 587.724 L 755.837 583.567 L 756.93 585.495 L 765.178 585.583 L 767.594 589.845 L 770.011 585.583 L 777.634 593.811 L 778.794 592.559 L 781.639 597.578 Z " fill="rgb(75,146,195)"/><path d=" M 773.838 608.225 L 617.342 608.225 L 620.187 603.206 L 621.347 604.459 L 628.97 596.231 L 631.386 600.493 L 633.803 596.231 L 642.051 596.142 L 643.144 594.215 L 651.541 601.109 L 661.355 594.215 L 669.432 586.93 L 681.961 598.785 L 689.279 601.109 L 694.668 594.913 L 702.696 600.493 L 710.444 598.785 L 719.872 598.785 L 729.824 594.215 L 739.125 598.372 L 748.036 594.215 L 749.128 596.142 L 757.376 596.231 L 759.793 600.493 L 762.209 596.231 L 769.832 604.459 L 770.992 603.206 L 773.838 608.225 Z " fill="rgb(111,169,213)"/><path d=" M 719.852 588.819 L 563.357 588.819 L 566.202 583.8 L 567.362 585.052 L 574.985 576.825 L 577.401 581.087 L 579.818 576.825 L 588.066 576.736 L 589.158 574.809 L 597.556 581.703 L 607.37 574.809 L 615.447 567.524 L 627.975 579.379 L 635.293 581.703 L 640.683 575.506 L 648.711 581.087 L 656.459 579.379 L 665.887 579.379 L 675.839 574.809 L 685.14 578.966 L 694.051 574.809 L 695.143 576.736 L 703.391 576.825 L 705.808 581.087 L 708.224 576.825 L 715.847 585.052 L 717.007 583.8 L 719.852 588.819 Z " fill="rgb(111,169,213)"/><path d=" M 703.391 577.57 L 546.895 577.57 L 549.741 572.551 L 550.901 573.803 L 558.524 565.576 L 560.94 569.838 L 563.357 565.576 L 571.605 565.487 L 572.697 563.56 L 581.095 570.454 L 590.908 563.56 L 598.986 556.275 L 611.514 568.13 L 618.832 570.454 L 624.222 564.257 L 632.25 569.838 L 639.998 568.13 L 649.426 568.13 L 659.378 563.56 L 668.679 567.717 L 677.589 563.56 L 678.682 565.487 L 686.93 565.576 L 689.346 569.838 L 691.763 565.576 L 699.386 573.803 L 700.546 572.551 L 703.391 577.57 Z " fill="rgb(92,159,208)"/><path d=" M 710.552 597.578 L 554.056 597.578 L 556.901 592.559 L 558.061 593.811 L 565.684 585.583 L 568.101 589.845 L 570.517 585.583 L 578.765 585.495 L 579.858 583.567 L 588.255 590.461 L 598.069 583.567 L 606.146 576.282 L 618.675 588.137 L 625.993 590.461 L 631.382 584.265 L 639.41 589.845 L 647.158 588.137 L 656.586 588.137 L 666.539 583.567 L 675.839 587.724 L 684.75 583.567 L 685.842 585.495 L 694.091 585.583 L 696.507 589.845 L 698.923 585.583 L 706.546 593.811 L 707.706 592.559 L 710.552 597.578 Z " fill="rgb(92,159,208)"/><path d=" M 687.857 608.225 L 531.361 608.225 L 534.207 603.206 L 535.367 604.459 L 542.99 596.231 L 545.406 600.493 L 547.822 596.231 L 556.071 596.142 L 557.163 594.215 L 565.561 601.109 L 575.374 594.215 L 583.452 586.93 L 595.98 598.785 L 603.298 601.109 L 608.688 594.913 L 616.716 600.493 L 624.463 598.785 L 633.892 598.785 L 643.844 594.215 L 653.145 598.372 L 662.055 594.215 L 663.148 596.142 L 671.396 596.231 L 673.812 600.493 L 676.229 596.231 L 683.852 604.459 L 685.012 603.206 L 687.857 608.225 Z " fill="rgb(111,169,213)"/><path d=" M 641.604 586.521 L 485.109 586.521 L 487.954 581.502 L 489.114 582.755 L 496.737 574.527 L 499.153 578.789 L 501.57 574.527 L 509.818 574.438 L 510.911 572.511 L 519.308 579.405 L 529.122 572.511 L 537.199 565.226 L 549.728 577.081 L 557.046 579.405 L 562.435 573.209 L 570.463 578.789 L 578.211 577.081 L 587.639 577.081 L 597.591 572.511 L 606.892 576.668 L 615.803 572.511 L 616.895 574.438 L 625.143 574.527 L 627.56 578.789 L 629.976 574.527 L 637.599 582.755 L 638.759 581.502 L 641.604 586.521 Z " fill="rgb(92,159,208)"/><path d=" M 641.604 578.171 L 485.109 578.171 L 487.954 573.153 L 489.114 574.405 L 496.737 566.177 L 499.153 570.439 L 501.57 566.177 L 509.818 566.088 L 510.911 564.161 L 519.308 571.055 L 529.122 564.161 L 537.199 556.876 L 549.728 568.731 L 557.046 571.055 L 562.435 564.859 L 570.463 570.439 L 578.211 568.731 L 587.639 568.731 L 597.591 564.161 L 606.892 568.318 L 615.803 564.161 L 616.895 566.088 L 625.143 566.177 L 627.56 570.439 L 629.976 566.177 L 637.599 574.405 L 638.759 573.153 L 641.604 578.171 Z " fill="rgb(111,169,213)"/><path d=" M 641.604 597.169 L 485.109 597.169 L 487.954 592.15 L 489.114 593.402 L 496.737 585.175 L 499.153 589.437 L 501.57 585.175 L 509.818 585.086 L 510.911 583.159 L 519.308 590.053 L 529.122 583.159 L 537.199 575.874 L 549.728 587.729 L 557.046 590.053 L 562.435 583.856 L 570.463 589.437 L 578.211 587.729 L 587.639 587.729 L 597.591 583.159 L 606.892 587.315 L 615.803 583.159 L 616.895 585.086 L 625.143 585.175 L 627.56 589.437 L 629.976 585.175 L 637.599 593.402 L 638.759 592.15 L 641.604 597.169 Z " fill="rgb(77,148,196)"/><path d=" M 628.641 608.225 L 472.145 608.225 L 474.99 603.206 L 476.151 604.459 L 483.774 596.231 L 486.19 600.493 L 488.606 596.231 L 496.854 596.142 L 497.947 594.215 L 506.345 601.109 L 516.158 594.215 L 524.235 586.93 L 536.764 598.785 L 544.082 601.109 L 549.471 594.913 L 557.499 600.493 L 565.247 598.785 L 574.675 598.785 L 584.628 594.215 L 593.929 598.372 L 602.839 594.215 L 603.932 596.142 L 612.18 596.231 L 614.596 600.493 L 617.012 596.231 L 624.635 604.459 L 625.796 603.206 L 628.641 608.225 Z " fill="rgb(77,148,196)"/><path d=" M 587.003 578.171 L 430.507 578.171 L 433.352 573.153 L 434.513 574.405 L 442.135 566.177 L 444.552 570.439 L 446.968 566.177 L 455.216 566.088 L 456.309 564.161 L 464.706 571.055 L 474.52 564.161 L 482.597 556.876 L 495.126 568.731 L 502.444 571.055 L 507.833 564.859 L 515.861 570.439 L 523.609 568.731 L 533.037 568.731 L 542.99 564.161 L 552.29 568.318 L 561.201 564.161 L 562.293 566.088 L 570.542 566.177 L 572.958 570.439 L 575.374 566.177 L 582.997 574.405 L 584.157 573.153 L 587.003 578.171 Z " fill="rgb(92,159,208)"/><path d=" M 556.367 578.171 L 399.871 578.171 L 402.717 573.153 L 403.877 574.405 L 411.5 566.177 L 413.916 570.439 L 416.333 566.177 L 424.581 566.088 L 425.673 564.161 L 434.071 571.055 L 443.884 564.161 L 451.962 556.876 L 464.49 568.731 L 471.808 571.055 L 477.198 564.859 L 485.226 570.439 L 492.974 568.731 L 502.402 568.731 L 512.354 564.161 L 521.655 568.318 L 530.565 564.161 L 531.658 566.088 L 539.906 566.177 L 542.322 570.439 L 544.739 566.177 L 552.362 574.405 L 553.522 573.153 L 556.367 578.171 Z " fill="rgb(111,169,213)"/><path d=" M 550.393 588.819 L 393.897 588.819 L 396.742 583.8 L 397.903 585.052 L 405.526 576.825 L 407.942 581.087 L 410.358 576.825 L 418.606 576.736 L 419.699 574.809 L 428.097 581.703 L 437.91 574.809 L 445.987 567.524 L 458.516 579.379 L 465.834 581.703 L 471.223 575.506 L 479.251 581.087 L 486.999 579.379 L 496.427 579.379 L 506.38 574.809 L 515.681 578.966 L 524.591 574.809 L 525.684 576.736 L 533.932 576.825 L 536.348 581.087 L 538.764 576.825 L 546.387 585.052 L 547.548 583.8 L 550.393 588.819 Z " fill="rgb(92,159,208)"/><path d=" M 543.287 603.206 L 386.791 603.206 L 389.636 598.187 L 390.796 599.44 L 398.419 591.212 L 400.836 595.474 L 403.252 591.212 L 411.5 591.123 L 412.593 589.196 L 420.99 596.09 L 430.804 589.196 L 438.881 581.911 L 451.41 593.766 L 458.728 596.09 L 464.117 589.894 L 472.145 595.474 L 479.893 593.766 L 489.321 593.766 L 499.274 589.196 L 508.574 593.353 L 517.485 589.196 L 518.577 591.123 L 526.825 591.212 L 529.242 595.474 L 531.658 591.212 L 539.281 599.44 L 540.441 598.187 L 543.287 603.206 Z " fill="rgb(111,169,213)"/><path d=" M 567.996 608.225 L 411.5 608.225 L 414.345 603.206 L 415.506 604.459 L 423.129 596.231 L 425.545 600.493 L 427.961 596.231 L 436.209 596.142 L 437.302 594.215 L 445.7 601.109 L 455.513 594.215 L 463.59 586.93 L 476.119 598.785 L 483.437 601.109 L 488.826 594.913 L 496.854 600.493 L 504.602 598.785 L 514.03 598.785 L 523.983 594.215 L 533.284 598.372 L 542.194 594.215 L 543.287 596.142 L 551.535 596.231 L 553.951 600.493 L 556.367 596.231 L 563.99 604.459 L 565.151 603.206 L 567.996 608.225 Z " fill="rgb(92,159,208)"/><path d=" M 582.209 614 L 425.713 614 L 428.558 608.981 L 429.718 610.233 L 437.341 602.006 L 439.758 606.268 L 442.174 602.006 L 450.422 601.917 L 451.515 599.99 L 459.912 606.884 L 469.726 599.99 L 477.803 592.705 L 490.332 604.56 L 497.65 606.884 L 503.039 600.687 L 511.067 606.268 L 518.815 604.56 L 528.243 604.56 L 538.196 599.99 L 547.496 604.147 L 556.407 599.99 L 557.499 601.917 L 565.748 602.006 L 568.164 606.268 L 570.58 602.006 L 578.203 610.233 L 579.363 608.981 L 582.209 614 Z " fill="rgb(111,169,213)"/><path d=" M 634.615 614 L 478.119 614 L 480.965 608.981 L 482.125 610.233 L 489.748 602.006 L 492.164 606.268 L 494.581 602.006 L 502.829 601.917 L 503.921 599.99 L 512.319 606.884 L 522.132 599.99 L 530.21 592.705 L 542.738 604.56 L 550.056 606.884 L 555.446 600.687 L 563.474 606.268 L 571.222 604.56 L 580.65 604.56 L 590.602 599.99 L 599.903 604.147 L 608.813 599.99 L 609.906 601.917 L 618.154 602.006 L 620.57 606.268 L 622.987 602.006 L 630.61 610.233 L 631.77 608.981 L 634.615 614 Z " fill="rgb(92,159,208)"/><path d=" M 756.794 613.854 L 600.298 613.854 L 603.144 608.835 L 604.304 610.087 L 611.927 601.86 L 614.343 606.122 L 616.76 601.86 L 625.008 601.771 L 626.1 599.844 L 634.498 606.737 L 644.311 599.844 L 652.389 592.559 L 664.917 604.414 L 672.235 606.737 L 677.625 600.541 L 685.653 606.122 L 693.401 604.414 L 702.829 604.414 L 712.781 599.844 L 722.082 604 L 730.992 599.844 L 732.085 601.771 L 740.333 601.86 L 742.749 606.122 L 745.166 601.86 L 752.789 610.087 L 753.949 608.835 L 756.794 613.854 Z " fill="rgb(111,169,213)"/><path d=" M 788.8 613.854 L 632.304 613.854 L 635.149 608.835 L 636.309 610.087 L 643.932 601.86 L 646.349 606.122 L 648.765 601.86 L 657.013 601.771 L 658.106 599.844 L 666.503 606.737 L 676.317 599.844 L 684.394 592.559 L 696.923 604.414 L 704.241 606.737 L 709.63 600.541 L 717.658 606.122 L 725.406 604.414 L 734.834 604.414 L 744.787 599.844 L 754.087 604 L 762.998 599.844 L 764.09 601.771 L 772.339 601.86 L 774.755 606.122 L 777.171 601.86 L 784.794 610.087 L 785.954 608.835 L 788.8 613.854 Z " fill="rgb(111,169,213)"/><path d=" M 855.531 614 L 699.035 614 L 701.88 608.981 L 703.041 610.233 L 710.664 602.006 L 713.08 606.268 L 715.496 602.006 L 723.744 601.917 L 724.837 599.99 L 733.235 606.884 L 743.048 599.99 L 751.125 592.705 L 763.654 604.56 L 770.972 606.884 L 776.361 600.687 L 784.389 606.268 L 792.137 604.56 L 801.565 604.56 L 811.518 599.99 L 820.819 604.147 L 829.729 599.99 L 830.822 601.917 L 839.07 602.006 L 841.486 606.268 L 843.902 602.006 L 851.525 610.233 L 852.686 608.981 L 855.531 614 Z " fill="rgb(77,148,196)"/><path d=" M 503.961 613.854 L 347.465 613.854 L 350.31 608.835 L 351.47 610.087 L 359.093 601.86 L 361.51 606.122 L 363.926 601.86 L 372.174 601.771 L 373.267 599.844 L 381.664 606.737 L 391.478 599.844 L 399.555 592.559 L 412.084 604.414 L 419.402 606.737 L 424.791 600.541 L 432.819 606.122 L 440.567 604.414 L 449.995 604.414 L 459.948 599.844 L 469.248 604 L 478.159 599.844 L 479.251 601.771 L 487.5 601.86 L 489.916 606.122 L 492.332 601.86 L 499.955 610.087 L 501.115 608.835 L 503.961 613.854 Z " fill="rgb(111,169,213)"/><path d=" M 477.307 599.467 L 320.811 599.467 L 323.656 594.448 L 324.816 595.7 L 332.439 587.472 L 334.856 591.734 L 337.272 587.472 L 345.52 587.384 L 346.613 585.456 L 355.01 592.35 L 364.824 585.456 L 372.901 578.171 L 385.43 590.026 L 392.748 592.35 L 398.137 586.154 L 406.165 591.734 L 413.913 590.026 L 423.341 590.026 L 433.294 585.456 L 442.594 589.613 L 451.505 585.456 L 452.597 587.384 L 460.846 587.472 L 463.262 591.734 L 465.678 587.472 L 473.301 595.7 L 474.461 594.448 L 477.307 599.467 Z " fill="rgb(92,159,208)"/><path d=" M 472.145 586.521 L 315.649 586.521 L 318.494 581.502 L 319.655 582.755 L 327.278 574.527 L 329.694 578.789 L 332.11 574.527 L 340.358 574.438 L 341.451 572.511 L 349.849 579.405 L 359.662 572.511 L 367.739 565.226 L 380.268 577.081 L 387.586 579.405 L 392.975 573.209 L 401.003 578.789 L 408.751 577.081 L 418.179 577.081 L 428.132 572.511 L 437.433 576.668 L 446.343 572.511 L 447.436 574.438 L 455.684 574.527 L 458.1 578.789 L 460.516 574.527 L 468.139 582.755 L 469.3 581.502 L 472.145 586.521 Z " fill="rgb(111,169,213)"/><path d=" M 467.952 572.107 C 416.588 582.289 364.432 582.3 311.456 572.107 L 314.301 567.088 L 315.462 568.341 L 323.085 560.113 L 325.501 564.375 L 327.917 560.113 L 336.165 560.024 L 337.258 558.097 L 345.656 564.991 L 355.469 558.097 L 363.546 550.812 L 376.075 562.667 L 383.393 564.991 L 388.782 558.795 L 396.81 564.375 L 404.558 562.667 L 413.987 562.667 L 423.939 558.097 L 433.24 562.254 L 442.15 558.097 L 443.243 560.024 L 451.491 560.113 L 453.907 564.375 L 456.323 560.113 L 463.946 568.341 L 465.107 567.088 L 467.952 572.107 Z " fill="rgb(92,159,208)"/><path d=" M 460.846 586.521 L 304.35 586.521 L 307.195 581.502 L 308.355 582.755 L 315.978 574.527 L 318.395 578.789 L 320.811 574.527 L 329.059 574.438 L 330.152 572.511 L 338.549 579.405 L 348.363 572.511 L 356.44 565.226 L 368.969 577.081 L 376.287 579.405 L 381.676 573.209 L 389.704 578.789 L 397.452 577.081 L 406.88 577.081 L 416.833 572.511 L 426.133 576.668 L 435.044 572.511 L 436.136 574.438 L 444.384 574.527 L 446.801 578.789 L 449.217 574.527 L 456.84 582.755 L 458 581.502 L 460.846 586.521 Z " fill="rgb(111,169,213)"/><path d=" M 448.741 603.206 L 292.245 603.206 L 295.091 598.187 L 296.251 599.44 L 303.874 591.212 L 306.29 595.474 L 308.706 591.212 L 316.955 591.123 L 318.047 589.196 L 326.445 596.09 L 336.258 589.196 L 344.335 581.911 L 356.864 593.766 L 364.182 596.09 L 369.572 589.894 L 377.599 595.474 L 385.347 593.766 L 394.776 593.766 L 404.728 589.196 L 414.029 593.353 L 422.939 589.196 L 424.032 591.123 L 432.28 591.212 L 434.696 595.474 L 437.112 591.212 L 444.735 599.44 L 445.896 598.187 L 448.741 603.206 Z " fill="rgb(111,169,213)"/><path d=" M 437.302 610.114 L 280.806 610.114 L 283.651 605.095 L 284.812 606.348 L 292.435 598.12 L 294.851 602.382 L 297.267 598.12 L 305.515 598.031 L 306.608 596.104 L 315.006 602.998 L 324.819 596.104 L 332.896 588.819 L 345.425 600.674 L 352.743 602.998 L 358.132 596.802 L 366.16 602.382 L 373.908 600.674 L 383.336 600.674 L 393.289 596.104 L 402.59 600.261 L 411.5 596.104 L 412.593 598.031 L 420.841 598.12 L 423.257 602.382 L 425.673 598.12 L 433.296 606.348 L 434.457 605.095 L 437.302 610.114 Z " fill="rgb(92,159,208)"/><path d=" M 411.5 603.206 L 255.004 603.206 L 257.849 598.187 L 259.01 599.44 L 266.633 591.212 L 269.049 595.474 L 271.465 591.212 L 279.713 591.123 L 280.806 589.196 L 289.204 596.09 L 299.017 589.196 L 307.094 581.911 L 319.623 593.766 L 326.941 596.09 L 332.33 589.894 L 340.358 595.474 L 348.106 593.766 L 357.535 593.766 L 367.487 589.196 L 376.788 593.353 L 385.698 589.196 L 386.791 591.123 L 395.039 591.212 L 397.455 595.474 L 399.871 591.212 L 407.494 599.44 L 408.655 598.187 L 411.5 603.206 Z " fill="rgb(92,159,208)"/><path d=" M 404.052 586.521 L 247.556 586.521 L 250.401 581.502 L 251.561 582.755 L 259.184 574.527 L 261.601 578.789 L 264.017 574.527 L 272.265 574.438 L 273.358 572.511 L 281.755 579.405 L 291.569 572.511 L 299.646 565.226 L 312.175 577.081 L 319.493 579.405 L 324.882 573.209 L 332.91 578.789 L 340.658 577.081 L 350.086 577.081 L 360.039 572.511 L 369.339 576.668 L 378.25 572.511 L 379.342 574.438 L 387.59 574.527 L 390.007 578.789 L 392.423 574.527 L 400.046 582.755 L 401.206 581.502 L 404.052 586.521 Z " fill="rgb(111,169,213)"/><path d=" M 394.226 565.226 L 237.73 565.226 L 240.576 560.207 L 241.736 561.46 L 249.359 553.232 L 251.775 557.494 L 254.191 553.232 L 262.44 553.143 L 263.532 551.216 L 271.93 558.11 L 281.743 551.216 L 289.821 543.931 L 302.349 555.786 L 309.667 558.11 L 315.057 551.914 L 323.085 557.494 L 330.833 555.786 L 340.261 555.786 L 350.213 551.216 L 359.514 555.373 L 368.424 551.216 L 369.517 553.143 L 377.765 553.232 L 380.181 557.494 L 382.598 553.232 L 390.221 561.46 L 391.381 560.207 L 394.226 565.226 Z " fill="rgb(92,159,208)"/><path d=" M 388.224 572.107 L 231.728 572.107 L 234.573 567.088 L 235.733 568.341 L 243.356 560.113 L 245.773 564.375 L 248.189 560.113 L 256.437 560.024 L 257.53 558.097 L 265.927 564.991 L 275.741 558.097 L 283.818 550.812 L 296.347 562.667 L 303.665 564.991 L 309.054 558.795 L 317.082 564.375 L 324.83 562.667 L 334.258 562.667 L 344.211 558.097 L 353.511 562.254 L 362.422 558.097 L 363.514 560.024 L 371.763 560.113 L 374.179 564.375 L 376.595 560.113 L 384.218 568.341 L 385.378 567.088 L 388.224 572.107 Z " fill="rgb(75,146,195)"/><path d=" M 376.787 592.559 L 220.291 592.559 L 223.137 587.54 L 224.297 588.792 L 231.92 580.564 L 234.336 584.826 L 236.753 580.564 L 245.001 580.476 L 246.093 578.549 L 254.491 585.442 L 264.304 578.549 L 272.382 571.264 L 284.91 583.119 L 292.228 585.442 L 297.618 579.246 L 305.646 584.826 L 313.394 583.119 L 322.822 583.119 L 332.774 578.549 L 342.075 582.705 L 350.985 578.549 L 352.078 580.476 L 360.326 580.564 L 362.743 584.826 L 365.159 580.564 L 372.782 588.792 L 373.942 587.54 L 376.787 592.559 Z " fill="rgb(77,148,196)"/><path d=" M 370.534 603.206 L 214.038 603.206 L 216.883 598.187 L 218.044 599.44 L 225.666 591.212 L 228.083 595.474 L 230.499 591.212 L 238.747 591.123 L 239.84 589.196 L 248.237 596.09 L 258.051 589.196 L 266.128 581.911 L 278.657 593.766 L 285.975 596.09 L 291.364 589.894 L 299.392 595.474 L 307.14 593.766 L 316.568 593.766 L 326.521 589.196 L 335.822 593.353 L 344.732 589.196 L 345.824 591.123 L 354.073 591.212 L 356.489 595.474 L 358.905 591.212 L 366.528 599.44 L 367.688 598.187 L 370.534 603.206 Z " fill="rgb(92,159,208)"/><path d=" M 365.03 613.854 L 208.534 613.854 L 211.38 608.835 L 212.54 610.087 L 220.163 601.86 L 222.579 606.122 L 224.996 601.86 L 233.244 601.771 L 234.336 599.844 L 242.734 606.737 L 252.547 599.844 L 260.625 592.559 L 273.153 604.414 L 280.471 606.737 L 285.861 600.541 L 293.889 606.122 L 301.637 604.414 L 311.065 604.414 L 321.017 599.844 L 330.318 604 L 339.228 599.844 L 340.321 601.771 L 348.569 601.86 L 350.985 606.122 L 353.402 601.86 L 361.025 610.087 L 362.185 608.835 L 365.03 613.854 Z " fill="rgb(111,169,213)"/><path d=" M 365.03 578.171 L 208.534 578.171 L 211.38 573.153 L 212.54 574.405 L 220.163 566.177 L 222.579 570.439 L 224.996 566.177 L 233.244 566.088 L 234.336 564.161 L 242.734 571.055 L 252.547 564.161 L 260.625 556.876 L 273.153 568.731 L 280.471 571.055 L 285.861 564.859 L 293.889 570.439 L 301.637 568.731 L 311.065 568.731 L 321.017 564.161 L 330.318 568.318 L 339.228 564.161 L 340.321 566.088 L 348.569 566.177 L 350.985 570.439 L 353.402 566.177 L 361.025 574.405 L 362.185 573.153 L 365.03 578.171 Z " fill="rgb(92,159,208)"/><path d=" M 362.614 567.524 L 206.118 567.524 L 208.963 562.505 L 210.124 563.757 L 217.747 555.53 L 220.163 559.792 L 222.579 555.53 L 230.827 555.441 L 231.92 553.514 L 240.318 560.407 L 250.131 553.514 L 258.208 546.229 L 270.737 558.084 L 278.055 560.407 L 283.444 554.211 L 291.472 559.792 L 299.22 558.084 L 308.649 558.084 L 318.601 553.514 L 327.902 557.67 L 336.812 553.514 L 337.905 555.441 L 346.153 555.53 L 348.569 559.792 L 350.985 555.53 L 358.608 563.757 L 359.769 562.505 L 362.614 567.524 Z " fill="rgb(75,146,195)"/><path d=" M 319.984 572.107 L 163.488 572.107 L 166.333 567.088 L 167.494 568.341 L 175.117 560.113 L 177.533 564.375 L 179.949 560.113 L 188.197 560.024 L 189.29 558.097 L 197.687 564.991 L 207.501 558.097 L 215.578 550.812 L 228.107 562.667 L 235.425 564.991 L 240.814 558.795 L 248.842 564.375 L 256.59 562.667 L 266.018 562.667 L 275.971 558.097 L 285.272 562.254 L 294.182 558.097 L 295.275 560.024 L 303.523 560.113 L 305.939 564.375 L 308.355 560.113 L 315.978 568.341 L 317.139 567.088 L 319.984 572.107 Z " fill="rgb(111,169,213)"/><path d=" M 304.35 565.527 L 147.854 565.527 L 150.699 560.508 L 151.859 561.76 L 159.482 553.533 L 161.899 557.795 L 164.315 553.533 L 172.563 553.444 L 173.656 551.517 L 182.053 558.411 L 191.867 551.517 L 199.944 544.232 L 212.473 556.087 L 219.791 558.411 L 225.18 552.214 L 233.208 557.795 L 240.956 556.087 L 250.384 556.087 L 260.337 551.517 L 269.637 555.673 L 278.548 551.517 L 279.64 553.444 L 287.889 553.533 L 290.305 557.795 L 292.721 553.533 L 300.344 561.76 L 301.504 560.508 L 304.35 565.527 Z " fill="rgb(76,146,195)"/><path d=" M 299.774 577.57 C 258.709 591.862 206.553 591.873 143.278 577.57 L 146.124 572.551 L 147.284 573.803 L 154.907 565.576 L 157.323 569.838 L 159.739 565.576 L 167.988 565.487 L 169.08 563.56 L 177.478 570.454 L 187.291 563.56 L 195.369 556.275 L 207.897 568.13 L 215.215 570.454 L 220.605 564.257 L 228.633 569.838 L 236.38 568.13 L 245.809 568.13 L 255.761 563.56 L 265.062 567.717 L 273.972 563.56 L 275.065 565.487 L 283.313 565.576 L 285.729 569.838 L 288.145 565.576 L 295.768 573.803 L 296.929 572.551 L 299.774 577.57 Z " fill="rgb(92,159,208)"/><path d=" M 290.464 592.559 L 133.968 592.559 L 136.813 587.54 L 137.973 588.792 L 145.596 580.564 L 148.013 584.826 L 150.429 580.564 L 158.677 580.476 L 159.77 578.549 L 168.167 585.442 L 177.981 578.549 L 186.058 571.264 L 198.587 583.119 L 205.905 585.442 L 211.294 579.246 L 219.322 584.826 L 227.07 583.119 L 236.498 583.119 L 246.451 578.549 L 255.751 582.705 L 264.662 578.549 L 265.754 580.476 L 274.002 580.564 L 276.419 584.826 L 278.835 580.564 L 286.458 588.792 L 287.618 587.54 L 290.464 592.559 Z " fill="rgb(111,169,213)"/><path d=" M 281.153 603.206 L 124.657 603.206 L 127.503 598.187 L 128.663 599.44 L 136.286 591.212 L 138.702 595.474 L 141.118 591.212 L 149.367 591.123 L 150.459 589.196 L 158.857 596.09 L 168.67 589.196 L 176.748 581.911 L 189.276 593.766 L 196.594 596.09 L 201.984 589.894 L 210.012 595.474 L 217.759 593.766 L 227.188 593.766 L 237.14 589.196 L 246.441 593.353 L 255.351 589.196 L 256.444 591.123 L 264.692 591.212 L 267.108 595.474 L 269.525 591.212 L 277.147 599.44 L 278.308 598.187 L 281.153 603.206 Z " fill="rgb(92,159,208)"/><path d=" M 271.843 608.225 L 115.347 608.225 L 118.192 603.206 L 119.352 604.459 L 126.975 596.231 L 129.392 600.493 L 131.808 596.231 L 140.056 596.142 L 141.149 594.215 L 149.546 601.109 L 159.36 594.215 L 167.437 586.93 L 179.966 598.785 L 187.284 601.109 L 192.673 594.913 L 200.701 600.493 L 208.449 598.785 L 217.877 598.785 L 227.83 594.215 L 237.13 598.372 L 246.041 594.215 L 247.133 596.142 L 255.381 596.231 L 257.798 600.493 L 260.214 596.231 L 267.837 604.459 L 268.997 603.206 L 271.843 608.225 Z " fill="rgb(111,169,213)"/><path d=" M 258.808 599.467 L 102.312 599.467 L 105.157 594.448 L 106.318 595.7 L 113.941 587.472 L 116.357 591.734 L 118.773 587.472 L 127.021 587.384 L 128.114 585.456 L 136.511 592.35 L 146.325 585.456 L 154.402 578.171 L 166.931 590.026 L 174.249 592.35 L 179.638 586.154 L 187.666 591.734 L 195.414 590.026 L 204.842 590.026 L 214.795 585.456 L 224.096 589.613 L 233.006 585.456 L 234.099 587.384 L 242.347 587.472 L 244.763 591.734 L 247.179 587.472 L 254.802 595.7 L 255.963 594.448 L 258.808 599.467 Z " fill="rgb(92,159,208)"/><path d=" M 249.497 592.559 L 93.001 592.559 L 95.847 587.54 L 97.007 588.792 L 104.63 580.564 L 107.046 584.826 L 109.463 580.564 L 117.711 580.476 L 118.803 578.549 L 127.201 585.442 L 137.014 578.549 L 145.092 571.264 L 157.62 583.119 L 164.938 585.442 L 170.328 579.246 L 178.356 584.826 L 186.104 583.119 L 195.532 583.119 L 205.484 578.549 L 214.785 582.705 L 223.695 578.549 L 224.788 580.476 L 233.036 580.564 L 235.453 584.826 L 237.869 580.564 L 245.492 588.792 L 246.652 587.54 L 249.497 592.559 Z " fill="rgb(92,159,208)"/><path d=" M 237.394 586.521 L 80.898 586.521 L 83.743 581.502 L 84.903 582.755 L 92.526 574.527 L 94.943 578.789 L 97.359 574.527 L 105.607 574.438 L 106.7 572.511 L 115.097 579.405 L 124.911 572.511 L 132.988 565.226 L 145.517 577.081 L 152.835 579.405 L 158.224 573.209 L 166.252 578.789 L 174 577.081 L 183.428 577.081 L 193.381 572.511 L 202.681 576.668 L 211.592 572.511 L 212.684 574.438 L 220.933 574.527 L 223.349 578.789 L 225.765 574.527 L 233.388 582.755 L 234.548 581.502 L 237.394 586.521 Z " fill="rgb(111,169,213)"/><path d=" M 309.976 610.114 L 153.48 610.114 L 156.325 605.095 L 157.486 606.348 L 165.108 598.12 L 167.525 602.382 L 169.941 598.12 L 178.189 598.031 L 179.282 596.104 L 187.679 602.998 L 197.493 596.104 L 205.57 588.819 L 218.099 600.674 L 225.417 602.998 L 230.806 596.802 L 238.834 602.382 L 246.582 600.674 L 256.01 600.674 L 265.963 596.104 L 275.263 600.261 L 284.174 596.104 L 285.266 598.031 L 293.515 598.12 L 295.931 602.382 L 298.347 598.12 L 305.97 606.348 L 307.13 605.095 L 309.976 610.114 Z " fill="rgb(75,146,195)"/><path d=" M 224.359 577.57 L 67.863 577.57 L 70.709 572.551 L 71.869 573.803 L 79.492 565.576 L 81.908 569.838 L 84.324 565.576 L 92.573 565.487 L 93.665 563.56 L 102.063 570.454 L 111.876 563.56 L 119.954 556.275 L 132.482 568.13 L 139.8 570.454 L 145.19 564.257 L 153.218 569.838 L 160.965 568.13 L 170.394 568.13 L 180.346 563.56 L 189.647 567.717 L 198.557 563.56 L 199.65 565.487 L 207.898 565.576 L 210.314 569.838 L 212.73 565.576 L 220.353 573.803 L 221.514 572.551 L 224.359 577.57 Z " fill="rgb(111,169,213)"/><path d=" M 204.807 575.874 L 48.311 575.874 L 51.157 570.855 L 52.317 572.107 L 59.94 563.879 L 62.356 568.141 L 64.772 563.879 L 73.02 563.791 L 74.113 561.864 L 82.511 568.757 L 92.324 561.864 L 100.401 554.579 L 112.93 566.434 L 120.248 568.757 L 125.638 562.561 L 133.665 568.141 L 141.413 566.434 L 150.842 566.434 L 160.794 561.864 L 170.095 566.02 L 179.005 561.864 L 180.098 563.791 L 188.346 563.879 L 190.762 568.141 L 193.178 563.879 L 200.801 572.107 L 201.962 570.855 L 204.807 575.874 Z " fill="rgb(92,159,208)"/><path d=" M 190.841 586.521 L 34.345 586.521 L 37.191 581.502 L 38.351 582.755 L 45.974 574.527 L 48.39 578.789 L 50.807 574.527 L 59.055 574.438 L 60.147 572.511 L 68.545 579.405 L 78.358 572.511 L 86.436 565.226 L 98.964 577.081 L 106.282 579.405 L 111.672 573.209 L 119.7 578.789 L 127.448 577.081 L 136.876 577.081 L 146.828 572.511 L 156.129 576.668 L 165.039 572.511 L 166.132 574.438 L 174.38 574.527 L 176.796 578.789 L 179.213 574.527 L 186.836 582.755 L 187.996 581.502 L 190.841 586.521 Z " fill="rgb(111,169,213)"/><path d=" M 186.186 588.819 L 29.69 588.819 L 32.536 583.8 L 33.696 585.052 L 41.319 576.825 L 43.735 581.087 L 46.151 576.825 L 54.4 576.736 L 55.492 574.809 L 63.89 581.703 L 73.703 574.809 L 81.78 567.524 L 94.309 579.379 L 101.627 581.703 L 107.017 575.506 L 115.044 581.087 L 122.792 579.379 L 132.221 579.379 L 142.173 574.809 L 151.474 578.966 L 160.384 574.809 L 161.477 576.736 L 169.725 576.825 L 172.141 581.087 L 174.557 576.825 L 182.18 585.052 L 183.341 583.8 L 186.186 588.819 Z " fill="rgb(111,169,213)"/><path d=" M 170.358 603.206 L 13.862 603.206 L 16.708 598.187 L 17.868 599.44 L 25.491 591.212 L 27.907 595.474 L 30.323 591.212 L 38.572 591.123 L 39.664 589.196 L 48.062 596.09 L 57.875 589.196 L 65.953 581.911 L 78.481 593.766 L 85.799 596.09 L 91.189 589.894 L 99.217 595.474 L 106.965 593.766 L 116.393 593.766 L 126.345 589.196 L 135.646 593.353 L 144.556 589.196 L 145.649 591.123 L 153.897 591.212 L 156.313 595.474 L 158.73 591.212 L 166.353 599.44 L 167.513 598.187 L 170.358 603.206 Z " fill="rgb(92,159,208)"/><path d=" M 164.772 608.225 L 8.276 608.225 L 11.121 603.206 L 12.282 604.459 L 19.905 596.231 L 22.321 600.493 L 24.737 596.231 L 32.985 596.142 L 34.078 594.215 L 42.476 601.109 L 52.289 594.215 L 60.366 586.93 L 72.895 598.785 L 80.213 601.109 L 85.602 594.913 L 93.63 600.493 L 101.378 598.785 L 110.806 598.785 L 120.759 594.215 L 130.06 598.372 L 138.97 594.215 L 140.063 596.142 L 148.311 596.231 L 150.727 600.493 L 153.143 596.231 L 160.766 604.459 L 161.927 603.206 L 164.772 608.225 Z " fill="rgb(92,159,208)"/><path d=" M 186.186 610.114 L 29.69 610.114 L 32.536 605.095 L 33.696 606.348 L 41.319 598.12 L 43.735 602.382 L 46.151 598.12 L 54.4 598.031 L 55.492 596.104 L 63.89 602.998 L 73.703 596.104 L 81.78 588.819 L 94.309 600.674 L 101.627 602.998 L 107.017 596.802 L 115.044 602.382 L 122.792 600.674 L 132.221 600.674 L 142.173 596.104 L 151.474 600.261 L 160.384 596.104 L 161.477 598.031 L 169.725 598.12 L 172.141 602.382 L 174.557 598.12 L 182.18 606.348 L 183.341 605.095 L 186.186 610.114 Z " fill="rgb(111,169,213)"/><path d=" M 204.807 614 L 48.311 614 L 51.157 608.981 L 52.317 610.233 L 59.94 602.006 L 62.356 606.268 L 64.772 602.006 L 73.02 601.917 L 74.113 599.99 L 82.511 606.884 L 92.324 599.99 L 100.401 592.705 L 112.93 604.56 L 120.248 606.884 L 125.638 600.687 L 133.665 606.268 L 141.413 604.56 L 150.842 604.56 L 160.794 599.99 L 170.095 604.147 L 179.005 599.99 L 180.098 601.917 L 188.346 602.006 L 190.762 606.268 L 193.178 602.006 L 200.801 610.233 L 201.962 608.981 L 204.807 614 Z " fill="rgb(111,169,213)"/><path d=" M 224.359 610.114 L 67.863 610.114 L 70.709 605.095 L 71.869 606.348 L 79.492 598.12 L 81.908 602.382 L 84.324 598.12 L 92.573 598.031 L 93.665 596.104 L 102.063 602.998 L 111.876 596.104 L 119.954 588.819 L 132.482 600.674 L 139.8 602.998 L 145.19 596.802 L 153.218 602.382 L 160.965 600.674 L 170.394 600.674 L 180.346 596.104 L 189.647 600.261 L 198.557 596.104 L 199.65 598.031 L 207.898 598.12 L 210.314 602.382 L 212.73 598.12 L 220.353 606.348 L 221.514 605.095 L 224.359 610.114 Z " fill="rgb(92,159,208)"/><path d=" M 237.394 613.854 L 80.898 613.854 L 83.743 608.835 L 84.903 610.087 L 92.526 601.86 L 94.943 606.122 L 97.359 601.86 L 105.607 601.771 L 106.7 599.844 L 115.097 606.737 L 124.911 599.844 L 132.988 592.559 L 145.517 604.414 L 152.835 606.737 L 158.224 600.541 L 166.252 606.122 L 174 604.414 L 183.428 604.414 L 193.381 599.844 L 202.681 604 L 211.592 599.844 L 212.684 601.771 L 220.933 601.86 L 223.349 606.122 L 225.765 601.86 L 233.388 610.087 L 234.548 608.835 L 237.394 613.854 Z " fill="rgb(111,169,213)"/><path d=" M 178.738 613.854 L 22.242 613.854 L 25.087 608.835 L 26.247 610.087 L 33.87 601.86 L 36.287 606.122 L 38.703 601.86 L 46.951 601.771 L 48.044 599.844 L 56.441 606.737 L 66.255 599.844 L 74.332 592.559 L 86.861 604.414 L 94.179 606.737 L 99.568 600.541 L 107.596 606.122 L 115.344 604.414 L 124.772 604.414 L 134.725 599.844 L 144.025 604 L 152.936 599.844 L 154.028 601.771 L 162.277 601.86 L 164.693 606.122 L 167.109 601.86 L 174.732 610.087 L 175.892 608.835 L 178.738 613.854 Z " fill="rgb(75,146,195)"/><path d=" M 165.703 586.521 L 9.207 586.521 L 12.052 581.502 L 13.213 582.755 L 20.836 574.527 L 23.252 578.789 L 25.668 574.527 L 33.916 574.438 L 35.009 572.511 L 43.407 579.405 L 53.22 572.511 L 61.297 565.226 L 73.826 577.081 L 81.144 579.405 L 86.533 573.209 L 94.561 578.789 L 102.309 577.081 L 111.737 577.081 L 121.69 572.511 L 130.991 576.668 L 139.901 572.511 L 140.994 574.438 L 149.242 574.527 L 151.658 578.789 L 154.074 574.527 L 161.697 582.755 L 162.858 581.502 L 165.703 586.521 Z " fill="rgb(76,147,196)"/></g></g><g style="mix-blend-mode:hard-light;"><linearGradient id="_lgradient_11" x1="50.07610350076103%" y1="0%" x2="50.076103500761036%" y2="100.44009197678854%"><stop offset="0%" stop-opacity="1" style="stop-color:rgb(232,225,226)"/><stop offset="41.37044341330134%" stop-opacity="1" style="stop-color:rgb(230,207,208)"/><stop offset="99.56521739130434%" stop-opacity="1" style="stop-color:rgb(90,151,199)"/></linearGradient><rect x="0" y="0" width="861" height="574" transform="matrix(1,0,0,1,0,0)" fill="url(#_lgradient_11)"/></g><g id="Group"><g id="mobirise logo paths"><path d=" M 340.9 289.95 C 340.9 282.885 346.635 277.15 353.7 277.15 C 360.765 277.15 366.5 282.885 366.5 289.95 C 366.5 297.014 360.765 302.75 353.7 302.75 C 346.635 302.75 340.9 297.014 340.9 289.95 Z  M 333.22 97.95 L 374.18 97.95 C 377.477 97.95 380.153 100.626 380.153 103.923 L 380.153 103.923 C 380.153 107.22 377.477 109.896 374.18 109.896 L 333.22 109.896 C 329.923 109.896 327.247 107.22 327.247 103.923 L 327.247 103.923 C 327.247 100.626 329.923 97.95 333.22 97.95 Z  M 296.64 72.35 L 411.563 72.35 C 421.987 72.35 430.449 80.813 430.449 91.236 L 430.449 309.463 C 430.449 319.887 421.987 328.35 411.563 328.35 L 296.64 328.35 C 286.216 328.35 277.753 319.887 277.753 309.463 L 277.753 91.236 C 277.753 80.813 286.216 72.35 296.64 72.35 Z  M 296.54 84.296 L 411.663 84.296 C 415.438 84.296 418.503 87.361 418.503 91.136 L 418.503 309.563 C 418.503 313.338 415.438 316.403 411.663 316.403 L 296.54 316.403 C 292.765 316.403 289.7 313.338 289.7 309.563 L 289.7 91.136 C 289.7 87.361 292.765 84.296 296.54 84.296 Z " fill-rule="evenodd" fill="rgb(255,51,102)"/><g id="sun"><path d=" M 462.381 136.418 C 460.793 136.435 459.274 135.821 458.131 134.728 C 457.005 133.619 456.356 132.1 456.339 130.513 C 456.322 128.926 456.936 127.407 458.046 126.28 C 459.155 125.137 460.674 124.488 462.244 124.471 L 463.609 124.471 C 463.626 124.471 463.661 124.471 463.678 124.471 C 472.928 124.454 482.075 126.332 490.575 129.984 C 498.801 133.517 506.259 138.62 512.539 144.985 C 525.493 158.161 532.763 175.927 532.729 194.411 C 532.763 212.894 525.493 230.643 512.539 243.819 C 506.259 250.201 498.801 255.304 490.575 258.837 C 482.075 262.472 472.928 264.35 463.678 264.35 C 463.661 264.35 463.626 264.35 463.609 264.35 L 462.244 264.333 C 460.657 264.316 459.138 263.667 458.046 262.541 C 456.936 261.414 456.322 259.878 456.339 258.291 C 456.356 256.721 457.005 255.202 458.131 254.093 C 459.257 252.983 460.793 252.369 462.381 252.386 L 463.712 252.403 C 471.323 252.403 478.867 250.85 485.864 247.863 C 492.657 244.928 498.835 240.712 504.023 235.439 C 514.775 224.499 520.817 209.754 520.783 194.411 C 520.817 179.068 514.775 164.305 504.023 153.365 C 498.835 148.092 492.657 143.876 485.864 140.958 C 478.867 137.954 471.323 136.418 463.712 136.418 L 462.381 136.418 Z " fill="rgb(255,51,102)"/><path d=" M 462.073 277.15 L 462.073 277.15 C 465.841 277.15 468.9 280.209 468.9 283.976 L 468.9 307.87 C 468.9 311.638 465.841 314.696 462.073 314.696 L 462.073 314.696 C 458.306 314.696 455.247 311.638 455.247 307.87 L 455.247 283.976 C 455.247 280.209 458.306 277.15 462.073 277.15 Z  M 522.66 298.462 L 522.66 298.462 C 519.397 300.346 515.218 299.226 513.335 295.964 L 501.388 275.271 C 499.504 272.008 500.624 267.83 503.887 265.946 L 503.887 265.946 C 507.15 264.062 511.328 265.182 513.212 268.445 L 525.159 289.137 C 527.043 292.4 525.923 296.578 522.66 298.462 Z  M 567.012 254.11 L 567.012 254.11 C 565.129 257.373 560.95 258.492 557.687 256.609 L 536.995 244.662 C 533.732 242.778 532.612 238.599 534.496 235.336 L 534.496 235.336 C 536.38 232.073 540.559 230.954 543.822 232.838 L 564.514 244.784 C 567.777 246.668 568.896 250.847 567.012 254.11 Z  M 583.247 193.523 L 583.247 193.523 C 583.247 197.291 580.188 200.35 576.42 200.35 L 552.527 200.35 C 548.759 200.35 545.7 197.291 545.7 193.523 L 545.7 193.523 C 545.7 189.755 548.759 186.696 552.527 186.696 L 576.42 186.696 C 580.188 186.696 583.247 189.755 583.247 193.523 Z  M 567.012 132.936 L 567.012 132.936 C 568.896 136.199 567.777 140.378 564.514 142.262 L 543.822 154.209 C 540.559 156.092 536.38 154.973 534.496 151.71 L 534.496 151.71 C 532.612 148.447 533.732 144.268 536.995 142.384 L 557.687 130.438 C 560.95 128.554 565.129 129.673 567.012 132.936 Z  M 522.66 88.584 L 522.66 88.584 C 525.923 90.468 527.043 94.646 525.159 97.909 L 513.212 118.602 C 511.328 121.864 507.15 122.984 503.887 121.1 L 503.887 121.1 C 500.624 119.216 499.504 115.038 501.388 111.775 L 513.335 91.083 C 515.218 87.82 519.397 86.7 522.66 88.584 Z  M 462.073 72.35 L 462.073 72.35 C 465.841 72.35 468.9 75.409 468.9 79.176 L 468.9 103.07 C 468.9 106.838 465.841 109.896 462.073 109.896 L 462.073 109.896 C 458.306 109.896 455.247 106.838 455.247 103.07 L 455.247 79.176 C 455.247 75.409 458.306 72.35 462.073 72.35 Z " fill-rule="evenodd" fill="rgb(255,51,102)"/></g></g><path d=" M 462.073 277.15 L 462.073 277.15 C 465.841 277.15 468.9 280.209 468.9 283.976 L 468.9 307.87 C 468.9 311.637 465.841 314.696 462.073 314.696 L 462.073 314.696 C 458.306 314.696 455.247 311.637 455.247 307.87 L 455.247 283.976 C 455.247 280.209 458.306 277.15 462.073 277.15 Z  M 522.66 298.462 L 522.66 298.462 C 519.397 300.346 515.218 299.226 513.335 295.964 L 501.388 275.271 C 499.504 272.008 500.624 267.83 503.887 265.946 L 503.887 265.946 C 507.15 264.062 511.328 265.182 513.212 268.445 L 525.159 289.137 C 527.043 292.4 525.923 296.578 522.66 298.462 Z  M 567.012 254.11 L 567.012 254.11 C 565.129 257.373 560.95 258.492 557.687 256.609 L 536.995 244.662 C 533.732 242.778 532.612 238.599 534.496 235.336 L 534.496 235.336 C 536.38 232.073 540.559 230.954 543.822 232.838 L 564.514 244.784 C 567.777 246.668 568.896 250.847 567.012 254.11 Z  M 583.247 193.523 L 583.247 193.523 C 583.247 197.291 580.188 200.35 576.42 200.35 L 552.527 200.35 C 548.759 200.35 545.7 197.291 545.7 193.523 L 545.7 193.523 C 545.7 189.755 548.759 186.696 552.527 186.696 L 576.42 186.696 C 580.188 186.696 583.247 189.755 583.247 193.523 Z  M 567.012 132.936 L 567.012 132.936 C 568.896 136.199 567.777 140.378 564.514 142.262 L 543.822 154.208 C 540.559 156.092 536.38 154.973 534.496 151.71 L 534.496 151.71 C 532.612 148.447 533.732 144.268 536.995 142.384 L 557.687 130.438 C 560.95 128.554 565.129 129.673 567.012 132.936 Z  M 522.66 88.584 L 522.66 88.584 C 525.923 90.468 527.043 94.646 525.159 97.909 L 513.212 118.602 C 511.328 121.865 507.15 122.984 503.887 121.1 L 503.887 121.1 C 500.624 119.216 499.504 115.038 501.388 111.775 L 513.335 91.083 C 515.218 87.82 519.397 86.7 522.66 88.584 Z  M 462.073 72.35 L 462.073 72.35 C 465.841 72.35 468.9 75.409 468.9 79.176 L 468.9 103.07 C 468.9 106.838 465.841 109.896 462.073 109.896 L 462.073 109.896 C 458.306 109.896 455.247 106.838 455.247 103.07 L 455.247 79.176 C 455.247 75.409 458.306 72.35 462.073 72.35 Z  M 462.381 136.418 C 460.793 136.435 459.274 135.821 458.131 134.728 C 457.005 133.619 456.356 132.1 456.339 130.513 C 456.322 128.926 456.936 127.407 458.046 126.28 C 459.155 125.137 460.674 124.488 462.244 124.471 L 463.609 124.471 C 463.626 124.471 463.661 124.471 463.678 124.471 C 472.928 124.454 482.075 126.332 490.575 129.984 C 498.801 133.517 506.259 138.62 512.54 144.985 C 525.493 158.161 532.763 175.927 532.729 194.411 C 532.763 212.894 525.493 230.643 512.54 243.819 C 506.259 250.201 498.801 255.304 490.575 258.837 C 482.075 262.472 472.928 264.35 463.678 264.35 C 463.661 264.35 463.626 264.35 463.609 264.35 L 462.244 264.333 C 460.657 264.316 459.138 263.667 458.046 262.541 C 456.936 261.414 456.322 259.878 456.339 258.291 C 456.356 256.721 457.005 255.202 458.131 254.093 C 459.257 252.983 460.793 252.369 462.381 252.386 L 463.712 252.403 C 471.324 252.403 478.867 250.85 485.864 247.863 C 492.657 244.928 498.835 240.712 504.023 235.439 C 514.775 224.499 520.817 209.754 520.783 194.411 C 520.817 179.068 514.775 164.305 504.023 153.365 C 498.835 148.092 492.657 143.876 485.864 140.958 C 478.867 137.954 471.324 136.418 463.712 136.418 L 462.381 136.418 Z  M 340.9 289.95 C 340.9 282.885 346.635 277.15 353.7 277.15 C 360.765 277.15 366.5 282.885 366.5 289.95 C 366.5 297.014 360.765 302.75 353.7 302.75 C 346.635 302.75 340.9 297.014 340.9 289.95 Z  M 333.22 97.95 L 374.18 97.95 C 377.477 97.95 380.153 100.626 380.153 103.923 L 380.153 103.923 C 380.153 107.22 377.477 109.896 374.18 109.896 L 333.22 109.896 C 329.923 109.896 327.247 107.22 327.247 103.923 L 327.247 103.923 C 327.247 100.626 329.923 97.95 333.22 97.95 Z  M 296.64 72.35 L 411.563 72.35 C 421.987 72.35 430.449 80.813 430.449 91.236 L 430.449 309.463 C 430.449 319.887 421.987 328.35 411.563 328.35 L 296.64 328.35 C 286.216 328.35 277.753 319.887 277.753 309.463 L 277.753 91.236 C 277.753 80.813 286.216 72.35 296.64 72.35 Z  M 296.54 84.296 L 411.663 84.296 C 415.438 84.296 418.503 87.361 418.503 91.136 L 418.503 309.563 C 418.503 313.338 415.438 316.403 411.663 316.403 L 296.54 316.403 C 292.765 316.403 289.7 313.338 289.7 309.563 L 289.7 91.136 C 289.7 87.361 292.765 84.296 296.54 84.296 Z " fill-rule="evenodd" fill="rgb(255,51,102)"/><path d=" M 323.126 414.328 L 318.574 414.328 L 302.093 371.265 L 301.827 371.265 L 301.827 371.265 Q 302.292 376.382 302.292 383.427 L 302.292 383.427 L 302.292 414.328 L 297.075 414.328 L 297.075 365.75 L 305.582 365.75 L 320.966 405.822 L 321.232 405.822 L 336.749 365.75 L 345.189 365.75 L 345.189 414.328 L 339.54 414.328 L 339.54 383.028 L 339.54 383.028 Q 339.54 377.645 340.005 371.332 L 340.005 371.332 L 339.739 371.332 L 323.126 414.328 Z  M 389.115 396.086 L 389.115 396.086 L 389.115 396.086 Q 389.115 404.991 384.63 409.992 L 384.63 409.992 L 384.63 409.992 Q 380.144 414.993 372.236 414.993 L 372.236 414.993 L 372.236 414.993 Q 367.351 414.993 363.563 412.7 L 363.563 412.7 L 363.563 412.7 Q 359.775 410.407 357.715 406.121 L 357.715 406.121 L 357.715 406.121 Q 355.655 401.835 355.655 396.086 L 355.655 396.086 L 355.655 396.086 Q 355.655 387.181 360.108 382.214 L 360.108 382.214 L 360.108 382.214 Q 364.56 377.246 372.468 377.246 L 372.468 377.246 L 372.468 377.246 Q 380.111 377.246 384.613 382.33 L 384.613 382.33 L 384.613 382.33 Q 389.115 387.414 389.115 396.086 Z  M 361.37 396.086 L 361.37 396.086 L 361.37 396.086 Q 361.37 403.064 364.162 406.719 L 364.162 406.719 L 364.162 406.719 Q 366.953 410.374 372.369 410.374 L 372.369 410.374 L 372.369 410.374 Q 377.785 410.374 380.592 406.736 L 380.592 406.736 L 380.592 406.736 Q 383.4 403.097 383.4 396.086 L 383.4 396.086 L 383.4 396.086 Q 383.4 389.142 380.592 385.537 L 380.592 385.537 L 380.592 385.537 Q 377.785 381.931 372.302 381.931 L 372.302 381.931 L 372.302 381.931 Q 366.886 381.931 364.128 385.487 L 364.128 385.487 L 364.128 385.487 Q 361.37 389.042 361.37 396.086 Z  M 415.73 377.313 L 415.73 377.313 L 415.73 377.313 Q 422.908 377.313 426.878 382.214 L 426.878 382.214 L 426.878 382.214 Q 430.849 387.115 430.849 396.086 L 430.849 396.086 L 430.849 396.086 Q 430.849 405.058 426.845 410.025 L 426.845 410.025 L 426.845 410.025 Q 422.841 414.993 415.73 414.993 L 415.73 414.993 L 415.73 414.993 Q 412.175 414.993 409.234 413.68 L 409.234 413.68 L 409.234 413.68 Q 406.294 412.368 404.3 409.643 L 404.3 409.643 L 403.901 409.643 L 402.739 414.328 L 398.784 414.328 L 398.784 362.626 L 404.3 362.626 L 404.3 375.186 L 404.3 375.186 Q 404.3 379.406 404.034 382.762 L 404.034 382.762 L 404.3 382.762 L 404.3 382.762 Q 408.155 377.313 415.73 377.313 Z  M 414.933 381.931 L 414.933 381.931 L 414.933 381.931 Q 409.284 381.931 406.792 385.171 L 406.792 385.171 L 406.792 385.171 Q 404.3 388.411 404.3 396.086 L 404.3 396.086 L 404.3 396.086 Q 404.3 403.762 406.859 407.068 L 406.859 407.068 L 406.859 407.068 Q 409.417 410.374 415.066 410.374 L 415.066 410.374 L 415.066 410.374 Q 420.15 410.374 422.642 406.669 L 422.642 406.669 L 422.642 406.669 Q 425.134 402.964 425.134 396.02 L 425.134 396.02 L 425.134 396.02 Q 425.134 388.909 422.642 385.42 L 422.642 385.42 L 422.642 385.42 Q 420.15 381.931 414.933 381.931 Z  M 446.001 377.911 L 446.001 414.328 L 440.485 414.328 L 440.485 377.911 L 446.001 377.911 Z  M 440.02 368.042 L 440.02 368.042 L 440.02 368.042 Q 440.02 366.148 440.95 365.268 L 440.95 365.268 L 440.95 365.268 Q 441.88 364.387 443.276 364.387 L 443.276 364.387 L 443.276 364.387 Q 444.605 364.387 445.569 365.285 L 445.569 365.285 L 445.569 365.285 Q 446.532 366.182 446.532 368.042 L 446.532 368.042 L 446.532 368.042 Q 446.532 369.903 445.569 370.817 L 445.569 370.817 L 445.569 370.817 Q 444.605 371.731 443.276 371.731 L 443.276 371.731 L 443.276 371.731 Q 441.88 371.731 440.95 370.817 L 440.95 370.817 L 440.95 370.817 Q 440.02 369.903 440.02 368.042 Z  M 474.31 377.246 L 474.31 377.246 L 474.31 377.246 Q 476.736 377.246 478.663 377.645 L 478.663 377.645 L 477.899 382.762 L 477.899 382.762 Q 475.639 382.264 473.912 382.264 L 473.912 382.264 L 473.912 382.264 Q 469.492 382.264 466.352 385.852 L 466.352 385.852 L 466.352 385.852 Q 463.212 389.441 463.212 394.79 L 463.212 394.79 L 463.212 414.328 L 457.697 414.328 L 457.697 377.911 L 462.249 377.911 L 462.88 384.656 L 463.146 384.656 L 463.146 384.656 Q 465.173 381.101 468.03 379.174 L 468.03 379.174 L 468.03 379.174 Q 470.888 377.246 474.31 377.246 Z  M 490.99 377.911 L 490.99 414.328 L 485.475 414.328 L 485.475 377.911 L 490.99 377.911 Z  M 485.01 368.042 L 485.01 368.042 L 485.01 368.042 Q 485.01 366.148 485.94 365.268 L 485.94 365.268 L 485.94 365.268 Q 486.87 364.387 488.266 364.387 L 488.266 364.387 L 488.266 364.387 Q 489.595 364.387 490.559 365.285 L 490.559 365.285 L 490.559 365.285 Q 491.522 366.182 491.522 368.042 L 491.522 368.042 L 491.522 368.042 Q 491.522 369.903 490.559 370.817 L 490.559 370.817 L 490.559 370.817 Q 489.595 371.731 488.266 371.731 L 488.266 371.731 L 488.266 371.731 Q 486.87 371.731 485.94 370.817 L 485.94 370.817 L 485.94 370.817 Q 485.01 369.903 485.01 368.042 Z  M 526.178 404.393 L 526.178 404.393 L 526.178 404.393 Q 526.178 409.477 522.39 412.235 L 522.39 412.235 L 522.39 412.235 Q 518.602 414.993 511.758 414.993 L 511.758 414.993 L 511.758 414.993 Q 504.514 414.993 500.46 412.7 L 500.46 412.7 L 500.46 407.583 L 500.46 407.583 Q 503.085 408.912 506.092 409.676 L 506.092 409.676 L 506.092 409.676 Q 509.099 410.441 511.891 410.441 L 511.891 410.441 L 511.891 410.441 Q 516.21 410.441 518.536 409.062 L 518.536 409.062 L 518.536 409.062 Q 520.862 407.683 520.862 404.858 L 520.862 404.858 L 520.862 404.858 Q 520.862 402.732 519.018 401.22 L 519.018 401.22 L 519.018 401.22 Q 517.174 399.708 511.824 397.648 L 511.824 397.648 L 511.824 397.648 Q 506.74 395.754 504.597 394.342 L 504.597 394.342 L 504.597 394.342 Q 502.454 392.93 501.407 391.135 L 501.407 391.135 L 501.407 391.135 Q 500.361 389.341 500.361 386.849 L 500.361 386.849 L 500.361 386.849 Q 500.361 382.397 503.982 379.822 L 503.982 379.822 L 503.982 379.822 Q 507.604 377.246 513.917 377.246 L 513.917 377.246 L 513.917 377.246 Q 519.799 377.246 525.414 379.639 L 525.414 379.639 L 523.454 384.124 L 523.454 384.124 Q 517.971 381.865 513.519 381.865 L 513.519 381.865 L 513.519 381.865 Q 509.598 381.865 507.604 383.094 L 507.604 383.094 L 507.604 383.094 Q 505.611 384.324 505.611 386.484 L 505.611 386.484 L 505.611 386.484 Q 505.611 387.946 506.358 388.976 L 506.358 388.976 L 506.358 388.976 Q 507.106 390.006 508.767 390.936 L 508.767 390.936 L 508.767 390.936 Q 510.429 391.866 515.147 393.627 L 515.147 393.627 L 515.147 393.627 Q 521.626 395.987 523.902 398.379 L 523.902 398.379 L 523.902 398.379 Q 526.178 400.771 526.178 404.393 Z  M 550.534 414.993 L 550.534 414.993 L 550.534 414.993 Q 542.46 414.993 537.791 410.075 L 537.791 410.075 L 537.791 410.075 Q 533.123 405.157 533.123 396.419 L 533.123 396.419 L 533.123 396.419 Q 533.123 387.613 537.459 382.43 L 537.459 382.43 L 537.459 382.43 Q 541.795 377.246 549.105 377.246 L 549.105 377.246 L 549.105 377.246 Q 555.95 377.246 559.937 381.749 L 559.937 381.749 L 559.937 381.749 Q 563.925 386.251 563.925 393.627 L 563.925 393.627 L 563.925 397.116 L 538.838 397.116 L 538.838 397.116 Q 539.004 403.529 542.078 406.852 L 542.078 406.852 L 542.078 406.852 Q 545.151 410.175 550.733 410.175 L 550.733 410.175 L 550.733 410.175 Q 556.615 410.175 562.363 407.716 L 562.363 407.716 L 562.363 412.634 L 562.363 412.634 Q 559.439 413.896 556.831 414.444 L 556.831 414.444 L 556.831 414.444 Q 554.222 414.993 550.534 414.993 Z  M 549.039 381.865 L 549.039 381.865 L 549.039 381.865 Q 544.653 381.865 542.044 384.723 L 542.044 384.723 L 542.044 384.723 Q 539.436 387.58 538.971 392.631 L 538.971 392.631 L 558.01 392.631 L 558.01 392.631 Q 558.01 387.414 555.684 384.639 L 555.684 384.639 L 555.684 384.639 Q 553.358 381.865 549.039 381.865 Z " fill-rule="evenodd" fill="rgb(255,51,102)"/><path d=" M 459.486 500.985 L 459.486 452.359 L 473.222 452.359 L 473.222 452.359 Q 482.901 452.359 487.225 455.253 L 487.225 455.253 L 487.225 455.253 Q 491.549 458.146 491.549 464.399 L 491.549 464.399 L 491.549 464.399 Q 491.549 468.723 489.137 471.533 L 489.137 471.533 L 489.137 471.533 Q 486.726 474.344 482.103 475.175 L 482.103 475.175 L 482.103 475.508 L 482.103 475.508 Q 493.178 477.404 493.178 487.149 L 493.178 487.149 L 493.178 487.149 Q 493.178 493.668 488.772 497.326 L 488.772 497.326 L 488.772 497.326 Q 484.365 500.985 476.449 500.985 L 476.449 500.985 L 459.486 500.985 Z  M 465.14 457.248 L 465.14 473.18 L 474.453 473.18 L 474.453 473.18 Q 480.44 473.18 483.067 471.3 L 483.067 471.3 L 483.067 471.3 Q 485.695 469.421 485.695 464.964 L 485.695 464.964 L 485.695 464.964 Q 485.695 460.873 482.768 459.061 L 482.768 459.061 L 482.768 459.061 Q 479.841 457.248 473.455 457.248 L 473.455 457.248 L 465.14 457.248 Z  M 474.819 477.969 L 465.14 477.969 L 465.14 496.162 L 475.285 496.162 L 475.285 496.162 Q 481.172 496.162 484.148 493.884 L 484.148 493.884 L 484.148 493.884 Q 487.125 491.606 487.125 486.75 L 487.125 486.75 L 487.125 486.75 Q 487.125 482.226 484.082 480.098 L 484.082 480.098 L 484.082 480.098 Q 481.039 477.969 474.819 477.969 L 474.819 477.969 Z  M 502.392 464.532 L 507.979 464.532 L 507.979 488.18 L 507.979 488.18 Q 507.979 492.637 510.008 494.832 L 510.008 494.832 L 510.008 494.832 Q 512.037 497.027 516.361 497.027 L 516.361 497.027 L 516.361 497.027 Q 522.081 497.027 524.726 493.901 L 524.726 493.901 L 524.726 493.901 Q 527.37 490.774 527.37 483.69 L 527.37 483.69 L 527.37 464.532 L 532.891 464.532 L 532.891 500.985 L 528.334 500.985 L 527.536 496.096 L 527.237 496.096 L 527.237 496.096 Q 525.54 498.79 522.53 500.22 L 522.53 500.22 L 522.53 500.22 Q 519.52 501.65 515.662 501.65 L 515.662 501.65 L 515.662 501.65 Q 509.01 501.65 505.701 498.491 L 505.701 498.491 L 505.701 498.491 Q 502.392 495.331 502.392 488.379 L 502.392 488.379 L 502.392 464.532 Z  M 550.12 464.532 L 550.12 500.985 L 544.598 500.985 L 544.598 464.532 L 550.12 464.532 Z  M 544.133 454.654 L 544.133 454.654 L 544.133 454.654 Q 544.133 452.758 545.064 451.877 L 545.064 451.877 L 545.064 451.877 Q 545.995 450.995 547.392 450.995 L 547.392 450.995 L 547.392 450.995 Q 548.723 450.995 549.687 451.893 L 549.687 451.893 L 549.687 451.893 Q 550.652 452.791 550.652 454.654 L 550.652 454.654 L 550.652 454.654 Q 550.652 456.516 549.687 457.431 L 549.687 457.431 L 549.687 457.431 Q 548.723 458.346 547.392 458.346 L 547.392 458.346 L 547.392 458.346 Q 545.995 458.346 545.064 457.431 L 545.064 457.431 L 545.064 457.431 Q 544.133 456.516 544.133 454.654 Z  M 567.348 449.232 L 567.348 500.985 L 561.827 500.985 L 561.827 449.232 L 567.348 449.232 Z  M 604.6 500.985 L 603.868 496.096 L 603.568 496.096 L 603.568 496.096 Q 599.744 501.65 592.127 501.65 L 592.127 501.65 L 592.127 501.65 Q 584.976 501.65 581.002 496.761 L 581.002 496.761 L 581.002 496.761 Q 577.027 491.872 577.027 482.858 L 577.027 482.858 L 577.027 482.858 Q 577.027 473.845 581.018 468.856 L 581.018 468.856 L 581.018 468.856 Q 585.009 463.867 592.127 463.867 L 592.127 463.867 L 592.127 463.867 Q 599.544 463.867 603.502 469.255 L 603.502 469.255 L 603.934 469.255 L 603.702 466.627 L 603.568 464.066 L 603.568 449.232 L 609.09 449.232 L 609.09 500.985 L 604.6 500.985 Z  M 592.826 497.027 L 592.826 497.027 L 592.826 497.027 Q 598.48 497.027 601.024 493.951 L 601.024 493.951 L 601.024 493.951 Q 603.568 490.874 603.568 484.022 L 603.568 484.022 L 603.568 482.858 L 603.568 482.858 Q 603.568 475.109 600.991 471.799 L 600.991 471.799 L 600.991 471.799 Q 598.413 468.49 592.759 468.49 L 592.759 468.49 L 592.759 468.49 Q 587.903 468.49 585.325 472.265 L 585.325 472.265 L 585.325 472.265 Q 582.748 476.04 582.748 482.925 L 582.748 482.925 L 582.748 482.925 Q 582.748 489.909 585.309 493.468 L 585.309 493.468 L 585.309 493.468 Q 587.87 497.027 592.826 497.027 Z  M 636.197 501.65 L 636.197 501.65 L 636.197 501.65 Q 628.114 501.65 623.441 496.728 L 623.441 496.728 L 623.441 496.728 Q 618.768 491.805 618.768 483.058 L 618.768 483.058 L 618.768 483.058 Q 618.768 474.244 623.109 469.055 L 623.109 469.055 L 623.109 469.055 Q 627.449 463.867 634.766 463.867 L 634.766 463.867 L 634.766 463.867 Q 641.618 463.867 645.609 468.374 L 645.609 468.374 L 645.609 468.374 Q 649.6 472.88 649.6 480.264 L 649.6 480.264 L 649.6 483.756 L 624.489 483.756 L 624.489 483.756 Q 624.655 490.176 627.732 493.502 L 627.732 493.502 L 627.732 493.502 Q 630.808 496.828 636.396 496.828 L 636.396 496.828 L 636.396 496.828 Q 642.283 496.828 648.037 494.366 L 648.037 494.366 L 648.037 499.289 L 648.037 499.289 Q 645.11 500.553 642.499 501.101 L 642.499 501.101 L 642.499 501.101 Q 639.888 501.65 636.197 501.65 Z  M 634.7 468.49 L 634.7 468.49 L 634.7 468.49 Q 630.31 468.49 627.699 471.35 L 627.699 471.35 L 627.699 471.35 Q 625.088 474.211 624.622 479.266 L 624.622 479.266 L 643.68 479.266 L 643.68 479.266 Q 643.68 474.044 641.352 471.267 L 641.352 471.267 L 641.352 471.267 Q 639.024 468.49 634.7 468.49 Z  M 675.643 463.867 L 675.643 463.867 L 675.643 463.867 Q 678.071 463.867 680 464.266 L 680 464.266 L 679.235 469.388 L 679.235 469.388 Q 676.973 468.889 675.244 468.889 L 675.244 468.889 L 675.244 468.889 Q 670.82 468.889 667.677 472.481 L 667.677 472.481 L 667.677 472.481 Q 664.534 476.073 664.534 481.428 L 664.534 481.428 L 664.534 500.985 L 659.013 500.985 L 659.013 464.532 L 663.57 464.532 L 664.201 471.284 L 664.468 471.284 L 664.468 471.284 Q 666.496 467.725 669.357 465.796 L 669.357 465.796 L 669.357 465.796 Q 672.217 463.867 675.643 463.867 Z  M 242.232 452.359 L 229.227 500.985 L 223.639 500.985 L 213.828 468.423 L 213.828 468.423 Q 213.129 466.262 212.264 462.969 L 212.264 462.969 L 212.264 462.969 Q 211.4 459.676 211.366 459.011 L 211.366 459.011 L 211.366 459.011 Q 210.635 463.401 209.038 468.623 L 209.038 468.623 L 199.526 500.985 L 193.938 500.985 L 181 452.359 L 186.987 452.359 L 194.67 482.393 L 194.67 482.393 Q 196.266 488.712 196.998 493.834 L 196.998 493.834 L 196.998 493.834 Q 197.896 487.748 199.659 481.927 L 199.659 481.927 L 208.373 452.359 L 214.36 452.359 L 223.506 482.193 L 223.506 482.193 Q 225.103 487.348 226.2 493.834 L 226.2 493.834 L 226.2 493.834 Q 226.832 489.111 228.595 482.326 L 228.595 482.326 L 236.245 452.359 L 242.232 452.359 Z  M 264.416 501.65 L 264.416 501.65 L 264.416 501.65 Q 256.334 501.65 251.661 496.728 L 251.661 496.728 L 251.661 496.728 Q 246.988 491.805 246.988 483.058 L 246.988 483.058 L 246.988 483.058 Q 246.988 474.244 251.328 469.055 L 251.328 469.055 L 251.328 469.055 Q 255.669 463.867 262.986 463.867 L 262.986 463.867 L 262.986 463.867 Q 269.837 463.867 273.829 468.374 L 273.829 468.374 L 273.829 468.374 Q 277.82 472.88 277.82 480.264 L 277.82 480.264 L 277.82 483.756 L 252.709 483.756 L 252.709 483.756 Q 252.875 490.176 255.951 493.502 L 255.951 493.502 L 255.951 493.502 Q 259.028 496.828 264.616 496.828 L 264.616 496.828 L 264.616 496.828 Q 270.503 496.828 276.257 494.366 L 276.257 494.366 L 276.257 499.289 L 276.257 499.289 Q 273.33 500.553 270.719 501.101 L 270.719 501.101 L 270.719 501.101 Q 268.108 501.65 264.416 501.65 Z  M 262.919 468.49 L 262.919 468.49 L 262.919 468.49 Q 258.529 468.49 255.918 471.35 L 255.918 471.35 L 255.918 471.35 Q 253.307 474.211 252.842 479.266 L 252.842 479.266 L 271.9 479.266 L 271.9 479.266 Q 271.9 474.044 269.571 471.267 L 269.571 471.267 L 269.571 471.267 Q 267.243 468.49 262.919 468.49 Z  M 304.195 463.933 L 304.195 463.933 L 304.195 463.933 Q 311.379 463.933 315.354 468.839 L 315.354 468.839 L 315.354 468.839 Q 319.328 473.745 319.328 482.725 L 319.328 482.725 L 319.328 482.725 Q 319.328 491.705 315.321 496.678 L 315.321 496.678 L 315.321 496.678 Q 311.313 501.65 304.195 501.65 L 304.195 501.65 L 304.195 501.65 Q 300.636 501.65 297.693 500.336 L 297.693 500.336 L 297.693 500.336 Q 294.749 499.023 292.754 496.295 L 292.754 496.295 L 292.355 496.295 L 291.19 500.985 L 287.232 500.985 L 287.232 449.232 L 292.754 449.232 L 292.754 461.805 L 292.754 461.805 Q 292.754 466.029 292.488 469.388 L 292.488 469.388 L 292.754 469.388 L 292.754 469.388 Q 296.612 463.933 304.195 463.933 Z  M 303.397 468.557 L 303.397 468.557 L 303.397 468.557 Q 297.743 468.557 295.248 471.799 L 295.248 471.799 L 295.248 471.799 Q 292.754 475.042 292.754 482.725 L 292.754 482.725 L 292.754 482.725 Q 292.754 490.408 295.315 493.718 L 295.315 493.718 L 295.315 493.718 Q 297.876 497.027 303.53 497.027 L 303.53 497.027 L 303.53 497.027 Q 308.619 497.027 311.113 493.319 L 311.113 493.319 L 311.113 493.319 Q 313.608 489.61 313.608 482.659 L 313.608 482.659 L 313.608 482.659 Q 313.608 475.541 311.113 472.049 L 311.113 472.049 L 311.113 472.049 Q 308.619 468.557 303.397 468.557 Z  M 352.489 491.04 L 352.489 491.04 L 352.489 491.04 Q 352.489 496.129 348.697 498.89 L 348.697 498.89 L 348.697 498.89 Q 344.905 501.65 338.054 501.65 L 338.054 501.65 L 338.054 501.65 Q 330.803 501.65 326.745 499.355 L 326.745 499.355 L 326.745 494.233 L 326.745 494.233 Q 329.373 495.564 332.383 496.329 L 332.383 496.329 L 332.383 496.329 Q 335.393 497.094 338.187 497.094 L 338.187 497.094 L 338.187 497.094 Q 342.511 497.094 344.839 495.713 L 344.839 495.713 L 344.839 495.713 Q 347.167 494.333 347.167 491.506 L 347.167 491.506 L 347.167 491.506 Q 347.167 489.377 345.321 487.864 L 345.321 487.864 L 345.321 487.864 Q 343.475 486.351 338.12 484.289 L 338.12 484.289 L 338.12 484.289 Q 333.032 482.393 330.886 480.979 L 330.886 480.979 L 330.886 480.979 Q 328.741 479.566 327.693 477.77 L 327.693 477.77 L 327.693 477.77 Q 326.646 475.974 326.646 473.479 L 326.646 473.479 L 326.646 473.479 Q 326.646 469.022 330.271 466.445 L 330.271 466.445 L 330.271 466.445 Q 333.896 463.867 340.216 463.867 L 340.216 463.867 L 340.216 463.867 Q 346.103 463.867 351.724 466.262 L 351.724 466.262 L 349.761 470.752 L 349.761 470.752 Q 344.273 468.49 339.817 468.49 L 339.817 468.49 L 339.817 468.49 Q 335.892 468.49 333.896 469.721 L 333.896 469.721 L 333.896 469.721 Q 331.901 470.951 331.901 473.113 L 331.901 473.113 L 331.901 473.113 Q 331.901 474.577 332.649 475.608 L 332.649 475.608 L 332.649 475.608 Q 333.397 476.639 335.06 477.57 L 335.06 477.57 L 335.06 477.57 Q 336.723 478.501 341.446 480.264 L 341.446 480.264 L 341.446 480.264 Q 347.932 482.626 350.21 485.02 L 350.21 485.02 L 350.21 485.02 Q 352.489 487.415 352.489 491.04 Z  M 366.99 464.532 L 366.99 500.985 L 361.469 500.985 L 361.469 464.532 L 366.99 464.532 Z  M 361.003 454.654 L 361.003 454.654 L 361.003 454.654 Q 361.003 452.758 361.934 451.877 L 361.934 451.877 L 361.934 451.877 Q 362.866 450.995 364.263 450.995 L 364.263 450.995 L 364.263 450.995 Q 365.593 450.995 366.558 451.893 L 366.558 451.893 L 366.558 451.893 Q 367.522 452.791 367.522 454.654 L 367.522 454.654 L 367.522 454.654 Q 367.522 456.516 366.558 457.431 L 366.558 457.431 L 366.558 457.431 Q 365.593 458.346 364.263 458.346 L 364.263 458.346 L 364.263 458.346 Q 362.866 458.346 361.934 457.431 L 361.934 457.431 L 361.934 457.431 Q 361.003 456.516 361.003 454.654 Z  M 390.472 497.094 L 390.472 497.094 L 390.472 497.094 Q 391.935 497.094 393.299 496.877 L 393.299 496.877 L 393.299 496.877 Q 394.662 496.661 395.461 496.428 L 395.461 496.428 L 395.461 500.652 L 395.461 500.652 Q 394.563 501.085 392.816 501.368 L 392.816 501.368 L 392.816 501.368 Q 391.07 501.65 389.673 501.65 L 389.673 501.65 L 389.673 501.65 Q 379.097 501.65 379.097 490.508 L 379.097 490.508 L 379.097 468.823 L 373.875 468.823 L 373.875 466.162 L 379.097 463.867 L 381.425 456.084 L 384.618 456.084 L 384.618 464.532 L 395.194 464.532 L 395.194 468.823 L 384.618 468.823 L 384.618 490.275 L 384.618 490.275 Q 384.618 493.568 386.181 495.331 L 386.181 495.331 L 386.181 495.331 Q 387.744 497.094 390.472 497.094 Z  M 418.144 501.65 L 418.144 501.65 L 418.144 501.65 Q 410.062 501.65 405.389 496.728 L 405.389 496.728 L 405.389 496.728 Q 400.716 491.805 400.716 483.058 L 400.716 483.058 L 400.716 483.058 Q 400.716 474.244 405.056 469.055 L 405.056 469.055 L 405.056 469.055 Q 409.397 463.867 416.714 463.867 L 416.714 463.867 L 416.714 463.867 Q 423.565 463.867 427.556 468.374 L 427.556 468.374 L 427.556 468.374 Q 431.548 472.88 431.548 480.264 L 431.548 480.264 L 431.548 483.756 L 406.436 483.756 L 406.436 483.756 Q 406.603 490.176 409.679 493.502 L 409.679 493.502 L 409.679 493.502 Q 412.756 496.828 418.343 496.828 L 418.343 496.828 L 418.343 496.828 Q 424.23 496.828 429.984 494.366 L 429.984 494.366 L 429.984 499.289 L 429.984 499.289 Q 427.058 500.553 424.447 501.101 L 424.447 501.101 L 424.447 501.101 Q 421.836 501.65 418.144 501.65 Z  M 416.647 468.49 L 416.647 468.49 L 416.647 468.49 Q 412.257 468.49 409.646 471.35 L 409.646 471.35 L 409.646 471.35 Q 407.035 474.211 406.569 479.266 L 406.569 479.266 L 425.627 479.266 L 425.627 479.266 Q 425.627 474.044 423.299 471.267 L 423.299 471.267 L 423.299 471.267 Q 420.971 468.49 416.647 468.49 Z " fill-rule="evenodd" fill="rgb(255,51,102)"/></g></g></svg>