<?xml version="1.0" encoding="UTF-8" standalone="no"?><!-- Generator: Gravit.io --><svg xmlns="http://www.w3.org/2000/svg" xmlns:xlink="http://www.w3.org/1999/xlink" style="isolation:isolate" viewBox="0 0 500 500" width="500pt" height="500pt"><defs><clipPath id="_clipPath_ri8kdASFPEfJbDMMSkkCkl9iEJa2kHVM"><rect width="500" height="500"/></clipPath></defs><g clip-path="url(#_clipPath_ri8kdASFPEfJbDMMSkkCkl9iEJa2kHVM)"><linearGradient id="_lgradient_1" x1="1.0227272727272725" y1="-0.02272727272727293" x2="-0.022727272727272485" y2="1.0227272727272723" gradientTransform="matrix(501,0,0,500,0,0)" gradientUnits="userSpaceOnUse"><stop offset="2.1739130434782608%" stop-opacity="1" style="stop-color:rgb(29,67,89)"/><stop offset="97.82608695652173%" stop-opacity="1" style="stop-color:rgb(80,198,238)"/></linearGradient><rect x="0" y="0" width="501" height="500" transform="matrix(1,0,0,1,0,0)" fill="url(#_lgradient_1)"/><g><path d=" M 149.417 281.588 L 99.066 288.951 L 91.703 313.889 L 96.928 315.551 L 149.417 281.588 Z " fill="rgb(80,198,238)"/><path d=" M 191.693 288.951 L 149.417 281.588 L 112.366 305.576 L 165.567 378.015 L 206.655 332.414 L 191.693 288.951 Z " fill="rgb(80,184,220)"/><path d=" M 114.504 319.589 L 111.891 305.576 L 112.366 305.576 L 119.254 314.839 L 114.504 319.589 Z " fill="rgb(40,125,169)"/><path d=" M 96.928 315.551 L 114.029 320.301 L 114.504 319.589 L 111.891 305.576 L 96.928 315.551 Z " fill="rgb(74,168,197)"/><path d=" M 121.866 138.61 L 147.517 149.298 L 191.693 288.951 L 179.58 286.813 L 121.866 138.61 Z " fill="rgb(95,206,238)"/><path d=" M 268.882 256.888 Q 233.058 299.863 165.567 378.015 L 251.544 364.24 L 242.756 315.551 Q 306.503 221.056 307.832 203.449 C 305.059 208.09 288.285 233.611 268.882 256.888 Z " fill="rgb(54,117,141)"/><path d=" M 204.28 334.789 L 141.104 129.585 Q 248.427 175.92 307.832 203.449 Q 288.731 238.175 204.28 334.789 Z " fill="rgb(29,67,89)"/><path d=" M 140.392 121.985 Q 140.544 124.664 141.104 129.585 L 307.832 203.449 Q 308.189 201.552 306.407 200.124 C 304.625 198.696 178.155 128.16 140.392 121.985 Z " fill="rgb(9,109,162)"/><path d=" M 408.297 334.789 L 400.221 340.964 L 322.558 325.764 L 321.37 317.926 L 408.297 334.789 Z " fill="rgb(77,187,224)"/><path d=" M 242.756 315.551 L 251.544 369.702 L 400.221 340.964 Q 380.918 332.624 348.921 328.139 Q 337.617 327.581 242.756 315.551 Z " fill="rgb(64,147,179)"/><path d=" M 242.756 315.551 L 322.558 325.764 L 307.832 203.449 L 242.756 315.551 Z " fill="rgb(50,88,106)"/></g></g></svg>