<?xml version="1.0" encoding="UTF-8" standalone="no"?><!-- Generator: Gravit.io --><svg xmlns="http://www.w3.org/2000/svg" xmlns:xlink="http://www.w3.org/1999/xlink" style="isolation:isolate" viewBox="0 0 1620 1080" width="1620pt" height="1080pt"><defs><clipPath id="_clipPath_EZbsvo0XiIYFBeF6OeDICIyCl8ezOLtp"><rect width="1620" height="1080"/></clipPath></defs><g clip-path="url(#_clipPath_EZbsvo0XiIYFBeF6OeDICIyCl8ezOLtp)"><rect width="1620" height="1080" style="fill:rgb(254,81,41)"/><path d=" M 467.601 346.9 C 470.601 347.1 477.601 347.5 483.101 347.8 C 488.601 348.1 496.501 349 500.601 349.7 C 504.701 350.5 511.601 352.1 515.901 353.2 C 520.101 354.4 527.301 357 531.801 359.1 C 536.401 361.2 542.801 364.9 546.101 367.4 C 549.401 370 554.501 374.7 557.401 377.9 C 560.601 381.4 564.301 387.1 566.601 391.8 C 568.601 396.2 571.101 403.4 572.101 407.8 C 573.301 413.1 573.901 419.9 573.901 427.8 C 573.901 435.5 573.301 442.3 572.201 446.8 C 571.301 450.6 569.901 455.1 569.101 456.8 C 568.401 458.4 566.801 462 565.601 464.8 C 564.401 467.5 561.501 472.3 559.101 475.3 C 556.801 478.3 551.501 483.9 547.401 487.8 C 543.301 491.6 535.801 497.3 530.701 500.3 C 525.701 503.3 521.601 506 521.601 506.3 C 521.601 506.6 525.001 511.7 529.101 517.8 C 533.301 523.8 539.001 532.2 541.801 536.3 C 544.601 540.4 548.901 546.5 551.301 549.8 C 553.701 553.1 561.701 564.3 569.001 574.8 C 576.401 585.3 582.501 594.7 582.701 595.8 C 583.101 597.8 582.501 597.8 547.601 598.1 C 514.501 598.4 512.001 598.3 510.501 596.6 C 509.601 595.6 503.601 585.3 497.101 573.8 C 490.601 562.2 483.701 550.1 481.601 546.8 C 479.601 543.5 475.601 536.5 472.801 531.3 C 469.901 526.1 466.501 520.4 465.201 518.8 C 462.801 515.8 462.601 515.8 451.901 515.5 C 445.601 515.3 439.901 515.6 435.601 517.3 L 435.101 597.8 L 402.601 598 C 377.601 598.2 369.901 598 369.401 597 C 369.001 596.4 368.601 542 368.601 476.3 C 368.501 379.8 368.801 356.6 369.801 355.6 C 370.501 354.9 374.901 353.9 379.601 353.4 C 384.301 352.8 396.201 351.5 406.101 350.4 C 416.001 349.2 432.701 347.9 443.101 347.4 C 453.501 347 464.601 346.7 467.601 346.9 L 467.601 346.9 L 467.601 346.9 Z  M 1187.901 349 C 1188.401 349.2 1188.701 358.6 1188.701 371.6 C 1188.501 391.3 1188.701 394 1190.201 395.3 C 1191.601 396.5 1196.101 396.9 1214.001 397.1 C 1226.201 397.2 1236.301 397.6 1236.601 397.9 C 1236.901 398.2 1237.301 408.2 1237.501 420.1 C 1237.701 434.7 1237.501 442.5 1236.701 444 C 1235.601 446.3 1235.401 446.3 1213.301 446.3 C 1196.801 446.3 1190.701 446.6 1189.801 447.5 C 1188.901 448.5 1188.601 457.7 1188.601 484.3 C 1188.701 509.9 1189.001 521.3 1190.001 525.3 C 1190.701 528.3 1191.801 531.7 1192.401 532.8 C 1192.901 533.9 1194.501 535.7 1195.801 536.9 C 1197.001 538.1 1200.101 539.8 1202.601 540.8 C 1206.201 542.3 1209.601 542.6 1219.101 542.5 C 1225.901 542.5 1234.301 541.8 1238.401 540.9 C 1242.301 540 1246.301 539.5 1247.101 539.8 C 1248.401 540.2 1248.601 544.4 1248.601 597.3 L 1243.901 598.8 C 1241.201 599.6 1234.801 600.9 1229.601 601.7 C 1224.401 602.5 1215.701 603.6 1210.401 604.2 C 1205.001 604.8 1195.801 605.3 1189.901 605.3 C 1183.901 605.3 1175.801 604.6 1171.901 603.8 C 1167.901 603 1162.201 601.4 1159.401 600.3 C 1156.501 599.3 1150.901 596.2 1147.101 593.5 C 1143.201 590.8 1137.801 585.8 1135.001 582.2 C 1132.201 578.7 1129.201 574.4 1128.301 572.8 C 1127.501 571.2 1125.901 567.3 1124.801 564.3 C 1123.701 561.3 1122.001 556 1121.201 552.5 C 1119.801 547.1 1119.601 535.1 1119.601 458.5 C 1119.601 410.3 1120.001 370.3 1120.401 369.7 C 1120.801 369.2 1123.101 368 1125.601 367.1 C 1128.101 366.2 1133.501 364.5 1137.601 363.3 C 1141.701 362.1 1146.901 360.5 1149.101 359.8 C 1151.301 359.1 1159.601 356.6 1167.601 354.3 C 1175.601 352 1183.201 349.8 1184.501 349.4 C 1185.801 348.9 1187.301 348.8 1187.901 349 L 1187.901 349 L 1187.901 349 Z  M 709.901 378.4 C 711.901 378.4 718.001 378.8 723.401 379.3 C 728.701 379.9 736.301 381 740.101 381.8 C 744.001 382.6 750.001 384.2 753.601 385.4 C 757.201 386.5 763.001 388.8 766.601 390.5 C 770.201 392.2 776.701 395.9 781.101 398.8 C 785.501 401.7 792.501 407.3 796.601 411.4 C 800.701 415.5 806.201 422 808.701 425.8 C 811.301 429.7 814.301 434.6 815.401 436.8 C 816.501 439 818.401 443.3 819.601 446.3 C 820.801 449.3 822.501 454 823.201 456.8 C 824.001 459.5 825.301 465.2 826.101 469.3 C 827.101 474.1 827.601 482.7 827.601 492.8 C 827.601 502.4 827.001 512 826.101 516.8 C 825.301 521.2 824.001 527 823.201 529.8 C 822.501 532.5 820.901 537.3 819.601 540.3 C 818.401 543.3 816.001 548.3 814.301 551.3 C 812.601 554.3 809.401 559.3 807.301 562.3 C 805.101 565.3 801.301 570 798.701 572.7 C 796.201 575.3 791.001 580.1 787.101 583.2 C 783.301 586.3 776.101 590.9 771.101 593.5 C 766.201 596 759.201 599.1 755.601 600.3 C 752.001 601.5 747.301 602.9 745.101 603.5 C 742.901 604 737.501 605 733.101 605.9 C 728.701 606.7 720.401 607.5 714.601 607.7 C 708.601 608 699.801 607.6 694.101 606.8 C 688.601 606.1 681.601 604.8 678.601 603.9 C 675.601 603.1 670.401 601.5 667.101 600.4 C 663.801 599.3 657.501 596.6 653.101 594.4 C 648.701 592.1 644.201 589.7 643.101 589.1 C 642.001 588.4 638.401 585.7 635.101 583.2 C 631.801 580.6 626.201 575.5 622.601 571.7 C 619.001 567.9 614.001 561.4 611.401 557.3 C 608.801 553.2 605.101 546 603.301 541.3 C 601.401 536.6 598.901 528.9 597.801 524 C 596.601 519.2 595.201 510.2 594.801 504 C 594.401 497.9 594.401 487.8 594.801 481.8 C 595.201 475.7 596.101 468.5 596.701 465.8 C 597.301 463 598.301 459.2 598.901 457.3 C 599.401 455.4 600.801 451.3 601.901 448.3 C 602.901 445.3 604.901 440.5 606.301 437.8 C 607.701 435 611.001 429.7 613.701 425.8 C 616.301 421.9 620.201 417 622.301 414.8 C 624.501 412.6 628.201 409 630.701 406.8 C 633.101 404.6 637.601 401 640.601 398.9 C 643.601 396.7 650.201 393.1 655.101 390.8 C 660.101 388.5 667.301 385.7 671.101 384.6 C 675.001 383.4 680.401 382 683.101 381.4 C 685.901 380.8 692.201 379.9 697.101 379.4 C 702.101 379 707.801 378.5 709.901 378.4 L 709.901 378.4 L 709.901 378.4 Z  M 965.101 378.4 C 965.701 378.4 972.201 378.8 979.601 379.3 C 987.001 379.9 995.401 380.8 998.101 381.4 C 1000.901 382.1 1006.001 383.5 1009.601 384.5 C 1013.201 385.5 1020.001 388.2 1024.901 390.4 C 1029.701 392.5 1037.701 397.2 1042.601 400.8 C 1047.601 404.4 1054.201 410 1057.401 413.4 C 1060.501 416.7 1065.101 422.3 1067.501 425.6 C 1069.901 429 1073.301 434.9 1075.101 438.8 C 1076.901 442.7 1079.201 448.5 1080.401 451.8 C 1081.501 455.1 1083.201 461.2 1084.201 465.3 C 1085.701 471.3 1086.101 476.7 1086.101 492.8 C 1086.101 508.4 1085.701 514.6 1084.301 520.8 C 1083.301 525.2 1080.901 533.1 1078.901 538.3 C 1076.901 543.5 1072.801 551.8 1069.701 556.8 C 1066.301 562.5 1061.101 568.9 1055.701 574.3 C 1051.001 579 1043.901 584.9 1040.101 587.4 C 1036.301 589.9 1029.901 593.5 1026.101 595.3 C 1022.301 597.1 1016.601 599.4 1013.601 600.4 C 1010.601 601.5 1004.501 603.2 1000.101 604.3 C 995.701 605.3 987.201 606.7 981.101 607.3 C 973.201 608.1 967.101 608.1 959.601 607.3 C 953.801 606.8 946.901 605.9 944.101 605.4 C 941.401 604.9 936.601 603.8 933.601 603 C 930.601 602.1 924.701 600.1 920.601 598.5 C 916.501 596.8 910.201 593.8 906.601 591.8 C 903.001 589.8 897.601 586.3 894.601 584 C 891.601 581.7 886.301 576.9 882.801 573.3 C 879.301 569.7 874.501 563.9 872.101 560.3 C 869.701 556.7 866.401 551.1 864.801 547.8 C 863.201 544.5 860.901 539.1 859.801 535.8 C 858.701 532.5 857.201 528 856.601 525.8 C 856.001 523.6 854.901 516.8 854.101 510.8 C 853.301 504.7 852.601 496.4 852.601 492.3 C 852.601 488.2 853.301 480.3 854.101 474.8 C 854.901 469.3 856.601 461 858.001 456.3 C 859.401 451.6 862.301 444 864.401 439.3 C 866.601 434.6 869.101 430.1 870.001 429.3 C 871.001 428.5 871.701 427.5 871.601 427 C 871.601 426.6 873.801 423.5 876.501 420 C 879.201 416.6 884.201 411.3 887.601 408.3 C 891.001 405.3 895.901 401.3 898.501 399.5 C 901.001 397.7 907.201 394.2 912.101 391.8 C 917.101 389.4 924.701 386.3 929.101 384.9 C 933.501 383.5 939.601 381.9 942.601 381.3 C 945.601 380.7 951.701 379.8 956.101 379.4 C 960.501 378.9 964.601 378.5 965.101 378.4 L 965.101 378.4 L 965.101 378.4 Z  M 1159.101 637.1 C 1161.901 637.3 1166.101 638.1 1168.601 639 C 1171.101 639.9 1173.401 641.1 1173.801 641.7 C 1174.201 642.3 1174.301 643.9 1173.901 645.3 C 1173.601 646.7 1172.801 648.4 1172.201 649.1 C 1171.301 650.2 1169.601 650.2 1163.101 649.2 C 1158.701 648.6 1153.101 648.3 1150.601 648.5 C 1148.101 648.8 1144.501 649.8 1142.601 650.7 C 1140.701 651.5 1137.801 653.5 1136.101 655.1 C 1134.401 656.7 1131.801 660.7 1130.201 663.9 C 1127.601 669.1 1127.201 671.2 1126.801 681.3 C 1126.401 690.4 1126.701 694.1 1128.101 698.8 C 1129.101 702.1 1130.901 706.5 1132.201 708.6 C 1133.501 710.6 1136.101 713.4 1137.901 714.7 C 1139.601 716.1 1143.101 717.9 1145.601 718.8 C 1148.101 719.6 1152.101 720.3 1154.601 720.3 C 1157.101 720.3 1161.801 719.4 1165.101 718.3 C 1168.401 717.2 1171.701 716.3 1172.401 716.3 C 1173.001 716.3 1174.301 717.9 1175.101 719.8 C 1175.901 721.7 1176.601 723.8 1176.601 724.3 C 1176.601 724.8 1174.201 726.4 1171.401 727.7 C 1168.501 729 1163.401 730.6 1160.101 731.3 C 1155.401 732.2 1152.601 732.2 1147.101 731.2 C 1143.301 730.5 1137.901 728.9 1135.101 727.5 C 1132.401 726.2 1128.101 723 1125.601 720.4 C 1123.101 717.9 1119.901 713.3 1118.401 710.3 C 1117.001 707.3 1115.301 702.1 1114.701 698.8 C 1114.101 695.5 1113.601 689.2 1113.601 684.8 C 1113.601 680.4 1114.001 674.1 1114.601 670.8 C 1115.101 667.4 1117.201 661.6 1119.401 657.3 C 1122.201 651.7 1124.601 648.7 1128.801 645.3 C 1132.301 642.5 1136.501 640.2 1140.201 639 C 1143.401 638.1 1147.901 637.2 1150.101 637 C 1152.301 636.9 1156.401 636.9 1159.101 637.1 L 1159.101 637.1 L 1159.101 637.1 Z  M 522.601 642.1 C 524.001 642.4 525.401 642.7 525.901 642.9 C 526.301 643.1 526.601 662.7 526.601 729.3 L 524.401 730.4 C 523.101 731 520.401 731.2 514.601 730.3 L 514.601 698 C 514.601 680.3 514.401 662.7 514.101 658.8 C 513.901 654.9 514.001 649.7 514.301 647.1 C 514.701 643 515.101 642.4 517.501 642 C 518.901 641.8 521.201 641.9 522.601 642.1 L 522.601 642.1 L 522.601 642.1 Z  M 1217.101 660.4 C 1218.201 660.3 1221.801 660.8 1225.101 661.4 C 1229.101 662.1 1232.901 663.7 1236.601 666.1 C 1239.801 668.2 1243.501 671.9 1245.401 674.8 C 1247.201 677.5 1249.201 681.4 1249.701 683.3 C 1250.301 685.2 1251.001 689.7 1251.301 693.3 C 1251.601 697.2 1251.301 702 1250.601 705.3 C 1249.801 708.3 1248.501 712.4 1247.501 714.3 C 1246.501 716.2 1244.201 719.4 1242.401 721.4 C 1240.601 723.4 1237.101 726.3 1234.601 727.8 C 1230.801 730.2 1228.701 730.7 1221.101 731.1 C 1212.801 731.6 1211.601 731.4 1205.701 728.7 C 1201.901 727 1197.901 724.2 1195.801 721.8 C 1193.801 719.6 1191.101 715.3 1189.701 712.3 C 1188.001 708.4 1187.101 704.4 1186.801 698.8 C 1186.401 692.2 1186.701 689.5 1188.701 683.4 C 1190.201 678.6 1192.401 674.5 1194.701 671.9 C 1196.601 669.6 1200.001 666.7 1202.201 665.3 C 1204.301 664 1208.101 662.3 1210.601 661.6 C 1213.101 661 1216.001 660.4 1217.101 660.4 L 1217.101 660.4 Z  M 583.601 661.4 C 585.501 661.3 589.401 662.4 592.101 663.7 C 595.701 665.4 597.701 667.2 599.101 670 C 600.901 673.5 601.101 676.1 601.501 700.8 C 601.801 726 601.701 727.9 600.001 729.7 C 598.501 731.1 597.301 731.4 594.601 730.8 C 592.701 730.4 590.801 729.9 590.401 729.7 C 589.901 729.5 589.601 718.8 589.501 706 C 589.501 690.8 589.101 681.6 588.301 679.3 C 587.401 676.8 586.001 675.3 583.401 674 C 579.901 672.5 579.101 672.4 574.401 673.8 C 571.501 674.6 566.901 676.8 559.101 682.3 L 558.601 705.7 C 558.301 718.6 557.701 729.5 557.301 730 C 556.801 730.4 554.401 730.8 552.001 730.8 C 549.101 730.8 547.201 730.3 546.601 729.3 C 546.001 728.4 545.601 714.7 545.601 697 C 545.601 670.4 545.801 666.1 547.201 664.8 C 548.001 664 550.301 663.3 552.201 663.3 C 554.101 663.3 556.301 664 557.101 664.8 C 557.901 665.6 558.601 667.1 558.601 668 C 558.601 669 558.801 670.1 559.101 670.5 C 559.401 671 562.001 669.8 564.901 667.9 C 567.701 666.1 572.401 663.8 575.101 663 C 577.901 662.1 581.701 661.4 583.601 661.4 L 583.601 661.4 L 583.601 661.4 Z  M 645.101 661.7 Q 652.101 662.1 657.001 664.4 C 661.801 666.8 661.901 666.8 661.301 670.8 C 660.901 673 660.201 675 659.601 675.3 C 659.101 675.6 656.001 675 652.801 674 C 648.801 672.7 645.301 672.2 641.101 672.6 C 636.201 672.9 634.701 673.5 632.901 675.7 C 631.601 677.1 630.601 679.3 630.601 680.5 C 630.601 681.8 631.201 683.5 631.901 684.5 C 632.601 685.4 635.601 687.3 638.601 688.7 C 641.601 690.1 644.701 691.3 645.401 691.3 C 646.001 691.3 649.401 692.6 652.901 694.2 C 656.301 695.7 660.101 698.1 661.201 699.4 C 662.401 700.7 663.801 703.4 664.501 705.3 C 665.101 707.2 665.601 709.9 665.601 711.3 C 665.601 712.7 665.001 715.8 664.201 718.3 C 663.301 720.8 661.201 724.3 659.401 726.1 C 657.101 728.4 653.901 730.1 649.101 731.5 C 642.301 733.6 641.901 733.6 633.901 732 C 629.301 731.1 623.801 729.2 621.601 727.8 C 618.901 726.1 617.601 724.6 617.601 723 C 617.601 721.8 618.301 719.8 619.101 718.5 C 619.901 717.3 621.101 716.3 621.601 716.3 C 622.201 716.3 624.501 717.2 626.901 718.3 C 629.201 719.4 633.401 720.8 636.101 721.4 C 639.701 722.2 642.301 722.2 645.401 721.4 C 648.001 720.7 650.401 719.2 651.601 717.5 C 652.801 716 653.601 713.9 653.601 712.8 C 653.601 711.7 652.801 709.8 651.801 708.6 C 650.801 707.2 645.801 704.7 639.601 702.3 C 633.801 700.1 627.601 697.1 625.901 695.8 C 624.101 694.4 621.901 691.9 621.101 690.3 C 620.201 688.6 619.601 684.7 619.601 681 C 619.701 676.3 620.201 674 621.901 671.4 C 623.101 669.5 625.501 667.1 627.101 665.9 C 628.801 664.8 631.901 663.3 634.101 662.6 C 636.401 661.8 641.001 661.5 645.101 661.7 L 645.101 661.7 L 645.101 661.7 Z  M 831.901 661.9 C 836.901 662.2 839.701 663 843.101 665 C 846.401 667 848.001 668.9 849.101 671.8 C 850.401 675.1 850.601 680.6 850.101 729.7 L 846.601 730.6 C 844.201 731.3 842.401 731.2 840.901 730.4 C 839.601 729.8 838.601 728.6 838.601 727.8 C 838.601 727 837.901 726.3 837.101 726.3 C 836.301 726.3 834.401 727.2 832.901 728.4 C 831.301 729.5 827.901 731.1 825.101 731.9 C 822.001 732.8 818.601 733.1 816.101 732.7 C 813.901 732.4 810.401 731.1 808.301 729.9 C 806.201 728.8 803.501 726.2 802.301 724.3 C 800.701 721.6 800.201 719.3 800.301 714.3 C 800.401 708.8 800.901 707.2 803.401 703.8 C 805.201 701.2 808.301 698.8 811.901 697 C 815.401 695.4 820.901 693.9 825.901 693.2 C 830.401 692.6 835.101 691.7 836.401 691.2 C 838.401 690.4 838.601 689.8 838.201 684 C 837.901 679 837.401 677.4 835.501 675.7 C 834.201 674.6 831.101 673.4 828.601 673 C 825.801 672.6 821.701 672.9 817.601 673.9 C 814.001 674.7 810.001 675.7 808.601 676 C 806.501 676.4 805.901 676 804.901 673.4 C 804.201 671.7 803.801 669.7 804.101 669 C 804.301 668.4 806.201 667.1 808.301 666.2 C 810.401 665.3 813.901 664 816.101 663.4 C 818.301 662.8 821.201 662.1 822.601 661.9 C 824.001 661.7 828.101 661.6 831.901 661.9 L 831.901 661.9 Z  M 909.101 662 C 912.301 662.3 915.301 663.3 917.401 664.9 C 919.101 666.2 921.401 668.8 922.401 670.5 C 923.901 673.4 924.101 677 924.101 701.6 C 924.101 725.2 923.901 729.5 922.601 730.3 C 921.801 730.8 919.801 731.3 918.101 731.3 C 916.501 731.4 914.601 730.8 914.001 730.1 Q 912.801 728.8 912.501 703.7 C 912.101 680.2 912.001 678.4 910.101 676.4 C 909.001 675.2 906.501 673.8 904.601 673.2 C 901.901 672.4 900.101 672.5 896.601 673.8 C 894.101 674.6 889.701 677 881.501 682.8 L 881.401 696.8 C 881.401 704.5 881.401 714.4 881.501 718.8 C 881.701 724.1 881.301 727.4 880.401 728.6 C 879.601 729.7 877.601 730.5 874.901 730.6 C 872.601 730.7 870.401 730.4 869.901 730 C 869.501 729.5 869.101 715 869.101 697.6 C 869.101 667.3 869.201 666.1 871.101 664.7 C 872.201 663.9 874.401 663.3 876.101 663.5 C 878.501 663.7 879.501 664.6 882.601 671.3 L 887.901 668 C 890.701 666.2 894.501 664.2 896.101 663.5 C 897.801 662.9 900.201 662.2 901.601 661.9 C 903.001 661.7 906.401 661.7 909.101 662 L 909.101 662 Z  M 977.601 661.9 C 981.201 662.1 986.101 663.1 988.401 664 C 992.601 665.6 992.801 665.8 992.201 669.2 C 991.901 671.2 990.801 673.3 989.901 674 C 988.501 674.9 987.101 674.9 983.601 673.8 C 981.101 673 977.801 672.3 976.101 672.3 C 974.501 672.3 971.101 673 968.601 673.8 C 966.101 674.7 963.001 676.4 961.801 677.6 C 960.501 678.8 958.501 681.6 957.301 683.8 C 955.601 687 955.201 689.7 955.201 696.8 C 955.201 703.1 955.601 706.8 956.801 709.3 C 957.701 711.2 959.601 714 961.001 715.5 C 962.401 717.1 965.201 719 967.101 719.8 C 969.001 720.6 973.001 721.3 975.901 721.3 C 978.701 721.2 982.901 720.6 985.101 719.8 C 987.301 719 989.601 718.3 990.101 718.3 C 990.601 718.3 991.901 719.8 992.901 721.8 C 994.501 725.2 994.501 725.4 992.601 727.3 C 991.501 728.4 989.601 729.7 988.401 730.2 C 987.101 730.7 983.301 731.6 979.901 732.2 C 974.601 733.1 972.501 733 966.901 731.6 C 963.101 730.7 958.101 728.5 955.601 726.8 C 953.101 725.2 949.601 721.5 947.801 718.8 C 946.001 716 943.801 711.3 942.901 708.3 C 941.801 704.4 941.501 700.3 941.801 694.3 C 942.201 687.9 942.901 684.5 944.901 680.3 C 946.301 677.3 949.001 673.2 950.801 671.3 C 952.601 669.4 956.401 666.7 959.101 665.3 C 961.901 664 965.701 662.6 967.601 662.2 C 969.501 661.7 974.001 661.6 977.601 661.9 L 977.601 661.9 L 977.601 661.9 Z  M 1038.101 661.3 C 1040.301 661.3 1044.401 661.9 1047.101 662.7 C 1049.901 663.6 1054.101 665.9 1056.601 668.1 C 1059.101 670.2 1062.101 674.1 1063.401 676.6 C 1064.601 679.2 1065.901 684.2 1066.401 687.7 C 1066.901 692.7 1066.801 694.4 1065.601 695.7 C 1064.301 697.2 1061.501 697.4 1044.601 697.4 C 1033.901 697.5 1024.001 697.8 1022.601 698.2 C 1020.701 698.8 1020.201 699.5 1020.401 701.4 C 1020.501 702.7 1021.101 705.6 1021.701 707.8 C 1022.301 710 1024.401 713.4 1026.501 715.4 C 1028.701 717.6 1031.901 719.6 1034.601 720.3 C 1037.201 721 1041.801 721.3 1045.601 721 C 1049.201 720.7 1053.801 719.7 1059.801 716.8 L 1061.801 719.3 C 1062.801 720.7 1063.601 722.7 1063.401 723.8 C 1063.201 725 1061.001 726.8 1057.601 728.5 C 1054.601 730.1 1049.601 731.8 1046.601 732.3 C 1043.101 732.9 1038.701 732.8 1034.601 732.2 C 1031.001 731.6 1026.101 730.2 1023.701 729 C 1021.301 727.8 1017.801 725 1015.801 722.8 C 1013.801 720.6 1011.101 716.3 1009.701 713.3 C 1007.701 708.8 1007.301 706.1 1007.201 698.3 C 1007.101 691.7 1007.601 687.3 1008.801 683.8 C 1009.801 681 1011.901 676.9 1013.601 674.5 C 1015.201 672.2 1018.301 669.1 1020.301 667.5 C 1022.301 666 1026.301 664 1029.001 663.1 C 1031.801 662.1 1035.901 661.3 1038.101 661.3 L 1038.101 661.3 L 1038.101 661.3 Z  M 787.901 662.3 C 790.501 662.3 790.601 662.5 790.601 673.3 L 782.901 676.9 C 778.601 678.8 773.801 681.6 772.301 683.1 C 770.701 684.6 768.901 686.7 768.301 687.8 C 767.501 689.1 766.901 697.4 766.101 730.8 L 755.101 730.8 L 755.101 664.8 L 766.601 664.3 L 766.601 668.3 C 766.601 670.5 766.801 673 767.101 673.8 C 767.501 674.9 768.701 674.2 771.901 671 C 774.301 668.7 778.201 665.8 780.701 664.6 C 783.101 663.4 786.301 662.4 787.901 662.3 L 787.901 662.3 L 787.901 662.3 Z  M 685.601 663.3 C 687.001 663.3 689.101 663.5 692.601 664.3 L 692.901 690.3 C 693.101 714.7 693.201 716.4 695.101 718.3 C 696.401 719.7 698.901 720.6 702.101 721 C 706.401 721.4 708.001 721 713.501 718.1 C 717.001 716.3 720.701 713.7 721.801 712.3 C 723.501 710 723.701 707.9 723.601 687.5 C 723.601 666.3 723.701 665.3 725.601 664.3 C 726.701 663.8 729.201 663.5 731.101 663.8 C 733.801 664.2 734.901 665 735.701 667 C 736.301 668.8 736.601 680.2 736.501 698.3 C 736.401 714 736.001 727.6 735.701 728.6 C 735.201 730.1 734.201 730.4 729.601 730.1 C 724.401 729.8 724.101 729.6 723.901 727 C 723.701 725.4 723.001 724.3 722.101 724.3 C 721.301 724.3 718.501 725.6 715.901 727.3 C 713.201 728.9 708.201 731 704.601 732 C 699.201 733.4 697.401 733.5 693.901 732.5 C 691.501 731.8 688.201 730.1 686.401 728.5 C 684.701 727 682.701 724.3 681.901 722.5 C 681.001 720.2 680.501 712.1 680.401 692.5 C 680.201 670.6 680.501 665.5 681.601 664.5 C 682.401 663.8 684.101 663.3 685.601 663.3 L 685.601 663.3 L 685.601 663.3 Z  M 455.601 394.6 C 466.701 394.8 475.501 395.5 477.601 396.2 C 479.501 396.9 482.501 398.1 484.101 398.8 C 485.701 399.5 489.401 402.1 492.101 404.5 C 494.901 407 498.301 411.4 499.801 414.4 C 501.301 417.4 503.101 423.2 503.701 427.3 C 504.701 433.6 504.601 436 503.301 442.3 C 502.201 447.5 500.401 451.7 497.701 455.8 C 495.601 459.1 492.301 463.2 490.501 464.8 C 488.601 466.5 485.101 468.8 482.601 470.1 C 480.101 471.3 475.501 472.9 472.301 473.8 C 468.401 474.8 461.801 475.3 451.601 475.3 C 439.201 475.3 436.501 475 436.101 473.8 C 435.801 473 435.501 455 435.401 434 C 435.301 411.7 435.701 395.3 436.201 394.9 C 436.701 394.5 445.401 394.3 455.601 394.6 L 455.601 394.6 L 455.601 394.6 Z  M 713.601 428.7 C 719.901 429 723.301 429.7 726.601 431.4 C 729.101 432.6 733.401 435.7 736.101 438.3 C 739.201 441.3 742.501 445.8 744.801 450.4 C 746.801 454.5 749.201 460.7 750.101 464.3 C 751.001 467.9 752.101 475.7 752.501 481.8 C 753.001 487.8 752.901 498.2 752.401 504.8 C 751.801 513.3 750.701 519.5 748.601 526.3 C 747.001 531.5 744.101 538 742.301 540.8 C 740.401 543.5 737.101 547.3 735.001 549.2 C 732.901 551.1 728.901 553.7 726.101 554.9 C 723.401 556.2 718.601 557.5 715.601 557.9 C 712.501 558.3 707.801 558 704.901 557.4 C 702.001 556.8 697.501 555.3 694.901 554.1 C 692.201 552.9 688.101 549.8 685.601 547.3 C 683.101 544.8 679.501 539.7 677.701 535.8 C 675.801 531.9 673.701 526.8 673.001 524.3 C 672.301 521.8 671.201 516 670.501 511.3 C 669.801 506 669.501 497.2 669.901 487.8 C 670.301 477.5 671.101 470.3 672.501 464.8 C 673.601 460.4 676.001 453.9 677.801 450.3 C 679.701 446.4 683.201 441.6 686.501 438.4 C 689.601 435.4 693.701 432.3 695.601 431.5 C 697.501 430.7 700.501 429.6 702.101 429.2 C 703.701 428.7 708.901 428.5 713.601 428.7 L 713.601 428.7 L 713.601 428.7 Z  M 971.601 428.7 C 978.301 428.9 981.301 429.5 985.601 431.5 C 988.601 433 993.201 436.3 995.701 439 C 998.201 441.6 1001.501 446.3 1003.101 449.3 C 1004.601 452.3 1006.501 456.6 1007.301 458.8 C 1008.101 461 1009.401 466.2 1010.201 470.3 C 1011.001 474.8 1011.601 483.9 1011.601 493.3 C 1011.601 502.6 1011.101 511.4 1010.201 515.3 C 1009.501 518.9 1008.301 523.8 1007.601 526.3 C 1006.901 528.8 1005.101 533.3 1003.601 536.3 C 1002.001 539.3 999.101 543.8 996.901 546.2 C 994.801 548.6 990.901 551.8 988.101 553.3 C 985.401 554.8 980.601 556.6 977.601 557.3 C 974.601 558 969.601 558.4 966.601 558.1 C 963.601 557.8 958.601 556.5 955.601 555.1 C 952.601 553.8 948.301 551.1 946.201 549.2 C 944.001 547.3 940.801 543.5 939.101 540.8 C 937.301 538 935.001 533.3 933.801 530.3 C 932.701 527.3 931.101 521.8 930.201 518 C 929.101 513.2 928.601 506.3 928.601 494 C 928.601 482.6 929.101 474.4 930.101 469.5 C 930.901 465.6 932.801 459.3 934.201 455.5 C 935.601 451.8 938.001 447 939.601 444.8 C 941.101 442.6 944.101 439.2 946.301 437.1 C 948.401 435.1 952.101 432.6 954.601 431.5 C 957.101 430.3 960.001 429.2 961.101 428.9 C 962.201 428.6 966.901 428.5 971.601 428.7 L 971.601 428.7 L 971.601 428.7 Z  M 1038.901 671.4 C 1039.801 671.3 1042.301 672 1044.401 672.9 C 1046.401 673.8 1048.901 675.5 1049.801 676.6 C 1050.801 677.8 1052.001 680.3 1052.601 682 C 1053.301 684.5 1053.301 685.7 1052.401 686.9 C 1051.301 688.2 1049.001 688.4 1037.401 688.1 C 1028.301 687.9 1023.301 687.4 1022.401 686.6 C 1021.301 685.6 1021.401 684.6 1022.901 681.6 C 1024.001 679.5 1026.201 676.7 1027.901 675.3 C 1029.701 674 1032.401 672.6 1034.101 672.2 C 1035.801 671.8 1037.901 671.5 1038.901 671.4 L 1038.901 671.4 L 1038.901 671.4 Z  M 1219.101 671.3 C 1224.201 671.3 1225.701 671.7 1229.101 674.1 C 1231.401 675.8 1234.101 679 1235.601 681.9 C 1237.701 686.1 1238.001 688.2 1238.001 696.3 C 1238.001 704.7 1237.701 706.4 1235.301 710.8 C 1233.801 713.5 1231.201 716.9 1229.401 718.3 C 1226.601 720.4 1225.001 720.8 1219.001 720.8 C 1212.901 720.8 1211.501 720.4 1208.301 718 C 1206.301 716.5 1203.801 713.6 1202.701 711.5 C 1201.701 709.5 1200.301 705.3 1199.701 702.3 C 1198.901 698.2 1198.801 695.2 1199.701 690.8 C 1200.301 687.5 1202.001 682.6 1203.401 679.9 C 1205.101 676.9 1207.401 674.4 1209.601 673.2 C 1211.801 672.1 1215.301 671.4 1219.101 671.3 L 1219.101 671.3 L 1219.101 671.3 Z  M 838.101 701.8 L 838.401 707.5 C 838.601 712.9 838.301 713.6 835.401 716.6 C 833.601 718.4 830.501 720.4 828.601 721.1 C 826.701 721.7 823.401 722.3 821.401 722.3 C 818.701 722.3 816.901 721.6 815.101 719.8 C 813.301 718 812.601 716.2 812.601 713.5 C 812.601 711.5 813.101 709.1 813.801 708.3 C 814.501 707.4 816.001 706 817.001 705.3 C 818.101 704.5 821.701 703.3 825.001 702.6 C 828.401 702 832.701 701.5 838.101 701.8 L 838.101 701.8 L 838.101 701.8 Z " fill-rule="evenodd" fill="rgb(255,255,255)"/></g></svg>