<?xml version="1.0" standalone="no"?><!-- Generator: Gravit.io --><svg xmlns="http://www.w3.org/2000/svg" xmlns:xlink="http://www.w3.org/1999/xlink" style="isolation:isolate" viewBox="0 0 1920 1080" width="1920px" height="1080px"><defs><clipPath id="_clipPath_Bm16usGtX1eFnSHCWpllzbE12EG0AENE"><rect width="1920" height="1080"/></clipPath></defs><g clip-path="url(#_clipPath_Bm16usGtX1eFnSHCWpllzbE12EG0AENE)"><radialGradient id="_rgradient_0" fx="0.5" fy="0.5" cx="0.5" cy="0.5" r="0.5" gradientTransform="matrix(2397.913,0,8.424,1942.083,-243.168,-431.042)" gradientUnits="userSpaceOnUse"><stop offset="9.565217391304348%" stop-opacity="1" style="stop-color:rgb(246,235,43)"/><stop offset="26.08695652173913%" stop-opacity="1" style="stop-color:rgb(255,162,10)"/><stop offset="79.13043478260869%" stop-opacity="1" style="stop-color:rgb(80,101,180)"/></radialGradient><rect x="0" y="0" width="1920" height="1080" transform="matrix(1,0,0,1,0,0)" fill="url(#_rgradient_0)"/><g><g><path d=" M 1268 725 L 1126.892 725 C 1117.266 725 1113.359 718.232 1118.172 709.896 L 1259.279 465.499 C 1261.686 461.331 1264.843 459.247 1268 459.247 L 1268 725 Z " fill="rgb(67,16,70)"/><path d=" M 1268 725 L 1409.108 725 C 1418.734 725 1422.641 718.232 1417.828 709.896 L 1276.721 465.499 C 1274.314 461.331 1271.157 459.247 1268 459.247 L 1268 725 Z " fill="rgb(52,13,55)"/><g><path d=" M 1268 549.04 L 1282.211 571.648 L 1287.379 530.307 L 1306.111 561.959 L 1316.835 534.977 L 1276.721 465.499 C 1274.314 461.331 1271.157 459.247 1268 459.247 L 1268 549.04 Z " fill="rgb(251,196,255)"/><path d=" M 1268 549.04 L 1253.789 571.648 L 1248.621 530.307 L 1229.889 561.959 L 1219.165 534.977 L 1259.279 465.499 C 1261.686 461.331 1264.843 459.247 1268 459.247 L 1268 549.04 Z " fill="rgb(255,255,255)"/></g></g><g><path d=" M 1920 668 L 1709.59 668 C 1695.236 668 1689.41 657.908 1696.587 645.478 L 1906.996 281.051 C 1910.585 274.836 1915.292 271.729 1920 271.729 L 1920 668 Z " fill="rgb(67,16,70)"/><g><path d=" M 1920 405.621 L 1898.809 439.333 L 1891.104 377.688 L 1863.171 424.885 L 1847.18 384.652 L 1906.996 281.051 C 1910.585 274.836 1915.292 271.729 1920 271.729 L 1920 405.621 Z " fill="rgb(255,255,255)"/></g></g><g><path d=" M 189 725 L 0 725 L 0 508 L 171.559 205.999 C 176.372 197.663 182.686 193.495 189 193.495 L 189 725 Z " fill="rgb(67,16,70)"/><path d=" M 189 725 L 471.216 725 C 490.468 725 498.282 711.464 488.656 694.792 L 206.441 205.999 C 201.628 197.663 195.314 193.495 189 193.495 L 189 725 Z " fill="rgb(52,13,55)"/><g><path d=" M 189 373.08 L 217.422 418.297 L 227.757 335.614 L 265.223 398.918 L 286.671 344.955 L 206.441 205.999 C 201.628 197.663 195.314 193.495 189 193.495 L 189 373.08 Z " fill="rgb(251,196,255)"/><path d=" M 189 373.08 L 160.578 418.297 L 150.243 335.614 L 112.777 398.918 L 91.329 344.955 L 171.559 205.999 C 176.372 197.663 182.686 193.495 189 193.495 L 189 373.08 Z " fill="rgb(255,255,255)"/></g></g><g><path d=" M 521 804 L 284.185 804 C 268.031 804 261.473 792.642 269.551 778.652 L 506.365 368.493 C 510.403 361.498 515.702 358 521 358 L 521 804 Z " fill="rgb(67,16,70)"/><path d=" M 521 804 L 757.815 804 C 773.969 804 780.527 792.642 772.449 778.652 L 535.635 368.493 C 531.597 361.498 526.298 358 521 358 L 521 804 Z " fill="rgb(52,13,55)"/><g><path d=" M 521 508.695 L 544.85 546.637 L 553.522 477.256 L 584.961 530.376 L 602.958 485.094 L 535.635 368.493 C 531.597 361.498 526.298 358 521 358 L 521 508.695 Z " fill="rgb(251,196,255)"/><path d=" M 521 508.695 L 497.15 546.637 L 488.478 477.256 L 457.039 530.376 L 439.042 485.094 L 506.365 368.493 C 510.403 361.498 515.702 358 521 358 L 521 508.695 Z " fill="rgb(255,255,255)"/></g></g><g><path d=" M 1600 963.409 L 1163.104 963.409 C 1133.301 963.409 1121.203 942.454 1136.105 916.644 L 1572.999 159.949 C 1580.45 147.044 1590.225 140.591 1600 140.591 L 1600 963.409 Z " fill="rgb(67,16,70)"/><path d=" M 1600 963.409 L 1920 963.409 L 1920 668 L 1627.001 159.949 C 1619.55 147.044 1609.775 140.591 1600 140.591 L 1600 963.409 Z " fill="rgb(52,13,55)"/><g><path d=" M 1600 418.605 L 1644 488.605 L 1660 360.605 L 1718 458.605 L 1751.203 375.065 L 1627.001 159.949 C 1619.55 147.044 1609.775 140.591 1600 140.591 L 1600 418.605 Z " fill="rgb(251,196,255)"/><path d=" M 1600 418.605 L 1556 488.605 L 1540 360.605 L 1482 458.605 L 1448.797 375.065 L 1572.999 159.949 C 1580.45 147.044 1590.225 140.591 1600 140.591 L 1600 418.605 Z " fill="rgb(255,255,255)"/></g></g><g><path d=" M 960 990.804 L 523.104 990.804 C 493.301 990.804 481.203 969.849 496.105 944.039 L 932.999 187.344 C 940.45 174.439 950.225 167.986 960 167.986 L 960 990.804 Z " fill="rgb(67,16,70)"/><path d=" M 960 990.804 L 1396.896 990.804 C 1426.699 990.804 1438.797 969.849 1423.895 944.039 L 987.001 187.344 C 979.55 174.439 969.775 167.986 960 167.986 L 960 990.804 Z " fill="rgb(52,13,55)"/><g><path d=" M 960 446 L 1004 516 L 1020 388 L 1078 486 L 1111.203 402.46 L 987.001 187.344 C 979.55 174.439 969.775 167.986 960 167.986 L 960 446 Z " fill="rgb(251,196,255)"/><path d=" M 960 446 L 916 516 L 900 388 L 842 486 L 808.797 402.46 L 932.999 187.344 C 940.45 174.439 950.225 167.986 960 167.986 L 960 446 Z " fill="rgb(255,255,255)"/></g></g></g><g style="mix-blend-mode:screen;"><path d=" M 1430.236 963.409 L 1920 963.409 L 1920 668 L 1920 271.729 C 1915.292 271.729 1910.585 274.836 1906.996 281.051 L 1802.045 462.826 L 1626.971 158.3 C 1612.085 132.408 1587.876 132.386 1572.942 158.25 L 1336.247 568.203 L 1276.733 465.126 C 1271.913 456.778 1264.087 456.778 1259.267 465.126 L 1203.325 562.016 L 987.001 187.344 C 972.099 161.534 947.901 161.534 932.999 187.344 L 683.726 619.082 L 535.823 362.915 C 527.642 348.746 514.358 348.746 506.177 362.915 L 401.548 544.131 L 205.475 204.535 C 196.382 188.786 181.646 188.802 172.587 204.571 L 0 505 L 0 694.792 L 314.561 694.792 L 266.33 778.327 C 258.149 792.496 264.791 804 281.153 804 L 576.96 804 L 496.105 944.039 C 481.203 969.849 493.301 990.804 523.104 990.804 L 1396.896 990.804 C 1418.723 990.804 1431.054 979.564 1430.236 963.409 Z " fill="rgb(80,18,83)"/></g><g><g><path d=" M 658 428.736 C 666.115 426.978 696.4 430.253 696.4 452.736 C 696.4 436.95 705.429 425.619 730 427.136" fill="none" vector-effect="non-scaling-stroke" stroke-width="2" stroke="rgb(0,0,0)" stroke-linejoin="round" stroke-linecap="round" stroke-miterlimit="3"/><path d=" M 608 344.867 C 612.508 343.89 629.333 345.709 629.333 358.2 C 629.333 349.43 634.349 343.135 648 343.978" fill="none" vector-effect="non-scaling-stroke" stroke-width="2" stroke="rgb(0,0,0)" stroke-linejoin="round" stroke-linecap="round" stroke-miterlimit="3"/><path d=" M 590 388.302 C 596.086 386.984 618.8 389.439 618.8 406.302 C 618.8 394.462 625.571 385.965 644 387.102" fill="none" vector-effect="non-scaling-stroke" stroke-width="2" stroke="rgb(0,0,0)" stroke-linejoin="round" stroke-linecap="round" stroke-miterlimit="3"/><path d=" M 685 397.109 C 688.156 396.645 699.933 397.509 699.933 403.442 C 699.933 399.277 703.444 396.287 713 396.687" fill="none" vector-effect="non-scaling-stroke" stroke-width="2" stroke="rgb(0,0,0)" stroke-linejoin="round" stroke-linecap="round" stroke-miterlimit="3"/><path d=" M 753 368.197 C 757.959 367.123 776.467 369.124 776.467 382.864 C 776.467 373.217 781.984 366.293 797 367.219" fill="none" vector-effect="non-scaling-stroke" stroke-width="2" stroke="rgb(0,0,0)" stroke-linejoin="round" stroke-linecap="round" stroke-miterlimit="3"/></g><g><g><path d=" M 1308.028 424.567 C 1313.553 424.832 1332.482 432.152 1328.612 446.622 C 1331.329 436.462 1339.09 430.724 1354.643 435.929" fill="none" vector-effect="non-scaling-stroke" stroke-width="2" stroke="rgb(0,0,0)" stroke-linejoin="round" stroke-linecap="round" stroke-miterlimit="3"/><path d=" M 1307.051 368.747 C 1310.121 368.894 1320.637 372.961 1318.487 381 C 1319.996 375.355 1324.308 372.167 1332.949 375.059" fill="none" vector-effect="non-scaling-stroke" stroke-width="2" stroke="rgb(0,0,0)" stroke-linejoin="round" stroke-linecap="round" stroke-miterlimit="3"/><path d=" M 1257.519 390.337 C 1261.663 390.536 1275.859 396.026 1272.957 406.879 C 1274.995 399.258 1280.816 394.955 1292.481 398.858" fill="none" vector-effect="non-scaling-stroke" stroke-width="2" stroke="rgb(0,0,0)" stroke-linejoin="round" stroke-linecap="round" stroke-miterlimit="3"/><path d=" M 1338.953 398.608 C 1341.064 398.852 1348.495 401.436 1347.474 405.254 C 1348.191 402.573 1350.966 401.253 1357.047 403.155" fill="none" vector-effect="non-scaling-stroke" stroke-width="2" stroke="rgb(0,0,0)" stroke-linejoin="round" stroke-linecap="round" stroke-miterlimit="3"/><path d=" M 1376.188 412.096 C 1379.564 412.258 1391.132 416.732 1388.767 425.575 C 1390.427 419.366 1395.17 415.859 1404.675 419.04" fill="none" vector-effect="non-scaling-stroke" stroke-width="2" stroke="rgb(0,0,0)" stroke-linejoin="round" stroke-linecap="round" stroke-miterlimit="3"/></g><g><path d=" M 1170.944 371.06 C 1175.873 368.549 1195.94 365.516 1199.758 380 C 1197.077 369.83 1200.969 360.998 1217.056 357.802" fill="none" vector-effect="non-scaling-stroke" stroke-width="2" stroke="rgb(0,0,0)" stroke-linejoin="round" stroke-linecap="round" stroke-miterlimit="3"/><path d=" M 1114.191 338.033 C 1116.929 336.639 1128.078 334.953 1130.199 343 C 1128.709 337.35 1130.872 332.443 1139.809 330.668" fill="none" vector-effect="non-scaling-stroke" stroke-width="2" stroke="rgb(0,0,0)" stroke-linejoin="round" stroke-linecap="round" stroke-miterlimit="3"/><path d=" M 1114.85 370.295 C 1118.547 368.412 1133.597 366.137 1136.461 377 C 1134.45 369.373 1137.369 362.748 1149.434 360.352" fill="none" vector-effect="non-scaling-stroke" stroke-width="2" stroke="rgb(0,0,0)" stroke-linejoin="round" stroke-linecap="round" stroke-miterlimit="3"/><path d=" M 1188.053 336.666 C 1189.928 335.531 1197.809 334.646 1199.827 342.302 C 1198.41 336.926 1199.655 332.472 1205.947 331.366" fill="none" vector-effect="non-scaling-stroke" stroke-width="2" stroke="rgb(0,0,0)" stroke-linejoin="round" stroke-linecap="round" stroke-miterlimit="3"/><path d=" M 1209.91 310.536 C 1212.922 309.002 1225.185 307.149 1227.519 316 C 1225.88 309.785 1228.259 304.388 1238.09 302.435" fill="none" vector-effect="non-scaling-stroke" stroke-width="2" stroke="rgb(0,0,0)" stroke-linejoin="round" stroke-linecap="round" stroke-miterlimit="3"/></g><g><path d=" M 1387.056 353.06 C 1382.127 350.549 1362.06 347.516 1358.242 362 C 1360.923 351.83 1357.031 342.998 1340.944 339.802" fill="none" vector-effect="non-scaling-stroke" stroke-width="2" stroke="rgb(0,0,0)" stroke-linejoin="round" stroke-linecap="round" stroke-miterlimit="3"/><path d=" M 1385.809 293.199 C 1383.071 291.805 1371.922 290.119 1369.801 298.166 C 1371.291 292.516 1369.128 287.609 1360.191 285.834" fill="none" vector-effect="non-scaling-stroke" stroke-width="2" stroke="rgb(0,0,0)" stroke-linejoin="round" stroke-linecap="round" stroke-miterlimit="3"/><path d=" M 1423.886 329.82 C 1420.19 327.938 1405.14 325.662 1402.276 336.526 C 1404.287 328.898 1401.368 322.274 1389.302 319.877" fill="none" vector-effect="non-scaling-stroke" stroke-width="2" stroke="rgb(0,0,0)" stroke-linejoin="round" stroke-linecap="round" stroke-miterlimit="3"/><path d=" M 1345.983 315.741 C 1344.029 314.907 1336.295 313.463 1335.287 317.285 C 1335.995 314.602 1334.241 312.079 1328.017 310.715" fill="none" vector-effect="non-scaling-stroke" stroke-width="2" stroke="rgb(0,0,0)" stroke-linejoin="round" stroke-linecap="round" stroke-miterlimit="3"/><path d=" M 1308.09 340.536 C 1305.078 339.002 1292.815 337.149 1290.481 346 C 1292.12 339.785 1289.741 334.388 1279.91 332.435" fill="none" vector-effect="non-scaling-stroke" stroke-width="2" stroke="rgb(0,0,0)" stroke-linejoin="round" stroke-linecap="round" stroke-miterlimit="3"/></g></g><g><g><path d=" M 787.142 288.945 C 792.667 289.21 811.595 296.529 807.726 311 C 810.443 300.84 818.204 295.101 833.757 300.306" fill="none" vector-effect="non-scaling-stroke" stroke-width="2" stroke="rgb(0,0,0)" stroke-linejoin="round" stroke-linecap="round" stroke-miterlimit="3"/><path d=" M 781.051 234.747 C 784.121 234.894 794.637 238.961 792.487 247 C 793.996 241.355 798.308 238.167 806.949 241.059" fill="none" vector-effect="non-scaling-stroke" stroke-width="2" stroke="rgb(0,0,0)" stroke-linejoin="round" stroke-linecap="round" stroke-miterlimit="3"/><path d=" M 742.519 266.458 C 746.663 266.657 760.859 272.147 757.957 283 C 759.995 275.38 765.816 271.076 777.481 274.98" fill="none" vector-effect="non-scaling-stroke" stroke-width="2" stroke="rgb(0,0,0)" stroke-linejoin="round" stroke-linecap="round" stroke-miterlimit="3"/><path d=" M 807.984 267.74 C 810.213 267.54 817.423 270.952 814.88 280.463 C 816.666 273.785 820.207 269.596 826.186 271.882" fill="none" vector-effect="non-scaling-stroke" stroke-width="2" stroke="rgb(0,0,0)" stroke-linejoin="round" stroke-linecap="round" stroke-miterlimit="3"/><path d=" M 855.756 254.622 C 859.133 254.784 870.7 259.257 868.336 268.1 C 869.996 261.891 874.739 258.384 884.244 261.565" fill="none" vector-effect="non-scaling-stroke" stroke-width="2" stroke="rgb(0,0,0)" stroke-linejoin="round" stroke-linecap="round" stroke-miterlimit="3"/></g><g><path d=" M 1841.985 327.736 C 1836.587 328.946 1819.198 339.41 1825.497 353 C 1821.074 343.458 1812.443 339.138 1798.015 346.939" fill="none" vector-effect="non-scaling-stroke" stroke-width="2" stroke="rgb(0,0,0)" stroke-linejoin="round" stroke-linecap="round" stroke-miterlimit="3"/><path d=" M 1864.214 256.982 C 1861.215 257.655 1851.555 263.468 1855.054 271.018 C 1852.597 265.717 1847.802 263.317 1839.786 267.65" fill="none" vector-effect="non-scaling-stroke" stroke-width="2" stroke="rgb(0,0,0)" stroke-linejoin="round" stroke-linecap="round" stroke-miterlimit="3"/><path d=" M 1867.441 289.526 C 1863.393 290.434 1850.351 298.281 1855.075 308.474 C 1851.758 301.317 1845.285 298.078 1834.464 303.928" fill="none" vector-effect="non-scaling-stroke" stroke-width="2" stroke="rgb(0,0,0)" stroke-linejoin="round" stroke-linecap="round" stroke-miterlimit="3"/><path d=" M 1810.522 289.516 C 1808.484 290.12 1801.607 293.942 1803.269 297.528 C 1802.102 295.01 1799.142 294.186 1793.478 297.105" fill="none" vector-effect="non-scaling-stroke" stroke-width="2" stroke="rgb(0,0,0)" stroke-linejoin="round" stroke-linecap="round" stroke-miterlimit="3"/><path d=" M 1781.435 315.323 C 1778.137 316.063 1767.51 322.458 1771.359 330.763 C 1768.657 324.931 1763.382 322.292 1754.565 327.059" fill="none" vector-effect="non-scaling-stroke" stroke-width="2" stroke="rgb(0,0,0)" stroke-linejoin="round" stroke-linecap="round" stroke-miterlimit="3"/></g><g><path d=" M 1800.485 253.393 C 1803.593 250.626 1817.618 244.591 1823.159 254.404 C 1819.269 247.514 1820.417 240.344 1831.515 234.95" fill="none" vector-effect="non-scaling-stroke" stroke-width="2" stroke="rgb(0,0,0)" stroke-linejoin="round" stroke-linecap="round" stroke-miterlimit="3"/><path d=" M 1735.114 253.842 C 1736.841 252.305 1744.632 248.952 1747.711 254.404 C 1745.549 250.576 1746.187 246.593 1752.353 243.596" fill="none" vector-effect="non-scaling-stroke" stroke-width="2" stroke="rgb(0,0,0)" stroke-linejoin="round" stroke-linecap="round" stroke-miterlimit="3"/><path d=" M 1726.727 290.242 C 1729.059 288.166 1739.577 283.64 1743.733 291 C 1740.815 285.832 1741.677 280.455 1750 276.41" fill="none" vector-effect="non-scaling-stroke" stroke-width="2" stroke="rgb(0,0,0)" stroke-linejoin="round" stroke-linecap="round" stroke-miterlimit="3"/><path d=" M 1762.937 228.503 C 1764.091 227.33 1769.647 225.164 1772.502 230.219 C 1770.498 226.669 1770.592 223.257 1774.955 221.243" fill="none" vector-effect="non-scaling-stroke" stroke-width="2" stroke="rgb(0,0,0)" stroke-linejoin="round" stroke-linecap="round" stroke-miterlimit="3"/><path d=" M 1765.473 268.382 C 1767.373 266.691 1775.944 263.003 1779.33 269 C 1776.952 264.789 1777.654 260.408 1784.436 257.112" fill="none" vector-effect="non-scaling-stroke" stroke-width="2" stroke="rgb(0,0,0)" stroke-linejoin="round" stroke-linecap="round" stroke-miterlimit="3"/></g><g><path d=" M 288.709 202.9 C 293.638 200.389 313.705 197.356 317.523 211.84 C 314.842 201.67 318.734 192.838 334.821 189.642" fill="none" vector-effect="non-scaling-stroke" stroke-width="2" stroke="rgb(0,0,0)" stroke-linejoin="round" stroke-linecap="round" stroke-miterlimit="3"/><path d=" M 244.334 167.855 C 247.072 166.461 258.22 164.775 260.341 172.822 C 258.852 167.172 261.014 162.265 269.951 160.49" fill="none" vector-effect="non-scaling-stroke" stroke-width="2" stroke="rgb(0,0,0)" stroke-linejoin="round" stroke-linecap="round" stroke-miterlimit="3"/><path d=" M 240.114 198.894 C 243.81 197.011 258.86 194.736 261.724 205.599 C 259.713 197.971 262.632 191.347 274.698 188.951" fill="none" vector-effect="non-scaling-stroke" stroke-width="2" stroke="rgb(0,0,0)" stroke-linejoin="round" stroke-linecap="round" stroke-miterlimit="3"/><path d=" M 297.892 180.232 C 299.846 179.397 307.58 177.954 308.587 181.776 C 307.88 179.093 309.634 176.57 315.858 175.205" fill="none" vector-effect="non-scaling-stroke" stroke-width="2" stroke="rgb(0,0,0)" stroke-linejoin="round" stroke-linecap="round" stroke-miterlimit="3"/><path d=" M 341.707 158.262 C 344.719 156.728 356.982 154.874 359.315 163.725 C 357.677 157.51 360.056 152.113 369.886 150.16" fill="none" vector-effect="non-scaling-stroke" stroke-width="2" stroke="rgb(0,0,0)" stroke-linejoin="round" stroke-linecap="round" stroke-miterlimit="3"/></g></g><g><path d=" M 406.291 393.639 C 401.362 390.449 381.295 386.594 377.477 405 C 380.158 392.077 376.266 380.853 360.179 376.793" fill="none" vector-effect="non-scaling-stroke" stroke-width="2" stroke="rgb(0,0,0)" stroke-linejoin="round" stroke-linecap="round" stroke-miterlimit="3"/><path d=" M 450.666 349.107 C 447.928 347.335 436.78 345.193 434.659 355.419 C 436.148 348.239 433.986 342.004 425.049 339.748" fill="none" vector-effect="non-scaling-stroke" stroke-width="2" stroke="rgb(0,0,0)" stroke-linejoin="round" stroke-linecap="round" stroke-miterlimit="3"/><path d=" M 454.886 388.549 C 451.19 386.156 436.14 383.265 433.276 397.069 C 435.287 387.377 432.368 378.959 420.302 375.914" fill="none" vector-effect="non-scaling-stroke" stroke-width="2" stroke="rgb(0,0,0)" stroke-linejoin="round" stroke-linecap="round" stroke-miterlimit="3"/><path d=" M 397.108 364.835 C 395.154 363.774 387.42 361.94 386.413 366.797 C 387.12 363.387 385.366 360.181 379.142 358.447" fill="none" vector-effect="non-scaling-stroke" stroke-width="2" stroke="rgb(0,0,0)" stroke-linejoin="round" stroke-linecap="round" stroke-miterlimit="3"/><path d=" M 353.293 336.916 C 350.281 334.967 338.018 332.611 335.685 343.859 C 337.323 335.961 334.944 329.103 325.114 326.621" fill="none" vector-effect="non-scaling-stroke" stroke-width="2" stroke="rgb(0,0,0)" stroke-linejoin="round" stroke-linecap="round" stroke-miterlimit="3"/></g></g><circle vector-effect="non-scaling-stroke" cx="502" cy="197.50000000000006" r="53.5" fill="rgb(255,255,255)"/><g style="isolation: isolate;"><circle vector-effect="non-scaling-stroke" cx="502" cy="197.50000000000006" r="62.5" fill="transparent" stroke-width="18" stroke="rgb(255,255,255)" stroke-opacity="0.2" stroke-linejoin="miter" stroke-linecap="square" stroke-miterlimit="3"/><circle vector-effect="non-scaling-stroke" cx="502" cy="197.50000000000006" r="53.5" fill="none"/><circle vector-effect="non-scaling-stroke" cx="502" cy="197.50000000000006" r="59.5" fill="transparent" stroke-width="12" stroke="rgb(255,255,255)" stroke-opacity="0.2" stroke-linejoin="miter" stroke-linecap="square" stroke-miterlimit="3"/><circle vector-effect="non-scaling-stroke" cx="502" cy="197.50000000000006" r="53.5" fill="none"/><circle vector-effect="non-scaling-stroke" cx="502" cy="197.50000000000006" r="56.5" fill="transparent" stroke-width="6" stroke="rgb(255,255,255)" stroke-opacity="0.2" stroke-linejoin="miter" stroke-linecap="square" stroke-miterlimit="3"/><circle vector-effect="non-scaling-stroke" cx="502" cy="197.50000000000006" r="53.5" fill="none"/></g><path d=" M 0 621 L 240 528 L 521 598 L 591 704 L 554 773 L 695 843 L 731 913 Q 1257.576 665.151 1359 668 C 1361.332 668.065 1619.697 625.758 1920 689 Q 1920 868.439 1920 1080 L 0 1080 L 0 621 Z " fill="rgb(52,13,55)"/><path d=" M 1920 1080 C 1575.143 1044.381 1388.153 907.057 1359 668 C 1358.718 665.684 1619.697 625.758 1920 689 Q 1920 868.439 1920 1080 Z  M 0 621 L 240 528 L 521 598 L 0 1080 L 0 621 Z " fill-rule="evenodd" fill="rgb(67,16,70)"/><path d=" M 1828.886 744.442 C 1830.928 744.194 1834.327 743.333 1836.438 742.529 C 1844.447 739.478 1860.098 736.473 1867.978 736.473 C 1872.054 736.473 1878.681 734.111 1880.787 731.907 C 1882.927 729.667 1882.933 729.628 1881.377 727.958 C 1879.473 725.915 1875.089 723.319 1864.594 718.023 C 1857.407 714.396 1853.693 712.127 1850.311 709.295 C 1843.176 703.32 1837.83 701.502 1825.172 700.749 C 1814.631 700.122 1800.257 698.31 1796.036 697.077 C 1791.538 695.762 1786.252 695.583 1781.418 696.581 C 1778.701 697.143 1777.446 697.097 1773.855 696.308 C 1770.664 695.607 1768.157 695.454 1764.17 695.716 C 1757.895 696.128 1754.982 695.706 1753.438 694.163 C 1750.966 691.69 1751.982 689.388 1760.862 677.34 C 1764.568 672.312 1768.343 666.409 1769.996 663.057 L 1772.813 657.344 L 1772.899 660.486 C 1772.947 662.214 1773.132 663.243 1773.311 662.771 C 1773.49 662.3 1774.342 660.88 1775.204 659.616 C 1777.309 656.529 1778.457 653.66 1778.903 650.367 C 1779.108 648.862 1780.065 642.746 1781.031 636.776 C 1784.573 614.876 1783.009 595.091 1776.647 581.322 C 1774.485 576.641 1767.748 566.516 1762.606 560.217 C 1758.775 555.526 1750.038 547.231 1723.475 523.067 C 1691.321 493.817 1686.645 488.998 1673.598 471.661 C 1656.919 449.499 1651.852 443.053 1646.653 437.381 C 1644.06 434.553 1638.956 428.511 1635.311 423.955 C 1625.904 412.198 1624.258 410.56 1617.208 405.935 C 1607.775 399.748 1605.89 397.288 1602.34 386.533 C 1601.127 382.857 1599.098 378.322 1597.453 375.607 C 1595.906 373.054 1594.64 370.823 1594.64 370.648 C 1594.64 370.473 1595.474 370.569 1596.493 370.861 C 1599.755 371.797 1600.073 371.436 1597.466 369.759 C 1596.069 368.861 1594.303 367.447 1593.541 366.617 L 1592.156 365.108 L 1593.932 365.108 C 1594.909 365.108 1596.432 364.805 1597.317 364.435 L 1598.925 363.761 L 1597.497 363.567 C 1592.751 362.919 1592.043 362.697 1593.212 362.223 C 1594.309 361.779 1594.304 361.759 1593.101 361.72 C 1591.414 361.666 1589.055 359.472 1588.599 357.532 C 1588.278 356.165 1588.371 356.006 1589.292 356.343 C 1590.312 356.716 1590.315 356.685 1589.346 355.58 C 1588.454 354.562 1588.136 353.104 1587.552 347.353 C 1587.47 346.543 1587.207 345.564 1586.967 345.176 C 1586.727 344.788 1586.483 342.943 1586.424 341.077 C 1586.345 338.555 1586.515 337.684 1587.089 337.684 C 1587.554 337.684 1587.746 337.287 1587.571 336.684 C 1587.265 335.63 1586.419 332.158 1585.841 329.583 C 1585.652 328.741 1585.094 327.648 1584.6 327.155 C 1583.349 325.903 1584.527 326.034 1587.379 327.463 L 1589.784 328.669 L 1587.642 326.439 C 1586.463 325.213 1585.499 323.939 1585.499 323.608 C 1585.499 323.277 1584.97 322.528 1584.324 321.943 C 1583.515 321.211 1583.252 320.468 1583.481 319.558 C 1583.663 318.831 1583.526 317.699 1583.175 317.043 C 1582.713 316.181 1582.709 315.678 1583.161 315.227 C 1583.504 314.883 1583.785 313.625 1583.785 312.431 C 1583.785 310.663 1583.991 310.26 1584.894 310.26 C 1586.624 310.26 1586.736 309.406 1585.196 307.958 C 1583.813 306.66 1583.229 305.278 1584.356 305.975 C 1584.671 306.17 1584.928 306.056 1584.928 305.723 C 1584.928 305.391 1584.671 305.118 1584.356 305.118 C 1584.042 305.118 1583.785 304.726 1583.785 304.247 C 1583.785 303.465 1583.96 303.465 1585.471 304.247 C 1589.094 306.12 1588.74 304.938 1584.352 300.509 C 1578.802 294.906 1578.452 294.023 1582.445 295.691 C 1585.386 296.92 1585.452 296.768 1582.819 294.832 C 1580.515 293.138 1578.643 290.849 1578.643 289.727 C 1578.643 289.387 1579.408 289.289 1580.5 289.487 L 1582.357 289.824 L 1580.147 287.947 C 1578.817 286.818 1577.315 284.686 1576.376 282.596 C 1575.518 280.686 1574.112 278.287 1573.251 277.266 C 1571.298 274.949 1572.042 274.87 1577.27 276.838 C 1582.747 278.899 1582.847 278.618 1577.741 275.523 C 1573.11 272.716 1572.467 271.848 1574.758 271.495 C 1575.955 271.311 1575.9 271.206 1574.066 270.183 L 1572.073 269.072 L 1574.812 269.317 C 1578.2 269.619 1578.155 268.776 1574.688 267.007 C 1571.402 265.33 1571.09 264.908 1573.501 265.399 L 1575.501 265.805 L 1573.526 264.12 L 1571.551 262.435 L 1572.943 261.69 C 1574.369 260.927 1575.786 259.7 1575.786 259.229 C 1575.786 259.084 1575.144 258.803 1574.358 258.606 C 1572.673 258.183 1572.506 256.444 1573.803 252.842 C 1574.907 249.778 1574.858 246.566 1573.655 243.211 L 1572.66 240.437 L 1574.366 239.072 C 1575.606 238.08 1575.808 237.706 1575.106 237.704 C 1574.238 237.701 1574.222 237.544 1574.948 236.144 C 1575.648 234.796 1575.645 234.525 1574.928 234.124 C 1574.472 233.869 1573.356 231.292 1572.447 228.397 C 1571.538 225.501 1570.359 222.104 1569.826 220.847 C 1569.294 219.59 1567.879 214.699 1566.682 209.978 C 1563.407 197.057 1559.916 191.195 1555.495 191.195 C 1551.344 191.195 1547.248 197.144 1542.334 210.312 C 1539.803 217.094 1534.988 225.979 1534.131 225.45 C 1533.909 225.312 1533.406 226.398 1533.015 227.863 C 1532.509 229.753 1532.16 230.295 1531.811 229.73 C 1531.476 229.188 1531.098 230.056 1530.627 232.45 C 1530.247 234.384 1529.73 235.838 1529.478 235.683 C 1528.943 235.352 1528.64 236.264 1527.857 240.558 C 1526.854 246.063 1525.229 250 1524.013 249.875 C 1523.422 249.814 1519.945 249.587 1516.287 249.369 L 1509.637 248.973 L 1509.295 246.908 C 1508.815 244.005 1508.883 240.069 1509.455 237.603 C 1509.83 235.992 1509.775 235.57 1509.217 235.785 C 1508.702 235.982 1508.373 235.051 1508.088 232.597 C 1507.676 229.043 1507.391 228.624 1506.198 229.817 C 1505.665 230.35 1505.513 230.1 1505.513 228.692 C 1505.513 227.398 1505.291 226.967 1504.733 227.181 C 1503.388 227.697 1501.23 224.385 1495.498 213.012 C 1489.354 200.822 1487.48 197.799 1484.945 195.994 C 1481.354 193.437 1478.156 194.797 1475.538 199.994 C 1470.919 209.162 1466.219 232.954 1466.849 243.986 C 1467.224 250.573 1468.146 253.819 1471.949 261.943 L 1474.872 268.188 L 1473.901 271.894 C 1473.366 273.931 1471.851 278.063 1470.534 281.074 C 1467.94 287.003 1467.658 289.392 1468.629 297.193 L 1469.1 300.979 L 1466.639 303.649 C 1465.285 305.118 1461.33 308.454 1457.85 311.063 C 1451.158 316.08 1445.523 321.582 1445.523 323.099 C 1445.523 324.69 1447.039 327.639 1448.592 329.071 C 1449.759 330.147 1450.094 330.995 1450.094 332.873 C 1450.094 334.799 1450.5 335.777 1452.093 337.684 C 1453.479 339.343 1454.093 340.649 1454.093 341.937 C 1454.093 345.085 1456.887 348.536 1461.334 350.882 C 1463.9 352.236 1465.293 353.33 1465.405 354.081 C 1465.499 354.709 1464.814 357.141 1463.883 359.486 C 1459.881 369.561 1460.623 375.38 1466.027 376.288 C 1467.162 376.479 1468.959 377.026 1470.02 377.503 L 1471.95 378.371 L 1471.586 381.916 C 1471.336 384.361 1471.489 386.337 1472.079 388.283 C 1473.415 392.687 1473.197 395.343 1471.246 398.419 C 1469.99 400.399 1469.765 401.102 1470.389 401.102 C 1471.506 401.102 1471.46 402.189 1470.287 403.485 C 1469.616 404.227 1469.555 404.53 1470.077 404.53 C 1470.592 404.53 1470.718 405.106 1470.498 406.462 C 1470.321 407.553 1470.462 408.673 1470.823 409.033 C 1471.294 409.504 1471.281 409.852 1470.776 410.357 C 1469.864 411.269 1469.908 411.957 1470.877 411.957 C 1471.31 411.957 1471.97 412.325 1472.342 412.774 C 1472.88 413.422 1472.646 414.368 1471.206 417.353 C 1469.733 420.406 1469.524 421.273 1470.094 421.96 C 1470.657 422.639 1470.609 423.094 1469.849 424.254 C 1469.327 425.05 1469.065 425.968 1469.267 426.295 C 1469.469 426.621 1468.564 428.156 1467.257 429.707 C 1465.168 432.185 1465.024 432.525 1466.072 432.525 C 1467.211 432.525 1467.225 432.599 1466.377 434.239 C 1465.578 435.783 1465.578 435.953 1466.373 435.953 C 1467.029 435.953 1467.163 436.32 1466.897 437.381 C 1466.626 438.462 1466.762 438.81 1467.457 438.81 C 1468.685 438.81 1468.629 439.135 1466.89 442.103 L 1465.403 444.639 L 1467.292 444.224 L 1469.181 443.81 L 1468.199 445.166 C 1465.921 448.311 1465.756 449.122 1467.178 450.194 L 1468.496 451.189 L 1467.326 455.324 C 1466.682 457.598 1465.689 460.276 1465.119 461.275 C 1464.26 462.781 1464.096 464.28 1464.16 470.047 C 1464.228 476.155 1464.386 477.211 1465.454 478.712 C 1467.306 481.312 1467.601 483.731 1466.288 485.554 C 1465.507 486.638 1465.287 487.589 1465.536 488.801 C 1465.73 489.744 1465.668 490.965 1465.398 491.515 C 1465.092 492.139 1465.13 492.515 1465.499 492.515 C 1465.825 492.515 1466.091 493.008 1466.091 493.61 C 1466.091 494.212 1466.409 494.811 1466.798 494.941 C 1467.357 495.127 1467.36 495.497 1466.81 496.702 C 1466.228 497.981 1466.252 498.228 1466.96 498.228 C 1467.479 498.228 1467.838 498.833 1467.892 499.799 C 1467.94 500.663 1468.041 501.628 1468.117 501.942 C 1468.639 504.099 1469.184 505.084 1469.853 505.084 C 1470.305 505.084 1470.489 505.44 1470.297 505.941 C 1470.096 506.464 1470.296 506.798 1470.809 506.798 C 1471.318 506.798 1472.144 508.149 1472.895 510.211 C 1473.58 512.089 1474.665 513.992 1475.307 514.442 C 1476.249 515.102 1476.356 515.477 1475.866 516.393 C 1475.366 517.328 1475.458 517.579 1476.388 517.822 C 1477.009 517.985 1477.518 518.527 1477.518 519.028 C 1477.518 519.573 1478.001 519.939 1478.722 519.939 C 1479.722 519.939 1479.866 520.182 1479.568 521.367 C 1479.304 522.421 1479.437 522.795 1480.078 522.795 C 1480.555 522.795 1480.945 523.052 1480.945 523.367 C 1480.945 523.681 1481.359 523.938 1481.864 523.938 C 1482.445 523.938 1482.661 524.252 1482.453 524.795 C 1482.253 525.317 1482.452 525.652 1482.963 525.652 C 1483.923 525.652 1484.086 526.552 1483.221 527.086 C 1482.321 527.642 1483.151 528.503 1484.2 528.101 C 1484.861 527.847 1485 527.956 1484.68 528.475 C 1484.431 528.878 1484.495 529.373 1484.822 529.575 C 1485.149 529.777 1485.697 531.958 1486.039 534.422 C 1486.867 540.37 1487.566 541.607 1488.098 538.06 L 1488.501 535.375 L 1489.58 537.49 C 1490.173 538.654 1490.658 540.065 1490.658 540.627 C 1490.658 541.268 1491.084 541.649 1491.801 541.649 C 1492.436 541.649 1492.943 542.03 1492.943 542.506 C 1492.943 542.978 1493.201 543.363 1493.515 543.363 C 1493.829 543.363 1494.086 543.749 1494.086 544.22 C 1494.086 544.692 1494.472 545.077 1494.943 545.077 C 1495.476 545.077 1495.8 545.617 1495.8 546.506 C 1495.8 547.553 1496.105 547.934 1496.943 547.934 C 1497.571 547.934 1498.085 548.221 1498.085 548.572 C 1498.085 548.929 1498.589 549.078 1499.228 548.911 C 1500.269 548.639 1500.373 548.899 1500.394 551.844 L 1500.416 555.075 L 1501.379 553.362 L 1502.342 551.648 L 1502.701 555.248 C 1502.898 557.229 1503.354 559.144 1503.715 559.505 C 1504.208 559.998 1504.37 559.857 1504.37 558.937 C 1504.37 558.264 1504.627 557.555 1504.941 557.361 C 1505.272 557.157 1505.513 557.699 1505.513 558.646 C 1505.513 559.547 1505.871 560.774 1506.308 561.372 C 1506.983 562.296 1507.241 562.345 1508.022 561.697 C 1508.826 561.03 1508.941 561.119 1508.941 562.404 C 1508.941 563.213 1509.391 564.13 1509.941 564.442 C 1510.77 564.913 1510.823 565.202 1510.253 566.134 C 1509.697 567.043 1509.724 567.318 1510.396 567.576 C 1510.853 567.751 1511.589 567.755 1512.032 567.586 C 1512.832 567.278 1513.838 569.19 1513.338 570.068 C 1513.203 570.306 1513.27 575.643 1513.488 581.928 C 1513.787 590.576 1513.695 594.327 1513.108 597.354 C 1512.225 601.911 1511.387 609.661 1510.697 619.664 C 1510.272 625.814 1509.967 627.185 1507.833 632.519 C 1506.519 635.803 1505.024 638.811 1504.512 639.204 C 1503.939 639.643 1501.752 639.918 1498.825 639.918 C 1494.313 639.918 1493.908 640.025 1490.952 641.987 C 1488.368 643.703 1487.928 644.229 1488.377 645.069 C 1488.775 645.812 1488.609 646.475 1487.75 647.567 C 1486.656 648.957 1486.622 649.343 1487.232 653.485 C 1488.341 661.024 1488.859 662.228 1491.488 663.376 C 1493.646 664.319 1497.735 665.053 1505.665 665.923 L 1508.959 666.284 L 1507.87 667.813 C 1507.271 668.654 1505.611 672.083 1504.179 675.435 C 1500.973 682.942 1497.96 688.972 1495.457 692.89 C 1494.41 694.529 1492.926 697.1 1492.159 698.603 C 1489.886 703.058 1488.093 704.32 1480.191 707.025 C 1476.251 708.374 1472.113 710.042 1470.997 710.732 C 1467.933 712.626 1465.143 716.61 1467.519 715.698 C 1468.656 715.262 1468.603 715.86 1467.185 719.455 C 1463.608 728.525 1467.478 732.658 1479.517 732.625 C 1490.398 732.595 1504.45 727.247 1508.176 721.717 C 1509.268 720.098 1509.451 720.007 1509.612 721.006 C 1509.735 721.762 1510.961 719.902 1513.226 715.523 C 1518.882 704.587 1521.949 700.995 1524.101 702.781 C 1525.278 703.758 1526.362 703.154 1528.343 700.42 C 1529.705 698.54 1530.08 697.429 1530.08 695.274 C 1530.08 693.204 1530.381 692.245 1531.298 691.391 C 1531.967 690.767 1532.809 689.666 1533.169 688.945 C 1533.528 688.224 1534.33 687.54 1534.951 687.425 C 1536.569 687.125 1537.507 686.222 1537.507 684.965 C 1537.507 684.365 1537.893 683.727 1538.364 683.546 C 1538.836 683.365 1539.221 682.915 1539.221 682.546 C 1539.221 681.093 1543.352 675.329 1544.621 675.011 C 1545.343 674.83 1546.221 674.051 1546.572 673.281 C 1546.923 672.511 1547.598 671.732 1548.072 671.55 C 1548.584 671.353 1548.934 670.5 1548.934 669.45 L 1548.934 667.681 L 1551.076 669.707 C 1555.556 673.943 1561.082 676.483 1565.818 676.483 C 1567.439 676.483 1569.726 677.192 1572.728 678.626 C 1576.89 680.613 1577.567 680.763 1582.071 680.699 C 1586.882 680.63 1598.439 678.354 1606.556 675.877 C 1611.226 674.452 1616.729 674.449 1626.921 675.867 C 1631.32 676.479 1638.241 677.269 1642.302 677.622 C 1646.681 678.003 1650.517 678.649 1651.729 679.209 L 1653.773 680.155 L 1651.202 680.332 C 1649.788 680.43 1644.775 680.732 1640.061 681.004 C 1631.596 681.493 1631.42 681.531 1625.67 684.082 C 1619.719 686.722 1615.77 689.121 1613.834 691.271 C 1612.754 692.471 1612.757 692.48 1614.196 692.48 L 1615.647 692.48 L 1614.345 695.765 C 1612.169 701.257 1612.113 701.622 1613.456 701.622 C 1614.421 701.622 1614.637 701.981 1614.637 703.584 C 1614.637 706.901 1615.537 708.335 1618.591 709.883 C 1623.405 712.323 1628.075 712.801 1639.627 712.037 C 1651.869 711.227 1658.442 710.136 1664.906 707.84 C 1671.315 705.563 1672.584 705.482 1672.771 707.335 C 1673.173 711.342 1674.289 714.953 1675.611 716.523 C 1676.627 717.731 1677.212 718.058 1677.506 717.583 C 1677.811 717.088 1678.497 717.327 1679.946 718.432 C 1681.855 719.888 1686.508 721.95 1689.358 722.603 C 1690.158 722.786 1691.099 722.508 1691.785 721.887 C 1692.829 720.942 1693.055 720.935 1695.05 721.778 C 1699.636 723.717 1705.011 725.127 1709.626 725.603 C 1714.697 726.126 1719.419 727.791 1724.227 730.749 C 1728.568 733.42 1749.106 739.335 1763.754 742.132 C 1775.547 744.385 1817.189 745.861 1828.886 744.442 L 1828.886 744.442 Z  M 1553.266 655.569 C 1551.315 654.82 1552.664 650.226 1556.725 643.794 C 1558.307 641.287 1558.414 640.489 1557.169 640.489 C 1556.477 640.489 1556.68 639.921 1558.026 638.092 C 1558.996 636.773 1559.789 635.117 1559.789 634.412 C 1559.789 633.706 1560.046 632.971 1560.361 632.776 C 1561.275 632.211 1561.02 631.35 1559.932 631.329 C 1559.09 631.313 1559.143 631.134 1560.269 630.196 C 1561.004 629.584 1561.497 628.76 1561.366 628.364 C 1561.234 627.969 1561.76 627.148 1562.534 626.539 C 1563.939 625.433 1563.94 625.43 1562.723 624.98 C 1561.515 624.533 1561.13 623.027 1561.94 621.918 C 1562.171 621.602 1563.375 620.586 1564.615 619.661 L 1566.869 617.979 L 1564.9 617.467 L 1562.932 616.955 L 1565.074 615.853 C 1567.53 614.591 1567.852 613.637 1565.822 613.637 C 1565.055 613.637 1564.32 613.444 1564.19 613.208 C 1564.059 612.973 1564.771 610.993 1565.771 608.81 L 1567.591 604.839 L 1570.003 608.392 C 1571.33 610.346 1573.432 612.617 1574.673 613.438 C 1575.915 614.26 1577.508 615.862 1578.214 616.998 C 1580.52 620.71 1582.107 623.597 1583.041 625.778 C 1583.546 626.956 1584.311 627.92 1584.743 627.92 C 1585.174 627.92 1585.793 628.627 1586.117 629.491 C 1586.441 630.355 1587.369 631.683 1588.179 632.442 C 1589.547 633.724 1589.581 633.874 1588.661 634.547 C 1587.348 635.507 1587.889 636.235 1591.146 637.885 C 1592.636 638.64 1594.225 639.709 1594.676 640.261 C 1595.128 640.813 1598.045 642.921 1601.158 644.946 C 1606.155 648.195 1606.691 648.699 1605.729 649.242 C 1605.017 649.643 1597.999 649.875 1585.499 649.911 L 1566.36 649.966 L 1560.411 652.94 C 1557.14 654.577 1554.397 655.915 1554.316 655.915 C 1554.235 655.915 1553.763 655.759 1553.266 655.569 L 1553.266 655.569 Z " fill="rgb(67,16,70)"/><path d=" M 89.777 703.09 C 87.72 703.155 84.23 702.822 82.022 702.348 C 73.641 700.55 57.716 699.961 49.927 701.159 C 45.899 701.779 38.99 700.453 36.573 698.595 C 34.117 696.707 34.105 696.669 35.389 694.782 C 36.96 692.473 40.898 689.241 50.465 682.41 C 57.018 677.732 60.343 674.924 63.255 671.61 C 69.398 664.619 74.405 662.01 86.801 659.34 C 97.124 657.117 111.055 653.14 115.039 651.279 C 119.285 649.295 124.483 648.314 129.412 648.566 C 132.183 648.707 133.416 648.472 136.846 647.145 C 139.893 645.967 142.347 645.434 146.328 645.086 C 152.592 644.539 155.407 643.679 156.698 641.919 C 158.766 639.099 157.412 636.978 146.802 626.422 C 142.374 622.015 137.746 616.756 135.602 613.694 L 131.949 608.476 L 132.341 611.594 C 132.557 613.31 132.531 614.354 132.282 613.916 C 132.034 613.477 130.976 612.203 129.932 611.085 C 127.381 608.354 125.81 605.693 124.868 602.506 C 124.437 601.05 122.561 595.151 120.698 589.397 C 113.866 568.291 112.402 548.498 116.595 533.921 C 118.021 528.966 123.139 517.934 127.264 510.927 C 130.336 505.707 137.709 496.18 160.288 468.257 C 187.619 434.456 191.507 428.982 201.765 409.862 C 214.879 385.421 218.907 378.279 223.183 371.883 C 225.315 368.693 229.441 361.945 232.351 356.888 C 239.86 343.837 241.238 341.967 247.502 336.324 C 255.884 328.774 257.372 326.056 259.246 314.886 C 259.886 311.068 261.201 306.277 262.414 303.344 C 263.554 300.585 264.466 298.187 264.439 298.014 C 264.413 297.841 263.603 298.063 262.64 298.507 C 259.559 299.928 259.189 299.62 261.511 297.566 C 262.755 296.465 264.286 294.799 264.913 293.863 L 266.052 292.161 L 264.297 292.431 C 263.331 292.58 261.779 292.512 260.849 292.281 L 259.157 291.86 L 260.539 291.45 C 265.131 290.088 265.797 289.761 264.57 289.471 C 263.418 289.198 263.419 289.178 264.603 288.956 C 266.262 288.646 268.259 286.119 268.415 284.132 C 268.524 282.733 268.409 282.589 267.55 283.062 C 266.598 283.586 266.591 283.556 267.38 282.316 C 268.107 281.174 268.199 279.685 267.901 273.912 C 267.86 273.1 267.971 272.091 268.149 271.671 C 268.327 271.251 268.288 269.391 268.062 267.538 C 267.757 265.033 267.456 264.198 266.889 264.286 C 266.429 264.356 266.179 263.993 266.26 263.371 C 266.402 262.282 266.71 258.722 266.89 256.089 C 266.949 255.227 267.334 254.063 267.747 253.5 C 268.793 252.073 267.649 252.381 265.048 254.227 L 262.854 255.785 L 264.632 253.255 C 265.61 251.864 266.369 250.459 266.319 250.132 C 266.269 249.805 266.677 248.984 267.227 248.307 C 267.915 247.461 268.062 246.686 267.698 245.821 C 267.407 245.13 267.371 243.991 267.618 243.289 C 267.943 242.367 267.87 241.87 267.355 241.492 C 266.964 241.205 266.495 240.004 266.313 238.824 C 266.044 237.077 265.78 236.71 264.887 236.847 C 263.177 237.11 262.936 236.282 264.238 234.618 C 265.407 233.124 265.775 231.67 264.766 232.53 C 264.485 232.77 264.214 232.697 264.163 232.368 C 264.113 232.039 264.326 231.731 264.636 231.683 C 264.947 231.635 265.141 231.209 265.068 230.735 C 264.949 229.962 264.777 229.989 263.402 230.991 C 260.106 233.394 260.276 232.172 263.939 227.126 C 268.573 220.744 268.784 219.819 265.091 222.075 C 262.372 223.737 262.283 223.597 264.591 221.283 C 266.61 219.257 268.112 216.711 267.942 215.602 C 267.89 215.266 267.119 215.285 266.07 215.647 L 264.286 216.262 L 266.185 214.071 C 267.327 212.753 268.488 210.418 269.098 208.209 C 269.655 206.191 270.681 203.606 271.376 202.466 C 272.954 199.879 272.206 199.913 267.339 202.653 C 262.239 205.524 262.097 205.262 266.673 201.426 C 270.823 197.947 271.326 196.991 269.009 196.991 C 267.797 196.991 267.836 196.879 269.493 195.589 L 271.294 194.188 L 268.624 194.846 C 265.321 195.66 265.238 194.821 268.395 192.545 C 271.388 190.387 271.632 189.923 269.323 190.774 L 267.409 191.48 L 269.104 189.515 L 270.8 187.549 L 269.311 187.024 C 267.785 186.487 266.198 185.49 266.126 185.024 C 266.104 184.88 266.697 184.505 267.443 184.191 C 269.044 183.517 268.945 181.772 267.115 178.409 C 265.558 175.549 265.118 172.368 265.796 168.868 L 266.357 165.975 L 264.464 164.886 C 263.088 164.094 262.831 163.755 263.524 163.646 C 264.382 163.512 264.374 163.353 263.444 162.081 C 262.547 160.854 262.508 160.586 263.156 160.081 C 263.568 159.759 264.279 157.042 264.737 154.042 C 265.195 151.043 265.844 147.506 266.179 146.182 C 266.514 144.859 267.168 139.81 267.633 134.961 C 268.905 121.692 271.464 115.368 275.833 114.695 C 279.936 114.064 284.889 119.321 291.749 131.588 C 295.282 137.906 301.393 145.955 302.159 145.302 C 302.358 145.132 303.019 146.129 303.629 147.517 C 304.416 149.308 304.844 149.79 305.103 149.179 C 305.352 148.593 305.857 149.393 306.687 151.688 C 307.357 153.541 308.089 154.9 308.315 154.708 C 308.793 154.3 309.231 155.155 310.658 159.28 C 312.487 164.568 314.691 168.212 315.875 167.904 C 316.449 167.754 319.851 167 323.433 166.229 L 329.946 164.826 L 329.97 162.733 C 330.003 159.79 329.337 155.91 328.396 153.561 C 327.781 152.025 327.771 151.6 328.355 151.727 C 328.894 151.843 329.078 150.874 328.986 148.405 C 328.853 144.83 329.071 144.372 330.431 145.369 C 331.039 145.815 331.151 145.545 330.937 144.154 C 330.74 142.874 330.894 142.415 331.478 142.541 C 332.886 142.847 334.515 139.245 338.451 127.133 C 342.668 114.15 344.061 110.877 346.292 108.707 C 349.452 105.634 352.82 106.491 356.198 111.229 C 362.158 119.589 370.422 142.389 371.478 153.388 C 372.108 159.956 371.691 163.304 369.168 171.912 L 367.229 178.529 L 368.753 182.044 C 369.591 183.977 371.717 187.829 373.477 190.606 C 376.942 196.071 377.585 198.389 377.812 206.247 L 377.922 210.061 L 380.76 212.325 C 382.322 213.571 386.738 216.267 390.575 218.316 C 397.952 222.256 404.358 226.838 404.589 228.337 C 404.831 229.909 403.782 233.054 402.464 234.706 C 401.475 235.947 401.273 236.837 401.558 238.693 C 401.851 240.596 401.598 241.625 400.314 243.752 C 399.196 245.602 398.788 246.986 398.984 248.259 C 399.463 251.371 397.226 255.207 393.188 258.202 C 390.858 259.93 389.648 261.223 389.651 261.983 C 389.653 262.618 390.7 264.917 391.977 267.093 C 397.465 276.442 397.617 282.306 392.414 284.026 C 391.321 284.387 389.628 285.201 388.652 285.834 L 386.877 286.986 L 387.776 290.434 C 388.395 292.813 388.544 294.789 388.257 296.801 C 387.607 301.358 388.226 303.949 390.623 306.693 C 392.165 308.459 392.494 309.12 391.878 309.214 C 390.773 309.384 390.984 310.452 392.34 311.554 C 393.117 312.186 393.223 312.476 392.707 312.555 C 392.198 312.633 392.161 313.222 392.585 314.529 C 392.926 315.58 392.956 316.708 392.655 317.119 C 392.261 317.656 392.326 317.999 392.903 318.421 C 393.942 319.183 394.004 319.87 393.046 320.018 C 392.618 320.083 392.022 320.547 391.722 321.048 C 391.289 321.77 391.665 322.669 393.541 325.4 C 395.462 328.194 395.8 329.02 395.341 329.785 C 394.888 330.542 395.005 330.984 395.933 332.015 C 396.57 332.722 396.968 333.59 396.818 333.943 C 396.669 334.297 397.796 335.676 399.324 337.01 C 401.766 339.141 401.959 339.456 400.924 339.615 C 399.797 339.789 399.796 339.864 400.883 341.356 C 401.907 342.76 401.933 342.928 401.148 343.049 C 400.5 343.149 400.422 343.532 400.847 344.541 C 401.28 345.567 401.197 345.932 400.511 346.037 C 399.297 346.224 399.402 346.537 401.573 349.206 L 403.428 351.487 L 401.497 351.364 L 399.567 351.241 L 400.745 352.433 C 403.474 355.194 403.76 355.971 402.519 357.247 L 401.367 358.431 L 403.152 362.339 C 404.134 364.489 405.523 366.985 406.238 367.886 C 407.317 369.243 407.707 370.7 408.521 376.41 C 409.383 382.457 409.388 383.524 408.56 385.17 C 407.125 388.022 407.202 390.458 408.777 392.06 C 409.713 393.013 410.076 393.919 410.014 395.155 C 409.966 396.116 410.213 397.314 410.563 397.816 C 410.96 398.386 410.98 398.764 410.615 398.82 C 410.293 398.869 410.105 399.397 410.197 399.992 C 410.288 400.587 410.065 401.228 409.7 401.415 C 409.176 401.684 409.23 402.05 409.956 403.158 C 410.726 404.334 410.74 404.581 410.04 404.689 C 409.527 404.768 409.264 405.42 409.358 406.383 C 409.442 407.245 409.489 408.213 409.461 408.535 C 409.273 410.746 408.885 411.803 408.223 411.905 C 407.777 411.974 407.649 412.353 407.915 412.82 C 408.193 413.306 408.046 413.667 407.539 413.745 C 407.037 413.822 406.426 415.283 405.996 417.436 C 405.605 419.395 404.823 421.442 404.257 421.984 C 403.426 422.779 403.377 423.166 404 423.997 C 404.637 424.845 404.585 425.107 403.702 425.489 C 403.113 425.744 402.693 426.358 402.769 426.853 C 402.852 427.392 402.43 427.826 401.717 427.936 C 400.729 428.088 400.624 428.35 401.098 429.476 C 401.52 430.478 401.445 430.868 400.812 430.965 C 400.34 431.038 399.993 431.352 400.041 431.662 C 400.089 431.973 399.72 432.29 399.22 432.367 C 398.646 432.455 398.48 432.798 398.768 433.303 C 399.046 433.789 398.9 434.15 398.395 434.228 C 397.445 434.374 397.422 435.288 398.357 435.684 C 399.331 436.097 398.642 437.075 397.545 436.836 C 396.853 436.686 396.731 436.815 397.127 437.279 C 397.435 437.64 397.447 438.139 397.154 438.388 C 396.862 438.638 396.652 440.876 396.688 443.363 C 396.775 449.368 396.272 450.697 395.207 447.273 L 394.4 444.68 L 393.656 446.935 C 393.246 448.175 392.981 449.644 393.067 450.199 C 393.164 450.833 392.801 451.274 392.093 451.383 C 391.466 451.48 391.022 451.933 391.094 452.404 C 391.166 452.87 390.97 453.29 390.66 453.338 C 390.349 453.386 390.154 453.806 390.225 454.272 C 390.297 454.738 389.975 455.178 389.509 455.249 C 388.982 455.33 388.744 455.913 388.879 456.791 C 389.038 457.827 388.795 458.249 387.967 458.377 C 387.346 458.472 386.881 458.834 386.934 459.181 C 386.989 459.534 386.514 459.758 385.857 459.69 C 384.786 459.579 384.723 459.852 385.151 462.766 L 385.62 465.964 L 384.407 464.416 L 383.195 462.869 L 383.389 466.482 C 383.495 468.47 383.335 470.432 383.034 470.843 C 382.621 471.406 382.44 471.291 382.3 470.382 C 382.197 469.717 381.835 469.055 381.495 468.911 C 381.138 468.759 380.982 469.332 381.126 470.268 C 381.263 471.159 381.096 472.426 380.755 473.083 C 380.228 474.099 379.98 474.187 379.11 473.665 C 378.214 473.128 378.114 473.233 378.309 474.504 C 378.432 475.303 378.127 476.278 377.631 476.67 C 376.884 477.262 376.875 477.556 377.58 478.39 C 378.267 479.204 378.282 479.48 377.658 479.837 C 377.233 480.079 376.506 480.196 376.043 480.095 C 375.205 479.913 374.501 481.955 375.129 482.747 C 375.299 482.962 376.044 488.247 376.785 494.492 C 377.804 503.085 378.466 506.778 379.506 509.681 C 381.073 514.05 383.079 521.583 385.283 531.364 C 386.638 537.379 387.149 538.687 390.07 543.634 C 391.868 546.68 393.802 549.426 394.368 549.736 C 395.002 550.083 397.205 550.022 400.098 549.577 C 404.557 548.891 404.974 548.934 408.194 550.425 C 411.01 551.728 411.524 552.18 411.207 553.078 C 410.927 553.874 411.193 554.504 412.208 555.453 C 413.5 556.66 413.592 557.036 413.62 561.222 C 413.67 568.843 413.342 570.112 410.918 571.646 C 408.928 572.906 404.998 574.254 397.294 576.319 L 394.093 577.177 L 395.401 578.523 C 396.121 579.263 398.284 582.4 400.208 585.495 C 404.519 592.427 408.414 597.928 411.484 601.42 C 412.768 602.881 414.626 605.196 415.613 606.565 C 418.537 610.623 420.502 611.597 428.723 613.069 C 432.822 613.803 437.165 614.822 438.374 615.335 C 441.69 616.74 445.054 620.254 442.566 619.714 C 441.377 619.456 441.52 620.039 443.468 623.375 C 448.383 631.796 445.186 636.47 433.282 638.268 C 422.524 639.894 407.822 636.745 403.298 631.847 C 401.973 630.412 401.778 630.351 401.77 631.362 C 401.764 632.128 400.269 630.476 397.365 626.492 C 390.111 616.545 386.534 613.46 384.678 615.553 C 383.663 616.698 382.5 616.266 380.126 613.865 C 378.494 612.214 377.954 611.173 377.627 609.043 C 377.312 606.997 376.868 606.095 375.833 605.39 C 375.076 604.875 374.076 603.916 373.611 603.258 C 373.146 602.6 372.25 602.046 371.619 602.026 C 369.974 601.975 368.909 601.226 368.718 599.984 C 368.627 599.391 368.148 598.818 367.655 598.711 C 367.161 598.604 366.712 598.218 366.656 597.854 C 366.435 596.417 361.476 591.349 360.172 591.227 C 359.431 591.158 358.445 590.522 357.981 589.814 C 357.517 589.106 356.732 588.439 356.235 588.331 C 355.7 588.215 355.224 587.425 355.064 586.387 L 354.795 584.639 L 352.986 586.967 C 349.202 591.836 344.127 595.186 339.446 595.907 C 337.844 596.153 335.692 597.202 332.943 599.075 C 329.132 601.673 328.485 601.924 324.024 602.546 C 319.258 603.209 307.49 602.718 299.091 601.505 C 294.257 600.806 288.818 601.64 278.961 604.592 C 274.706 605.866 267.985 607.699 264.025 608.666 C 259.756 609.708 256.063 610.93 254.95 611.669 L 253.073 612.914 L 255.641 612.699 C 257.054 612.58 262.055 612.116 266.755 611.668 C 275.196 610.864 275.375 610.874 281.447 612.521 C 287.73 614.225 291.998 615.995 294.238 617.826 C 295.488 618.848 295.486 618.858 294.064 619.077 L 292.631 619.297 L 294.417 622.346 C 297.403 627.443 297.513 627.795 296.187 627.999 C 295.233 628.146 295.074 628.534 295.318 630.118 C 295.822 633.397 295.151 634.951 292.368 636.945 C 287.981 640.089 283.438 641.271 271.904 642.273 C 259.681 643.335 253.019 643.257 246.281 641.97 C 239.6 640.695 238.333 640.808 238.431 642.668 C 238.643 646.689 238.089 650.428 237.022 652.181 C 236.201 653.53 235.672 653.942 235.31 653.517 C 234.933 653.074 234.291 653.415 233.027 654.727 C 231.362 656.457 227.077 659.202 224.359 660.281 C 223.596 660.584 222.624 660.453 221.851 659.943 C 220.676 659.168 220.451 659.195 218.607 660.332 C 214.37 662.946 209.272 665.157 204.783 666.33 C 199.851 667.618 195.437 669.981 191.135 673.637 C 187.251 676.936 167.851 685.906 153.799 690.9 C 142.486 694.92 101.553 702.713 89.777 703.09 L 89.777 703.09 Z  M 348.671 573.326 C 350.486 572.29 348.453 567.955 343.461 562.215 C 341.516 559.978 341.289 559.206 342.52 559.016 C 343.203 558.911 342.916 558.38 341.308 556.777 C 340.149 555.621 339.113 554.105 339.006 553.408 C 338.898 552.711 338.532 552.023 338.192 551.879 C 337.202 551.459 337.323 550.569 338.395 550.383 C 339.225 550.239 339.145 550.07 337.891 549.315 C 337.071 548.821 336.458 548.081 336.528 547.671 C 336.598 547.26 335.953 546.528 335.095 546.044 C 333.538 545.165 333.537 545.162 334.672 544.532 C 335.797 543.907 335.948 542.359 334.979 541.387 C 334.703 541.109 333.359 540.289 331.993 539.563 L 329.508 538.243 L 331.376 537.437 L 333.244 536.632 L 330.959 535.869 C 328.34 534.995 327.876 534.101 329.883 533.792 C 330.641 533.676 331.338 533.373 331.431 533.121 C 331.525 532.868 330.52 531.02 329.199 529.013 L 326.797 525.366 L 324.953 529.244 C 323.938 531.378 322.207 533.942 321.105 534.943 C 320.003 535.943 318.671 537.769 318.146 539 C 316.432 543.019 315.302 546.113 314.711 548.411 C 314.391 549.652 313.781 550.722 313.355 550.787 C 312.928 550.853 312.425 551.646 312.236 552.549 C 312.047 553.453 311.332 554.906 310.646 555.78 C 309.489 557.254 309.478 557.408 310.49 557.933 C 311.934 558.682 311.51 559.484 308.542 561.61 C 307.184 562.583 305.777 563.881 305.414 564.495 C 305.052 565.109 302.489 567.637 299.72 570.112 C 295.276 574.083 294.823 574.663 295.856 575.053 C 296.621 575.341 303.592 574.503 315.952 572.637 L 334.878 569.78 L 341.209 571.816 C 344.692 572.935 347.606 573.841 347.686 573.829 C 347.766 573.816 348.209 573.59 348.671 573.326 L 348.671 573.326 Z " fill="rgb(67,16,70)"/><g opacity="0.71"><linearGradient id="_lgradient_1" x1="0.5" y1="0" x2="0.5000000000000001" y2="1.0087719298245612" gradientTransform="matrix(1920,0,0,1080.492,0,-0.492)" gradientUnits="userSpaceOnUse"><stop offset="0%" stop-opacity="1" style="stop-color:rgb(255,255,255)"/><stop offset="99.1304347826087%" stop-opacity="0" style="stop-color:rgb(255,255,255)"/></linearGradient><rect x="0" y="-0.492" width="1920" height="1080.492" transform="matrix(1,0,0,1,0,0)" fill="url(#_lgradient_1)"/></g><path d=" M 1767.804 1036.085 C 1764.467 1035.715 1763.566 1033.969 1764.002 1028.717 C 1764.354 1024.468 1766.155 1017.132 1768.45 1010.595 L 1768.907 1009.293 L 1768.013 1009.67 C 1766.403 1010.35 1762.592 1011.163 1761.164 1011.131 C 1755.895 1011.012 1752.581 1008.043 1750.752 1001.803 C 1747.629 991.145 1749.251 977.979 1755.535 962.967 C 1756.02 961.809 1756.378 960.87 1756.331 960.881 C 1756.284 960.893 1750.864 970.668 1744.287 982.605 C 1731.958 1004.98 1731.032 1006.525 1727.897 1009.957 C 1725.695 1012.368 1724.598 1012.656 1724.224 1010.922 C 1723.735 1008.648 1725.436 1002.596 1729.482 992.221 C 1734.526 979.285 1745.302 955.345 1755.124 935.258 C 1758.18 929.008 1762.918 917.935 1763.889 914.773 C 1765.07 910.933 1765.244 907.309 1764.41 903.96 C 1763.677 901.017 1763.632 900.955 1762.547 901.382 C 1760.666 902.122 1757.689 905.131 1754.41 909.605 C 1752.579 912.103 1747.244 920.893 1744.702 925.599 C 1740.802 932.819 1740.487 933.499 1739.934 935.884 C 1739.647 937.123 1739.13 938.771 1738.786 939.546 C 1733.203 952.101 1723.893 975.265 1710.736 1009.342 C 1708.818 1014.308 1707.167 1018.522 1707.066 1018.706 C 1706.917 1018.979 1706.819 1019.008 1706.524 1018.864 C 1706.035 1018.626 1705.841 1017.673 1706.054 1016.544 C 1706.294 1015.27 1718.103 981.914 1720.605 975.445 C 1727.916 956.539 1734.168 942.041 1737.641 935.94 C 1738.228 934.909 1738.631 933.919 1738.67 933.412 C 1738.736 932.549 1738.069 929.304 1737.79 929.133 C 1737.538 928.977 1734.854 930.525 1731.817 932.579 C 1726.25 936.342 1715.645 945.69 1707.386 954.115 C 1704.432 957.127 1701.829 959.749 1701.6 959.941 C 1700.782 960.628 1703.562 956.484 1705.127 954.683 C 1710.758 948.204 1724.44 935.923 1731.044 931.42 C 1734.986 928.732 1736.441 927.966 1737.342 928.104 C 1738.174 928.233 1738.931 928.973 1739.6 930.311 L 1740.122 931.358 L 1740.944 929.757 C 1748.987 914.098 1755.748 904.332 1760.788 901.092 C 1762.33 900.101 1763.031 900.019 1764.049 900.711 C 1766.251 902.205 1766.691 906.035 1765.407 912.531 C 1764.759 915.809 1764.391 917.045 1762.935 920.833 C 1760.738 926.546 1758.481 931.662 1754.794 939.286 C 1740.957 967.894 1730.502 992.014 1726.936 1003.555 C 1726.11 1006.231 1725.328 1009.712 1725.337 1010.677 L 1725.343 1011.289 L 1726.104 1010.292 C 1730.743 1004.218 1731.723 1002.693 1735.851 995.124 C 1750.546 968.179 1760.186 950.666 1765.433 941.381 C 1770.379 932.628 1784.817 909.083 1791.544 898.799 C 1792.919 896.697 1794.03 895.428 1794.334 895.613 C 1794.526 895.729 1794.162 897.251 1793.538 898.936 C 1792.847 900.806 1790.527 904.566 1783.34 915.467 C 1773.164 930.898 1769.928 936.113 1767.216 941.449 C 1762.115 951.486 1758.047 960.141 1756.086 965.132 C 1754.978 967.952 1752.908 974.612 1752.201 977.633 C 1750.791 983.655 1750.457 990.59 1751.229 997.763 C 1751.714 1002.257 1754.009 1006.948 1756.655 1008.848 C 1758.91 1010.469 1763.889 1010.476 1767.053 1008.863 C 1769.323 1007.705 1769.774 1007.192 1771.29 1004.038 C 1777.473 991.173 1786.203 977.998 1796.585 965.862 C 1797.896 964.329 1798.765 963.178 1798.515 963.304 C 1797.66 963.735 1792.511 965.905 1790.823 966.546 C 1785.828 968.442 1780.142 969.753 1777.259 969.672 C 1775.264 969.617 1774.212 969.362 1773.037 968.649 C 1771.751 967.868 1771.189 967.056 1770.785 965.397 C 1769.586 960.472 1772.972 951.721 1780.231 940.983 C 1788.956 928.078 1799.68 916.444 1814.145 904.194 C 1825.234 894.802 1829.668 891.847 1833.782 891.105 C 1837.42 890.449 1838.355 890.579 1839.355 891.876 C 1840.235 893.019 1840.791 896.007 1840.491 897.981 C 1839.979 901.354 1838.377 906.669 1836.736 910.439 C 1831.923 921.499 1826.533 932.249 1821.395 941.033 C 1820.302 942.903 1819.448 944.423 1819.497 944.411 C 1819.546 944.399 1820.385 943.743 1821.361 942.954 C 1824.757 940.208 1831.285 936.002 1838.738 931.757 C 1844.51 928.47 1855.451 922.722 1859.118 921.049 C 1864.329 918.672 1874.003 915.212 1884.591 911.939 C 1886.368 911.39 1888.459 910.732 1889.238 910.478 C 1891.883 909.612 1890.504 910.279 1887.032 911.544 C 1865.306 919.458 1846.403 928.18 1834.692 935.692 C 1830.927 938.108 1825.99 941.615 1821.944 944.749 C 1816.848 948.697 1817.024 948.51 1814.595 952.569 C 1813.025 955.191 1812.545 956.143 1812.874 955.98 C 1814.039 955.401 1819.206 954.054 1821.618 953.701 C 1826.883 952.93 1830.503 953.387 1833.446 955.196 C 1835.106 956.217 1835.16 956.273 1835.712 957.564 C 1837.273 961.222 1837.351 964.963 1835.94 968.467 C 1835.32 970.004 1831.871 975.611 1829.811 978.427 C 1826.608 982.808 1820.28 990.336 1815.803 995.092 C 1808.896 1002.431 1779.764 1029.185 1775.064 1032.506 C 1773.318 1033.74 1770.471 1035.405 1769.252 1035.906 C 1768.894 1036.053 1768.242 1036.134 1767.804 1036.085 Z  M 1771.327 1033.526 C 1776.461 1030.066 1788.105 1019.78 1804.781 1003.972 C 1811.715 997.399 1813.772 995.351 1817.123 991.689 C 1824.151 984.008 1832.219 973.222 1833.721 969.499 C 1835.455 965.2 1836.052 961.954 1835.52 959.708 C 1835.187 958.302 1834.793 957.758 1833.215 956.529 C 1831.958 955.548 1831.444 955.32 1829.722 954.975 C 1828.083 954.646 1825.425 954.714 1822.384 955.161 C 1819.46 955.59 1814.18 956.917 1812.43 957.662 L 1811.007 958.268 L 1808.555 962.125 C 1801.114 973.835 1791.118 987.602 1784.327 995.495 C 1780.068 1000.445 1775.272 1005.117 1772.343 1007.17 C 1770.813 1008.242 1770.737 1008.352 1769.688 1010.972 C 1767.48 1016.485 1765.024 1026.68 1764.971 1030.547 C 1764.939 1032.859 1765.672 1034.266 1767.243 1034.906 C 1768.364 1035.363 1768.839 1035.203 1771.327 1033.526 L 1771.327 1033.526 Z  M 1776.521 1001.268 C 1784.989 993.273 1794.429 981.4 1804.115 966.562 C 1808.032 960.562 1808.911 959.06 1808.437 959.18 C 1808.228 959.233 1806.84 959.792 1805.351 960.423 L 1802.645 961.571 L 1800.404 964.018 C 1793.323 971.751 1789.088 977.206 1783.622 985.628 C 1780.519 990.41 1773.881 1001.887 1772.639 1004.617 C 1772.43 1005.075 1773.112 1004.487 1776.521 1001.268 Z  M 1725.586 968.094 C 1730.045 956.997 1733.837 947.583 1734.013 947.174 C 1734.189 946.766 1734.285 946.443 1734.225 946.458 C 1733.97 946.52 1727.514 961.55 1724.609 968.844 C 1721.659 976.25 1716.739 989.503 1717.263 988.631 C 1717.381 988.433 1721.127 979.192 1725.586 968.094 Z  M 1794.533 963.61 C 1801.229 960.578 1801.498 960.437 1802.506 959.432 C 1804.388 957.557 1807.978 954.281 1812.174 950.612 C 1816.834 946.538 1815.841 947.856 1820.808 939.153 C 1827.992 926.565 1834.248 913.457 1837.502 904.174 C 1839.457 898.597 1839.783 893.685 1838.282 892.425 C 1836.731 891.123 1834.683 891.632 1830.271 894.416 C 1813.491 905.006 1798.604 918.782 1786.385 935.026 C 1780.665 942.63 1775.898 950.138 1774.087 954.392 C 1772.282 958.634 1771.674 962.375 1772.331 965.196 C 1772.626 966.461 1772.663 966.518 1773.591 967.099 C 1775.506 968.3 1778.718 968.583 1782.775 967.908 C 1786.061 967.36 1787.052 966.998 1794.533 963.61 L 1794.533 963.61 Z  M 1808.535 957.506 L 1810.113 956.897 L 1811.539 954.744 C 1813.949 951.106 1813.95 951.102 1811.965 952.685 C 1810.224 954.074 1805.878 958.037 1805.613 958.477 C 1805.516 958.639 1805.712 958.62 1806.212 958.417 C 1806.621 958.251 1807.667 957.841 1808.535 957.506 Z  M 1756.758 960.164 C 1756.898 959.905 1756.969 959.703 1756.916 959.716 C 1756.863 959.729 1756.705 959.952 1756.565 960.211 C 1756.425 960.47 1756.354 960.672 1756.407 960.659 C 1756.46 960.646 1756.618 960.423 1756.758 960.164 Z  M 1734.568 945.812 C 1734.733 945.447 1734.725 945.442 1734.478 945.757 C 1734.328 945.948 1734.213 946.137 1734.223 946.177 C 1734.261 946.336 1734.395 946.195 1734.568 945.812 Z " fill="rgb(255,255,255)"/></g></svg>