<?xml version="1.0" encoding="UTF-8" standalone="no"?><!-- Generator: Gravit.io --><svg xmlns="http://www.w3.org/2000/svg" xmlns:xlink="http://www.w3.org/1999/xlink" style="isolation:isolate" viewBox="0 0 1200 1200" width="1200pt" height="1200pt"><defs><clipPath id="_clipPath_Ns7M3dgAW9ybMEEmSNLwMaHlmk7KiU1B"><rect width="1200" height="1200"/></clipPath></defs><g clip-path="url(#_clipPath_Ns7M3dgAW9ybMEEmSNLwMaHlmk7KiU1B)"><rect x="0" y="0" width="1200" height="1200" transform="matrix(1,0,0,1,0,0)" fill="rgb(81,47,83)"/><clipPath id="_clipPath_uEDbf4AZhBb3F40CIIIAuT0ug6RObz19"><rect x="0" y="0" width="1200" height="1200" transform="matrix(1,0,0,1,0,0)" fill="rgb(81,47,83)"/></clipPath><g clip-path="url(#_clipPath_uEDbf4AZhBb3F40CIIIAuT0ug6RObz19)"><g><radialGradient id="_rgradient_1" fx="0.5" fy="0.5" cx="0.5" cy="0.5" r="0.5" gradientTransform="matrix(2664.347,0,9.36,2157.87,-270.187,-478.935)" gradientUnits="userSpaceOnUse"><stop offset="9.565217391304348%" stop-opacity="1" style="stop-color:rgb(246,235,43)"/><stop offset="26.08695652173913%" stop-opacity="1" style="stop-color:rgb(255,162,10)"/><stop offset="79.13043478260869%" stop-opacity="1" style="stop-color:rgb(80,101,180)"/></radialGradient><rect x="0" y="0" width="2133.333" height="1200" transform="matrix(1,0,0,1,0,0)" fill="url(#_rgradient_1)"/><g><g><path d=" M 1408.889 805.556 L 1252.102 805.556 C 1241.407 805.556 1237.065 798.036 1242.413 788.773 L 1399.199 517.222 C 1401.873 512.59 1405.381 510.275 1408.889 510.275 L 1408.889 805.556 Z " fill="rgb(67,16,70)"/><path d=" M 1408.889 805.556 L 1565.676 805.556 C 1576.371 805.556 1580.712 798.036 1575.365 788.773 L 1418.579 517.222 C 1415.905 512.59 1412.397 510.275 1408.889 510.275 L 1408.889 805.556 Z " fill="rgb(52,13,55)"/><g><path d=" M 1408.889 610.044 L 1424.679 635.165 L 1430.421 589.23 L 1451.235 624.399 L 1463.15 594.419 L 1418.579 517.222 C 1415.905 512.59 1412.397 510.275 1408.889 510.275 L 1408.889 610.044 Z " fill="rgb(251,196,255)"/><path d=" M 1408.889 610.044 L 1393.099 635.165 L 1387.357 589.23 L 1366.543 624.399 L 1354.627 594.419 L 1399.199 517.222 C 1401.873 512.59 1405.381 510.275 1408.889 510.275 L 1408.889 610.044 Z " fill="rgb(255,255,255)"/></g></g><g><path d=" M 2133.333 742.222 L 1899.544 742.222 C 1883.596 742.222 1877.122 731.009 1885.097 717.198 L 2118.885 312.279 C 2122.872 305.374 2128.103 301.921 2133.333 301.921 L 2133.333 742.222 Z " fill="rgb(67,16,70)"/><g><path d=" M 2133.333 450.69 L 2109.788 488.148 L 2101.226 419.653 L 2070.19 472.094 L 2052.423 427.391 L 2118.885 312.279 C 2122.872 305.374 2128.103 301.921 2133.333 301.921 L 2133.333 450.69 Z " fill="rgb(255,255,255)"/></g></g><g><path d=" M 210 805.556 L 0 805.556 L 0 564.444 L 190.621 228.888 C 195.969 219.625 202.984 214.994 210 214.994 L 210 805.556 Z " fill="rgb(67,16,70)"/><path d=" M 210 805.556 L 523.573 805.556 C 544.964 805.556 553.647 790.516 542.952 771.991 L 229.379 228.888 C 224.031 219.625 217.016 214.994 210 214.994 L 210 805.556 Z " fill="rgb(52,13,55)"/><g><path d=" M 210 414.533 L 241.58 464.774 L 253.064 372.905 L 294.692 443.242 L 318.523 383.283 L 229.379 228.888 C 224.031 219.625 217.016 214.994 210 214.994 L 210 414.533 Z " fill="rgb(251,196,255)"/><path d=" M 210 414.533 L 178.42 464.774 L 166.936 372.905 L 125.308 443.242 L 101.477 383.283 L 190.621 228.888 C 195.969 219.625 202.984 214.994 210 214.994 L 210 414.533 Z " fill="rgb(255,255,255)"/></g></g><g><path d=" M 578.889 893.333 L 315.761 893.333 C 297.812 893.333 290.526 880.713 299.501 865.168 L 562.627 409.436 C 567.115 401.664 573.002 397.778 578.889 397.778 L 578.889 893.333 Z " fill="rgb(67,16,70)"/><path d=" M 578.889 893.333 L 842.016 893.333 C 859.966 893.333 867.252 880.713 858.277 865.168 L 595.151 409.436 C 590.663 401.664 584.776 397.778 578.889 397.778 L 578.889 893.333 Z " fill="rgb(52,13,55)"/><g><path d=" M 578.889 565.216 L 605.389 607.375 L 615.025 530.285 L 649.956 589.307 L 669.953 538.994 L 595.151 409.436 C 590.663 401.664 584.776 397.778 578.889 397.778 L 578.889 565.216 Z " fill="rgb(251,196,255)"/><path d=" M 578.889 565.216 L 552.389 607.375 L 542.753 530.285 L 507.821 589.307 L 487.825 538.994 L 562.627 409.436 C 567.115 401.664 573.002 397.778 578.889 397.778 L 578.889 565.216 Z " fill="rgb(255,255,255)"/></g></g><g><path d=" M 1777.778 1070.454 L 1292.338 1070.454 C 1259.223 1070.454 1245.781 1047.171 1262.339 1018.493 L 1747.777 177.721 C 1756.056 163.382 1766.917 156.212 1777.778 156.212 L 1777.778 1070.454 Z " fill="rgb(67,16,70)"/><path d=" M 1777.778 1070.454 L 2133.333 1070.454 L 2133.333 742.222 L 1807.779 177.721 C 1799.5 163.382 1788.639 156.212 1777.778 156.212 L 1777.778 1070.454 Z " fill="rgb(52,13,55)"/><g><path d=" M 1777.778 465.117 L 1826.667 542.894 L 1844.444 400.672 L 1908.889 509.561 L 1945.781 416.739 L 1807.779 177.721 C 1799.5 163.382 1788.639 156.212 1777.778 156.212 L 1777.778 465.117 Z " fill="rgb(251,196,255)"/><path d=" M 1777.778 465.117 L 1728.889 542.894 L 1711.111 400.672 L 1646.667 509.561 L 1609.775 416.739 L 1747.777 177.721 C 1756.056 163.382 1766.917 156.212 1777.778 156.212 L 1777.778 465.117 Z " fill="rgb(255,255,255)"/></g></g><g><path d=" M 1066.667 1100.893 L 581.227 1100.893 C 548.112 1100.893 534.67 1077.61 551.228 1048.932 L 1036.666 208.16 C 1044.945 193.821 1055.806 186.651 1066.667 186.651 L 1066.667 1100.893 Z " fill="rgb(67,16,70)"/><path d=" M 1066.667 1100.893 L 1552.106 1100.893 C 1585.221 1100.893 1598.663 1077.61 1582.105 1048.932 L 1096.667 208.16 C 1088.389 193.821 1077.528 186.651 1066.667 186.651 L 1066.667 1100.893 Z " fill="rgb(52,13,55)"/><g><path d=" M 1066.667 495.556 L 1115.556 573.333 L 1133.333 431.111 L 1197.778 540 L 1234.67 447.178 L 1096.667 208.16 C 1088.389 193.821 1077.528 186.651 1066.667 186.651 L 1066.667 495.556 Z " fill="rgb(251,196,255)"/><path d=" M 1066.667 495.556 L 1017.778 573.333 L 1000 431.111 L 935.556 540 L 898.664 447.178 L 1036.666 208.16 C 1044.945 193.821 1055.806 186.651 1066.667 186.651 L 1066.667 495.556 Z " fill="rgb(255,255,255)"/></g></g></g><g style="mix-blend-mode:screen;"><path d=" M 1589.151 1070.454 L 2133.333 1070.454 L 2133.333 742.222 L 2133.333 301.921 C 2128.103 301.921 2122.872 305.374 2118.885 312.279 L 2002.272 514.252 L 1807.745 175.889 C 1791.206 147.12 1764.307 147.095 1747.713 175.834 L 1484.719 631.337 L 1418.593 516.806 C 1413.237 507.531 1404.541 507.531 1399.185 516.806 L 1337.028 624.462 L 1096.667 208.16 C 1080.11 179.482 1053.224 179.482 1036.666 208.16 L 759.696 687.869 L 595.359 403.239 C 586.269 387.496 571.509 387.496 562.419 403.239 L 446.165 604.59 L 228.306 227.261 C 218.203 209.762 201.828 209.78 191.763 227.301 L 0 561.111 L 0 771.991 L 349.512 771.991 L 295.923 864.808 C 286.833 880.551 294.212 893.333 312.392 893.333 L 641.066 893.333 L 551.228 1048.932 C 534.67 1077.61 548.112 1100.893 581.227 1100.893 L 1552.106 1100.893 C 1576.359 1100.893 1590.06 1088.405 1589.151 1070.454 Z " fill="rgb(80,18,83)"/></g><g><g><path d=" M 731.111 476.373 C 740.127 474.42 773.778 478.058 773.778 503.04 C 773.778 485.5 783.81 472.911 811.111 474.596" fill="none" vector-effect="non-scaling-stroke" stroke-width="2" stroke="rgb(0,0,0)" stroke-linejoin="round" stroke-linecap="round" stroke-miterlimit="3"/><path d=" M 675.556 383.185 C 680.565 382.1 699.259 384.121 699.259 398 C 699.259 388.255 704.833 381.261 720 382.198" fill="none" vector-effect="non-scaling-stroke" stroke-width="2" stroke="rgb(0,0,0)" stroke-linejoin="round" stroke-linecap="round" stroke-miterlimit="3"/><path d=" M 655.556 431.447 C 662.318 429.982 687.556 432.711 687.556 451.447 C 687.556 438.291 695.079 428.85 715.556 430.113" fill="none" vector-effect="non-scaling-stroke" stroke-width="2" stroke="rgb(0,0,0)" stroke-linejoin="round" stroke-linecap="round" stroke-miterlimit="3"/><path d=" M 761.111 441.232 C 764.617 440.717 777.704 441.677 777.704 448.269 C 777.704 443.641 781.605 440.319 792.222 440.763" fill="none" vector-effect="non-scaling-stroke" stroke-width="2" stroke="rgb(0,0,0)" stroke-linejoin="round" stroke-linecap="round" stroke-miterlimit="3"/><path d=" M 836.667 409.108 C 842.177 407.914 862.741 410.138 862.741 425.404 C 862.741 414.685 868.871 406.992 885.556 408.021" fill="none" vector-effect="non-scaling-stroke" stroke-width="2" stroke="rgb(0,0,0)" stroke-linejoin="round" stroke-linecap="round" stroke-miterlimit="3"/></g><g><g><path d=" M 1453.364 471.741 C 1459.503 472.036 1480.535 480.169 1476.236 496.247 C 1479.254 484.958 1487.878 478.582 1505.159 484.365" fill="none" vector-effect="non-scaling-stroke" stroke-width="2" stroke="rgb(0,0,0)" stroke-linejoin="round" stroke-linecap="round" stroke-miterlimit="3"/><path d=" M 1452.279 409.719 C 1455.69 409.883 1467.374 414.401 1464.986 423.333 C 1466.663 417.062 1471.453 413.519 1481.054 416.732" fill="none" vector-effect="non-scaling-stroke" stroke-width="2" stroke="rgb(0,0,0)" stroke-linejoin="round" stroke-linecap="round" stroke-miterlimit="3"/><path d=" M 1397.244 433.708 C 1401.848 433.929 1417.622 440.029 1414.397 452.087 C 1416.661 443.621 1423.129 438.839 1436.09 443.176" fill="none" vector-effect="non-scaling-stroke" stroke-width="2" stroke="rgb(0,0,0)" stroke-linejoin="round" stroke-linecap="round" stroke-miterlimit="3"/><path d=" M 1487.726 442.898 C 1490.071 443.169 1498.328 446.04 1497.194 450.282 C 1497.99 447.303 1501.073 445.837 1507.83 447.95" fill="none" vector-effect="non-scaling-stroke" stroke-width="2" stroke="rgb(0,0,0)" stroke-linejoin="round" stroke-linecap="round" stroke-miterlimit="3"/><path d=" M 1529.098 457.885 C 1532.849 458.065 1545.702 463.035 1543.075 472.861 C 1544.919 465.962 1550.189 462.065 1560.75 465.6" fill="none" vector-effect="non-scaling-stroke" stroke-width="2" stroke="rgb(0,0,0)" stroke-linejoin="round" stroke-linecap="round" stroke-miterlimit="3"/></g><g><path d=" M 1301.049 412.289 C 1306.526 409.499 1328.822 406.129 1333.064 422.222 C 1330.085 410.922 1334.41 401.109 1352.284 397.558" fill="none" vector-effect="non-scaling-stroke" stroke-width="2" stroke="rgb(0,0,0)" stroke-linejoin="round" stroke-linecap="round" stroke-miterlimit="3"/><path d=" M 1237.99 375.592 C 1241.033 374.043 1253.419 372.17 1255.776 381.111 C 1254.121 374.833 1256.524 369.381 1266.454 367.409" fill="none" vector-effect="non-scaling-stroke" stroke-width="2" stroke="rgb(0,0,0)" stroke-linejoin="round" stroke-linecap="round" stroke-miterlimit="3"/><path d=" M 1238.723 411.439 C 1242.83 409.347 1259.552 406.819 1262.734 418.889 C 1260.5 410.414 1263.744 403.054 1277.149 400.391" fill="none" vector-effect="non-scaling-stroke" stroke-width="2" stroke="rgb(0,0,0)" stroke-linejoin="round" stroke-linecap="round" stroke-miterlimit="3"/><path d=" M 1320.059 374.073 C 1322.142 372.812 1330.899 371.829 1333.141 380.336 C 1331.567 374.363 1332.95 369.413 1339.941 368.184" fill="none" vector-effect="non-scaling-stroke" stroke-width="2" stroke="rgb(0,0,0)" stroke-linejoin="round" stroke-linecap="round" stroke-miterlimit="3"/><path d=" M 1344.345 345.041 C 1347.692 343.336 1361.317 341.276 1363.909 351.111 C 1362.089 344.206 1364.732 338.208 1375.655 336.039" fill="none" vector-effect="non-scaling-stroke" stroke-width="2" stroke="rgb(0,0,0)" stroke-linejoin="round" stroke-linecap="round" stroke-miterlimit="3"/></g><g><path d=" M 1541.173 392.289 C 1535.697 389.499 1513.401 386.129 1509.158 402.222 C 1512.137 390.922 1507.812 381.109 1489.938 377.558" fill="none" vector-effect="non-scaling-stroke" stroke-width="2" stroke="rgb(0,0,0)" stroke-linejoin="round" stroke-linecap="round" stroke-miterlimit="3"/><path d=" M 1539.788 325.777 C 1536.745 324.227 1524.358 322.355 1522.002 331.296 C 1523.656 325.018 1521.254 319.566 1511.323 317.593" fill="none" vector-effect="non-scaling-stroke" stroke-width="2" stroke="rgb(0,0,0)" stroke-linejoin="round" stroke-linecap="round" stroke-miterlimit="3"/><path d=" M 1582.096 366.467 C 1577.988 364.375 1561.266 361.847 1558.085 373.917 C 1560.319 365.442 1557.075 358.082 1543.669 355.419" fill="none" vector-effect="non-scaling-stroke" stroke-width="2" stroke="rgb(0,0,0)" stroke-linejoin="round" stroke-linecap="round" stroke-miterlimit="3"/><path d=" M 1495.537 350.824 C 1493.366 349.896 1484.772 348.293 1483.653 352.539 C 1484.439 349.558 1482.49 346.755 1475.574 345.238" fill="none" vector-effect="non-scaling-stroke" stroke-width="2" stroke="rgb(0,0,0)" stroke-linejoin="round" stroke-linecap="round" stroke-miterlimit="3"/><path d=" M 1453.433 378.374 C 1450.086 376.669 1436.461 374.609 1433.868 384.444 C 1435.689 377.539 1433.046 371.542 1422.123 369.372" fill="none" vector-effect="non-scaling-stroke" stroke-width="2" stroke="rgb(0,0,0)" stroke-linejoin="round" stroke-linecap="round" stroke-miterlimit="3"/></g></g><g><g><path d=" M 874.602 321.05 C 880.741 321.344 901.773 329.477 897.473 345.556 C 900.492 334.266 909.115 327.89 926.397 333.674" fill="none" vector-effect="non-scaling-stroke" stroke-width="2" stroke="rgb(0,0,0)" stroke-linejoin="round" stroke-linecap="round" stroke-miterlimit="3"/><path d=" M 867.835 260.83 C 871.245 260.994 882.93 265.512 880.541 274.444 C 882.218 268.173 887.009 264.63 896.61 267.843" fill="none" vector-effect="non-scaling-stroke" stroke-width="2" stroke="rgb(0,0,0)" stroke-linejoin="round" stroke-linecap="round" stroke-miterlimit="3"/><path d=" M 825.021 296.065 C 829.626 296.286 845.399 302.386 842.175 314.444 C 844.439 305.978 850.906 301.196 863.867 305.533" fill="none" vector-effect="non-scaling-stroke" stroke-width="2" stroke="rgb(0,0,0)" stroke-linejoin="round" stroke-linecap="round" stroke-miterlimit="3"/><path d=" M 897.76 297.489 C 900.237 297.267 908.248 301.058 905.422 311.626 C 907.406 304.206 911.341 299.551 917.984 302.092" fill="none" vector-effect="non-scaling-stroke" stroke-width="2" stroke="rgb(0,0,0)" stroke-linejoin="round" stroke-linecap="round" stroke-miterlimit="3"/><path d=" M 950.841 282.913 C 954.592 283.093 967.445 288.063 964.817 297.889 C 966.662 290.99 971.932 287.094 982.493 290.628" fill="none" vector-effect="non-scaling-stroke" stroke-width="2" stroke="rgb(0,0,0)" stroke-linejoin="round" stroke-linecap="round" stroke-miterlimit="3"/></g><g><path d=" M 2046.65 364.151 C 2040.653 365.496 2021.331 377.122 2028.33 392.222 C 2023.416 381.62 2013.825 376.82 1997.795 385.487" fill="none" vector-effect="non-scaling-stroke" stroke-width="2" stroke="rgb(0,0,0)" stroke-linejoin="round" stroke-linecap="round" stroke-miterlimit="3"/><path d=" M 2071.349 285.536 C 2068.017 286.283 2057.283 292.742 2061.171 301.131 C 2058.441 295.241 2053.113 292.574 2044.207 297.389" fill="none" vector-effect="non-scaling-stroke" stroke-width="2" stroke="rgb(0,0,0)" stroke-linejoin="round" stroke-linecap="round" stroke-miterlimit="3"/><path d=" M 2074.934 321.695 C 2070.437 322.704 2055.946 331.424 2061.195 342.749 C 2057.509 334.797 2050.316 331.198 2038.293 337.698" fill="none" vector-effect="non-scaling-stroke" stroke-width="2" stroke="rgb(0,0,0)" stroke-linejoin="round" stroke-linecap="round" stroke-miterlimit="3"/><path d=" M 2011.691 321.685 C 2009.427 322.355 2001.786 326.602 2003.632 330.587 C 2002.336 327.789 1999.047 326.873 1992.754 330.117" fill="none" vector-effect="non-scaling-stroke" stroke-width="2" stroke="rgb(0,0,0)" stroke-linejoin="round" stroke-linecap="round" stroke-miterlimit="3"/><path d=" M 1979.372 350.359 C 1975.707 351.182 1963.9 358.286 1968.177 367.514 C 1965.174 361.035 1959.313 358.102 1949.517 363.399" fill="none" vector-effect="non-scaling-stroke" stroke-width="2" stroke="rgb(0,0,0)" stroke-linejoin="round" stroke-linecap="round" stroke-miterlimit="3"/></g><g><path d=" M 2000.539 281.547 C 2003.993 278.473 2019.576 271.768 2025.733 282.671 C 2021.41 275.015 2022.686 267.049 2035.017 261.056" fill="none" vector-effect="non-scaling-stroke" stroke-width="2" stroke="rgb(0,0,0)" stroke-linejoin="round" stroke-linecap="round" stroke-miterlimit="3"/><path d=" M 1927.904 282.047 C 1929.823 280.339 1938.48 276.614 1941.901 282.671 C 1939.499 278.418 1940.208 273.992 1947.059 270.662" fill="none" vector-effect="non-scaling-stroke" stroke-width="2" stroke="rgb(0,0,0)" stroke-linejoin="round" stroke-linecap="round" stroke-miterlimit="3"/><path d=" M 1918.586 322.491 C 1921.176 320.185 1932.864 315.156 1937.481 323.333 C 1934.239 317.592 1935.196 311.617 1944.444 307.122" fill="none" vector-effect="non-scaling-stroke" stroke-width="2" stroke="rgb(0,0,0)" stroke-linejoin="round" stroke-linecap="round" stroke-miterlimit="3"/><path d=" M 1958.819 253.892 C 1960.101 252.589 1966.275 250.182 1969.446 255.799 C 1967.22 251.855 1967.324 248.063 1972.172 245.825" fill="none" vector-effect="non-scaling-stroke" stroke-width="2" stroke="rgb(0,0,0)" stroke-linejoin="round" stroke-linecap="round" stroke-miterlimit="3"/><path d=" M 1961.637 298.202 C 1963.747 296.323 1973.271 292.226 1977.033 298.889 C 1974.391 294.21 1975.171 289.342 1982.707 285.679" fill="none" vector-effect="non-scaling-stroke" stroke-width="2" stroke="rgb(0,0,0)" stroke-linejoin="round" stroke-linecap="round" stroke-miterlimit="3"/></g><g><path d=" M 320.788 225.444 C 326.265 222.655 348.561 219.284 352.803 235.378 C 349.824 224.078 354.149 214.264 372.024 210.714" fill="none" vector-effect="non-scaling-stroke" stroke-width="2" stroke="rgb(0,0,0)" stroke-linejoin="round" stroke-linecap="round" stroke-miterlimit="3"/><path d=" M 271.482 186.506 C 274.524 184.956 286.911 183.084 289.268 192.025 C 287.613 185.747 290.016 180.295 299.946 178.322" fill="none" vector-effect="non-scaling-stroke" stroke-width="2" stroke="rgb(0,0,0)" stroke-linejoin="round" stroke-linecap="round" stroke-miterlimit="3"/><path d=" M 266.793 220.993 C 270.901 218.901 287.623 216.373 290.804 228.443 C 288.57 219.968 291.814 212.608 305.22 209.945" fill="none" vector-effect="non-scaling-stroke" stroke-width="2" stroke="rgb(0,0,0)" stroke-linejoin="round" stroke-linecap="round" stroke-miterlimit="3"/><path d=" M 330.991 200.258 C 333.162 199.331 341.755 197.727 342.875 201.974 C 342.089 198.992 344.038 196.189 350.953 194.673" fill="none" vector-effect="non-scaling-stroke" stroke-width="2" stroke="rgb(0,0,0)" stroke-linejoin="round" stroke-linecap="round" stroke-miterlimit="3"/><path d=" M 379.674 175.846 C 383.021 174.142 396.646 172.082 399.239 181.917 C 397.419 175.012 400.062 169.014 410.985 166.844" fill="none" vector-effect="non-scaling-stroke" stroke-width="2" stroke="rgb(0,0,0)" stroke-linejoin="round" stroke-linecap="round" stroke-miterlimit="3"/></g></g><g><path d=" M 451.434 437.377 C 445.957 433.833 423.661 429.549 419.419 450 C 422.398 435.641 418.073 423.17 400.199 418.658" fill="none" vector-effect="non-scaling-stroke" stroke-width="2" stroke="rgb(0,0,0)" stroke-linejoin="round" stroke-linecap="round" stroke-miterlimit="3"/><path d=" M 500.74 387.897 C 497.698 385.928 485.311 383.548 482.954 394.91 C 484.609 386.932 482.206 380.004 472.276 377.497" fill="none" vector-effect="non-scaling-stroke" stroke-width="2" stroke="rgb(0,0,0)" stroke-linejoin="round" stroke-linecap="round" stroke-miterlimit="3"/><path d=" M 505.429 431.721 C 501.322 429.062 484.6 425.85 481.418 441.188 C 483.652 430.419 480.408 421.066 467.003 417.682" fill="none" vector-effect="non-scaling-stroke" stroke-width="2" stroke="rgb(0,0,0)" stroke-linejoin="round" stroke-linecap="round" stroke-miterlimit="3"/><path d=" M 441.231 405.372 C 439.06 404.194 430.467 402.156 429.347 407.552 C 430.133 403.763 428.184 400.202 421.269 398.274" fill="none" vector-effect="non-scaling-stroke" stroke-width="2" stroke="rgb(0,0,0)" stroke-linejoin="round" stroke-linecap="round" stroke-miterlimit="3"/><path d=" M 392.548 374.351 C 389.201 372.185 375.576 369.568 372.983 382.066 C 374.804 373.291 372.161 365.67 361.237 362.912" fill="none" vector-effect="non-scaling-stroke" stroke-width="2" stroke="rgb(0,0,0)" stroke-linejoin="round" stroke-linecap="round" stroke-miterlimit="3"/></g></g><circle vector-effect="non-scaling-stroke" cx="557.7777777777778" cy="219.4444444444445" r="59.44444444444446" fill="rgb(255,255,255)"/><g style="isolation: isolate;"><circle vector-effect="non-scaling-stroke" cx="557.7777777777778" cy="219.4444444444445" r="68.44444444444446" fill="transparent" stroke-width="18" stroke="rgb(255,255,255)" stroke-opacity="0.2" stroke-linejoin="miter" stroke-linecap="square" stroke-miterlimit="3"/><circle vector-effect="non-scaling-stroke" cx="557.7777777777778" cy="219.4444444444445" r="59.44444444444446" fill="none"/><circle vector-effect="non-scaling-stroke" cx="557.7777777777778" cy="219.4444444444445" r="65.44444444444446" fill="transparent" stroke-width="12" stroke="rgb(255,255,255)" stroke-opacity="0.2" stroke-linejoin="miter" stroke-linecap="square" stroke-miterlimit="3"/><circle vector-effect="non-scaling-stroke" cx="557.7777777777778" cy="219.4444444444445" r="59.44444444444446" fill="none"/><circle vector-effect="non-scaling-stroke" cx="557.7777777777778" cy="219.4444444444445" r="62.44444444444446" fill="transparent" stroke-width="6" stroke="rgb(255,255,255)" stroke-opacity="0.2" stroke-linejoin="miter" stroke-linecap="square" stroke-miterlimit="3"/><circle vector-effect="non-scaling-stroke" cx="557.7777777777778" cy="219.4444444444445" r="59.44444444444446" fill="none"/></g><path d=" M 0 690 L 266.667 586.667 L 578.889 664.444 L 656.667 782.222 L 615.556 858.889 L 772.222 936.667 L 812.222 1014.444 Q 1397.306 739.057 1510 742.222 C 1512.592 742.295 1799.663 695.286 2133.333 765.556 Q 2133.333 964.933 2133.333 1200 L 0 1200 L 0 690 Z " fill="rgb(52,13,55)"/><path d=" M 2133.333 1200 C 1750.159 1160.423 1542.392 1007.841 1510 742.222 C 1509.686 739.649 1799.663 695.286 2133.333 765.556 Q 2133.333 964.933 2133.333 1200 Z  M 0 690 L 266.667 586.667 L 578.889 664.444 L 0 1200 L 0 690 Z " fill-rule="evenodd" fill="rgb(67,16,70)"/><path d=" M 2032.095 827.158 C 2034.365 826.882 2038.141 825.926 2040.486 825.033 C 2049.386 821.642 2066.775 818.303 2075.531 818.303 C 2080.06 818.303 2087.423 815.679 2089.763 813.23 C 2092.141 810.742 2092.148 810.698 2090.419 808.842 C 2088.304 806.572 2083.432 803.688 2071.771 797.804 C 2063.785 793.774 2059.659 791.252 2055.901 788.105 C 2047.973 781.466 2042.033 779.447 2027.969 778.61 C 2016.257 777.913 2000.286 775.9 1995.596 774.529 C 1990.598 773.069 1984.724 772.87 1979.354 773.979 C 1976.334 774.603 1974.94 774.553 1970.95 773.676 C 1967.405 772.897 1964.619 772.726 1960.189 773.017 C 1953.217 773.475 1949.98 773.007 1948.265 771.292 C 1945.518 768.545 1946.647 765.987 1956.513 752.6 C 1960.631 747.013 1964.825 740.455 1966.662 736.73 L 1969.792 730.382 L 1969.888 733.873 C 1969.941 735.794 1970.147 736.936 1970.346 736.413 C 1970.544 735.889 1971.491 734.311 1972.448 732.907 C 1974.788 729.476 1976.063 726.289 1976.559 722.63 C 1976.786 720.958 1977.85 714.162 1978.923 707.529 C 1982.859 683.196 1981.121 661.212 1974.053 645.913 C 1971.65 640.712 1964.165 629.462 1958.451 622.464 C 1954.194 617.251 1944.487 608.035 1914.973 581.186 C 1879.246 548.685 1874.051 543.331 1859.553 524.068 C 1841.021 499.443 1835.391 492.281 1829.614 485.979 C 1826.734 482.837 1821.063 476.124 1817.012 471.061 C 1806.56 457.998 1804.731 456.177 1796.898 451.039 C 1786.417 444.165 1784.323 441.432 1780.378 429.481 C 1779.03 425.397 1776.775 420.357 1774.948 417.341 C 1773.229 414.505 1771.823 412.025 1771.823 411.831 C 1771.823 411.637 1772.749 411.743 1773.882 412.068 C 1777.506 413.107 1777.859 412.707 1774.962 410.844 C 1773.41 409.845 1771.448 408.274 1770.601 407.352 L 1769.062 405.676 L 1771.036 405.676 C 1772.121 405.676 1773.814 405.339 1774.797 404.928 L 1776.584 404.179 L 1774.997 403.963 C 1769.724 403.243 1768.937 402.996 1770.236 402.47 C 1771.454 401.977 1771.449 401.954 1770.112 401.911 C 1768.237 401.851 1765.617 399.413 1765.11 397.257 C 1764.754 395.739 1764.857 395.562 1765.88 395.937 C 1767.014 396.351 1767.016 396.317 1765.94 395.088 C 1764.949 393.957 1764.596 392.338 1763.947 385.948 C 1763.856 385.048 1763.563 383.959 1763.297 383.528 C 1763.03 383.097 1762.759 381.048 1762.694 378.975 C 1762.605 376.172 1762.795 375.205 1763.433 375.205 C 1763.949 375.205 1764.162 374.763 1763.968 374.094 C 1763.628 372.923 1762.688 369.064 1762.046 366.203 C 1761.836 365.267 1761.215 364.053 1760.667 363.505 C 1759.277 362.114 1760.585 362.26 1763.754 363.848 L 1766.427 365.187 L 1764.046 362.71 C 1762.737 361.348 1761.666 359.932 1761.666 359.565 C 1761.666 359.197 1761.078 358.365 1760.36 357.715 C 1759.461 356.902 1759.169 356.075 1759.423 355.064 C 1759.626 354.256 1759.473 352.999 1759.083 352.27 C 1758.57 351.312 1758.566 350.754 1759.068 350.252 C 1759.449 349.87 1759.761 348.473 1759.761 347.146 C 1759.761 345.181 1759.99 344.734 1760.993 344.734 C 1762.916 344.734 1763.04 343.784 1761.329 342.176 C 1759.793 340.733 1759.143 339.198 1760.396 339.973 C 1760.745 340.188 1761.031 340.062 1761.031 339.693 C 1761.031 339.323 1760.745 339.02 1760.396 339.02 C 1760.047 339.02 1759.761 338.585 1759.761 338.052 C 1759.761 337.184 1759.955 337.184 1761.634 338.052 C 1765.66 340.134 1765.267 338.82 1760.391 333.899 C 1754.224 327.673 1753.836 326.692 1758.272 328.546 C 1761.54 329.911 1761.613 329.743 1758.688 327.591 C 1756.128 325.709 1754.048 323.166 1754.048 321.919 C 1754.048 321.542 1754.898 321.432 1756.111 321.652 L 1758.174 322.027 L 1755.719 319.941 C 1754.241 318.686 1752.572 316.318 1751.529 313.996 C 1750.576 311.873 1749.013 309.208 1748.056 308.073 C 1745.886 305.499 1746.713 305.411 1752.522 307.597 C 1758.607 309.888 1758.719 309.576 1753.045 306.136 C 1747.9 303.018 1747.186 302.053 1749.731 301.661 C 1751.061 301.456 1751 301.34 1748.962 300.204 L 1746.748 298.969 L 1749.791 299.241 C 1753.555 299.577 1753.505 298.64 1749.653 296.675 C 1746.002 294.811 1745.656 294.342 1748.335 294.887 L 1750.556 295.339 L 1748.362 293.467 L 1746.168 291.595 L 1747.714 290.767 C 1749.299 289.919 1750.874 288.556 1750.874 288.032 C 1750.874 287.871 1750.16 287.559 1749.287 287.34 C 1747.415 286.87 1747.228 284.937 1748.67 280.935 C 1749.897 277.531 1749.842 273.963 1748.505 270.235 L 1747.401 267.152 L 1749.296 265.635 C 1750.673 264.533 1750.898 264.118 1750.118 264.116 C 1749.153 264.113 1749.135 263.938 1749.942 262.383 C 1750.72 260.884 1750.717 260.584 1749.92 260.138 C 1749.414 259.855 1748.173 256.991 1747.163 253.774 C 1746.154 250.557 1744.843 246.782 1744.252 245.386 C 1743.66 243.989 1742.088 238.554 1740.758 233.309 C 1737.119 218.952 1733.24 212.439 1728.328 212.439 C 1723.715 212.439 1719.165 219.049 1713.704 233.68 C 1710.892 241.215 1705.542 251.088 1704.59 250.5 C 1704.343 250.347 1703.785 251.554 1703.35 253.181 C 1702.788 255.281 1702.4 255.883 1702.012 255.255 C 1701.64 254.653 1701.22 255.617 1700.697 258.278 C 1700.274 260.426 1699.7 262.042 1699.42 261.869 C 1698.825 261.502 1698.489 262.516 1697.619 267.287 C 1696.504 273.403 1694.699 277.777 1693.348 277.639 C 1692.691 277.572 1688.828 277.319 1684.764 277.077 L 1677.374 276.637 L 1676.994 274.342 C 1676.461 271.116 1676.536 266.743 1677.173 264.004 C 1677.589 262.213 1677.527 261.745 1676.907 261.983 C 1676.336 262.202 1675.97 261.168 1675.654 258.441 C 1675.195 254.493 1674.879 254.027 1673.554 255.352 C 1672.961 255.945 1672.792 255.667 1672.792 254.103 C 1672.792 252.664 1672.545 252.186 1671.926 252.424 C 1670.431 252.997 1668.033 249.317 1661.664 236.68 C 1654.838 223.136 1652.755 219.777 1649.938 217.771 C 1645.949 214.93 1642.396 216.441 1639.487 222.215 C 1634.354 232.402 1629.132 258.838 1629.832 271.096 C 1630.249 278.415 1631.273 282.021 1635.499 291.048 L 1638.747 297.987 L 1637.667 302.104 C 1637.073 304.368 1635.39 308.959 1633.926 312.305 C 1631.045 318.893 1630.731 321.547 1631.81 330.214 L 1632.333 334.422 L 1629.599 337.388 C 1628.095 339.02 1623.7 342.727 1619.833 345.626 C 1612.398 351.2 1606.137 357.313 1606.137 358.999 C 1606.137 360.766 1607.821 364.043 1609.546 365.634 C 1610.843 366.83 1611.215 367.773 1611.215 369.859 C 1611.215 371.999 1611.667 373.086 1613.437 375.205 C 1614.977 377.047 1615.659 378.499 1615.659 379.93 C 1615.659 383.428 1618.763 387.263 1623.705 389.869 C 1626.555 391.373 1628.103 392.589 1628.228 393.424 C 1628.333 394.121 1627.572 396.823 1626.537 399.428 C 1622.09 410.623 1622.915 417.088 1628.918 418.098 C 1630.18 418.31 1632.177 418.918 1633.356 419.448 L 1635.5 420.412 L 1635.096 424.352 C 1634.818 427.068 1634.987 429.264 1635.643 431.425 C 1637.128 436.319 1636.885 439.269 1634.717 442.688 C 1633.322 444.888 1633.073 445.669 1633.765 445.669 C 1635.007 445.669 1634.956 446.877 1633.653 448.317 C 1632.907 449.141 1632.839 449.478 1633.418 449.478 C 1633.991 449.478 1634.131 450.118 1633.886 451.625 C 1633.69 452.836 1633.847 454.081 1634.248 454.481 C 1634.771 455.004 1634.757 455.391 1634.195 455.953 C 1633.183 456.966 1633.231 457.73 1634.308 457.73 C 1634.789 457.73 1635.522 458.139 1635.936 458.638 C 1636.534 459.358 1636.273 460.409 1634.674 463.725 C 1633.037 467.118 1632.805 468.082 1633.438 468.845 C 1634.064 469.599 1634.01 470.104 1633.165 471.393 C 1632.585 472.278 1632.295 473.298 1632.519 473.661 C 1632.743 474.023 1631.738 475.729 1630.286 477.452 C 1627.964 480.205 1627.805 480.583 1628.969 480.583 C 1630.235 480.583 1630.25 480.666 1629.307 482.488 C 1628.42 484.203 1628.42 484.392 1629.303 484.392 C 1630.032 484.392 1630.181 484.8 1629.885 485.979 C 1629.584 487.179 1629.736 487.566 1630.508 487.566 C 1631.872 487.566 1631.81 487.928 1629.877 491.225 L 1628.226 494.044 L 1630.325 493.583 L 1632.423 493.122 L 1631.332 494.629 C 1628.801 498.123 1628.618 499.024 1630.197 500.216 L 1631.662 501.321 L 1630.362 505.915 C 1629.647 508.442 1628.544 511.418 1627.91 512.528 C 1626.955 514.201 1626.773 515.866 1626.844 522.274 C 1626.92 529.061 1627.095 530.234 1628.283 531.902 C 1630.34 534.791 1630.667 537.479 1629.208 539.505 C 1628.341 540.709 1628.096 541.766 1628.373 543.112 C 1628.589 544.16 1628.52 545.517 1628.22 546.128 C 1627.88 546.821 1627.922 547.239 1628.333 547.239 C 1628.694 547.239 1628.99 547.786 1628.99 548.455 C 1628.99 549.125 1629.343 549.79 1629.776 549.934 C 1630.397 550.141 1630.4 550.552 1629.789 551.891 C 1629.142 553.313 1629.169 553.587 1629.955 553.587 C 1630.533 553.587 1630.931 554.259 1630.991 555.333 C 1631.044 556.293 1631.157 557.364 1631.241 557.713 C 1631.822 560.109 1632.427 561.205 1633.17 561.205 C 1633.672 561.205 1633.877 561.6 1633.663 562.157 C 1633.44 562.738 1633.662 563.109 1634.233 563.109 C 1634.797 563.109 1635.715 564.61 1636.55 566.902 C 1637.311 568.988 1638.517 571.103 1639.23 571.602 C 1640.276 572.335 1640.396 572.752 1639.851 573.77 C 1639.296 574.809 1639.398 575.088 1640.431 575.358 C 1641.122 575.539 1641.686 576.142 1641.686 576.698 C 1641.686 577.304 1642.223 577.71 1643.025 577.71 C 1644.135 577.71 1644.295 577.98 1643.965 579.297 C 1643.671 580.468 1643.819 580.884 1644.531 580.884 C 1645.061 580.884 1645.495 581.169 1645.495 581.518 C 1645.495 581.868 1645.954 582.153 1646.515 582.153 C 1647.161 582.153 1647.401 582.503 1647.17 583.106 C 1646.947 583.686 1647.169 584.058 1647.737 584.058 C 1648.804 584.058 1648.984 585.058 1648.024 585.651 C 1647.024 586.269 1647.946 587.226 1649.111 586.779 C 1649.845 586.497 1650 586.618 1649.644 587.195 C 1649.367 587.642 1649.439 588.192 1649.802 588.417 C 1650.165 588.642 1650.774 591.065 1651.155 593.802 C 1652.074 600.411 1652.852 601.785 1653.443 597.845 L 1653.89 594.861 L 1655.088 597.211 C 1655.748 598.504 1656.287 600.073 1656.287 600.697 C 1656.287 601.409 1656.76 601.832 1657.556 601.832 C 1658.262 601.832 1658.826 602.256 1658.826 602.785 C 1658.826 603.308 1659.112 603.737 1659.461 603.737 C 1659.81 603.737 1660.096 604.165 1660.096 604.689 C 1660.096 605.213 1660.524 605.641 1661.048 605.641 C 1661.64 605.641 1662 606.241 1662 607.228 C 1662 608.392 1662.339 608.815 1663.27 608.815 C 1663.968 608.815 1664.539 609.134 1664.539 609.524 C 1664.539 609.921 1665.099 610.087 1665.809 609.901 C 1666.966 609.599 1667.081 609.887 1667.104 613.16 L 1667.129 616.751 L 1668.199 614.846 L 1669.269 612.942 L 1669.667 616.943 C 1669.886 619.143 1670.393 621.271 1670.794 621.672 C 1671.342 622.22 1671.522 622.064 1671.522 621.041 C 1671.522 620.294 1671.808 619.506 1672.157 619.29 C 1672.524 619.063 1672.792 619.666 1672.792 620.718 C 1672.792 621.719 1673.189 623.082 1673.675 623.747 C 1674.426 624.774 1674.712 624.828 1675.58 624.108 C 1676.473 623.367 1676.601 623.465 1676.601 624.894 C 1676.601 625.792 1677.101 626.811 1677.712 627.158 C 1678.633 627.681 1678.692 628.003 1678.059 629.038 C 1677.441 630.048 1677.472 630.354 1678.218 630.64 C 1678.725 630.835 1679.543 630.839 1680.035 630.651 C 1680.924 630.309 1682.043 632.433 1681.487 633.409 C 1681.336 633.674 1681.411 639.604 1681.653 646.587 C 1681.986 656.196 1681.884 660.363 1681.232 663.727 C 1680.25 668.79 1679.319 677.401 1678.552 688.516 C 1678.08 695.349 1677.741 696.872 1675.37 702.799 C 1673.91 706.448 1672.249 709.79 1671.68 710.227 C 1671.043 710.715 1668.613 711.02 1665.361 711.02 C 1660.348 711.02 1659.898 711.138 1656.614 713.319 C 1653.742 715.226 1653.254 715.81 1653.753 716.743 C 1654.195 717.569 1654.01 718.306 1653.055 719.519 C 1651.84 721.064 1651.803 721.492 1652.48 726.094 C 1653.712 734.471 1654.288 735.809 1657.209 737.085 C 1659.606 738.132 1664.15 738.948 1672.961 739.914 L 1676.621 740.315 L 1675.411 742.014 C 1674.746 742.948 1672.901 746.759 1671.31 750.483 C 1667.748 758.824 1664.4 765.524 1661.619 769.878 C 1660.456 771.699 1658.807 774.556 1657.955 776.226 C 1655.429 781.176 1653.436 782.578 1644.657 785.584 C 1640.279 787.082 1635.682 788.936 1634.441 789.703 C 1631.037 791.807 1627.937 796.234 1630.577 795.22 C 1631.84 794.736 1631.781 795.4 1630.206 799.394 C 1626.231 809.472 1630.531 814.064 1643.908 814.028 C 1655.998 813.995 1671.611 808.052 1675.752 801.908 C 1676.964 800.109 1677.167 800.008 1677.347 801.118 C 1677.483 801.958 1678.845 799.891 1681.362 795.025 C 1687.647 782.875 1691.054 778.883 1693.446 780.868 C 1694.753 781.953 1695.958 781.283 1698.159 778.245 C 1699.672 776.155 1700.089 774.921 1700.089 772.526 C 1700.089 770.227 1700.423 769.161 1701.442 768.212 C 1702.186 767.519 1703.121 766.296 1703.521 765.495 C 1703.92 764.694 1704.811 763.933 1705.501 763.805 C 1707.299 763.472 1708.342 762.469 1708.342 761.073 C 1708.342 760.406 1708.77 759.696 1709.294 759.495 C 1709.817 759.294 1710.246 758.795 1710.246 758.384 C 1710.246 756.77 1714.835 750.366 1716.246 750.012 C 1717.048 749.811 1718.023 748.946 1718.413 748.09 C 1718.803 747.234 1719.553 746.369 1720.08 746.166 C 1720.648 745.948 1721.038 745 1721.038 743.834 L 1721.038 741.868 L 1723.418 744.119 C 1728.396 748.826 1734.535 751.648 1739.798 751.648 C 1741.599 751.648 1744.14 752.436 1747.475 754.029 C 1752.1 756.237 1752.852 756.404 1757.857 756.332 C 1763.202 756.256 1776.043 753.727 1785.062 750.975 C 1790.251 749.391 1796.366 749.388 1807.69 750.963 C 1812.578 751.643 1820.268 752.521 1824.78 752.913 C 1829.645 753.336 1833.907 754.054 1835.254 754.677 L 1837.526 755.728 L 1834.669 755.925 C 1833.098 756.033 1827.527 756.369 1822.29 756.671 C 1812.885 757.214 1812.689 757.256 1806.3 760.091 C 1799.688 763.024 1795.3 765.69 1793.149 768.079 C 1791.949 769.412 1791.953 769.423 1793.551 769.423 L 1795.163 769.423 L 1793.717 773.073 C 1791.299 779.175 1791.237 779.58 1792.729 779.58 C 1793.801 779.58 1794.041 779.979 1794.041 781.76 C 1794.041 785.446 1795.041 787.039 1798.434 788.759 C 1803.784 791.47 1808.972 792.001 1821.808 791.152 C 1835.41 790.252 1842.713 789.04 1849.896 786.488 C 1857.017 783.959 1858.427 783.868 1858.634 785.928 C 1859.081 790.38 1860.321 794.392 1861.789 796.136 C 1862.919 797.479 1863.569 797.842 1863.895 797.314 C 1864.235 796.765 1864.997 797.03 1866.606 798.257 C 1868.728 799.875 1873.898 802.166 1877.065 802.892 C 1877.953 803.095 1878.999 802.787 1879.761 802.097 C 1880.921 801.047 1881.172 801.039 1883.389 801.976 C 1888.485 804.13 1894.457 805.697 1899.584 806.226 C 1905.219 806.807 1910.466 808.656 1915.808 811.943 C 1920.631 814.911 1943.451 821.483 1959.727 824.591 C 1972.83 827.094 2019.099 828.735 2032.095 827.158 L 2032.095 827.158 Z  M 1725.851 728.409 C 1723.683 727.578 1725.183 722.474 1729.694 715.327 C 1731.452 712.542 1731.572 711.655 1730.188 711.655 C 1729.419 711.655 1729.645 711.023 1731.14 708.991 C 1732.217 707.525 1733.099 705.685 1733.099 704.902 C 1733.099 704.118 1733.385 703.301 1733.734 703.085 C 1734.751 702.457 1734.467 701.5 1733.258 701.477 C 1732.323 701.459 1732.382 701.26 1733.632 700.218 C 1734.449 699.538 1734.997 698.622 1734.851 698.183 C 1734.704 697.744 1735.289 696.831 1736.149 696.154 C 1737.711 694.926 1737.711 694.923 1736.358 694.422 C 1735.017 693.926 1734.589 692.252 1735.489 691.02 C 1735.746 690.669 1737.083 689.54 1738.461 688.512 L 1740.966 686.643 L 1738.778 686.074 L 1736.591 685.505 L 1738.971 684.282 C 1741.7 682.879 1742.058 681.819 1739.802 681.819 C 1738.95 681.819 1738.134 681.604 1737.988 681.343 C 1737.843 681.081 1738.634 678.881 1739.746 676.455 L 1741.767 672.044 L 1744.448 675.991 C 1745.922 678.162 1748.257 680.685 1749.637 681.598 C 1751.016 682.511 1752.787 684.291 1753.571 685.554 C 1756.133 689.677 1757.897 692.885 1758.935 695.308 C 1759.495 696.618 1760.346 697.689 1760.825 697.689 C 1761.305 697.689 1761.992 698.475 1762.352 699.435 C 1762.712 700.395 1763.743 701.87 1764.643 702.714 C 1766.163 704.138 1766.202 704.304 1765.179 705.052 C 1763.72 706.119 1764.322 706.927 1767.94 708.761 C 1769.596 709.6 1771.361 710.788 1771.863 711.401 C 1772.364 712.014 1775.605 714.356 1779.065 716.606 C 1784.616 720.216 1785.212 720.777 1784.143 721.38 C 1783.352 721.825 1775.555 722.083 1761.666 722.123 L 1740.399 722.184 L 1733.79 725.489 C 1730.155 727.307 1727.108 728.795 1727.018 728.795 C 1726.928 728.795 1726.403 728.621 1725.851 728.409 L 1725.851 728.409 Z " fill="rgb(67,16,70)"/><path d=" M 99.752 781.211 C 97.467 781.284 93.589 780.913 91.135 780.386 C 81.824 778.389 64.129 777.734 55.475 779.066 C 50.999 779.755 43.322 778.281 40.637 776.217 C 37.908 774.119 37.895 774.077 39.321 771.98 C 41.066 769.414 45.443 765.823 56.073 758.233 C 63.353 753.035 67.047 749.915 70.283 746.233 C 77.109 738.466 82.672 735.567 96.446 732.6 C 107.916 730.13 123.394 725.711 127.822 723.643 C 132.539 721.439 138.314 720.349 143.791 720.629 C 146.87 720.786 148.24 720.524 152.051 719.05 C 155.436 717.741 158.163 717.149 162.586 716.763 C 169.547 716.155 172.675 715.199 174.109 713.243 C 176.406 710.11 174.902 707.754 163.114 696.024 C 158.194 691.128 153.051 685.284 150.669 681.882 L 146.61 676.084 L 147.046 679.549 C 147.286 681.455 147.256 682.616 146.98 682.129 C 146.704 681.641 145.529 680.226 144.368 678.984 C 141.534 675.949 139.789 672.992 138.742 669.451 C 138.264 667.834 136.179 661.279 134.109 654.886 C 126.518 631.435 124.891 609.442 129.55 593.246 C 131.134 587.74 136.821 575.482 141.404 567.697 C 144.818 561.897 153.01 551.311 178.097 520.286 C 208.465 482.729 212.785 476.647 224.184 455.403 C 238.755 428.246 243.23 420.31 247.981 413.203 C 250.35 409.659 254.934 402.162 258.167 396.542 C 266.511 382.041 268.042 379.963 275.002 373.693 C 284.315 365.305 285.969 362.285 288.051 349.873 C 288.762 345.632 290.223 340.308 291.571 337.048 C 292.838 333.984 293.851 331.319 293.821 331.127 C 293.792 330.935 292.892 331.181 291.823 331.675 C 288.399 333.253 287.988 332.911 290.568 330.629 C 291.951 329.406 293.651 327.555 294.348 326.515 L 295.614 324.623 L 293.663 324.924 C 292.59 325.089 290.866 325.013 289.832 324.756 L 287.952 324.289 L 289.488 323.833 C 294.59 322.32 295.33 321.956 293.966 321.634 C 292.687 321.331 292.688 321.308 294.003 321.063 C 295.847 320.718 298.066 317.91 298.239 315.702 C 298.361 314.147 298.232 313.988 297.277 314.514 C 296.22 315.096 296.212 315.062 297.089 313.685 C 297.896 312.416 297.999 310.761 297.668 304.347 C 297.622 303.444 297.745 302.324 297.943 301.857 C 298.141 301.39 298.098 299.324 297.847 297.264 C 297.508 294.481 297.173 293.554 296.543 293.651 C 296.032 293.729 295.754 293.325 295.845 292.634 C 296.002 291.425 296.344 287.469 296.544 284.543 C 296.61 283.586 297.038 282.292 297.496 281.667 C 298.659 280.081 297.388 280.423 294.498 282.475 L 292.06 284.205 L 294.036 281.395 C 295.123 279.849 295.966 278.287 295.91 277.924 C 295.854 277.561 296.308 276.649 296.919 275.897 C 297.684 274.957 297.847 274.096 297.442 273.135 C 297.119 272.367 297.079 271.101 297.353 270.322 C 297.714 269.297 297.634 268.744 297.061 268.324 C 296.626 268.005 296.105 266.671 295.903 265.36 C 295.605 263.418 295.311 263.011 294.319 263.163 C 292.419 263.456 292.151 262.536 293.598 260.686 C 294.897 259.027 295.306 257.411 294.185 258.367 C 293.873 258.633 293.571 258.552 293.515 258.187 C 293.459 257.821 293.695 257.479 294.04 257.426 C 294.385 257.373 294.601 256.898 294.52 256.372 C 294.388 255.514 294.196 255.543 292.669 256.657 C 289.007 259.327 289.196 257.968 293.266 252.363 C 298.414 245.271 298.649 244.243 294.546 246.75 C 291.524 248.596 291.426 248.441 293.99 245.87 C 296.234 243.619 297.903 240.79 297.713 239.557 C 297.656 239.185 296.799 239.205 295.633 239.608 L 293.651 240.292 L 295.761 237.857 C 297.03 236.392 298.32 233.797 298.997 231.344 C 299.617 229.101 300.756 226.229 301.529 224.962 C 303.282 222.087 302.451 222.126 297.043 225.17 C 291.377 228.36 291.219 228.069 296.303 223.806 C 300.914 219.941 301.474 218.879 298.899 218.879 C 297.552 218.879 297.595 218.754 299.436 217.322 L 301.438 215.764 L 298.471 216.496 C 294.802 217.4 294.709 216.467 298.217 213.939 C 301.542 211.541 301.813 211.025 299.248 211.971 L 297.121 212.756 L 299.005 210.572 L 300.889 208.387 L 299.235 207.805 C 297.539 207.207 295.775 206.1 295.696 205.582 C 295.671 205.423 296.33 205.006 297.159 204.657 C 298.938 203.908 298.828 201.969 296.794 198.233 C 295.064 195.055 294.576 191.52 295.329 187.632 L 295.953 184.417 L 293.849 183.206 C 292.32 182.327 292.034 181.95 292.805 181.829 C 293.758 181.68 293.749 181.504 292.715 180.09 C 291.719 178.727 291.676 178.429 292.396 177.867 C 292.853 177.51 293.643 174.491 294.152 171.158 C 294.661 167.825 295.382 163.895 295.754 162.425 C 296.126 160.954 296.853 155.344 297.37 149.957 C 298.783 135.213 301.627 128.186 306.481 127.439 C 311.04 126.738 316.543 132.579 324.166 146.209 C 328.091 153.228 334.881 162.173 335.732 161.446 C 335.953 161.258 336.688 162.366 337.366 163.908 C 338.24 165.898 338.716 166.434 339.003 165.755 C 339.28 165.103 339.841 165.992 340.763 168.542 C 341.507 170.601 342.321 172.111 342.572 171.897 C 343.103 171.444 343.59 172.394 345.176 176.978 C 347.208 182.853 349.657 186.902 350.972 186.56 C 351.61 186.393 355.39 185.556 359.37 184.699 L 366.607 183.14 L 366.633 180.814 C 366.67 177.545 365.93 173.234 364.884 170.623 C 364.201 168.916 364.19 168.444 364.839 168.585 C 365.437 168.715 365.642 167.638 365.54 164.894 C 365.392 160.922 365.634 160.414 367.145 161.522 C 367.821 162.017 367.946 161.717 367.708 160.171 C 367.489 158.749 367.66 158.239 368.309 158.379 C 369.873 158.719 371.684 154.717 376.056 141.259 C 380.743 126.833 382.29 123.197 384.769 120.786 C 388.28 117.371 392.022 118.324 395.776 123.588 C 402.398 132.876 411.58 158.21 412.753 170.431 C 413.454 177.729 412.99 181.449 410.187 191.014 L 408.032 198.366 L 409.726 202.271 C 410.657 204.418 413.019 208.699 414.975 211.784 C 418.825 217.857 419.538 220.432 419.791 229.163 L 419.913 233.401 L 423.067 235.917 C 424.802 237.301 429.709 240.296 433.972 242.573 C 442.168 246.952 449.287 252.042 449.543 253.708 C 449.812 255.454 448.646 258.949 447.183 260.785 C 446.083 262.163 445.858 263.152 446.176 265.214 C 446.501 267.329 446.22 268.472 444.793 270.835 C 443.552 272.891 443.098 274.429 443.316 275.844 C 443.848 279.301 441.363 283.563 436.875 286.891 C 434.287 288.811 432.942 290.248 432.945 291.092 C 432.948 291.797 434.111 294.352 435.53 296.77 C 441.628 307.158 441.797 313.673 436.016 315.584 C 434.802 315.986 432.921 316.89 431.836 317.594 L 429.864 318.873 L 430.862 322.705 C 431.55 325.347 431.716 327.543 431.397 329.779 C 430.674 334.842 431.362 337.721 434.025 340.77 C 435.739 342.733 436.104 343.466 435.42 343.571 C 434.192 343.76 434.427 344.947 435.933 346.172 C 436.796 346.873 436.915 347.195 436.342 347.283 C 435.775 347.37 435.735 348.024 436.206 349.476 C 436.584 350.644 436.618 351.898 436.283 352.355 C 435.846 352.951 435.918 353.332 436.558 353.801 C 437.714 354.648 437.782 355.411 436.717 355.575 C 436.242 355.648 435.58 356.163 435.247 356.72 C 434.765 357.523 435.183 358.521 437.268 361.556 C 439.402 364.66 439.778 365.577 439.268 366.428 C 438.764 367.268 438.895 367.76 439.926 368.906 C 440.633 369.692 441.076 370.656 440.909 371.048 C 440.743 371.441 441.996 372.974 443.693 374.455 C 446.407 376.823 446.621 377.173 445.471 377.35 C 444.219 377.543 444.217 377.627 445.426 379.284 C 446.564 380.845 446.593 381.031 445.72 381.166 C 445 381.277 444.914 381.702 445.386 382.823 C 445.866 383.963 445.775 384.369 445.012 384.486 C 443.663 384.694 443.78 385.041 446.192 388.007 L 448.253 390.541 L 446.108 390.405 L 443.964 390.268 L 445.272 391.592 C 448.305 394.66 448.623 395.523 447.243 396.941 L 445.963 398.256 L 447.947 402.599 C 449.038 404.988 450.581 407.761 451.376 408.762 C 452.575 410.27 453.008 411.889 453.912 418.233 C 454.87 424.952 454.875 426.138 453.955 427.967 C 452.361 431.136 452.446 433.842 454.197 435.623 C 455.237 436.681 455.639 437.688 455.571 439.061 C 455.517 440.129 455.792 441.46 456.181 442.018 C 456.622 442.652 456.644 443.071 456.239 443.133 C 455.881 443.188 455.672 443.774 455.774 444.436 C 455.876 445.097 455.628 445.809 455.222 446.017 C 454.64 446.316 454.7 446.723 455.506 447.953 C 456.363 449.259 456.378 449.535 455.6 449.654 C 455.03 449.742 454.738 450.467 454.842 451.537 C 454.936 452.494 454.987 453.57 454.957 453.928 C 454.748 456.385 454.317 457.559 453.582 457.672 C 453.085 457.749 452.943 458.17 453.239 458.688 C 453.548 459.229 453.385 459.629 452.821 459.716 C 452.263 459.802 451.584 461.426 451.107 463.817 C 450.673 465.995 449.803 468.269 449.174 468.871 C 448.251 469.754 448.196 470.185 448.889 471.108 C 449.597 472.05 449.538 472.341 448.558 472.766 C 447.903 473.049 447.437 473.731 447.521 474.281 C 447.613 474.88 447.145 475.362 446.352 475.484 C 445.255 475.653 445.138 475.945 445.665 477.196 C 446.133 478.309 446.05 478.742 445.347 478.851 C 444.822 478.931 444.437 479.28 444.49 479.625 C 444.543 479.97 444.133 480.322 443.578 480.407 C 442.94 480.505 442.756 480.887 443.076 481.448 C 443.384 481.987 443.222 482.389 442.661 482.475 C 441.606 482.638 441.58 483.653 442.619 484.094 C 443.702 484.553 442.936 485.638 441.716 485.374 C 440.948 485.207 440.813 485.35 441.253 485.866 C 441.594 486.266 441.608 486.821 441.283 487.098 C 440.958 487.375 440.724 489.863 440.764 492.626 C 440.861 499.298 440.302 500.775 439.118 496.97 L 438.222 494.088 L 437.395 496.594 C 436.94 497.972 436.646 499.604 436.741 500.222 C 436.849 500.925 436.446 501.416 435.659 501.537 C 434.962 501.644 434.468 502.148 434.549 502.671 C 434.629 503.189 434.411 503.656 434.066 503.709 C 433.721 503.762 433.504 504.229 433.584 504.747 C 433.663 505.264 433.305 505.753 432.787 505.833 C 432.202 505.923 431.937 506.57 432.088 507.546 C 432.265 508.696 431.994 509.166 431.074 509.308 C 430.384 509.414 429.868 509.816 429.927 510.201 C 429.987 510.593 429.459 510.842 428.73 510.767 C 427.54 510.644 427.47 510.947 427.945 514.185 L 428.466 517.737 L 427.119 516.018 L 425.772 514.298 L 425.987 518.313 C 426.105 520.522 425.928 522.702 425.593 523.159 C 425.135 523.784 424.933 523.657 424.777 522.646 C 424.664 521.908 424.261 521.172 423.884 521.012 C 423.486 520.844 423.313 521.48 423.473 522.52 C 423.626 523.51 423.44 524.917 423.061 525.648 C 422.475 526.777 422.2 526.874 421.233 526.295 C 420.238 525.698 420.126 525.815 420.344 527.227 C 420.48 528.115 420.141 529.198 419.59 529.634 C 418.76 530.291 418.75 530.618 419.533 531.544 C 420.297 532.449 420.314 532.755 419.62 533.152 C 419.148 533.422 418.34 533.551 417.825 533.439 C 416.894 533.237 416.112 535.506 416.81 536.386 C 416.999 536.625 417.827 542.497 418.65 549.436 C 419.783 558.984 420.518 563.087 421.674 566.312 C 423.414 571.167 425.644 579.537 428.093 590.405 C 429.598 597.087 430.165 598.541 433.411 604.038 C 435.409 607.422 437.558 610.473 438.187 610.818 C 438.891 611.204 441.339 611.136 444.554 610.641 C 449.508 609.879 449.971 609.927 453.549 611.583 C 456.677 613.031 457.249 613.534 456.897 614.532 C 456.586 615.415 456.881 616.115 458.009 617.17 C 459.445 618.511 459.547 618.929 459.578 623.58 C 459.634 632.048 459.268 633.458 456.576 635.162 C 454.365 636.562 449.998 638.06 441.437 640.355 L 437.881 641.308 L 439.335 642.803 C 440.134 643.625 442.538 647.111 444.676 650.55 C 449.466 658.252 453.794 664.365 457.204 668.245 C 458.631 669.868 460.696 672.441 461.792 673.962 C 465.041 678.47 467.224 679.553 476.359 681.188 C 480.914 682.003 485.739 683.136 487.082 683.705 C 490.767 685.267 494.504 689.171 491.74 688.571 C 490.418 688.284 490.578 688.932 492.742 692.639 C 498.203 701.995 494.651 707.188 481.425 709.187 C 469.471 710.993 453.135 707.495 448.109 702.052 C 446.636 700.458 446.42 700.39 446.411 701.514 C 446.405 702.365 444.744 700.529 441.516 696.103 C 433.457 685.05 429.482 681.622 427.42 683.948 C 426.292 685.22 425 684.74 422.362 682.072 C 420.549 680.238 419.949 679.081 419.585 676.714 C 419.235 674.442 418.743 673.438 417.592 672.656 C 416.751 672.084 415.64 671.017 415.124 670.286 C 414.607 669.555 413.611 668.939 412.91 668.918 C 411.082 668.862 409.899 668.029 409.686 666.649 C 409.585 665.99 409.054 665.354 408.505 665.235 C 407.957 665.116 407.458 664.687 407.395 664.282 C 407.15 662.686 401.64 657.055 400.191 656.919 C 399.368 656.842 398.273 656.136 397.757 655.349 C 397.241 654.563 396.368 653.821 395.817 653.702 C 395.222 653.573 394.693 652.694 394.516 651.542 L 394.217 649.599 L 392.206 652.186 C 388.003 657.595 382.364 661.318 377.162 662.119 C 375.383 662.393 372.991 663.558 369.937 665.639 C 365.702 668.525 364.984 668.805 360.026 669.495 C 354.731 670.233 341.655 669.687 332.323 668.338 C 326.953 667.562 320.909 668.489 309.957 671.769 C 305.229 673.184 297.761 675.221 293.362 676.295 C 288.618 677.454 284.514 678.812 283.277 679.632 L 281.192 681.016 L 284.046 680.776 C 285.615 680.644 291.172 680.129 296.394 679.631 C 305.773 678.737 305.973 678.749 312.719 680.579 C 319.7 682.472 324.442 684.439 326.931 686.474 C 328.32 687.609 328.318 687.62 326.738 687.863 L 325.145 688.108 L 327.13 691.496 C 330.448 697.159 330.57 697.55 329.096 697.776 C 328.037 697.94 327.86 698.371 328.131 700.131 C 328.691 703.774 327.945 705.501 324.853 707.717 C 319.978 711.21 314.932 712.524 302.115 713.637 C 288.534 714.817 281.132 714.729 273.645 713.3 C 266.222 711.884 264.815 712.009 264.923 714.075 C 265.158 718.544 264.543 722.698 263.357 724.645 C 262.445 726.144 261.858 726.602 261.455 726.129 C 261.036 725.638 260.323 726.016 258.919 727.474 C 257.069 729.396 252.307 732.447 249.287 733.646 C 248.44 733.982 247.36 733.836 246.501 733.27 C 245.195 732.409 244.946 732.439 242.897 733.702 C 238.188 736.606 232.525 739.063 227.537 740.366 C 222.057 741.798 217.152 744.424 212.372 748.485 C 208.056 752.152 186.501 762.118 170.888 767.666 C 158.318 772.133 112.837 780.792 99.752 781.211 L 99.752 781.211 Z  M 387.413 637.029 C 389.429 635.877 387.17 631.061 381.624 624.683 C 379.462 622.198 379.21 621.34 380.578 621.129 C 381.337 621.012 381.018 620.422 379.231 618.641 C 377.943 617.356 376.792 615.672 376.673 614.898 C 376.554 614.123 376.147 613.359 375.769 613.198 C 374.669 612.732 374.803 611.743 375.995 611.537 C 376.917 611.377 376.828 611.189 375.434 610.35 C 374.523 609.801 373.842 608.979 373.92 608.523 C 373.997 608.067 373.281 607.253 372.328 606.715 C 370.598 605.739 370.597 605.736 371.857 605.036 C 373.108 604.341 373.276 602.622 372.199 601.541 C 371.892 601.233 370.399 600.321 368.881 599.514 L 366.12 598.048 L 368.196 597.153 L 370.272 596.258 L 367.733 595.41 C 364.822 594.439 364.307 593.446 366.537 593.103 C 367.379 592.973 368.153 592.637 368.257 592.356 C 368.361 592.075 367.244 590.022 365.776 587.793 L 363.107 583.74 L 361.058 588.049 C 359.931 590.419 358.008 593.269 356.783 594.381 C 355.559 595.493 354.079 597.521 353.496 598.888 C 351.591 603.354 350.336 606.793 349.679 609.346 C 349.324 610.725 348.646 611.913 348.172 611.986 C 347.698 612.059 347.139 612.94 346.929 613.944 C 346.719 614.947 345.924 616.563 345.163 617.533 C 343.877 619.171 343.865 619.342 344.989 619.926 C 346.594 620.758 346.122 621.649 342.824 624.011 C 341.316 625.092 339.752 626.535 339.349 627.217 C 338.946 627.899 336.099 630.708 333.022 633.457 C 328.085 637.87 327.581 638.515 328.729 638.948 C 329.579 639.268 337.325 638.337 351.058 636.264 L 372.086 633.089 L 379.121 635.351 C 382.991 636.595 386.229 637.601 386.318 637.588 C 386.406 637.574 386.899 637.323 387.413 637.029 L 387.413 637.029 Z " fill="rgb(67,16,70)"/><g opacity="0.71"><linearGradient id="_lgradient_1" x1="0.5" y1="0" x2="0.5000000000000001" y2="1.0087719298245612" gradientTransform="matrix(2133.333,0,0,1200.547,0,-0.547)" gradientUnits="userSpaceOnUse"><stop offset="0%" stop-opacity="1" style="stop-color:rgb(255,255,255)"/><stop offset="99.1304347826087%" stop-opacity="0" style="stop-color:rgb(255,255,255)"/></linearGradient><rect x="0" y="-0.547" width="2133.333" height="1200.547" transform="matrix(1,0,0,1,0,0)" fill="url(#_lgradient_1)"/></g></g></g></g></svg>