<?xml version="1.0" standalone="no"?><!-- Generator: Gravit.io --><svg xmlns="http://www.w3.org/2000/svg" xmlns:xlink="http://www.w3.org/1999/xlink" style="isolation:isolate" viewBox="0 0 1200 800" width="1200" height="800"><defs><clipPath id="_clipPath_WzOpL38IX7i5HgN8DkznrHkGgTtxShq0"><rect width="1200" height="800"/></clipPath></defs><g clip-path="url(#_clipPath_WzOpL38IX7i5HgN8DkznrHkGgTtxShq0)"><rect x="0" y="0" width="1200" height="800" transform="matrix(1,0,0,1,0,0)" fill="rgb(235,235,235)"/><g id="vectorstock"><path d=" M 641.803 442.263 C 639.207 441.984 632.987 441.105 627.981 440.309 L 618.879 438.862 L 618.879 432.759 C 618.879 426.813 618.975 426.675 622.587 427.424 C 643.948 431.853 657.824 431.628 664.023 426.752 C 667.126 424.311 667.506 423.15 667.152 417.18 C 666.622 408.231 664.007 406.384 645.462 401.862 C 623.118 396.415 616.816 390.847 616.913 376.64 C 616.985 366.016 619.794 360.703 627.831 355.993 C 635.449 351.529 650.658 350.195 664.908 352.742 L 674.167 354.396 L 674.167 360.495 L 674.167 366.594 L 669.784 365.784 C 667.374 365.339 659.637 364.62 652.591 364.187 C 641.795 363.523 639.038 363.785 635.061 365.855 C 629.879 368.551 627.97 373.761 629.949 379.801 C 631.56 384.714 635.251 386.517 652.257 390.697 C 668.194 394.614 674.315 397.814 677.443 403.861 C 682.425 413.496 680.987 427.853 674.408 434.155 C 667.909 440.38 654.738 443.655 641.803 442.263 L 641.803 442.263 Z  M 310.785 440.511 C 310.007 439.252 279.061 356.726 279.061 355.91 C 279.061 355.685 280.17 355.5 281.526 355.5 C 284.185 355.5 284.009 355.084 302.088 404.045 C 307.429 418.508 312.249 430.845 312.8 431.462 C 313.851 432.639 314.296 431.536 331.476 385.167 C 340.65 360.407 342.65 356.108 345.176 355.724 C 346.803 355.476 347.914 355.82 347.646 356.489 C 347.378 357.157 340.217 376.172 331.732 398.742 C 323.248 421.313 315.663 440.226 314.876 440.771 C 312.929 442.121 311.733 442.045 310.785 440.511 L 310.785 440.511 Z  M 362.185 440.504 C 351.858 437.175 349.181 430.719 349.184 409.146 C 349.187 383.319 353.207 378.43 374.445 378.426 C 384.808 378.424 385.842 378.686 389.952 382.358 C 394.223 386.174 394.37 386.661 394.827 398.54 L 395.299 410.788 L 375.079 410.788 L 354.859 410.788 L 354.332 416.319 C 353.742 422.498 355.97 430.295 359.262 433.573 C 360.997 435.3 364.404 435.724 376.209 435.682 C 386.709 435.644 390.985 436.09 390.985 437.223 C 390.985 438.1 389.923 439.24 388.625 439.757 C 384.715 441.314 366.31 441.833 362.185 440.504 L 362.185 440.504 Z  M 390.292 397.506 C 390.266 385.586 387.976 383.818 372.57 383.818 C 362.291 383.818 360.877 384.137 357.886 387.128 C 356.065 388.949 354.525 391.831 354.463 393.533 C 354.402 395.236 354.182 398.146 353.976 400 C 353.232 406.693 353.669 406.844 372.602 406.443 L 390.311 406.068 L 390.292 397.506 L 390.292 397.506 Z  M 417.033 439.274 C 407.967 435.011 406.901 431.552 407.408 408.058 C 407.839 388.1 407.854 388.019 411.71 383.999 C 417.091 378.387 425.934 376.428 437.648 378.251 C 447.057 379.716 450.482 381.497 448.228 383.751 C 447.419 384.56 444.711 384.515 440.879 383.63 C 431.086 381.369 419.569 382.94 415.398 387.106 C 412.081 390.421 411.861 391.488 411.426 406.396 C 410.643 433.215 413.62 437.244 433.361 436.081 C 439.35 435.729 445.124 435.203 446.193 434.913 C 449.064 434.134 449.511 438.602 446.676 439.742 C 445.342 440.278 439.395 440.99 433.462 441.323 C 424.672 441.816 421.63 441.437 417.033 439.274 L 417.033 439.274 Z  M 475.265 440.205 C 469.588 436.885 469.284 435.315 469.24 409.102 C 469.199 384.789 469.093 383.812 466.5 383.65 C 460.951 383.303 460.459 383.092 460.032 380.876 C 459.705 379.181 460.724 378.499 464.059 378.179 L 468.523 377.75 L 468.921 368.648 C 469.223 361.766 469.799 359.545 471.281 359.545 C 472.81 359.545 473.242 361.625 473.242 368.985 L 473.242 378.424 L 481.432 378.424 C 488.51 378.424 489.559 378.745 489.157 380.784 C 488.781 382.686 487.258 383.146 481.304 383.155 L 473.917 383.166 L 473.547 406.603 C 473.08 436.177 473.184 436.409 486.857 436.409 C 495.184 436.409 496.309 436.702 495.914 438.769 C 495.549 440.685 493.82 441.19 486.713 441.455 C 481.848 441.637 476.764 441.082 475.265 440.205 L 475.265 440.205 Z  M 516.843 440.402 C 506.655 437.264 503.312 427.238 504.551 403.541 C 505.65 382.535 509.734 378.421 529.475 378.429 C 538.845 378.433 542.245 378.985 545.637 381.054 C 552.744 385.387 553.442 387.924 553.46 409.493 C 553.479 430.784 552.626 433.812 545.254 438.643 C 541.161 441.324 523.407 442.424 516.843 440.402 L 516.843 440.402 Z  M 544.816 432.467 L 548.758 428.526 L 548.758 410.825 C 548.758 384.62 546.501 381.991 525.484 383.711 C 510.455 384.94 510.422 384.993 509.889 408.814 L 509.452 428.327 L 513.494 432.368 C 517.36 436.235 518.039 436.409 529.205 436.409 C 540.305 436.409 541.067 436.217 544.816 432.467 L 544.816 432.467 Z  M 567.215 440.932 C 566.705 440.422 566.288 426.149 566.288 409.215 C 566.288 379.323 566.367 378.424 568.985 378.424 C 570.468 378.424 571.682 379.275 571.682 380.315 C 571.682 381.937 572.575 381.937 577.964 380.315 C 581.42 379.275 587.535 378.424 591.553 378.424 C 597.83 378.424 599.414 378.979 602.801 382.366 C 607.445 387.01 608.084 391.909 604.045 391.909 C 602.258 391.909 601.348 391.01 601.348 389.243 C 601.348 384.715 595.486 381.99 587.724 382.909 C 583.985 383.352 578.858 384.462 576.331 385.376 L 571.736 387.037 L 571.372 413.972 C 571.029 439.339 570.306 444.024 567.215 440.932 Z  M 704.089 439.071 C 697.069 434.791 695.742 429.782 695.742 407.545 L 695.742 388.035 L 691.36 387.612 C 687.216 387.212 686.977 386.895 686.977 381.795 C 686.977 376.696 687.216 376.378 691.36 375.979 L 695.742 375.556 L 695.742 366.202 L 695.742 356.848 L 701.811 356.848 L 707.879 356.848 L 707.879 366.288 L 707.879 375.727 L 716.047 375.727 L 724.216 375.727 L 723.801 381.458 L 723.386 387.189 L 715.597 387.595 L 707.807 388 L 708.18 407.806 L 708.553 427.611 L 712.175 429.345 C 714.802 430.603 717.858 430.756 723.3 429.903 L 730.803 428.726 L 730.803 434.433 C 730.803 441.101 729.536 441.758 716.644 441.78 C 710.884 441.789 707.267 441.009 704.089 439.071 L 704.089 439.071 Z  M 753.727 440.301 C 742.215 436.85 738.894 429.819 738.894 408.896 C 738.894 392.101 739.925 387.767 745.249 382.187 C 751.634 375.493 774.471 373.787 784.976 379.219 C 792.763 383.246 794.172 387.773 794.172 408.765 C 794.172 430.031 792.803 434.239 784.465 438.603 C 779.153 441.384 760.735 442.401 753.727 440.301 L 753.727 440.301 Z  M 778.927 428.607 C 781.905 426.714 783.394 420.1 783.394 408.765 C 783.394 397.431 781.905 390.817 778.927 388.923 C 778.046 388.363 772.623 387.896 766.875 387.884 C 751.75 387.854 751.03 388.803 751.03 408.765 C 751.03 428.727 751.75 429.676 766.875 429.646 C 772.623 429.635 778.046 429.167 778.927 428.607 Z  M 819.129 439.856 C 807.87 435.706 804.43 427.212 805.182 405.411 C 805.59 393.589 806.176 390.419 808.713 386.322 C 813.36 378.815 819.561 376.392 833.962 376.454 C 849.769 376.523 854.077 378.458 854.477 385.668 C 854.755 390.679 854.64 390.825 851.106 389.947 C 849.093 389.447 841.986 388.709 835.311 388.306 C 819.147 387.331 817.979 388.463 817.3 405.769 C 817.035 412.538 817.505 420.286 818.354 423.119 C 820.409 429.978 826.729 431.897 839.819 429.637 C 854.451 427.11 854.033 427.031 854.114 432.346 C 854.173 436.271 853.516 437.372 850.142 439 C 844.331 441.805 825.803 442.316 819.129 439.856 L 819.129 439.856 Z  M 867.899 440.904 C 867.405 440.41 867 419.171 867 393.707 L 867 347.409 L 873.068 347.409 L 879.136 347.409 L 879.136 371.682 C 879.136 385.032 879.465 395.955 879.867 395.955 C 880.269 395.955 885.803 391.403 892.166 385.841 L 903.734 375.727 L 911.663 375.727 C 916.023 375.727 919.591 376.262 919.591 376.915 C 919.591 378.122 897.525 397.604 895.226 398.427 C 892.415 399.432 894.578 403.503 907.455 421.444 C 914.871 431.778 920.939 440.586 920.939 441.018 C 920.939 441.45 917.678 441.803 913.693 441.803 L 906.446 441.803 L 895.263 425.621 C 889.111 416.721 883.695 409.439 883.226 409.439 C 880.128 409.439 879.136 413.757 879.136 427.239 L 879.136 441.803 L 873.967 441.803 C 871.124 441.803 868.393 441.398 867.899 440.904 Z " fill="rgb(41,40,41)"/></g><g id="RegisteredTM"><path d=" M 921.294 346.954 C 922.013 346.954 922.536 346.81 922.85 346.535 C 923.164 346.274 923.334 345.829 923.334 345.202 C 923.334 344.587 923.164 344.156 922.85 343.881 C 922.536 343.619 922.013 343.489 921.294 343.489 L 919.83 343.489 L 919.83 346.954 L 921.294 346.954 Z  M 919.83 349.347 L 919.83 354.447 L 916.351 354.447 L 916.351 340.965 L 921.66 340.965 C 923.439 340.965 924.733 341.266 925.557 341.867 C 926.394 342.456 926.799 343.397 926.799 344.692 C 926.799 345.581 926.59 346.313 926.158 346.889 C 925.727 347.451 925.086 347.882 924.21 348.144 C 924.694 348.262 925.112 348.51 925.491 348.889 C 925.871 349.268 926.25 349.844 926.629 350.628 L 928.525 354.447 L 924.825 354.447 L 923.177 351.099 C 922.85 350.432 922.51 349.961 922.17 349.726 C 921.83 349.478 921.373 349.347 920.81 349.347 L 919.83 349.347 Z  M 909.12 348 C 909.119 346.279 909.464 344.574 910.133 342.988 C 910.782 341.458 911.72 340.068 912.894 338.894 C 914.068 337.72 915.458 336.782 916.988 336.133 C 918.574 335.464 920.278 335.119 922 335.12 C 923.722 335.119 925.426 335.464 927.012 336.133 C 928.542 336.782 929.932 337.72 931.106 338.894 C 932.282 340.068 933.218 341.458 933.867 342.988 C 934.536 344.574 934.881 346.278 934.88 348 C 934.881 349.722 934.536 351.426 933.867 353.012 C 933.218 354.542 932.282 355.932 931.106 357.106 C 929.932 358.28 928.542 359.218 927.012 359.867 C 925.426 360.536 923.722 360.881 922 360.88 C 920.278 360.881 918.574 360.536 916.988 359.867 C 915.458 359.218 914.068 358.28 912.894 357.106 C 911.72 355.932 910.782 354.542 910.133 353.012 C 909.464 351.426 909.119 349.722 909.12 348 Z  M 911.735 348 C 911.734 346.628 912.009 345.27 912.542 344.007 C 913.059 342.788 913.806 341.679 914.744 340.743 C 915.679 339.806 916.788 339.059 918.007 338.542 C 919.271 338.009 920.628 337.734 922 337.735 C 923.372 337.734 924.73 338.009 925.993 338.542 C 927.212 339.059 928.321 339.806 929.257 340.743 C 930.194 341.679 930.941 342.788 931.458 344.007 C 931.991 345.271 932.266 346.628 932.265 348 C 932.266 349.372 931.991 350.729 931.458 351.993 C 930.941 353.212 930.194 354.321 929.257 355.257 C 928.321 356.194 927.212 356.941 925.993 357.458 C 924.73 357.991 923.372 358.266 922 358.265 C 920.628 358.266 919.271 357.991 918.007 357.458 C 916.788 356.941 915.679 356.194 914.744 355.257 C 913.806 354.321 913.059 353.212 912.542 351.993 C 912.009 350.729 911.734 349.372 911.735 348 Z " fill-rule="evenodd" fill="rgb(41,40,41)"/></g></g></svg>