<?xml version="1.0" encoding="UTF-8" standalone="no"?><!-- Generator: Gravit.io --><svg xmlns="http://www.w3.org/2000/svg" xmlns:xlink="http://www.w3.org/1999/xlink" style="isolation:isolate" viewBox="0 0 1620 1080" width="1620pt" height="1080pt"><defs><clipPath id="_clipPath_keaK3nR2yoYFtfXLxRJzGjJDgtMwH4rZ"><rect width="1620" height="1080"/></clipPath></defs><g clip-path="url(#_clipPath_keaK3nR2yoYFtfXLxRJzGjJDgtMwH4rZ)"><path d=" M 1069.222 807.151 L 1036.676 807.151 L 1036.676 807.151 Q 1032.375 807.151 1029.364 804.14 L 1029.364 804.14 L 1029.364 804.14 Q 1026.353 801.129 1026.353 796.828 L 1026.353 796.828 L 1026.353 774.605 L 1039.687 777.616 L 1039.687 788.656 L 1039.687 788.656 Q 1039.687 790.806 1041.192 792.312 L 1041.192 792.312 L 1041.192 792.312 Q 1042.698 793.817 1044.705 793.817 L 1044.705 793.817 L 1061.05 793.817 L 1061.05 793.817 Q 1063.2 793.817 1064.706 792.312 L 1064.706 792.312 L 1064.706 792.312 Q 1066.211 790.806 1066.211 788.656 L 1066.211 788.656 L 1066.211 763.422 L 1066.211 763.422 Q 1066.211 761.271 1064.706 759.766 L 1064.706 759.766 L 1064.706 759.766 Q 1063.2 758.26 1061.05 758.26 L 1061.05 758.26 L 1036.676 758.26 L 1036.676 758.26 Q 1032.375 758.26 1029.364 755.249 L 1029.364 755.249 L 1029.364 755.249 Q 1026.353 752.238 1026.353 747.937 L 1026.353 747.937 L 1026.353 717.111 L 1026.353 717.111 Q 1026.353 712.81 1029.364 709.799 L 1029.364 709.799 L 1029.364 709.799 Q 1032.375 706.788 1036.676 706.788 L 1036.676 706.788 L 1069.222 706.788 L 1069.222 706.788 Q 1073.523 706.788 1076.534 709.799 L 1076.534 709.799 L 1076.534 709.799 Q 1079.545 712.81 1079.545 717.111 L 1079.545 717.111 L 1079.545 732.596 L 1066.211 729.442 L 1066.211 725.284 L 1066.211 725.284 Q 1066.211 723.133 1064.706 721.628 L 1064.706 721.628 L 1064.706 721.628 Q 1063.2 720.122 1061.05 720.122 L 1061.05 720.122 L 1044.705 720.122 L 1044.705 720.122 Q 1042.698 720.122 1041.192 721.628 L 1041.192 721.628 L 1041.192 721.628 Q 1039.687 723.133 1039.687 725.284 L 1039.687 725.284 L 1039.687 739.765 L 1039.687 739.765 Q 1039.687 741.915 1041.192 743.421 L 1041.192 743.421 L 1041.192 743.421 Q 1042.698 744.926 1044.705 744.926 L 1044.705 744.926 L 1069.222 744.926 L 1069.222 744.926 Q 1073.523 744.926 1076.534 747.937 L 1076.534 747.937 L 1076.534 747.937 Q 1079.545 750.948 1079.545 755.249 L 1079.545 755.249 L 1079.545 796.828 L 1079.545 796.828 Q 1079.545 801.129 1076.534 804.14 L 1076.534 804.14 L 1076.534 804.14 Q 1073.523 807.151 1069.222 807.151 L 1069.222 807.151 Z  M 1103.058 807.151 L 1089.581 807.151 L 1089.581 702.774 L 1103.058 699.763 L 1103.058 735.463 L 1120.12 735.463 L 1116.966 748.941 L 1103.058 748.941 L 1103.058 807.151 Z  M 1154.1 807.151 L 1134.601 807.151 L 1134.601 807.151 Q 1130.156 807.151 1127.145 804.068 L 1127.145 804.068 L 1127.145 804.068 Q 1124.135 800.986 1124.135 796.685 L 1124.135 796.685 L 1124.135 745.93 L 1124.135 745.93 Q 1124.135 741.629 1127.145 738.546 L 1127.145 738.546 L 1127.145 738.546 Q 1130.156 735.463 1134.601 735.463 L 1134.601 735.463 L 1154.1 735.463 L 1154.1 735.463 Q 1158.401 735.463 1161.412 738.546 L 1161.412 738.546 L 1161.412 738.546 Q 1164.423 741.629 1164.423 745.93 L 1164.423 745.93 L 1164.423 796.685 L 1164.423 796.685 Q 1164.423 800.986 1161.412 804.068 L 1161.412 804.068 L 1161.412 804.068 Q 1158.401 807.151 1154.1 807.151 L 1154.1 807.151 Z  M 1142.773 793.674 L 1142.773 793.674 L 1145.784 793.674 L 1145.784 793.674 Q 1147.935 793.674 1149.512 792.168 L 1149.512 792.168 L 1149.512 792.168 Q 1151.089 790.663 1151.089 788.512 L 1151.089 788.512 L 1151.089 754.102 L 1151.089 754.102 Q 1151.089 751.952 1149.512 750.446 L 1149.512 750.446 L 1149.512 750.446 Q 1147.935 748.941 1145.784 748.941 L 1145.784 748.941 L 1142.773 748.941 L 1142.773 748.941 Q 1140.623 748.941 1139.117 750.446 L 1139.117 750.446 L 1139.117 750.446 Q 1137.612 751.952 1137.612 754.102 L 1137.612 754.102 L 1137.612 788.512 L 1137.612 788.512 Q 1137.612 790.663 1139.117 792.168 L 1139.117 792.168 L 1139.117 792.168 Q 1140.623 793.674 1142.773 793.674 Z  M 1203.134 807.151 L 1183.635 807.151 L 1183.635 807.151 Q 1179.191 807.151 1176.18 804.068 L 1176.18 804.068 L 1176.18 804.068 Q 1173.169 800.986 1173.169 796.685 L 1173.169 796.685 L 1173.169 745.93 L 1173.169 745.93 Q 1173.169 741.629 1176.18 738.546 L 1176.18 738.546 L 1176.18 738.546 Q 1179.191 735.463 1183.635 735.463 L 1183.635 735.463 L 1203.134 735.463 L 1203.134 735.463 Q 1207.435 735.463 1210.518 738.546 L 1210.518 738.546 L 1210.518 738.546 Q 1213.601 741.629 1213.601 745.93 L 1213.601 745.93 L 1213.601 761.558 L 1200.123 761.558 L 1200.123 754.102 L 1200.123 754.102 Q 1200.123 751.952 1198.546 750.446 L 1198.546 750.446 L 1198.546 750.446 Q 1196.969 748.941 1194.818 748.941 L 1194.818 748.941 L 1191.808 748.941 L 1191.808 748.941 Q 1189.657 748.941 1188.152 750.446 L 1188.152 750.446 L 1188.152 750.446 Q 1186.646 751.952 1186.646 754.102 L 1186.646 754.102 L 1186.646 788.512 L 1186.646 788.512 Q 1186.646 790.663 1188.152 792.168 L 1188.152 792.168 L 1188.152 792.168 Q 1189.657 793.674 1191.808 793.674 L 1191.808 793.674 L 1194.818 793.674 L 1194.818 793.674 Q 1196.969 793.674 1198.546 792.168 L 1198.546 792.168 L 1198.546 792.168 Q 1200.123 790.663 1200.123 788.512 L 1200.123 788.512 L 1200.123 781.057 L 1213.601 781.057 L 1213.601 796.685 L 1213.601 796.685 Q 1213.601 800.986 1210.518 804.068 L 1210.518 804.068 L 1210.518 804.068 Q 1207.435 807.151 1203.134 807.151 L 1203.134 807.151 Z  M 1237.114 807.151 L 1223.637 807.151 L 1223.637 702.631 L 1237.114 699.476 L 1237.114 771.307 L 1250.591 735.463 L 1264.069 735.463 L 1250.591 771.307 L 1264.069 807.151 L 1250.591 807.151 L 1243.853 789.086 L 1237.114 807.151 Z  M 824.624 807.151 L 811.29 807.151 L 811.29 706.788 L 864.626 706.788 L 864.626 720.122 L 824.624 720.122 L 824.624 744.926 L 851.292 744.926 L 848.281 758.26 L 824.624 758.26 L 824.624 807.151 Z  M 875.522 807.151 L 862.045 807.151 L 862.045 735.463 L 892.011 735.463 L 892.011 735.463 Q 896.312 735.463 899.394 738.546 L 899.394 738.546 L 899.394 738.546 Q 902.477 741.629 902.477 745.93 L 902.477 745.93 L 902.477 761.558 L 889 758.547 L 889 754.246 L 889 754.246 Q 889 752.095 887.494 750.518 L 887.494 750.518 L 887.494 750.518 Q 885.989 748.941 883.838 748.941 L 883.838 748.941 L 875.522 748.941 L 875.522 807.151 Z  M 948.644 807.151 L 918.678 807.151 L 918.678 807.151 Q 914.377 807.151 911.294 804.068 L 911.294 804.068 L 911.294 804.068 Q 908.212 800.986 908.212 796.685 L 908.212 796.685 L 908.212 745.786 L 908.212 745.786 Q 908.212 741.485 911.294 738.474 L 911.294 738.474 L 911.294 738.474 Q 914.377 735.463 918.678 735.463 L 918.678 735.463 L 938.177 735.463 L 938.177 735.463 Q 942.622 735.463 945.633 738.474 L 945.633 738.474 L 945.633 738.474 Q 948.644 741.485 948.644 745.786 L 948.644 745.786 L 948.644 767.579 L 948.644 767.579 Q 948.644 771.881 945.633 774.963 L 945.633 774.963 L 945.633 774.963 Q 942.622 778.046 938.177 778.046 L 938.177 778.046 L 921.689 778.046 L 921.689 788.512 L 921.689 788.512 Q 921.689 790.663 923.195 792.168 L 923.195 792.168 L 923.195 792.168 Q 924.7 793.674 926.994 793.674 L 926.994 793.674 L 945.633 793.674 L 948.644 807.151 Z  M 921.689 754.102 L 921.689 764.569 L 930.005 764.569 L 930.005 764.569 Q 932.156 764.569 933.661 763.063 L 933.661 763.063 L 933.661 763.063 Q 935.166 761.558 935.166 759.407 L 935.166 759.407 L 935.166 754.102 L 935.166 754.102 Q 935.166 751.952 933.661 750.446 L 933.661 750.446 L 933.661 750.446 Q 932.156 748.941 930.005 748.941 L 930.005 748.941 L 926.994 748.941 L 926.994 748.941 Q 924.7 748.941 923.195 750.446 L 923.195 750.446 L 923.195 750.446 Q 921.689 751.952 921.689 754.102 L 921.689 754.102 Z  M 996.244 807.151 L 966.279 807.151 L 966.279 807.151 Q 961.978 807.151 958.895 804.068 L 958.895 804.068 L 958.895 804.068 Q 955.812 800.986 955.812 796.685 L 955.812 796.685 L 955.812 745.786 L 955.812 745.786 Q 955.812 741.485 958.895 738.474 L 958.895 738.474 L 958.895 738.474 Q 961.978 735.463 966.279 735.463 L 966.279 735.463 L 985.778 735.463 L 985.778 735.463 Q 990.222 735.463 993.233 738.474 L 993.233 738.474 L 993.233 738.474 Q 996.244 741.485 996.244 745.786 L 996.244 745.786 L 996.244 767.579 L 996.244 767.579 Q 996.244 771.881 993.233 774.963 L 993.233 774.963 L 993.233 774.963 Q 990.222 778.046 985.778 778.046 L 985.778 778.046 L 969.29 778.046 L 969.29 788.512 L 969.29 788.512 Q 969.29 790.663 970.795 792.168 L 970.795 792.168 L 970.795 792.168 Q 972.301 793.674 974.594 793.674 L 974.594 793.674 L 993.233 793.674 L 996.244 807.151 Z  M 969.29 754.102 L 969.29 764.569 L 977.605 764.569 L 977.605 764.569 Q 979.756 764.569 981.261 763.063 L 981.261 763.063 L 981.261 763.063 Q 982.767 761.558 982.767 759.407 L 982.767 759.407 L 982.767 754.102 L 982.767 754.102 Q 982.767 751.952 981.261 750.446 L 981.261 750.446 L 981.261 750.446 Q 979.756 748.941 977.605 748.941 L 977.605 748.941 L 974.594 748.941 L 974.594 748.941 Q 972.301 748.941 970.795 750.446 L 970.795 750.446 L 970.795 750.446 Q 969.29 751.952 969.29 754.102 L 969.29 754.102 Z  M 617.017 807.151 L 603.683 807.151 L 603.683 758.403 L 584.041 706.788 L 597.375 706.788 L 610.422 741.055 L 623.326 706.788 L 636.66 706.788 L 617.017 758.403 L 617.017 807.151 Z  M 663.757 807.151 L 644.259 807.151 L 644.259 807.151 Q 639.814 807.151 636.803 804.068 L 636.803 804.068 L 636.803 804.068 Q 633.792 800.986 633.792 796.685 L 633.792 796.685 L 633.792 745.93 L 633.792 745.93 Q 633.792 741.629 636.803 738.546 L 636.803 738.546 L 636.803 738.546 Q 639.814 735.463 644.259 735.463 L 644.259 735.463 L 663.757 735.463 L 663.757 735.463 Q 668.059 735.463 671.07 738.546 L 671.07 738.546 L 671.07 738.546 Q 674.081 741.629 674.081 745.93 L 674.081 745.93 L 674.081 796.685 L 674.081 796.685 Q 674.081 800.986 671.07 804.068 L 671.07 804.068 L 671.07 804.068 Q 668.059 807.151 663.757 807.151 L 663.757 807.151 Z  M 652.431 793.674 L 652.431 793.674 L 655.442 793.674 L 655.442 793.674 Q 657.592 793.674 659.17 792.168 L 659.17 792.168 L 659.17 792.168 Q 660.747 790.663 660.747 788.512 L 660.747 788.512 L 660.747 754.102 L 660.747 754.102 Q 660.747 751.952 659.17 750.446 L 659.17 750.446 L 659.17 750.446 Q 657.592 748.941 655.442 748.941 L 655.442 748.941 L 652.431 748.941 L 652.431 748.941 Q 650.28 748.941 648.775 750.446 L 648.775 750.446 L 648.775 750.446 Q 647.269 751.952 647.269 754.102 L 647.269 754.102 L 647.269 788.512 L 647.269 788.512 Q 647.269 790.663 648.775 792.168 L 648.775 792.168 L 648.775 792.168 Q 650.28 793.674 652.431 793.674 Z  M 724.692 807.151 L 694.727 807.151 L 694.727 807.151 Q 690.282 807.151 687.271 804.14 L 687.271 804.14 L 687.271 804.14 Q 684.26 801.129 684.26 796.685 L 684.26 796.685 L 684.26 735.463 L 697.737 735.463 L 697.737 788.512 L 697.737 788.512 Q 697.737 790.519 699.315 792.097 L 699.315 792.097 L 699.315 792.097 Q 700.892 793.674 702.899 793.674 L 702.899 793.674 L 711.215 793.674 L 711.215 735.463 L 724.692 735.463 L 724.692 807.151 Z  M 749.639 807.151 L 736.162 807.151 L 736.162 735.463 L 766.127 735.463 L 766.127 735.463 Q 770.429 735.463 773.511 738.546 L 773.511 738.546 L 773.511 738.546 Q 776.594 741.629 776.594 745.93 L 776.594 745.93 L 776.594 761.558 L 763.116 758.547 L 763.116 754.246 L 763.116 754.246 Q 763.116 752.095 761.611 750.518 L 761.611 750.518 L 761.611 750.518 Q 760.106 748.941 757.955 748.941 L 757.955 748.941 L 749.639 748.941 L 749.639 807.151 Z  M 398.801 807.151 L 366.254 807.151 L 366.254 807.151 Q 361.953 807.151 358.942 804.14 L 358.942 804.14 L 358.942 804.14 Q 355.931 801.129 355.931 796.828 L 355.931 796.828 L 355.931 716.968 L 355.931 716.968 Q 355.931 712.81 358.942 709.799 L 358.942 709.799 L 358.942 709.799 Q 361.953 706.788 366.254 706.788 L 366.254 706.788 L 398.801 706.788 L 398.801 706.788 Q 403.102 706.788 406.113 709.799 L 406.113 709.799 L 406.113 709.799 Q 409.124 712.81 409.124 716.968 L 409.124 716.968 L 409.124 739.335 L 395.79 736.324 L 395.79 725.14 L 395.79 725.14 Q 395.79 722.99 394.284 721.484 L 394.284 721.484 L 394.284 721.484 Q 392.779 719.979 390.628 719.979 L 390.628 719.979 L 374.427 719.979 L 374.427 719.979 Q 372.276 719.979 370.771 721.484 L 370.771 721.484 L 370.771 721.484 Q 369.265 722.99 369.265 725.14 L 369.265 725.14 L 369.265 788.656 L 369.265 788.656 Q 369.265 790.806 370.771 792.312 L 370.771 792.312 L 370.771 792.312 Q 372.276 793.817 374.427 793.817 L 374.427 793.817 L 390.628 793.817 L 390.628 793.817 Q 392.779 793.817 394.284 792.312 L 394.284 792.312 L 394.284 792.312 Q 395.79 790.806 395.79 788.656 L 395.79 788.656 L 395.79 774.748 L 382.599 774.748 L 385.61 761.414 L 409.124 761.414 L 409.124 796.828 L 409.124 796.828 Q 409.124 801.129 406.113 804.14 L 406.113 804.14 L 406.113 804.14 Q 403.102 807.151 398.801 807.151 L 398.801 807.151 Z  M 434.358 807.151 L 420.88 807.151 L 420.88 735.463 L 450.846 735.463 L 450.846 735.463 Q 455.147 735.463 458.229 738.546 L 458.229 738.546 L 458.229 738.546 Q 461.312 741.629 461.312 745.93 L 461.312 745.93 L 461.312 761.558 L 447.835 758.547 L 447.835 754.246 L 447.835 754.246 Q 447.835 752.095 446.329 750.518 L 446.329 750.518 L 446.329 750.518 Q 444.824 748.941 442.673 748.941 L 442.673 748.941 L 434.358 748.941 L 434.358 807.151 Z  M 503.178 807.151 L 473.212 807.151 L 473.212 807.151 Q 468.911 807.151 465.828 804.14 L 465.828 804.14 L 465.828 804.14 Q 462.746 801.129 462.746 796.685 L 462.746 796.685 L 462.746 775.035 L 462.746 775.035 Q 462.746 770.734 465.828 767.651 L 465.828 767.651 L 465.828 767.651 Q 468.911 764.569 473.212 764.569 L 473.212 764.569 L 484.395 764.569 L 484.395 764.569 Q 486.689 764.569 488.195 763.063 L 488.195 763.063 L 488.195 763.063 Q 489.7 761.558 489.7 759.407 L 489.7 759.407 L 489.7 754.102 L 489.7 754.102 Q 489.7 751.952 488.195 750.446 L 488.195 750.446 L 488.195 750.446 Q 486.689 748.941 484.395 748.941 L 484.395 748.941 L 468.911 748.941 L 471.922 735.463 L 492.711 735.463 L 492.711 735.463 Q 497.012 735.463 500.095 738.546 L 500.095 738.546 L 500.095 738.546 Q 503.178 741.629 503.178 745.93 L 503.178 745.93 L 503.178 807.151 Z  M 481.385 793.674 L 481.385 793.674 L 489.7 793.674 L 489.7 778.046 L 481.385 778.046 L 481.385 778.046 Q 479.234 778.046 477.728 779.551 L 477.728 779.551 L 477.728 779.551 Q 476.223 781.057 476.223 783.207 L 476.223 783.207 L 476.223 788.512 L 476.223 788.512 Q 476.223 790.663 477.728 792.168 L 477.728 792.168 L 477.728 792.168 Q 479.234 793.674 481.385 793.674 Z  M 541.745 807.151 L 511.78 807.151 L 511.78 702.631 L 525.257 699.62 L 525.257 735.463 L 541.745 735.463 L 541.745 735.463 Q 546.047 735.463 549.129 738.474 L 549.129 738.474 L 549.129 738.474 Q 552.212 741.485 552.212 745.93 L 552.212 745.93 L 552.212 796.685 L 552.212 796.685 Q 552.212 800.986 549.129 804.068 L 549.129 804.068 L 549.129 804.068 Q 546.047 807.151 541.745 807.151 L 541.745 807.151 Z  M 525.257 748.941 L 525.257 793.674 L 533.43 793.674 L 533.43 793.674 Q 535.58 793.674 537.157 792.168 L 537.157 792.168 L 537.157 792.168 Q 538.735 790.663 538.735 788.512 L 538.735 788.512 L 538.735 754.102 L 538.735 754.102 Q 538.735 751.952 537.157 750.446 L 537.157 750.446 L 537.157 750.446 Q 535.58 748.941 533.43 748.941 L 533.43 748.941 L 525.257 748.941 Z " fill="rgb(38,46,67)"/><g><path d=" M 810 456.146 Q 1119.367 444.29 1060.716 265.712 C 1182.129 373.92 1107.956 594.539 810 600 L 810 600 L 810 600 L 810 600 L 810 600 C 512.044 594.539 437.871 373.92 559.284 265.712 Q 500.633 444.29 810 456.146 Z " fill="rgb(1,90,255)"/><path d=" M 1017.349 409.577 Q 952.978 450.667 810 456.146 Q 500.633 444.29 559.284 265.712 C 506.033 313.171 490.406 382.255 514.806 445.321 C 718.576 604.597 989.929 459.182 1017.349 409.577 Z " fill="rgb(52,127,246)"/></g></g></svg>