<?xml version="1.0" encoding="UTF-8" standalone="no"?><!-- Generator: Gravit.io --><svg xmlns="http://www.w3.org/2000/svg" xmlns:xlink="http://www.w3.org/1999/xlink" style="isolation:isolate" viewBox="0 0 512 512" width="512pt" height="512pt"><defs><clipPath id="_clipPath_sqyk0ALqAL9eODXAaimiKMnpBOFIAlIq"><rect width="512" height="512"/></clipPath></defs><g clip-path="url(#_clipPath_sqyk0ALqAL9eODXAaimiKMnpBOFIAlIq)"><rect width="512" height="512" style="fill:rgb(254,82,91)"/><path d=" M 234.88 44.8 L 277.12 44.8 L 277.12 89.701 C 325.274 99.416 361.6 141.656 361.6 192.64 L 277.12 192.64 C 276.415 181.494 267.169 172.814 256 172.814 C 244.831 172.814 235.585 181.494 234.88 192.64 C 234.88 198.765 235.387 213.591 258.661 213.76 C 298.071 213.76 361.6 259.126 361.6 319.36 C 361.533 369.417 326.198 412.491 277.12 422.341 L 277.12 467.2 L 234.88 467.2 L 234.88 422.299 C 186.726 412.584 150.4 370.344 150.4 319.36 L 234.88 319.36 C 235.585 330.506 244.831 339.186 256 339.186 C 267.169 339.186 276.415 330.506 277.12 319.36 C 277.12 313.235 276.613 298.409 253.339 298.24 C 214.098 298.24 150.4 252.874 150.4 192.64 C 150.467 142.583 185.802 99.509 234.88 89.659 L 234.88 44.8 L 234.88 44.8 L 234.88 44.8 Z " fill="rgb(255,255,255)"/></g></svg>