<?xml version="1.0" encoding="UTF-8" standalone="no"?><!-- Generator: Gravit.io --><svg xmlns="http://www.w3.org/2000/svg" xmlns:xlink="http://www.w3.org/1999/xlink" style="isolation:isolate" viewBox="0 0 512 512" width="512pt" height="512pt"><defs><clipPath id="_clipPath_XICKVNrF7Pi8S9ZvtKLrei2haOh1ARNY"><rect width="512" height="512"/></clipPath></defs><g clip-path="url(#_clipPath_XICKVNrF7Pi8S9ZvtKLrei2haOh1ARNY)"><path d=" M 236.441 0 L 236.441 40.811 C 156.591 48.183 108.08 93.46 108.08 161.799 C 108.08 219.492 144.174 259.109 210.126 275.953 L 236.441 282.806 L 236.441 417.635 C 192.377 412.668 163.964 388.067 161.018 352.877 L 98.378 352.877 C 98.609 421.543 151.855 467.936 236.441 473.576 L 236.441 512 L 276.982 512 L 276.982 473.172 C 363.685 465.799 413.601 420.542 413.601 348.045 C 413.601 286.829 378.72 249.311 304.51 231.273 L 276.982 225.036 L 276.982 97.599 C 316.002 102.335 342.626 127.745 343.819 160.297 L 405.632 160.297 C 403.842 94.365 353.598 47.664 276.982 40.811 L 276.982 0 L 236.441 0 Z  M 236.441 97.291 L 236.441 216.547 C 193.898 207.98 171.394 186.92 171.394 156.486 C 171.394 124.203 198.633 99.389 236.46 97.291 L 236.441 97.291 Z  M 277.059 290.468 C 327.302 300.536 350.672 320.922 350.672 354.995 C 350.672 392.513 323.76 415.595 277.059 418.232 L 277.059 290.468 Z " fill="rgb(254,82,91)"/></g></svg>