<?xml version="1.0" encoding="UTF-8" standalone="no"?>
<!-- Created with Inkscape (http://www.inkscape.org/) -->

<svg
   xmlns:dc="http://purl.org/dc/elements/1.1/"
   xmlns:cc="http://creativecommons.org/ns#"
   xmlns:rdf="http://www.w3.org/1999/02/22-rdf-syntax-ns#"
   xmlns:svg="http://www.w3.org/2000/svg"
   xmlns="http://www.w3.org/2000/svg"
   xmlns:sodipodi="http://sodipodi.sourceforge.net/DTD/sodipodi-0.dtd"
   xmlns:inkscape="http://www.inkscape.org/namespaces/inkscape"
   sodipodi:docname="divcsster.svg"
   inkscape:version="0.48.3.1 r9886"
   version="1.1"
   id="svg2"
   height="512"
   width="512">
  <sodipodi:namedview
     id="base"
     pagecolor="#ffffff"
     bordercolor="#666666"
     borderopacity="1.0"
     inkscape:pageopacity="0.0"
     inkscape:pageshadow="2"
     inkscape:zoom="0.70710678"
     inkscape:cx="189.49551"
     inkscape:cy="239.73158"
     inkscape:document-units="px"
     inkscape:current-layer="layer1"
     showgrid="false"
     inkscape:window-width="1301"
     inkscape:window-height="744"
     inkscape:window-x="65"
     inkscape:window-y="24"
     inkscape:window-maximized="1" />
  <defs
     id="defs4">
    <inkscape:perspective
       id="perspective32"
       inkscape:persp3d-origin="256 : 170.66667 : 1"
       inkscape:vp_z="512 : 256 : 1"
       inkscape:vp_y="0 : 1000 : 0"
       inkscape:vp_x="0 : 256 : 1"
       sodipodi:type="inkscape:persp3d" />
  </defs>
  <metadata
     id="metadata7">
    <rdf:RDF>
      <cc:Work
         rdf:about="">
        <dc:format>image/svg+xml</dc:format>
        <dc:type
           rdf:resource="http://purl.org/dc/dcmitype/StillImage" />
        <dc:title></dc:title>
      </cc:Work>
    </rdf:RDF>
  </metadata>
  <g
     inkscape:label="Layer 1"
     inkscape:groupmode="layer"
     id="layer1"
     transform="translate(0,-540.36218)">
    <g
       id="g3053"
       transform="matrix(2.2186687,0,0,2.2186687,257.85715,793.42857)"
       inkscape:label="Gear24"
       style="fill:#ffffff;stroke:none" />
    <g
       id="g4011"
       transform="matrix(6.939124,0,0,6.939124,256.14053,791.42238)"
       inkscape:label="Gear8"
       style="fill:#ffffff;stroke:none" />
    <g
       transform="translate(0,540.36219)"
       id="g3112">
      <g
         id="g4243"
         transform="matrix(1.4115026,0,0,1.2995248,0,-22.1047)">
        <g
           style="fill:#aa4400"
           id="g3343">
          <g
             style="fill:#aa4400"
             id="g2838"
             transform="matrix(1,0,0,0.89452615,-74.633,-46.997391)">
            <polygon
               id="polygon6"
               points="74.633,100.62 437.367,100.62 404.321,470.819 255.778,512 107.644,470.877 "
               style="fill:#aa4400" />
            <polygon
               id="polygon8"
               points="256,480.523 376.03,447.246 404.27,130.894 256,130.894 "
               style="fill:#aa4400" />
            <polygon
               id="polygon10"
               points="142.132,176.305 143.219,188.488 154.38,313.627 256,313.627 256,268.217 195.91,268.217 191.76,221.716 256,221.716 256,176.305 255.843,176.305 "
               style="fill:#aa4400" />
            <polygon
               id="polygon12"
               points="256,386.153 255.801,386.206 205.227,372.55 201.994,336.333 177.419,336.333 156.409,336.333 162.771,407.634 255.791,433.457 256,433.399 "
               style="fill:#aa4400" />
            <polygon
               id="polygon22"
               points="306.49,372.521 255.843,386.191 255.843,433.435 348.937,407.634 349.62,399.962 360.291,280.411 361.399,268.217 349.162,268.217 255.843,268.217 255.843,313.627 311.761,313.627 "
               style="fill:#aa4400" />
            <polygon
               id="polygon24"
               points="365.531,221.716 366.442,211.509 368.511,188.488 369.597,176.305 255.843,176.305 255.843,204.509 255.843,221.605 255.843,221.716 365.385,221.716 365.385,221.716 "
               style="fill:#aa4400" />
          </g>
          <g
             style="fill:#aa4400"
             transform="matrix(1,0,0,0.89452615,-74.633,-48.997391)"
             id="g2846">
            <polygon
               style="fill:#aa4400"
               points="437.367,100.62 404.321,470.819 255.778,512 107.644,470.877 74.633,100.62 "
               id="polygon2848" />
            <polygon
               style="fill:#aa4400"
               points="376.03,447.246 404.27,130.894 256,130.894 256,480.523 "
               id="polygon2850" />
            <polygon
               style="fill:#aa4400"
               points="143.219,188.488 154.38,313.627 256,313.627 256,268.217 195.91,268.217 191.76,221.716 256,221.716 256,176.305 255.843,176.305 142.132,176.305 "
               id="polygon2852" />
            <polygon
               style="fill:#aa4400"
               points="255.801,386.206 205.227,372.55 201.994,336.333 177.419,336.333 156.409,336.333 162.771,407.634 255.791,433.457 256,433.399 256,386.153 "
               id="polygon2854" />
            <polygon
               style="fill:#aa4400"
               points="255.843,386.191 255.843,433.435 348.937,407.634 349.62,399.962 360.291,280.411 361.399,268.217 349.162,268.217 255.843,268.217 255.843,313.627 311.761,313.627 306.49,372.521 "
               id="polygon2856" />
            <polygon
               style="fill:#aa4400"
               points="366.442,211.509 368.511,188.488 369.597,176.305 255.843,176.305 255.843,204.509 255.843,221.605 255.843,221.716 365.385,221.716 365.385,221.716 365.531,221.716 "
               id="polygon2858" />
          </g>
          <g
             style="fill:#aa4400"
             id="g2860"
             transform="matrix(1,0,0,0.89452615,-74.633,-50.997391)">
            <polygon
               id="polygon2862"
               points="404.321,470.819 255.778,512 107.644,470.877 74.633,100.62 437.367,100.62 "
               style="fill:#aa4400" />
            <polygon
               id="polygon2864"
               points="404.27,130.894 256,130.894 256,480.523 376.03,447.246 "
               style="fill:#aa4400" />
            <polygon
               id="polygon2866"
               points="154.38,313.627 256,313.627 256,268.217 195.91,268.217 191.76,221.716 256,221.716 256,176.305 255.843,176.305 142.132,176.305 143.219,188.488 "
               style="fill:#aa4400" />
            <polygon
               id="polygon2868"
               points="205.227,372.55 201.994,336.333 177.419,336.333 156.409,336.333 162.771,407.634 255.791,433.457 256,433.399 256,386.153 255.801,386.206 "
               style="fill:#aa4400" />
            <polygon
               id="polygon2870"
               points="255.843,433.435 348.937,407.634 349.62,399.962 360.291,280.411 361.399,268.217 349.162,268.217 255.843,268.217 255.843,313.627 311.761,313.627 306.49,372.521 255.843,386.191 "
               style="fill:#aa4400" />
            <polygon
               id="polygon2872"
               points="368.511,188.488 369.597,176.305 255.843,176.305 255.843,204.509 255.843,221.605 255.843,221.716 365.385,221.716 365.385,221.716 365.531,221.716 366.442,211.509 "
               style="fill:#aa4400" />
          </g>
          <g
             style="fill:#aa4400"
             transform="matrix(1,0,0,0.89452615,-74.633,-52.997391)"
             id="g2874">
            <polygon
               style="fill:#aa4400"
               points="255.778,512 107.644,470.877 74.633,100.62 437.367,100.62 404.321,470.819 "
               id="polygon2876" />
            <polygon
               style="fill:#aa4400"
               points="256,130.894 256,480.523 376.03,447.246 404.27,130.894 "
               id="polygon2878" />
            <polygon
               style="fill:#aa4400"
               points="256,313.627 256,268.217 195.91,268.217 191.76,221.716 256,221.716 256,176.305 255.843,176.305 142.132,176.305 143.219,188.488 154.38,313.627 "
               id="polygon2880" />
            <polygon
               style="fill:#aa4400"
               points="201.994,336.333 177.419,336.333 156.409,336.333 162.771,407.634 255.791,433.457 256,433.399 256,386.153 255.801,386.206 205.227,372.55 "
               id="polygon2882" />
            <polygon
               style="fill:#aa4400"
               points="348.937,407.634 349.62,399.962 360.291,280.411 361.399,268.217 349.162,268.217 255.843,268.217 255.843,313.627 311.761,313.627 306.49,372.521 255.843,386.191 255.843,433.435 "
               id="polygon2884" />
            <polygon
               style="fill:#aa4400"
               points="369.597,176.305 255.843,176.305 255.843,204.509 255.843,221.605 255.843,221.716 365.385,221.716 365.385,221.716 365.531,221.716 366.442,211.509 368.511,188.488 "
               id="polygon2886" />
          </g>
          <g
             style="fill:#aa4400"
             id="g2888"
             transform="matrix(1,0,0,0.89452615,-74.633,-54.997391)">
            <polygon
               id="polygon2890"
               points="107.644,470.877 74.633,100.62 437.367,100.62 404.321,470.819 255.778,512 "
               style="fill:#aa4400" />
            <polygon
               id="polygon2892"
               points="256,480.523 376.03,447.246 404.27,130.894 256,130.894 "
               style="fill:#aa4400" />
            <polygon
               id="polygon2894"
               points="256,268.217 195.91,268.217 191.76,221.716 256,221.716 256,176.305 255.843,176.305 142.132,176.305 143.219,188.488 154.38,313.627 256,313.627 "
               style="fill:#aa4400" />
            <polygon
               id="polygon2896"
               points="177.419,336.333 156.409,336.333 162.771,407.634 255.791,433.457 256,433.399 256,386.153 255.801,386.206 205.227,372.55 201.994,336.333 "
               style="fill:#aa4400" />
            <polygon
               id="polygon2898"
               points="349.62,399.962 360.291,280.411 361.399,268.217 349.162,268.217 255.843,268.217 255.843,313.627 311.761,313.627 306.49,372.521 255.843,386.191 255.843,433.435 348.937,407.634 "
               style="fill:#aa4400" />
            <polygon
               id="polygon2900"
               points="255.843,176.305 255.843,204.509 255.843,221.605 255.843,221.716 365.385,221.716 365.385,221.716 365.531,221.716 366.442,211.509 368.511,188.488 369.597,176.305 "
               style="fill:#aa4400" />
          </g>
          <g
             style="fill:#aa4400"
             transform="matrix(1,0,0,0.89452615,-74.633,-56.997391)"
             id="g2902">
            <polygon
               style="fill:#aa4400"
               points="74.633,100.62 437.367,100.62 404.321,470.819 255.778,512 107.644,470.877 "
               id="polygon2904" />
            <polygon
               style="fill:#aa4400"
               points="376.03,447.246 404.27,130.894 256,130.894 256,480.523 "
               id="polygon2906" />
            <polygon
               style="fill:#aa4400"
               points="195.91,268.217 191.76,221.716 256,221.716 256,176.305 255.843,176.305 142.132,176.305 143.219,188.488 154.38,313.627 256,313.627 256,268.217 "
               id="polygon2908" />
            <polygon
               style="fill:#aa4400"
               points="156.409,336.333 162.771,407.634 255.791,433.457 256,433.399 256,386.153 255.801,386.206 205.227,372.55 201.994,336.333 177.419,336.333 "
               id="polygon2910" />
            <polygon
               style="fill:#aa4400"
               points="360.291,280.411 361.399,268.217 349.162,268.217 255.843,268.217 255.843,313.627 311.761,313.627 306.49,372.521 255.843,386.191 255.843,433.435 348.937,407.634 349.62,399.962 "
               id="polygon2912" />
            <polygon
               style="fill:#aa4400"
               points="255.843,204.509 255.843,221.605 255.843,221.716 365.385,221.716 365.385,221.716 365.531,221.716 366.442,211.509 368.511,188.488 369.597,176.305 255.843,176.305 "
               id="polygon2914" />
          </g>
          <g
             style="fill:#aa4400"
             id="g2916"
             transform="matrix(1,0,0,0.89452615,-74.633,-58.997391)">
            <polygon
               id="polygon2918"
               points="437.367,100.62 404.321,470.819 255.778,512 107.644,470.877 74.633,100.62 "
               style="fill:#aa4400" />
            <polygon
               id="polygon2920"
               points="404.27,130.894 256,130.894 256,480.523 376.03,447.246 "
               style="fill:#aa4400" />
            <polygon
               id="polygon2922"
               points="191.76,221.716 256,221.716 256,176.305 255.843,176.305 142.132,176.305 143.219,188.488 154.38,313.627 256,313.627 256,268.217 195.91,268.217 "
               style="fill:#aa4400" />
            <polygon
               id="polygon2924"
               points="162.771,407.634 255.791,433.457 256,433.399 256,386.153 255.801,386.206 205.227,372.55 201.994,336.333 177.419,336.333 156.409,336.333 "
               style="fill:#aa4400" />
            <polygon
               id="polygon2926"
               points="361.399,268.217 349.162,268.217 255.843,268.217 255.843,313.627 311.761,313.627 306.49,372.521 255.843,386.191 255.843,433.435 348.937,407.634 349.62,399.962 360.291,280.411 "
               style="fill:#aa4400" />
            <polygon
               id="polygon2928"
               points="255.843,221.605 255.843,221.716 365.385,221.716 365.385,221.716 365.531,221.716 366.442,211.509 368.511,188.488 369.597,176.305 255.843,176.305 255.843,204.509 "
               style="fill:#aa4400" />
          </g>
          <g
             style="fill:#aa4400"
             transform="matrix(1,0,0,0.89452615,-74.633,-58.997391)"
             id="g2930">
            <polygon
               style="fill:#aa4400"
               points="437.367,100.62 404.321,470.819 255.778,512 107.644,470.877 74.633,100.62 "
               id="polygon2932" />
            <polygon
               style="fill:#aa4400"
               points="404.27,130.894 256,130.894 256,480.523 376.03,447.246 "
               id="polygon2934" />
            <polygon
               style="fill:#aa4400"
               points="191.76,221.716 256,221.716 256,176.305 255.843,176.305 142.132,176.305 143.219,188.488 154.38,313.627 256,313.627 256,268.217 195.91,268.217 "
               id="polygon2936" />
            <polygon
               style="fill:#aa4400"
               points="162.771,407.634 255.791,433.457 256,433.399 256,386.153 255.801,386.206 205.227,372.55 201.994,336.333 177.419,336.333 156.409,336.333 "
               id="polygon2938" />
            <polygon
               style="fill:#aa4400"
               points="361.399,268.217 349.162,268.217 255.843,268.217 255.843,313.627 311.761,313.627 306.49,372.521 255.843,386.191 255.843,433.435 348.937,407.634 349.62,399.962 360.291,280.411 "
               id="polygon2940" />
            <polygon
               style="fill:#aa4400"
               points="255.843,221.605 255.843,221.716 365.385,221.716 365.385,221.716 365.531,221.716 366.442,211.509 368.511,188.488 369.597,176.305 255.843,176.305 255.843,204.509 "
               id="polygon2942" />
          </g>
          <g
             style="fill:#aa4400"
             id="g2944"
             transform="matrix(1,0,0,0.89452615,-74.633,-60.997391)">
            <polygon
               id="polygon2946"
               points="404.321,470.819 255.778,512 107.644,470.877 74.633,100.62 437.367,100.62 "
               style="fill:#aa4400" />
            <polygon
               id="polygon2948"
               points="256,130.894 256,480.523 376.03,447.246 404.27,130.894 "
               style="fill:#aa4400" />
            <polygon
               id="polygon2950"
               points="256,221.716 256,176.305 255.843,176.305 142.132,176.305 143.219,188.488 154.38,313.627 256,313.627 256,268.217 195.91,268.217 191.76,221.716 "
               style="fill:#aa4400" />
            <polygon
               id="polygon2952"
               points="255.791,433.457 256,433.399 256,386.153 255.801,386.206 205.227,372.55 201.994,336.333 177.419,336.333 156.409,336.333 162.771,407.634 "
               style="fill:#aa4400" />
            <polygon
               id="polygon2954"
               points="349.162,268.217 255.843,268.217 255.843,313.627 311.761,313.627 306.49,372.521 255.843,386.191 255.843,433.435 348.937,407.634 349.62,399.962 360.291,280.411 361.399,268.217 "
               style="fill:#aa4400" />
            <polygon
               id="polygon2956"
               points="255.843,221.716 365.385,221.716 365.385,221.716 365.531,221.716 366.442,211.509 368.511,188.488 369.597,176.305 255.843,176.305 255.843,204.509 255.843,221.605 "
               style="fill:#aa4400" />
          </g>
          <g
             style="fill:#aa4400"
             transform="matrix(1,0,0,0.89452615,-74.633,-62.997391)"
             id="g2958">
            <polygon
               style="fill:#aa4400"
               points="255.778,512 107.644,470.877 74.633,100.62 437.367,100.62 404.321,470.819 "
               id="polygon2960" />
            <polygon
               style="fill:#aa4400"
               points="256,480.523 376.03,447.246 404.27,130.894 256,130.894 "
               id="polygon2962" />
            <polygon
               style="fill:#aa4400"
               points="256,176.305 255.843,176.305 142.132,176.305 143.219,188.488 154.38,313.627 256,313.627 256,268.217 195.91,268.217 191.76,221.716 256,221.716 "
               id="polygon2964" />
            <polygon
               style="fill:#aa4400"
               points="256,433.399 256,386.153 255.801,386.206 205.227,372.55 201.994,336.333 177.419,336.333 156.409,336.333 162.771,407.634 255.791,433.457 "
               id="polygon2966" />
            <polygon
               style="fill:#aa4400"
               points="255.843,268.217 255.843,313.627 311.761,313.627 306.49,372.521 255.843,386.191 255.843,433.435 348.937,407.634 349.62,399.962 360.291,280.411 361.399,268.217 349.162,268.217 "
               id="polygon2968" />
            <polygon
               style="fill:#aa4400"
               points="365.385,221.716 365.385,221.716 365.531,221.716 366.442,211.509 368.511,188.488 369.597,176.305 255.843,176.305 255.843,204.509 255.843,221.605 255.843,221.716 "
               id="polygon2970" />
          </g>
          <g
             style="fill:#aa4400"
             id="g2972"
             transform="matrix(1,0,0,0.89452615,-74.633,-64.997391)">
            <polygon
               id="polygon2974"
               points="107.644,470.877 74.633,100.62 437.367,100.62 404.321,470.819 255.778,512 "
               style="fill:#aa4400" />
            <polygon
               id="polygon2976"
               points="376.03,447.246 404.27,130.894 256,130.894 256,480.523 "
               style="fill:#aa4400" />
            <polygon
               id="polygon2978"
               points="255.843,176.305 142.132,176.305 143.219,188.488 154.38,313.627 256,313.627 256,268.217 195.91,268.217 191.76,221.716 256,221.716 256,176.305 "
               style="fill:#aa4400" />
            <polygon
               id="polygon2980"
               points="256,386.153 255.801,386.206 205.227,372.55 201.994,336.333 177.419,336.333 156.409,336.333 162.771,407.634 255.791,433.457 256,433.399 "
               style="fill:#aa4400" />
            <polygon
               id="polygon2982"
               points="255.843,313.627 311.761,313.627 306.49,372.521 255.843,386.191 255.843,433.435 348.937,407.634 349.62,399.962 360.291,280.411 361.399,268.217 349.162,268.217 255.843,268.217 "
               style="fill:#aa4400" />
            <polygon
               id="polygon2984"
               points="365.385,221.716 365.531,221.716 366.442,211.509 368.511,188.488 369.597,176.305 255.843,176.305 255.843,204.509 255.843,221.605 255.843,221.716 365.385,221.716 "
               style="fill:#aa4400" />
          </g>
          <g
             style="fill:#aa4400"
             transform="matrix(1,0,0,0.89452615,-74.633,-64.997391)"
             id="g2986">
            <polygon
               style="fill:#aa4400"
               points="107.644,470.877 74.633,100.62 437.367,100.62 404.321,470.819 255.778,512 "
               id="polygon2988" />
            <polygon
               style="fill:#aa4400"
               points="376.03,447.246 404.27,130.894 256,130.894 256,480.523 "
               id="polygon2990" />
            <polygon
               style="fill:#aa4400"
               points="255.843,176.305 142.132,176.305 143.219,188.488 154.38,313.627 256,313.627 256,268.217 195.91,268.217 191.76,221.716 256,221.716 256,176.305 "
               id="polygon2992" />
            <polygon
               style="fill:#aa4400"
               points="256,386.153 255.801,386.206 205.227,372.55 201.994,336.333 177.419,336.333 156.409,336.333 162.771,407.634 255.791,433.457 256,433.399 "
               id="polygon2994" />
            <polygon
               style="fill:#aa4400"
               points="255.843,313.627 311.761,313.627 306.49,372.521 255.843,386.191 255.843,433.435 348.937,407.634 349.62,399.962 360.291,280.411 361.399,268.217 349.162,268.217 255.843,268.217 "
               id="polygon2996" />
            <polygon
               style="fill:#aa4400"
               points="365.385,221.716 365.531,221.716 366.442,211.509 368.511,188.488 369.597,176.305 255.843,176.305 255.843,204.509 255.843,221.605 255.843,221.716 365.385,221.716 "
               id="polygon2998" />
          </g>
          <g
             style="fill:#aa4400"
             id="g3000"
             transform="matrix(1,0,0,0.89452615,-74.633,-66.997391)">
            <polygon
               id="polygon3002"
               points="74.633,100.62 437.367,100.62 404.321,470.819 255.778,512 107.644,470.877 "
               style="fill:#aa4400" />
            <polygon
               id="polygon3004"
               points="404.27,130.894 256,130.894 256,480.523 376.03,447.246 "
               style="fill:#aa4400" />
            <polygon
               id="polygon3006"
               points="142.132,176.305 143.219,188.488 154.38,313.627 256,313.627 256,268.217 195.91,268.217 191.76,221.716 256,221.716 256,176.305 255.843,176.305 "
               style="fill:#aa4400" />
            <polygon
               id="polygon3008"
               points="255.801,386.206 205.227,372.55 201.994,336.333 177.419,336.333 156.409,336.333 162.771,407.634 255.791,433.457 256,433.399 256,386.153 "
               style="fill:#aa4400" />
            <polygon
               id="polygon3010"
               points="311.761,313.627 306.49,372.521 255.843,386.191 255.843,433.435 348.937,407.634 349.62,399.962 360.291,280.411 361.399,268.217 349.162,268.217 255.843,268.217 255.843,313.627 "
               style="fill:#aa4400" />
            <polygon
               id="polygon3012"
               points="365.531,221.716 366.442,211.509 368.511,188.488 369.597,176.305 255.843,176.305 255.843,204.509 255.843,221.605 255.843,221.716 365.385,221.716 365.385,221.716 "
               style="fill:#aa4400" />
          </g>
          <g
             style="fill:#aa4400"
             transform="matrix(1,0,0,0.89452615,-74.633,-68.997391)"
             id="g3014">
            <polygon
               style="fill:#aa4400"
               points="437.367,100.62 404.321,470.819 255.778,512 107.644,470.877 74.633,100.62 "
               id="polygon3016" />
            <polygon
               style="fill:#aa4400"
               points="256,130.894 256,480.523 376.03,447.246 404.27,130.894 "
               id="polygon3018" />
            <polygon
               style="fill:#aa4400"
               points="143.219,188.488 154.38,313.627 256,313.627 256,268.217 195.91,268.217 191.76,221.716 256,221.716 256,176.305 255.843,176.305 142.132,176.305 "
               id="polygon3020" />
            <polygon
               style="fill:#aa4400"
               points="205.227,372.55 201.994,336.333 177.419,336.333 156.409,336.333 162.771,407.634 255.791,433.457 256,433.399 256,386.153 255.801,386.206 "
               id="polygon3022" />
            <polygon
               style="fill:#aa4400"
               points="306.49,372.521 255.843,386.191 255.843,433.435 348.937,407.634 349.62,399.962 360.291,280.411 361.399,268.217 349.162,268.217 255.843,268.217 255.843,313.627 311.761,313.627 "
               id="polygon3024" />
            <polygon
               style="fill:#aa4400"
               points="366.442,211.509 368.511,188.488 369.597,176.305 255.843,176.305 255.843,204.509 255.843,221.605 255.843,221.716 365.385,221.716 365.385,221.716 365.531,221.716 "
               id="polygon3026" />
          </g>
          <g
             style="fill:#aa4400"
             id="g3028"
             transform="matrix(1,0,0,0.89452615,-74.633,-70.997391)">
            <polygon
               id="polygon3030"
               points="404.321,470.819 255.778,512 107.644,470.877 74.633,100.62 437.367,100.62 "
               style="fill:#aa4400" />
            <polygon
               id="polygon3032"
               points="256,480.523 376.03,447.246 404.27,130.894 256,130.894 "
               style="fill:#aa4400" />
            <polygon
               id="polygon3034"
               points="154.38,313.627 256,313.627 256,268.217 195.91,268.217 191.76,221.716 256,221.716 256,176.305 255.843,176.305 142.132,176.305 143.219,188.488 "
               style="fill:#aa4400" />
            <polygon
               id="polygon3036"
               points="201.994,336.333 177.419,336.333 156.409,336.333 162.771,407.634 255.791,433.457 256,433.399 256,386.153 255.801,386.206 205.227,372.55 "
               style="fill:#aa4400" />
            <polygon
               id="polygon3038"
               points="255.843,386.191 255.843,433.435 348.937,407.634 349.62,399.962 360.291,280.411 361.399,268.217 349.162,268.217 255.843,268.217 255.843,313.627 311.761,313.627 306.49,372.521 "
               style="fill:#aa4400" />
            <polygon
               id="polygon3040"
               points="368.511,188.488 369.597,176.305 255.843,176.305 255.843,204.509 255.843,221.605 255.843,221.716 365.385,221.716 365.385,221.716 365.531,221.716 366.442,211.509 "
               style="fill:#aa4400" />
          </g>
          <g
             style="fill:#aa4400"
             transform="matrix(1,0,0,0.89452615,-74.633,-72.997391)"
             id="g3042">
            <polygon
               style="fill:#aa4400"
               points="255.778,512 107.644,470.877 74.633,100.62 437.367,100.62 404.321,470.819 "
               id="polygon3044" />
            <polygon
               style="fill:#aa4400"
               points="376.03,447.246 404.27,130.894 256,130.894 256,480.523 "
               id="polygon3046" />
            <polygon
               style="fill:#aa4400"
               points="256,313.627 256,268.217 195.91,268.217 191.76,221.716 256,221.716 256,176.305 255.843,176.305 142.132,176.305 143.219,188.488 154.38,313.627 "
               id="polygon3048" />
            <polygon
               style="fill:#aa4400"
               points="177.419,336.333 156.409,336.333 162.771,407.634 255.791,433.457 256,433.399 256,386.153 255.801,386.206 205.227,372.55 201.994,336.333 "
               id="polygon3050" />
            <polygon
               style="fill:#aa4400"
               points="255.843,433.435 348.937,407.634 349.62,399.962 360.291,280.411 361.399,268.217 349.162,268.217 255.843,268.217 255.843,313.627 311.761,313.627 306.49,372.521 255.843,386.191 "
               id="polygon3052" />
            <polygon
               style="fill:#aa4400"
               points="369.597,176.305 255.843,176.305 255.843,204.509 255.843,221.605 255.843,221.716 365.385,221.716 365.385,221.716 365.531,221.716 366.442,211.509 368.511,188.488 "
               id="polygon3054" />
          </g>
          <g
             style="fill:#aa4400"
             id="g3056"
             transform="matrix(1,0,0,0.89452615,-74.633,-72.997391)">
            <polygon
               id="polygon3058"
               points="255.778,512 107.644,470.877 74.633,100.62 437.367,100.62 404.321,470.819 "
               style="fill:#aa4400" />
            <polygon
               id="polygon3060"
               points="376.03,447.246 404.27,130.894 256,130.894 256,480.523 "
               style="fill:#aa4400" />
            <polygon
               id="polygon3062"
               points="256,313.627 256,268.217 195.91,268.217 191.76,221.716 256,221.716 256,176.305 255.843,176.305 142.132,176.305 143.219,188.488 154.38,313.627 "
               style="fill:#aa4400" />
            <polygon
               id="polygon3064"
               points="177.419,336.333 156.409,336.333 162.771,407.634 255.791,433.457 256,433.399 256,386.153 255.801,386.206 205.227,372.55 201.994,336.333 "
               style="fill:#aa4400" />
            <polygon
               id="polygon3066"
               points="255.843,433.435 348.937,407.634 349.62,399.962 360.291,280.411 361.399,268.217 349.162,268.217 255.843,268.217 255.843,313.627 311.761,313.627 306.49,372.521 255.843,386.191 "
               style="fill:#aa4400" />
            <polygon
               id="polygon3068"
               points="369.597,176.305 255.843,176.305 255.843,204.509 255.843,221.605 255.843,221.716 365.385,221.716 365.385,221.716 365.531,221.716 366.442,211.509 368.511,188.488 "
               style="fill:#aa4400" />
          </g>
        </g>
        <g
           id="g3070"
           transform="matrix(1,0,0,0.89452615,-74.633,-72.997389)">
          <g
             id="g3084">
            <polygon
               style="fill:#e44d26"
               points="255.778,512 107.644,470.877 74.633,100.62 437.367,100.62 404.321,470.819 "
               id="polygon3072" />
          </g>
          <polygon
             id="polygon3074"
             points="404.27,130.894 256,130.894 256,480.523 376.03,447.246 "
             style="fill:#f16529" />
          <polygon
             id="polygon3076"
             points="256,176.305 255.843,176.305 142.132,176.305 143.219,188.488 154.38,313.627 256,313.627 256,268.217 195.91,268.217 191.76,221.716 256,221.716 "
             style="fill:#ebebeb" />
          <polygon
             id="polygon3078"
             points="205.227,372.55 201.994,336.333 177.419,336.333 156.409,336.333 162.771,407.634 255.791,433.457 256,433.399 256,386.153 255.801,386.206 "
             style="fill:#ebebeb" />
          <polygon
             id="polygon3080"
             points="360.291,280.411 361.399,268.217 349.162,268.217 255.843,268.217 255.843,313.627 311.761,313.627 306.49,372.521 255.843,386.191 255.843,433.435 348.937,407.634 349.62,399.962 "
             style="fill:#ffffff" />
          <polygon
             id="polygon3082"
             points="365.385,221.716 365.385,221.716 365.531,221.716 366.442,211.509 368.511,188.488 369.597,176.305 255.843,176.305 255.843,204.509 255.843,221.605 255.843,221.716 "
             style="fill:#ffffff" />
        </g>
      </g>
    </g>
  </g>
</svg>
