<?xml version="1.0" encoding="UTF-8" standalone="no"?>
<svg
   xmlns:dc="http://purl.org/dc/elements/1.1/"
   xmlns:cc="http://creativecommons.org/ns#"
   xmlns:rdf="http://www.w3.org/1999/02/22-rdf-syntax-ns#"
   xmlns:svg="http://www.w3.org/2000/svg"
   xmlns="http://www.w3.org/2000/svg"
   viewBox="0 0 175 175"
   height="175"
   width="175"
   version="1.1"
   id="svg4190">
  <metadata
     id="metadata4196">
    <rdf:RDF>
      <cc:Work
         rdf:about="">
        <dc:format>image/svg+xml</dc:format>
        <dc:type
           rdf:resource="http://purl.org/dc/dcmitype/StillImage" />
        <dc:title></dc:title>
      </cc:Work>
    </rdf:RDF>
  </metadata>
  <defs
     id="defs4194" />
  <g
     id="g4200">
    <path
       id="path4216"
       d="M 0,87.5 0,0 87.5,0 175,0 175,87.5 175,175 87.5,175 0,175 0,87.5 Z"
       style="fill:#fdfdfd" />
    <path
       id="path4214"
       d="M 0,87.5 0,0 87.5,0 175,0 175,87.5 175,175 87.5,175 0,175 0,87.5 Z m 129.15767,56.69455 c 1.70669,-1.27575 3.77408,-3.38383 4.59418,-4.68461 1.34619,-2.13519 1.20595,-2.27067 -1.44288,-1.39384 -4.81938,1.59534 -15.30068,2.04701 -17.26499,0.74402 -1.1465,-0.76051 -1.75949,-3.00816 -1.6397,-6.01222 0.33537,-8.40994 9.77919,-34.303693 19.50234,-53.4729 2.84249,-5.603969 3.82495,-9.283071 3.88629,-14.553169 C 136.89526,56.027561 134.27021,52.5 127.62356,52.5 c -3.96592,0 -5.58186,1.1354 -13.86876,9.744564 -5.15889,5.35951 -12.99022,15.483468 -17.402946,22.497686 -4.412732,7.014217 -8.259311,12.51696 -8.547955,12.228315 -0.759818,-0.759816 9.016367,-23.318269 15.444901,-35.638964 5.9279,-11.36119 6.50659,-14.511535 3.67243,-19.9922 -2.47008,-4.776604 -5.23433,-5.574402 -9.893164,-2.855294 -4.77328,2.785904 -20.272792,20.557718 -27.246215,31.240638 -2.818216,4.317359 -5.386665,7.587107 -5.707665,7.266107 -0.321,-0.321 1.789799,-7.705683 4.690663,-16.410409 4.397258,-13.195009 5.17833,-16.984039 4.697163,-22.78627 -0.438223,-5.284392 -1.258518,-7.511247 -3.408053,-9.251834 -7.490624,-6.06554 -20.556675,0.611613 -27.241459,13.921222 -4.335255,8.631627 -4.820904,11.283703 -2.76852,15.118615 1.817359,3.395768 3.519861,3.007095 4.46649,-1.019676 2.468676,-10.501271 14.249821,-25.988795 19.048312,-25.040963 4.390386,0.867222 1.547607,17.815209 -5.661555,33.752878 -2.57506,5.692821 -5.083162,10.639719 -5.573558,10.993104 -0.490398,0.353385 -3.832495,7.947135 -7.426885,16.875 -7.259515,18.031431 -9.015473,27.707981 -5.549951,30.584101 3.311198,2.74806 5.893077,0.16513 9.482162,-9.486 C 53.009642,102.99876 53.204008,102.65396 68.130846,80 82.162761,58.704233 87.804814,51.471326 94.592444,46.077198 c 8.443516,-6.710065 8.889386,-3.458734 1.48399,10.821402 -2.845463,5.48702 -7.86369,15.195221 -11.151618,21.573781 -7.622587,14.78777 -11.045632,28.223739 -8.528486,33.475579 2.38389,4.97383 5.674589,5.38443 7.64204,0.95355 2.759379,-6.21437 13.484619,-22.963019 22.19826,-34.665037 10.56565,-14.189173 17.85356,-21.35307 20.63637,-20.285205 2.6024,0.998632 2.00001,3.097902 -5.11488,17.824923 -5.68447,11.766212 -6.33816,13.634348 -4.33846,12.398461 1.50569,-0.93057 0.0239,4.233935 -3.68519,12.843748 -2.06952,4.80397 -3.17845,6.18837 -4.00509,5 -0.77295,-1.11121 -0.89281,-0.75106 -0.37011,1.11212 0.44277,1.57827 -0.0244,3.98146 -1.09339,5.625 -2.69264,4.13973 -3.753,14.5433 -2.10578,20.66062 0.77423,2.87525 3.35731,7.29493 5.7402,9.82153 3.90445,4.13992 4.81773,4.52873 9.24341,3.93512 2.70099,-0.36228 6.30728,-1.70249 8.01396,-2.97824 z M 112.46172,99.375 c 0,-0.6875 -0.54527,-0.40625 -1.21172,0.625 -0.66645,1.03125 -1.21172,2.4375 -1.21172,3.125 0,0.6875 0.54527,0.40625 1.21172,-0.625 0.66645,-1.03125 1.21172,-2.4375 1.21172,-3.125 z"
       style="fill:#d0f5ee" />
    <path
       id="path4212"
       d="M 0,87.5 0,0 87.5,0 175,0 175,87.5 175,175 87.5,175 0,175 0,87.5 Z m 129.37865,56.98756 c 1.66836,-1.09316 3.67951,-3.19486 4.46922,-4.67045 1.31903,-2.46461 1.19548,-2.60961 -1.51851,-1.78235 -6.28703,1.91639 -14.81369,2.28435 -16.6979,0.7206 -4.99851,-4.1484 1.33582,-25.66773 17.23032,-58.535839 5.07568,-10.495987 5.88708,-19.573794 2.17036,-24.282021 -7.55129,-9.565756 -21.69619,1.076748 -39.313942,29.579469 C 91.644456,92.107636 88.153784,97.5 87.961146,97.5 c -1.300199,0 11.317647,-29.045083 16.964664,-39.051049 4.24719,-7.525608 4.73674,-11.808426 1.9629,-17.17244 -2.35596,-4.55593 -6.12727,-5.812948 -9.941661,-3.313665 -4.653343,3.048986 -19.316304,19.797915 -26.561777,30.340481 -3.6494,5.310079 -6.635272,9.282524 -6.635272,8.827654 0,-0.45487 2.338149,-7.729798 5.195887,-16.166508 5.962239,-17.60192 6.655648,-25.380622 2.732821,-30.6569 -4.628443,-6.225345 -16.403025,-4.421673 -23.718482,3.63328 -3.652926,4.022188 -9.213963,14.864725 -9.193157,17.924201 0.06079,8.939254 5.366979,11.552144 6.687645,3.29315 0.903876,-5.65253 9.388876,-18.949164 14.034472,-21.993075 1.767032,-1.157804 4.011092,-1.798759 4.986799,-1.424344 2.021141,0.775585 2.317933,5.415854 0.630303,9.854656 -0.629042,1.654505 -1.41874,4.753278 -1.754887,6.886162 -1.020848,6.477386 -3.485278,12.833198 -4.687822,12.089986 -0.624219,-0.385789 -0.799955,0.171531 -0.390525,1.238489 0.410481,1.069697 0.0906,1.939922 -0.713089,1.939922 -0.801629,0 -1.112616,0.558045 -0.691084,1.2401 0.421534,0.682055 0.190585,2.22893 -0.513217,3.4375 -0.703804,1.20857 -1.321774,1.6349 -1.373268,0.9474 -0.142792,-1.90645 -13.459552,31.3528 -16.400265,40.96045 -2.438897,7.96816 -2.46839,8.64541 -0.506856,11.63909 3.744755,5.71522 6.750856,3.63427 10.790211,-7.46944 C 54.540257,98.905839 81.186322,58.547225 92.898106,47.8125 104.92521,36.788758 103.96712,42.537887 89.275394,69.5509 81.238436,84.328091 75,100.81874 75,107.2864 c 0,3.88952 3.111915,8.9636 5.497348,8.9636 0.883073,0 5.040826,-5.83893 9.239451,-12.9754 C 102.15602,82.165463 121.85445,57.5 126.2935,57.5 c 2.41789,0 1.10895,7.049889 -2.62372,14.131222 -4.52689,8.588034 -14.93491,33.142488 -14.88478,35.115928 0.0477,1.8758 7.36074,-14.391775 7.52868,-16.74715 0.0801,-1.122857 0.37165,-1.293081 0.72689,-0.424346 0.73175,1.789485 -7.17625,20.488036 -8.35636,19.758686 -0.96104,-0.59396 -3.6879,11.87271 -3.67724,16.81164 0.0135,6.26843 2.80025,13.16123 7.03178,17.39277 3.81679,3.8168 4.82467,4.20815 9.29378,3.60871 2.75699,-0.36978 6.37774,-1.56675 8.04612,-2.6599 z"
       style="fill:#b3efe4" />
    <path
       id="path4210"
       d="M 0,87.5 0,0 87.5,0 175,0 175,87.5 175,175 87.5,175 0,175 0,87.5 Z m 128.35772,57.56221 c 2.1905,-1.33564 4.64227,-3.6608 5.44837,-5.16701 1.38481,-2.58754 1.26856,-2.6891 -2.10773,-1.84123 -12.94374,3.25052 -17.94836,1.88188 -17.94836,-4.90842 0,-6.61465 5.68536,-23.18345 15.13254,-44.100664 9.12686,-20.207986 10.3089,-25.898147 6.79252,-32.698081 -5.93167,-11.470594 -21.88664,-0.143381 -39.382201,27.959351 -3.672614,5.899239 -6.906435,10.496934 -7.18627,10.217099 -0.746493,-0.746491 12.024371,-29.181706 16.128621,-35.911504 4.50323,-7.384003 4.72724,-14.562782 0.60401,-19.356322 -2.27927,-2.649814 -3.60472,-3.209814 -6.109334,-2.581195 C 95.551306,37.722991 79.892774,54.438316 70.691844,67.672051 66.69469,73.421172 63.705248,77.28125 64.048637,76.25 70.820153,55.914184 75,42.083504 75,40.013081 75,36.631696 71.57661,28.4818 69.639016,27.250447 67.548335,25.921809 60.791012,26.011135 57.095237,27.416266 51.715361,29.461691 45.199194,36.212711 41.925489,43.132754 38.389722,50.60675 37.905657,55.867469 40.43537,59.327058 42.432261,62.057968 45,60.911331 45,57.2887 c 0,-4.168321 7.496577,-16.994701 12.658426,-21.658123 8.114774,-7.33121 10.653805,-3.55131 6.372088,9.486235 -1.220718,3.717003 -2.261343,7.461313 -2.3125,8.320688 -0.214473,3.602834 -0.542229,4.164175 -1.930438,3.306215 -0.983317,-0.607724 -1.200927,-0.222379 -0.664231,1.176229 0.904884,2.358089 -0.175915,6.099617 -1.521707,5.267872 -1.214286,-0.75047 -19.80065,46.194774 -20.79943,52.534974 -0.618039,3.92328 -0.306274,5.59457 1.353172,7.25402 4.173735,4.17374 6.798209,2.09914 10.881745,-8.60181 4.080347,-10.69259 24.550928,-43.767363 35.265922,-56.979934 6.751823,-8.325615 15.198601,-15.810085 16.440863,-14.567821 1.32511,1.325105 -1.773415,8.651681 -9.923914,23.465486 -14.00826,25.460483 -18.865398,42.020289 -13.92585,47.478429 2.504375,2.7673 6.855854,3.33798 6.855854,0.89911 0,-3.85409 24.07206,-39.493355 33.33803,-49.35777 10.54965,-11.230994 13.59412,-7.833235 6.18814,6.906205 -15.81327,31.471675 -21.13882,52.258615 -16.33486,63.758945 4.56713,10.93336 12.71559,14.38984 21.41642,9.08456 z M 111.33859,103.125 c 0,-0.6875 0.80388,-2.65625 1.78641,-4.375 0.98253,-1.71875 1.78641,-2.5625 1.78641,-1.875 0,0.6875 -0.80388,2.65625 -1.78641,4.375 -0.98253,1.71875 -1.78641,2.5625 -1.78641,1.875 z m 3.76841,-8.75 c 0.13016,-2.367779 2.21345,-6.354811 2.286,-4.375 0.0378,1.03125 -0.47656,2.71875 -1.143,3.75 -0.66645,1.03125 -1.1808,1.3125 -1.143,0.625 z"
       style="fill:#90e8d6" />
    <path
       id="path4208"
       d="M 0,87.5 0,0 87.5,0 175,0 175,87.5 175,175 87.5,175 0,175 0,87.5 Z m 131.97984,54.89057 c 1.9046,-1.98797 3.11529,-3.96211 2.69041,-4.38698 -0.42486,-0.42486 -3.62193,-0.0422 -7.10457,0.85037 -8.47254,2.17145 -13.05112,0.65101 -13.55571,-4.50152 -0.66661,-6.80699 7.60198,-30.04718 20.22744,-56.85244 4.42193,-9.388242 4.50148,-18.874747 0.1944,-23.181819 C 132.74431,52.630681 130.4387,51.25 129.30822,51.25 121.95514,51.25 110.9668,61.752268 97.943404,81.227387 93.574531,87.760577 90,92.713566 90,92.234027 c 0,-1.694382 10.23998,-24.212935 14.4661,-31.812133 5.07794,-9.130909 5.62524,-15.879517 1.69317,-20.87832 C 103.1944,35.774348 99.988349,35.380971 95.610741,38.249289 91.935765,40.657226 77.306479,57.767381 70.156836,68.019729 67.320576,72.086829 65,75.004232 65,74.502846 c 0,-0.501385 2.25,-7.523035 5,-15.603663 2.75,-8.08063 5,-16.39847 5,-18.484089 C 75,29.591359 68.881604,23.858433 59.908709,26.274582 46.667691,29.840018 34.265905,50.889811 40.43537,59.327058 c 1.885493,2.578563 4.558128,1.651063 4.576841,-1.588329 C 45.055455,50.253274 57.898556,32.5 63.270453,32.5 c 3.843541,0 3.824782,2.077026 -0.123613,13.685771 -1.706735,5.018009 -2.744824,9.703443 -2.306865,10.412076 0.495697,0.802054 0.17133,0.902178 -0.859269,0.265233 -1.240795,-0.766854 -1.42921,-0.433335 -0.75207,1.331263 0.496919,1.294951 0.477847,1.928812 -0.04239,1.408582 C 58.156425,58.573093 38.046,108.00748 36.738364,114.78316 c -1.169073,6.05769 1.194658,10.48094 5.336586,9.98635 2.886922,-0.34473 3.878698,-1.8141 7.859654,-11.64451 4.709689,-11.62992 19.972905,-36.460319 32.892983,-53.51074 6.766459,-8.929589 16.716837,-17.986502 18.167313,-16.536031 0.94576,0.945762 -4.123909,11.901435 -12.28159,26.540801 -11.780226,21.140206 -16.472675,39.01006 -11.644575,44.34504 2.751939,3.04086 6.317881,2.90005 7.33019,-0.28945 2.487912,-7.83872 22.682445,-37.08584 32.961495,-47.73712 8.03934,-8.330464 10.77569,-9.233474 9.46956,-3.125 -0.47777,2.234375 -1.29989,4.625 -1.82697,5.3125 -0.52706,0.6875 -4.39969,9.037714 -8.60584,18.55603 -11.77169,26.63879 -14.19487,41.38523 -8.55351,52.05319 5.45929,10.32369 16.19093,11.9494 24.13618,3.65635 z"
       style="fill:#75e2ca" />
    <path
       id="path4206"
       d="M 0,87.5 0,0 87.5,0 175,0 175,87.5 175,175 87.5,175 0,175 0,87.5 Z m 124.43374,60 c 2.46112,0 10.56626,-7.39326 10.56626,-9.63822 0,-1.22292 -0.71106,-1.60639 -2.03594,-1.09799 -11.03633,4.23503 -19.21406,3.29102 -19.21406,-2.21802 0,-5.59755 6.33052,-24.91349 13.34411,-40.716129 12.65203,-28.506826 13.37905,-32.21273 7.72874,-39.395941 -2.8451,-3.616949 -6.95789,-4.083026 -12.18363,-1.380694 -5.18897,2.683321 -17.25396,16.259316 -24.270752,27.3104 -10.41074,16.396371 -8.82731,10.513963 4.394972,-16.32724 l 7.55609,-15.338834 -2.1158,-5.540152 C 105.96819,37.303499 103.13568,35.505704 98.128511,36.762424 94.780436,37.602738 78.710755,55.368252 70.325038,67.5 67.236144,71.96875 64.982978,74.78125 65.318001,73.75 76.099585,40.562737 76.328996,39.350439 73.230823,31.935466 69.880631,23.91733 62.806524,23.195104 52.380946,29.806809 42.456339,36.100809 34.941474,55.283092 40.570244,59.954556 42.688835,61.712831 45,60.67941 45,57.973822 45,50.900475 58.394799,32.092985 62.966991,32.746567 c 4.41706,0.631408 2.844285,6.845088 -9.421648,37.222822 C 35.935906,113.5808 33.992756,120.32054 38.056198,123.6929 c 0.993408,0.82445 3.082482,1.3152 4.642386,1.09056 2.274181,-0.32752 3.622226,-2.42822 6.802941,-10.6012 4.02507,-10.34258 20.959284,-37.92659 33.571344,-54.68409 7.091791,-9.422781 14.68494,-16.287234 17.118801,-15.475948 0.77629,0.258767 -3.246315,9.364129 -9.303086,21.05796 C 78.942586,88.144366 75,98.505529 75,106.83557 c 0,5.99419 3.431183,11.22401 6.534149,9.95936 0.874967,-0.3566 4.122101,-5.23776 7.215851,-10.84701 C 99.443326,86.55994 121.38829,58.75 125.99412,58.75 c 2.29925,0 0.96399,5.913919 -2.90039,12.845876 -4.66315,8.364795 -14.42615,32.119874 -16.29728,39.654124 -2.69933,10.8691 -2.27403,22.20229 1.05545,28.125 2.86492,5.09632 10.12331,9.915 13.18783,8.75509 0.91561,-0.34655 2.44291,-0.63009 3.39401,-0.63009 z"
       style="fill:#67ddc1" />
    <path
       id="path4204"
       d="M 0,87.5 0,0 87.5,0 175,0 175,87.5 175,175 87.5,175 0,175 0,87.5 Z m 129.64455,57.16521 c 3.63417,-2.46766 6.35805,-6.57927 5.1554,-7.78192 -0.23558,-0.23558 -3.46529,0.35946 -7.17713,1.3223 -9.16246,2.37671 -13.30302,0.56261 -13.12745,-5.75154 0.19449,-6.99471 5.25793,-21.75081 14.45133,-42.114675 C 139.16227,67.711348 140.24126,62.499949 136.00471,56.25 130.7356,48.476783 124.42126,49.805546 113.42012,61.002601 109.57135,64.91992 103.00857,73.152331 98.836175,79.296849 94.663779,85.441365 91.25,90.106029 91.25,89.662769 c 0,-1.686909 10.7018,-24.316598 14.32338,-30.287769 6.51401,-10.740136 3.96259,-23.125 -4.76401,-23.125 -3.186159,0 -5.398398,1.556201 -12.043733,8.472177 -7.256895,7.552443 -15.394112,17.615536 -21.486473,26.571781 -1.198283,1.761567 0.0061,-3.259189 2.8125,-11.723729 5.500901,-16.592094 6.060681,-23.28996 2.442437,-29.224183 -2.965765,-4.864102 -7.595075,-6.263141 -13.66031,-4.128327 -7.054492,2.48301 -12.004009,6.856945 -16.227319,14.34024 C 37.082453,50.416861 37.463866,61.25 43.375,61.25 44.26875,61.25 45,60.200576 45,58.917946 45,54.944269 53.65466,39.052458 57.64923,35.691247 61.519107,32.434961 64.338364,31.66818 65.504365,33.554807 66.661535,35.427149 63.792575,43.739561 50.337054,77.5 43.075809,95.71875 36.86307,113.01108 36.530966,115.92741 35.841564,121.98133 37.619655,125 41.875,125 c 3.603239,0 4.57111,-1.34624 8.088089,-11.25 2.731064,-7.69063 18.319366,-33.756833 29.153835,-48.75 6.286775,-8.69989 18.42242,-21.25 20.548222,-21.25 2.199664,0 -0.136741,5.437161 -10.434757,24.283266 C 75.900405,92.42809 71.70917,109.20917 77.5,115 c 1.375,1.375 2.97316,2.5 3.551467,2.5 0.578308,0 4.519325,-5.89437 8.757818,-13.0986 16.746905,-28.464974 40.004665,-55.064324 36.910705,-42.2139 -0.4552,1.890625 -2.23458,6.25 -3.95418,9.6875 -6.6768,13.346964 -15.08034,34.33537 -16.51552,41.24862 -2.16078,10.40841 -1.76716,19.71318 1.06902,25.27022 5.41915,10.61797 12.84983,12.70532 22.32524,6.27137 z"
       style="fill:#62dbbb" />
    <path
       id="path4202"
       d="M 0,87.5 0,0 87.5,0 175,0 175,87.5 175,175 87.5,175 0,175 0,87.5 Z m 130.19636,57.36017 c 3.38369,-2.4094 5.70256,-6.87791 4.29805,-8.28242 -0.40361,-0.40363 -2.16894,-0.08 -3.92295,0.7192 -4.51617,2.05771 -13.6954,1.83856 -15.52897,-0.37075 -2.85522,-3.44034 2.78398,-21.82644 14.7761,-48.1762 6.71844,-14.762123 8.25426,-19.323909 8.27767,-24.586795 0.0459,-10.302816 -5.98275,-15.080631 -14.79906,-11.728674 -4.77548,1.815631 -16.34792,14.25225 -23.488849,25.242886 -3.530254,5.433427 -6.688491,9.609109 -7.018307,9.279294 -0.329815,-0.329816 3.458251,-8.843171 8.417926,-18.918567 7.37348,-14.978959 8.88196,-19.041845 8.27371,-22.284094 -1.18405,-6.311535 -4.07472,-9.50405 -8.60547,-9.50405 -3.316945,0 -5.488717,1.5614 -13.002957,9.348506 -4.961512,5.141679 -11.936993,13.438554 -15.50107,18.4375 -3.564078,4.998947 -6.188998,8.242714 -5.833154,7.208373 C 76.32238,42.806802 77.227511,33.487167 70.747391,27.913202 68.884651,26.310941 65.882052,25 64.074951,25 c -4.17951,0 -12.866841,4.177899 -16.311385,7.844446 -4.108741,4.373555 -9.085348,14.529885 -9.24448,18.866265 -0.377671,10.291668 4.958162,13.294029 7.400104,4.163883 0.790736,-2.956473 3.798371,-8.910535 6.683632,-13.23125 C 61.244771,29.701925 67.865977,29.104661 64.154876,41.601296 63.137845,45.02601 57.786488,58.863613 52.262971,72.351525 35.101993,114.25703 33.499112,120.63992 39.198869,124.37454 c 1.621877,1.0627 3.785464,1.61115 4.807968,1.21877 1.022507,-0.39237 3.635687,-5.39043 5.807069,-11.1068 C 53.696128,104.26621 71.567081,75.020381 83.044542,60.104561 88.877424,52.524295 97.967577,43.75 99.987839,43.75 c 1.587011,0 -3.339344,11.116205 -9.919286,22.382622 -10.590232,18.13298 -16.933058,36.339268 -15.419154,44.258738 0.766815,4.01134 4.646322,7.64637 7.139545,6.68963 1.035131,-0.39722 2.706552,-2.57481 3.71427,-4.8391 4.284296,-9.62659 24.043976,-38.036934 32.596196,-46.866614 10.60949,-10.953697 11.58284,-8.868702 3.72103,7.970714 -14.85123,31.81021 -19.20421,47.04645 -16.77888,58.72921 1.44317,6.95171 5.9331,13.5933 10.48149,15.5044 3.56936,1.49975 10.57016,0.20228 14.67331,-2.71943 z"
       style="fill:#5fd9b6" />
  </g>
</svg>
