<?xml version="1.0" encoding="UTF-8" standalone="no"?>
<svg
   xmlns:dc="http://purl.org/dc/elements/1.1/"
   xmlns:cc="http://creativecommons.org/ns#"
   xmlns:rdf="http://www.w3.org/1999/02/22-rdf-syntax-ns#"
   xmlns:svg="http://www.w3.org/2000/svg"
   xmlns="http://www.w3.org/2000/svg"
   xmlns:xlink="http://www.w3.org/1999/xlink"
   viewBox="0 0 512 512"
   height="512"
   width="512"
   version="1.1"
   id="svg4288">
  <metadata
     id="metadata4294">
    <rdf:RDF>
      <cc:Work
         rdf:about="">
        <dc:format>image/svg+xml</dc:format>
        <dc:type
           rdf:resource="http://purl.org/dc/dcmitype/StillImage" />
        <dc:title></dc:title>
      </cc:Work>
    </rdf:RDF>
  </metadata>
  <defs
     id="defs4292">
    <linearGradient
       id="linearGradient4901">
      <stop
         id="stop4903"
         offset="0"
         style="stop-color:#0098da;stop-opacity:1" />
      <stop
         id="stop4905"
         offset="1"
         style="stop-color:#00296d;stop-opacity:1" />
    </linearGradient>
    <linearGradient
       gradientUnits="userSpaceOnUse"
       y2="39.165653"
       x2="35.330509"
       y1="474.14871"
       x1="472.33051"
       id="linearGradient4907"
       xlink:href="#linearGradient4901" />
  </defs>
  <g
     transform="matrix(1.1154684,0,0,1.1154684,-29.559913,-29.816067)"
     id="g4838">
    <path
       id="path4850"
       d="M 52.929349,484.63882 C 42.652784,481.85405 33.919021,474.32253 29.135165,464.12001 L 26.5,458.5 26.5,256 26.5,53.5 29.160407,47.824854 C 32.885179,39.879218 39.029926,33.60289 46.856395,29.749933 L 53.457945,26.5 256,26.5 l 202.54205,0 6.60156,3.249933 c 7.82646,3.852957 13.97121,10.129285 17.69598,18.074921 L 485.5,53.5 l 0,202 0,202 -2.41263,5.99263 c -3.26213,8.10269 -11.49205,16.33261 -19.59474,19.59474 L 457.5,485.5 l -200,0.18869 c -156.37406,0.14754 -200.996995,-0.0815 -204.570651,-1.04987 z"
       style="fill:url(#linearGradient4907);fill-opacity:1" />
  </g>
  <path
     style="opacity:1;fill:#ffffff;fill-opacity:1;stroke:none;stroke-width:1.24999988"
     id="Selection"
     d="m 217.26901,101.33361 c 0,0 49.42279,0 49.42279,0 0,0 22.46491,0.95651 22.46491,0.95651 20.56661,0.24757 49.18689,7.7309 63.98006,22.55131 20.00499,20.04187 20.72387,48.23102 14.50109,74.22581 -3.88643,16.24955 -9.278,32.17276 -18.66834,46.13792 -19.74666,29.35947 -51.51204,42.36813 -85.64745,45.10264 0,0 -11.23246,1.0353 -11.23246,1.0353 0,0 -32.57411,0 -32.57411,0 -8.71638,0.0113 -15.35477,1.30535 -19.57816,10.12781 -1.68487,3.52225 -3.65055,18.72526 -4.47051,23.63164 0,0 -8.52543,54.01514 -8.52543,54.01514 0,0 -2.89798,18.00503 -2.89798,18.00503 -0.33698,2.10434 -0.48299,5.32273 -2.26895,6.72939 -1.7972,1.4179 -6.06552,1.14782 -8.31202,1.14782 0,0 -53.91575,0 -53.91575,0 -5.75102,-0.11253 -10.12045,-1.32787 -11.06398,-7.87721 -0.57286,-4.00612 1.79719,-15.61937 2.53854,-20.25566 0,0 5.81841,-37.13541 5.81841,-37.13541 0,0 28.63152,-181.17576 28.63152,-181.17576 0,0 5.05461,-31.50884 5.05461,-31.50884 1.98814,-12.87361 0.87612,-22.16871 16.19718,-25.71344 0,0 50.54603,0 50.54603,0 z" />
  <path
     d="m 270.82371,178.33751 c 0,0 42.66213,0 42.66213,0 0,0 19.39188,0.82716 19.39188,0.82716 17.75325,0.21409 42.45851,6.68542 55.22808,19.50161 17.26845,17.33153 17.889,41.70855 12.51745,64.18798 -3.35479,14.05204 -8.00884,27.8219 -16.11465,39.89849 -17.04547,25.38908 -44.46559,36.63853 -73.93154,39.00324 0,0 -9.69595,0.89529 -9.69595,0.89529 0,0 -28.11821,0 -28.11821,0 -7.52406,0.009 -13.25437,1.12883 -16.90002,8.75819 -1.45439,3.04592 -3.15119,16.19297 -3.85899,20.43584 0,0 -7.35921,46.71046 -7.35921,46.71046 0,0 -2.50156,15.57015 -2.50156,15.57015 -0.29088,1.81976 -0.41693,4.60292 -1.95857,5.81934 -1.55136,1.22616 -5.23581,0.99261 -7.17501,0.99261 0,0 -46.54048,0 -46.54048,0 -4.96433,-0.0974 -8.73605,-1.14831 -9.55051,-6.81195 -0.4945,-3.46436 1.55134,-13.50711 2.19128,-17.5164 0,0 5.0225,-32.11346 5.0225,-32.11346 0,0 24.71494,-156.67466 24.71494,-156.67466 0,0 4.36318,-27.24777 4.36318,-27.24777 1.71618,-11.13267 0.75627,-19.17075 13.98153,-22.23612 0,0 43.63173,0 43.63173,0 z"
     id="path4977"
     style="opacity:1;fill:#adcfe4;fill-opacity:1;stroke:none;stroke-width:1.24999988" />
  <path
     id="path5065"
     d="M 227.19141 178.33789 C 213.96615 181.40326 214.92712 189.44155 213.21094 200.57422 L 208.84766 227.82227 L 184.13281 384.49609 L 181.03711 404.28711 C 181.31214 404.1632 181.56233 404.01966 181.77539 403.85156 C 183.56135 402.4449 183.70599 399.22739 184.04297 397.12305 L 186.94141 379.11719 L 195.4668 325.10352 C 196.28676 320.19714 198.25263 304.99295 199.9375 301.4707 C 204.16089 292.64824 210.79925 291.35505 219.51562 291.34375 L 252.08984 291.34375 L 263.32227 290.30859 C 297.45768 287.57408 329.22209 274.56455 348.96875 245.20508 C 358.35909 231.23992 363.75224 215.31596 367.63867 199.06641 C 368.58948 195.09454 369.37438 191.0726 369.95703 187.03516 C 357.98257 181.91863 344.05349 179.29884 332.87695 179.16406 L 313.48633 178.33789 L 270.82422 178.33789 L 227.19141 178.33789 z "
     style="opacity:1;fill:#e6eff6;fill-opacity:1;stroke:none;stroke-width:1.24999988" />
</svg>
