<?xml version="1.0" encoding="UTF-8" standalone="no"?>
<svg
   xmlns:dc="http://purl.org/dc/elements/1.1/"
   xmlns:cc="http://creativecommons.org/ns#"
   xmlns:rdf="http://www.w3.org/1999/02/22-rdf-syntax-ns#"
   xmlns:svg="http://www.w3.org/2000/svg"
   xmlns="http://www.w3.org/2000/svg"
   xmlns:xlink="http://www.w3.org/1999/xlink"
   id="svg4206"
   version="1.1"
   width="512"
   height="512"
   viewBox="0 0 512 512">
  <metadata
     id="metadata4212">
    <rdf:RDF>
      <cc:Work
         rdf:about="">
        <dc:format>image/svg+xml</dc:format>
        <dc:type
           rdf:resource="http://purl.org/dc/dcmitype/StillImage" />
        <dc:title></dc:title>
      </cc:Work>
    </rdf:RDF>
  </metadata>
  <defs
     id="defs4210">
    <linearGradient
       id="linearGradient6289">
      <stop
         id="stop6291"
         offset="0"
         style="stop-color:#32dd00;stop-opacity:1" />
      <stop
         id="stop6293"
         offset="1"
         style="stop-color:#28c101;stop-opacity:1" />
    </linearGradient>
    <linearGradient
       gradientUnits="userSpaceOnUse"
       y2="539.47076"
       x2="284.55814"
       y1="23.811184"
       x1="280.3685"
       id="linearGradient6295"
       xlink:href="#linearGradient6289" />
  </defs>
  <g
     id="g4146">
    <rect
       style="opacity:1;fill:#ffffff;fill-opacity:1;stroke:none"
       id="rect4144"
       width="336.06992"
       height="409.95761"
       x="85.805084"
       y="35.305088" />
    <g
       id="g6279"
       transform="matrix(0.98221461,0,0,0.98221461,-20.247858,-24.093163)">
      <g
         id="g4216">
        <path
           style="fill:#b1e1a5"
           d="M 100.66966,544.87556 C 70.17982,540.36642 43.588185,519.83799 29.442571,489.88906 19.948991,469.78936 20.625,485.78491 20.625,281.25 20.625,109.67602 20.765093,97.612497 22.845965,90 30.051596,63.639495 47.980526,41.672338 71.875,29.927897 92.288103,19.894595 75.849284,20.625 281.25,20.625 c 205.40071,0 188.9619,-0.730405 209.375,9.302897 23.89448,11.744441 41.8234,33.711598 49.02904,60.072103 2.08087,7.612497 2.22096,19.67602 2.22096,191.25 0,204.53491 0.67601,188.53936 -8.81758,208.63906 -9.81155,20.77291 -24.91035,36.62288 -43.63487,45.80571 -21.93462,10.75712 -4.00184,9.86939 -203.79755,10.0886 C 188,545.8905 104.7701,545.48197 100.66966,544.87556 Z M 297.5,446.3673 l 0,-11.1327 6.5625,-0.88844 c 10.26055,-1.38906 27.01127,-6.60733 35.2588,-10.98401 10.12853,-5.37485 23.52232,-18.25321 29.40593,-28.2743 9.02087,-15.36459 13.47456,-37.22508 11.35131,-55.71678 -2.23771,-19.48853 -7.52651,-30.72587 -20.62526,-43.82342 -11.78875,-11.78766 -24.98804,-19.22891 -47.44119,-26.74548 l -13.88709,-4.64893 -0.32581,-54.8133 c -0.1792,-30.14733 0.10737,-55.2465 0.63683,-55.77597 1.76247,-1.76246 20.81055,4.06213 30.21254,9.23849 5.10045,2.80811 13.39038,9.01624 18.42204,13.79584 l 9.14849,8.69016 9.45372,-7.24096 c 5.19955,-3.98254 9.78185,-7.77189 10.1829,-8.4208 0.40105,-0.6489 -4.26805,-6.04454 -10.37577,-11.9903 C 348.79989,141.39865 330.60406,132.03254 306.25,127.14841 l -8.125,-1.62945 -0.36305,-10.25948 L 297.3989,105 285,105 l -12.3989,0 -0.36305,10.3125 -0.36305,10.3125 -7.91506,0.97514 c -11.21038,1.38112 -29.45138,7.51962 -38.79988,13.057 -16.62151,9.8454 -29.88333,27.06032 -34.49957,44.78324 -2.61623,10.04438 -2.55811,34.17311 0.10387,43.14524 4.79548,16.16272 14.24334,28.2895 30.21095,38.77719 9.54315,6.26804 28.78983,14.38644 43.08715,18.1745 l 8.4375,2.2355 0,61.61359 c 0,48.46221 -0.33351,61.61172 -1.5625,61.60484 -0.85937,-0.005 -6.19769,-1.12 -11.86292,-2.4782 -18.92553,-4.53724 -37.07678,-15.73267 -49.33839,-30.43119 -3.53601,-4.23876 -6.85235,-7.57942 -7.36962,-7.42369 -0.51728,0.15573 -5.76198,3.42595 -11.65489,7.26714 -12.45623,8.11938 -12.43764,7.21566 -0.41273,20.07034 17.77004,18.99622 41.30846,30.79133 71.57605,35.86677 l 10,1.67685 0.35941,11.48038 0.3594,11.48036 12.4531,0 12.45309,0 0,-11.1327 z m 0.77258,-37.2614 c -1.24726,-1.24724 -0.89781,-113.88096 0.35572,-114.65569 0.62056,-0.38352 6.38619,1.32245 12.8125,3.79106 27.84464,10.6963 38.1328,21.12493 41.03619,41.59644 3.71644,26.20433 -6.34205,50.43511 -25.44741,61.30255 -8.36679,4.75916 -26.84504,9.8776 -28.757,7.96564 z M 259.09254,253.65694 c -19.69413,-7.08709 -33.67575,-17.9642 -39.24628,-30.53194 -5.58758,-12.60623 -4.14538,-33.87786 3.0703,-45.28535 4.15044,-6.56155 13.17814,-14.58541 20.69673,-18.39538 6.6486,-3.36909 19.60241,-6.89437 25.44921,-6.92579 L 272.5,152.5 l 0,52.5 c 0,41.20475 -0.33616,52.48464 -1.5625,52.42859 -0.85938,-0.0392 -6.18961,-1.73653 -11.84496,-3.77165 z"
           id="path4230" />
        <path
           style="fill:#bcbebc"
           d="M 100.66966,544.87556 C 70.17982,540.36642 43.588185,519.83799 29.442571,489.88906 19.948991,469.78936 20.625,485.78491 20.625,281.25 20.625,109.67602 20.765093,97.612497 22.845965,90 30.051596,63.639495 47.980526,41.672338 71.875,29.927897 92.288103,19.894595 75.849284,20.625 281.25,20.625 c 205.40071,0 188.9619,-0.730405 209.375,9.302897 23.89448,11.744441 41.8234,33.711598 49.02904,60.072103 2.08087,7.612497 2.22096,19.67602 2.22096,191.25 0,204.53491 0.67601,188.53936 -8.81758,208.63906 -9.81155,20.77291 -24.91035,36.62288 -43.63487,45.80571 -21.93462,10.75712 -4.00184,9.86939 -203.79755,10.0886 C 188,545.8905 104.7701,545.48197 100.66966,544.87556 Z M 298.75,446.45664 l 0,-11.04338 7.8125,-1.32433 c 10.29302,-1.74483 14.90563,-2.73904 17.1875,-3.70461 1.03125,-0.43637 2.15625,-0.89057 2.5,-1.00932 12.72014,-4.39437 21.74165,-9.95211 30.58214,-18.84025 14.5681,-14.6466 22.44582,-33.09749 23.97779,-56.15975 1.39964,-21.07071 -5.12522,-42.39477 -17.15347,-56.0596 -10.47376,-11.89881 -29.93485,-23.09886 -53.10869,-30.56459 l -11.17277,-3.59943 -0.32615,-54.26319 c -0.17939,-29.84475 -0.0695,-54.93225 0.24421,-55.74999 0.41419,-1.07966 3.15623,-0.68896 10.01365,1.42679 5.19381,1.60246 9.44329,2.72395 9.44329,2.49217 0,-0.23177 3.42904,1.51679 7.62009,3.88572 4.19103,2.36891 7.87103,4.30712 8.17775,4.30712 0.9468,0 4.05685,2.79457 12.85148,11.54786 l 8.46265,8.42288 10.14648,-7.79788 c 5.58057,-4.28882 10.16788,-8.44015 10.19401,-9.22517 0.0811,-2.43687 -10.74942,-13.5866 -20.25469,-20.85155 C 341.30389,137.1537 314.81303,126.25 302.26457,126.25 l -3.51457,0 0,-10.625 0,-10.625 -13.125,0 -13.125,0 0,9.92341 0,9.92341 -5.9375,0.79677 c -41.31221,5.54377 -70.04559,28.88096 -77.2142,62.7132 -3.76521,17.76997 -1.16799,38.866 6.56189,53.29886 3.76035,7.02116 19.33651,23.34435 22.276,23.34435 0.9976,0 1.81381,0.50324 1.81381,1.11831 0,2.86 41.52515,19.83699 50.10062,20.48296 2.33058,0.17556 2.39938,1.92937 2.39938,61.16473 l 0,60.984 -4.6875,-0.0113 c -7.4869,-0.0179 -27.74276,-7.66948 -37.53305,-14.17805 C 222.09979,389.12295 205,372.40636 205,369.84784 c 0,-0.60382 -0.61644,-1.09784 -1.36985,-1.09784 -1.67378,0 -21.89978,13.21146 -23.03291,15.04491 -1.81568,2.93784 14.44948,20.24824 27.09362,28.8347 7.85111,5.33159 26.39725,14.55072 30.58119,15.20164 1.29412,0.20134 2.91545,0.70553 3.60295,1.12041 1.18147,0.71299 3.77716,1.32414 12.5,2.94308 5.04071,0.93554 17.42219,3.08897 17.8125,3.09802 0.17187,0.004 0.3125,5.06974 0.3125,11.25724 l 0,11.25 13.125,0 13.125,0 0,-11.04336 z m 0,-94.21227 c 0,-31.25523 0.37012,-57.19782 0.82249,-57.6502 0.45237,-0.45236 1.57737,-0.19598 2.5,0.56973 0.92263,0.76571 1.67751,0.97321 1.67751,0.4611 0,-0.51211 0.70312,-0.3966 1.5625,0.2567 0.85937,0.6533 4.375,2.20117 7.8125,3.43974 7.27486,2.62119 20.52194,9.32212 22.8742,11.57075 0.89331,0.85396 2.33821,1.98693 3.21087,2.51774 1.46873,0.89333 10.02202,12.68049 10.22438,14.09007 0.0494,0.34375 0.83702,3.80676 1.75039,7.6956 2.33791,9.95415 1.18363,29.62952 -2.26017,38.52587 -7.40422,19.12729 -23.49672,31.81165 -43.77118,34.50115 l -6.40349,0.84945 0,-56.8277 z m -35.625,-97.75382 c -21.78036,-6.90749 -35.38274,-16.73844 -42.13374,-30.45168 -3.74777,-7.6128 -4.11282,-9.37076 -4.07789,-19.63758 0.0221,-6.49653 0.79428,-13.39568 1.82169,-16.27629 0.98083,-2.75 1.81413,-5.28125 1.85176,-5.625 0.0376,-0.34375 1.87769,-3.24004 4.08898,-6.4362 7.7431,-11.19179 22.12454,-19.72095 37.59332,-22.29538 5.02928,-0.83701 9.39489,-1.27107 9.70138,-0.9646 0.30649,0.30649 0.41037,23.93577 0.23087,52.50949 l -0.32637,51.95225 -8.75,-2.77501 z"
           id="path4228" />
        <path
           style="fill:#87cc75"
           d="M 95.625,538.16666 C 62.975403,530.94276 37.527674,507.90821 26.531239,475.625 l -3.406239,-10 0,-184.375 0,-184.375 3.406239,-10 C 36.407153,57.881395 57.881395,36.407153 86.875,26.531239 l 10,-3.406239 184.375,0 184.375,0 10,3.406239 c 28.9936,9.875914 50.46785,31.350156 60.34376,60.343761 l 3.40624,10 0,184.375 0,184.375 -3.40624,10 c -9.87591,28.9936 -31.35016,50.46785 -60.34376,60.34376 l -10,3.40624 -181.25,0.22554 c -146.69329,0.18254 -182.67993,-0.0909 -188.75,-1.43388 z m 203.125,-91.75562 0,-11.08897 6.5625,-0.85211 c 36.82516,-4.78162 62.82945,-26.22805 72.13349,-59.49037 7.79492,-27.86722 2.30706,-58.37749 -13.78953,-76.66419 -10.47376,-11.89881 -29.9348,-23.09884 -53.10868,-30.5646 l -11.17278,-3.59945 -0.3255,-55.20068 c -0.37545,-63.67039 -2.12022,-57.32305 14.32347,-52.10766 13.14353,4.16869 24.0158,10.83708 34.12952,20.93294 l 8.4158,8.40096 10.11832,-7.77596 c 5.56508,-4.27678 10.13971,-8.41824 10.16585,-9.20326 0.0811,-2.43686 -10.74942,-13.5866 -20.25469,-20.85155 C 341.30389,137.1537 314.81303,126.25 302.26457,126.25 l -3.51457,0 0,-10.625 0,-10.625 -13.125,0 -13.125,0 0,9.92341 0,9.92341 -5.9375,0.79677 c -41.6296,5.58636 -70.02727,28.84043 -77.35713,63.34562 -1.32451,6.23513 -1.74739,12.90618 -1.33189,21.01079 1.86888,36.4541 21.55546,57.27438 68.68902,72.64465 l 15.9375,5.19723 0,60.45406 0,60.45406 -4.6875,-0.0113 c -7.4869,-0.0179 -27.74276,-7.66948 -37.53305,-14.17805 C 222.09979,389.12295 205,372.40636 205,369.84784 c 0,-0.60382 -0.70313,-1.0834 -1.5625,-1.06577 -2.01361,0.0414 -22.51439,13.93537 -23.05039,15.62198 -0.61576,1.93759 12.29458,16.80826 19.50869,22.47095 19.27408,15.1291 37.88375,22.66025 67.9167,27.48521 l 4.6875,0.75308 0,11.19335 0,11.19336 13.125,0 13.125,0 0,-11.08896 z m 0,-94.51051 0,-57.17156 3.41734,0.85771 c 7.99578,2.00681 23.11692,8.59756 30.14057,13.13717 15.20003,9.82425 20.98068,22.97193 19.90383,45.26987 -0.70468,14.59159 -3.2484,22.66999 -10.41469,33.07512 -7.39335,10.73481 -22.09949,19.22445 -36.64356,21.15378 l -6.40349,0.84945 0,-57.17154 z m -35.625,-97.34868 c -22.00683,-7.13348 -35.3984,-16.83156 -42.13374,-30.51298 -3.74066,-7.59836 -4.11444,-9.39023 -4.0963,-19.63758 0.0234,-13.20999 2.51351,-21.31524 9.28453,-30.22064 8.246,-10.84536 23.59313,-18.8872 40.38301,-21.16056 l 5.9375,-0.80395 0,52.64193 c 0,28.95307 -0.14063,52.61677 -0.3125,52.586 -0.17188,-0.0307 -4.25,-1.33226 -9.0625,-2.89222 z"
           id="path4226" />
        <path
           style="fill:#66a157"
           d="M 98.125,538.15325 C 60.026309,531.09464 31.222966,502.07174 24.284612,463.75 22.909069,456.15262 22.583646,421.78515 22.568371,282.5 22.556605,175.21811 23.015997,107.39811 23.790762,102.0386 29.175882,64.786554 54.940236,36.082442 92.572313,25.408961 100.20296,23.244703 110.09153,23.125 281.25,23.125 c 171.15847,0 181.04704,0.1197 188.67769,2.283961 37.63207,10.673481 63.39642,39.377593 68.78155,76.629639 0.77476,5.35951 1.23416,73.17951 1.22238,180.4614 -0.0152,139.28515 -0.3407,173.65262 -1.71623,181.25 -6.99208,38.61848 -35.84692,67.47331 -74.46539,74.46539 -13.44476,2.43424 -352.46181,2.37662 -365.625,-0.0621 z M 298.75,446.25 c 0,-11.21641 0.01,-11.25 3.1777,-11.25 7.86127,0 23.34475,-4.28585 34.19885,-9.46629 20.87539,-9.96341 36.02916,-28.38739 42.07819,-51.15871 3.04307,-11.45558 3.68619,-33.11255 1.31771,-44.375 -6.14373,-29.21443 -28.72299,-49.83115 -68.58495,-62.6237 l -12.1875,-3.91123 0,-54.85753 c 0,-43.05642 0.33612,-54.85604 1.5625,-54.85057 2.58467,0.0113 11.133,2.46028 18.4375,5.2816 10.25222,3.95987 19.64736,10.24335 28.91074,19.33555 l 8.28573,8.13264 10.73639,-8.41101 c 8.5172,-6.67249 10.51034,-8.83058 9.64279,-10.44089 -1.77563,-3.29581 -18.95659,-19.35584 -25.39548,-23.73859 -12.61376,-8.58578 -28.1987,-14.40495 -49.3173,-18.41423 -2.54668,-0.48349 -2.79043,-1.32787 -3.125,-10.82571 L 298.125,104.375 285.3125,104.01877 272.5,103.66254 l 0,10.66873 0,10.66873 -3.4375,0.027 c -13.38189,0.10525 -40.00683,9.91226 -52.49879,19.33724 -18.70799,14.11487 -29.08618,35.96381 -29.04524,61.14816 0.0361,22.18299 6.01554,37.14841 20.58434,51.51855 10.91411,10.76529 25.93845,18.78529 49.07397,26.1957 l 15.29262,4.8983 0.0152,60.47354 0.0153,60.47354 -6.29969,-0.83569 c -8.69136,-1.15294 -24.57146,-6.94991 -33.098,-12.08228 -7.43866,-4.47755 -20.09338,-15.98742 -26.32443,-23.94291 l -3.65288,-4.66381 -12.23766,8.13961 -12.23766,8.1396 4.11266,5.73573 c 15.92917,22.21562 46.34589,39.03903 80.05016,44.27556 l 9.6875,1.50511 0,11.0785 0,11.0785 13.125,0 13.125,0 0,-11.25 z m 0,-94.375 c 0,-31.28125 0.27901,-56.875 0.62002,-56.875 2.17442,0 17.7645,6.10577 25.67477,10.05537 19.30098,9.63703 27.40408,22.75778 27.44037,44.43218 0.0494,29.52361 -15.27027,50.40915 -42.10179,57.39786 C 297.4233,410.26109 298.75,416.53459 298.75,351.875 Z m -36.875,-98.0629 c -11.9667,-4.31805 -21.09545,-8.89564 -26.77935,-13.42844 -7.30834,-5.82827 -9.46473,-8.38012 -13.31985,-15.76259 -12.18006,-23.32458 -1.68433,-53.03162 22.87821,-64.75423 6.74475,-3.21898 21.25991,-7.27535 26.28349,-7.34514 1.22525,-0.017 1.5625,11.17506 1.5625,51.8533 0,58.69902 1.08262,53.66166 -10.625,49.4371 z"
           id="path4224" />
        <path
           style="fill:url(#linearGradient6295);fill-opacity:1"
           d="M 99.375,537.89219 C 80.203336,535.27714 56.345379,521.66645 44.19662,506.41355 37.579216,498.10532 29.871706,483.43494 26.664405,473.04293 24.489072,465.99461 24.375,456.43824 24.375,281.25 24.375,74.183195 23.542952,92.659161 33.772155,72.582074 43.305274,53.871201 55.785099,41.80357 75.259137,32.465354 94.348938,23.311388 82.899139,23.793409 281.25,23.793409 c 198.35086,0 186.90106,-0.482021 205.99086,8.671945 19.47404,9.338216 31.95386,21.405847 41.48699,40.11672 10.2292,20.077087 9.39715,1.601121 9.39715,208.667926 0,206.45386 0.77535,188.57917 -9.02465,208.05035 -9.1166,18.11335 -21.16271,30.24607 -39.10979,39.39097 -20.24966,10.31818 -0.72101,9.40664 -204.99056,9.56837 -100.03125,0.0793 -183.5625,-0.0861 -185.625,-0.3675 z m 199.64059,-90.63965 0.35941,-11.49746 10.88164,-1.5681 c 26.60797,-3.83438 49.24541,-19.19949 60.60942,-41.13852 7.18043,-13.86233 9.18819,-21.49577 10.00758,-38.04846 0.92946,-18.77624 -0.96279,-29.8912 -7.21554,-42.38382 -10.40282,-20.7842 -32.33848,-36.17955 -66.20694,-46.46678 l -8.70116,-2.6429 0,-54.93489 0,-54.9349 4.6875,0.83541 c 15.01251,2.67552 35.41169,14.16377 46.44224,26.15498 5.01896,5.45606 5.73597,5.84014 8.125,4.35221 4.88108,-3.04004 19.49526,-15.07966 19.49526,-16.06082 0,-1.66135 -20.29098,-20.74384 -26.65838,-25.07066 -9.64657,-6.55513 -25.65461,-13.43368 -36.46662,-15.66948 -5.5,-1.13734 -11.26563,-2.32845 -12.8125,-2.64694 -2.65112,-0.54581 -2.8125,-1.18974 -2.8125,-11.22252 l 0,-10.64347 -13.4375,0.35479 -13.4375,0.35479 -0.36055,10.15784 -0.36056,10.15783 -6.51444,0.85441 c -31.94505,4.18974 -57.39443,20.48156 -69.73133,44.63959 -7.54305,14.77074 -9.87943,40.96039 -5.11601,57.34759 7.81746,26.89376 26.93146,42.9675 66.19445,55.6656 l 15.23489,4.92714 0.0143,60.3125 c 0.0135,56.87341 -0.11188,60.3125 -2.19835,60.3125 -4.17611,0 -20.32019,-5.01868 -28.11425,-8.73983 -11.0472,-5.27429 -23.36843,-14.95757 -30.9984,-24.36167 -3.67704,-4.53204 -7.14871,-7.71311 -7.92245,-7.2593 -0.7575,0.44429 -6.30799,4.10268 -12.33443,8.12975 -10.22727,6.83423 -10.86131,7.50629 -9.51831,10.089 3.14753,6.053 24.4101,25.36046 34.23766,31.08948 12.54269,7.31182 32.35343,14.25273 46.2146,16.19181 l 10.6482,1.48961 0,10.85224 c 0,5.96874 0.375,11.22725 0.83334,11.68557 0.45835,0.45834 6.62475,0.83334 13.70311,0.83334 l 12.86977,0 0.3594,-11.49746 z m -0.26559,-95.2552 0,-56.75266 5.37911,1.61887 c 21.56158,6.48907 36.80745,16.53461 42.70203,28.13645 13.84785,27.25561 1.63285,65.58758 -24.67816,77.44266 -6.67062,3.00561 -18.29933,6.30734 -22.2145,6.30734 -0.73386,0 -1.18848,-21.70959 -1.18848,-56.75266 z m -37.5,-98.69052 c -21.56814,-7.6728 -33.3943,-16.57427 -40.09024,-30.17567 -3.7048,-7.5255 -3.87839,-8.5399 -3.45916,-20.21462 0.36234,-10.09063 1.03531,-13.56175 3.75839,-19.38547 7.48057,-15.99825 22.6677,-26.37008 43.41532,-29.64983 l 6.37569,-1.00787 0,51.68831 c 0,28.42859 -0.42188,51.67647 -0.9375,51.66197 -0.51563,-0.0145 -4.59375,-1.32707 -9.0625,-2.91682 z"
           id="path4222" />
        <path
           style="fill:#24ac01"
           d="m 194.6875,537.81264 c 47.60937,-0.18136 125.51562,-0.18136 173.125,0 47.60937,0.18136 8.65625,0.32976 -86.5625,0.32976 -95.21875,0 -134.17188,-0.1484 -86.5625,-0.32976 z m -99.921875,-1.16653 c 0.902344,-0.36108 1.980469,-0.31668 2.395834,0.0986 0.415364,0.41536 -0.322918,0.7108 -1.640625,0.65652 -1.456179,-0.06 -1.752375,-0.35617 -0.755209,-0.7552 z m 371.249995,0 c 0.90234,-0.36108 1.98048,-0.31668 2.39584,0.0986 0.41536,0.41536 -0.32292,0.7108 -1.64062,0.65652 -1.45619,-0.06 -1.75238,-0.35617 -0.75522,-0.7552 z m -376.249995,-1.25 c 0.902344,-0.36108 1.980469,-0.31668 2.395834,0.0986 0.415364,0.41536 -0.322918,0.7108 -1.640625,0.65652 -1.456179,-0.06 -1.752375,-0.35617 -0.755209,-0.7552 z m 381.249995,0 c 0.90234,-0.36108 1.98048,-0.31668 2.39584,0.0986 0.41536,0.41536 -0.32292,0.7108 -1.64062,0.65652 -1.45619,-0.06 -1.75238,-0.35617 -0.75522,-0.7552 z M 70,527.5 c -1.126615,-0.72808 -1.280791,-1.21936 -0.386271,-1.23086 0.818801,-0.01 1.836372,0.54336 2.261271,1.23086 0.959131,1.55191 0.526404,1.55191 -1.875,0 z m 420.91666,-0.15511 c 0.84793,-0.85428 1.85655,-1.23834 2.24142,-0.85348 0.38486,0.38486 -0.30889,1.08382 -1.54167,1.55323 -1.7815,0.67835 -1.92507,0.53477 -0.69975,-0.69975 z M 49.316185,512.24672 c -2.717652,-2.88931 -3.818394,-4.43618 -2.446093,-3.4375 2.94026,2.13974 4.391339,3.54499 6.720464,6.50819 3.123896,3.97433 0.743924,2.26456 -4.274371,-3.07069 z m 459.593265,3.07069 c 2.32911,-2.9632 3.7802,-4.36845 6.72046,-6.50819 1.3723,-0.99868 0.27155,0.54819 -2.4461,3.4375 -5.01829,5.33525 -7.39826,7.04502 -4.27436,3.07069 z M 272.08334,464.16666 c -0.45834,-0.45832 -0.83334,-2.0052 -0.83334,-3.4375 0,-2.48791 0.64166,-2.60416 14.375,-2.60416 14.65791,0 15.3941,0.26481 13.61626,4.89776 C 298.61784,464.64739 296.20285,465 285.6996,465 c -7.03061,0 -13.15794,-0.375 -13.61626,-0.83334 z m -2.28225,-21.03223 c -0.33858,-0.33858 -5.46575,-1.46139 -11.39373,-2.49514 -23.77963,-4.14683 -47.26322,-15.40364 -63.61983,-30.49605 -9.85893,-9.09694 -16.90657,-18.5242 -15.15659,-20.27418 0.70784,-0.70783 5.73222,3.33312 12.96216,10.42504 7.52361,7.37998 15.42933,13.69296 21.7941,17.40333 12.54269,7.31182 32.35343,14.25273 46.2146,16.19181 l 10.6482,1.48961 0,4.18558 c 0,4.14198 -0.25316,4.76574 -1.44891,3.57 z m 29.19419,-3.54664 c 0.37831,-3.8269 0.42031,-3.84707 11.26136,-5.40508 27.69364,-3.97997 49.88705,-19.54927 61.57562,-43.19701 3.15642,-6.38589 6.52194,-15.26695 7.47897,-19.7357 1.14476,-5.34548 1.77402,-6.80364 1.83939,-4.26245 0.17412,6.7676 -4.6542,22.78206 -9.92082,32.90517 -10.8646,20.88313 -30.87986,35.23703 -56.5873,40.58147 -16.61934,3.45506 -16.07942,3.48565 -15.64723,-0.8864 z m 52.04203,-94.78709 c -0.96051,-7.93855 -5.48338,-16.81256 -11.77632,-23.1055 -5.55808,-5.55808 -21.05607,-13.66985 -33.32349,-17.44178 -6.44628,-1.98207 -7.1875,-2.56054 -7.1875,-5.60936 l 0,-3.39939 5.37911,1.61888 c 21.57823,6.49409 36.77836,16.5151 42.74132,28.17811 3.12705,6.11623 6.19743,19.37085 5.37735,23.21353 -0.27818,1.3034 -0.82288,-0.25113 -1.21047,-3.45449 z m -94.89235,-54.78071 c -39.87853,-13.16322 -60.43008,-30.95902 -66.76041,-57.80854 -2.52355,-10.70346 -2.19299,-13.27494 0.52531,-4.08645 7.7907,26.33429 27.17715,42.4923 66.0767,55.07286 14.58093,4.71564 15.2355,5.07469 15.24916,8.36464 0.007,1.89062 -0.12635,3.39241 -0.29822,3.3373 -0.17188,-0.0551 -6.82853,-2.25103 -14.79254,-4.87981 z m -38.14243,-95.37663 c 0.33255,-2.60241 1.99262,-7.76342 3.68906,-11.46894 7.11757,-15.54683 22.58096,-26.0365 43.18272,-29.2932 6.30658,-0.99693 6.37569,-0.97223 6.37569,2.2788 0,3.10103 -0.48856,3.36358 -8.64999,4.64869 -20.56297,3.23788 -36.6991,15.5914 -43.15689,33.04016 l -2.04521,5.52613 0.60461,-4.73164 z m 131.94523,-7.88285 c -11.87458,-12.22984 -26.90951,-20.96344 -43.08216,-25.02587 -7.19449,-1.8072 -8.1156,-2.38244 -8.1156,-5.06825 0,-2.81614 0.33037,-2.97079 4.6875,-2.19427 14.91695,2.65849 35.40921,14.1607 46.27575,25.97435 2.93602,3.19194 5.74852,5.79136 6.25,5.77647 0.50146,-0.0149 4.81908,-3.07357 9.5947,-6.79706 8.42345,-6.56768 10.69205,-7.37784 10.69205,-3.81832 0,1.48146 -18.21355,16.8031 -20.05224,16.86839 -0.37249,0.0132 -3.18499,-2.55871 -6.25,-5.71544 z"
           id="path4218" />
      </g>
    </g>
  </g>
</svg>
