<?xml version="1.0" encoding="UTF-8" standalone="no"?>
<svg
   xmlns:dc="http://purl.org/dc/elements/1.1/"
   xmlns:cc="http://creativecommons.org/ns#"
   xmlns:rdf="http://www.w3.org/1999/02/22-rdf-syntax-ns#"
   xmlns:svg="http://www.w3.org/2000/svg"
   xmlns="http://www.w3.org/2000/svg"
   viewBox="0 0 526 296"
   height="296"
   width="526"
   version="1.1"
   id="svg4433">
  <metadata
     id="metadata4439">
    <rdf:RDF>
      <cc:Work
         rdf:about="">
        <dc:format>image/svg+xml</dc:format>
        <dc:type
           rdf:resource="http://purl.org/dc/dcmitype/StillImage" />
        <dc:title></dc:title>
      </cc:Work>
    </rdf:RDF>
  </metadata>
  <defs
     id="defs4437" />
  <g
     id="g4443">
    <path
       id="path4459"
       d="M 0,148 0,0 l 263,0 263,0 0,148 0,148 -263,0 -263,0 0,-148 z"
       style="fill:#fafafa" />
    <path
       id="path4457"
       d="M 0,148 0,0 l 263,0 263,0 0,148 0,148 -263,0 -263,0 0,-148 z m 229.68555,80.82569 c 1.72747,-1.62288 2.31445,-3.27138 2.31445,-6.5 L 232,218 l -9,0 c -8.93333,0 -9,-0.0185 -9,-2.5 0,-2.48148 0.0667,-2.5 9,-2.5 8.33333,0 9,-0.14815 9,-2 0,-1.85462 -0.66667,-2 -9.17126,-2 C 211.55835,209 210,209.99062 210,217.15499 l 0,4.84501 9,0 c 8.93333,0 9,0.0185 9,2.5 0,2.48148 -0.0667,2.5 -9,2.5 -8.33333,0 -9,0.14815 -9,2 0,1.84649 0.66667,2 8.68555,2 7.54135,0 8.99044,-0.28643 11,-2.17431 z M 266,222 l 0,-9 4.5,0 c 3.83333,0 4.5,-0.2963 4.5,-2 0,-1.87879 -0.66667,-2 -11,-2 -10.33333,0 -11,0.12121 -11,2 0,1.7037 0.66667,2 4.5,2 l 4.5,0 0,9 c 0,8.33333 0.14815,9 2,9 1.85185,0 2,-0.66667 2,-9 z m 50.68555,6.82569 C 318.64523,226.98467 319,225.65329 319,220.14014 319,210.99453 317.05565,209 308.14014,209 298.99453,209 297,210.94435 297,219.85986 297,229.00547 298.94435,231 307.85986,231 c 5.30894,0 6.9386,-0.40149 8.82569,-2.17431 z M 301,220 l 0,-7 7,0 7,0 0,7 0,7 -7,0 -7,0 0,-7 z m 61.17126,9.34501 c 2.2019,-1.99269 2.49213,-7.34501 0.39829,-7.34501 -0.78675,0 -1.57425,1.0125 -1.75,2.25 -0.29323,2.06465 -0.91678,2.2742 -7.56955,2.54381 l -7.25,0.29381 0,-7.04381 0,-7.04381 7.5,0 c 6.83333,0 7.5,0.17778 7.5,2 0,1.11111 0.66667,2 1.5,2 2.02237,0 1.92511,-3.87278 -0.15499,-6.17126 C 361.04064,209.38743 359.20057,209 353.65946,209 343.93792,209 342,210.80502 342,219.85986 342,229.14377 343.89046,231 353.34557,231 c 5.10741,0 7.4908,-0.44693 8.82569,-1.65499 z M 392,226.5 l 0,-4.5 4.42508,0 c 4.17225,0 4.55876,0.24282 6.76502,4.25 1.48981,2.7059 3.15196,4.3661 4.57493,4.56955 2.85073,0.40759 2.82013,0.1342 -0.66865,-5.97443 l -2.90361,-5.08404 2.90361,-4.92455 c 3.45561,-5.86073 3.45197,-5.83653 0.879,-5.83653 -1.3302,0 -2.95689,1.54344 -4.74272,4.5 -2.53871,4.20302 -2.99906,4.5 -6.97538,4.5 L 392,218 l 0,-4.5 c 0,-3.83333 -0.2963,-4.5 -2,-4.5 -1.87879,0 -2,0.66667 -2,11 0,10.33333 0.12121,11 2,11 1.7037,0 2,-0.66667 2,-4.5 z m -73,-134 0,-6.5 -5,0 c -4.33333,0 -5,0.266667 -5,2 0,1.555556 0.66667,2 3,2 2.53333,0 3,0.388889 3,2.5 0,2.428571 -0.2,2.5 -7,2.5 l -7,0 0,-7 0,-7 9,0 c 8.33333,0 9,-0.148148 9,-2 0,-1.846488 -0.66667,-2 -8.68555,-2 -7.54135,0 -8.99044,0.286434 -11,2.174314 C 297.32287,81.045306 297,82.324717 297,88.345573 297,98.301648 297.82948,99 309.65499,99 L 319,99 l 0,-6.5 z m 45,4.5 c 0,-1.852988 -0.66667,-2 -9.06955,-2 -8.83348,0 -9.06123,-0.05857 -8.75,-2.25 0.26564,-1.870424 1.03653,-2.301875 4.56955,-2.557498 3.43587,-0.248593 4.25,-0.679605 4.25,-2.25 C 355,86.302564 354.28825,86 350.43045,86 c -4.16681,0 -4.54139,-0.198306 -4.25,-2.25 0.29986,-2.111377 0.85864,-2.267801 9.06955,-2.538933 7.92721,-0.261763 8.75,-0.473339 8.75,-2.25 C 364,77.13183 363.26054,77 353,77 l -11,0 0,11 0,11 11,0 c 10.33333,0 11,-0.121212 11,-2 z m 37,-7 0,-9 4.5,0 c 3.83333,0 4.5,-0.296296 4.5,-2 0,-1.878788 -0.66667,-2 -11,-2 -10.33333,0 -11,0.121212 -11,2 0,1.703704 0.66667,2 4.5,2 l 4.5,0 0,9 c 0,8.333333 0.14815,9 2,9 1.85185,0 2,-0.666667 2,-9 z"
       style="fill:#ead0a4" />
    <path
       id="path4455"
       d="M 0,148 0,0 l 263,0 263,0 0,148 0,148 -263,0 -263,0 0,-148 z m 229.68555,80.82569 c 1.72747,-1.62288 2.31445,-3.27138 2.31445,-6.5 L 232,218 l -9,0 c -8.93333,0 -9,-0.0185 -9,-2.5 0,-2.48148 0.0667,-2.5 9,-2.5 8.33333,0 9,-0.14815 9,-2 0,-1.85462 -0.66667,-2 -9.17126,-2 C 211.55835,209 210,209.99062 210,217.15499 l 0,4.84501 9,0 c 8.93333,0 9,0.0185 9,2.5 0,2.48148 -0.0667,2.5 -9,2.5 -8.33333,0 -9,0.14815 -9,2 0,1.84649 0.66667,2 8.68555,2 7.54135,0 8.99044,-0.28643 11,-2.17431 z m 37.223,-6.57569 -0.21512,-8.75 4.65328,-0.30479 C 275.18518,212.94379 276,212.5498 276,210.94521 276,209.13103 275.22536,209 264.5,209 c -10.83333,0 -11.5,0.11594 -11.5,2 0,1.7037 0.66667,2 4.5,2 l 4.5,0 0,9 c 0,8.99126 0.002,9 2.56183,9 l 2.56184,0 -0.21512,-8.75 z m 49.777,6.57569 C 318.67713,226.95469 319,225.67528 319,219.65443 319,210.03502 317.94829,209 308.17375,209 297.97376,209 297,209.94347 297,219.82625 297,229.91683 298.0024,231 307.34054,231 c 5.84214,0 7.42178,-0.36754 9.34501,-2.17431 z M 301,220 l 0,-7 7,0 7,0 0,7 0,7 -7,0 -7,0 0,-7 z m 61.91619,8.58921 c 2.65916,-2.83054 2.4291,-6.08921 -0.42989,-6.08921 -1.30994,0 -2.09707,0.78112 -2.31161,2.29397 -0.30707,2.1653 -0.69974,2.27749 -7,2 L 346.5,226.5 l 0,-6.5 0,-6.5 6.75,-0.29569 c 6.22995,-0.27291 6.75,-0.13808 6.75,1.75 0,1.5154 0.64805,2.04569 2.5,2.04569 3.16435,0 3.30818,-2.51083 0.32569,-5.68555 C 360.95387,209.322 359.67593,209 353.64014,209 343.94005,209 342,210.81 342,219.85986 342,229.18554 343.87307,231 353.5,231 c 6.26459,0 7.43221,-0.29894 9.41619,-2.41079 z M 392,226.5 l 0,-4.5 4.36104,0 c 4.1483,0 4.47749,0.21951 6.74828,4.5 1.94116,3.65912 2.89971,4.5 5.12972,4.5 l 2.74247,0 -2.99075,-4.8606 c -3.61679,-5.87803 -3.64696,-6.55736 -0.51685,-11.6394 3.06078,-4.96947 3.0854,-5.5 0.2552,-5.5 -1.66057,0 -2.93155,1.2094 -4.72911,4.5 -2.32012,4.24718 -2.69817,4.5 -6.72911,4.5 L 392,218 l 0,-4.5 c 0,-3.9994 -0.2503,-4.50023 -2.25,-4.50204 -2.21603,-0.002 -2.24528,0.16408 -1.93762,11 C 388.09943,230.10778 388.2819,231 390.06238,231 391.69215,231 392,230.28504 392,226.5 Z M 267,188.64053 c 3.025,-1.80489 5.5,-3.78141 5.5,-4.39226 0,-0.61085 -1.48582,-2.1541 -3.30182,-3.42945 L 265.89636,178.5 265.34887,157.25 C 265.0351,145.07157 265.18178,136 265.69248,136 c 0.49011,0 2.87849,2.025 5.30752,4.5 2.42903,2.475 4.87393,4.5 5.43311,4.5 C 277.61755,145 291,131.93066 291,130.77394 c 0,-0.42884 -1.62736,1.02159 -3.61636,3.22318 -1.989,2.20158 -4.30875,4.00288 -5.15499,4.00288 -1.2833,0 -1.23164,-0.33922 0.31132,-2.04417 1.8223,-2.01361 1.76549,-2.12864 -3.80084,-7.69496 -5.57211,-5.57211 -5.67934,-5.62496 -7.70109,-3.79529 -3.565,3.22627 -3.17222,1.05671 0.64138,-3.54276 3.49295,-4.21275 3.40281,-4.16829 -1.89792,0.93614 l -5.56504,5.35895 -7.10165,-4.21901 c -5.0239,-2.98464 -7.76187,-4.04201 -9.35823,-3.61402 C 244.67464,120.21116 236,125.78415 236,126.93785 c 0,0.5138 1.8,1.94584 4,3.18231 l 4,2.24812 0.0112,25.56586 0.0112,25.56586 7.23877,4.19783 c 3.98132,2.30881 7.91377,4.20379 8.73877,4.21107 0.825,0.007 3.975,-1.46349 7,-3.26837 z m -10.54722,-3.55202 -3.95278,-2.68383 -0.26653,-25.52749 -0.26653,-25.52749 -3.98347,-2.23883 c -4.55005,-2.55728 -4.77784,-3.13368 -1.93901,-4.90656 1.77222,-1.10677 2.60446,-0.90076 6.25,1.54706 l 4.20554,2.82384 0.27082,25.4624 0.27081,25.46239 3.97919,2.27986 c 4.58111,2.62473 4.8756,3.49067 1.68196,4.94579 -1.89054,0.86139 -2.99698,0.57157 -6.25,-1.63714 z m 17.75543,-52.37636 c -4.60618,-4.69336 -4.98956,-5.8188 -2.64501,-7.7646 1.33669,-1.10936 2.30389,-0.55665 6.6749,3.81435 4.371,4.37101 4.92371,5.33821 3.81435,6.6749 -1.97907,2.38463 -3.2699,1.93627 -7.84424,-2.72465 z m 54.9539,54.69281 c 8.25388,-4.83892 10.51003,-6.80883 3.9866,-3.48083 l -3.85129,1.96478 -3.89871,-4.00553 -3.89871,-4.00553 4.70402,2.62087 c 3.80334,2.11905 5.09575,2.41121 6.75,1.52589 1.12529,-0.60224 2.04598,-1.31998 2.04598,-1.59498 0,-0.275 -0.89607,-0.0204 -1.99126,0.56569 -1.62387,0.86907 -3.1921,0.37503 -8.5,-2.67781 L 318,174.57401 l -0.163,-6.037 -0.16299,-6.03701 -0.58701,5.34216 -0.587,5.34216 -2.23205,-2.38751 c -1.58444,-1.69479 -2.49621,-4.40535 -3.14248,-9.34216 -0.90913,-6.94478 -0.91022,-6.93977 -0.76795,3.52553 l 0.14248,10.48018 7.86009,4.43247 7.86009,4.43248 -2.35065,1.7731 c -2.29104,1.72814 -2.49036,1.6935 -7.86009,-1.36587 -3.03019,-1.72644 -6.74409,-3.83503 -8.25312,-4.68576 -2.73665,-1.54282 -2.74369,-1.57558 -2.75,-12.79678 C 305.00248,160.42088 304.60703,156 304,156 c -0.55,0 -1,0.69601 -1,1.54668 0,1.32726 -0.34606,1.29179 -2.43922,-0.25 -2.06463,-1.52077 -2.49526,-2.79487 -2.80414,-8.29668 -0.2007,-3.575 -0.43675,1.825 -0.52453,12 l -0.15962,18.5 10.71376,6.1855 c 5.89256,3.40203 11.3492,6.21453 12.12586,6.25 0.77666,0.0355 4.93916,-2.00327 9.25,-4.53054 z M 223.50503,142.00504 c -6.58557,-6.60277 -12.6558,-11.94599 -13.4894,-11.87381 -0.8336,0.0722 -5.34037,4.23468 -10.01504,9.25 -4.67468,5.01532 -6.80623,7.56222 -4.73677,5.65978 l 3.76264,-3.45899 2.20192,2.20192 2.20192,2.20191 -4.45492,4.75708 c -2.4502,2.61639 -0.40062,0.81957 4.55464,-3.99293 4.95525,-4.8125 9.50804,-8.75 10.11732,-8.75 0.60927,0 1.69002,0.70157 2.40166,1.55905 1.11143,1.33918 -0.0347,2.91802 -8.12755,11.19577 -5.1818,5.30019 -7.26146,7.71862 -4.62146,5.37428 4.94493,-4.39116 6.30481,-4.70273 8.10051,-1.85596 0.81913,1.2986 0.40464,2.35082 -1.92856,4.89577 -1.63457,1.78291 0.22759,0.45877 4.13812,-2.94254 3.91053,-3.40131 7.68273,-6.87424 8.38268,-7.71762 0.96875,-1.16727 1.5991,-1.26246 2.63994,-0.39864 0.75203,0.62413 1.36732,1.63328 1.36732,2.24255 0,0.60928 -3.9375,5.1322 -8.75,10.05094 -6.57179,6.71687 -7.46033,7.89552 -3.56932,4.73471 4.04487,-3.28581 5.3603,-3.90407 6,-2.82002 0.45063,0.76364 1.36684,1.56693 2.03604,1.78508 0.72645,0.23681 -0.85022,2.81428 -3.91292,6.39663 -3.16921,3.70695 -0.77194,1.70245 6.27269,-5.24496 L 235.4788,154.01009 223.50503,142.00504 Z M 218.34838,113 c 22.92009,0 29.31939,-0.3019 33.72012,-1.59079 2.98732,-0.87493 5.859,-1.99993 6.3815,-2.5 1.22168,-1.16923 0.31986,-1.15241 -2.85108,0.0532 -1.96589,0.74743 -2.91605,0.57991 -4.25391,-0.75 -1.62786,-1.61818 -1.45092,-1.74501 3.21618,-2.30529 2.71634,-0.32609 -20.26119,-0.57303 -51.06119,-0.54875 -30.8,0.0243 -52.43074,0.19898 -48.0683,0.38823 6.71661,0.29138 8.2901,0.70249 10.27123,2.68362 2.79673,2.79673 1.83278,3.4535 -5.53472,3.77094 -2.56751,0.11062 0.73179,0.44812 7.33179,0.75 l 12,0.54886 -7.25,4.36397 c -3.9875,2.40018 -7.25,4.54526 -7.25,4.76684 0,0.22159 2.23504,-0.7297 4.96676,-2.11396 2.73171,-1.38427 5.09421,-2.51786 5.25,-2.5191 0.15578,-0.001 0.243,3.03626 0.19381,6.75 -0.0752,5.68062 -0.0286,5.87936 0.29361,1.25225 0.29221,-4.19595 0.90617,-5.90965 2.58943,-7.22776 1.21351,-0.95027 2.54389,-1.73777 2.95639,-1.75 0.4125,-0.0122 0.83111,4.14026 0.93025,9.22776 0.10497,5.38703 0.33868,7.21691 0.55962,4.3817 l 0.37938,-4.8683 2.44037,2.29261 c 1.58834,1.49217 2.44038,3.39557 2.44038,5.45164 0,1.73746 0.3375,3.49777 0.75,3.91179 0.4125,0.41403 0.87594,-4.91097 1.02988,-11.83333 L 190.05975,113 l 28.28863,0 z m -49.66527,13.8125 c -0.31922,-0.79773 -0.55618,-0.56078 -0.60416,0.60417 -0.0434,1.05416 0.19292,1.64479 0.52522,1.3125 0.33229,-0.3323 0.36781,-1.1948 0.0789,-1.91667 z M 319,92.75 319,86 l -5,0 c -4.54403,0 -5,0.208783 -5,2.289421 0,1.84044 0.53931,2.28169 2.75,2.25 2.10536,-0.03018 2.82491,0.48801 3.06955,2.210579 0.3057,2.152459 0.0111,2.25 -6.79569,2.25 l -7.11524,0 0.29569,-6.75 0.29569,-6.75 8.75,-0.288933 c 7.92721,-0.261763 8.75,-0.473339 8.75,-2.25 C 319,77.163501 318.27586,77 310.31445,77 c -7.54135,0 -8.99044,0.286434 -11,2.174314 C 297.322,81.046125 297,82.32407 297,88.359863 297,98.480772 298.18385,99.5 309.93945,99.5 l 9.06055,0 0,-6.75 z m 45.5,4.572394 c 0,-1.612118 -1.07475,-1.855669 -9.31452,-2.110774 -8.96802,-0.277651 -9.30282,-0.370652 -9,-2.5 0.26936,-1.894081 0.96062,-2.222566 4.81452,-2.287857 3.74747,-0.06349 4.5,-0.397947 4.5,-2 0,-1.589253 -0.83673,-1.977202 -4.81204,-2.231088 -4.30692,-0.275065 -4.77928,-0.537488 -4.5,-2.5 0.29199,-2.051801 0.90633,-2.211148 9.56204,-2.480201 8.4267,-0.261934 9.25,-0.462196 9.25,-2.25 C 365,77.126275 364.26003,77 353.5,77 l -11.5,0 0,10.833333 c 0,5.958334 0.18729,11.020834 0.4162,11.25 0.22891,0.229167 5.29141,0.336744 11.25,0.239061 9.75022,-0.159842 10.8338,-0.359879 10.8338,-2 z M 400.78753,90.238573 401.07505,81 l 4.46248,0 C 409.33333,81 410,80.701212 410,79 c 0,-1.878788 -0.66667,-2 -11,-2 -9.11111,0 -11,0.257576 -11,1.5 0,0.825 -0.1125,1.803193 -0.25,2.173763 -0.1375,0.370569 1.775,0.708069 4.25,0.75 l 4.5,0.07624 0.2884,9.315929 c 0.25281,8.166397 0.4996,9.275528 2,8.988573 1.44259,-0.275906 1.75679,-1.779381 1.99913,-9.565929 z M 248.88712,98.25916 c -6.52878,-0.290169 -7.93856,-0.685008 -9.8998,-2.772658 -2.6361,-2.806002 -2.09306,-3.21548 5.01268,-3.779744 2.475,-0.196539 -21.375,-0.371294 -53,-0.388346 -31.625,-0.01705 -53.76801,0.294204 -49.20668,0.691677 6.75683,0.58879 8.7651,1.164288 10.83979,3.106295 l 2.54648,2.383616 -7.3398,0.569842 C 143.80291,98.383255 166.6,98.630195 198.5,98.618598 230.4,98.607 253.0742,98.445253 248.88712,98.25916 Z M 133.80687,86.473539 c -0.30789,-0.307888 -0.86705,0.247112 -1.24258,1.233333 -0.54268,1.425198 -0.42782,1.540062 0.5598,0.559795 0.68342,-0.678334 0.99067,-1.485241 0.68278,-1.793128 z m 1.20626,-5.735843 c 1.46233,-1.808065 1.59408,-1.784709 3.92431,0.695715 L 141.34863,84 l -3.42432,0.167714 c -10.38789,0.508772 21.85623,1.587938 47.57569,1.592292 25.84648,0.0044 57.92405,-1.109825 45.92431,-1.595162 C 228.50957,84.046955 226.67963,83.287883 225,81.5 l -2.34863,-2.5 3.92432,-0.175356 C 228.73406,78.728198 223.975,78.334745 216,77.950304 197.53224,77.060052 154.02954,76.999647 143.22202,77.84925 L 134.94404,78.5 132.42806,83 c -1.38378,2.475 -1.70869,3.399428 -0.72201,2.054284 0.98667,-1.345144 2.47486,-3.287608 3.30708,-4.316588 z"
       style="fill:#d1b58a" />
    <path
       id="path4453"
       d="M 0,148 0,0 l 263,0 263,0 0,148 0,148 -263,0 -263,0 0,-148 z m 229.68555,80.82569 c 1.72747,-1.62288 2.31445,-3.27138 2.31445,-6.5 L 232,218 l -9,0 c -8.93333,0 -9,-0.0185 -9,-2.5 0,-2.48148 0.0667,-2.5 9,-2.5 8.33333,0 9,-0.14815 9,-2 0,-1.85484 -0.66667,-2 -9.18555,-2 -8.05471,0 -9.47048,0.26768 -11.5,2.17431 -1.72747,1.62288 -2.31445,3.27138 -2.31445,6.5 l 0,4.32569 9.56955,0 c 9.35199,0 9.56229,0.0512 9.25,2.25 -0.30159,2.12355 -0.83941,2.26616 -9.56955,2.53753 -8.4267,0.26193 -9.25,0.46219 -9.25,2.25 0,1.80753 0.72521,1.96247 9.18555,1.96247 8.05471,0 9.47048,-0.26768 11.5,-2.17431 z M 267,222 l 0,-9 4.5,0 c 3.83333,0 4.5,-0.2963 4.5,-2 0,-1.88406 -0.66667,-2 -11.5,-2 -10.83333,0 -11.5,0.11594 -11.5,2 0,1.7037 0.66667,2 4.5,2 l 4.5,0 0,9 c 0,8.93333 0.0185,9 2.5,9 2.48148,0 2.5,-0.0667 2.5,-9 z m 50.17126,7.34501 c 2.5253,-2.28536 2.65191,-15.77794 0.17375,-18.51627 -2.28536,-2.5253 -15.77794,-2.65191 -18.51627,-0.17375 -2.5253,2.28536 -2.65191,15.77794 -0.17375,18.51627 2.28536,2.5253 15.77794,2.65191 18.51627,0.17375 z M 301,220 l 0,-7 7,0 7,0 0,7 0,7 -7,0 -7,0 0,-7 z m 61.68555,8.82569 C 365.90961,225.79684 365.8064,222 362.5,222 c -2,0 -2.5,0.5 -2.5,2.5 0,2.41026 -0.23333,2.5 -6.5,2.5 l -6.5,0 0,-7 0,-7 6.43045,0 c 5.90726,0 6.45645,0.18306 6.75,2.25 0.2089,1.47091 1.00733,2.25 2.30585,2.25 2.85899,0 3.08905,-3.25867 0.42989,-6.08921 C 360.9404,209.30765 359.75663,209 353.64014,209 343.94005,209 342,210.81 342,219.85986 342,229.14768 343.88886,231 353.35986,231 c 5.8223,0 7.40371,-0.36871 9.32569,-2.17431 z M 392,226.5 l 0,-4.5 4.27089,0 c 4.03094,0 4.40899,0.25282 6.72911,4.5 1.99028,3.64338 2.98075,4.5 5.20317,4.5 l 2.74494,0 -2.97406,-5.04401 C 406.33832,223.18179 405,220.41906 405,219.81659 c 0,-0.60246 1.34584,-3.28266 2.99076,-5.95599 l 2.99075,-4.8606 -2.74075,0.0316 c -2.15904,0.0249 -3.31628,0.98002 -5.45228,4.5 -2.49158,4.10594 -3.03911,4.46839 -6.75,4.46839 L 392,218 l 0,-4.5 c 0,-4.13333 -0.2037,-4.5 -2.5,-4.5 l -2.5,0 0,11 0,11 2.5,0 c 2.2963,0 2.5,-0.36667 2.5,-4.5 z M 266.9759,188.75 c 2.96309,-1.7875 5.56625,-3.80669 5.7848,-4.4871 0.21855,-0.6804 -1.2132,-2.18735 -3.18167,-3.34877 L 266,178.80245 266,157.90122 C 266,146.40555 266.16579,137 266.36842,137 c 0.20263,0 2.47372,2.10529 5.04685,4.67843 l 4.67844,4.67843 7.45314,-7.4034 C 287.64608,134.88159 291,131.10009 291,130.55012 291,129.24249 277.85393,116 276.55582,116 c -0.54881,0 -3.49757,2.47366 -6.55281,5.49702 l -5.55499,5.49703 -7.73706,-4.5291 -7.73706,-4.5291 -6.4678,3.78208 c -3.55728,2.08014 -6.47641,4.30787 -6.48694,4.95051 -0.0105,0.64264 1.55584,2.14184 3.48084,3.33156 l 3.5,2.16312 0,25.39401 0,25.394 7.72909,4.52444 c 4.251,2.48844 8.43341,4.52443 9.29424,4.52443 0.86083,0 3.98949,-1.4625 6.95257,-3.25 z m -10.00339,-3.3963 C 251.99105,182.03682 252,182.08987 252,155.87286 l 0,-24.74489 -4,-2.24813 c -4.62879,-2.60152 -4.97075,-3.59809 -1.5309,-4.46144 2.74538,-0.68905 8.91349,2.53027 9.93168,5.18362 0.32957,0.85886 0.59922,12.5406 0.59922,25.95944 l 0,24.39789 4.07417,2.07849 c 3.35396,1.71106 3.86264,2.33337 2.87756,3.52032 -1.57131,1.89332 -3.93255,1.82414 -6.97922,-0.20446 z m 17.70831,-53.17012 c -4.55304,-4.62255 -4.66999,-4.8834 -2.90543,-6.48031 1.7393,-1.57404 2.10083,-1.39764 6.69518,3.26685 4.12869,4.19172 4.66385,5.16299 3.57057,6.48031 -0.70732,0.85226 -1.58535,1.54957 -1.95118,1.54957 -0.36583,0 -2.79994,-2.16739 -5.40914,-4.81642 z m 61.73369,51.21462 c 8.02202,-4.73098 14.58549,-9.23098 14.58549,-10 0,-2.29009 -2.04266,-1.65016 -11.29065,3.53718 l -8.79065,4.9308 -5.95935,-3.54996 -5.95935,-3.54997 0,-6.28809 0,-6.28808 8,-4.69008 c 4.4,-2.57954 8,-4.88088 8,-5.11409 0,-0.23321 -1.06925,-0.15565 -2.37611,0.17235 -2.13924,0.53692 -2.33648,0.31452 -1.97862,-2.23095 0.35567,-2.52989 0.29646,-2.59882 -0.56284,-0.65524 -0.94901,2.14649 -8.67054,7.32793 -10.92029,7.32793 -0.81372,0 -1.21012,-3.82255 -1.32218,-12.75 -0.088,-7.0125 -0.34513,-11.23923 -0.57136,-9.39272 l -0.41132,3.35727 -2.42864,-2.28159 C 313.09289,134.67809 312,133.05481 312,132.32569 312,131.59656 311.55,131 311,131 c -0.63702,0 -0.99615,8.07625 -0.98938,22.25 l 0.0106,22.25 7.48938,4.2685 c 4.11916,2.34767 7.48938,4.7016 7.48938,5.23095 0,0.52934 -1.04016,1.22351 -2.31147,1.54259 -1.6375,0.41098 -4.48034,-0.70064 -9.75,-3.81248 L 305.5,178.33693 305.22025,155.91847 304.9405,133.5 l 2.77975,-2.24503 c 1.7946,-1.44939 2.24815,-2.25468 1.27975,-2.27224 -1.02376,-0.0186 -0.70626,-0.68413 1,-2.09628 1.375,-1.13799 -0.875,-0.25526 -5,1.96163 l -7.5,4.0307 -0.64411,8.81061 c -0.35426,4.84584 -0.69176,15.18532 -0.75,22.97663 L 296,178.83205 l 11.25,6.56936 c 6.1875,3.61315 11.99903,6.57594 12.91451,6.58398 0.91549,0.008 8.22799,-3.8562 16.25,-8.58719 z M 371,183.53518 c 0,-0.25565 -1.0125,-0.95547 -2.25,-1.55516 -2.16063,-1.04704 -2.17289,-1.02858 -0.30887,0.46481 2.04026,1.63459 2.55887,1.85557 2.55887,1.09035 z m -6.16403,-3.86436 c -0.91521,-0.69606 -1.86028,-2.59425 -2.10016,-4.2182 l -0.43615,-2.95262 -0.14983,3.20031 c -0.0987,2.10888 0.44699,3.54792 1.60017,4.21959 2.43811,1.42007 3.08543,1.2716 1.08597,-0.24908 z m -141.37458,-13.63211 11.93014,-11.9613 -5.44577,-5.7887 c -2.99517,-3.18379 -8.73385,-8.9305 -12.75262,-12.77046 l -7.30686,-6.98176 -9.59062,9.73176 C 195.02082,143.62071 190.5464,148 190.35252,148 190.15863,148 190,140.14901 190,130.55334 l 0,-17.44665 30.75,-0.30335 30.75,-0.30334 5.64796,-2.64796 c 6.87872,-3.22498 13.37435,-9.51791 16.03643,-15.535983 1.0905,-2.465252 1.76121,-4.703788 1.49047,-4.974527 -0.27073,-0.270738 -0.78866,0.441661 -1.15094,1.583109 C 273.16164,92.066088 272.3974,93 271.82562,93 c -0.57178,0 -0.76645,-0.675 -0.43261,-1.5 1.31944,-3.260615 1.60479,-4.878239 0.48511,-2.75 l -1.18375,2.25 -69.46916,0 -69.46915,0 1.49307,-2.25 1.49307,-2.25 66.04624,-0.5 c 36.32544,-0.275 66.38344,-0.8375 66.79557,-1.25 C 267.99614,84.3375 266.98677,84 265.34098,84 263.44211,84 261.49038,83.08644 260,81.5 l -2.34863,-2.5 3.42432,-0.167714 c 13.33164,-0.652949 -26.68976,-1.607863 -71.65729,-1.70975 L 135.3368,77 127.01536,91.75 c -9.52126,16.8767 -9.89385,17.61559 -7.23873,14.35536 l 1.95018,-2.39465 2.8866,3.23971 c 1.58762,1.78184 2.88659,3.75943 2.88659,4.39464 0,0.83082 7.29666,1.29526 26,1.65494 l 26,0.5 -12.75,7.37226 -12.75,7.37227 0.0997,4.62773 c 0.10555,4.90003 1.61201,11.34492 1.80064,7.70343 0.0936,-1.80651 0.24959,-1.78348 2.54834,0.37608 1.62927,1.53062 2.5747,3.68038 2.8253,6.42432 0.20714,2.26815 0.46213,-0.82609 0.56665,-6.87609 0.20273,-11.73621 0.42387,-12.54995 3.90939,-14.38548 l 2.25,-1.18489 0.17659,20.28519 c 0.10513,12.07726 0.4086,17.52347 0.75,13.45984 l 0.57341,-6.82533 2.6964,2.82533 c 2.24674,2.35417 2.7566,3.90932 3.05732,9.32534 0.19851,3.575 0.44763,-4.84667 0.5536,-18.71482 0.18186,-23.79912 0.30128,-25.27293 2.12694,-26.25 1.06384,-0.56935 2.18884,-1.03518 2.5,-1.03518 0.31116,0 0.62088,7.3125 0.68828,16.25 0.11709,15.52786 1.35848,40.45054 1.70975,34.32569 L 183,165.65137 185.5,168 c 1.375,1.29175 2.5,3.36863 2.5,4.6153 0,1.24666 0.45,2.54478 1,2.8847 0.63774,0.39414 1,-2.57081 1,-8.18457 l 0,-8.80261 9.74359,9.74359 C 205.10256,173.61538 209.9471,178 210.50922,178 c 0.56212,0 6.3906,-5.38258 12.95217,-11.96129 z m -18.51633,2.39509 c -1.12007,-1.3496 0.0365,-2.90254 8.3629,-11.22894 9.17492,-9.17492 9.75042,-9.57505 11.39967,-7.9258 1.64925,1.64925 1.25973,2.21613 -7.7156,11.22894 -5.19889,5.2206 -9.74382,9.492 -10.09983,9.492 -0.35602,0 -1.23224,-0.70479 -1.94714,-1.5662 z m -9.93189,-9.91793 c -1.03096,-1.24223 0.37521,-3.01915 8.62756,-10.90229 9.21544,-8.80314 9.97616,-9.31411 11.6492,-7.82475 1.68872,1.50332 1.26579,2.11973 -7.48025,10.90229 C 202.71108,155.811 198.02321,160 197.3922,160 c -0.63102,0 -1.70158,-0.66786 -2.37903,-1.48413 z M 124,104.35613 c 0,-0.23457 0.71797,-1.52225 1.59548,-2.86151 l 1.59549,-2.435018 68.40451,-0.0025 C 238.11364,99.055608 264,99.414037 264,100.00428 c 0,0.52229 -1.10041,1.67063 -2.44535,2.55187 -2.16965,1.42161 -10.06175,1.63744 -70,1.91436 C 154.39959,104.64217 124,104.5907 124,104.35613 Z M 141.66228,132.75 c -0.27741,-0.6875 -0.50439,-0.125 -0.50439,1.25 0,1.375 0.22698,1.9375 0.50439,1.25 0.27741,-0.6875 0.27741,-1.8125 0,-2.5 z m -0.32219,-7.48099 c -1.88587,-3.02583 -4.60399,-5.54887 -8.09009,-7.50945 -6.60872,-3.71675 -6.88859,-2.93934 -0.38291,1.06364 5.32196,3.27464 8.57671,7.18471 9.77055,11.73779 0.57248,2.18332 0.86986,2.46665 1.15658,1.10194 0.21228,-1.01038 -0.89208,-3.88765 -2.45413,-6.39392 z M 319,93 l 0,-7 -5.56955,0 c -5.20385,0 -5.54857,0.147738 -5.25,2.25 0.24492,1.724501 1.0786,2.323186 3.56955,2.563358 2.44002,0.235262 3.25,0.796017 3.25,2.25 C 315,94.794438 314.257,95 308,95 l -7,0 0,-6.5 0,-6.5 9,0 c 8.93333,0 9,-0.01852 9,-2.5 0,-2.474777 -0.0876,-2.5 -8.68555,-2.5 -7.54135,0 -8.99044,0.286434 -11,2.174314 C 297.322,81.046125 297,82.32407 297,88.359863 c 0,5.822297 0.36871,7.40371 2.17431,9.325686 1.95425,2.0802 3.06759,2.314451 11,2.314451 l 8.82569,0 0,-7 z m 45.81955,4.25 c 0.31123,-2.191434 0.0835,-2.25 -8.75,-2.25 C 347.75615,95 347,94.838048 347,93.057498 c 0,-1.570395 0.81413,-2.001407 4.25,-2.25 3.53302,-0.255623 4.30391,-0.687074 4.56955,-2.557498 0.29139,-2.051694 -0.0832,-2.25 -4.25,-2.25 C 347.69691,86 347,85.700916 347,84.038933 c 0,-1.776661 0.82279,-1.988237 8.75,-2.25 8.21091,-0.271132 8.76969,-0.427556 9.06955,-2.538933 0.31559,-2.222096 0.17607,-2.25 -11.25,-2.25 L 342,77 l 0,11.532751 0,11.532749 11.25,-0.282749 C 364.05657,99.511145 364.5126,99.411314 364.81955,97.25 Z M 401,91 l 0,-9 4.5,0 c 4.13333,0 4.5,-0.203704 4.5,-2.5 l 0,-2.5 -11.56955,0 c -11.42607,0 -11.56559,0.0279 -11.25,2.25 0.27269,1.920075 1.01606,2.294692 5.06955,2.554791 l 4.75,0.304791 0,8.945209 C 397,99.333333 397.14906,100 399,100 c 1.85185,0 2,-0.666667 2,-9 z"
       style="fill:#b2956a" />
    <path
       id="path4451"
       d="M 0,148 0,0 l 263,0 263,0 0,148 0,148 -263,0 -263,0 0,-148 z m 230.17126,81.34501 c 1.33714,-1.21009 1.82874,-3.09183 1.82874,-7 L 232,217 l -9,0 c -8.33333,0 -9,-0.14815 -9,-2 0,-1.85185 0.66667,-2 9,-2 8.93333,0 9,-0.0185 9,-2.5 0,-2.47755 -0.0791,-2.5 -8.81291,-2.5 -8.35039,0 -8.95393,0.1472 -11.5,2.80472 C 209.65154,212.92937 209,214.61757 209,217.76719 l 0,4.15776 9.25,0.28752 c 8.48749,0.26383 9.25,0.4524 9.25,2.28753 0,1.83513 -0.76251,2.0237 -9.25,2.28753 -8.4267,0.26193 -9.25,0.46219 -9.25,2.25 0,1.81468 0.72831,1.96247 9.67126,1.96247 7.59588,0 10.06369,-0.35515 11.5,-1.65499 z M 267,222 l 0,-9 4.56955,0 c 4.16681,0 4.54139,-0.19831 4.25,-2.25 -0.30695,-2.16131 -0.76298,-2.26114 -11.56955,-2.53275 L 253,207.9345 l 0,2.53275 c 0,2.33511 0.35115,2.53275 4.5,2.53275 l 4.5,0 0,9 c 0,8.93333 0.0185,9 2.5,9 2.48148,0 2.5,-0.0667 2.5,-9 z m 50.43674,7.0699 c 1.31179,-1.44951 1.75335,-3.70533 1.77335,-9.05956 0.0227,-6.0779 -0.31151,-7.4894 -2.26604,-9.5699 C 314.96871,208.3378 313.75011,208 308.14014,208 c -5.30894,0 -6.9386,0.40149 -8.82569,2.17431 C 297.29435,212.0721 297,213.30207 297,219.84557 297,230.0609 297.92609,231 308,231 c 6.3272,0 7.99958,-0.34205 9.43674,-1.9301 z m -15.72778,-2.69427 C 301.31903,225.9857 301,222.79611 301,219.28764 l 0,-6.37902 6.75,0.29569 6.75,0.29569 0,6.5 0,6.5 -6.04104,0.29229 c -3.32257,0.16076 -6.36007,-0.0267 -6.75,-0.41666 z m 60.97659,2.45006 C 365.90961,225.79684 365.8064,222 362.5,222 c -2,0 -2.5,0.5 -2.5,2.5 0,2.41026 -0.23333,2.5 -6.5,2.5 l -6.5,0 0,-7 0,-7 6.5,0 c 6.26667,0 6.5,0.0897 6.5,2.5 0,2 0.5,2.5 2.5,2.5 3.49746,0 3.33817,-3.8228 -0.30472,-7.31291 C 359.78207,208.37509 358.5446,208 353.33014,208 c -4.61697,0 -6.68798,0.49364 -8.69528,2.07258 -2.40527,1.89199 -2.63486,2.69237 -2.63486,9.18555 0,5.92675 0.36261,7.49895 2.17431,9.42742 1.87182,1.99245 3.14976,2.31445 9.18555,2.31445 5.8223,0 7.40371,-0.36871 9.32569,-2.17431 z M 392,226.5 l 0,-4.5 4.02462,0 c 3.70057,0 4.24347,0.36232 6.74272,4.5 2.157,3.57107 3.28177,4.5 5.44872,4.5 l 2.73062,0 -3.12707,-5.75 -3.12707,-5.75 3.15373,-5.1106 C 409.58082,211.57857 411,208.99107 411,208.6394 411,208.28773 409.9136,208 408.58577,208 c -1.80606,0 -3.15662,1.20655 -5.36132,4.78965 -2.85463,4.63936 -3.07697,4.77727 -7.08578,4.39496 L 392,216.78993 l 0,-4.46452 c 0,-4.05788 -0.20493,-4.43541 -2.25,-4.14496 -2.16131,0.30695 -2.26114,0.76298 -2.53275,11.56955 l -0.28275,11.25 2.53275,0 C 391.80236,231 392,230.64885 392,226.5 Z m -206.07339,-9.87173 c 1.69036,-2.95445 3.07339,-5.65445 3.07339,-6 0,-0.34555 -3.4875,-0.54965 -7.75,-0.45356 -4.44405,0.10018 -5.98301,0.33575 -3.60772,0.55223 2.47154,0.22526 4.86124,1.17196 5.92479,2.34717 1.67726,1.85335 1.68457,2.17498 0.12389,5.44776 -2.50181,5.24635 -1.236,4.17421 2.23565,-1.8936 z M 183.53118,196.5 c 5.46041,-5.12728 6.45624,-8.86361 6.46324,-24.25 0.003,-6.7375 0.14404,-12.25 0.31327,-12.25 0.16923,0 4.67885,4.37115 10.02137,9.71368 l 9.71368,9.71367 12.47863,-12.44867 C 229.38462,160.13191 235,154.08002 235,153.53003 235,152.22407 211.83609,129 210.53352,129 c -0.54876,0 -5.39329,4.37906 -10.76563,9.73124 L 190,148.46248 190,130.73124 190,113 l 29.3185,0 c 32.31679,0 35.92581,-0.49676 43.50697,-5.98853 9.84218,-7.12964 14.53073,-18.192015 13.98651,-33.00041 -0.2625,-7.142481 -0.58955,-8.541979 -2.06198,-8.823325 -1.42373,-0.272041 -1.75,0.389888 -1.75,3.550379 0,2.527254 -0.7125,4.649544 -2.03896,6.073325 L 268.92209,77 l -66.89594,0 -66.89593,0 -13.52331,23.75 c -7.43782,13.0625 -13.79345,24.48066 -14.12363,25.37369 -0.46738,1.26413 3.0825,3.75545 16.0301,11.25 9.14674,5.29447 16.99921,9.62631 17.44994,9.62631 1.19745,0 4.0376,-7.58829 4.0311,-10.77024 -0.0168,-8.23371 -4.18462,-14.62691 -12.65,-19.40448 C 129.40499,115.16637 127,113.62704 127,113.40454 c 0,-0.2225 11.5875,-0.38957 25.75,-0.37127 29.63659,0.0383 28.72446,-0.70883 11.31934,9.27162 l -10.12327,5.80488 0.18763,27.69512 c 0.10319,15.23231 0.50609,29.27011 0.89532,31.19511 0.52846,2.61358 0.74104,2.88601 0.83934,1.07569 L 156,185.65137 158.5,188 c 1.88358,1.76953 2.54263,3.47685 2.6729,6.92431 0.37866,10.02136 1.57189,-19.86965 1.69554,-42.47431 0.13307,-24.3253 0.4459,-26.45 3.89442,-26.45 0.74957,0 1.28275,0.7875 1.18484,1.75 -0.51862,5.0985 0.35332,75.38814 0.91059,73.40452 l 0.65892,-2.34547 1.89638,2.09547 c 1.04301,1.15252 1.48914,2.10549 0.9914,2.11772 -0.49775,0.0122 -2.02999,0.92761 -3.40499,2.03417 -1.47949,1.19066 0.10665,0.67133 3.88565,-1.27223 3.51211,-1.8063 8.3026,-5.08418 10.64553,-7.28418 z m -7.4707,-37.25 c 0.18661,-32.06424 0.44787,-38.01358 1.7346,-39.5 0.83319,-0.9625 1.89515,-1.75 2.35991,-1.75 0.46475,0 0.84501,17.16289 0.84501,38.13976 0,35.15084 -0.13714,38.24386 -1.75,39.46819 -0.9625,0.73065 -2.12332,1.34275 -2.57961,1.36025 -0.45629,0.0175 -0.73075,-16.9557 -0.60991,-37.7182 z m 29.05149,9.10641 c -1.21869,-1.37628 -0.21396,-2.7416 8.23535,-11.19091 9.13755,-9.13755 9.71106,-9.53569 11.36031,-7.88644 1.64925,1.64925 1.25973,2.21613 -7.7156,11.22894 -5.19889,5.2206 -9.68642,9.47488 -9.97228,9.45396 -0.28586,-0.0209 -1.14436,-0.74342 -1.90778,-1.60555 z m -9.10603,-9.84925 c -1.18475,-1.42753 -0.20605,-2.77281 8.0449,-11.05821 8.36842,-8.40336 9.55818,-9.2685 10.90038,-7.9263 1.34221,1.34221 0.46412,2.54919 -8.04489,11.0582 -8.51524,8.51524 -9.6979,9.37522 -10.90039,7.92631 z m -68.36922,-28.47745 c -6.5248,-3.77094 -12.26399,-7.25698 -12.75374,-7.74673 -0.52063,-0.52063 -0.33292,-1.65298 0.45195,-2.72635 1.26476,-1.72966 1.97373,-1.47161 12.25375,4.46013 6.00123,3.46281 11.47382,6.98665 12.16132,7.83076 1.36205,1.67232 1.70696,5.18722 0.5,5.09547 -0.4125,-0.0314 -6.08847,-3.14233 -12.61328,-6.91328 z M 125,103.12244 c 0,-2.96757 3.63636,-3.14102 70.86177,-3.380107 37.4761,-0.133283 68.13833,0.04341 68.1383,0.392657 -4e-5,0.34924 -1.10924,1.36174 -2.46489,2.25 C 259.32815,103.8311 252.05957,104 192.03518,104 154.24731,104 125,103.61712 125,103.12244 Z m 8,-12.688181 c 0,-0.311158 0.46583,-1.436158 1.03518,-2.5 C 135.04319,86.050783 136.87069,86 203.64217,86 c 62.11768,0 68.51468,0.148881 67.96482,1.581787 C 271.27314,88.451771 271,89.576771 271,90.081787 271,90.630533 243.236,91 202,91 164.05,91 133,90.745416 133,90.434259 Z m 133.5443,98.852751 c 3.55063,-2.04215 6.4557,-4.30733 6.4557,-5.03373 0,-0.7264 -1.575,-2.25 -3.5,-3.38578 l -3.5,-2.06505 0,-21.11363 0,-21.11364 4.78435,4.71241 C 273.41574,143.87942 275.9345,146 276.38158,146 277.91489,146 291,132.67272 291,131.11103 c 0,-1.73265 -12.84846,-15.12542 -14.47318,-15.08632 -0.56475,0.0136 -3.49131,2.2636 -6.50346,5 -3.01215,2.73641 -5.78512,4.97529 -6.16216,4.97529 -0.37703,0 -3.86018,-1.83033 -7.74034,-4.06741 l -7.05482,-4.0674 -6.53302,3.65347 c -3.59316,2.00941 -6.53302,4.29636 -6.53302,5.0821 0,0.78575 1.4625,2.31755 3.25,3.40401 l 3.25,1.97537 0.5,25.71744 0.5,25.71745 8,4.75658 c 4.4,2.61611 8.13243,4.77273 8.2943,4.79248 0.16186,0.0197 3.19936,-1.63494 6.75,-3.67708 z M 258.5,185.83302 c -1.1,-0.60839 -3.0125,-2.02314 -4.25,-3.1439 -2.21793,-2.0087 -2.25,-2.39082 -2.25,-26.80675 l 0,-24.76901 -4.18328,-2.49461 -4.18329,-2.49461 2.55954,-1.1662 c 2.10866,-0.96077 3.06578,-0.85191 5.43329,0.61796 5.43564,3.37471 5.37374,3.03433 5.37374,29.55124 l 0,24.74489 4.0613,2.28258 c 3.68749,2.07249 3.9,2.40052 2.30887,3.56398 -2.09222,1.52987 -2.30207,1.5348 -4.87017,0.11443 z m 16.18525,-53.64494 c -3.67296,-3.72903 -4.4367,-5.03663 -3.49302,-5.98031 1.94658,-1.94658 3.14629,-1.45748 7.62927,3.11035 4.06928,4.14629 4.16483,4.38427 2.40123,5.98032 -1.73639,1.5714 -2.09343,1.40153 -6.53748,-3.11036 z m 60.80458,52.0317 c 8.78998,-5.13472 15.12777,-9.47263 15.32332,-10.48809 0.54773,-2.84411 -2.54947,-2.05882 -10.91829,2.76831 -4.29092,2.475 -8.23215,4.5 -8.75829,4.5 -0.52614,0 -3.47211,-1.44482 -6.54659,-3.21072 L 319,174.57857 l 0,-6.08085 0,-6.08085 16,-9.35473 16,-9.35472 0,-7.32803 c 0,-7.17977 -0.0626,-7.36039 -3.09293,-8.92745 -1.70111,-0.87968 -3.31021,-1.38213 -3.57578,-1.11656 -0.26557,0.26556 0.78325,1.08967 2.3307,1.83135 1.54745,0.74167 2.97789,2.24507 3.17874,3.34088 0.31854,1.73787 -0.008,1.63931 -2.5571,-0.77161 -1.60726,-1.5202 -3.21448,-2.47181 -3.5716,-2.11469 -0.35712,0.35712 -0.4685,-0.28955 -0.24752,-1.43704 0.32884,-1.70752 -1.03017,-2.9123 -7.48476,-6.63531 C 331.64214,118.04703 327.81641,116 327.47812,116 c -1.18287,0 -29.36008,16.15284 -30.43357,17.44632 -0.72508,0.87367 -0.99434,8.68222 -0.81401,23.60634 l 0.26946,22.30083 11.5,6.76628 c 6.325,3.72145 11.725,6.78655 12,6.81134 0.275,0.0248 7.24542,-3.89531 15.48983,-8.71133 z M 312.75,182.44789 305,177.9319 l 0,-22.43077 c 0,-21.15318 0.11017,-22.48972 1.93426,-23.46595 C 307.9981,131.46583 309.1231,131 309.43426,131 309.74542,131 310,141.03547 310,153.30104 l 0,22.30103 7.54472,4.29262 c 6.171,3.51104 7.3322,4.54869 6.37755,5.69897 -1.7215,2.07428 -2.67451,1.80594 -11.17227,-3.14577 z m 6.25,-40.00558 0,-14.55768 4.99898,2.80768 4.99899,2.80769 10e-4,9.16451 0.001,9.1645 -4.62595,2.5855 c -2.54428,1.42202 -4.79428,2.58549 -5,2.58549 C 319.16832,157 319,150.44904 319,142.44231 Z m 19,-2.84727 0,-6.40496 -8.1278,-4.76501 c -7.38637,-4.33032 -7.96188,-4.88633 -6.30887,-6.09503 2.6445,-1.93371 3.21153,-1.779 11.70758,3.19439 l 7.72909,4.52444 0,6.94038 c 0,5.8383 -0.30715,7.10476 -1.93426,7.97557 C 338.08189,146.56173 338,146.4183 338,139.59504 Z m 58.50907,46.77106 C 401.72908,183.26745 406,180.59041 406,180.41712 c 0,-0.17328 -1.6875,0.35002 -3.75,1.1629 l -3.75,1.47797 3,-2.63649 3,-2.63648 -4.05407,2.18151 -4.05407,2.18151 -6.10709,-3.63797 -6.10709,-3.63798 -0.34263,-5.68604 c -0.30153,-5.00401 -0.0423,-5.97264 2.16116,-8.07533 2.25384,-2.15076 2.28429,-2.27477 0.30507,-1.24226 -1.20929,0.63086 -2.82311,2.03847 -3.58626,3.12802 -1.37328,1.96064 -1.40914,1.95799 -3.48783,-0.25774 -1.4035,-1.49602 -2.21699,-3.89752 -2.45209,-7.23874 -0.19349,-2.75 -0.55954,0.56641 -0.81345,7.36981 l -0.46165,12.36981 7.75,4.46771 c 4.2625,2.45724 7.75,4.86975 7.75,5.36114 0,0.49138 -1.13996,1.17954 -2.53324,1.52923 -1.91402,0.48039 -4.41956,-0.46059 -10.25,-3.84948 L 370.5,178.26293 369.96653,159.38147 C 369.67313,148.99666 369.28234,142.75 369.09811,145.5 c -0.18422,2.75 -0.24459,5.45 -0.13415,6 0.11045,0.55 -0.88215,-0.0166 -2.20576,-1.25915 -1.32362,-1.24253 -2.60856,-2.05715 -2.85544,-1.81028 -0.24687,0.24688 -0.5813,-2.77932 -0.74318,-6.72489 -0.16187,-3.94556 -0.49766,-7.37709 -0.7462,-7.62563 -0.24853,-0.24854 -0.33072,9.8612 -0.18263,22.46609 L 362.5,179.46411 373,185.6529 c 5.775,3.40384 11.29158,6.22441 12.25907,6.26795 0.96749,0.0435 6.02999,-2.45611 11.25,-5.55475 z M 319.24144,93 l 0.002,-6.5 -5.62158,-0.299904 C 308.18415,85.910016 308,85.98372 308,88.450096 308,90.697605 308.41507,91 311.5,91 c 2.83333,0 3.5,0.380952 3.5,2 0,1.809524 -0.66667,2 -7,2 l -7,0 0,-6.462474 0,-6.462474 9.25,-0.287526 c 8.48749,-0.263824 9.25,-0.452393 9.25,-2.287526 0,-1.837262 -0.76307,-2.023533 -9.37792,-2.289219 C 297.79211,76.830521 297,77.47218 297,87.840536 c 0,6.389692 0.33436,7.886468 2.20699,9.879799 2.04321,2.174894 2.86845,2.328105 11.11986,2.064452 L 319.23971,99.5 319.24144,93 Z M 365,97.5 c 0,-2.481481 -0.0667,-2.5 -9,-2.5 -8.33333,0 -9,-0.148148 -9,-2 0,-1.703704 0.66667,-2 4.5,-2 4.13333,0 4.5,-0.203704 4.5,-2.5 0,-2.296296 -0.36667,-2.5 -4.5,-2.5 -3.83333,0 -4.5,-0.296296 -4.5,-2 0,-1.851852 0.66667,-2 9,-2 8.93333,0 9,-0.01852 9,-2.5 l 0,-2.5 -11.5,0 -11.5,0 0,11.5 0,11.5 11.5,0 11.5,0 0,-2.5 z m 36,-6.5 0,-9 4.5,0 c 4.13333,0 4.5,-0.203704 4.5,-2.5 l 0,-2.5 -11.5,0 -11.5,0 0,2.5 c 0,2.296296 0.36667,2.5 4.5,2.5 l 4.5,0 0,8.333333 C 396,99.174125 396.27055,100 399.16667,100 400.80864,100 401,99.060606 401,91 Z"
       style="fill:#907248" />
    <path
       id="path4449"
       d="M 0,148 0,0 l 263,0 263,0 0,148 0,148 -263,0 -263,0 0,-148 z m 177.68552,81.50772 c 2.85291,-1.99826 11.60733,-17.30218 10.92085,-19.09113 -0.42573,-1.10942 -3.0982,-1.42129 -12.32499,-1.43826 l -11.78138,-0.0217 8.20126,-4.75562 c 15.91256,-9.22711 17.24493,-11.63187 17.27678,-31.18228 l 0.022,-13.48124 9.97741,9.93998 9.97741,9.93997 3.27259,-2.93525 C 223.00213,167.71511 235,155.34535 235,154.03477 235,152.3853 212.14554,129 210.53352,129 c -0.54876,0 -5.40352,4.3875 -10.78837,9.75 l -9.79063,9.75 0.27274,-17.5 0.27274,-17.5 31,-0.5 31,-0.5 5.64151,-2.77047 c 6.59582,-3.23912 13.15352,-9.949325 16.17762,-16.55386 1.80425,-3.94042 2.14405,-6.562673 2.16089,-16.67567 0.0167,-10.00888 -0.22891,-12 -1.48002,-12 -1.00705,0 -1.68484,1.384867 -2.06245,4.214016 -0.30934,2.317709 -1.38874,5.127063 -2.39866,6.243009 -1.80561,1.995173 -2.95293,2.033277 -68.83196,2.285984 L 134.71117,77.5 l -13.96,24.25669 c -7.67801,13.34118 -13.73205,24.85075 -13.45343,25.57683 0.55782,1.45366 31.67773,19.66648 33.60375,19.66648 1.79407,0 4.10152,-6.34966 4.07655,-11.21788 -0.0412,-8.0284 -4.72507,-14.77536 -14.08031,-20.28212 l -3.39773,-2 12.75,-0.27988 c 7.0125,-0.15393 18.4875,-0.15393 25.5,0 l 12.75,0.27988 -10,5.86628 c -5.5,3.22645 -11.0125,6.49933 -12.25,7.27305 l -2.25,1.40678 0,40.42923 0,40.42923 -6.11438,0.29771 -6.11439,0.29772 -5.38561,9.32556 c -2.96209,5.12906 -5.38562,9.96656 -5.38562,10.75 0,2.16068 43.59431,2.09732 46.68552,-0.0678 z M 139.0318,222.25 c 0.0175,-0.4125 0.6296,-1.5375 1.36025,-2.5 1.18378,-1.55944 3.41259,-1.75 20.46819,-1.75 10.52687,0 19.13976,0.25458 19.13976,0.56574 0,0.31116 -0.46583,1.43616 -1.03518,2.5 -0.96903,1.81064 -2.27917,1.93426 -20.5,1.93426 -10.70565,0 -19.45051,-0.3375 -19.43302,-0.75 z M 163,166.55824 c 0,-37.46442 0.0532,-38.51634 2,-39.55824 1.97605,-1.05755 2,-0.76049 2,24.80781 0,14.233 0.28911,31.25507 0.64247,37.82683 l 0.64248,11.94864 -2.64248,1.73141 -2.64247,1.73142 0,-38.48787 z m 13.82133,-8.30804 c 0.28878,-33.92594 0.49139,-37.88123 2,-39.04358 1.56372,-1.20482 1.69662,1.28657 1.94082,36.38289 0.18771,26.97633 -0.0601,38.06453 -0.87244,39.04338 -3.20034,3.85618 -3.39159,1.5885 -3.06838,-36.38269 z m 28.71694,9.79209 c -1.33758,-1.47801 -0.55923,-2.55676 7.98181,-11.06229 8.33124,-8.29659 9.63994,-9.24836 10.93461,-7.95228 1.29456,1.29596 0.33863,2.62081 -7.98181,11.06228 -8.59515,8.72019 -9.58692,9.44147 -10.93461,7.95229 z m -9.53233,-9.53513 c -1.18475,-1.42753 -0.20605,-2.77281 8.0449,-11.05821 8.36842,-8.40336 9.55818,-9.2685 10.90038,-7.9263 1.34221,1.34221 0.46412,2.54919 -8.04489,11.0582 -8.51524,8.51524 -9.6979,9.37522 -10.90039,7.92631 z M 127.26588,129.64404 C 120.53711,125.71482 115.0315,122.05 115.03119,121.5 c -0.002,-3.88667 1.92247,-3.42991 13.05657,3.09852 6.27673,3.68035 11.48816,6.73969 11.58096,6.79856 0.71583,0.45408 1.35892,5.57957 0.68969,5.49696 -0.47213,-0.0583 -6.36377,-3.32078 -13.09253,-7.25 z M 126,102 c 1.0544,-1.97016 2.09382,-2 69.67004,-2 l 68.59968,0 -2.54259,2 c -2.48524,1.95489 -4.05678,2 -69.67004,2 -66.81758,0 -67.12252,-0.009 -66.05709,-2 z m 7,-11.647938 c 0,-0.26595 0.46583,-1.353961 1.03518,-2.417803 C 135.04317,86.050828 136.86948,86 203.53518,86 241.19083,86 272,86.254584 272,86.565741 c 0,0.311158 -0.46159,1.428227 -1.02575,2.482375 -0.99607,1.861177 -3.00702,1.914765 -69.5,1.852062 C 163.81341,90.864663 133,90.618011 133,90.352062 Z m 97.17126,138.992948 c 1.33714,-1.21009 1.82874,-3.09183 1.82874,-7 L 232,217 l -9,0 c -8.33333,0 -9,-0.14815 -9,-2 0,-1.85185 0.66667,-2 9,-2 8.93333,0 9,-0.0185 9,-2.5 0,-2.47755 -0.0791,-2.5 -8.81291,-2.5 -8.35039,0 -8.95393,0.1472 -11.5,2.80472 C 209.65154,212.92937 209,214.61757 209,217.76719 l 0,4.15776 9.25,0.28752 c 8.48749,0.26383 9.25,0.4524 9.25,2.28753 0,1.83513 -0.76251,2.0237 -9.25,2.28753 -8.4267,0.26193 -9.25,0.46219 -9.25,2.25 0,1.81468 0.72831,1.96247 9.67126,1.96247 7.59588,0 10.06369,-0.35515 11.5,-1.65499 z M 267,222 l 0,-9 4.56955,0 c 4.16681,0 4.54139,-0.19831 4.25,-2.25 -0.30695,-2.16131 -0.76298,-2.26114 -11.56955,-2.53275 L 253,207.9345 l 0,2.53275 c 0,2.33511 0.35115,2.53275 4.5,2.53275 l 4.5,0 0,9 c 0,8.93333 0.0185,9 2.5,9 2.48148,0 2.5,-0.0667 2.5,-9 z m 50.92742,6.36514 c 1.57894,-2.0073 2.07258,-4.07831 2.07258,-8.69528 0,-5.21446 -0.37509,-6.45193 -2.68709,-8.86514 C 314.9086,208.29516 313.94195,208 308.12736,208 c -5.29582,0 -6.92678,0.40239 -8.81291,2.17431 C 297.29435,212.0721 297,213.30207 297,219.84557 297,230.07806 297.91599,231 308.08241,231 c 7.20561,0 7.92358,-0.19215 9.84501,-2.63486 z m -16.21846,-1.98951 C 301.31903,225.9857 301,222.79611 301,219.28764 l 0,-6.37902 6.75,0.29569 6.75,0.29569 0,6.5 0,6.5 -6.04104,0.29229 c -3.32257,0.16076 -6.36007,-0.0267 -6.75,-0.41666 z m 60.97659,2.45006 C 365.90961,225.79684 365.8064,222 362.5,222 c -2,0 -2.5,0.5 -2.5,2.5 0,2.41026 -0.23333,2.5 -6.5,2.5 l -6.5,0 0,-7 0,-7 6.5,0 c 6.26667,0 6.5,0.0897 6.5,2.5 0,2 0.5,2.5 2.5,2.5 3.49746,0 3.33817,-3.8228 -0.30472,-7.31291 C 359.78207,208.37509 358.5446,208 353.33014,208 c -4.61697,0 -6.68798,0.49364 -8.69528,2.07258 -2.40527,1.89199 -2.63486,2.69237 -2.63486,9.18555 0,5.92675 0.36261,7.49895 2.17431,9.42742 1.87182,1.99245 3.14976,2.31445 9.18555,2.31445 5.8223,0 7.40371,-0.36871 9.32569,-2.17431 z M 392,226.5 l 0,-4.5 4.02462,0 c 3.70057,0 4.24347,0.36232 6.74272,4.5 2.157,3.57107 3.28177,4.5 5.44872,4.5 l 2.73062,0 -3.12707,-5.75 -3.12707,-5.75 3.15373,-5.1106 C 409.58082,211.57857 411,208.99107 411,208.6394 411,208.28773 409.89397,208 408.54215,208 c -1.85564,0 -3.10398,1.10256 -5.09502,4.5 -2.49252,4.25317 -2.8788,4.5 -7.04215,4.5 L 392,217 l 0,-4.56955 c 0,-4.16681 -0.19831,-4.54139 -2.25,-4.25 -2.16131,0.30695 -2.26114,0.76298 -2.53275,11.56955 l -0.28275,11.25 2.53275,0 C 391.80236,231 392,230.64885 392,226.5 Z M 266.58752,189.41393 c 7.37683,-4.12535 8.0242,-6.09115 2.91248,-8.844 l -3.5,-1.88487 0,-21.05494 0,-21.05494 4.78435,4.71241 C 273.41574,143.87942 276.03969,146 276.61535,146 277.55363,146 292,131.75812 292,130.83312 c 0,-0.20902 -3.56403,-3.92316 -7.92006,-8.25364 l -7.92005,-7.87361 -6.02538,5.74723 -6.02537,5.74724 -7.56899,-4.17817 -7.56898,-4.17818 -6.48559,3.62695 c -3.56707,1.99482 -6.48558,4.28653 -6.48558,5.0927 0,0.80617 1.4625,2.35467 3.25,3.44113 l 3.25,1.97537 0.5,25.75993 0.5,25.75993 8,4.7461 c 4.4,2.61036 8.15188,4.74786 8.33752,4.75 0.18563,0.002 3.22313,-1.60983 6.75,-3.58217 z m -9.22841,-4.33662 c -1.72749,-1.05336 -3.52749,-2.51418 -4,-3.24626 C 252.8866,181.09897 252.275,169.26366 252,155.53036 l -0.5,-24.96963 -3.88058,-2.1753 c -3.7202,-2.0854 -3.7929,-2.22222 -1.75903,-3.31071 1.65569,-0.8861 2.76895,-0.80063 5.06987,0.38922 5.94981,3.07676 6.06974,3.6735 6.06974,30.20189 l 0,24.22081 4.12036,2.45708 c 3.88151,2.31466 4.00125,2.52083 2.06574,3.55668 -2.56806,1.37439 -2.11922,1.43779 -5.82699,-0.82309 z m 17.30372,-52.912 c -4.26287,-4.32794 -4.59422,-4.97736 -3.15083,-6.17527 1.40065,-1.16243 2.227,-0.72472 6.27608,3.32435 4.16168,4.16169 4.50046,4.82565 3.15082,6.17528 -1.34963,1.34963 -2.02442,0.9922 -6.27607,-3.32436 z M 335.71377,184.25 c 8.38568,-4.8125 15.45384,-9.2796 15.70702,-9.92689 0.25318,-0.64728 -0.10123,-1.64294 -0.78759,-2.21256 -0.90464,-0.75079 -3.70783,0.35592 -10.19055,4.02323 l -8.94265,5.05891 -6.25,-3.29444 -6.25,-3.29443 0.0237,-6.05191 0.0237,-6.05191 15.72629,-9.11252 15.7263,-9.11252 0,-7.81777 0,-7.81777 -10.88272,-6.31971 C 333.63179,118.84387 328.17778,116 327.49727,116 c -0.68052,0 -8.05394,3.88461 -16.38539,8.63248 l -15.14809,8.63247 0.26811,23.09713 0.2681,23.09712 11.5,6.72726 c 6.325,3.69999 11.71759,6.74667 11.98354,6.7704 0.26595,0.0237 7.34455,-3.89436 15.73023,-8.70686 z M 312.75,182.36187 305,177.82051 305,155.7705 c 0,-19.82728 0.17641,-22.18393 1.75,-23.37845 0.9625,-0.73065 2.0875,-1.34275 2.5,-1.36025 0.4125,-0.0175 0.75,10.04243 0.75,22.35537 l 0,22.38716 7.56527,4.32852 c 6.76085,3.86827 7.37852,4.46508 5.80887,5.61284 -0.96602,0.70637 -2.00789,1.26253 -2.31527,1.23592 -0.30738,-0.0266 -4.04637,-2.092 -8.30887,-4.58974 z m 6.25,-39.77024 0,-14.5332 4.75,2.78784 4.75,2.78783 0.28517,9.00488 0.28517,9.00488 -5.03517,2.74048 -5.03517,2.74048 0,-14.53319 z m 18.79569,-3.3293 -0.29569,-6.73766 -7.23101,-4.01234 c -3.97705,-2.20678 -7.23955,-4.334 -7.25,-4.72715 -0.0104,-0.39315 0.83636,-1.17258 1.88179,-1.73208 1.52045,-0.81372 3.52141,-0.0991 10,3.57145 l 8.09922,4.58871 0,6.23838 c 0,4.77365 -0.42938,6.62696 -1.82874,7.89337 -1.00581,0.91025 -2.11025,1.65499 -2.45431,1.65499 -0.34406,0 -0.75863,-3.03195 -0.92126,-6.73767 z m 65.45431,43.4528 c 7.5625,-4.40557 13.75,-8.40787 13.75,-8.89401 0,-2.50019 -3.87925,-1.56449 -11.78027,2.8415 l -8.75934,4.88462 -6.22321,-3.52362 -6.22322,-3.52362 0.007,-6 0.007,-6 13.73601,-7.92539 c 20.50012,-11.82813 18.79345,-10.11914 18.40519,-18.43018 l -0.33083,-7.0817 -11.24754,-6.53136 C 398.40465,118.93911 393.07273,116 392.74208,116 c -0.33064,0 -7.38288,3.85109 -15.67163,8.55798 L 362,133.11597 l 0.0134,23.19201 0.0134,23.19202 11.66116,6.69179 c 9.86607,5.66167 11.98065,6.52566 13.73664,5.61262 1.14152,-0.59354 8.26299,-4.68372 15.82549,-9.08928 z m -24.88644,0.0154 c -7.10212,-4.14508 -7.13936,-4.18932 -7.74131,-9.19783 -0.33268,-2.768 -0.60878,-12.85811 -0.61356,-22.42248 -0.008,-15.3952 0.19203,-17.54212 1.74131,-18.71819 0.9625,-0.73065 2.0875,-1.34275 2.5,-1.36025 0.4125,-0.0175 0.75108,9.9807 0.7524,22.2182 l 0.002,22.25 8.00339,4.5 c 7.02451,3.94962 7.79584,4.65288 6.30647,5.75 -2.41607,1.77975 -3.00775,1.61662 -10.9511,-3.01945 z M 384,142.5 c 0,-7.975 0.3375,-14.46463 0.75,-14.4214 0.4125,0.0432 2.775,1.31546 5.25,2.82717 l 4.5,2.74856 0,8.84791 0,8.8479 -4.44578,2.82493 C 387.60904,155.72878 385.24654,157 384.80422,157 384.3619,157 384,150.475 384,142.5 Z m 19,-2.95534 0,-6.45534 -7.25,-4.23486 c -3.9875,-2.32917 -7.42663,-4.36339 -7.6425,-4.52049 C 387.38516,123.8083 390.22869,121 391.48329,121 c 0.68112,0 4.66631,1.9125 8.85598,4.25 l 7.61758,4.25 0.0216,7.21482 c 0.0183,6.12265 -0.27123,7.37152 -1.91269,8.25 C 403.08058,146.56243 403,146.41996 403,139.54466 Z M 319.5,93 l 0,-6.5 -5.75,-0.299904 C 308.17492,85.909315 308,85.977761 308,88.450096 308,90.697605 308.41507,91 311.5,91 c 2.83333,0 3.5,0.380952 3.5,2 0,1.809524 -0.66667,2 -7,2 l -7,0 0,-6.462474 0,-6.462474 9.25,-0.287526 c 8.48749,-0.263824 9.25,-0.452393 9.25,-2.287526 0,-1.840798 -0.76132,-2.022604 -9.56427,-2.283972 -12.19131,-0.361971 -13.10703,0.388505 -13.14582,10.773628 -0.0228,6.10682 0.30691,7.484497 2.29872,9.604686 2.18841,2.329452 2.85795,2.458458 11.36836,2.190445 L 319.5,99.5 l 0,-6.5 z m 45.5,4.5 c 0,-2.481481 -0.0667,-2.5 -9,-2.5 -8.33333,0 -9,-0.148148 -9,-2 0,-1.703704 0.66667,-2 4.5,-2 4.13333,0 4.5,-0.203704 4.5,-2.5 0,-2.296296 -0.36667,-2.5 -4.5,-2.5 -3.83333,0 -4.5,-0.296296 -4.5,-2 0,-1.851852 0.66667,-2 9,-2 8.93333,0 9,-0.01852 9,-2.5 l 0,-2.5 -11.5,0 -11.5,0 0,11.5 0,11.5 11.5,0 11.5,0 0,-2.5 z m 36,-6.5 0,-9 4.5,0 c 4.13333,0 4.5,-0.203704 4.5,-2.5 l 0,-2.5 -11.5,0 -11.5,0 0,2.5 c 0,2.296296 0.36667,2.5 4.5,2.5 l 4.5,0 0,8.333333 C 396,99.174125 396.27055,100 399.16667,100 400.80864,100 401,99.060606 401,91 Z"
       style="fill:#685d51" />
    <path
       id="path4447"
       d="M 0,148 0,0 l 263,0 263,0 0,148 0,148 -263,0 -263,0 0,-148 z m 178.6042,80.85237 c 3.5736,-3.57634 11.27904,-16.99306 10.67036,-18.57926 -0.35545,-0.92628 -3.66038,-1.28517 -12.13155,-1.31738 l -11.64301,-0.0443 3.81759,-2.20574 c 19.46135,-11.24442 20.84551,-13.33667 21.49514,-32.49145 l 0.45475,-13.40841 9.13505,9.09707 c 5.02428,5.00338 9.59965,9.09706 10.16749,9.09706 0.56784,0 6.61046,-5.64222 13.42804,-12.53826 L 236.39365,153.92343 223.96183,141.4617 C 217.12433,134.60778 211.08171,129 210.5338,129 c -0.54792,0 -5.16718,4.15361 -10.26501,9.23025 L 191,147.4605 191,130.73025 191,114 l 27.2899,0 c 30.86714,0 35.78761,-0.72676 44.29772,-6.54284 5.73918,-3.92234 10.71649,-10.288659 13.02393,-16.6585 0.85644,-2.364263 1.80351,-8.806844 2.10459,-14.316846 0.46387,-8.48912 0.29837,-10.224885 -1.08436,-11.372445 -2.42463,-2.012268 -4.46088,0.178781 -4.82809,5.195128 -0.2385,3.258237 -0.8403,4.418886 -2.80369,5.407374 -1.93161,0.972483 -17.50557,1.266465 -68.5,1.293037 l -66,0.03439 -14.14383,24.675242 c -7.7791,13.57139 -13.95727,25.16141 -13.72925,25.75561 0.67266,1.75292 32.35738,19.67952 34.167,19.33102 2.8759,-0.55385 4.30759,-4.84818 3.97124,-11.91169 -0.3998,-8.39615 -3.4845,-13.39577 -10.94972,-17.7471 l -5.31544,-3.09826 24.5,-0.0219 24.5,-0.0219 -11.74643,6.74986 -11.74643,6.74986 -0.004,40.75 L 154,209 l -6.28689,0 -6.28688,0 -5.78381,10.09459 c -3.18109,5.55203 -5.53192,10.75099 -5.22406,11.55326 0.47241,1.23108 4.06883,1.41135 23.04999,1.15541 L 175.95859,231.5 178.6042,228.85237 Z M 140,221.37908 c 0,-2.9916 2.92368,-3.42169 21.42378,-3.15159 17.2617,0.25203 18.56734,0.39802 17.37042,1.94228 -1.10933,1.43125 -3.97249,1.71788 -20.0442,2.00663 -13.51027,0.24273 -18.75,0.0199 -18.75,-0.79732 z m 23,-55.13853 c 0,-36.67645 0.0574,-37.79528 2,-39.00848 1.98676,-1.24075 2,-0.99869 2,36.55946 C 167,201.10641 166.76971,204 163.8,204 163.36,204 163,187.00825 163,166.24055 Z m 14,-8.17018 c 0,-36.97655 0.0539,-38.02883 2,-39.07037 1.98369,-1.06164 2,-0.76049 2,36.92963 0,36.97655 -0.0539,38.02883 -2,39.07037 -1.98369,1.06164 -2,0.76049 -2,-36.92963 z m 28.43443,9.82353 c -0.39041,-0.6317 3.31261,-5.119 8.6338,-10.46242 7.39418,-7.42505 9.59947,-9.12222 10.68389,-8.22224 1.10259,0.91507 -0.42754,2.9356 -7.92307,10.46242 C 211.7198,164.80225 207.21967,169 206.82877,169 c -0.39091,0 -1.01836,-0.49775 -1.39434,-1.1061 z m -9.43373,-9.39306 c -1.17601,-1.41701 -0.2356,-2.73028 7.57834,-10.58304 8.20162,-8.24236 11.20219,-10.07921 12.09304,-7.40297 0.18579,0.55815 -3.86217,5.19734 -8.99548,10.3093 -8.30363,8.26911 -9.4814,9.116 -10.6759,7.67671 z M 136.5,134.56178 c -1.1,-0.73332 -6.36776,-3.87435 -11.70614,-6.98006 -6.90384,-4.01647 -9.54355,-6.07044 -9.14301,-7.11424 0.30972,-0.80711 0.90526,-1.46748 1.32342,-1.46748 0.41816,0 5.65752,2.8413 11.64301,6.31401 7.94481,4.60947 10.96899,6.90414 11.20227,8.5 0.36284,2.48211 -0.44503,2.66409 -3.31955,0.74777 z M 126.23207,102 c 1.22947,-1.96869 2.31369,-1.99948 69.25848,-1.96673 67.76172,0.0331 68.00085,0.0404 65.64867,2 -2.29571,1.91251 -4.20491,1.96673 -69.25848,1.96673 -66.64736,0 -66.89301,-0.007 -65.64867,-2 z m 8,-14 c 1.22906,-1.968034 2.33203,-2 69.00848,-2 C 270.33333,86 271,86.019677 271,88 c 0,1.980679 -0.66667,2 -69.00847,2 -68.75815,0 -69.00395,-0.0073 -67.75946,-2 z m 96.14463,141.1287 c 2.29559,-2.39609 2.69894,-3.59598 2.43709,-7.25 L 232.5,217.5 223,217 c -5.33333,-0.2807 -9.5,-0.9386 -9.5,-1.5 0,-0.5614 4.16667,-1.2193 9.5,-1.5 9.33333,-0.49123 9.5,-0.54386 9.5,-3 0,-2.4687 -0.11761,-2.50362 -9.39358,-2.78943 -8.58701,-0.26457 -9.59976,-0.0957 -11.79476,1.96636 -2.02204,1.89962 -2.35463,3.05057 -2.10642,7.28943 L 209.5,222.5 l 8.75,0.28893 c 6.87565,0.22704 8.75,0.60191 8.75,1.75 0,1.1732 -1.77325,1.46107 -9,1.46107 l -9,0 0,3 0,3 9.31291,0 c 8.94954,0 9.42024,-0.11203 12.06379,-2.8713 z M 267,223 l 0,-9 4.5,0 c 4.33333,0 4.5,-0.11111 4.5,-3 l 0,-3 -11.5,0 -11.5,0 0,3 c 0,2.88889 0.16667,3 4.5,3 l 4.5,0 0,9 c 0,8.93333 0.0185,9 2.5,9 2.48148,0 2.5,-0.0667 2.5,-9 z m 50.19528,6.31291 C 319.71567,226.89822 320,225.95413 320,220 c 0,-5.95413 -0.28433,-6.89822 -2.80472,-9.31291 C 314.73869,208.33352 313.58276,208 307.88237,208 c -5.82525,0 -6.79016,0.29431 -9.19528,2.80472 C 296.34388,213.25051 296,214.42726 296,220 c 0,5.57274 0.34388,6.74949 2.68709,9.19528 2.40512,2.51041 3.37003,2.80472 9.19528,2.80472 5.70039,0 6.85632,-0.33352 9.31291,-2.68709 z M 302,220 l 0,-6 6,0 6,0 0,6 0,6 -6,0 -6,0 0,-6 z m 60.25,9.51636 C 365.91192,226.2933 366.05472,222 362.5,222 c -1.83333,0 -2.5,0.53333 -2.5,2 0,1.79487 -0.66667,2 -6.5,2 l -6.5,0 0,-6 0,-6 6.5,0 c 5.83333,0 6.5,0.20513 6.5,2 0,1.46667 0.66667,2 2.5,2 2.04606,0 2.5,-0.48763 2.5,-2.68555 0,-1.47705 -0.97844,-3.72705 -2.17431,-5 C 360.95387,208.322 359.67593,208 353.64014,208 c -5.8223,0 -7.40371,0.36871 -9.32569,2.17431 -2.02086,1.89851 -2.31445,3.12712 -2.31445,9.68555 0,6.33566 0.3403,7.87347 2.17431,9.82569 1.85299,1.97241 3.1461,2.30978 8.75,2.28285 5.5058,-0.0265 7.02312,-0.42541 9.32569,-2.45204 z M 392,227.5 l 0,-4.5 4.25728,0 c 3.97632,0 4.43667,0.29698 6.97538,4.5 2.07015,3.42728 3.31993,4.5 5.24272,4.5 3.24722,0 3.17899,-0.90647 -0.52087,-6.91951 l -3.0455,-4.94956 3.0455,-5.39632 C 409.62953,211.76663 411,209.03717 411,208.66914 411,208.30111 409.7531,208 408.22911,208 c -2.25316,0 -3.23019,0.8408 -5.22911,4.5 -2.32012,4.24718 -2.69817,4.5 -6.72911,4.5 L 392,217 l 0,-4.5 c 0,-4.13333 -0.2037,-4.5 -2.5,-4.5 l -2.5,0 0,12 0,12 2.5,0 c 2.2963,0 2.5,-0.36667 2.5,-4.5 z M 266.20599,189.89471 c 8.97792,-5.26616 9.29069,-6.22408 3.20471,-9.8149 L 266,178.06745 l 0,-20.74613 0,-20.74614 4.78435,4.71241 C 273.41574,143.87942 275.99266,146 276.51083,146 277.78034,146 292,131.81496 292,130.54854 292,129.24128 277.85267,115 276.55402,115 c -0.54781,0 -3.54665,2.52401 -6.66408,5.60891 l -5.66805,5.6089 -7.03542,-4.1089 C 253.31699,119.84901 249.66025,118 249.06038,118 c -1.52004,0 -11.65261,5.80374 -13.0299,7.46327 -0.87427,1.05343 -0.62487,1.8367 1.09498,3.43899 1.22491,1.14118 3.04778,2.33534 4.05083,2.65369 1.70294,0.5405 1.82371,2.28942 1.82371,26.4109 l 0,25.83207 7.75,4.50234 c 4.2625,2.47628 8.2927,4.54652 8.95599,4.60054 0.6633,0.054 3.5883,-1.29918 6.5,-3.00709 z m -9.45599,-5.52829 -3.75,-2.39554 0,-25.42145 0,-25.42146 -4.0193,-2.25897 c -3.53664,-1.98771 -3.84274,-2.43554 -2.54898,-3.72929 1.29375,-1.29375 1.95653,-1.14855 5.5193,1.20918 l 4.04898,2.67949 0.0153,24.73581 c 0.008,13.60469 0.34592,25.23552 0.75,25.84628 0.40408,0.61075 2.19719,1.85981 3.98469,2.77568 3.74875,1.92076 3.87654,2.21548 1.5,3.45965 -1.26584,0.6627 -2.78748,0.25341 -5.5,-1.47938 z m 18.25407,-52.86228 c -3.47707,-3.54287 -4.15321,-4.755 -3.18979,-5.71842 0.96342,-0.96342 2.19943,-0.2457 5.83108,3.38596 2.56573,2.56572 4.30446,5.1005 3.92256,5.71842 -1.09989,1.77966 -1.8985,1.36769 -6.56385,-3.38596 z m 61.49565,52.62727 c 8.49514,-4.96734 15.14031,-9.50073 15.32391,-10.4541 0.6681,-3.46919 -2.9234,-2.77052 -11.76383,2.28847 l -9.00681,5.1542 -5.7765,-3.37535 -5.77649,-3.37534 0,-5.81777 0,-5.81778 16.29009,-9.47664 16.29009,-9.47665 -0.29009,-7.49058 -0.29009,-7.49057 -11.89789,-6.91013 -11.89789,-6.91013 -6.60211,3.62697 c -3.63116,1.99484 -10.76461,6.0758 -15.85211,9.06882 l -9.25,5.44184 0,23.21517 0,23.21518 11.25,6.62253 c 6.1875,3.6424 11.925,6.6473 12.75,6.67757 0.825,0.0303 8.24988,-3.8918 16.49972,-8.71571 z m -22.60419,-1.49476 -7.39553,-4.19852 0,-22.95537 c 0,-19.60937 0.21864,-22.99759 1.5,-23.24502 1.30376,-0.25175 1.45644,2.49636 1.16704,21.00624 -0.37999,24.30326 -1.1797,21.9615 9.52915,27.90385 5.44945,3.02391 5.97919,3.57381 4.39553,4.56282 -1.47313,0.91998 -3.14588,0.36084 -9.19619,-3.074 z M 319,142.97078 C 319,135.28685 319.25737,129 319.57193,129 c 0.31456,0 2.58064,1.17718 5.03574,2.61597 l 4.46381,2.61596 -0.30979,8.57816 -0.30979,8.57816 -4.72595,2.77666 -4.72595,2.77666 0,-13.97079 z m 19,-3.73663 0,-6.83622 -7.55502,-4.29849 c -6.84837,-3.89643 -7.38619,-4.42232 -5.75,-5.62238 1.52615,-1.11936 2.26852,-1.04707 4.80502,0.4679 1.65,0.98548 5.1375,3.01878 7.75,4.51844 l 4.75,2.72664 0,6.8698 c 0,5.84634 -0.29796,7.02925 -2,7.94016 -1.90934,1.02185 -2,0.76049 -2,-5.76585 z m 63.49055,44.96911 c 14.22778,-8.30225 17.71106,-11.42119 14.24204,-12.75238 -0.77837,-0.29869 -5.34712,1.72767 -10.15277,4.50302 -4.80566,2.77536 -8.90295,5.0461 -9.10511,5.0461 -0.20216,0 -3.02093,-1.5551 -6.26394,-3.45578 l -5.89639,-3.45577 0.0929,-5.64213 0.0929,-5.64213 16.24987,-9.49333 16.24987,-9.49334 0,-7.35042 0,-7.35043 -9.25,-5.42303 c -16.58828,-9.72528 -13.08758,-9.70578 -29.75,-0.16571 -7.975,4.56609 -15.07088,8.81582 -15.76863,9.44385 -0.96956,0.87269 -1.2053,6.48683 -1,23.81467 l 0.26863,22.6728 11.5,6.72724 c 6.325,3.69997 11.95,6.73553 12.5,6.74567 0.55,0.0101 7.74575,-3.91786 15.99055,-8.7289 z M 378.69939,182.39442 371,177.9319 l 0,-22.43077 c 0,-21.40731 0.0913,-22.4796 2,-23.50113 1.97239,-1.05559 2,-0.76049 2,21.37875 l 0,22.44912 6.25,3.55723 c 9.50862,5.4119 9.31925,5.23988 7.08449,6.43589 -1.56642,0.83832 -3.40457,0.18461 -9.6351,-3.42657 z M 384,142.5 c 0,-7.425 0.3375,-13.4926 0.75,-13.48355 0.4125,0.009 2.55,1.03457 4.75,2.27894 l 4,2.26248 0.28483,9.01735 0.28483,9.01735 -3.92098,2.20371 C 387.99213,155.00833 385.72646,156 385.11385,156 384.35039,156 384,151.75322 384,142.5 Z m 20,-2.96465 0,-6.4816 -8.0535,-4.64525 c -7.55142,-4.35566 -7.92988,-4.73184 -6.07072,-6.03404 1.7834,-1.24915 2.79428,-0.91452 10.0535,3.32796 l 8.07072,4.71676 0,6.54986 c 0,5.46686 -0.3307,6.75639 -2,7.79889 -1.92276,1.20078 -2,0.99869 -2,-5.23258 z M 320,93 l 0,-7 -6,0 c -5.73333,0 -6,0.111111 -6,2.5 0,2.111111 0.46667,2.5 3,2.5 2.33333,0 3,0.444444 3,2 0,1.777778 -0.66667,2 -6,2 l -6,0 0,-6.5 0,-6.5 9,0 c 8.93333,0 9,-0.01852 9,-2.5 0,-1.375 -0.5625,-2.522511 -1.25,-2.550024 -0.6875,-0.02751 -5.00732,-0.06385 -9.59959,-0.08075 -7.31215,-0.02691 -8.64785,0.249468 -10.75,2.224338 C 296.3092,81.058151 296,82.251752 296,88.359863 c 0,5.822297 0.36871,7.40371 2.17431,9.325686 1.98667,2.114708 3.0223,2.314451 12,2.314451 l 9.82569,0 0,-7 z m 45,4.5 c 0,-2.481481 -0.0667,-2.5 -9,-2.5 -8.33333,0 -9,-0.148148 -9,-2 0,-1.703704 0.66667,-2 4.5,-2 4.13333,0 4.5,-0.203704 4.5,-2.5 0,-2.296296 -0.36667,-2.5 -4.5,-2.5 -3.83333,0 -4.5,-0.296296 -4.5,-2 0,-1.852937 0.66667,-2 9.06642,-2 l 9.06642,0 -0.31642,-2.583342 -0.31642,-2.583342 -11,0.0048 -11,0.0048 -0.28174,11.578494 -0.28173,11.57859 11.53173,0 11.53174,0 0,-2.5 z m 36.5,-6.5 0,-8.5 4.5,-0.5 c 3.72121,-0.413468 4.5553,-0.889395 4.81955,-2.75 0.17575,-1.2375 -0.16175,-2.267308 -0.75,-2.288462 -0.58825,-0.02115 -5.90705,-0.05866 -11.81955,-0.08334 l -10.75,-0.04488 -0.31642,2.583342 C 386.88388,81.863492 387.10845,82 391.43358,82 L 396,82 l 0,9.066422 0,9.066418 2.75,-0.316418 2.75,-0.316422 0,-8.5 z"
       style="fill:#211d1e" />
    <path
       id="path4445"
       d="m 217.98773,232.25179 c 8.62306,-0.30277 9.73516,-0.57018 12.20266,-2.93419 2.10952,-2.02105 2.79573,-3.74017 3.07728,-7.70933 l 0.36237,-5.10827 0.18498,5.32692 c 0.16254,4.68062 -0.16967,5.68158 -2.7381,8.25 -2.86994,2.86994 -3.10171,2.91931 -12.75,2.71554 l -9.82692,-0.20754 9.48773,-0.33313 z m 45.2813,0.0552 c 0.97297,-0.25354 2.32297,-0.23687 3,0.0371 0.67703,0.27393 -0.11903,0.48137 -1.76903,0.46099 -1.65,-0.0204 -2.20394,-0.2445 -1.23097,-0.49804 z m 34.41806,-2.11173 C 295.2586,227.66048 295,226.668 295,219.88237 c 0,-6.92089 0.21939,-7.71838 2.80472,-10.19528 C 300.33142,207.26636 301.34203,207 308,207 c 6.65797,0 7.66858,0.26636 10.19528,2.68709 2.59366,2.48488 2.80472,3.26192 2.80472,10.32569 0,6.85486 -0.2565,7.87956 -2.5,9.98722 -1.375,1.29175 -2.5,1.824 -2.5,1.18279 0,-0.64121 0.9,-1.7279 2,-2.41486 1.71444,-1.07069 2,-2.33203 2,-8.83416 0,-6.63569 -0.28971,-7.85731 -2.31445,-9.75946 C 315.73333,208.3403 314.19552,208 307.85986,208 c -6.55843,0 -7.78704,0.29359 -9.68555,2.31445 -1.83401,1.95222 -2.17431,3.49003 -2.17431,9.82569 0,10.09871 1.51051,11.62177 12.01272,12.11256 l 7.48728,0.34991 -7.56291,0.19869 c -7.1031,0.18662 -7.72628,0.0282 -10.25,-2.60602 z m 45.50908,-0.49289 C 340.25755,226.67051 340,225.87322 340,219.80815 c 0,-5.89935 0.30667,-6.92493 2.90121,-9.70239 C 345.642,207.17173 346.21224,207 353.21412,207 c 6.86453,0 7.61579,0.21303 10.17625,2.88557 3.75512,3.9195 3.40861,8.55715 -0.65274,8.73624 -2.52995,0.11157 -2.55098,0.0849 -0.25,-0.31642 3.34006,-0.58261 3.44945,-5.07642 0.19792,-8.13108 C 360.7644,208.36949 359.18182,208 353.37264,208 c -6.36241,0 -7.24267,0.25491 -9.68555,2.80472 -2.35357,2.45659 -2.68709,3.61252 -2.68709,9.31291 0,5.82525 0.29431,6.79016 2.80472,9.19528 2.49948,2.39465 3.56881,2.68709 9.82568,2.68709 5.99383,0 7.32735,-0.32917 9.11521,-2.25 1.15183,-1.2375 2.28785,-3.6 2.52448,-5.25 l 0.43025,-3 0.14983,3.06291 c 0.10642,2.17552 -0.66276,3.84141 -2.65489,5.75 -2.49778,2.39302 -3.57067,2.68709 -9.80383,2.68709 -6.60434,0 -7.17939,-0.186 -10.19528,-3.29761 z m 45.07286,2.60462 c 0.97297,-0.25354 2.32297,-0.23687 3,0.0371 0.67703,0.27393 -0.11903,0.48137 -1.76903,0.46099 -1.65,-0.0204 -2.20394,-0.2445 -1.23097,-0.49804 z M 402.44713,228.5 c -2.14529,-3.66066 -3.16775,-4.5 -5.48179,-4.5 -2.5507,0 -2.88514,0.38745 -3.23687,3.75 l -0.39226,3.75 -0.16811,-4.25 L 393,223 l 3.75172,0 c 3.41924,0 3.96067,0.39389 6.10969,4.44482 1.89638,3.57471 2.97271,4.52218 5.49828,4.83997 l 3.14031,0.39514 -3.20785,0.16003 c -2.8111,0.14025 -3.534,-0.39651 -5.84502,-4.33996 z M 179.5,229 c 0.99549,-1.1 2.03498,-2 2.30998,-2 0.275,0 -0.31449,0.9 -1.30998,2 -0.99549,1.1 -2.03498,2 -2.30998,2 -0.275,0 0.31449,-0.9 1.30998,-2 z m 28.65789,0 c 0,-1.375 0.22698,-1.9375 0.50439,-1.25 0.27741,0.6875 0.27741,1.8125 0,2.5 -0.27741,0.6875 -0.50439,0.125 -0.50439,-1.25 z M 260,223.06037 l 0,-7.93964 -3.75,-0.39226 -3.75,-0.39226 4.25,-0.16811 L 261,214 l 0,8.5 c 0,4.675 -0.225,8.5 -0.5,8.5 -0.275,0 -0.5,-3.57284 -0.5,-7.93963 z m 7.9939,-0.3127 -0.4939,-8.75234 4.5,0.17044 c 4.30349,0.16299 4.33797,0.18746 0.78951,0.56034 l -3.7105,0.38991 -0.29561,8.19199 -0.29561,8.19199 -0.49389,-8.75233 z M 386.45024,219.25173 386.5,207.5 l 2.76237,-0.12181 c 2.46651,-0.10877 2.49663,-0.0752 0.28119,0.31341 -2.44795,0.4294 -2.48562,0.58846 -2.81213,11.87355 l -0.33095,11.43831 0.0498,-11.75173 z m 21.93485,5.9224 -3.09999,-5.67413 3.35332,-5.5 c 4.03287,-6.6146 4.48613,-5.79743 0.61158,1.10262 L 406.5,220 l 2.8469,5.06976 c 1.5658,2.78837 2.68744,5.22923 2.49254,5.42414 -0.1949,0.1949 -1.74936,-2.199 -3.45435,-5.31977 z M 184.46838,221.5 c 1.53863,-2.75 3.26174,-5.45 3.82914,-6 0.56739,-0.55 -0.22726,1.25 -1.7659,4 -1.53863,2.75 -3.26174,5.45 -3.82914,6 -0.56739,0.55 0.22726,-1.25 1.7659,-4 z m 33.03162,3.58408 9,-0.50465 -9,-0.60075 -9,-0.60074 9.25,-0.18897 c 7.63954,-0.15607 9.25,0.0722 9.25,1.31103 0,1.24005 -1.60305,1.46436 -9.25,1.29436 l -9.25,-0.20563 9,-0.50465 z M 302,220 l 0,-6 6,0 6,0 0,6 0,6 -6,0 -6,0 0,-6 z m 11,0 0,-5 -5,0 -5,0 0,5 0,5 5,0 5,0 0,-5 z m 34,0 0,-6 6.46862,0 c 5.67642,0 6.38875,0.20812 5.81647,1.69944 -0.4079,1.06297 -0.80187,1.25023 -1.05194,0.5 C 357.99457,215.4837 355.85057,215 352.91667,215 L 348,215 l 0,5 0,5 4.92668,0 c 3.88682,0 5.00345,-0.36936 5.29044,-1.75 0.29579,-1.423 0.47885,-1.32957 0.9797,0.5 0.5922,2.16329 0.36905,2.25 -5.79044,2.25 L 347,226 l 0,-6 z m -207,1.62244 c 0,-0.20765 0.76138,-0.99515 1.69196,-1.75 1.14966,-0.93255 1.45126,-0.9718 0.94098,-0.12244 -0.5894,0.98105 3.02698,1.25 16.80804,1.25 C 170.48033,221 177,220.6287 177,220 c 0,-0.55 0.43588,-1 0.96862,-1 0.53273,0 0.70959,0.675 0.39301,1.5 -0.48355,1.26009 -3.59732,1.5 -19.46862,1.5 C 148.50186,222 140,221.8301 140,221.62244 Z m 68.18025,-4.18535 c -0.15602,-4.38221 0.20239,-5.4295 2.66576,-7.78956 2.74957,-2.63426 3.1647,-2.71541 12.25,-2.39464 l 9.40399,0.33203 -9.57569,0.20754 c -11.57732,0.25092 -13.55985,1.6081 -14.18061,9.70754 l -0.3832,5 -0.18025,-5.06291 z M 360.75,220.33772 c 0.6875,-0.27741 1.8125,-0.27741 2.5,0 0.6875,0.27741 0.125,0.50439 -1.25,0.50439 -1.375,0 -1.9375,-0.22698 -1.25,-0.50439 z M 215,215.5 c 0,-1.23324 1.55609,-1.46687 8.75,-1.3137 l 8.75,0.18631 -8.5,0.60512 -8.5,0.60512 8.5,0.50503 8.5,0.50503 -8.75,0.20354 C 216.54842,216.96398 215,216.73456 215,215.5 Z m 178.1681,-2.75 0.16811,-4.25 0.39226,3.75 c 0.34617,3.30938 0.70914,3.75 3.08918,3.75 2.12699,0 3.27131,-0.95095 5.41501,-4.5 2.38995,-3.95673 3.11344,-4.48068 5.99272,-4.33996 l 3.27462,0.16003 -3.03591,0.38736 c -2.33388,0.29778 -3.65781,1.41697 -5.72538,4.83996 -2.36731,3.91925 -3.11167,4.45261 -6.21409,4.45261 -3.50631,0 -3.52375,-0.0221 -3.35652,-4.25 z m -203.43689,-0.83016 c 0.35361,-1.3522 0.8069,-1.8055 1.05655,-1.05655 0.24048,0.72144 -0.0382,1.78716 -0.61931,2.36826 -0.74207,0.74207 -0.87221,0.35164 -0.43724,-1.31171 z M 233.19495,210.5 c 0.0204,-1.65 0.2445,-2.20394 0.49804,-1.23097 0.25354,0.97297 0.23687,2.32297 -0.0371,3 -0.27393,0.67703 -0.48137,-0.11903 -0.46099,-1.76903 z m 17.96294,0.5 c 0,-1.375 0.22698,-1.9375 0.50439,-1.25 0.27741,0.6875 0.27741,1.8125 0,2.5 -0.27741,0.6875 -0.50439,0.125 -0.50439,-1.25 z m 26,0 c 0,-1.375 0.22698,-1.9375 0.50439,-1.25 0.27741,0.6875 0.27741,1.8125 0,2.5 -0.27741,0.6875 -0.50439,0.125 -0.50439,-1.25 z M 152.23294,168.40499 c -0.21559,-37.10926 -0.10262,-40.20866 1.51706,-41.62113 0.9625,-0.83937 5.4625,-3.6485 10,-6.24251 4.5375,-2.59402 8.25,-4.9172 8.25,-5.16264 0,-0.24543 -9.26619,-0.39724 -20.59153,-0.33734 -11.32534,0.0599 -20.85034,-0.14991 -21.16667,-0.46623 -0.31632,-0.31633 9.96237,-0.56787 22.84153,-0.55899 l 23.41667,0.0161 -11.5,6.77392 -11.5,6.77391 -0.51706,40.45994 -0.51706,40.45994 -0.23294,-40.09501 z m 15.85039,39.22219 c 0.22917,-0.20506 1.99167,-1.13214 3.91667,-2.0602 l 3.5,-1.68737 -2.5,2.03796 c -1.375,1.12088 -3.1375,2.04796 -3.91667,2.06019 -0.77916,0.0122 -1.22916,-0.14553 -1,-0.35058 z m 10.68458,-0.35191 c 1.79735,-0.22256 4.49735,-0.21797 6,0.0102 1.50265,0.22818 0.0321,0.41027 -3.26791,0.40466 -3.3,-0.006 -4.52944,-0.1923 -2.73209,-0.41486 z m 80.02128,-0.0167 c 3.45905,-0.19583 8.85905,-0.19422 12,0.004 3.14094,0.19781 0.31081,0.35803 -6.28919,0.35606 -6.6,-0.002 -9.16987,-0.16382 -5.71081,-0.35965 z M 176,203.57037 c 0,-0.275 0.9,-0.98167 2,-1.57037 1.1,-0.5887 2,-0.84537 2,-0.57037 0,0.275 -0.9,0.98167 -2,1.57037 -1.1,0.5887 -2,0.84537 -2,0.57037 z m -11.25,-1.71112 c 0.96271,-0.96984 1.19821,-9.65947 1.02464,-37.80925 l -0.22536,-36.55 -0.55768,27 -0.55768,27 0.033,-26.91712 c 0.0253,-20.62118 0.32542,-27.01447 1.28304,-27.33333 0.98517,-0.32804 1.25,7.52374 1.25,37.06013 0,34.77128 -0.12632,37.52443 -1.75,38.14258 -1.40315,0.53418 -1.50225,0.41665 -0.5,-0.59301 z M 181,200.62244 c 0,-0.20765 0.7875,-0.99515 1.75,-1.75 1.58606,-1.24387 1.62143,-1.2085 0.37756,0.37756 C 181.82119,200.91575 181,201.44548 181,200.62244 Z m -4,-42.39301 c 0,-32.86902 0.20307,-38.09338 1.5,-38.59106 1.31683,-0.50531 1.5,3.98482 1.5,36.77057 0,31.97665 -0.21567,37.52516 -1.5,38.59106 -1.32886,1.10286 -1.5,-3.09243 -1.5,-36.77057 z m 1.74886,-18.91403 c -0.16266,-10.34847 -0.296,-2.1654 -0.29631,18.1846 -3.1e-4,20.35 0.13278,28.81693 0.29575,18.8154 0.16297,-10.00152 0.16322,-26.65152 5.6e-4,-37 z m 9.67195,52.32144 c 1.14355,-2.34853 2.21902,-3.93309 2.38993,-3.52124 0.37232,0.89724 -2.44617,6.54105 -3.63282,7.27444 -0.45996,0.28427 0.0993,-1.40467 1.24289,-3.7532 z M 252.25,190.42667 c -8.51956,-4.82887 -7.93404,-5.37037 0.75184,-0.69531 l 7.00184,3.76864 6.74816,-3.63305 c 3.71149,-1.99818 6.88925,-4.3378 7.06169,-5.19916 0.18169,-0.90753 -1.1798,-2.53366 -3.23762,-3.86695 L 267.02476,178.5 267.01238,158.62005 267,138.74009 l 4.31337,3.87996 c 2.37236,2.13397 4.16562,4.07419 3.98502,4.3116 -0.18059,0.2374 -1.89661,-1.08837 -3.81337,-2.94617 L 268,140.60767 l -4e-5,18.44616 -5e-5,18.44617 3.67136,3.08238 c 2.43314,2.04281 3.46649,3.61625 3.06391,4.66534 -0.66766,1.73991 -12.5872,8.76151 -14.83128,8.73686 -0.77214,-0.008 -4.2164,-1.60954 -7.6539,-3.55791 z m 54.82332,-3.18219 C 300.78865,183.53501 295.44952,179.825 295.20857,179 c -0.34551,-1.18304 -0.1497,-1.15054 0.92668,0.15384 1.59176,1.92895 20.19435,12.76434 23.86475,13.90043 2.04262,0.63225 2.1341,0.78854 0.5,0.85425 -1.1,0.0442 -7.142,-2.95458 -13.42668,-6.66404 z M 384,193.61658 c 0,-0.21089 1.11138,-0.59588 2.46974,-0.85555 1.35835,-0.25966 2.2318,-0.0871 1.94098,0.38343 C 387.89864,193.97302 384,194.39033 384,193.61658 Z m -61,-0.9226 c 0,-0.23322 3.7125,-2.56897 8.25,-5.19055 4.5375,-2.62158 10.1625,-5.87508 12.5,-7.22999 2.3375,-1.35492 4.25,-2.24057 4.25,-1.96813 0,0.27245 -5.2875,3.53745 -11.75,7.25556 -14.11543,8.12112 -13.25,7.65522 -13.25,7.13311 z m 56.75,-1.26595 c -3.73844,-2.02814 -3.51088,-2.87286 0.25,-0.92803 1.65,0.85325 3,1.7648 3,2.02568 0,0.6435 -0.10745,0.60721 -3.25,-1.09765 z m 10.75,-0.15342 c 0.55,-0.52001 3.25,-2.17286 6,-3.67301 2.75,-1.50015 4.1,-1.98898 3,-1.08629 -2.23786,1.83645 -10.56736,6.24118 -9,4.7593 z m -17.75,-3.84658 c -3.73844,-2.02814 -3.51088,-2.87286 0.25,-0.92803 1.65,0.85325 3,1.7648 3,2.02568 0,0.6435 -0.10745,0.60721 -3.25,-1.09765 z m -181.53624,-13.8447 c -0.11757,-7.10416 -0.10126,-12.71564 0.0362,-12.46994 0.1375,0.2457 4.075,4.48315 8.75,9.41655 l 8.5,8.96984 -8.21545,-7.94209 -8.21545,-7.94208 -0.3208,11.4422 -0.32079,11.44219 -0.21375,-12.91667 z M 242.87244,184.25 c -1.24387,-1.58606 -1.2085,-1.62143 0.37756,-0.37756 0.9625,0.75485 1.75,1.54235 1.75,1.75 0,0.82304 -0.82119,0.29331 -2.12756,-1.37244 z m 14.10007,0.0816 c -1.35988,-0.91762 -2.69751,-1.85424 -2.97251,-2.08138 -0.275,-0.22715 -0.725,-11.95018 -1,-26.05119 l -0.5,-25.6382 -3.97198,-2.22662 c -3.21596,-1.8028 -3.6408,-2.35369 -2.23204,-2.89429 2.24956,-0.86323 7.50511,1.31991 8.74224,3.6315 C 255.57888,130.08165 256,141.5998 256,155.37758 l 0,24.50906 4.00294,2.38707 c 3.90559,2.32901 4.30041,3.72629 1.0529,3.72629 -0.88596,0 -2.72346,-0.75078 -4.08333,-1.66841 z m 1.92537,-1.62077 -3.39788,-2.28918 -0.26705,-25.15165 -0.26704,-25.15165 -2.61782,-2.05917 C 250.9083,126.92663 249.04942,126 248.21726,126 c -0.83217,0 0.016,1.03013 1.88486,2.28918 l 3.39788,2.28918 0.26705,25.15165 0.26704,25.15165 2.61782,2.05917 c 1.43979,1.13254 3.29867,2.05917 4.13083,2.05917 0.83217,0 -0.016,-1.03013 -1.88486,-2.28918 z m 57.84454,1.37517 c -4.56464,-2.92628 -4.51484,-3.46924 0.10449,-1.13915 2.39079,1.20598 4.5719,1.96768 4.8469,1.69268 0.275,-0.275 -1.45611,-1.49015 -3.8469,-2.70034 -2.3908,-1.21019 -5.57553,-3.06591 -7.07718,-4.12381 l -2.73027,-1.92346 -0.29071,-21.19595 -0.29071,-21.19596 -0.22902,21.66659 -0.22902,21.6666 2.75,2.13186 2.75,2.13186 -3.25,-1.57414 -3.25,-1.57413 0,-22.36733 c 0,-18.95958 0.22853,-22.45503 1.5,-22.94294 1.30519,-0.50085 1.5,2.26862 1.5,21.3248 l 0,21.9004 7.45269,4.24026 c 7.00094,3.98323 8.63511,5.99153 4.73829,5.82307 -0.93004,-0.0402 -2.93189,-0.86861 -4.44856,-1.84091 z m 66.00758,0.34204 c -3.70854,-2.01192 -3.52604,-2.8807 0.20034,-0.95371 3.80608,1.9682 6.43289,1.92476 2.79966,-0.0463 -3.96276,-2.14984 -3.38869,-2.70024 0.75527,-0.72413 2.41963,1.15385 3.11649,1.91838 2.25,2.46851 -1.74675,1.109 -2.83836,0.97369 -6.00527,-0.74438 z m -17,-1 c -3.73844,-2.02814 -3.51088,-2.87286 0.25,-0.92803 1.65,0.85325 3,1.7648 3,2.02568 0,0.6435 -0.10745,0.60721 -3.25,-1.09765 z m 38.25,0.14234 c 0,-0.275 0.9,-0.98167 2,-1.57037 1.1,-0.5887 2,-0.84537 2,-0.57037 0,0.275 -0.9,0.98167 -2,1.57037 -1.1,0.5887 -2,0.84537 -2,0.57037 z M 241.00004,157.75 l 5e-5,-24.25 -3.67136,-3.08238 c -2.36359,-1.98441 -3.46175,-3.62858 -3.08294,-4.61576 0.32363,-0.84336 3.81246,-3.39218 7.75296,-5.66405 l 7.16454,-4.13066 6.84283,3.99642 c 3.76355,2.19804 7.19886,3.99643 7.634,3.99643 0.43515,0 2.99735,-2.1375 5.69378,-4.75 2.69643,-2.6125 4.42617,-3.85 3.84387,-2.75 -0.58231,1.1 -2.82659,3.63746 -4.9873,5.6388 l -3.92857,3.63881 -7.55769,-4.3804 -7.55769,-4.38039 -7.07326,4.07803 c -3.89029,2.24292 -7.07326,4.71 -7.07326,5.4824 0,0.7724 1.56943,2.421 3.48762,3.66356 l 3.48762,2.25919 0.0124,24.75 C 241.99443,170.8625 241.775,182 241.5,182 c -0.275,0 -0.49998,-10.9125 -0.49996,-24.25 z m 135.44109,22.69483 c -1.86402,-1.49339 -1.85176,-1.51185 0.30887,-0.46481 1.2375,0.59969 2.25,1.29951 2.25,1.55516 0,0.76522 -0.51861,0.54424 -2.55887,-1.09035 z m -50.7756,-2.8396 -5.6384,-3.10523 -0.0136,-5.73746 c -0.0131,-5.55441 0.10608,-5.81181 3.73644,-8.06822 6.80566,-4.22997 15.25,-8.84964 15.25,-8.34286 0,0.27403 -4.05,2.81587 -9,5.64854 l -9,5.1503 0,5.34231 0,5.3423 5.1205,2.9563 5.12049,2.9563 8.28072,-4.87375 C 344.0761,172.19319 348.43188,170 349.20121,170 c 1.88109,0 3.81338,2.0433 3.7354,3.95 -0.0389,0.9508 -0.413,0.6802 -0.96777,-0.7 -1.29988,-3.23393 -3.15664,-2.84432 -12.41566,2.60523 l -8.24924,4.85523 -5.63841,-3.10523 z m 53.7756,1.8396 c -1.86402,-1.49339 -1.85176,-1.51185 0.30887,-0.46481 1.2375,0.59969 2.25,1.29951 2.25,1.55516 0,0.76522 -0.51861,0.54424 -2.55887,-1.09035 z m 16.16188,0.72184 c -0.28327,-0.45834 0.12038,-0.83334 0.89699,-0.83334 0.77661,0 1.18026,0.375 0.89699,0.83334 C 397.11373,180.625 396.71008,181 396.5,181 c -0.21008,0 -0.61373,-0.375 -0.89699,-0.83333 z M 210.5,179.0351 c 1.1,-0.46097 7.5125,-6.43508 14.25,-13.27579 6.7375,-6.84071 12.25,-11.97655 12.25,-11.41297 0,1.86508 -24.80476,25.65567 -26.68116,25.59027 -1.63005,-0.0568 -1.61125,-0.15038 0.18116,-0.90151 z M 360.43125,156.5 c 6.6e-4,-13.2 0.14295,-18.46169 0.31621,-11.69265 0.17326,6.76904 0.17273,17.56904 -10e-4,24 -0.1741,6.43096 -0.31586,0.89265 -0.31521,-12.30735 z M 411,179.57037 c 0,-0.275 0.9,-0.98167 2,-1.57037 1.1,-0.5887 2,-0.84537 2,-0.57037 0,0.275 -0.9,0.98167 -2,1.57037 -1.1,0.5887 -2,0.84537 -2,0.57037 z m -38.84839,-1.45551 c -0.74162,-0.46998 -1.19162,-1.58226 -1,-2.47172 0.26296,-1.22067 0.63182,-1.00739 1.5043,0.86983 0.63576,1.36787 1.08576,2.48014 1,2.47172 -0.0858,-0.008 -0.76269,-0.39985 -1.5043,-0.86983 z m 17.28952,-1.67003 c -1.86402,-1.49339 -1.85176,-1.51185 0.30887,-0.46481 1.2375,0.59969 2.25,1.29951 2.25,1.55516 0,0.76522 -0.51861,0.54424 -2.55887,-1.09035 z M 403,176.57037 c 0,-0.275 0.9,-0.98167 2,-1.57037 1.1,-0.5887 2,-0.84537 2,-0.57037 0,0.275 -0.9,0.98167 -2,1.57037 -1.1,0.5887 -2,0.84537 -2,0.57037 z m -17.33333,-2.23704 c -0.91732,-0.91731 -0.84463,-11.10531 0.0833,-11.67882 0.4125,-0.25494 0.75,2.4185 0.75,5.94098 0,3.52248 -0.0375,6.40451 -0.0833,6.40451 -0.0458,0 -0.38334,-0.3 -0.75,-0.66667 z M 408,173.57037 c 0,-0.275 0.9,-0.98167 2,-1.57037 1.1,-0.5887 2,-0.84537 2,-0.57037 0,0.275 -0.9,0.98167 -2,1.57037 -1.1,0.5887 -2,0.84537 -2,0.57037 z M 371.27236,168 c 0,-2.475 0.19502,-3.4875 0.43337,-2.25 0.23836,1.2375 0.23836,3.2625 0,4.5 -0.23835,1.2375 -0.43337,0.225 -0.43337,-2.25 z m -165.05804,-0.24176 c -1.66182,-2.00238 16.16039,-19.78353 17.99269,-17.95123 0.98164,0.98164 -0.62637,3.09884 -7.80816,10.28062 -7.32418,7.32419 -9.26124,8.78311 -10.18453,7.67061 z m 9.66602,-8.942 c 4.44701,-4.50107 7.85102,-8.41821 7.56447,-8.70476 -0.28655,-0.28655 -4.43814,3.39614 -9.22576,8.18376 -4.78762,4.78762 -8.19163,8.70476 -7.56447,8.70476 0.62717,0 4.77876,-3.68269 9.22576,-8.18376 z M 388,161.55136 c 0,-0.275 1.35,-1.19811 3,-2.05136 1.65,-0.85325 3,-1.32636 3,-1.05136 0,0.275 -1.35,1.19811 -3,2.05136 -1.65,0.85325 -3,1.32636 -3,1.05136 z m -191.519,-3.58211 c -1.12862,-1.82614 16.87437,-19.5043 18.11206,-17.78526 0.69547,0.96594 -1.4891,3.66569 -8.21239,10.14912 -6.0936,5.8762 -9.40755,8.43242 -9.89967,7.63614 z M 214,140.54416 c 0,-0.55 -3.825,2.80513 -8.5,7.45584 -4.675,4.65071 -8.5,8.90584 -8.5,9.45584 0,0.55 3.825,-2.80513 8.5,-7.45584 4.675,-4.65071 8.5,-8.90584 8.5,-9.45584 z m 181,17.02621 c 0,-0.275 0.9,-0.98167 2,-1.57037 1.1,-0.5887 2,-0.84537 2,-0.57037 0,0.275 -0.9,0.98167 -2,1.57037 -1.1,0.5887 -2,0.84537 -2,0.57037 z m -74.79246,-11.90345 0.20754,-10.16692 0.33007,9.25623 0.33007,9.25623 2.96239,-1.53191 C 326.95154,150.9737 327,150.8159 327,142.83456 c 0,-6.52182 -0.34341,-8.39183 -1.75,-9.52948 -1.5793,-1.27735 -1.53053,-1.30906 0.5,-0.32506 2.07886,1.00741 2.24937,1.75323 2.24175,9.80516 l -0.008,8.71482 -3.99175,2.16692 -3.99175,2.16692 0.20754,-10.16692 z M 385,142.36852 c 0,-7.53602 0.27659,-13.42526 0.61465,-13.08721 0.33805,0.33806 0.53904,6.09542 0.44663,12.79413 -0.14682,10.64381 0.0279,12.10433 1.38536,11.58341 2.22739,-0.85473 1.91746,0.0759 -0.44664,1.34115 -1.95477,1.04616 -2,0.76049 -2,-12.63148 z m -160.51705,-1.43529 c -6.04062,-6.08672 -11.79922,-11.51795 -12.79688,-12.0694 -1.52008,-0.8402 -3.34257,0.49645 -11.25,8.25099 L 191,146.36844 191,130.18422 191,114 l 28.34107,0 c 21.99456,0 29.42989,-0.32769 33.20334,-1.46333 2.67425,-0.80483 5.04015,-1.28544 5.25756,-1.06803 0.21742,0.21741 -1.98076,1.10091 -4.88484,1.96333 C 248.6745,114.6919 242.1709,115 219.8185,115 L 192,115 l 0,14.68097 0,14.68096 8.94,-8.74826 c 7.47137,-7.31112 9.23734,-8.58385 10.75,-7.74744 1.92017,1.06175 25.12878,24.13377 24.27663,24.13377 -0.2754,0 -5.44306,-4.98005 -11.48368,-11.06677 z M 340,151.55136 c 0,-0.275 1.35,-1.19811 3,-2.05136 1.65,-0.85325 3,-1.32636 3,-1.05136 0,0.275 -1.35,1.19811 -3,2.05136 -1.65,0.85325 -3,1.32636 -3,1.05136 z m -201.49292,-3.53991 c -0.35141,-0.56859 0.0538,-0.73347 0.95372,-0.38812 0.86057,0.33023 2.34644,-0.0124 3.30193,-0.76145 1.57173,-1.23211 1.60649,-1.19513 0.36483,0.38812 -1.51642,1.93357 -3.6761,2.28949 -4.62048,0.76145 z M 347,147.57037 c 0,-0.275 0.9,-0.98167 2,-1.57037 1.1,-0.5887 2,-0.84537 2,-0.57037 0,0.275 -0.9,0.98167 -2,1.57037 -1.1,0.5887 -2,0.84537 -2,0.57037 z m -213.25,-2.14234 c -3.73844,-2.02814 -3.51088,-2.87286 0.25,-0.92803 1.65,0.85325 3,1.7648 3,2.02568 0,0.6435 -0.10745,0.60721 -3.25,-1.09765 z M 284.60658,139.831 C 288.67296,135.88805 292,131.93929 292,131.05597 c 0,-1.69876 -13.44571,-15.44848 -16,-16.36176 -1.31722,-0.47096 -1.31436,-0.54594 0.0235,-0.61526 C 277.92051,113.98064 293,129.00961 293,130.99861 293,132.41289 279.21784,147 277.88161,147 c -0.36765,0 2.65859,-3.22605 6.72497,-7.169 z M 144.0856,144.5 c 0.10413,-1.89422 1.77076,-5.08385 1.8288,-3.5 0.0302,0.825 -0.38124,2.175 -0.9144,3 -0.53316,0.825 -0.94464,1.05 -0.9144,0.5 z M 339,143.96862 C 339,143.43588 339.45,143 340,143 c 1.45966,0 1.23882,-11.35942 -0.25,-12.85925 -1.00225,-1.00966 -0.90315,-1.12719 0.5,-0.59301 2.38214,0.9069 2.6016,13.91149 0.25,14.81389 -0.825,0.31658 -1.5,0.13972 -1.5,-0.39301 z M 404.32007,139 c 0,-3.575 0.1815,-5.0375 0.40333,-3.25 0.22182,1.7875 0.22182,4.7125 0,6.5 -0.22183,1.7875 -0.40333,0.325 -0.40333,-3.25 z m -51.97726,-2.5 c 0.004,-4.4 0.17944,-6.07561 0.39069,-3.72357 0.21124,2.35204 0.20827,5.95204 -0.007,8 -0.21487,2.04796 -0.38771,0.12357 -0.38408,-4.27643 z m -226.90168,3.94483 c -1.86402,-1.49339 -1.85176,-1.51185 0.30887,-0.46481 1.2375,0.59969 2.25,1.29951 2.25,1.55516 0,0.76522 -0.51861,0.54424 -2.55887,-1.09035 z m -5,-3 c -1.86402,-1.49339 -1.85176,-1.51185 0.30887,-0.46481 1.2375,0.59969 2.25,1.29951 2.25,1.55516 0,0.76522 -0.51861,0.54424 -2.55887,-1.09035 z M 146.232,136 c 0,-1.925 0.2058,-2.7125 0.45733,-1.75 0.25152,0.9625 0.25152,2.5375 0,3.5 -0.25153,0.9625 -0.45733,0.175 -0.45733,-1.75 z m -7.357,-0.5 c -0.0687,-0.275 -0.18125,-0.97571 -0.25,-1.55712 -0.0687,-0.58142 -1.25,-1.95851 -2.625,-3.0602 l -2.5,-2.00307 3.25,1.58588 c 2.03374,0.99238 3.25,2.32473 3.25,3.56019 0,1.74888 -0.79568,2.79162 -1.125,1.47432 z m 136.25745,-3.86504 c -3.44914,-3.51442 -3.97717,-4.51894 -2.86194,-5.4445 1.07557,-0.89264 2.27055,-0.21487 5.59704,3.17458 3.44914,3.51442 3.97717,4.51894 2.86194,5.4445 -1.07557,0.89264 -2.27055,0.21487 -5.59704,-3.17458 z m 1.85303,-1.14994 C 275.12768,128.56826 273.15461,127 272.60089,127 c -0.55373,0 0.7428,1.79174 2.88119,3.98164 2.13838,2.18991 4.11145,3.75817 4.38459,3.48502 0.27314,-0.27314 -1.02339,-2.06488 -2.88119,-3.98164 z m -163.54435,2.95981 c -1.86402,-1.49339 -1.85176,-1.51185 0.30887,-0.46481 1.2375,0.59969 2.25,1.29951 2.25,1.55516 0,0.76522 -0.51861,0.54424 -2.55887,-1.09035 z m 258.78506,-0.0185 c 0.94941,-0.99401 2.00045,-1.53304 2.33565,-1.19784 0.3352,0.3352 -0.44159,1.14849 -1.72619,1.80729 -2.23286,1.14512 -2.25968,1.1183 -0.60946,-0.60945 z M 133.75,132.42803 c -3.73844,-2.02814 -3.51088,-2.87286 0.25,-0.92803 1.65,0.85325 3,1.7648 3,2.02568 0,0.6435 -0.10745,0.60721 -3.25,-1.09765 z m 11.32895,-2.01136 c 0.048,-1.16495 0.28494,-1.4019 0.60416,-0.60417 0.28887,0.72187 0.25335,1.58437 -0.0789,1.91667 -0.3323,0.33229 -0.56864,-0.25834 -0.52522,-1.3125 z m 151.00438,1.22967 C 297.42118,130.5108 306,125.89434 306,126.30996 306,126.92145 297.43639,132 296.40526,132 c -0.40622,0 -0.55109,-0.15915 -0.32193,-0.35366 z M 321,131 c -0.90129,-0.58246 -1.02463,-0.97549 -0.30902,-0.98469 0.65504,-0.008 1.4691,0.43469 1.80902,0.98469 0.7673,1.24153 0.42112,1.24153 -1.5,0 z m 43,-0.42963 c 0,-0.275 0.9,-0.98167 2,-1.57037 1.1,-0.5887 2,-0.84537 2,-0.57037 0,0.275 -0.9,0.98167 -2,1.57037 -1.1,0.5887 -2,0.84537 -2,0.57037 z m -237.25,-2.14234 c -3.73844,-2.02814 -3.51088,-2.87286 0.25,-0.92803 1.65,0.85325 3,1.7648 3,2.02568 0,0.6435 -0.10745,0.60721 -3.25,-1.09765 z m 270.69113,0.0168 c -1.86402,-1.49339 -1.85176,-1.51185 0.30887,-0.46481 1.2375,0.59969 2.25,1.29951 2.25,1.55516 0,0.76522 -0.51861,0.54424 -2.55887,-1.09035 z M 129.75,127.42803 c -3.73844,-2.02814 -3.51088,-2.87286 0.25,-0.92803 1.65,0.85325 3,1.7648 3,2.02568 0,0.6435 -0.10745,0.60721 -3.25,-1.09765 z m 200.69113,0.0168 c -1.86402,-1.49339 -1.85176,-1.51185 0.30887,-0.46481 1.2375,0.59969 2.25,1.29951 2.25,1.55516 0,0.76522 -0.51861,0.54424 -2.55887,-1.09035 z m -186.92982,-1.40921 c -0.34291,-1.08041 -2.73574,-3.84267 -5.31739,-6.13836 -2.58166,-2.2957 -3.75511,-3.68533 -2.60767,-3.08808 2.50352,1.30311 9.41375,8.78586 9.41375,10.1937 0,1.658 -0.82575,1.12148 -1.48869,-0.96726 z m 189.92982,0.40921 c -1.86402,-1.49339 -1.85176,-1.51185 0.30887,-0.46481 1.2375,0.59969 2.25,1.29951 2.25,1.55516 0,0.76522 -0.51861,0.54424 -2.55887,-1.09035 z m -214.76244,-2.76832 c -3.25177,-1.96848 -3.60039,-2.4966 -2.33903,-3.54344 1.15119,-0.9554 1.64837,-0.96146 2.22582,-0.0271 0.47138,0.76271 0.32096,0.9419 -0.41097,0.48954 C 117.51953,120.20305 117,120.34697 117,120.9153 c 0,0.56834 1.35,1.73145 3,2.5847 1.65,0.85325 3,1.7648 3,2.02568 0,0.72667 -0.22588,0.63001 -4.32131,-1.84917 z M 307,125.55136 c 0,-0.275 1.35,-1.19811 3,-2.05136 1.65,-0.85325 3,-1.32636 3,-1.05136 0,0.275 -1.35,1.19811 -3,2.05136 -1.65,0.85325 -3,1.32636 -3,1.05136 z m 18.44113,-0.97994 c -1.85127,-1.36244 -1.857,-1.46118 -0.12391,-2.13278 0.99947,-0.38731 2.30179,-0.21963 2.89405,0.37263 0.76911,0.76911 0.39269,0.91422 -1.31722,0.50781 -2.34624,-0.55766 -2.35411,-0.53721 -0.39405,1.02414 2.48998,1.98348 1.58978,2.17748 -1.05887,0.2282 z m 18,-1.12659 c -1.86402,-1.49339 -1.85176,-1.51185 0.30887,-0.46481 1.2375,0.59969 2.25,1.29951 2.25,1.55516 0,0.76522 -0.51861,0.54424 -2.55887,-1.09035 z m -222,-1 c -1.86402,-1.49339 -1.85176,-1.51185 0.30887,-0.46481 1.2375,0.59969 2.25,1.29951 2.25,1.55516 0,0.76522 -0.51861,0.54424 -2.55887,-1.09035 z M 376,123.57037 c 0,-0.275 0.9,-0.98167 2,-1.57037 1.1,-0.5887 2,-0.84537 2,-0.57037 0,0.275 -0.9,0.98167 -2,1.57037 -1.1,0.5887 -2,0.84537 -2,0.57037 z M 108.5,120 c 0.85325,-1.65 1.77636,-3 2.05136,-3 0.275,0 -0.19811,1.35 -1.05136,3 -0.85325,1.65 -1.77636,3 -2.05136,3 -0.275,0 0.19811,-1.35 1.05136,-3 z m 205.5,1.55136 c 0,-0.275 1.35,-1.19811 3,-2.05136 1.65,-0.85325 3,-1.32636 3,-1.05136 0,0.275 -1.35,1.19811 -3,2.05136 -1.65,0.85325 -3,1.32636 -3,1.05136 z m 22.44113,-2.10653 c -1.86402,-1.49339 -1.85176,-1.51185 0.30887,-0.46481 1.2375,0.59969 2.25,1.29951 2.25,1.55516 0,0.76522 -0.51861,0.54424 -2.55887,-1.09035 z M 321,117.57037 c 0,-0.275 0.9,-0.98167 2,-1.57037 1.1,-0.5887 2,-0.84537 2,-0.57037 0,0.275 -0.9,0.98167 -2,1.57037 -1.1,0.5887 -2,0.84537 -2,0.57037 z m 10.44113,-1.12554 c -1.86402,-1.49339 -1.85176,-1.51185 0.30887,-0.46481 1.2375,0.59969 2.25,1.29951 2.25,1.55516 0,0.76522 -0.51861,0.54424 -2.55887,-1.09035 z M 112.5,113 c 0.85325,-1.65 1.77636,-3 2.05136,-3 0.275,0 -0.19811,1.35 -1.05136,3 -0.85325,1.65 -1.77636,3 -2.05136,3 -0.275,0 0.19811,-1.35 1.05136,-3 z m 214.3125,1.31689 c 0.72187,-0.28887 1.58438,-0.25335 1.91667,0.0789 0.33229,0.3323 -0.25834,0.56864 -1.3125,0.52522 -1.16495,-0.048 -1.4019,-0.28494 -0.60417,-0.60416 z M 261,109.3266 c 3.23802,-2.28026 10.07959,-9.12999 12.31192,-12.3266 1.70475,-2.441149 1.71898,-2.443637 0.60456,-0.105713 -1.72092,3.610293 -8.31075,10.375453 -12.07792,12.399283 -3.05954,1.64367 -3.12962,1.64643 -0.83856,0.033 z M 116,107 c 0.5887,-1.1 1.29537,-2 1.57037,-2 0.275,0 0.0183,0.9 -0.57037,2 -0.5887,1.1 -1.29537,2 -1.57037,2 -0.275,0 -0.0183,-0.9 0.57037,-2 z m 2.19888,-3.5 c 3.03991,-5.851302 14.44554,-25.402748 15.60501,-26.75 1.40637,-1.634133 5.92376,-1.75 68.22865,-1.75 52.51546,0 66.9457,-0.26886 67.7705,-1.26268 0.57636,-0.694474 1.23082,-3.056974 1.45434,-5.25 l 0.40641,-3.98732 0.16811,4.095012 c 0.32258,7.85816 4.921,7.358431 -70.37423,7.647843 L 134.55704,76.5 126.98058,89.714601 c -4.16704,7.26803 -7.96452,13.568029 -8.43884,13.999999 -0.47431,0.43197 -0.6286,0.3354 -0.34286,-0.2146 z M 126,103.12244 c 0,-0.48265 0.74867,-1.49515 1.66372,-2.25 1.5086,-1.244481 1.55194,-1.162662 0.46482,0.87756 C 126.88863,104.07696 126,104.64993 126,103.12244 Z m 65.75,-0.86944 c 6.7375,-0.17301 17.7625,-0.17301 24.5,0 6.7375,0.17301 1.225,0.31456 -12.25,0.31456 -13.475,0 -18.9875,-0.14155 -12.25,-0.31456 z m 67.80887,-0.7212 c 1.06762,-0.8075 2.39113,-1.46819 2.94113,-1.46819 0.55,0 0.12649,0.66069 -0.94113,1.46819 -1.06762,0.80751 -2.39113,1.4682 -2.94113,1.4682 -0.55,0 -0.12649,-0.66069 0.94113,-1.4682 z m 38.12822,-3.336519 C 295.2853,95.688354 295,94.634769 295,88.272204 c 0,-6.6155 0.21736,-7.335719 3.07692,-10.195281 3.0277,-3.027698 3.22368,-3.073633 12.25,-2.871288 l 9.17308,0.205635 -8.98957,0.336792 c -8.12145,0.304268 -9.25613,0.592183 -11.75,2.981456 -2.5151,2.409623 -2.76043,3.28669 -2.76043,9.86868 0,6.839086 0.16394,7.361963 3.07673,9.812908 1.69219,1.423892 2.67639,2.588894 2.18709,2.588894 -0.4893,0 -2.09883,-1.262123 -3.57673,-2.804719 z M 320.33621,93 c 0,-4.125 0.17651,-5.8125 0.39226,-3.75 0.21574,2.0625 0.21574,5.4375 0,7.5 -0.21575,2.0625 -0.39226,0.375 -0.39226,-3.75 z m 20.04555,-4.5 c 0.002,-6.6 0.16382,-9.169866 0.35965,-5.710812 0.19583,3.459053 0.19422,8.859053 -0.004,12 C 340.54001,97.930134 340.37979,95.1 340.38176,88.5 Z m 24.81319,9 c 0.0204,-1.65 0.2445,-2.203936 0.49804,-1.230968 0.25354,0.972967 0.23687,2.322967 -0.0371,3 C 365.38201,99.946064 365.17457,99.15 365.19495,97.5 Z M 395,91.557498 l 0,-8.442502 -4.25,-0.307498 c -3.94906,-0.285724 -4.26025,-0.519925 -4.39474,-3.307498 -0.13753,-2.850432 -0.12176,-2.862896 0.31642,-0.25 0.42212,2.517145 0.83658,2.75 4.89474,2.75 L 396,82 l 0,9 c 0,4.95 -0.225,9 -0.5,9 -0.275,0 -0.5,-3.799126 -0.5,-8.442502 z M 402.20564,91.25 402,82 l 4.25,0.168103 4.25,0.168103 -3.71191,0.389992 -3.71192,0.389991 -0.33245,8.691906 -0.33245,8.691905 -0.20563,-9.25 z M 275.03063,93.5 c 0,-0.55 0.43621,-1.675 0.96937,-2.5 0.53316,-0.825 0.96937,-1.05 0.96937,-0.5 0,0.55 -0.43621,1.675 -0.96937,2.5 -0.53316,0.825 -0.96937,1.05 -0.96937,0.5 z M 302,88 l 0,-6 8.93358,0 8.93358,0 0.46116,-2.75 c 0.43818,-2.612896 0.45395,-2.600432 0.31642,0.25 l -0.14474,3 -8.75,0.288933 -8.75,0.288933 0,4.961067 0,4.961067 5.25,-0.118315 c 4.15476,-0.09363 4.62415,-0.251085 2.25,-0.754747 -2.40986,-0.511238 -3.02396,-1.178894 -3.12181,-3.394055 -0.11188,-2.532618 -0.0861,-2.552629 0.31642,-0.245252 C 308.04567,90.500254 308.71638,91 311.06642,91 313.00738,91 314,91.507547 314,92.5 c 0,1.166667 -1.33333,1.5 -6,1.5 l -6,0 0,-6 z m 45,4.5 c 0,-1.107782 1.15929,-1.5 4.43358,-1.5 3.95201,0 4.48118,-0.272886 4.87181,-2.512369 0.40136,-2.300984 0.42799,-2.279949 0.31642,0.25 -0.10805,2.450313 -0.57368,2.81594 -4.12181,3.236588 -3.01105,0.356974 -1.89849,0.619959 4.5,1.063696 l 8.5,0.589479 -9.25,0.186303 C 348.61164,93.96754 347,93.738652 347,92.5 Z m -212.36163,-4 c 0.50383,-1.312943 9.03828,-1.5 68.43723,-1.5 59.91061,0 67.79419,0.175748 67.28603,1.5 -0.50383,1.312943 -9.03828,1.5 -68.43723,1.5 -59.91061,0 -67.79419,-0.175748 -67.28603,-1.5 z m 101.68452,-0.249443 c -18.24741,-0.152535 -48.39741,-0.152622 -67,-1.92e-4 -18.60259,0.15243 -3.67289,0.277232 33.17711,0.277337 36.85,1.06e-4 52.0703,-0.12461 33.82289,-0.277145 z m 40.75606,-0.83389 c 0.048,-1.164943 0.28494,-1.4019 0.60416,-0.604167 0.28887,0.721875 0.25335,1.584375 -0.0789,1.916667 -0.33229,0.332291 -0.56864,-0.258334 -0.52522,-1.3125 z m 33.68896,-3.141398 c 1.79735,-0.222562 4.49735,-0.217969 6,0.0102 1.50265,0.228174 0.0321,0.41027 -3.26791,0.404657 -3.3,-0.0056 -4.52944,-0.192301 -2.73209,-0.414862 z M 347,83.5 c 0,-1.221396 1.65929,-1.5 8.93358,-1.5 8.75792,0 8.94219,-0.0494 9.37181,-2.512369 0.40136,-2.300984 0.42799,-2.279949 0.31642,0.25 -0.12111,2.746489 -0.17067,2.765392 -8.62181,3.28815 -6.70226,0.414579 -7.654,0.6434 -4.5,1.081897 l 4,0.556116 -4.75,0.168103 C 348.11973,84.960373 347,84.6464 347,83.5 Z m -68.63477,-9 c 0.003,-5.5 0.17053,-7.622415 0.37317,-4.716478 0.20265,2.905937 0.20052,7.405937 -0.005,10 C 278.52842,82.377585 278.36263,80 278.36523,74.5 Z m 132.82972,5 c 0.0204,-1.65 0.2445,-2.203936 0.49804,-1.230968 0.25354,0.972967 0.23687,2.322967 -0.0371,3 C 411.38201,81.946064 411.17457,81.15 411.19495,79.5 Z m -63.40576,-4.241414 c 3.45905,-0.19583 8.85905,-0.194213 12,0.0036 3.14094,0.197808 0.31081,0.358032 -6.28919,0.356055 -6.6,-0.002 -9.16987,-0.16382 -5.71081,-0.35965 z m 45,0 c 3.45905,-0.19583 8.85905,-0.194213 12,0.0036 3.14094,0.197808 0.31081,0.358032 -6.28919,0.356055 -6.6,-0.002 -9.16987,-0.16382 -5.71081,-0.35965 z"
       style="fill:#171518" />
  </g>
</svg>
