<svg width="114" height="27" viewBox="0 0 114 27" fill="none" xmlns="http://www.w3.org/2000/svg">
<path d="M113.191 0.5L100.191 26.5H0.5V0.5H113.191Z" fill="black" stroke="white"/>
<path d="M31.4751 18H30.7095L33.6196 10H34.4009L37.311 18H36.5454L34.0376 10.9492H33.9829L31.4751 18ZM32.0259 14.9336H35.9946V15.5898H32.0259V14.9336ZM38.5376 20.25V12H39.2134V13.1445H39.2954C39.3787 12.9648 39.4933 12.7812 39.6392 12.5937C39.785 12.4036 39.9777 12.2435 40.2173 12.1133C40.4595 11.9831 40.7642 11.918 41.1313 11.918C41.6261 11.918 42.0584 12.0482 42.4282 12.3086C42.8006 12.5664 43.0897 12.9284 43.2954 13.3945C43.5037 13.8581 43.6079 14.3984 43.6079 15.0156C43.6079 15.6354 43.5037 16.1784 43.2954 16.6445C43.0897 17.1107 42.8006 17.474 42.4282 17.7344C42.0584 17.9948 41.6287 18.125 41.1392 18.125C40.7772 18.125 40.4738 18.0599 40.229 17.9297C39.9868 17.7995 39.7902 17.6393 39.6392 17.4492C39.4907 17.2565 39.3761 17.069 39.2954 16.8867H39.2329V20.25H38.5376ZM39.2251 15.0039C39.2251 15.4883 39.2967 15.918 39.4399 16.293C39.5858 16.6654 39.7941 16.9583 40.0649 17.1719C40.3384 17.3828 40.6691 17.4883 41.0571 17.4883C41.4556 17.4883 41.7915 17.3789 42.0649 17.1602C42.341 16.9388 42.5506 16.6406 42.6938 16.2656C42.8397 15.8906 42.9126 15.4701 42.9126 15.0039C42.9126 14.543 42.841 14.1276 42.6978 13.7578C42.5571 13.388 42.3488 13.0951 42.0728 12.8789C41.7967 12.6602 41.4582 12.5508 41.0571 12.5508C40.6665 12.5508 40.3345 12.6562 40.061 12.8672C39.7876 13.0755 39.5793 13.3646 39.436 13.7344C39.2954 14.1016 39.2251 14.5247 39.2251 15.0039ZM45.1333 20.25V12H45.8091V13.1445H45.8911C45.9744 12.9648 46.089 12.7812 46.2349 12.5937C46.3807 12.4036 46.5734 12.2435 46.813 12.1133C47.0552 11.9831 47.3599 11.918 47.7271 11.918C48.2218 11.918 48.6541 12.0482 49.0239 12.3086C49.3963 12.5664 49.6854 12.9284 49.8911 13.3945C50.0994 13.8581 50.2036 14.3984 50.2036 15.0156C50.2036 15.6354 50.0994 16.1784 49.8911 16.6445C49.6854 17.1107 49.3963 17.474 49.0239 17.7344C48.6541 17.9948 48.2244 18.125 47.7349 18.125C47.3729 18.125 47.0695 18.0599 46.8247 17.9297C46.5825 17.7995 46.3859 17.6393 46.2349 17.4492C46.0864 17.2565 45.9718 17.069 45.8911 16.8867H45.8286V20.25H45.1333ZM45.8208 15.0039C45.8208 15.4883 45.8924 15.918 46.0356 16.293C46.1815 16.6654 46.3898 16.9583 46.6606 17.1719C46.9341 17.3828 47.2648 17.4883 47.6528 17.4883C48.0513 17.4883 48.3872 17.3789 48.6606 17.1602C48.9367 16.9388 49.1463 16.6406 49.2896 16.2656C49.4354 15.8906 49.5083 15.4701 49.5083 15.0039C49.5083 14.543 49.4367 14.1276 49.2935 13.7578C49.1528 13.388 48.9445 13.0951 48.6685 12.8789C48.3924 12.6602 48.0539 12.5508 47.6528 12.5508C47.2622 12.5508 46.9302 12.6562 46.6567 12.8672C46.3833 13.0755 46.175 13.3646 46.0317 13.7344C45.8911 14.1016 45.8208 14.5247 45.8208 15.0039ZM53.4048 18.1367C53.0428 18.1367 52.7121 18.0664 52.4126 17.9258C52.1131 17.7826 51.8748 17.5768 51.6978 17.3086C51.5207 17.0378 51.4321 16.7096 51.4321 16.3242C51.4321 16.0273 51.4881 15.7773 51.6001 15.5742C51.7121 15.3711 51.8709 15.2044 52.0767 15.0742C52.2824 14.944 52.5259 14.8411 52.8071 14.7656C53.0884 14.6901 53.3983 14.6315 53.7368 14.5898C54.0728 14.5482 54.3566 14.5117 54.5884 14.4805C54.8228 14.4492 55.0011 14.3997 55.1235 14.332C55.2459 14.2643 55.3071 14.1549 55.3071 14.0039V13.8633C55.3071 13.4544 55.1847 13.1328 54.9399 12.8984C54.6978 12.6615 54.3488 12.543 53.8931 12.543C53.4608 12.543 53.1079 12.638 52.8345 12.8281C52.5636 13.0182 52.3735 13.2422 52.2642 13.5L51.604 13.2617C51.7394 12.9336 51.9269 12.6719 52.1665 12.4766C52.4061 12.2786 52.6743 12.1367 52.9712 12.0508C53.2681 11.9622 53.5688 11.918 53.8735 11.918C54.1027 11.918 54.341 11.9479 54.5884 12.0078C54.8384 12.0677 55.0701 12.1719 55.2837 12.3203C55.4972 12.4661 55.6704 12.6706 55.8032 12.9336C55.936 13.194 56.0024 13.5247 56.0024 13.9258V18H55.3071V17.0508H55.2642C55.1808 17.2279 55.0571 17.3997 54.8931 17.5664C54.729 17.7331 54.5233 17.8698 54.2759 17.9766C54.0285 18.0833 53.7381 18.1367 53.4048 18.1367ZM53.4985 17.5C53.8683 17.5 54.1886 17.418 54.4595 17.2539C54.7303 17.0898 54.9386 16.8724 55.0845 16.6016C55.2329 16.3281 55.3071 16.0273 55.3071 15.6992V14.832C55.255 14.8815 55.1678 14.9258 55.0454 14.9648C54.9256 15.0039 54.7863 15.0391 54.6274 15.0703C54.4712 15.099 54.3149 15.1237 54.1587 15.1445C54.0024 15.1654 53.8618 15.1836 53.7368 15.1992C53.3983 15.2409 53.1092 15.306 52.8696 15.3945C52.63 15.4831 52.4465 15.6055 52.3188 15.7617C52.1912 15.9154 52.1274 16.1133 52.1274 16.3555C52.1274 16.7201 52.2576 17.0026 52.5181 17.2031C52.7785 17.401 53.1053 17.5 53.4985 17.5ZM57.8521 18V12H58.5278V12.9219H58.5786C58.6984 12.6198 58.9067 12.3763 59.2036 12.1914C59.5031 12.0039 59.8416 11.9102 60.2192 11.9102C60.2765 11.9102 60.3403 11.9115 60.4106 11.9141C60.481 11.9167 60.5396 11.9193 60.5864 11.9219V12.6289C60.5552 12.6237 60.5005 12.6159 60.4224 12.6055C60.3442 12.5951 60.2596 12.5898 60.1685 12.5898C59.856 12.5898 59.5773 12.6562 59.3325 12.7891C59.0903 12.9193 58.8989 13.1003 58.7583 13.332C58.6177 13.5638 58.5474 13.8281 58.5474 14.125V18H57.8521ZM64.0161 18.125C63.4562 18.125 62.9718 17.9948 62.563 17.7344C62.1541 17.4714 61.8377 17.1081 61.6138 16.6445C61.3924 16.1784 61.2817 15.6419 61.2817 15.0352C61.2817 14.431 61.3924 13.8945 61.6138 13.4258C61.8377 12.9544 62.1463 12.5859 62.5396 12.3203C62.9354 12.0521 63.3924 11.918 63.9106 11.918C64.2362 11.918 64.55 11.9779 64.8521 12.0977C65.1541 12.2148 65.425 12.3958 65.6646 12.6406C65.9067 12.8828 66.0981 13.1888 66.2388 13.5586C66.3794 13.9258 66.4497 14.3607 66.4497 14.8633V15.207H61.7622V14.5937H65.7388C65.7388 14.2083 65.6606 13.862 65.5044 13.5547C65.3507 13.2448 65.1359 13 64.8599 12.8203C64.5864 12.6406 64.27 12.5508 63.9106 12.5508C63.5304 12.5508 63.1958 12.6523 62.9067 12.8555C62.6177 13.0586 62.3911 13.3268 62.2271 13.6602C62.0656 13.9935 61.9836 14.3581 61.981 14.7539V15.1211C61.981 15.5977 62.063 16.0143 62.2271 16.3711C62.3937 16.7253 62.6294 17 62.9341 17.1953C63.2388 17.3906 63.5994 17.4883 64.0161 17.4883C64.3 17.4883 64.5487 17.444 64.7622 17.3555C64.9784 17.2669 65.1593 17.1484 65.3052 17C65.4536 16.849 65.5656 16.6836 65.6411 16.5039L66.3013 16.7187C66.2101 16.9714 66.0604 17.2044 65.8521 17.418C65.6463 17.6315 65.3885 17.8034 65.0786 17.9336C64.7713 18.0612 64.4172 18.125 64.0161 18.125ZM68.6772 10V18H67.9819V10H68.6772Z" fill="white"/>
</svg>
