<svg width="114" height="27" viewBox="0 0 114 27" fill="none" xmlns="http://www.w3.org/2000/svg">
<path d="M0.809018 0.5L13.809 26.5H113.5V0.5H0.809018Z" fill="black" stroke="white"/>
<path d="M52.5493 18H51.7837L54.6938 10H55.4751L58.3853 18H57.6196L55.1118 10.9492H55.0571L52.5493 18ZM53.1001 14.9336H57.0688V15.5898H53.1001V14.9336ZM59.6118 20.25V12H60.2876V13.1445H60.3696C60.453 12.9648 60.5675 12.7812 60.7134 12.5937C60.8592 12.4036 61.0519 12.2435 61.2915 12.1133C61.5337 11.9831 61.8384 11.918 62.2056 11.918C62.7004 11.918 63.1326 12.0482 63.5024 12.3086C63.8748 12.5664 64.1639 12.9284 64.3696 13.3945C64.578 13.8581 64.6821 14.3984 64.6821 15.0156C64.6821 15.6354 64.578 16.1784 64.3696 16.6445C64.1639 17.1107 63.8748 17.474 63.5024 17.7344C63.1326 17.9948 62.703 18.125 62.2134 18.125C61.8514 18.125 61.548 18.0599 61.3032 17.9297C61.061 17.7995 60.8644 17.6393 60.7134 17.4492C60.5649 17.2565 60.4504 17.069 60.3696 16.8867H60.3071V20.25H59.6118ZM60.2993 15.0039C60.2993 15.4883 60.3709 15.918 60.5142 16.293C60.66 16.6654 60.8683 16.9583 61.1392 17.1719C61.4126 17.3828 61.7433 17.4883 62.1313 17.4883C62.5298 17.4883 62.8657 17.3789 63.1392 17.1602C63.4152 16.9388 63.6248 16.6406 63.7681 16.2656C63.9139 15.8906 63.9868 15.4701 63.9868 15.0039C63.9868 14.543 63.9152 14.1276 63.772 13.7578C63.6313 13.388 63.423 13.0951 63.147 12.8789C62.8709 12.6602 62.5324 12.5508 62.1313 12.5508C61.7407 12.5508 61.4087 12.6562 61.1353 12.8672C60.8618 13.0755 60.6535 13.3646 60.5103 13.7344C60.3696 14.1016 60.2993 14.5247 60.2993 15.0039ZM66.2075 20.25V12H66.8833V13.1445H66.9653C67.0487 12.9648 67.1632 12.7812 67.3091 12.5937C67.4549 12.4036 67.6476 12.2435 67.8872 12.1133C68.1294 11.9831 68.4341 11.918 68.8013 11.918C69.2961 11.918 69.7284 12.0482 70.0981 12.3086C70.4705 12.5664 70.7596 12.9284 70.9653 13.3945C71.1737 13.8581 71.2778 14.3984 71.2778 15.0156C71.2778 15.6354 71.1737 16.1784 70.9653 16.6445C70.7596 17.1107 70.4705 17.474 70.0981 17.7344C69.7284 17.9948 69.2987 18.125 68.8091 18.125C68.4471 18.125 68.1437 18.0599 67.8989 17.9297C67.6567 17.7995 67.4601 17.6393 67.3091 17.4492C67.1606 17.2565 67.0461 17.069 66.9653 16.8867H66.9028V20.25H66.2075ZM66.895 15.0039C66.895 15.4883 66.9666 15.918 67.1099 16.293C67.2557 16.6654 67.464 16.9583 67.7349 17.1719C68.0083 17.3828 68.339 17.4883 68.7271 17.4883C69.1255 17.4883 69.4614 17.3789 69.7349 17.1602C70.0109 16.9388 70.2205 16.6406 70.3638 16.2656C70.5096 15.8906 70.5825 15.4701 70.5825 15.0039C70.5825 14.543 70.5109 14.1276 70.3677 13.7578C70.2271 13.388 70.0187 13.0951 69.7427 12.8789C69.4666 12.6602 69.1281 12.5508 68.7271 12.5508C68.3364 12.5508 68.0044 12.6562 67.731 12.8672C67.4575 13.0755 67.2492 13.3646 67.106 13.7344C66.9653 14.1016 66.895 14.5247 66.895 15.0039ZM76.8345 13.3164L76.1978 13.4961C76.1353 13.3164 76.0467 13.1536 75.9321 13.0078C75.8175 12.862 75.6678 12.7461 75.4829 12.6602C75.3006 12.5742 75.0741 12.5312 74.8032 12.5312C74.397 12.5312 74.0636 12.6276 73.8032 12.8203C73.5428 13.013 73.4126 13.2617 73.4126 13.5664C73.4126 13.8242 73.5011 14.0339 73.6782 14.1953C73.8579 14.3542 74.134 14.4805 74.5063 14.5742L75.4126 14.7969C75.9152 14.9193 76.2915 15.1133 76.5415 15.3789C76.7941 15.6445 76.9204 15.9779 76.9204 16.3789C76.9204 16.7174 76.8267 17.0182 76.6392 17.2812C76.4517 17.5443 76.1899 17.7513 75.854 17.9023C75.5207 18.0508 75.134 18.125 74.6938 18.125C74.1079 18.125 73.6248 17.9935 73.2446 17.7305C72.8644 17.4648 72.6209 17.082 72.5142 16.582L73.1821 16.418C73.2681 16.7747 73.436 17.0443 73.686 17.2266C73.9386 17.4089 74.2707 17.5 74.6821 17.5C75.1431 17.5 75.5116 17.3971 75.7876 17.1914C76.0636 16.9831 76.2017 16.7227 76.2017 16.4102C76.2017 16.168 76.1209 15.9648 75.9595 15.8008C75.798 15.6341 75.5532 15.5117 75.2251 15.4336L74.2446 15.1992C73.7238 15.0742 73.3384 14.8763 73.0884 14.6055C72.8384 14.3346 72.7134 13.9987 72.7134 13.5977C72.7134 13.2669 72.8032 12.9766 72.9829 12.7266C73.1626 12.474 73.41 12.276 73.7251 12.1328C74.0402 11.9896 74.3996 11.918 74.8032 11.918C75.3527 11.918 75.7915 12.043 76.1196 12.293C76.4504 12.5404 76.6886 12.8815 76.8345 13.3164Z" fill="white"/>
</svg>
