<svg width="114" height="27" viewBox="0 0 114 27" fill="none" xmlns="http://www.w3.org/2000/svg">
<path d="M113.191 26.5L100.191 0.5H0.5V26.5H113.191Z" fill="black" stroke="white"/>
<path d="M35.293 18V10H37.9922C38.513 10 38.9466 10.0911 39.293 10.2734C39.6419 10.4557 39.9036 10.7044 40.0781 11.0195C40.2526 11.3346 40.3398 11.6927 40.3398 12.0938C40.3398 12.4271 40.2839 12.7122 40.1719 12.9492C40.0599 13.1862 39.9076 13.3776 39.7148 13.5234C39.5221 13.6693 39.3073 13.7747 39.0703 13.8398V13.9023C39.3281 13.9206 39.5781 14.0117 39.8203 14.1758C40.0625 14.3372 40.2617 14.5638 40.418 14.8555C40.5742 15.1471 40.6523 15.4961 40.6523 15.9023C40.6523 16.306 40.5625 16.6667 40.3828 16.9844C40.2031 17.2995 39.9271 17.5482 39.5547 17.7305C39.1849 17.9102 38.7135 18 38.1406 18H35.293ZM36.0234 17.3437H38.1406C38.7578 17.3437 39.2135 17.207 39.5078 16.9336C39.8047 16.6602 39.9531 16.3164 39.9531 15.9023C39.9531 15.5977 39.8789 15.3216 39.7305 15.0742C39.5846 14.8242 39.3776 14.6263 39.1094 14.4805C38.8438 14.3346 38.5313 14.2617 38.1719 14.2617H36.0234V17.3437ZM36.0234 13.6133H38.0586C38.3737 13.6133 38.6497 13.5482 38.8867 13.418C39.1237 13.2878 39.3086 13.1081 39.4414 12.8789C39.5742 12.6497 39.6406 12.388 39.6406 12.0938C39.6406 11.6693 39.5026 11.3242 39.2266 11.0586C38.9505 10.7904 38.5391 10.6562 37.9922 10.6562H36.0234V13.6133ZM44.6025 18.125C44.0843 18.125 43.626 17.9935 43.2275 17.7305C42.8317 17.4674 42.5218 17.1042 42.2979 16.6406C42.0739 16.1745 41.9619 15.6367 41.9619 15.0273C41.9619 14.4128 42.0739 13.8724 42.2979 13.4062C42.5218 12.9375 42.8317 12.5729 43.2275 12.3125C43.626 12.0495 44.0843 11.918 44.6025 11.918C45.1208 11.918 45.5778 12.0495 45.9736 12.3125C46.3695 12.5755 46.6794 12.9401 46.9033 13.4062C47.1299 13.8724 47.2432 14.4128 47.2432 15.0273C47.2432 15.6367 47.1312 16.1745 46.9072 16.6406C46.6833 17.1042 46.3721 17.4674 45.9736 17.7305C45.5778 17.9935 45.1208 18.125 44.6025 18.125ZM44.6025 17.4883C45.0192 17.4883 45.3721 17.3763 45.6611 17.1523C45.9502 16.9284 46.1689 16.6302 46.3174 16.2578C46.4684 15.8854 46.5439 15.4753 46.5439 15.0273C46.5439 14.5794 46.4684 14.168 46.3174 13.793C46.1689 13.418 45.9502 13.1172 45.6611 12.8906C45.3721 12.6641 45.0192 12.5508 44.6025 12.5508C44.1885 12.5508 43.8356 12.6641 43.5439 12.8906C43.2549 13.1172 43.0348 13.418 42.8838 13.793C42.7354 14.168 42.6611 14.5794 42.6611 15.0273C42.6611 15.4753 42.7354 15.8854 42.8838 16.2578C43.0348 16.6302 43.2549 16.9284 43.5439 17.1523C43.833 17.3763 44.1859 17.4883 44.6025 17.4883ZM51.1016 18.125C50.5833 18.125 50.125 17.9935 49.7266 17.7305C49.3307 17.4674 49.0208 17.1042 48.7969 16.6406C48.5729 16.1745 48.4609 15.6367 48.4609 15.0273C48.4609 14.4128 48.5729 13.8724 48.7969 13.4062C49.0208 12.9375 49.3307 12.5729 49.7266 12.3125C50.125 12.0495 50.5833 11.918 51.1016 11.918C51.6198 11.918 52.0768 12.0495 52.4727 12.3125C52.8685 12.5755 53.1784 12.9401 53.4023 13.4062C53.6289 13.8724 53.7422 14.4128 53.7422 15.0273C53.7422 15.6367 53.6302 16.1745 53.4063 16.6406C53.1823 17.1042 52.8711 17.4674 52.4727 17.7305C52.0768 17.9935 51.6198 18.125 51.1016 18.125ZM51.1016 17.4883C51.5182 17.4883 51.8711 17.3763 52.1602 17.1523C52.4492 16.9284 52.668 16.6302 52.8164 16.2578C52.9674 15.8854 53.043 15.4753 53.043 15.0273C53.043 14.5794 52.9674 14.168 52.8164 13.793C52.668 13.418 52.4492 13.1172 52.1602 12.8906C51.8711 12.6641 51.5182 12.5508 51.1016 12.5508C50.6875 12.5508 50.3346 12.6641 50.043 12.8906C49.7539 13.1172 49.5339 13.418 49.3828 13.793C49.2344 14.168 49.1602 14.5794 49.1602 15.0273C49.1602 15.4753 49.2344 15.8854 49.3828 16.2578C49.5339 16.6302 49.7539 16.9284 50.043 17.1523C50.332 17.3763 50.6849 17.4883 51.1016 17.4883ZM55.9014 15.7344L55.8936 14.8242H56.0498L58.8623 12H59.7412L56.9639 14.7812L56.9014 14.793L55.9014 15.7344ZM55.2686 18V10H55.9639V18H55.2686ZM59.0068 18L56.5693 14.918L57.0693 14.4375L59.8975 18H59.0068ZM65.0791 13.3164L64.4424 13.4961C64.3799 13.3164 64.2913 13.1536 64.1768 13.0078C64.0622 12.862 63.9124 12.7461 63.7275 12.6602C63.5452 12.5742 63.3187 12.5312 63.0479 12.5312C62.6416 12.5312 62.3083 12.6276 62.0479 12.8203C61.7874 13.013 61.6572 13.2617 61.6572 13.5664C61.6572 13.8242 61.7458 14.0339 61.9229 14.1953C62.1025 14.3542 62.3786 14.4805 62.751 14.5742L63.6572 14.7969C64.1598 14.9193 64.5361 15.1133 64.7861 15.3789C65.0387 15.6445 65.165 15.9779 65.165 16.3789C65.165 16.7174 65.0713 17.0182 64.8838 17.2812C64.6963 17.5443 64.4346 17.7513 64.0986 17.9023C63.7653 18.0508 63.3786 18.125 62.9385 18.125C62.3525 18.125 61.8695 17.9935 61.4893 17.7305C61.109 17.4648 60.8656 17.082 60.7588 16.582L61.4268 16.418C61.5127 16.7747 61.6807 17.0443 61.9307 17.2266C62.1833 17.4089 62.5153 17.5 62.9268 17.5C63.3877 17.5 63.7562 17.3971 64.0322 17.1914C64.3083 16.9831 64.4463 16.7227 64.4463 16.4102C64.4463 16.168 64.3656 15.9648 64.2041 15.8008C64.0426 15.6341 63.7979 15.5117 63.4697 15.4336L62.4893 15.1992C61.9684 15.0742 61.583 14.8763 61.333 14.6055C61.083 14.3346 60.958 13.9987 60.958 13.5977C60.958 13.2669 61.0479 12.9766 61.2275 12.7266C61.4072 12.474 61.6546 12.276 61.9697 12.1328C62.2848 11.9896 62.6442 11.918 63.0479 11.918C63.5973 11.918 64.0361 12.043 64.3643 12.293C64.695 12.5404 64.9333 12.8815 65.0791 13.3164Z" fill="white"/>
</svg>
