<svg width="114" height="27" viewBox="0 0 114 27" fill="none" xmlns="http://www.w3.org/2000/svg">
<path d="M0.809018 26.5L13.809 0.5H113.5V26.5H0.809018Z" fill="black" stroke="white"/>
<path d="M51.3374 12.5H50.603C50.5483 12.2266 50.4494 11.974 50.3062 11.7422C50.1655 11.5078 49.9884 11.3034 49.7749 11.1289C49.5614 10.9544 49.3192 10.819 49.0483 10.7227C48.7775 10.6263 48.4845 10.5781 48.1694 10.5781C47.6642 10.5781 47.2033 10.7096 46.7866 10.9727C46.3726 11.2357 46.0405 11.6224 45.7905 12.1328C45.5431 12.6406 45.4194 13.263 45.4194 14C45.4194 14.7422 45.5431 15.3672 45.7905 15.875C46.0405 16.3828 46.3726 16.7682 46.7866 17.0312C47.2033 17.2917 47.6642 17.4219 48.1694 17.4219C48.4845 17.4219 48.7775 17.3737 49.0483 17.2773C49.3192 17.181 49.5614 17.0469 49.7749 16.875C49.9884 16.7005 50.1655 16.4961 50.3062 16.2617C50.4494 16.0273 50.5483 15.7734 50.603 15.5H51.3374C51.2723 15.8672 51.1499 16.2096 50.9702 16.5273C50.7931 16.8424 50.5666 17.1185 50.2905 17.3555C50.0171 17.5924 49.702 17.7773 49.3452 17.9102C48.9884 18.043 48.5965 18.1094 48.1694 18.1094C47.4976 18.1094 46.9012 17.9414 46.3804 17.6055C45.8595 17.2669 45.4507 16.7904 45.1538 16.1758C44.8595 15.5612 44.7124 14.8359 44.7124 14C44.7124 13.1641 44.8595 12.4388 45.1538 11.8242C45.4507 11.2096 45.8595 10.7344 46.3804 10.3984C46.9012 10.0599 47.4976 9.89062 48.1694 9.89062C48.5965 9.89062 48.9884 9.95703 49.3452 10.0898C49.702 10.2201 50.0171 10.4049 50.2905 10.6445C50.5666 10.8815 50.7931 11.1576 50.9702 11.4727C51.1499 11.7878 51.2723 12.1302 51.3374 12.5ZM55.2407 18.125C54.7225 18.125 54.2642 17.9935 53.8657 17.7305C53.4699 17.4674 53.16 17.1042 52.936 16.6406C52.7121 16.1745 52.6001 15.6367 52.6001 15.0273C52.6001 14.4128 52.7121 13.8724 52.936 13.4062C53.16 12.9375 53.4699 12.5729 53.8657 12.3125C54.2642 12.0495 54.7225 11.918 55.2407 11.918C55.759 11.918 56.216 12.0495 56.6118 12.3125C57.0076 12.5755 57.3175 12.9401 57.5415 13.4062C57.7681 13.8724 57.8813 14.4128 57.8813 15.0273C57.8813 15.6367 57.7694 16.1745 57.5454 16.6406C57.3215 17.1042 57.0103 17.4674 56.6118 17.7305C56.216 17.9935 55.759 18.125 55.2407 18.125ZM55.2407 17.4883C55.6574 17.4883 56.0103 17.3763 56.2993 17.1523C56.5884 16.9284 56.8071 16.6302 56.9556 16.2578C57.1066 15.8854 57.1821 15.4753 57.1821 15.0273C57.1821 14.5794 57.1066 14.168 56.9556 13.793C56.8071 13.418 56.5884 13.1172 56.2993 12.8906C56.0103 12.6641 55.6574 12.5508 55.2407 12.5508C54.8267 12.5508 54.4738 12.6641 54.1821 12.8906C53.8931 13.1172 53.673 13.418 53.522 13.793C53.3735 14.168 53.2993 14.5794 53.2993 15.0273C53.2993 15.4753 53.3735 15.8854 53.522 16.2578C53.673 16.6302 53.8931 16.9284 54.1821 17.1523C54.4712 17.3763 54.8241 17.4883 55.2407 17.4883ZM60.103 14.25V18H59.4077V12H60.0835V12.9414H60.146C60.2866 12.6341 60.5054 12.388 60.8022 12.2031C61.1017 12.0156 61.4715 11.9219 61.9116 11.9219C62.3153 11.9219 62.6694 12.0065 62.9741 12.1758C63.2814 12.3424 63.5197 12.5885 63.689 12.9141C63.8608 13.2396 63.9468 13.6393 63.9468 14.1133V18H63.2515V14.1562C63.2515 13.6641 63.1134 13.2747 62.8374 12.9883C62.564 12.7018 62.1968 12.5586 61.7358 12.5586C61.4207 12.5586 61.1408 12.6263 60.896 12.7617C60.6512 12.8971 60.4572 13.0924 60.314 13.3477C60.1733 13.6003 60.103 13.901 60.103 14.25ZM68.1411 12V12.6055H65.2778V12H68.1411ZM66.1724 10.5625H66.8716V16.4336C66.8716 16.6836 66.9146 16.8802 67.0005 17.0234C67.0864 17.1641 67.1984 17.2643 67.3364 17.3242C67.4744 17.3815 67.6216 17.4102 67.7778 17.4102C67.869 17.4102 67.9471 17.4049 68.0122 17.3945C68.0773 17.3815 68.1346 17.3685 68.1841 17.3555L68.3325 17.9844C68.2648 18.0104 68.1815 18.0339 68.0825 18.0547C67.9836 18.0781 67.8612 18.0898 67.7153 18.0898C67.4601 18.0898 67.214 18.0339 66.9771 17.9219C66.7427 17.8099 66.55 17.6432 66.3989 17.4219C66.2479 17.2005 66.1724 16.9258 66.1724 16.5977V10.5625ZM71.396 18.1367C71.034 18.1367 70.7033 18.0664 70.4038 17.9258C70.1043 17.7826 69.866 17.5768 69.689 17.3086C69.5119 17.0378 69.4233 16.7096 69.4233 16.3242C69.4233 16.0273 69.4793 15.7773 69.5913 15.5742C69.7033 15.3711 69.8621 15.2044 70.0679 15.0742C70.2736 14.944 70.5171 14.8411 70.7983 14.7656C71.0796 14.6901 71.3895 14.6315 71.728 14.5898C72.064 14.5482 72.3478 14.5117 72.5796 14.4805C72.814 14.4492 72.9924 14.3997 73.1147 14.332C73.2371 14.2643 73.2983 14.1549 73.2983 14.0039V13.8633C73.2983 13.4544 73.1759 13.1328 72.9312 12.8984C72.689 12.6615 72.34 12.543 71.8843 12.543C71.452 12.543 71.0991 12.638 70.8257 12.8281C70.5549 13.0182 70.3647 13.2422 70.2554 13.5L69.5952 13.2617C69.7306 12.9336 69.9181 12.6719 70.1577 12.4766C70.3973 12.2786 70.6655 12.1367 70.9624 12.0508C71.2593 11.9622 71.5601 11.918 71.8647 11.918C72.0939 11.918 72.3322 11.9479 72.5796 12.0078C72.8296 12.0677 73.0614 12.1719 73.2749 12.3203C73.4884 12.4661 73.6616 12.6706 73.7944 12.9336C73.9272 13.194 73.9937 13.5247 73.9937 13.9258V18H73.2983V17.0508H73.2554C73.172 17.2279 73.0483 17.3997 72.8843 17.5664C72.7202 17.7331 72.5145 17.8698 72.2671 17.9766C72.0197 18.0833 71.7293 18.1367 71.396 18.1367ZM71.4897 17.5C71.8595 17.5 72.1799 17.418 72.4507 17.2539C72.7215 17.0898 72.9299 16.8724 73.0757 16.6016C73.2241 16.3281 73.2983 16.0273 73.2983 15.6992V14.832C73.2463 14.8815 73.159 14.9258 73.0366 14.9648C72.9168 15.0039 72.7775 15.0391 72.6187 15.0703C72.4624 15.099 72.3062 15.1237 72.1499 15.1445C71.9937 15.1654 71.853 15.1836 71.728 15.1992C71.3895 15.2409 71.1004 15.306 70.8608 15.3945C70.6213 15.4831 70.4377 15.6055 70.3101 15.7617C70.1825 15.9154 70.1187 16.1133 70.1187 16.3555C70.1187 16.7201 70.2489 17.0026 70.5093 17.2031C70.7697 17.401 71.0965 17.5 71.4897 17.5ZM78.187 18.125C77.6506 18.125 77.1831 17.9909 76.7847 17.7227C76.3888 17.4544 76.0815 17.0872 75.8628 16.6211C75.644 16.1549 75.5347 15.6237 75.5347 15.0273C75.5347 14.4258 75.6453 13.8906 75.8667 13.4219C76.0907 12.9531 76.4006 12.5859 76.7964 12.3203C77.1922 12.0521 77.6519 11.918 78.1753 11.918C78.5763 11.918 78.9396 11.9961 79.2651 12.1523C79.5907 12.306 79.8589 12.5234 80.0698 12.8047C80.2834 13.0833 80.4175 13.4089 80.4722 13.7812H79.769C79.6961 13.4427 79.5203 13.1536 79.2417 12.9141C78.9657 12.6719 78.6141 12.5508 78.187 12.5508C77.8042 12.5508 77.4657 12.6549 77.1714 12.8633C76.8771 13.069 76.6466 13.3568 76.48 13.7266C76.3159 14.0937 76.2339 14.5195 76.2339 15.0039C76.2339 15.4909 76.3146 15.9219 76.4761 16.2969C76.6375 16.6693 76.8641 16.9609 77.1558 17.1719C77.45 17.3828 77.7938 17.4883 78.187 17.4883C78.4526 17.4883 78.6948 17.4388 78.9136 17.3398C79.1349 17.2383 79.3198 17.0951 79.4683 16.9102C79.6193 16.7253 79.7209 16.5052 79.7729 16.25H80.4761C80.424 16.612 80.2951 16.9349 80.0894 17.2188C79.8862 17.5 79.6219 17.7214 79.2964 17.8828C78.9735 18.0443 78.6037 18.125 78.187 18.125ZM84.3296 12V12.6055H81.4663V12H84.3296ZM82.3608 10.5625H83.0601V16.4336C83.0601 16.6836 83.103 16.8802 83.189 17.0234C83.2749 17.1641 83.3869 17.2643 83.5249 17.3242C83.6629 17.3815 83.8101 17.4102 83.9663 17.4102C84.0575 17.4102 84.1356 17.4049 84.2007 17.3945C84.2658 17.3815 84.3231 17.3685 84.3726 17.3555L84.521 17.9844C84.4533 18.0104 84.37 18.0339 84.271 18.0547C84.172 18.0781 84.0496 18.0898 83.9038 18.0898C83.6486 18.0898 83.4025 18.0339 83.1655 17.9219C82.9312 17.8099 82.7384 17.6432 82.5874 17.4219C82.4364 17.2005 82.3608 16.9258 82.3608 16.5977V10.5625Z" fill="white"/>
</svg>
