<svg width="287" height="95" viewBox="0 0 287 95" fill="none" xmlns="http://www.w3.org/2000/svg">
<path d="M32.7188 1.09091H44.5142L52.6278 20.8636H53.0369L61.1506 1.09091H72.946V36H63.6733V15.8182H63.4006L55.6278 35.7273H50.0369L42.2642 15.6818H41.9915V36H32.7188V1.09091ZM86.9148 1.09091V36H77.4375V1.09091H86.9148ZM123.997 14.1818H114.384C114.315 13.3864 114.134 12.6648 113.838 12.017C113.554 11.3693 113.156 10.8125 112.645 10.3466C112.145 9.86932 111.537 9.50568 110.821 9.25568C110.105 8.99432 109.293 8.86364 108.384 8.86364C106.793 8.86364 105.446 9.25 104.344 10.0227C103.253 10.7955 102.423 11.9034 101.855 13.3466C101.298 14.7898 101.02 16.5227 101.02 18.5455C101.02 20.6818 101.304 22.4716 101.872 23.9148C102.452 25.3466 103.287 26.4261 104.378 27.1534C105.469 27.8693 106.781 28.2273 108.315 28.2273C109.19 28.2273 109.974 28.1193 110.668 27.9034C111.361 27.6761 111.963 27.3523 112.474 26.9318C112.986 26.5114 113.401 26.0057 113.719 25.4148C114.048 24.8125 114.27 24.1364 114.384 23.3864L123.997 23.4545C123.884 24.9318 123.469 26.4375 122.753 27.9716C122.037 29.4943 121.02 30.9034 119.702 32.1989C118.395 33.483 116.776 34.517 114.844 35.3011C112.912 36.0852 110.668 36.4773 108.111 36.4773C104.906 36.4773 102.031 35.7898 99.4858 34.4148C96.9517 33.0398 94.946 31.017 93.4688 28.3466C92.0028 25.6761 91.2699 22.4091 91.2699 18.5455C91.2699 14.6591 92.0199 11.3864 93.5199 8.72727C95.0199 6.05682 97.0426 4.03977 99.5881 2.67614C102.134 1.30114 104.974 0.613635 108.111 0.613635C110.315 0.613635 112.344 0.914771 114.196 1.51704C116.048 2.11932 117.673 3 119.071 4.15909C120.469 5.30682 121.594 6.72159 122.446 8.40341C123.298 10.0852 123.815 12.0114 123.997 14.1818ZM128.297 36V1.09091H137.774V14.7273H150.32V1.09091H159.797V36H150.32V22.3636H137.774V36H128.297ZM173.365 36H163.138L174.661 1.09091H187.615L199.138 36H188.911L181.274 10.7045H181.001L173.365 36ZM171.456 22.2273H190.683V29.3182H171.456V22.2273ZM202.5 36V1.09091H227.659V8.72727H211.977V14.7273H226.364V22.3636H211.977V28.3636H227.591V36H202.5ZM232.359 36V1.09091H241.837V28.3636H255.95V36H232.359ZM20.1541 70C20.0632 68.8636 19.6371 67.9773 18.8757 67.3409C18.1257 66.7045 16.9837 66.3864 15.4496 66.3864C14.4723 66.3864 13.6712 66.5057 13.0462 66.7443C12.4325 66.9716 11.978 67.2841 11.6825 67.6818C11.3871 68.0795 11.2337 68.5341 11.2223 69.0455C11.1996 69.4659 11.2734 69.8466 11.4439 70.1875C11.6257 70.517 11.9098 70.8182 12.2962 71.0909C12.6825 71.3523 13.1768 71.5909 13.7791 71.8068C14.3814 72.0227 15.0973 72.2159 15.9268 72.3864L18.7905 73C20.7223 73.4091 22.3757 73.9489 23.7507 74.6193C25.1257 75.2898 26.2507 76.0795 27.1257 76.9886C28.0007 77.8864 28.6428 78.8977 29.0518 80.0227C29.4723 81.1477 29.6882 82.375 29.6996 83.7045C29.6882 86 29.1143 87.9432 27.978 89.5341C26.8416 91.125 25.2166 92.3352 23.103 93.1648C21.0007 93.9943 18.4723 94.4091 15.5178 94.4091C12.4837 94.4091 9.83594 93.9602 7.57457 93.0625C5.32457 92.1648 3.57457 90.7841 2.32457 88.9205C1.08594 87.0455 0.460938 84.6477 0.449574 81.7273H9.44957C9.50639 82.7955 9.77344 83.6932 10.2507 84.4205C10.728 85.1477 11.3984 85.6989 12.2621 86.0739C13.1371 86.4489 14.1768 86.6364 15.3814 86.6364C16.3928 86.6364 17.2393 86.5114 17.9212 86.2614C18.603 86.0114 19.12 85.6648 19.4723 85.2216C19.8246 84.7784 20.0064 84.2727 20.0178 83.7045C20.0064 83.1705 19.8303 82.7045 19.4893 82.3068C19.1598 81.8977 18.6143 81.5341 17.853 81.2159C17.0916 80.8864 16.0632 80.5795 14.7678 80.2955L11.2905 79.5455C8.19957 78.875 5.76207 77.7557 3.97798 76.1875C2.20526 74.608 1.32457 72.4545 1.33594 69.7273C1.32457 67.5114 1.91548 65.5739 3.10866 63.9148C4.31321 62.2443 5.97798 60.9432 8.10298 60.0114C10.2393 59.0795 12.6882 58.6136 15.4496 58.6136C18.2678 58.6136 20.7053 59.0852 22.7621 60.0284C24.8189 60.9716 26.4041 62.3011 27.5178 64.017C28.6428 65.7216 29.2109 67.7159 29.2223 70H20.1541ZM65.8956 72.1818H56.282C56.2138 71.3864 56.032 70.6648 55.7365 70.017C55.4524 69.3693 55.0547 68.8125 54.5433 68.3466C54.0433 67.8693 53.4354 67.5057 52.7195 67.2557C52.0036 66.9943 51.1911 66.8636 50.282 66.8636C48.6911 66.8636 47.3445 67.25 46.2422 68.0227C45.1513 68.7955 44.3217 69.9034 43.7536 71.3466C43.1967 72.7898 42.9183 74.5227 42.9183 76.5455C42.9183 78.6818 43.2024 80.4716 43.7706 81.9148C44.3501 83.3466 45.1854 84.4261 46.2763 85.1534C47.3672 85.8693 48.6797 86.2273 50.2138 86.2273C51.0888 86.2273 51.8729 86.1193 52.5661 85.9034C53.2592 85.6761 53.8615 85.3523 54.3729 84.9318C54.8842 84.5114 55.299 84.0057 55.6172 83.4148C55.9467 82.8125 56.1683 82.1364 56.282 81.3864L65.8956 81.4545C65.782 82.9318 65.3672 84.4375 64.6513 85.9716C63.9354 87.4943 62.9183 88.9034 61.6001 90.1989C60.2933 91.483 58.674 92.517 56.7422 93.3011C54.8104 94.0852 52.5661 94.4773 50.0092 94.4773C46.8047 94.4773 43.9297 93.7898 41.3842 92.4148C38.8501 91.0398 36.8445 89.017 35.3672 86.3466C33.9013 83.6761 33.1683 80.4091 33.1683 76.5455C33.1683 72.6591 33.9183 69.3864 35.4183 66.7273C36.9183 64.0568 38.9411 62.0398 41.4865 60.6761C44.032 59.3011 46.8729 58.6136 50.0092 58.6136C52.2138 58.6136 54.2422 58.9148 56.0945 59.517C57.9467 60.1193 59.5717 61 60.9695 62.1591C62.3672 63.3068 63.4922 64.7216 64.3445 66.4034C65.1967 68.0852 65.7138 70.0114 65.8956 72.1818ZM70.1953 94V59.0909H79.6726V72.7273H92.218V59.0909H101.695V94H92.218V80.3636H79.6726V94H70.1953ZM115.059 94L104.763 59.0909H115.332L120.104 80.5682H120.377L126.036 59.0909H134.354L140.013 80.6364H140.286L145.059 59.0909H155.627L145.332 94H136.263L130.332 74.5H130.059L124.127 94H115.059ZM163.685 94H153.458L164.981 59.0909H177.935L189.458 94H179.231L171.594 68.7045H171.322L163.685 94ZM161.776 80.2273H181.004V87.3182H161.776V80.2273ZM192.82 94V59.0909H207.888C210.479 59.0909 212.746 59.5625 214.69 60.5057C216.633 61.4489 218.144 62.8068 219.224 64.5795C220.303 66.3523 220.843 68.4773 220.843 70.9545C220.843 73.4545 220.286 75.5625 219.173 77.2784C218.07 78.9943 216.519 80.2898 214.519 81.1648C212.531 82.0398 210.207 82.4773 207.548 82.4773H198.548V75.1136H205.638C206.752 75.1136 207.701 74.9773 208.485 74.7045C209.281 74.4205 209.888 73.9716 210.309 73.358C210.741 72.7443 210.957 71.9432 210.957 70.9545C210.957 69.9545 210.741 69.142 210.309 68.517C209.888 67.8807 209.281 67.4148 208.485 67.1193C207.701 66.8125 206.752 66.6591 205.638 66.6591H202.298V94H192.82ZM213.275 77.9773L222.002 94H211.707L203.184 77.9773H213.275ZM223.928 66.7273V59.0909H254.269V66.7273H243.769V94H234.428V66.7273H223.928ZM257.972 94V88.75L274.472 66.7273H258.04V59.0909H286.54V64.3409L270.04 86.3636H286.472V94H257.972Z" fill="white"/>
</svg>
