<svg width="523" height="37" viewBox="0 0 523 37" fill="none" xmlns="http://www.w3.org/2000/svg">
<path d="M0.523438 1.09091H12.3189L20.4325 20.8636H20.8416L28.9553 1.09091H40.7507V36H31.478V15.8182H31.2053L23.4325 35.7273H17.8416L10.0689 15.6818H9.79617V36H0.523438V1.09091ZM54.7195 1.09091V36H45.2422V1.09091H54.7195ZM91.8018 14.1818H82.1882C82.12 13.3864 81.9382 12.6648 81.6428 12.017C81.3587 11.3693 80.9609 10.8125 80.4496 10.3466C79.9496 9.86932 79.3416 9.50568 78.6257 9.25568C77.9098 8.99432 77.0973 8.86364 76.1882 8.86364C74.5973 8.86364 73.2507 9.25 72.1484 10.0227C71.0575 10.7955 70.228 11.9034 69.6598 13.3466C69.103 14.7898 68.8246 16.5227 68.8246 18.5455C68.8246 20.6818 69.1087 22.4716 69.6768 23.9148C70.2564 25.3466 71.0916 26.4261 72.1825 27.1534C73.2734 27.8693 74.5859 28.2273 76.12 28.2273C76.995 28.2273 77.7791 28.1193 78.4723 27.9034C79.1655 27.6761 79.7678 27.3523 80.2791 26.9318C80.7905 26.5114 81.2053 26.0057 81.5234 25.4148C81.853 24.8125 82.0746 24.1364 82.1882 23.3864L91.8018 23.4545C91.6882 24.9318 91.2734 26.4375 90.5575 27.9716C89.8416 29.4943 88.8246 30.9034 87.5064 32.1989C86.1996 33.483 84.5803 34.517 82.6484 35.3011C80.7166 36.0852 78.4723 36.4773 75.9155 36.4773C72.7109 36.4773 69.8359 35.7898 67.2905 34.4148C64.7564 33.0398 62.7507 31.017 61.2734 28.3466C59.8075 25.6761 59.0746 22.4091 59.0746 18.5455C59.0746 14.6591 59.8246 11.3864 61.3246 8.72727C62.8246 6.05682 64.8473 4.03977 67.3928 2.67614C69.9382 1.30114 72.7791 0.613635 75.9155 0.613635C78.12 0.613635 80.1484 0.914771 82.0007 1.51704C83.853 2.11932 85.478 3 86.8757 4.15909C88.2734 5.30682 89.3984 6.72159 90.2507 8.40341C91.103 10.0852 91.62 12.0114 91.8018 14.1818ZM96.1016 36V1.09091H105.579V14.7273H118.124V1.09091H127.602V36H118.124V22.3636H105.579V36H96.1016ZM141.17 36H130.942L142.465 1.09091H155.42L166.942 36H156.715L149.079 10.7045H148.806L141.17 36ZM139.261 22.2273H158.488V29.3182H139.261V22.2273ZM170.305 36V1.09091H195.464V8.72727H179.782V14.7273H194.168V22.3636H179.782V28.3636H195.396V36H170.305ZM200.164 36V1.09091H209.641V28.3636H223.755V36H200.164ZM255.967 12C255.876 10.8636 255.45 9.97727 254.688 9.34091C253.938 8.70454 252.796 8.38636 251.262 8.38636C250.285 8.38636 249.484 8.50568 248.859 8.74432C248.245 8.97159 247.79 9.28409 247.495 9.68182C247.2 10.0795 247.046 10.5341 247.035 11.0455C247.012 11.4659 247.086 11.8466 247.256 12.1875C247.438 12.517 247.722 12.8182 248.109 13.0909C248.495 13.3523 248.989 13.5909 249.592 13.8068C250.194 14.0227 250.91 14.2159 251.739 14.3864L254.603 15C256.535 15.4091 258.188 15.9489 259.563 16.6193C260.938 17.2898 262.063 18.0795 262.938 18.9886C263.813 19.8864 264.455 20.8977 264.864 22.0227C265.285 23.1477 265.501 24.375 265.512 25.7045C265.501 28 264.927 29.9432 263.79 31.5341C262.654 33.125 261.029 34.3352 258.915 35.1648C256.813 35.9943 254.285 36.4091 251.33 36.4091C248.296 36.4091 245.648 35.9602 243.387 35.0625C241.137 34.1648 239.387 32.7841 238.137 30.9205C236.898 29.0455 236.273 26.6477 236.262 23.7273H245.262C245.319 24.7955 245.586 25.6932 246.063 26.4205C246.54 27.1477 247.211 27.6989 248.075 28.0739C248.95 28.4489 249.989 28.6364 251.194 28.6364C252.205 28.6364 253.052 28.5114 253.734 28.2614C254.415 28.0114 254.933 27.6648 255.285 27.2216C255.637 26.7784 255.819 26.2727 255.83 25.7045C255.819 25.1705 255.643 24.7045 255.302 24.3068C254.972 23.8977 254.427 23.5341 253.665 23.2159C252.904 22.8864 251.876 22.5795 250.58 22.2955L247.103 21.5455C244.012 20.875 241.575 19.7557 239.79 18.1875C238.018 16.608 237.137 14.4545 237.148 11.7273C237.137 9.51136 237.728 7.57386 238.921 5.91477C240.126 4.24432 241.79 2.94318 243.915 2.01136C246.052 1.07954 248.501 0.613635 251.262 0.613635C254.08 0.613635 256.518 1.08523 258.575 2.02841C260.631 2.97159 262.217 4.30114 263.33 6.01705C264.455 7.72159 265.023 9.71591 265.035 12H255.967ZM301.708 14.1818H292.094C292.026 13.3864 291.844 12.6648 291.549 12.017C291.265 11.3693 290.867 10.8125 290.356 10.3466C289.856 9.86932 289.248 9.50568 288.532 9.25568C287.816 8.99432 287.004 8.86364 286.094 8.86364C284.504 8.86364 283.157 9.25 282.055 10.0227C280.964 10.7955 280.134 11.9034 279.566 13.3466C279.009 14.7898 278.731 16.5227 278.731 18.5455C278.731 20.6818 279.015 22.4716 279.583 23.9148C280.163 25.3466 280.998 26.4261 282.089 27.1534C283.18 27.8693 284.492 28.2273 286.026 28.2273C286.901 28.2273 287.685 28.1193 288.379 27.9034C289.072 27.6761 289.674 27.3523 290.185 26.9318C290.697 26.5114 291.112 26.0057 291.43 25.4148C291.759 24.8125 291.981 24.1364 292.094 23.3864L301.708 23.4545C301.594 24.9318 301.18 26.4375 300.464 27.9716C299.748 29.4943 298.731 30.9034 297.413 32.1989C296.106 33.483 294.487 34.517 292.555 35.3011C290.623 36.0852 288.379 36.4773 285.822 36.4773C282.617 36.4773 279.742 35.7898 277.197 34.4148C274.663 33.0398 272.657 31.017 271.18 28.3466C269.714 25.6761 268.981 22.4091 268.981 18.5455C268.981 14.6591 269.731 11.3864 271.231 8.72727C272.731 6.05682 274.754 4.03977 277.299 2.67614C279.844 1.30114 282.685 0.613635 285.822 0.613635C288.026 0.613635 290.055 0.914771 291.907 1.51704C293.759 2.11932 295.384 3 296.782 4.15909C298.18 5.30682 299.305 6.72159 300.157 8.40341C301.009 10.0852 301.526 12.0114 301.708 14.1818ZM306.008 36V1.09091H315.485V14.7273H328.031V1.09091H337.508V36H328.031V22.3636H315.485V36H306.008ZM350.871 36L340.576 1.09091H351.144L355.917 22.5682H356.19L361.849 1.09091H370.167L375.826 22.6364H376.099L380.871 1.09091H391.44L381.144 36H372.076L366.144 16.5H365.871L359.94 36H350.871ZM399.498 36H389.271L400.793 1.09091H413.748L425.271 36H415.043L407.407 10.7045H407.134L399.498 36ZM397.589 22.2273H416.816V29.3182H397.589V22.2273ZM428.633 36V1.09091H443.701C446.292 1.09091 448.559 1.5625 450.502 2.50568C452.445 3.44886 453.957 4.80682 455.036 6.57955C456.116 8.35227 456.656 10.4773 456.656 12.9545C456.656 15.4545 456.099 17.5625 454.985 19.2784C453.883 20.9943 452.332 22.2898 450.332 23.1648C448.343 24.0398 446.019 24.4773 443.36 24.4773H434.36V17.1136H441.451C442.565 17.1136 443.513 16.9773 444.298 16.7045C445.093 16.4205 445.701 15.9716 446.121 15.358C446.553 14.7443 446.769 13.9432 446.769 12.9545C446.769 11.9545 446.553 11.142 446.121 10.517C445.701 9.88068 445.093 9.41477 444.298 9.11932C443.513 8.8125 442.565 8.65909 441.451 8.65909H438.11V36H428.633ZM449.087 19.9773L457.815 36H447.519L438.996 19.9773H449.087ZM459.741 8.72727V1.09091H490.082V8.72727H479.582V36H470.241V8.72727H459.741ZM493.785 36V30.75L510.285 8.72727H493.853V1.09091H522.353V6.34091L505.853 28.3636H522.285V36H493.785Z" fill="white"/>
</svg>
