<svg width="54" height="54" viewBox="0 0 54 54" fill="none" xmlns="http://www.w3.org/2000/svg">
<path d="M24.8177 13.7227C25.0803 13.7203 25.1186 13.7251 25.2869 13.7923C25.3889 13.8331 25.5139 13.8955 25.5623 13.9315C25.6108 13.9699 25.6949 14.0539 25.7459 14.1187C25.7995 14.1835 25.8709 14.3035 25.9066 14.3875C25.9423 14.4691 25.9882 14.6371 26.0112 14.7595C26.0418 14.9203 26.0494 15.0523 26.0367 15.2443C26.029 15.3883 25.9933 15.6283 25.9576 15.7723C25.9219 15.9162 25.8173 16.2402 25.7255 16.4922C25.6337 16.7442 25.4909 17.133 25.4093 17.3562C25.3277 17.5794 25.2385 17.8674 25.2104 17.9922C25.1823 18.117 25.1517 18.2922 25.1441 18.3834C25.1339 18.4842 25.139 18.5442 25.1543 18.5442C25.1696 18.5442 25.2282 18.4602 25.2869 18.3594C25.343 18.2562 25.5088 18.0042 25.6516 17.8002C25.7944 17.5962 26.0647 17.2338 26.256 16.9962C26.4447 16.7586 26.7507 16.3962 26.9318 16.1922C27.1154 15.9882 27.3883 15.6979 27.5413 15.5467C27.6943 15.3955 27.9059 15.2083 28.0105 15.1291C28.1151 15.0499 28.2808 14.9491 28.3803 14.9035C28.5256 14.8387 28.5996 14.8195 28.7756 14.8075C28.9668 14.7955 29.0076 14.8003 29.13 14.8507C29.2142 14.8843 29.3111 14.9515 29.3723 15.0163C29.4309 15.0763 29.51 15.1915 29.5508 15.2683C29.5891 15.3475 29.6401 15.4891 29.6605 15.5803C29.686 15.6955 29.6936 15.8274 29.686 16.0002C29.6758 16.2066 29.6579 16.3002 29.5814 16.5162C29.5202 16.6842 29.3315 17.073 29.0561 17.5842C28.8215 18.0258 28.5256 18.5778 28.4007 18.8082C28.2783 19.0386 28.1329 19.3386 28.0794 19.4754C28.0283 19.6098 27.9569 19.8138 27.9212 19.929C27.8855 20.0466 27.8575 20.1834 27.8575 20.2362C27.8575 20.3298 27.8626 20.325 28.0309 20.0442C28.1278 19.8858 28.3165 19.5834 28.4542 19.3722C28.5945 19.161 28.7832 18.8802 28.8776 18.7482C28.9719 18.6162 29.1224 18.4218 29.2116 18.3162C29.3009 18.2106 29.5738 17.8986 29.8211 17.6202C30.0685 17.3418 30.3465 17.0538 30.4357 16.977C30.525 16.8978 30.7086 16.7658 30.8412 16.6818C30.9738 16.5978 31.1625 16.497 31.262 16.4586C31.3614 16.4202 31.5093 16.3698 31.5935 16.3506C31.6777 16.329 31.8103 16.3122 31.8868 16.3122C31.9633 16.3122 32.0831 16.3266 32.1545 16.3458C32.2285 16.3674 32.3305 16.4226 32.3968 16.4754C32.4606 16.5258 32.5473 16.6314 32.5932 16.7106C32.6365 16.7874 32.6926 16.9218 32.7156 17.0082C32.7411 17.1066 32.7615 17.3178 32.7717 17.5722C32.7844 17.937 32.7793 17.9946 32.736 18.1122C32.7079 18.1842 32.3433 19.0314 31.925 19.9962C31.5068 20.9586 31.0631 21.9857 30.9381 22.2761C30.8131 22.5665 30.6703 22.9121 30.6219 23.0441C30.5734 23.1761 30.4995 23.4017 30.4587 23.5481C30.4153 23.6945 30.3592 23.9249 30.3312 24.0641C30.3031 24.2033 30.2802 24.3713 30.2802 24.4361C30.2802 24.5009 30.3006 24.6137 30.3235 24.6857C30.3516 24.7625 30.4128 24.8633 30.474 24.9257C30.5326 24.9881 30.6372 25.0625 30.7162 25.0961C30.8437 25.1513 30.8846 25.1561 31.211 25.1561C31.5144 25.1561 31.6292 25.1441 31.976 25.0769C32.2004 25.0337 32.4096 24.9929 32.4402 24.9857C32.4759 24.9809 32.4988 24.9881 32.4988 25.0049C32.4988 25.0217 32.458 25.1009 32.4096 25.1801C32.3586 25.2593 32.2463 25.3937 32.1596 25.4777C32.0729 25.5617 31.9276 25.6769 31.8358 25.7321C31.744 25.7897 31.6114 25.8569 31.5425 25.8833C31.4711 25.9097 31.3181 25.9481 31.1982 25.9721C31.0121 26.0057 30.956 26.0081 30.8157 25.9841C30.7239 25.9673 30.5862 25.9313 30.5097 25.9049C30.4332 25.8785 30.2955 25.8113 30.2037 25.7561C30.1118 25.7009 29.9818 25.5953 29.9129 25.5257C29.8441 25.4537 29.7548 25.3481 29.7115 25.2881C29.6681 25.2281 29.5967 25.1057 29.5508 25.0121C29.5075 24.9185 29.4462 24.7529 29.4156 24.6401C29.3876 24.5273 29.3493 24.3233 29.334 24.1841C29.3162 24.0377 29.3111 23.7665 29.3187 23.5361C29.3264 23.2865 29.3519 23.0369 29.3876 22.8641C29.4156 22.7129 29.4769 22.4585 29.5177 22.3001C29.561 22.1417 29.6732 21.7913 29.7676 21.5201C29.8645 21.249 30.0175 20.8554 30.1093 20.6442C30.2011 20.433 30.3414 20.1186 30.4204 19.9482C30.502 19.7754 30.7468 19.281 30.9687 18.8442C31.1906 18.4074 31.4124 17.9514 31.4634 17.829C31.5144 17.709 31.5833 17.5194 31.6165 17.409C31.6496 17.301 31.6828 17.1714 31.693 17.121C31.7006 17.0682 31.6981 17.0322 31.6828 17.0322C31.6675 17.0322 31.6088 17.0562 31.5476 17.0826C31.4889 17.1114 31.3946 17.1642 31.3385 17.1978C31.2824 17.2314 31.1498 17.3202 31.0452 17.3946C30.9407 17.469 30.7621 17.6154 30.6499 17.7186C30.5377 17.8242 30.3439 18.0162 30.219 18.1482C30.094 18.2802 29.8823 18.5178 29.7472 18.6762C29.612 18.8346 29.3927 19.1034 29.2601 19.2762C29.1275 19.449 28.8903 19.773 28.7296 19.9962C28.5715 20.2218 28.1737 20.8266 27.8447 21.3402C27.5183 21.8537 27.1817 22.3649 27.095 22.4753C27.0083 22.5833 26.9139 22.6889 26.8808 22.7081C26.8502 22.7273 26.7788 22.7513 26.7227 22.7585C26.664 22.7681 26.5773 22.7609 26.5186 22.7417C26.4625 22.7249 26.3835 22.6817 26.3427 22.6481C26.3019 22.6145 26.2458 22.5401 26.2203 22.4801C26.1922 22.4201 26.154 22.2737 26.131 22.1561C26.103 22.0001 26.0979 21.8705 26.1106 21.6881C26.1183 21.5489 26.1489 21.3186 26.1744 21.1722C26.2024 21.0258 26.2585 20.7954 26.2993 20.6562C26.3427 20.517 26.4217 20.2914 26.4753 20.1522C26.5314 20.013 26.6308 19.7754 26.6997 19.6242C26.766 19.473 26.9165 19.1706 27.0287 18.9522C27.1434 18.7338 27.4367 18.2274 27.679 17.8242C27.9238 17.421 28.2171 16.9146 28.3318 16.6962C28.4491 16.4778 28.5894 16.1898 28.6455 16.0554C28.7041 15.9186 28.7781 15.7195 28.8113 15.6115C28.8444 15.5011 28.8674 15.4075 28.8623 15.4003C28.8572 15.3931 28.7169 15.4843 28.5537 15.6043C28.3803 15.7267 28.0564 16.0026 27.7912 16.2522C27.5387 16.4898 27.2072 16.8234 27.0567 16.9962C26.9063 17.169 26.5951 17.541 26.3707 17.8242C26.1438 18.1098 25.825 18.5226 25.6643 18.7434C25.5037 18.9642 25.2461 19.3266 25.0956 19.5474C24.9452 19.7682 24.6927 20.1474 24.5372 20.3922C24.3816 20.637 24.1419 21.0306 24.0042 21.2682C23.8665 21.5057 23.6803 21.8633 23.591 22.0601C23.5018 22.2593 23.3488 22.6025 23.2519 22.8281C23.155 23.0537 23.0325 23.2985 22.9815 23.3753C22.928 23.4497 22.8413 23.5385 22.7877 23.5721C22.724 23.6153 22.6449 23.6369 22.5404 23.6465C22.4129 23.6585 22.3695 23.6513 22.2751 23.6033C22.2114 23.5721 22.1298 23.5097 22.089 23.4641C22.0507 23.4185 21.9997 23.3105 21.9768 23.2241C21.9462 23.1065 21.9385 23.0129 21.9487 22.8521C21.9589 22.7201 21.9997 22.5185 22.0533 22.3361C22.1017 22.1705 22.2216 21.8417 22.3185 21.6041C22.4154 21.3666 22.7775 20.4906 23.1218 19.6602C23.4661 18.8274 23.7899 18.0306 23.841 17.8842C23.8945 17.7378 24.1699 17.0898 24.4555 16.4442C24.7412 15.7987 24.9987 15.1819 25.0268 15.0763C25.0548 14.9707 25.0778 14.8531 25.0778 14.8123C25.0778 14.7739 25.0625 14.6971 25.0446 14.6467C25.0293 14.5963 24.9758 14.5219 24.9299 14.4859C24.884 14.4451 24.8177 14.4163 24.7769 14.4163C24.7386 14.4163 24.6443 14.4451 24.5678 14.4811C24.4734 14.5243 24.3357 14.6323 24.1444 14.8099C23.9889 14.9563 23.767 15.1963 23.6522 15.3403C23.54 15.4843 23.3717 15.7387 23.2825 15.9042C23.1932 16.0698 23.0376 16.4202 22.9356 16.6842C22.8158 16.9962 22.7342 17.1786 22.6985 17.2074C22.6679 17.2314 22.6118 17.2506 22.571 17.2482C22.5327 17.2482 22.4792 17.2386 22.4511 17.2242C22.4205 17.2098 22.3695 17.1258 22.3261 17.0274C22.2853 16.9314 22.2394 16.7922 22.2216 16.7202C22.2012 16.6338 22.1935 16.4778 22.2037 16.2762C22.2139 16.0242 22.2292 15.9258 22.2853 15.7603C22.3236 15.6475 22.4001 15.4699 22.4562 15.3643C22.5123 15.2587 22.6245 15.0811 22.7036 14.9683C22.7826 14.8579 22.956 14.6563 23.0912 14.5243C23.2264 14.3923 23.4202 14.2291 23.5247 14.1595C23.6293 14.0923 23.8052 13.9939 23.9175 13.9411C24.0297 13.8883 24.1903 13.8259 24.2745 13.8043C24.3586 13.7803 24.4504 13.7539 24.4785 13.7443C24.5065 13.7323 24.6596 13.7227 24.8151 13.7227H24.8177Z" fill="white"/>
<path d="M53 0H1L27 52L53 0Z" stroke="white" stroke-linecap="round"/>
</svg>
