<?xml version="1.0" encoding="UTF-8" standalone="no"?>
<svg
   xmlns:dc="http://purl.org/dc/elements/1.1/"
   xmlns:cc="http://creativecommons.org/ns#"
   xmlns:rdf="http://www.w3.org/1999/02/22-rdf-syntax-ns#"
   xmlns:svg="http://www.w3.org/2000/svg"
   xmlns="http://www.w3.org/2000/svg"
   xmlns:sodipodi="http://sodipodi.sourceforge.net/DTD/sodipodi-0.dtd"
   xmlns:inkscape="http://www.inkscape.org/namespaces/inkscape"
   width="821"
   height="485"
   id="svg2"
   version="1.1"
   inkscape:version="0.48.5 r10040"
   sodipodi:docname="animatethis.svg">
  <metadata
     id="metadata18">
    <rdf:RDF>
      <cc:Work
         rdf:about="">
        <dc:format>image/svg+xml</dc:format>
        <dc:type
           rdf:resource="http://purl.org/dc/dcmitype/StillImage" />
        <dc:title></dc:title>
      </cc:Work>
    </rdf:RDF>
  </metadata>
  <defs
     id="defs16" />
  <sodipodi:namedview
     pagecolor="#ffffff"
     bordercolor="#666666"
     borderopacity="1"
     objecttolerance="10"
     gridtolerance="10"
     guidetolerance="10"
     inkscape:pageopacity="0"
     inkscape:pageshadow="2"
     inkscape:window-width="1014"
     inkscape:window-height="673"
     id="namedview14"
     showgrid="false"
     inkscape:zoom="1.5395859"
     inkscape:cx="459.36538"
     inkscape:cy="242.21924"
     inkscape:window-x="264"
     inkscape:window-y="70"
     inkscape:window-maximized="0"
     inkscape:current-layer="svg2" />
  <!-- Created with SVG-edit - http://svg-edit.googlecode.com/ -->
  <circle
     id="svg_8"
     r="222.55112"
     cy="238"
     cx="406"
     stroke-linecap="null"
     stroke-linejoin="null"
     sodipodi:cx="406"
     sodipodi:cy="238"
     sodipodi:rx="222.55112"
     sodipodi:ry="222.55112"
     style="fill:#000000;stroke:#000000;stroke-width:0;stroke-dasharray:none"
     d="M 628.55112,238 C 628.55112,360.91159 528.91159,460.55112 406,460.55112 283.08841,460.55112 183.44888,360.91159 183.44888,238 183.44888,115.08841 283.08841,15.448883 406,15.448883 528.91159,15.448883 628.55112,115.08841 628.55112,238 z"
     transform="matrix(1.0896373,0,0,1.0896373,-31.892746,-16.833676)" />
  <path
     style="fill:#88aa00;stroke:#ffffff;stroke-width:10;stroke-dasharray:none"
     inkscape:connector-curvature="0"
     stroke-linejoin="null"
     stroke-linecap="null"
     d="m 246.77499,164.89865 0,0 c 0,-18.86496 16.55521,-34.15865 36.9802,-34.15865 l 16.802,0 0,0 80.68314,0 151.27719,0 c 9.80279,0 19.21069,3.598 26.15069,10.00358 6.93994,6.40782 10.82947,15.09776 10.82947,24.15507 l 0,85.40559 0,0 0,51.24022 0,0 c 0,18.86487 -16.55517,34.1608 -36.98016,34.1608 l -151.27719,0 -80.68314,0 -16.802,0 c -20.42499,0 -36.9802,-15.29593 -36.9802,-34.1608 l 0,0 0,-51.24022 0,0 0,-85.40559 z"
     id="svg_6" />
  <path
     class="path"
     style="fill:none;stroke:#000000;stroke-width:1px;stroke-linecap:butt;stroke-linejoin:miter;stroke-opacity:1"
     d="m 374.31626,257.19526 c -2.24128,8.83671 -7.67616,31.36295 -0.45928,38.57983 3.59881,3.59881 18.3973,-10.58947 21.12705,-13.31923 3.56348,-3.56348 5.05279,-11.94304 6.88926,-16.53421 0.27961,-0.69903 0.93517,-4.60114 0,-4.13356 -5.57999,2.79 -8.40575,30.27807 4.59283,33.52772 13.17126,3.29281 13.71092,-24.99022 15.61565,-32.60915 0.18566,-0.74262 -0.76547,-2.29642 0,-2.29642 0.2206,0 -2.20356,27.8331 1.83714,29.85345 3.06106,1.53053 21.58633,-15.03089 21.58633,-11.4821 0,0.41017 -6.00944,0.17893 -6.42997,0.45929 -0.88419,0.58946 -4.3288,4.06475 -5.05212,5.5114 -3.10566,6.21131 3.06281,17.75852 11.02281,13.77851 7.7157,-3.85785 2.02032,-24.9845 -1.37785,-21.58633 -0.75554,0.75553 1.4917,2.86955 1.83713,3.21498 9.29047,9.29047 23.14824,0.78095 18.83064,-1.37785 -2.57364,-1.28682 -5.40395,19.77868 -5.05212,18.37135 0.71771,-2.87085 1.40728,-6.02955 2.7557,-8.72639 1.63671,-3.27343 9.5582,-13.59225 13.77851,-11.48209 0.57132,0.28566 -2.33059,-0.21256 -2.7557,0 -2.1657,1.08285 -5.60173,7.44269 -4.13355,9.64496 3.5612,5.3418 11.16361,7.20773 15.61564,2.7557 4.26956,-4.26956 17.91004,-30.0841 10.10425,-33.987 -2.24284,-1.12142 -4.78565,0.89752 -6.42998,1.83714 -8.77728,5.01559 -6.33427,32.65699 0.91857,36.28341 5.97206,2.98604 11.24032,-9.35487 16.07493,-10.56352 2.18008,-0.54502 3.64472,-1.82236 5.51141,-2.75571 1.10398,-0.55199 4.54704,0.41349 3.67427,-0.45928 -1.49957,-1.49956 -6.01721,0.031 -7.34854,0.91857 -15.38325,10.2555 -0.59798,27.83441 8.72639,9.18567 4.31138,-8.62276 5.5114,-18.33963 5.5114,-28.01631 0,-3.20707 -0.91856,-6.11935 -0.91856,-9.64495 0,-0.91857 0,-3.67427 0,-2.75571 0,5.8169 -8.42333,35.5117 -5.51141,41.33554 2.08887,4.17775 13.33842,4.58004 17.45278,1.83714 1.35378,-0.90252 2.40961,-3.84406 3.21499,-5.05213"
     id="path3823"
     inkscape:connector-curvature="0" />
  <path
     class="path"
     style="fill:none;stroke:#000000;stroke-width:1px;stroke-linecap:butt;stroke-linejoin:miter;stroke-opacity:1"
     d="m 282.45951,169.01278 c 3.372,-1.7763 13.20134,-8.0436 15.61565,-3.21499 4.7033,9.4066 -0.45929,25.47477 -0.45929,35.36485 0,4.14464 -5.29029,8.26711 -1.83713,8.26711 1.08254,0 -1.53095,-1.53095 -2.29642,-2.29642 -1.03496,-1.03497 -1.37785,-6.88072 -1.37785,-8.72639 0,-10.09701 13.22854,-4.08821 19.7492,-7.34854 7.68018,-3.84009 5.52474,-10.11758 11.02281,-15.61565 1.47242,-1.47242 4.26932,-7.53629 2.7557,-10.56353 -2.07137,-4.14275 -6.88925,0.53737 -6.88925,3.21499 0,6.46492 -8.61821,34.55447 -3.67427,39.4984 5.46545,5.46546 26.93612,-0.19844 33.52771,-4.59284 3.24984,-2.16656 5.07083,-11.24309 0.91857,-13.31923 -9.04289,-4.52144 -13.06291,12.4861 -0.91857,16.53422 11.69223,3.89741 32.97888,-32.65392 21.12705,-38.57984 -11.01186,-5.50593 -13.67435,26.74262 -8.72639,31.69058 2.09691,2.09691 5.3464,3.82141 7.80783,5.05212 6.1546,3.07731 9.32843,-0.34344 11.48209,-3.21498 1.50325,-2.00433 4.56064,-3.64207 6.42997,-5.51141 3.64033,-3.64032 8.66941,-16.70516 6.88926,-22.04562 -2.38725,-7.16175 -8.87813,-9.41735 -13.31923,-2.7557 -4.6161,6.92415 -5.00845,29.18635 0.91857,32.14986 7.49065,3.74533 10.97653,-7.74612 13.77851,-11.48209 1.56965,-2.09287 9.83037,-3.58298 7.34854,-2.7557 -2.96331,0.98777 -6.98823,1.22244 -9.64496,3.21498 -13.43958,10.07969 7.23395,22.6195 11.94138,17.91207 1.75597,-1.75597 1.37785,-4.70162 1.37785,-7.34854 0,-15.68238 -13.73675,-16.86821 -11.48209,-10.10424 2.81527,8.44583 36.7427,2.09916 36.7427,-4.59284"
     id="path3829"
     inkscape:connector-curvature="0" />
</svg>
