<?xml version="1.0"?>
<svg width="851" height="485" xmlns="http://www.w3.org/2000/svg" xmlns:svg="http://www.w3.org/2000/svg">

 <metadata id="metadata7">image/svg+xml</metadata>
 <g>
  <title>Layer 1</title>
  <g stroke="null" id="svg_2">
   <rect stroke="#000000" id="svg_1" height="482.666656" width="482.666656" y="1" x="183" stroke-width="0" fill="#ffffff"/>
   <g stroke="null" id="layer1">
    <path stroke="null" fill="#464648" d="m406.602234,427.928223c-12.757935,-1.04892 -30.18924,-4.63559 -43.073608,-8.862762c-12.905396,-4.23407 -34.048035,-14.489929 -45.25,-21.949829c-63.71048,-42.427979 -95.556458,-119.419281 -80.142059,-193.752853c21.056366,-101.541206 120.470795,-166.902065 222.491028,-146.278767c65.715485,13.284336 119.971161,61.044392 141.084869,124.193943c26.941895,80.58078 -3.320923,168.667389 -74.152588,215.837677c-11.201965,7.4599 -32.344574,17.715759 -45.25,21.949829c-13.621155,4.468964 -30.124908,7.739258 -45.151215,8.946991c-13.474579,1.083038 -16.458893,1.074829 -30.556427,-0.084229zm37.88681,-55.124664c56.775299,-8.980377 102.154999,-54.253601 111.377899,-111.116638c0.759399,-4.681885 1.380676,-14.027328 1.380676,-20.767715c0,-21.008057 -3.885803,-38.377899 -12.701843,-56.778778c-16.156616,-33.722015 -44.155609,-58.40741 -79.311615,-69.925385c-41.051361,-13.449471 -86.011932,-6.58963 -121.367889,18.517624c-10.416229,7.396851 -24.349121,21.577576 -31.544586,32.105652c-15.88385,23.240555 -23.730774,48.397751 -23.730774,76.080887c0,21.008133 3.885773,38.377975 12.701843,56.778854c15.95993,33.311462 43.736511,58.022705 78.261932,69.625122c5.703369,1.916626 14.611938,4.238647 19.796875,5.159882c12.243469,2.175568 32.500122,2.319366 45.137482,0.320496z" id="path3016"/>
    <path stroke="null" fill="#da4936" id="path3018" d="m420.53302,136.484863c-5.700195,0.104599 -11.187683,0.599167 -16.055481,1.531891c-22.677124,4.345154 -41.619873,14.748062 -57.740906,31.728027c-18.878296,19.884201 -28.192871,43.284897 -28.192871,70.703125c0,27.418243 9.314575,50.818939 28.192871,70.703125c19.028503,20.042358 40.188385,30.121735 70.055023,33.377777c1.814728,0.197784 6.905365,0.167847 11.3125,-0.058929c29.041443,-1.494507 53.108582,-12.490662 72.883148,-33.318848c18.878296,-19.884186 28.192871,-43.284882 28.192871,-70.703125c0,-19.727997 -4.553894,-36.395645 -14.58252,-53.233551c-4.893341,-8.215851 -17.018402,-22.08728 -24.392578,-27.927734l-3.770844,-3.004883l2.798676,4.448395c3.760742,5.930084 5.169037,12.383759 4.654602,21.269867c-0.75,12.956085 -8.108582,23.885315 -20.062012,29.754227c-5.157318,2.53215 -6.510101,2.769211 -15.554688,2.769211c-9.044556,0 -10.397339,-0.237061 -15.554688,-2.769211c-7.18927,-3.5298 -13.497833,-9.838425 -17.027649,-17.027664c-2.532166,-5.157333 -2.769196,-6.510117 -2.769196,-15.554688c0,-9.044601 0.23703,-10.397354 2.769196,-15.554688c5.715424,-11.640839 16.643372,-19.170517 29.07666,-20.062012l6.805176,-0.500824l-5.125977,-1.738113c-9.859161,-3.353455 -23.37088,-5.061508 -35.911316,-4.831375z"/>
   </g>
  </g>
 </g>
</svg>