<?xml version="1.0" encoding="UTF-8" standalone="no"?>
<!-- Created with Inkscape (http://www.inkscape.org/) -->

<svg
   xmlns:dc="http://purl.org/dc/elements/1.1/"
   xmlns:cc="http://creativecommons.org/ns#"
   xmlns:rdf="http://www.w3.org/1999/02/22-rdf-syntax-ns#"
   xmlns:svg="http://www.w3.org/2000/svg"
   xmlns="http://www.w3.org/2000/svg"
   xmlns:sodipodi="http://sodipodi.sourceforge.net/DTD/sodipodi-0.dtd"
   xmlns:inkscape="http://www.inkscape.org/namespaces/inkscape"
   width="485"
   height="485"
   id="svg2"
   version="1.1"
   inkscape:version="0.48.5 r10040"
   sodipodi:docname="CollabDraw-logo.svg"
   inkscape:export-filename="C:\Users\Michael\Documents\My Site\img\CollabDraw-logo.png"
   inkscape:export-xdpi="90"
   inkscape:export-ydpi="90">
  <defs
     id="defs4" />
  <sodipodi:namedview
     id="base"
     pagecolor="#ffffff"
     bordercolor="#666666"
     borderopacity="1.0"
     inkscape:pageopacity="0.0"
     inkscape:pageshadow="2"
     inkscape:zoom="0.52310995"
     inkscape:cx="28.357608"
     inkscape:cy="182.75719"
     inkscape:document-units="px"
     inkscape:current-layer="g3882"
     showgrid="false"
     inkscape:window-width="1440"
     inkscape:window-height="837"
     inkscape:window-x="-8"
     inkscape:window-y="-8"
     inkscape:window-maximized="1">
    <inkscape:grid
       type="xygrid"
       id="grid2985"
       empspacing="5"
       visible="true"
       enabled="true"
       snapvisiblegridlinesonly="true" />
  </sodipodi:namedview>
  <metadata
     id="metadata7">
    <rdf:RDF>
      <cc:Work
         rdf:about="">
        <dc:format>image/svg+xml</dc:format>
        <dc:type
           rdf:resource="http://purl.org/dc/dcmitype/StillImage" />
        <dc:title></dc:title>
      </cc:Work>
    </rdf:RDF>
  </metadata>
  <g
     inkscape:label="Layer 1"
     inkscape:groupmode="layer"
     id="layer1"
     transform="translate(0,-567.36217)">
    <g
       id="g3882"
       transform="translate(0,-6)">
      <rect
         style="fill:#88aa00;stroke-width:1;stroke-miterlimit:4;stroke-dasharray:none;fill-opacity:1"
         id="rect3008"
         width="485"
         height="485"
         x="0"
         y="573.36218" />
      <g
         id="g3005"
         transform="matrix(-2.3506157,0.45401561,-0.45401561,-2.3506157,1576.981,2531.6224)">
        <path
           id="path3975-2-9"
           d="m 477.55245,758.76566 -9.18061,2.61755 c 0.91433,2.05482 1.86676,3.85516 4.96633,6.04315 l 4.21428,-8.6607 z m -9.57522,2.73676 -0.45348,0.13333 -10.04943,2.88745 5.46347,6.50921 5.46347,6.50921 4.58595,-9.39666 0.14428,-0.33317 c -2.79748,-0.91894 -4.90636,-2.77671 -5.15434,-6.30934 z"
           style="fill:#ffffff;fill-opacity:1;stroke:none"
           inkscape:connector-curvature="0" />
        <g
           transform="matrix(0.55678661,0.66335994,-0.66335994,0.55678661,782.43405,260.89158)"
           id="g3979-2-2">
          <path
             style="fill:#ffffff;fill-opacity:1;stroke:none"
             d="m 209.25011,661.24365 c -2.79157,0 -5.0625,2.23968 -5.0625,5.03125 l 0,145.78125 19.625,0 0,-145.78125 c 0,-2.79157 -2.27093,-5.03125 -5.0625,-5.03125 l -9.5,0 z m -5.0625,156.8125 0,12.75 c 0,2.79157 2.27093,5.03125 5.0625,5.03125 l 9.5,0 c 2.79157,0 5.0625,-2.23968 5.0625,-5.03125 l 0,-12.75 -19.625,0 z"
             id="rect3947-1-7"
             inkscape:connector-curvature="0" />
          <rect
             style="fill:#ffffff;fill-opacity:1;stroke:none"
             id="rect3977-6-9"
             width="19.625"
             height="5.9409356"
             x="204.18761"
             y="661.24365"
             ry="0" />
        </g>
      </g>
    </g>
  </g>
</svg>
