<?xml version="1.0" encoding="UTF-8" standalone="no"?>
<svg
   xmlns:dc="http://purl.org/dc/elements/1.1/"
   xmlns:cc="http://creativecommons.org/ns#"
   xmlns:rdf="http://www.w3.org/1999/02/22-rdf-syntax-ns#"
   xmlns:svg="http://www.w3.org/2000/svg"
   xmlns="http://www.w3.org/2000/svg"
   xmlns:sodipodi="http://sodipodi.sourceforge.net/DTD/sodipodi-0.dtd"
   xmlns:inkscape="http://www.inkscape.org/namespaces/inkscape"
   width="3.55556in"
   height="3.55556in"
   viewBox="0 0 256 256"
   id="svg2"
   version="1.1"
   inkscape:version="0.48.3.1 r9886"
   sodipodi:docname="deviantart.svg">
  <metadata
     id="metadata9">
    <rdf:RDF>
      <cc:Work
         rdf:about="">
        <dc:format>image/svg+xml</dc:format>
        <dc:type
           rdf:resource="http://purl.org/dc/dcmitype/StillImage" />
      </cc:Work>
    </rdf:RDF>
  </metadata>
  <defs
     id="defs7" />
  <sodipodi:namedview
     pagecolor="#ffffff"
     bordercolor="#666666"
     borderopacity="1"
     objecttolerance="10"
     gridtolerance="10"
     guidetolerance="10"
     inkscape:pageopacity="0"
     inkscape:pageshadow="2"
     inkscape:window-width="1301"
     inkscape:window-height="744"
     id="namedview5"
     showgrid="false"
     inkscape:zoom="1.4749982"
     inkscape:cx="35.373907"
     inkscape:cy="164.99572"
     inkscape:window-x="65"
     inkscape:window-y="24"
     inkscape:window-maximized="1"
     inkscape:current-layer="svg2" />
  <path
     id="Selection #1"
     d="m 78.43339,72.686102 c 2.95,-0.59 9.992034,-1.654407 13.25661,-1.966102 1.768305,3.065763 7.185254,13.704576 9.53,17.64 23.03,-4.34 21.2,-3.8 44.3,-3.8 27.53,0 45.92,1.35 69.6,17.31 7.8,5.25 16.23,11.89 21.92,19.4 2.84,3.74 5.88,8.89 3.9,13.75 -2.23,5.49 -14.16,7.15 -19.49,8.66 l -51.89,14.1 c -4.14,1.12 -16.53,5.34 -19.98,3.74 -3.35,-1.55 -7.15,-10.21 -9.13,-13.68 L 120.2,109.88 c 6.40119,-0.86305 27.48559,-2.21797 32.68,-2.51 2.24153,3.58136 13.31186,20.10119 16.68,25.29 l 35.44,-7.6 c -4.47,-7.94 -10.94,-11.68 -18.98,-15.46 -16.56,-7.79 -28,-7.4 -45.57,-7.32 l -27.84,2.53 30.37,59.49 -29.1,8.49 -58.22,16.35 c -5.82,1.51 -25.18,8.26 -29.85,6.07 -2.81,-1.32 -3.84,-5.41 -4.74,-8.13 -3.5,-10.6 -3.51,-15.68 -3.38,-26.58 0.28,-23.41 15.12,-42.7 34.17,-54.81 5.91,-3.76 12.05,-7.17 18.98,-8.47 L 61.98,75.7 z M 60.72,159.23 97.42,150.38 80.97,116.2 c -17.87,7.01 -24.56,25.32 -20.25,43.03 z"
     style="fill:#ffffff;stroke:#ffffff;stroke-width:1;stroke-opacity:1"
     inkscape:connector-curvature="0"
     sodipodi:nodetypes="cccscccccccccccccccccccccccccccc" />
</svg>
