<?xml version="1.0" encoding="UTF-8" standalone="no"?>
<svg
   xmlns:dc="http://purl.org/dc/elements/1.1/"
   xmlns:cc="http://creativecommons.org/ns#"
   xmlns:rdf="http://www.w3.org/1999/02/22-rdf-syntax-ns#"
   xmlns:svg="http://www.w3.org/2000/svg"
   xmlns="http://www.w3.org/2000/svg"
   xmlns:sodipodi="http://sodipodi.sourceforge.net/DTD/sodipodi-0.dtd"
   xmlns:inkscape="http://www.inkscape.org/namespaces/inkscape"
   width="821"
   height="485"
   viewBox="0 0 656.80007 388.00003"
   id="svg2"
   version="1.1"
   inkscape:version="0.48.5 r10040"
   sodipodi:docname="ipod.svg">
  <metadata
     id="metadata9">
    <rdf:RDF>
      <cc:Work
         rdf:about="">
        <dc:format>image/svg+xml</dc:format>
        <dc:type
           rdf:resource="http://purl.org/dc/dcmitype/StillImage" />
        <dc:title></dc:title>
      </cc:Work>
    </rdf:RDF>
  </metadata>
  <defs
     id="defs7" />
  <sodipodi:namedview
     pagecolor="#ffffff"
     bordercolor="#666666"
     borderopacity="1"
     objecttolerance="10"
     gridtolerance="10"
     guidetolerance="10"
     inkscape:pageopacity="0"
     inkscape:pageshadow="2"
     inkscape:window-width="1440"
     inkscape:window-height="837"
     id="namedview5"
     showgrid="false"
     inkscape:zoom="1.0429826"
     inkscape:cx="377.81495"
     inkscape:cy="269.95316"
     inkscape:window-x="-8"
     inkscape:window-y="-8"
     inkscape:window-maximized="1"
     inkscape:current-layer="svg2" />
  <g
     id="g3822"
     transform="matrix(1.2578552,0,0,1.2578552,-84.495206,-49.576384)">
    <path
       sodipodi:nodetypes="csssssssscsssssccccc"
       inkscape:connector-curvature="0"
       id="rect3079"
       transform="matrix(0.80000009,0,0,0.80000009,0,-5.6760049e-6)"
       d="m 356.71875,49.28125 c -19.14571,1.012474 -34.25,17.54295 -34.25,37.90625 l 0,309.75 c 0,21.02019 16.0747,37.90625 36.09375,37.90625 l 103.9375,0 c 20.01957,0 36.15625,-16.88606 36.15625,-37.90625 l 0,-309.75 c 0,-21.020183 -16.13668,-37.90625 -36.15625,-37.90625 l -103.9375,0 c -0.62562,0 -1.22618,-0.03258 -1.84375,0 z m 52.4375,25.875 c 1.68494,0 3.0625,1.377564 3.0625,3.0625 0,1.684936 -1.37756,3.0625 -3.0625,3.0625 -1.68494,0 -3.0625,-1.377564 -3.0625,-3.0625 0,-1.684936 1.37756,-3.0625 3.0625,-3.0625 z m -74.9955,24.76719 154.97968,0 0,279.7487 -154.97968,0 z"
       style="fill:#ffffff;fill-opacity:1;stroke:none" />
    <path
       sodipodi:type="arc"
       style="fill:#ffffff;fill-opacity:1;stroke:#909090;stroke-width:0.4686262;stroke-linejoin:round;stroke-miterlimit:1;stroke-opacity:1;stroke-dasharray:none"
       id="path3087"
       sodipodi:cx="1381.5253"
       sodipodi:cy="486.77966"
       sodipodi:rx="11.864406"
       sodipodi:ry="11.864406"
       d="m 1393.3897,486.77966 c 0,6.55253 -5.3119,11.86441 -11.8644,11.86441 -6.5526,0 -11.8644,-5.31188 -11.8644,-11.86441 0,-6.55253 5.3118,-11.8644 11.8644,-11.8644 6.5525,0 11.8644,5.31187 11.8644,11.8644 z"
       transform="matrix(0.83298559,0,0,0.87464029,-822.70063,-102.24463)" />
    <rect
       ry="1.0847458"
       y="321.19568"
       x="325.52304"
       height="5.2881355"
       width="5.1525421"
       id="rect3820"
       style="fill:#ffffff;stroke:#676767;stroke-width:0.40000004;stroke-linejoin:round;stroke-miterlimit:1;stroke-opacity:1;stroke-dasharray:none" />
  </g>
</svg>
