<?xml version="1.0" encoding="UTF-8" standalone="no"?>
<svg width="851px" height="485px" viewBox="0 0 851 485" version="1.1" xmlns="http://www.w3.org/2000/svg" xmlns:xlink="http://www.w3.org/1999/xlink" xmlns:sketch="http://www.bohemiancoding.com/sketch/ns">
    <!-- Generator: Sketch 3.4.4 (17249) - http://www.bohemiancoding.com/sketch -->
    <title>kodeweave copy</title>
    <desc>Created with Sketch.</desc>
    <defs></defs>
    <g id="Page-1" stroke="none" stroke-width="1" fill="none" fill-rule="evenodd" sketch:type="MSPage">
        <g id="kodeweave" sketch:type="MSLayerGroup">
            <g id="g4137" sketch:type="MSShapeGroup">
                <rect id="Rectangle-2" stroke="#979797" opacity="0" fill="#D8D8D8" x="0" y="0" width="851" height="485"></rect>
                <rect id="rect4138" fill-opacity="0.94117647" fill="#FFFFFF" x="183" y="0" width="485" height="485"></rect>
                <path d="M298.48047,242.973614 L298.48047,106.752005 L334.299691,106.752005 L370.11892,106.752005 L370.162968,163.465783 L370.207016,220.179571 L373.14784,216.741461 C374.765381,214.85051 394.161176,189.356201 416.249705,160.087455 L456.410651,106.87155 L499.745742,106.811683 L543.080842,106.751815 L540.878886,109.194027 C539.667806,110.53725 515.335555,139.432887 486.807211,173.406559 C439.171591,230.134603 435.05001,235.35703 436.315794,237.383847 C437.64387,239.510449 546.144811,371.778218 550.641917,376.752812 L552.849718,379.195033 L507.73839,379.195033 L462.627072,379.195033 L417.353203,320.310388 C392.452574,287.923916 371.638221,261.263011 371.099104,261.064019 C370.523308,260.851481 370.118883,285.146798 370.118883,319.948655 L370.118883,379.1951 L334.299653,379.1951 L298.480432,379.1951 L298.480432,242.973491 L298.48047,242.973614 Z" id="path4149" fill="#4D9CFD"></path>
            </g>
        </g>
    </g>
</svg>