<?xml version="1.0" encoding="UTF-8" standalone="no"?>
<svg
   xmlns:dc="http://purl.org/dc/elements/1.1/"
   xmlns:cc="http://creativecommons.org/ns#"
   xmlns:rdf="http://www.w3.org/1999/02/22-rdf-syntax-ns#"
   xmlns:svg="http://www.w3.org/2000/svg"
   xmlns="http://www.w3.org/2000/svg"
   xmlns:sodipodi="http://sodipodi.sourceforge.net/DTD/sodipodi-0.dtd"
   xmlns:inkscape="http://www.inkscape.org/namespaces/inkscape"
   width="851"
   height="485"
   viewBox="0 0 680.80024 388.00014"
   id="svg2"
   version="1.1"
   inkscape:version="0.91 r13725"
   sodipodi:docname="myrrord.svg">
  <metadata
     id="metadata9">
    <rdf:RDF>
      <cc:Work
         rdf:about="">
        <dc:format>image/svg+xml</dc:format>
        <dc:type
           rdf:resource="http://purl.org/dc/dcmitype/StillImage" />
        <dc:title></dc:title>
      </cc:Work>
    </rdf:RDF>
  </metadata>
  <defs
     id="defs7" />
  <sodipodi:namedview
     pagecolor="#ffffff"
     bordercolor="#666666"
     borderopacity="1"
     objecttolerance="10"
     gridtolerance="10"
     guidetolerance="10"
     inkscape:pageopacity="0"
     inkscape:pageshadow="2"
     inkscape:window-width="1366"
     inkscape:window-height="706"
     id="namedview5"
     showgrid="false"
     units="px"
     inkscape:zoom="0.91650522"
     inkscape:cx="455.66832"
     inkscape:cy="259.20168"
     inkscape:window-x="-8"
     inkscape:window-y="-8"
     inkscape:window-maximized="1"
     inkscape:current-layer="svg2" />
  <g
     id="g4134"
     transform="matrix(1.94,0,0,1.94,146.40004,-364.72019)">
    <rect
       y="188.00009"
       x="-6.1035184e-006"
       height="200.00009"
       width="200.00009"
       id="rect4137"
       style="opacity:1;fill:#39b4b1;fill-opacity:1;stroke:none;stroke-opacity:1" />
    <path
       style="fill:#ffffff;stroke:none;stroke-width:1"
       inkscape:connector-curvature="0"
       d="m 57.659088,196.94854 c 0,0 15.175264,-0.94845 15.175264,-0.94845 0,0 15.175265,0 15.175265,0 0,0 11.381449,0.92948 11.381449,0.92948 0,0 14.226814,-0.92948 14.226814,-0.92948 0,0 44.57733,0.94845 44.57733,0.94845 0,0 0,33.19589 0,33.19589 0.019,10.51836 3.73692,14.43547 6.28826,24.65981 2.69361,10.8598 3.31959,21.12207 3.19629,32.24743 -0.0949,7.74888 -2.35217,23.68291 -4.23959,31.29899 -2.22887,8.94393 -5.22598,13.37321 -5.24496,22.7629 0,0 0,38.88662 0,38.88662 0,0 -36.9897,0 -36.9897,0 0,0 -20.86599,-1.82102 -20.86599,-1.82102 0,0 -20.865989,1.82102 -20.865989,1.82102 0,0 -36.989708,0 -36.989708,0 0,0 0,-38.88662 0,-38.88662 -0.01897,-9.70268 -3.604126,-15.24166 -5.681241,-24.6598 -2.807424,-12.78517 -3.955053,-25.81693 -3.803301,-38.88662 0.09485,-7.55918 2.285775,-20.22104 4.476704,-27.50517 2.816909,-9.35176 4.988869,-9.42764 5.007838,-19.91754 0,0 0,-33.19589 0,-33.19589 0,0 15.175265,0 15.175265,0 z m -11.38145,3.79382 c 0,0 0.948454,29.40207 0.948454,29.40207 0,0 7.843716,-10.43299 7.843716,-10.43299 0,0 5.491549,-8.91547 5.491549,-8.91547 0,0 8.479179,-2.53237 8.479179,-2.53237 0,0 18.020627,-8.4697 18.020627,-8.4697 0,0 -40.783525,0.94846 -40.783525,0.94846 z m 93.896952,0 c -7.02804,-0.0854 -20.23052,-2.51341 -26.55671,0 0,0 18.02062,7.52124 18.02062,7.52124 0,0 9.35176,3.20577 9.35176,3.20577 0,0 4.61897,8.24207 4.61897,8.24207 0,0 8.79217,10.43299 8.79217,10.43299 0,0 0,-29.40207 0,-29.40207 0,0 -14.22681,0 -14.22681,0 z m -36.04125,1.23299 c -7.369494,-1.06227 -19.433827,2.34268 -25.608263,6.39258 0,0 14.226811,0 14.226811,0 0,0 7.587632,0.83464 7.587632,0.83464 0,0 11.38144,-0.87258 11.38144,-0.87258 0,0 10.43299,-0.94845 10.43299,-0.94845 0,0 -18.02061,-5.40619 -18.02061,-5.40619 z m -43.059818,18.69403 c -0.654433,1.73567 -0.588042,4.74227 -0.569073,6.62969 0.03794,2.53237 0.01897,3.33856 0.948454,5.69073 4.912993,-6.49691 10.992584,-12.46269 18.020628,-16.64537 0,0 7.587632,-4.22062 7.587632,-4.22062 -8.156704,0 -22.355062,-1.07176 -25.987641,8.54557 z m 78.133648,-0.92 c -3.87918,-7.37898 -18.56125,-9.46558 -25.58929,-6.67712 12.74722,3.64206 17.4895,12.00743 26.55671,19.91754 0,-3.30063 0.45526,-10.52785 -0.96742,-13.24042 z m 0.96742,102.39511 c 0,0 0,-73.03098 0,-73.03098 0,-2.5134 0.10433,-5.1501 -0.60701,-7.58763 -2.06762,-7.1798 -10.41403,-15.48825 -16.46516,-19.57609 -5.57692,-3.76536 -15.95299,-8.32743 -22.7629,-8.32743 -13.961244,0 -34.229707,13.91382 -38.915071,26.95507 -1.062267,2.9402 -0.910515,5.48206 -0.92,8.53608 0,0 0,42.68043 0,42.68043 0,0 0,23.71137 0,23.71137 0,3.49979 -0.275051,10.1769 0.597527,13.27836 1.621855,5.67175 6.202889,12.51959 10.783923,16.1237 0,0 16.152172,-29.40206 16.152172,-29.40206 0,0 0.550104,-10.43301 0.550104,-10.43301 0,0 3.556702,-8.53607 3.556702,-8.53607 0,0 -2.190929,-7.58764 -2.190929,-7.58764 0,0 -5.738147,-15.17527 -5.738147,-15.17527 0,0 -5.501034,25.60827 -5.501034,25.60827 -0.550102,2.72207 -1.062268,7.83423 -3.442888,9.46557 -1.963299,1.33733 -7.54021,0.96742 -10.025159,0.96742 0,0 7.397942,-37.93817 7.397942,-37.93817 0,0 3.30062,-20.86599 3.30062,-20.86599 0,0 -5.007837,-9.48454 -5.007837,-9.48454 0,0 12.88949,0.96743 12.88949,0.96743 0,0 4.751755,8.51711 4.751755,8.51711 0,0 11.76083,18.96908 11.76083,18.96908 0,0 10.81238,-18.96908 10.81238,-18.96908 0,0 4.75176,-8.51711 4.75176,-8.51711 0,0 12.88947,-0.96743 12.88947,-0.96743 0,0 -4.93194,9.48454 -4.93194,9.48454 0,0 3.60412,20.86599 3.60412,20.86599 0,0 7.967,37.93817 7.967,37.93817 0,0 -10.02515,-0.96742 -10.02515,-0.96742 0,0 -3.58515,-9.46557 -3.58515,-9.46557 0,0 -6.30723,-25.60827 -6.30723,-25.60827 0,0 -7.91011,22.76291 -7.91011,22.76291 0,0 2.67464,8.53607 2.67464,8.53607 0,0 0,6.63918 0,6.63918 0,0 5.91835,12.32991 5.91835,12.32991 0,0 11.64702,20.86598 11.64702,20.86598 7.65404,-3.80329 12.29198,-14.5303 12.32991,-22.76288 z M 46.277638,244.37124 c 0,0 0,63.54643 0,63.54643 0,17.42311 -2.636702,27.68537 10.432996,41.73198 0,0 0,-14.2268 0,-14.2268 -0.04743,-9.35178 -2.162477,-10.66064 -4.287012,-18.96909 -1.735671,-6.78146 -3.291137,-18.61816 -3.300621,-25.60826 -0.01898,-10.57527 -0.341444,-18.80785 1.365773,-29.40208 0,0 3.139383,-13.27836 3.139383,-13.27836 0,0 2.90227,-7.58763 2.90227,-7.58763 0,0 0,-16.12372 0,-16.12372 -5.501034,4.80866 -10.148459,12.37732 -10.252789,19.91753 z m 104.064392,18.02063 c 2.2573,15.92454 1.76412,35.44373 -1.45115,51.21653 0,0 -4.20165,15.17527 -4.20165,15.17527 -1.10968,4.12576 -1.27092,17.09113 0,20.86598 4.94144,-8.44124 9.58887,-12.60495 9.71217,-22.7629 0,0 0,-56.90725 0,-56.90725 0,-5.51051 0.54063,-27.61898 -0.66391,-31.29898 -1.23299,-3.79382 -6.28826,-10.95465 -8.82063,-14.22681 -4.46722,11.25815 3.78434,26.37651 5.42517,37.93816 z m -111.974498,2.84536 c -2.162475,13.25939 -1.821033,23.74931 0,36.98972 0.796701,5.10268 1.545979,12.69031 4.116291,17.07218 0,0 0,-69.23716 0,-69.23716 -2.532373,4.26804 -3.404951,10.28124 -4.116291,15.17526 z m 119.827678,3.79382 c 0,0 0,33.1959 0,33.1959 0,0 0.94847,17.07218 0.94847,17.07218 2.23835,-11.89363 4.7233,-23.88208 4.74226,-36.04127 0.019,-13.54392 -2.18143,-20.45815 -4.74226,-33.19589 0,0 -0.94847,18.96908 -0.94847,18.96908 z M 53.713518,299.38159 c 0.540619,5.08372 0.863093,11.48577 2.997116,16.12372 0,0 0,-61.64953 0,-61.64953 -4.931962,9.64578 -4.182683,34.50476 -2.997116,45.52581 z m 90.254892,-30.35054 c 0,0 0,29.40207 0,29.40207 0,0 0.94845,17.07219 0.94845,17.07219 0,0 2.84536,-26.55672 2.84536,-26.55672 0.0285,-18.42847 -0.48371,-17.6128 -2.84536,-35.09281 0,0 -0.94845,15.17527 -0.94845,15.17527 z m -45.525797,49.31961 c 0,0 -10.034644,18.02064 -10.034644,18.02064 0,0 -6.259797,8.51711 -6.259797,8.51711 0,0 -9.31382,0.96743 -9.31382,0.96743 6.373612,8.89649 19.860629,17.81195 31.298988,15.81072 3.24371,-0.55959 6.57279,-2.22887 9.48454,-3.72741 6.3167,-3.24372 10.06309,-6.2693 14.2268,-12.08331 0,0 -10.26226,-0.96743 -10.26226,-0.96743 0,0 -6.25981,-8.51711 -6.25981,-8.51711 0,0 -10.03464,-18.02064 -10.03464,-18.02064 0,0 -2.845357,0 -2.845357,0 z m -37.938164,29.40208 c 0.0095,1.76412 -0.04743,4.03093 0.569073,5.69073 1.44165,3.8602 7.910106,8.48867 11.76083,9.76908 2.598765,0.87257 7.559179,0.70185 10.432995,0.66391 2.532373,-0.0379 3.329075,-0.01 5.690724,-0.94845 -11.163304,-4.83711 -20.752174,-14.67258 -27.505168,-24.65982 -1.261443,3.16784 -0.967423,6.10806 -0.948454,9.48455 z m 73.808691,-2.84537 c 0,0 -11.21072,11.21073 -11.21072,11.21073 0,0 -11.38146,7.75836 -11.38146,7.75836 9.54146,0 14.70105,1.57444 22.7629,-4.51464 2.13403,-1.62185 4.15423,-3.32908 5.12166,-5.91835 0.90104,-2.40908 0.56907,-12.02639 0.56907,-15.17528 0,0 -5.86145,6.63918 -5.86145,6.63918 z m -88.035502,9.48454 c 0,0 0,21.81446 0,21.81446 0,0 27.505168,0 27.505168,0 4.988869,0 9.788046,0.68289 14.226811,-1.89692 0,0 -17.072172,-6.54433 -17.072172,-6.54433 0,0 -11.239181,-3.23422 -11.239181,-3.23422 0,0 -3.94557,-9.19052 -3.94557,-9.19052 0,0 -8.526602,-13.27835 -8.526602,-13.27835 0,0 -0.948454,12.32988 -0.948454,12.32988 z m 98.648702,0.94847 c 0,0 -3.94556,9.19052 -3.94556,9.19052 0,0 -11.23918,3.23422 -11.23918,3.23422 0,0 -17.07217,7.4928 -17.07217,7.4928 0,0 41.73197,0.94845 41.73197,0.94845 0,0 0,-34.14434 0,-34.14434 0,0 -9.47506,13.27835 -9.47506,13.27835 z m -84.421891,4.74226 c 0,0 0.948454,0.94845 0.948454,0.94845 0,0 0,-0.94845 0,-0.94845 0,0 -0.948454,0 -0.948454,0 z m 78.721701,0 c 0,0 0.94844,0.94845 0.94844,0.94845 0,0 0,-0.94845 0,-0.94845 0,0 -0.94844,0 -0.94844,0 z m -77.773247,0.94845 c 0,0 0.948455,0.94847 0.948455,0.94847 0,0 0,-0.94847 0,-0.94847 0,0 -0.948455,0 -0.948455,0 z m 76.824777,0 c 0,0 0.94847,0.94847 0.94847,0.94847 0,0 0,-0.94847 0,-0.94847 0,0 -0.94847,0 -0.94847,0 z m -75.876322,0.94847 c 0,0 0.948454,0.94845 0.948454,0.94845 0,0 0,-0.94845 0,-0.94845 0,0 -0.948454,0 -0.948454,0 z m 74.927872,0 c 0,0 0.94845,0.94845 0.94845,0.94845 0,0 0,-0.94845 0,-0.94845 0,0 -0.94845,0 -0.94845,0 z m -30.35053,5.65277 c 0,0 -6.63918,-0.73978 -6.63918,-0.73978 0,0 -7.587632,0.73978 -7.587632,0.73978 0,0 -10.432995,0.98641 -10.432995,0.98641 11.286603,3.76535 15.60207,6.50639 27.505177,2.82639 3.37648,-1.05279 5.63381,-1.69775 8.53607,-3.8128 0,0 -11.38144,0 -11.38144,0 z"
       id="Selection" />
  </g>
</svg>
