<?xml version="1.0"?>
<svg width="851" height="485" xmlns="http://www.w3.org/2000/svg" xmlns:svg="http://www.w3.org/2000/svg">
 <metadata id="metadata3431">image/svg+xml</metadata>

 <g>
  <title>Layer 1</title>
  <g stroke="null" id="g3435">
   <rect fill="#ffffff" fill-rule="evenodd" stroke-width="1.051733px" y="1.059998" x="183" height="480.125175" width="480.125175" id="rect3339"/>
   <g stroke="null" transform="matrix(0.6829205430274092,0,0,0.6829205430274092,41.185634419304144,56.377923452136095) " id="g3451">
    <path stroke="null" fill="#d4e7ea" d="m448.493134,268.208679c0.164581,-84.046875 0.445221,-128.0625 0.623749,-97.8125c0.856781,145.182526 0.862976,250.625244 0.014526,250.625122c-0.515625,-0.000061 -0.802856,-68.765747 -0.638275,-152.812622z" id="path3447"/>
    <path stroke="null" fill="#a9cfd5" d="m401.305054,262.896179c0.000061,-120.3125 0.146851,-169.346092 0.326294,-108.963547c0.179504,60.382553 0.179504,158.820053 0,218.749985c-0.179474,59.929962 -0.326294,10.526062 -0.326294,-109.786438zm128.714844,135.3125c-0.327637,-0.859375 -0.450562,-55 -0.273193,-120.3125l0.322571,-118.75l0.624878,120.312592c0.343628,66.171906 0.466492,120.312561 0.273071,120.3125c-0.193481,-0.000061 -0.619812,-0.703217 -0.947327,-1.562592zm42.511169,-25c-0.996643,-2.664795 -1.268555,-205.733994 -0.274597,-205.119537c0.515564,0.318771 0.937561,46.624496 0.937561,102.901642c0,80.688049 0.330261,102.455383 1.562378,102.952545c1.223816,0.493805 1.215332,0.651855 -0.039185,0.729156c-0.881042,0.054199 -1.864807,-0.604431 -2.186157,-1.463806l0,0z" id="path3445"/>
    <path stroke="null" fill="#4fa7b3" d="m401.94397,262.838593l0,-218.070576l97.499969,48.753162l97.500092,48.753174l0,119.308411l0,119.30835l-3.437561,-1.088135c-1.890625,-0.598511 -7.23114,-2.301514 -11.867737,-3.784485l-8.430298,-2.69632l-0.319763,-102.703094l-0.319763,-102.70314l-61.249969,-25.936829c-33.687531,-14.265259 -61.671906,-25.941582 -62.187531,-25.94738c-0.515625,-0.005798 -0.937469,68.614449 -0.937469,152.489449c0,83.875 0.383423,152.5 0.852142,152.5c0.468689,0 16.928162,-4.210358 36.576599,-9.356354l35.724548,-9.356323l22.315247,9.289856c12.273315,5.109436 22.524292,9.499023 22.779907,9.754608c0.255615,0.255615 -33.136353,12.455261 -74.204285,27.110321c-41.068054,14.65509 -78.184814,27.950653 -82.481628,29.545715l-7.8125,2.900146l0,-218.070557l0,0z" id="path3441"/>
    <path stroke="null" fill="#003a4e" d="m626.006409,436.968811l-95.3125,-38.820923l0,-119.098114l0,-119.098129l11.562561,4.685822l13.562439,4.685806l-0.749939,205.931122l59.999939,19.730011c33,10.851501 60.703125,19.742767 61.5625,19.758392c1.241577,0.022583 1.562561,-31.181641 1.562561,-151.930847l0,-151.959229l-2.812561,0.87571c-1.546875,0.481651 -18.199036,6.400078 -37.004761,13.152061l-34.192261,12.276352l-18.753784,-9.392563c-10.314575,-5.165909 -18.551758,-9.594673 -18.304749,-9.841682c0.390198,-0.390167 153.755554,-72.767143 153.755554,-72.767143l0,430.75c0,0 -42.453125,-17.585144 -94.875,-38.936676l0,0.000031z" id="path3437"/>
   </g>
  </g>
 </g>
</svg>