<?xml version="1.0" encoding="UTF-8" standalone="no"?>
<svg
   xmlns:dc="http://purl.org/dc/elements/1.1/"
   xmlns:cc="http://creativecommons.org/ns#"
   xmlns:rdf="http://www.w3.org/1999/02/22-rdf-syntax-ns#"
   xmlns:svg="http://www.w3.org/2000/svg"
   xmlns="http://www.w3.org/2000/svg"
   xmlns:sodipodi="http://sodipodi.sourceforge.net/DTD/sodipodi-0.dtd"
   xmlns:inkscape="http://www.inkscape.org/namespaces/inkscape"
   width="821"
   height="485"
   viewBox="0 0 656.80007 388.00003"
   id="svg2"
   version="1.1"
   inkscape:version="0.48.5 r10040"
   sodipodi:docname="phone.svg">
  <metadata
     id="metadata9">
    <rdf:RDF>
      <cc:Work
         rdf:about="">
        <dc:format>image/svg+xml</dc:format>
        <dc:type
           rdf:resource="http://purl.org/dc/dcmitype/StillImage" />
        <dc:title></dc:title>
      </cc:Work>
    </rdf:RDF>
  </metadata>
  <defs
     id="defs7" />
  <sodipodi:namedview
     pagecolor="#ffffff"
     bordercolor="#666666"
     borderopacity="1"
     objecttolerance="10"
     gridtolerance="10"
     guidetolerance="10"
     inkscape:pageopacity="0"
     inkscape:pageshadow="2"
     inkscape:window-width="1440"
     inkscape:window-height="837"
     id="namedview5"
     showgrid="false"
     inkscape:zoom="1.0429826"
     inkscape:cx="377.81495"
     inkscape:cy="269.95316"
     inkscape:window-x="-8"
     inkscape:window-y="-8"
     inkscape:window-maximized="1"
     inkscape:current-layer="svg2" />
  <path
     sodipodi:type="arc"
     style="fill:#000000;fill-opacity:1;stroke:none"
     id="path3757-8-6-7"
     sodipodi:cx="165"
     sodipodi:cy="387.36218"
     sodipodi:rx="135"
     sodipodi:ry="135"
     d="m 300,387.36218 a 135,135 0 1 1 -270,0 135,135 0 1 1 270,0 z"
     transform="matrix(1.4370372,0,0,1.4370372,91.288898,-362.65385)" />
  <path
     style="fill:#ffffff;fill-opacity:1;stroke:none"
     d="m 356.71875,49.28125 c -19.14571,1.012474 -34.25,17.54295 -34.25,37.90625 l 0,309.75 c 0,21.02019 16.0747,37.90625 36.09375,37.90625 l 103.9375,0 c 20.01957,0 36.15625,-16.88606 36.15625,-37.90625 l 0,-309.75 c 0,-21.020183 -16.13668,-37.90625 -36.15625,-37.90625 l -103.9375,0 c -0.62562,0 -1.22618,-0.03258 -1.84375,0 z m 52.4375,25.875 c 1.68494,0 3.0625,1.377564 3.0625,3.0625 0,1.684936 -1.37756,3.0625 -3.0625,3.0625 -1.68494,0 -3.0625,-1.377564 -3.0625,-3.0625 0,-1.684936 1.37756,-3.0625 3.0625,-3.0625 z m -74.9955,24.76719 154.97968,0 0,279.7487 -154.97968,0 z"
     transform="matrix(0.80000009,0,0,0.80000009,0,-5.6760049e-6)"
     id="rect3079"
     inkscape:connector-curvature="0"
     sodipodi:nodetypes="csssssssscsssssccccc" />
  <path
     transform="matrix(0.83298559,0,0,0.87464029,-822.70063,-102.24463)"
     d="m 1393.3897,486.77966 a 11.864406,11.864406 0 1 1 -23.7288,0 11.864406,11.864406 0 1 1 23.7288,0 z"
     sodipodi:ry="11.864406"
     sodipodi:rx="11.864406"
     sodipodi:cy="486.77966"
     sodipodi:cx="1381.5253"
     id="path3087"
     style="fill:#ffffff;fill-opacity:1;stroke:#909090;stroke-opacity:1;stroke-width:0.46862619000000000;stroke-miterlimit:1;stroke-dasharray:none;stroke-linejoin:round"
     sodipodi:type="arc" />
  <rect
     style="fill:#ffffff;stroke:#676767;stroke-width:0.40000004000000000;stroke-linejoin:round;stroke-miterlimit:1;stroke-opacity:1;stroke-dasharray:none"
     id="rect3820"
     width="5.1525421"
     height="5.2881355"
     x="325.52304"
     y="321.19568"
     ry="1.0847458" />
</svg>
