<?xml version="1.0"?>
<svg width="851" height="485" xmlns="http://www.w3.org/2000/svg" xmlns:svg="http://www.w3.org/2000/svg">

 <metadata id="metadata4163">image/svg+xml</metadata>
 <g>
  <title>Layer 1</title>
  <g stroke="null" id="g3001">
   <path stroke="null" fill="#fcfcfd" id="path3017" d="m183,243l0,-243l243,0l243,0l0,243l0,243l-243,0l-243,0l0,-243z"/>
   <path stroke="null" fill="#b4bbc4" id="path3015" d="m183,243l0,-243l243,0l243,0l0,243l0,243l-243,0l-243,0l0,-243zm212.176086,65.610016c16.494446,-45.173706 30.675537,-82.134018 31.51355,-82.134018c0.838043,0 15.667084,36.960312 32.953491,82.134018c17.286407,45.173706 32.395599,82.133972 33.576019,82.133972c1.180359,0 17.704926,-44.396088 36.721161,-98.65799c50.376709,-143.747162 51.041138,-145.487183 57.690308,-151.082138c3.150696,-2.651154 9.188354,-5.856857 13.416992,-7.123779c4.228638,-1.266922 7.688416,-3.477234 7.688416,-4.911789c0,-2.092552 -7.495605,-2.608292 -37.90802,-2.608292c-31.351257,0 -37.907959,0.4748 -37.907959,2.745132c0,1.722092 3.078979,3.247513 8.261963,4.093185c16.892944,2.756317 19.76825,10.341629 13.842651,36.517929c-2.991577,13.215225 -48.239441,138.60556 -51.201019,141.887726c-1.881226,2.084808 -62.071075,-152.134155 -63.529785,-162.77652c-1.035645,-7.555817 -0.631134,-8.805679 3.786743,-11.700394c2.720428,-1.782486 9.825409,-3.744476 15.788818,-4.359955c7.297668,-0.753174 10.84259,-1.98349 10.84259,-3.763077c0,-2.164078 -9.527588,-2.644028 -52.488007,-2.644028c-43.449554,0 -52.487976,0.464127 -52.487976,2.695282c0,1.703613 3.215149,3.177399 8.738739,4.005707c16.150055,2.42186 22.283173,10.728027 37.957489,51.406311l6.285156,16.31131l-9.24939,24.512695c-25.613403,67.880783 -32.650208,85.747208 -33.765747,85.730942c-2.632538,-0.038422 -61.147736,-156.621109 -61.269592,-163.953262c-0.149292,-8.981201 3.20285,-11.983398 15.427002,-13.816513c5.636353,-0.84523 8.660309,-2.275299 8.660309,-4.095581c0,-2.357079 -7.489502,-2.79689 -47.627991,-2.79689c-37.113174,0 -47.628006,0.54303 -47.628006,2.459702c0,1.352844 4.350571,4.004898 9.667953,5.893448c6.059387,2.1521 11.460876,5.784439 14.471527,9.731598c9.491241,12.443665 24.168091,50.244156 71.288666,183.60524c12.183411,34.48172 23.128723,62.694 24.322876,62.694c1.194183,0 15.666656,-36.960266 32.161072,-82.133972z"/>
   <path stroke="null" fill="#969fab" id="path3013" d="m183,243l0,-243l243,0l243,0l0,243l0,243l-243,0l-243,0l0,-243zm211.810608,67.554016c16.433411,-45.173706 30.46167,-82.815536 31.173859,-83.648514c0.712189,-0.832962 15.659943,35.844864 33.217224,81.506302c17.557281,45.661438 32.811249,83.307953 33.897766,83.658966c1.086456,0.351013 19.360382,-49.011444 40.608551,-109.694305c21.248291,-60.682831 41.217896,-116.675827 44.377014,-124.428848c6.23822,-15.309952 11.507996,-20.750793 23.128784,-23.879959c4.378235,-1.17894 7.522217,-3.212952 7.522217,-4.866592c0,-2.397377 -6.071716,-2.841064 -38.880066,-2.841064c-32.725708,0 -38.879944,0.447632 -38.879944,2.827911c0,1.761337 2.749451,3.274414 7.289978,4.011765c19.169067,3.11293 21.95874,7.984619 17.575195,30.692047c-2.448303,12.683167 -46.224396,136.497467 -51.843658,146.632568c-1.110779,2.003357 -51.590759,-123.747299 -61.656952,-153.593613c-5.429504,-16.098511 -1.401794,-21.290024 18.573181,-23.939789c6.372437,-0.845322 9.798248,-2.23175 9.798248,-3.965332c0,-2.192253 -9.319824,-2.665558 -52.488007,-2.665558c-43.907928,0 -52.487976,0.448746 -52.487976,2.745132c0,1.667847 2.924744,3.239243 7.452881,4.004288c16.950592,2.863785 21.957977,9.276001 37.283295,47.743347l7.895447,19.817932l-20.912262,55.145004c-11.50177,30.329742 -21.511414,54.506714 -22.243683,53.726624c-1.242798,-1.323883 -55.253143,-142.190353 -59.427216,-154.994324c-3.028259,-9.289169 0.199921,-17.937607 7.200012,-19.289169c3.198517,-0.617554 8.43988,-1.629745 11.647491,-2.249283c3.214386,-0.620865 5.832001,-2.365952 5.832001,-3.888c0,-2.312424 -7.904144,-2.761551 -48.599976,-2.761551c-41.626129,0 -48.600021,0.413116 -48.600021,2.878967c0,1.583435 2.405716,3.445389 5.346008,4.137711c21.026993,4.950989 25.600632,14.537308 79.980331,167.639069c32.470093,91.417145 32.567261,91.672241 34.914246,91.672241c0.784912,0 14.87265,-36.960266 31.30603,-82.133972z"/>
   <path stroke="null" fill="#788493" id="path3011" d="m183,243l0,-243l243,0l243,0l0,243l0,243l-243,0l-243,0l0,-243zm211.80954,68.526001c16.288452,-44.639099 30.231293,-82.269897 30.9841,-83.623993c0.773499,-1.391327 15.269287,33.904816 33.332458,81.161987c17.580048,45.993195 32.927643,83.623993 34.105743,83.623993c1.178101,0 18.606598,-47.020477 38.730011,-104.48999c20.123413,-57.469498 40.001343,-113.438171 44.173157,-124.374832c8.081787,-21.186829 12.047363,-25.832199 24.893066,-29.160858c3.821594,-0.99028 7.00293,-3.161041 7.361511,-5.023117c0.5755,-2.988312 -2.829834,-3.27919 -38.391052,-3.27919c-32.058655,0 -39.022522,0.483269 -39.022522,2.708023c0,3.243698 4.178284,5.067978 11.607605,5.067978c3.001709,0 7.522827,1.674057 10.046997,3.720108c3.828491,3.103378 4.540649,5.360626 4.29541,13.615631c-0.161682,5.442551 -1.378296,14.484802 -2.703613,20.093903c-1.947388,8.241837 -49.400269,139.120148 -50.985565,140.621857c-0.840363,0.79599 -59.898132,-151.768265 -62.084747,-160.38382c-2.05426,-8.09433 -1.895691,-8.817963 2.821808,-12.875793c3.173767,-2.729965 8.96637,-4.795227 15.868225,-5.657547c7.488647,-0.935654 10.869873,-2.221664 10.869873,-4.134216c0,-2.338196 -8.433228,-2.776123 -53.460022,-2.776123c-44.745026,0 -53.459991,0.44751 -53.459991,2.745132c0,1.718231 3.090668,3.258652 8.262024,4.117874c18.143463,3.014557 22.45874,8.270279 37.249023,45.366837l8.810333,22.097855l-20.842682,55.060822c-11.46347,30.283493 -21.383606,54.45665 -22.044739,53.718155c-3.629333,-4.053925 -60.033936,-156.77327 -60.033936,-162.54599c0,-7.751129 5.465393,-12.784683 13.881531,-12.784683c7.222748,0 11.390442,-1.854355 11.390442,-5.067978c0,-2.242699 -8.375641,-2.708023 -48.742523,-2.708023c-44.679672,0 -48.689911,0.273331 -48.111023,3.27919c0.361694,1.878189 3.537201,4.019974 7.432541,5.013062c18.869064,4.810516 25.125198,18.535477 82.83812,181.733734c14.840759,41.966095 27.957428,76.302002 29.148163,76.302002c1.190704,0 15.491821,-36.522888 31.780273,-81.161987z"/>
   <path stroke="null" fill="#687687" id="path3009" d="m183,243l0,-243l243,0l243,0l0,243l0,243l-243,0l-243,0l0,-243zm182.736023,149.129028c0,-0.996399 60.215363,-165.280396 60.79187,-165.856949c0.307159,-0.307114 14.91861,37.010818 32.469849,82.928757c19.524323,51.079742 32.896362,83.487152 34.448822,83.487152c1.395599,0 2.537445,-0.303925 2.537445,-0.675385c0,-1.870209 82.039734,-233.901382 85.334534,-241.34993c3.698425,-8.361008 10.260681,-13.089828 24.015503,-17.305878c1.871033,-0.573517 3.401978,-2.382416 3.401978,-4.019775c0,-2.574493 -5.276428,-2.97702 -39.022522,-2.97702c-36.02655,0 -38.972595,0.259598 -38.371399,3.381226c0.466003,2.4198 3.355042,3.767975 10.160583,4.74147c5.230164,0.748154 10.772278,2.623108 12.315735,4.16658c3.33783,3.337845 3.584106,17.500351 0.547058,31.460297c-2.120117,9.745102 -48.143738,136.684708 -50.589722,139.533493c-1.373199,1.599304 -58.466095,-143.103622 -62.262909,-157.806396c-1.950195,-7.551971 -1.780487,-8.96904 1.462677,-12.212219c2.017883,-2.017868 7.115784,-4.134949 11.328705,-4.704605c13.816193,-1.868149 16.407776,-2.765427 16.407776,-5.680878c0,-2.472832 -7.541656,-2.878967 -53.460022,-2.878967c-44.399109,0 -53.459991,0.458977 -53.459991,2.708023c0,3.149033 4.145203,5.067978 10.94754,5.067978c7.894989,0 15.823425,5.347916 20.910919,14.104828c5.294098,9.112595 20.811951,47.218323 21.146423,51.927307c0.262634,3.696808 -39.492432,108.945084 -41.127747,108.882492c-2.305908,-0.088257 -60.564026,-156.538223 -60.520874,-162.526596c0.055725,-7.744354 3.359009,-10.406342 14.97522,-12.067963c6.641235,-0.949997 9.51062,-2.30632 9.974457,-4.714859c0.604675,-3.1399 -2.837585,-3.38121 -48.233917,-3.38121c-43.730347,0 -48.818817,0.327209 -48.256561,3.103165c0.345703,1.706741 4.059601,4.279816 8.253098,5.717941c4.193497,1.438126 10.148117,5.138321 13.232437,8.222672c8.182129,8.182114 24.080109,47.856216 62.210724,155.249512c20.810974,58.61319 34.337708,94.034698 35.909912,94.034698c1.387299,0 2.5224,-0.251526 2.5224,-0.55896z"/>
   <path stroke="null" fill="#526175" id="path3007" d="m183,243l0,-243l243,0l243,0l0,243l0,243l-243,0l-243,0l0,-243zm186.240509,139.481995c2.081085,-5.613281 15.839294,-43.239563 30.5737,-83.613953c14.734436,-40.374359 26.95697,-73.179367 27.161224,-72.899994c0.204193,0.279373 14.639679,37.90567 32.078888,83.613953c18.40329,48.235382 32.726471,83.105988 34.135895,83.105988c1.335571,0 3.72876,-3.717896 5.318237,-8.261993c43.546295,-124.494232 79.970673,-226.862534 83.06015,-233.43515c4.141113,-8.809906 15.146973,-16.854843 23.058044,-16.854843c2.813354,0 4.109375,-1.226196 4.109375,-3.888c0,-3.758881 -1.296021,-3.888 -39.022522,-3.888c-36.117554,0 -38.973877,0.253265 -38.36853,3.401993c0.446411,2.322205 3.114014,3.744324 8.404541,4.480484c14.055786,1.955856 16.498535,4.427094 16.498535,16.691315c0,5.955948 -1.369385,16.113434 -3.04303,22.572205c-2.856628,11.024078 -45.785187,128.981186 -49.089294,134.885361c-1.439606,2.572418 -52.328369,-123.96402 -60.951538,-151.557846c-5.273132,-16.873779 -0.416962,-22.69751 18.926361,-22.69751c7.325439,0 8.62146,-0.584457 8.62146,-3.888c0,-3.793999 -1.296021,-3.888 -53.602539,-3.888c-49.878113,0 -53.557312,0.234932 -52.951385,3.381226c0.459656,2.38678 3.293488,3.759171 9.635376,4.666336c13.177734,1.88501 18.237885,6.19252 25.584045,21.778625c7.242554,15.366318 17.551941,41.765442 17.547974,44.934952c-0.005829,4.693848 -40.42276,107.853073 -41.733704,106.520187c-3.340027,-3.395966 -59.999756,-155.514969 -59.999756,-161.086304c0,-7.766968 3.29129,-10.433899 14.931458,-12.098938c6.641235,-0.949997 9.51062,-2.30632 9.974457,-4.714859c0.604645,-3.139709 -2.830475,-3.381226 -48.0914,-3.381226c-47.446533,0 -48.742538,0.103378 -48.742538,3.888c0,2.623398 1.296005,3.888 3.984543,3.888c2.191498,0 6.520279,1.311279 9.619507,2.913956c14.836517,7.672256 21.55246,23.560104 80.737671,191.000031c13.985107,39.565063 23.818054,64.638 25.349304,64.638c1.375916,0 4.204376,-4.592682 6.285492,-10.205994l0,0z"/>
   <path stroke="null" fill="#35485e" id="path3005" d="m183,243l0,-243l243,0l243,0l0,243l0,243l-243,0l-243,0l0,-243zm212.770599,67.510681c16.317413,-44.662903 30.09201,-81.629318 30.61026,-82.147537c0.518219,-0.518219 15.185333,36.242874 32.593597,81.69133c18.485229,48.260162 32.667725,82.633514 34.094604,82.633514c3.150238,0 0.431061,7.254517 46.47757,-123.99765c21.862793,-62.31813 41.391479,-116.115326 43.397095,-119.549377c4.406616,-7.545227 14.956055,-15.004959 21.219727,-15.004959c3.581421,0 4.572571,-1.053482 4.572571,-4.860001l0,-4.860001l-38.880066,0l-38.879944,0l0,4.860001c0,4.04747 0.926514,4.860001 5.54187,4.860001c9.63562,0 17.708252,3.872864 19.027344,9.128448c1.918762,7.645126 -0.767151,26.686844 -5.92157,41.980621c-2.597839,7.708221 -14.125,39.299576 -25.615784,70.203049l-20.892334,56.18808l-9.461517,-24.112091c-57.746399,-147.163483 -57.048218,-144.898483 -46.366577,-150.42218c3.15451,-1.631271 9.715515,-2.965927 14.580017,-2.965927c8.153229,0 8.844543,-0.382294 8.844543,-4.891251l0,-4.891243l-52.973999,0.517242c-51.394775,0.501823 -52.973999,0.632431 -52.973999,4.381218c0,3.141068 1.769318,4.117081 9.457123,5.216782c5.708618,0.816559 11.406891,3.137726 14.376129,5.856003c5.440521,4.980713 17.11911,28.563065 24.021942,48.507019l4.464752,12.899765l-14.960907,39.588211c-27.506683,72.785843 -26.017639,69.417038 -28.239716,63.88826c-19.290833,-47.997833 -58.691315,-154.772003 -58.691315,-159.051773c0,-7.550125 3.927032,-10.463913 15.616486,-11.587128c8.604462,-0.826782 9.655487,-1.429871 9.655487,-5.540436l0,-4.612671l-48.599976,0l-48.600021,0l0,4.643646c0,3.741501 1.283554,4.884445 6.606796,5.883102c20.410065,3.828949 21.72821,6.894897 108.557678,252.498505c1.130493,3.197662 3.111572,5.203674 4.799591,4.859985c1.861359,-0.378967 13.331482,-29.207367 32.542542,-81.790588l0,0.000031z"/>
   <path stroke="null" fill="#182d48" id="path3003" d="m183,243l0,-243l243,0l243,0l0,243l0,243l-243,0l-243,0l0,-243zm213.183105,67.24942c16.37793,-44.80661 30.033997,-81.722519 30.346802,-82.035309c0.312775,-0.31279 14.695129,36.347198 31.960724,81.466583c24.478638,63.968811 32.125885,82.035309 34.724274,82.035309c2.652771,0 11.191467,-22.394714 41.878479,-109.835999c46.062012,-131.251709 47.231323,-134.331955 53.084473,-139.830704c2.524902,-2.37207 8.402161,-5.438217 13.060486,-6.81366c6.126465,-1.808929 8.469666,-3.517059 8.469666,-6.17421c0,-3.463654 -2.248108,-3.703491 -39.365967,-4.199684l-39.366028,-0.526253l0,4.64743c0,4.072144 1.092651,4.770584 8.826843,5.642349c12.111755,1.365158 16.44519,5.723969 16.44519,16.541412c0,13.608063 -4.467834,28.130768 -29.608459,96.243439l-23.512634,63.702179l-29.897949,-76.338181c-16.443878,-41.985962 -30.419373,-80.487457 -31.056702,-85.558853c-1.147614,-9.132462 -1.091614,-9.248734 5.852051,-12.149994c3.855927,-1.611099 10.538055,-2.929276 14.849213,-2.929276c7.065002,0 7.83844,-0.479553 7.83844,-4.860001l0,-4.860001l-53.460022,0l-53.459991,0l0,4.860001c0,4.186447 0.875641,4.860413 6.317993,4.863022c8.753601,0.004272 19.053223,5.609955 24.046539,13.08783c4.533966,6.789932 22.123474,49.437302 22.123474,53.64035c0,5.395355 -40.595795,109.050034 -41.625854,106.284805c-0.597443,-1.60379 -14.220825,-37.321564 -30.2742,-79.372803c-16.053345,-42.051254 -29.17453,-78.355438 -29.158173,-80.67601c0.016327,-2.320572 0.690277,-5.257965 1.497589,-6.527588c2.019196,-3.175552 11.16272,-6.439606 18.039215,-6.439606c4.789795,0 5.705414,-0.779968 5.705414,-4.860001l0,-4.860001l-48.599976,0l-48.600021,0l0,4.617004c0,3.602783 1.317047,4.880402 5.995621,5.816116c19.390411,3.878082 24.508972,14.72139 77.664215,164.526886c16.882538,47.579407 31.319641,88.081818 32.082458,90.005432c3.822083,9.638153 7.908325,0.940491 37.176819,-79.132019z"/>
  </g>
 </g>
</svg>